<?xml version="1.0" encoding="UTF-8"?>
<svg id="uuid-9de94f00-c976-4ede-b8b0-114b89005680" data-name="图层 1" xmlns="http://www.w3.org/2000/svg" viewBox="0 0 1366 768">
  <defs>
    <style>
      .uuid-fdc495aa-31a3-4cd9-a742-1e87234cc76c {
        fill: #1988ce;
      }

      .uuid-908915d5-731f-43a3-b0b7-eab33d703d72 {
        fill: #1083cc;
      }
    </style>
  </defs>
  <rect width="1366" height="768"/>
  <path class="uuid-908915d5-731f-43a3-b0b7-eab33d703d72" d="M465.77,541.88c-15.14-8.98-30.2-18.11-45.45-26.91-28.39-16.39-56.85-32.65-85.39-48.78-3.77-2.13-4.93-4.56-4.91-8.82,.24-48.3,.33-96.6,.24-144.91,0-4.67,1.23-7.37,5.43-9.75,31.08-17.62,62.04-35.44,92.95-53.36,12.5-7.25,24.76-14.9,37.13-22.37,.79,0,1.57,0,2.36,0,9.1,7.15,19.61,12,29.54,17.78,33.75,19.66,67.65,39.08,101.5,58.57,2.3,1.33,3.89,2.64,3.87,5.83-.24,50.07-.36,100.14-.37,150.21,0,3.33-1.98,4.4-4.18,5.67-42.31,24.47-84.63,48.93-126.92,73.43-1.64,.95-3.63,1.52-4.63,3.4h-1.18Zm64.58-157.3c0-19.05-.28-38.12,.14-57.16,.16-7.06-.51-12.6-8.19-15.27-2.65-.92-4.82-4-7.85-1.4-3.83,3.27-10.33,3.56-9.99,11.37,.64,14.51,.04,29.07,.27,43.6,.07,4.08-1.04,5.42-5.24,5.38-21.82-.19-43.64-.25-65.46,.04-4.78,.06-5.41-1.7-5.34-5.78,.22-12.96-.31-25.95,.24-38.89,.29-6.86-1.12-11.55-7.93-14.32-3.1-1.26-5.65-3.91-9.04-1.15-3.93,3.21-9.64,3.96-9.55,11.67,.49,40.07,.37,80.15,.08,120.22-.05,6.44,1.2,10.83,7.55,13.42,3,1.22,5.4,4.29,8.93,1.45,4.11-3.31,10.44-3.99,10.01-12.03-.76-14.1-.08-28.28-.3-42.42-.06-4.1,.64-5.84,5.38-5.78,21.82,.27,43.64,.23,65.46,.03,4.26-.04,5.26,1.41,5.2,5.4-.22,13.16,.29,26.34-.24,39.48-.27,6.62,1.07,11.22,7.55,14.03,2.87,1.25,5.31,3.94,8.41,1.24,3.78-3.29,10.32-3.34,10.1-11.26-.59-20.61-.2-41.25-.2-61.87Z"/>
  <path class="uuid-fdc495aa-31a3-4cd9-a742-1e87234cc76c" d="M715.79,325.1c0,15.51-.18,31.03,.11,46.53,.09,4.76-2.25,4.99-5.77,4.82-3.28-.16-6.64,.82-6.47-4.73,.35-11.97,0-23.95,.18-35.93,.06-3.71-.91-5.21-4.92-5.15-13.75,.21-27.51,.25-41.26-.02-4.18-.08-4.81,1.6-4.76,5.16,.16,11.97-.15,23.96,.17,35.93,.13,4.85-2.39,4.88-5.84,4.74-3.16-.12-5.86,.58-6.05-4.55-1.07-28.26-.2-56.52-.47-84.77-.02-2.53,.8-5.11,.53-7.59-.49-4.62,1.53-5.39,5.72-5.55,5.13-.2,6.23,1.68,6.1,6.41-.31,11.58,.04,23.17-.18,34.75-.07,3.89,.74,5.55,5.09,5.46,13.55-.26,27.11-.24,40.67,0,4.2,.07,5.29-1.37,5.21-5.39-.24-11.97,.17-23.96-.2-35.93-.16-5,2.18-5.3,6.02-5.2,3.6,.09,6.35-.13,6.24,5.06-.32,15.31-.11,30.63-.11,45.94Z"/>
  <path class="uuid-fdc495aa-31a3-4cd9-a742-1e87234cc76c" d="M901.55,325.42c-.39-7.26-.56-14.52,.81-21.71,3.8-19.82,17.85-31.35,37.72-30.89,20.03,.46,34.08,12.96,36.69,32.94,1.63,12.5,1.73,25.06,.14,37.57-2.78,21.87-17.25,34.82-38.28,34.43-21.06-.38-35.41-14.41-37.02-36.45-.38-5.27-.06-10.59-.06-15.89Zm10.94-.58c.21,8.61-.26,17.32,2.74,25.61,3.84,10.61,11.28,16.88,22.76,17.44,10.62,.52,19.3-3.81,23.35-13.63,7.78-18.86,7.37-38.47,.42-57.33-4.08-11.08-14.49-15.53-25.86-14.03-11.22,1.49-18.95,8.79-21.64,20.28-1.67,7.14-1.56,14.4-1.76,21.65Z"/>
  <path class="uuid-fdc495aa-31a3-4cd9-a742-1e87234cc76c" d="M738.43,325.47c0-15.33,.12-30.66-.08-45.98-.05-3.98,.89-5.46,5.18-5.41,17.89,.23,35.79,.18,53.68,.03,3.63-.03,5.28,.7,5.25,4.81-.03,3.91-1.27,5-5.08,4.95-13.57-.2-27.14,.1-40.7-.18-4.69-.1-6.7,.95-6.44,6.11,.42,8.23,.28,16.51,.04,24.75-.12,3.94,1.35,5.06,5.13,4.99,10.62-.2,21.24,.14,31.85-.16,4.67-.13,4.86,2.2,4.97,5.78,.12,3.88-1.1,5.05-5.05,4.94-10.61-.29-21.24,.03-31.85-.17-3.88-.07-5.15,1.29-5.05,5.12,.22,8.64,.28,17.3-.02,25.94-.15,4.32,1.03,5.83,5.57,5.73,13.76-.29,27.53,.04,41.29-.19,4.17-.07,5.26,1.29,5.35,5.35,.11,4.5-2.18,4.59-5.47,4.57-17.89-.07-35.79-.13-53.68,.04-3.85,.04-5.04-1.12-4.99-5.04,.22-15.33,.09-30.66,.09-45.98Z"/>
  <path class="uuid-fdc495aa-31a3-4cd9-a742-1e87234cc76c" d="M823.44,273.9c2.86-.8,5.23,1.41,7.29,5.1,5.75,10.29,11.73,20.44,17.77,30.56,3.82,6.4,4.01,6.36,7.94-.31,6.19-10.49,12.25-21.04,18.41-31.54,1.68-2.86,11.1-5.22,13.6-3.27,2.1,1.65-.05,3.2-.79,4.44-6.25,10.44-11.83,21.42-19.24,30.98-7.97,10.29-7.99,18.54,.16,28.78,8.28,10.39,14.75,22.22,22.01,33.42,.72,1.11,2.09,2.13,1.31,3.6-.65,1.23-2.13,.55-3.23,.76-6.64,1.26-10.72-1.31-14.07-7.32-6.11-10.97-13.21-21.38-19.72-32.13-1.99-3.29-3.26-3.11-5.16,0-7.07,11.56-14.26,23.04-21.4,34.56-2.57,4.15-10.5,6.84-14.71,4.74-3.1-1.54-.21-2.9,.52-4.05,8.96-14.08,17.87-28.2,27.12-42.09,2.77-4.16,2.89-7.31,.15-11.59-7.94-12.4-15.42-25.1-23.03-37.71-1.15-1.91-4.08-3.66-2.64-5.97,1.08-1.73,4.04-.42,7.69-.97Z"/>
  <g>
    <path class="uuid-908915d5-731f-43a3-b0b7-eab33d703d72" d="M628.42,454.61h114.2v10.11h-114.2v-10.11Z"/>
    <path class="uuid-908915d5-731f-43a3-b0b7-eab33d703d72" d="M751.12,442.78c12.41-10.19,23.05-22.33,31.94-36.42h10.45c-2.38,3.83-4.81,7.51-7.29,11.03h56.24v8.16c-9.04,8.73-18.52,16.07-28.43,22,11.64,4.33,27.06,7.41,46.24,9.25-2.6,3.6-4.29,6.93-5.05,10-21.87-3.75-38.81-8.44-50.84-14.07-13.67,6.4-31.84,11.97-54.51,16.72-1.15-2.76-2.53-5.51-4.14-8.27,21.22-3.91,37.7-8.33,49.46-13.27-6.97-4.25-13.54-9.82-19.7-16.72-5.51,6.43-11.34,12.33-17.46,17.69-2.76-2.76-5.05-4.79-6.89-6.09Zm27.57,41.59l6.78,6.32c-9.34,8.04-19.61,15.89-30.79,23.55-1.76-2.3-3.72-4.63-5.86-7.01,10.57-6.51,20.53-14.13,29.87-22.86Zm-21.71-12.41h42.62v-11.37h9.08v11.37h39.87v8.16h-39.87v24.13c0,8.96-4.71,13.44-14.13,13.44-4.14,0-8.96-.04-14.48-.11-.46-3.14-1.03-6.51-1.72-10.11,5.36,.61,9.84,.92,13.44,.92,5.21,0,7.81-2.8,7.81-8.39v-19.88h-42.62v-8.16Zm73.76-46.87h-50.09c6.74,7.24,14.76,13.31,24.07,18.21,9.08-4.94,17.75-11.01,26.02-18.21Zm-11.26,66.98l5.28-6.55c12.64,6.89,23.78,13.48,33.43,19.76l-5.51,8.04c-9.19-6.59-20.26-13.67-33.2-21.25Z"/>
    <path class="uuid-908915d5-731f-43a3-b0b7-eab33d703d72" d="M895.64,500.22c9.42-4.6,18.08-9.59,25.96-14.99v-47.16h-12.58c-1.26,17.5-3.73,31.36-7.41,41.59-5.82,16.62-16.39,30.14-31.71,40.56-1.76-2.61-4.21-5.32-7.35-8.16,14.63-9.34,24.47-21.41,29.53-36.19,3.37-9.19,5.69-21.79,6.95-37.8h-33.72v-8.73h34.24c.38-7.01,.57-14.59,.57-22.75h9.88c0,8.12-.17,15.7-.52,22.75h66.58v8.73h-44.81v39.92c11.83-9.54,21.56-20.2,29.18-32l8.27,5.51c-9.77,14.63-22.25,27.61-37.45,38.95v6.78c0,6.74,2.91,10.11,8.73,10.11h13.9c6.74,0,10.57-2.76,11.49-8.27,.69-3.98,1.42-9.76,2.18-17.35,3.22,1.3,6.51,2.53,9.88,3.68-1.23,8.04-2.3,14.05-3.22,18.04-2.15,8.58-8.23,12.87-18.27,12.87h-18.15c-10.8,0-16.2-5.55-16.2-16.66v-2.47c-6.28,4.1-12.94,7.95-19.99,11.55-1.38-2.83-3.37-5.67-5.97-8.5Zm36.76-87.31l5.63-6.43c7.35,4.59,13.79,9.27,19.3,14.02l-6.55,7.35c-5.36-4.9-11.49-9.88-18.38-14.93Z"/>
  </g>
</svg>