<?xml version="1.0" encoding="UTF-8" standalone="no"?>
<!-- Created with Inkscape (http://www.inkscape.org/) -->

<svg
   width="297mm"
   height="210mm"
   viewBox="0 0 495 350"
   version="1.1"
   id="svg5"
   inkscape:version="1.2.1 (9c6d41e410, 2022-07-14)"
   sodipodi:docname="001.svg"
   xmlns:inkscape="http://www.inkscape.org/namespaces/inkscape"
   xmlns:sodipodi="http://sodipodi.sourceforge.net/DTD/sodipodi-0.dtd"
   xmlns:xlink="http://www.w3.org/1999/xlink"
   xmlns="http://www.w3.org/2000/svg"
   xmlns:svg="http://www.w3.org/2000/svg">
  <sodipodi:namedview
     id="namedview7"
     pagecolor="#ffffff"
     bordercolor="#cccccc"
     borderopacity="1"
     inkscape:showpageshadow="0"
     inkscape:pageopacity="1"
     inkscape:pagecheckerboard="0"
     inkscape:deskcolor="#d1d1d1"
     inkscape:document-units="mm"
     showgrid="false"
     inkscape:zoom="0.73317201"
     inkscape:cx="334.16442"
     inkscape:cy="409.86289"
     inkscape:window-width="1920"
     inkscape:window-height="1003"
     inkscape:window-x="0"
     inkscape:window-y="41"
     inkscape:window-maximized="1"
     inkscape:current-layer="layer1" />
  <defs
     id="defs2">
    <linearGradient
       inkscape:collect="always"
       id="linearGradient177">
      <stop
         style="stop-color:#00ccff;stop-opacity:1"
         offset="0"
         id="stop173" />
      <stop
         style="stop-color:#00d455;stop-opacity:1"
         offset="1"
         id="stop175" />
    </linearGradient>
    <linearGradient
       inkscape:collect="always"
       xlink:href="#linearGradient177"
       id="linearGradient179"
       x1="28.532473"
       y1="140.89404"
       x2="173.83205"
       y2="96.452278"
       gradientUnits="userSpaceOnUse"
       gradientTransform="matrix(1.3125156,0,0,1.2115149,-31.483555,-90.388266)" />
  </defs>
  <g
     inkscape:label="图层 1"
     inkscape:groupmode="layer"
     id="layer1">
    <rect
       style="fill:url(#linearGradient179);fill-opacity:1;stroke-width:0.333639"
       id="rect171"
       width="494.81836"
       height="348.91626"
       x="0.18164058"
       y="1.1916269" />
    <path
       style="fill:#ffffff;stroke:#ffffff;stroke-width:2.30538;stroke-linecap:round;stroke-dasharray:none;stroke-dashoffset:0;stroke-opacity:1"
       d="m 121.93355,175.6259 251.31455,0.0477"
       id="path745" />
    <g
       aria-label="铀石周结001"
       id="text571"
       style="font-weight:bold;font-size:44.6913px;font-family:'Source Han Serif TC';-inkscape-font-specification:'Source Han Serif TC, Bold';fill:#ffffff;stroke-width:0.609963">
      <path
         d="m 155.74874,126.54965 -5.94394,-0.62567 v 10.18961 h -3.66468 l -4.82666,-2.0558 v 33.11626 h 0.75975 c 2.01111,0 3.79876,-1.11729 3.79876,-1.65358 v -2.54741 h 12.3348 v 4.02222 h 0.71506 c 1.65358,0 3.84345,-1.07259 3.88814,-1.43012 v -27.39577 c 0.93852,-0.22345 1.5642,-0.58098 1.87703,-0.93852 l -4.69258,-3.66468 -2.23457,2.5474 h -3.44123 v -8.44665 c 1.0279,-0.13408 1.34074,-0.5363 1.43012,-1.11729 z m 2.45803,10.8153 v 10.99406 h -3.88815 v -10.99406 z m 0,24.31207 h -3.88815 v -12.02196 h 3.88815 z m -12.3348,0 v -12.02196 h 3.93283 v 12.02196 z m 0,-13.31801 v -10.99406 h 3.93283 v 10.99406 z m -12.82641,-19.75356 c 1.16198,-0.0894 1.60889,-0.4916 1.74297,-1.0279 l -6.88246,-2.0558 c -0.58099,4.69259 -2.81556,12.8711 -5.31827,17.42961 l 0.49161,0.26815 c 0.80444,-0.67037 1.56419,-1.43012 2.32394,-2.23457 l 0.31284,1.0726 h 3.12839 v 6.07801 h -6.34616 l 0.35753,1.29605 h 5.98863 v 9.83209 c 0,0.93851 -0.35753,1.29604 -2.27925,2.81555 l 4.96073,4.51382 c 0.26815,-0.31284 0.58099,-0.80444 0.75975,-1.43012 3.62,-4.02222 6.48024,-7.82098 7.91036,-9.7874 l -0.26815,-0.44691 c -2.14518,1.29605 -4.29036,2.5474 -6.21209,3.66469 v -9.16172 h 5.58642 c 0.58098,0 1.0279,-0.22346 1.11728,-0.71506 -1.47481,-1.5642 -4.1116,-3.84345 -4.1116,-3.84345 l -2.27926,3.26246 h -0.31284 v -6.07801 h 4.55852 c 0.58098,0 1.07259,-0.22346 1.16197,-0.71507 -1.56419,-1.56419 -4.20098,-3.84345 -4.20098,-3.84345 l -2.32395,3.26247 h -7.32937 c 1.83234,-2.01111 3.48592,-4.33506 4.82666,-6.65901 h 8.7148 c 0.62568,0 1.07259,-0.22345 1.20667,-0.71506 -1.5642,-1.5195 -4.24568,-3.75407 -4.24568,-3.75407 l -2.32394,3.17309 h -2.63679 c 0.80444,-1.43013 1.43012,-2.86025 1.92172,-4.20099 z"
         id="path300" />
      <path
         d="m 168.03885,130.16965 0.35753,1.25136 h 13.00517 c -1.83234,8.40196 -7.28468,18.09997 -14.34591,24.6249 l 0.35753,0.40222 c 3.66469,-2.10049 6.97185,-4.69258 9.87678,-7.6869 v 18.45751 h 0.93852 c 2.68148,0 4.33505,-1.20667 4.33505,-1.5642 v -2.86024 h 17.16146 v 4.1116 h 0.84914 c 1.83234,0 4.42444,-1.0279 4.51382,-1.38543 v -18.05529 c 1.0279,-0.22345 1.69827,-0.67037 2.0558,-1.07259 l -5.36296,-4.1116 -2.5474,2.86024 h -16.08887 l -2.0558,-0.75975 c 3.0837,-4.06691 5.45234,-8.49134 6.97184,-12.96047 h 20.11109 c 0.62568,0 1.16197,-0.22346 1.29605,-0.71507 -2.27926,-1.87703 -5.94395,-4.64789 -5.94395,-4.64789 l -3.26246,4.1116 z m 31.68613,16.22294 v 15.15035 h -17.16146 v -15.15035 z"
         id="path302" />
      <path
         d="m 217.33336,129.14175 v 13.3627 c 0,8.44665 -0.40223,17.34022 -5.05012,24.26737 l 0.4916,0.40223 c 9.16172,-6.56963 9.74271,-16.53579 9.74271,-24.71429 V 130.4378 h 22.12219 v 29.98786 c 0,0.62568 -0.17877,0.93852 -0.98321,0.93852 -0.84913,0 -4.87135,-0.26815 -4.87135,-0.26815 v 0.62568 c 2.0558,0.35753 2.94963,0.93851 3.5753,1.74296 0.58099,0.71506 0.80445,2.01111 0.93852,3.66468 5.80987,-0.53629 6.56962,-2.50271 6.56962,-6.1227 v -29.63034 c 0.98321,-0.17876 1.65358,-0.58098 2.0558,-0.9832 l -5.31826,-4.1116 -2.50272,2.86024 h -20.78145 l -5.98863,-2.10049 z m 13.04986,2.23456 v 5.22889 h -6.43555 l 0.35753,1.25135 h 6.07802 v 5.45234 h -7.15061 l 0.35753,1.25136 h 19.12787 c 0.62568,0 1.07259,-0.22346 1.20667,-0.67037 -1.65358,-1.43012 -4.29037,-3.44123 -4.29037,-3.44123 l -2.32394,2.86024 h -2.14519 v -5.45234 h 6.92716 c 0.62567,0 1.0279,-0.22345 1.16197,-0.71506 -1.5195,-1.34074 -3.97753,-3.12839 -3.97753,-3.12839 l -2.14518,2.5921 h -1.96642 v -3.66469 c 0.93852,-0.13407 1.20667,-0.4916 1.25136,-1.0279 z m -5.31827,17.02739 v 13.18393 h 0.67037 c 1.96642,0 4.06691,-0.98321 4.06691,-1.47481 v -2.5921 h 6.52493 v 2.81556 h 0.80444 c 1.60889,0 3.93284,-0.98321 3.97753,-1.34074 v -8.67011 c 0.75975,-0.17877 1.29604,-0.5363 1.56419,-0.80445 l -4.55851,-3.44123 -2.18987,2.32395 h -5.94395 l -4.91604,-1.96642 z m 4.73728,7.86567 v -6.61431 h 6.52493 v 6.61431 z"
         id="path304" />
      <path
         d="m 256.70639,159.1743 2.45802,6.34617 c 0.5363,-0.17877 1.0279,-0.62568 1.20667,-1.25136 6.56962,-3.53061 11.12813,-6.43555 14.07776,-8.58073 l -0.13408,-0.44691 c -7.06122,1.78765 -14.52467,3.44123 -17.60837,3.93283 z m 14.43529,-30.88169 -6.61431,-2.72616 c -0.93852,3.48592 -4.20098,9.87677 -6.56962,11.97726 -0.44692,0.26815 -1.51951,0.5363 -1.51951,0.5363 l 2.41333,5.80987 c 0.31284,-0.13408 0.62568,-0.35753 0.84914,-0.62568 1.87703,-0.75975 3.66468,-1.5642 5.22888,-2.27926 -2.14518,3.17309 -4.69259,6.21209 -6.7037,7.68691 -0.4916,0.35753 -1.65357,0.58098 -1.65357,0.58098 l 2.36864,5.85456 c 0.35753,-0.13407 0.71506,-0.40222 0.9832,-0.80444 5.85456,-2.32395 10.68122,-4.64789 13.27332,-5.94394 l -0.0447,-0.58099 c -4.55851,0.58099 -9.07234,1.11728 -12.3348,1.43012 4.6479,-3.17308 9.92147,-8.04443 12.64764,-11.61973 0.89382,0.17876 1.47481,-0.13408 1.69827,-0.5363 l -6.1674,-3.39654 c -0.49161,1.25136 -1.25136,2.72617 -2.18988,4.33506 l -6.659,0.26814 c 3.35185,-2.45802 7.1953,-6.25678 9.42986,-9.25109 0.89383,0.0894 1.38543,-0.26815 1.5642,-0.71507 z m 9.20641,33.9207 v -10.99406 h 9.96616 v 10.99406 z m -4.82666,-14.34591 v 19.48541 h 0.84913 c 2.45802,0 3.97753,-0.89383 3.97753,-1.25136 v -2.63678 h 9.96616 v 3.53061 h 0.84913 c 2.5921,0 4.24568,-0.93852 4.24568,-1.11728 v -14.30122 c 0.9832,-0.17876 1.43012,-0.4916 1.74296,-0.84913 l -4.60321,-3.53062 -2.41333,2.72617 h -9.29579 z m 19.08318,-17.02738 -2.63678,3.39654 h -4.20099 v -7.01654 c 1.20667,-0.22345 1.5642,-0.62567 1.60889,-1.25135 l -6.70369,-0.58099 v 8.84888 h -9.92147 l 0.35753,1.25135 h 9.56394 v 8.08913 h -8.2232 l 0.35753,1.25136 h 22.16688 c 0.62568,0 1.07259,-0.22346 1.16198,-0.71507 -1.74297,-1.60888 -4.6479,-3.88814 -4.6479,-3.88814 l -2.5921,3.35185 h -3.12839 v -8.08913 h 10.41308 c 0.58098,0 1.07259,-0.22345 1.20666,-0.71506 -1.78765,-1.60888 -4.78197,-3.93283 -4.78197,-3.93283 z"
         id="path306" />
      <path
         d="m 313.46434,163.95627 c 5.85456,0 11.26221,-5.1395 11.26221,-17.34022 0,-12.06665 -5.40765,-17.20615 -11.26221,-17.20615 -5.94394,0 -11.3069,5.1395 -11.3069,17.20615 0,12.20072 5.36296,17.34022 11.3069,17.34022 z m 0,-1.47481 c -2.94963,0 -5.49703,-3.53061 -5.49703,-15.86541 0,-12.20073 2.5474,-15.68665 5.49703,-15.68665 2.86024,0 5.49703,3.53061 5.49703,15.68665 0,12.2901 -2.63679,15.86541 -5.49703,15.86541 z"
         id="path308" />
      <path
         d="m 339.96629,163.95627 c 5.85456,0 11.26221,-5.1395 11.26221,-17.34022 0,-12.06665 -5.40765,-17.20615 -11.26221,-17.20615 -5.94394,0 -11.30689,5.1395 -11.30689,17.20615 0,12.20072 5.36295,17.34022 11.30689,17.34022 z m 0,-1.47481 c -2.94962,0 -5.49703,-3.53061 -5.49703,-15.86541 0,-12.20073 2.54741,-15.68665 5.49703,-15.68665 2.86025,0 5.49703,3.53061 5.49703,15.68665 0,12.2901 -2.63678,15.86541 -5.49703,15.86541 z"
         id="path310" />
      <path
         d="m 355.74235,163.24121 16.75924,0.0894 v -1.29604 l -5.05012,-0.89383 c -0.0894,-2.81555 -0.13407,-5.6311 -0.13407,-8.40196 v -15.4185 l 0.17876,-7.1953 -0.67037,-0.49161 -11.21751,2.63679 v 1.5195 l 5.67579,-0.75975 v 19.70887 l -0.0894,8.40196 -5.45234,0.75975 z"
         id="path312" />
    </g>
    <g
       aria-label="20220810"
       id="text2303"
       style="font-weight:900;font-size:18.7335px;font-family:'Source Han Serif TC';-inkscape-font-specification:'Source Han Serif TC, Heavy';fill:#d5fff6;stroke-width:0.966358;stroke-linecap:round">
      <path
         d="m 203.96334,337.31995 h 9.40422 v -2.30422 h -7.88681 c 0.88048,-0.76808 1.74222,-1.47995 2.34169,-1.96702 3.48443,-2.73509 5.20791,-4.19631 5.20791,-6.21952 0,-2.22929 -1.36754,-3.82164 -4.32744,-3.82164 -2.49155,0 -4.66464,1.18021 -4.77704,3.4095 0.20607,0.48707 0.67441,0.80554 1.21768,0.80554 0.58074,0 1.19894,-0.29974 1.40501,-1.57361 l 0.37467,-1.92955 c 0.24354,-0.0562 0.48707,-0.0749 0.73061,-0.0749 1.44248,0 2.32295,1.08654 2.32295,2.99736 0,2.04195 -0.91794,3.27836 -2.95989,5.58258 -0.91794,1.04908 -1.96702,2.22929 -3.05356,3.4095 z"
         id="path336" />
      <path
         d="m 220.07416,337.63842 c 2.58523,0 4.94565,-2.22929 4.94565,-7.34354 0,-5.07677 -2.36042,-7.28733 -4.94565,-7.28733 -2.60395,0 -4.92691,2.21056 -4.92691,7.28733 0,5.11425 2.32296,7.34354 4.92691,7.34354 z m 0,-0.65568 c -1.12401,0 -2.06068,-1.42374 -2.06068,-6.68786 0,-5.22664 0.93667,-6.63165 2.06068,-6.63165 1.10528,0 2.07942,1.42374 2.07942,6.63165 0,5.24538 -0.97414,6.68786 -2.07942,6.68786 z"
         id="path338" />
      <path
         d="m 226.91188,337.31995 h 9.40422 v -2.30422 h -7.8868 c 0.88047,-0.76808 1.74221,-1.47995 2.34168,-1.96702 3.48443,-2.73509 5.20792,-4.19631 5.20792,-6.21952 0,-2.22929 -1.36755,-3.82164 -4.32744,-3.82164 -2.49156,0 -4.66464,1.18021 -4.77704,3.4095 0.20606,0.48707 0.6744,0.80554 1.21767,0.80554 0.58074,0 1.19895,-0.29974 1.40502,-1.57361 l 0.37467,-1.92955 c 0.24353,-0.0562 0.48707,-0.0749 0.7306,-0.0749 1.44248,0 2.32296,1.08654 2.32296,2.99736 0,2.04195 -0.91795,3.27836 -2.9599,5.58258 -0.91794,1.04908 -1.96701,2.22929 -3.05356,3.4095 z"
         id="path340" />
      <path
         d="m 238.39553,337.31995 h 9.40422 v -2.30422 h -7.8868 c 0.88047,-0.76808 1.74221,-1.47995 2.34168,-1.96702 3.48443,-2.73509 5.20792,-4.19631 5.20792,-6.21952 0,-2.22929 -1.36755,-3.82164 -4.32744,-3.82164 -2.49156,0 -4.66464,1.18021 -4.77704,3.4095 0.20606,0.48707 0.6744,0.80554 1.21767,0.80554 0.58074,0 1.19895,-0.29974 1.40502,-1.57361 l 0.37467,-1.92955 c 0.24353,-0.0562 0.48707,-0.0749 0.7306,-0.0749 1.44248,0 2.32296,1.08654 2.32296,2.99736 0,2.04195 -0.91795,3.27836 -2.9599,5.58258 -0.91794,1.04908 -1.96701,2.22929 -3.05356,3.4095 z"
         id="path342" />
      <path
         d="m 254.50636,337.63842 c 2.58522,0 4.94565,-2.22929 4.94565,-7.34354 0,-5.07677 -2.36043,-7.28733 -4.94565,-7.28733 -2.60396,0 -4.92691,2.21056 -4.92691,7.28733 0,5.11425 2.32295,7.34354 4.92691,7.34354 z m 0,-0.65568 c -1.12401,0 -2.06068,-1.42374 -2.06068,-6.68786 0,-5.22664 0.93667,-6.63165 2.06068,-6.63165 1.10528,0 2.07942,1.42374 2.07942,6.63165 0,5.24538 -0.97414,6.68786 -2.07942,6.68786 z"
         id="path344" />
      <path
         d="m 265.69025,337.63842 c 3.29709,0 5.05804,-1.59235 5.05804,-4.00897 0,-1.77969 -1.03034,-3.10976 -3.27836,-4.17757 2.02322,-0.86174 2.81003,-1.96702 2.81003,-3.20343 0,-1.72348 -1.31135,-3.2409 -4.19631,-3.2409 -2.62269,0 -4.57097,1.49868 -4.57097,3.82164 0,1.74221 0.93667,3.14722 2.81002,4.0839 -2.02322,0.71187 -3.09102,1.85462 -3.09102,3.4657 0,1.87335 1.42374,3.25963 4.45857,3.25963 z m 1.34881,-8.39261 c -2.51029,-1.10528 -2.99736,-2.28549 -2.99736,-3.44697 0,-1.31134 0.93668,-2.13561 1.96702,-2.13561 1.19894,0 1.89208,1.03034 1.89208,2.49155 0,1.23641 -0.24353,2.17309 -0.86174,3.09103 z m -2.26675,1.87335 c 2.52902,1.10527 3.25963,2.24802 3.25963,3.6343 0,1.40501 -0.73061,2.22928 -2.09816,2.22928 -1.40501,0 -2.22928,-0.93667 -2.22928,-2.95989 0,-1.21768 0.29973,-2.04195 1.06781,-2.90369 z"
         id="path346" />
      <path
         d="m 272.62166,337.31995 7.23113,0.0562 v -0.56201 l -1.94828,-0.43087 c -0.0375,-1.18021 -0.0562,-2.36042 -0.0562,-3.50316 v -6.53799 l 0.0749,-3.05356 -0.281,-0.18734 -5.05805,1.14274 v 0.67441 l 2.19182,-0.26227 v 8.22401 l -0.0375,3.52189 -2.11688,0.33721 z"
         id="path348" />
      <path
         d="m 286.1285,337.63842 c 2.58522,0 4.94564,-2.22929 4.94564,-7.34354 0,-5.07677 -2.36042,-7.28733 -4.94564,-7.28733 -2.60396,0 -4.92691,2.21056 -4.92691,7.28733 0,5.11425 2.32295,7.34354 4.92691,7.34354 z m 0,-0.65568 c -1.12401,0 -2.06068,-1.42374 -2.06068,-6.68786 0,-5.22664 0.93667,-6.63165 2.06068,-6.63165 1.10528,0 2.07942,1.42374 2.07942,6.63165 0,5.24538 -0.97414,6.68786 -2.07942,6.68786 z"
         id="path350" />
    </g>
    <g
       aria-label="景行行止，高山仰止。"
       id="text983"
       style="font-weight:900;font-size:15.9177px;font-family:'Source Han Serif TC';-inkscape-font-specification:'Source Han Serif TC, Heavy';opacity:1;fill:#ffffff;stroke-width:1.95886;stroke-linecap:round">
      <path
         d="m 182.79455,217.87547 -0.0637,0.1751 c 1.46443,0.97097 2.43541,2.29214 2.73785,3.05619 2.13297,1.20975 4.02717,-3.3268 -2.67418,-3.23129 z m -4.53654,-6.1124 v -0.41386 h 2.02155 c -0.22285,0.0159 -0.46162,0.0637 -0.74814,0.12735 l -0.0955,0.0955 c 0.31835,0.25468 0.71629,0.79589 0.84364,1.30525 h -6.74911 l 0.12734,0.4457 h 10.44201 l -0.92322,1.01873 h -4.39329 l -2.41949,-0.90731 v 4.32962 h 0.20693 c -0.58895,1.11424 -1.63952,2.45132 -2.81743,3.29496 l 0.0955,0.1751 c 1.52809,-0.30244 3.04028,-0.97098 4.12268,-1.75095 0.76405,0.12734 1.03465,0.38202 1.22566,0.65262 0.22285,0.30244 0.2706,0.77997 0.30244,1.44851 2.3399,-0.17509 2.69009,-1.00281 2.69009,-2.41949 V 217 h 1.14607 v 0.55712 h 0.41386 c 0.7163,0 1.91013,-0.33428 1.92605,-0.4457 v -1.95788 c 0.33427,-0.0637 0.52528,-0.22284 0.62079,-0.33427 l -2.00563,-1.49626 h 3.83616 c 0.23877,0 0.41386,-0.0796 0.4457,-0.25468 -0.70038,-0.63671 -1.89421,-1.55994 -1.89421,-1.55994 l -1.05057,1.36892 h -4.09085 c 0.62079,-0.41386 0.70038,-1.38484 -0.50936,-1.5281 h 2.76968 v 0.68446 h 0.39794 c 0.73221,0 1.89421,-0.35018 1.91012,-0.46161 v -3.27904 c 0.33428,-0.0637 0.52529,-0.22285 0.62079,-0.35019 l -2.08521,-1.55994 -1.00282,1.09832 h -5.25284 l -2.38766,-0.90731 v 5.87363 h 0.31836 c 0.92323,0 1.94196,-0.47753 1.94196,-0.68446 z m 0.41386,5.33243 V 217 h 1.20974 v 2.13297 c 0,0.14326 -0.0637,0.23876 -0.2706,0.23876 l -1.40075,-0.0637 c 0.22284,-0.17509 0.41386,-0.35019 0.58895,-0.52528 0.38202,0.0159 0.52528,-0.0955 0.58895,-0.25468 l -1.94195,-0.85956 c 0.66854,-0.14326 1.22566,-0.42978 1.22566,-0.57304 z m 4.66388,-2.30806 v 1.76686 h -4.66388 v -1.76686 z m 0.46162,-6.86053 v 1.2575 h -5.53936 v -1.2575 z m -5.53936,2.97661 v -1.27342 h 5.53936 v 1.27342 z"
         style="display:inline"
         id="path315" />
      <path
         d="m 192.90229,206.51023 c -0.62079,1.28934 -2.00563,3.31088 -3.34272,4.60022 l 0.12735,0.15918 c 1.97379,-0.74814 3.868,-1.95788 5.09366,-2.99253 0.36611,0.0637 0.52528,-0.0318 0.62079,-0.19101 z m 3.13579,1.63953 0.12734,0.44569 h 7.40173 c 0.22285,0 0.39794,-0.0796 0.4457,-0.25468 -0.7163,-0.65263 -1.94196,-1.62361 -1.94196,-1.62361 l -1.08241,1.4326 z m -2.92886,1.5281 c -0.73221,1.70319 -2.35582,4.44103 -3.97942,6.22382 l 0.12734,0.14325 c 0.82772,-0.42977 1.6236,-0.92322 2.37174,-1.46442 v 7.0197 h 0.42977 c 0.8914,0 1.84646,-0.41386 1.87829,-0.57303 v -7.56091 c 0.30244,-0.0637 0.4457,-0.1751 0.49345,-0.31836 l -0.73221,-0.2706 c 0.5412,-0.49345 1.01873,-0.98689 1.43259,-1.43259 0.39794,0.0478 0.55712,-0.0637 0.63671,-0.20693 z m 2.02155,2.14888 0.12734,0.4457 h 4.28186 v 6.43075 c 0,0.19101 -0.0955,0.30244 -0.3661,0.30244 -0.46162,0 -2.89703,-0.14326 -2.89703,-0.14326 v 0.19101 c 1.14608,0.19101 1.55994,0.4457 1.92605,0.76405 0.3661,0.33427 0.50936,0.89139 0.55712,1.62361 2.706,-0.15918 3.13578,-1.17791 3.13578,-2.67418 v -6.49442 h 2.13297 c 0.23877,0 0.41386,-0.0796 0.46162,-0.25468 -0.74813,-0.68446 -2.02155,-1.68728 -2.02155,-1.68728 l -1.13016,1.49626 z"
         style="display:inline"
         id="path317" />
      <path
         d="m 208.81999,206.51023 c -0.62079,1.28934 -2.00563,3.31088 -3.34272,4.60022 l 0.12735,0.15918 c 1.97379,-0.74814 3.868,-1.95788 5.09366,-2.99253 0.36611,0.0637 0.52528,-0.0318 0.62079,-0.19101 z m 3.13579,1.63953 0.12734,0.44569 h 7.40173 c 0.22285,0 0.39794,-0.0796 0.4457,-0.25468 -0.7163,-0.65263 -1.94196,-1.62361 -1.94196,-1.62361 l -1.08241,1.4326 z m -2.92886,1.5281 c -0.73221,1.70319 -2.35582,4.44103 -3.97942,6.22382 l 0.12734,0.14325 c 0.82772,-0.42977 1.6236,-0.92322 2.37174,-1.46442 v 7.0197 h 0.42977 c 0.89139,0 1.84646,-0.41386 1.87829,-0.57303 v -7.56091 c 0.30244,-0.0637 0.4457,-0.1751 0.49345,-0.31836 l -0.73221,-0.2706 c 0.5412,-0.49345 1.01873,-0.98689 1.43259,-1.43259 0.39794,0.0478 0.55712,-0.0637 0.63671,-0.20693 z m 2.02155,2.14888 0.12734,0.4457 h 4.28186 v 6.43075 c 0,0.19101 -0.0955,0.30244 -0.3661,0.30244 -0.46162,0 -2.89703,-0.14326 -2.89703,-0.14326 v 0.19101 c 1.14608,0.19101 1.55994,0.4457 1.92605,0.76405 0.3661,0.33427 0.50936,0.89139 0.55712,1.62361 2.706,-0.15918 3.13578,-1.17791 3.13578,-2.67418 v -6.49442 h 2.13297 c 0.23877,0 0.41386,-0.0796 0.46162,-0.25468 -0.74813,-0.68446 -2.02155,-1.68728 -2.02155,-1.68728 l -1.13016,1.49626 z"
         style="display:inline"
         id="path319" />
      <path
         d="m 221.18804,220.29496 0.12734,0.4457 h 14.54878 c 0.23877,0 0.42978,-0.0796 0.47753,-0.25469 -0.90731,-0.76405 -2.40357,-1.8942 -2.40357,-1.8942 l -1.33709,1.70319 h -2.10113 v -7.00379 h 4.52062 c 0.23877,0 0.42978,-0.0796 0.47753,-0.25468 -0.87547,-0.74813 -2.3399,-1.86237 -2.3399,-1.86237 l -1.28933,1.67136 h -1.36892 v -5.3961 c 0.44569,-0.0637 0.5412,-0.22285 0.57303,-0.46162 l -3.08803,-0.28651 v 13.59371 h -2.02155 v -9.24818 c 0.4457,-0.0637 0.55712,-0.22285 0.58896,-0.46162 l -3.07212,-0.25468 v 9.96448 z"
         style="display:inline"
         id="path321" />
      <path
         d="m 239.30239,220.93167 c -0.7163,-0.25468 -1.9738,-0.68446 -1.9738,-1.87829 0,-0.77997 0.62079,-1.48035 1.5281,-1.48035 0.87547,0 1.62361,0.63671 1.62361,1.84646 0,1.60769 -0.79589,3.51781 -2.88111,4.4092 l -0.2706,-0.52528 c 1.32117,-0.65263 1.84646,-1.62361 1.9738,-2.37174 z"
         style="display:inline"
         id="path323" />
      <path
         d="m 265.83719,206.97185 -1.25749,1.55993 h -3.13579 c 0.84364,-0.7163 0.58895,-2.43541 -2.72193,-2.05338 l -0.0955,0.0796 c 0.49345,0.44569 0.97098,1.20974 1.11424,1.97379 h -6.57401 l 0.12734,0.4457 h 14.37368 c 0.23877,0 0.41386,-0.0796 0.46161,-0.25469 -0.85955,-0.71629 -2.29215,-1.75094 -2.29215,-1.75094 z m -4.29777,11.39707 h -1.89421 v -1.87829 h 1.89421 z m -5.33243,2.46724 v -6.04872 h 8.86615 v 4.2341 c 0,0.1751 -0.0637,0.28652 -0.28651,0.28652 l -1.41668,-0.0637 c 0.15918,-0.0637 0.2706,-0.14326 0.2706,-0.17509 v -2.27623 c 0.30244,-0.0637 0.47753,-0.19102 0.57304,-0.31836 l -1.91012,-1.40075 -0.92323,0.97097 h -1.67136 l -2.13297,-0.8118 v 4.63205 h 0.28652 c 0.84363,0 1.78278,-0.44569 1.78278,-0.62079 v -0.42978 h 1.89421 v 0.77997 h 0.3661 c 0.36611,0 0.81181,-0.11142 1.16199,-0.22285 v 0.0478 c 0.76405,0.14326 1.03466,0.38202 1.2575,0.68446 0.22285,0.31835 0.28652,0.79588 0.33427,1.48034 2.38766,-0.19101 2.72193,-0.97098 2.72193,-2.3399 v -4.09085 c 0.33427,-0.0637 0.52529,-0.20693 0.62079,-0.33427 l -2.10113,-1.59177 -0.9869,1.11424 h -8.53189 l -2.43541,-0.92323 v 8.14987 h 0.33427 c 0.93915,0 1.92605,-0.50937 1.92605,-0.73222 z m 6.36708,-8.2772 h -3.86801 v -1.87829 h 3.86801 z m -3.86801,0.76405 v -0.31836 h 3.86801 v 0.77997 h 0.39794 c 0.71629,0 1.8942,-0.33427 1.91012,-0.44569 v -2.29215 c 0.33427,-0.0637 0.52529,-0.22285 0.62079,-0.33427 l -2.10113,-1.57586 -0.9869,1.09832 h -3.61332 l -2.35582,-0.89139 v 4.64797 h 0.30244 c 0.93914,0 1.95787,-0.49345 1.95787,-0.66854 z"
         style="display:inline"
         id="path325" />
      <path
         d="m 278.25299,206.98776 -3.07211,-0.2706 v 12.90926 h -2.91294 v -8.67515 c 0.41386,-0.0637 0.5412,-0.22285 0.58895,-0.46161 l -3.02436,-0.28652 v 9.15268 c -0.22285,0.17509 -0.44569,0.39794 -0.60487,0.58895 l 2.41949,1.14608 0.70038,-1.01874 h 8.29312 v 1.5281 h 0.4457 c 0.93914,0 2.00563,-0.50936 2.00563,-0.70038 v -9.94856 c 0.44569,-0.0637 0.55711,-0.23876 0.58895,-0.46161 l -3.04028,-0.2706 v 9.40736 h -2.97661 v -12.17704 c 0.4457,-0.0637 0.55712,-0.22285 0.58895,-0.46162 z"
         style="display:inline"
         id="path327" />
      <path
         d="m 288.94969,211.09453 -0.73221,-0.2706 c 0.50936,-0.95506 0.97098,-1.98971 1.36892,-3.15171 0.36611,0.0159 0.57304,-0.12734 0.63671,-0.33427 l -3.0562,-0.89139 c -0.42978,3.02436 -1.44851,6.25566 -2.515,8.34088 l 0.1751,0.11142 c 0.50936,-0.39794 0.97098,-0.82772 1.41667,-1.32117 v 7.99069 h 0.41386 c 0.85956,0 1.76687,-0.46162 1.7987,-0.62079 v -9.55062 c 0.30244,-0.0478 0.4457,-0.15918 0.49345,-0.30244 z m 6.84461,-3.54965 -2.67417,-1.28933 c -0.39794,0.47753 -1.11424,1.22566 -1.78278,1.87829 l -1.71912,-0.38203 v 8.22945 c 0,0.39795 -0.0955,0.58896 -0.6367,0.90731 l 1.20974,2.59459 c 0.28652,-0.14326 0.60487,-0.4457 0.79589,-0.93915 1.20974,-1.24158 2.14889,-2.4354 2.59458,-3.04028 l -0.0318,-0.11142 -1.76687,0.57304 v -7.24256 l 1.83054,-0.49345 v 13.35495 h 0.39794 c 1.13016,0 1.78278,-0.50936 1.78278,-0.66854 v -11.81093 h 1.44851 v 7.24255 c 0,0.15918 -0.0478,0.2706 -0.25468,0.2706 -0.23877,0 -1.06649,-0.0478 -1.06649,-0.0478 v 0.19101 c 0.54121,0.12734 0.74814,0.35019 0.89139,0.68446 0.14326,0.30244 0.19102,0.84364 0.20693,1.54402 2.13298,-0.1751 2.41949,-0.95506 2.41949,-2.41949 v -7.11521 c 0.33428,-0.0637 0.52529,-0.20693 0.63671,-0.33427 l -2.02155,-1.55994 -0.97097,1.09832 h -1.28934 l -1.60769,-0.60487 c 0.36611,-0.11142 0.68447,-0.22285 0.92323,-0.31835 0.42978,0.0796 0.60487,-0.0318 0.68446,-0.19102 z"
         style="display:inline"
         id="path329" />
      <path
         d="m 300.77654,220.29496 0.12735,0.4457 h 14.54877 c 0.23877,0 0.42978,-0.0796 0.47753,-0.25469 -0.90731,-0.76405 -2.40357,-1.8942 -2.40357,-1.8942 l -1.33709,1.70319 h -2.10113 v -7.00379 h 4.52062 c 0.23877,0 0.42978,-0.0796 0.47754,-0.25468 -0.87548,-0.74813 -2.33991,-1.86237 -2.33991,-1.86237 l -1.28933,1.67136 h -1.36892 v -5.3961 c 0.44569,-0.0637 0.5412,-0.22285 0.57304,-0.46162 l -3.08804,-0.28651 v 13.59371 h -2.02155 v -9.24818 c 0.4457,-0.0637 0.55712,-0.22285 0.58896,-0.46162 l -3.07212,-0.25468 v 9.96448 z"
         style="display:inline"
         id="path331" />
      <path
         d="m 316.933,219.13297 c 0,1.2575 1.01874,2.27623 2.27623,2.27623 1.2575,0 2.26032,-1.01873 2.26032,-2.27623 0,-1.2575 -1.00282,-2.26031 -2.26032,-2.26031 -1.25749,0 -2.27623,1.00281 -2.27623,2.26031 z m 0.60488,0 c 0,-0.90731 0.74813,-1.65544 1.67135,-1.65544 0.90731,0 1.65545,0.74813 1.65545,1.65544 0,0.90731 -0.74814,1.67136 -1.65545,1.67136 -0.92322,0 -1.67135,-0.76405 -1.67135,-1.67136 z"
         style="display:inline"
         id="path333" />
    </g>
  </g>
</svg>
