<svg xmlns="http://www.w3.org/2000/svg" width="325" viewBox="0 0 153.41 129.67"><defs><style>.cls-1{fill:#e5e5ff;}</style></defs><g id="图层_2" data-name="图层 2"><g id="图片"><circle class="cls-1" cx="93.84" cy="47.48" r="36"/><path d="M93.84,83.7a36.23,36.23,0,1,1,36.23-36.22A36.26,36.26,0,0,1,93.84,83.7Zm0-72a35.78,35.78,0,1,0,35.78,35.78A35.82,35.82,0,0,0,93.84,11.7Z"/><polygon points="21.07 121.02 20.61 120.25 84.81 81.79 128.45 41.04 74 17.49 0 3.48 0.17 2.6 74.27 16.64 130.07 40.76 85.35 82.51 21.07 121.02"/><polygon points="21.42 120.28 27.35 114.42 27.66 114.74 23.03 119.32 29.3 117.42 29.43 117.85 21.42 120.28"/><path d="M13.75,22.89a1.31,1.31,0,0,0-1.13.31.14.14,0,0,1-.1,0l-.09,0a7.37,7.37,0,0,1-3.32-6.28H8.86A10.47,10.47,0,0,1,7.8,20.67c1,.42,1.75.73,1.75,1.38,0,.31-.2.57-.38.57s-.17-.08-.23-.27A2.72,2.72,0,0,0,7.72,20.8a7.35,7.35,0,0,1-3.84,3.1l-.07-.14C6.9,21.92,8,20.39,8.32,16.94H5a2.15,2.15,0,0,0-.73.12l-.3-.4c.27,0,.54,0,.79,0H8.34c.08-.84.13-1.82.13-3l.91.45s.08.06.08.08,0,.05-.07.09l-.34.19C9,15.32,9,16,8.89,16.7h3.29l.52-.63.65.64c.07.07.1.12.1.17s0,.06-.14.06h-4c.43,2.89,1.76,5.15,4.46,5.82Z"/><path d="M18.79,14.83c.05,0,.07.06.07.09s0,.05-.09.08a1,1,0,0,0-.58.46L17,17.39a3.31,3.31,0,0,1,1.36,2.47,1.74,1.74,0,0,1-1.11,1.46s-.08,0-.09-.11c0-.33-.2-.51-1-.73l0-.17a3.75,3.75,0,0,0,1,.19c.51,0,.69-.31.69-1a3,3,0,0,0-1.13-2.05L17.86,15H16v6.14c0,.82,0,1.63,0,2.12v.07c0,.15,0,.2-.27.29a.55.55,0,0,1-.19.06c-.07,0-.09-.06-.09-.23v-.11c0-.63,0-1.61,0-2.22V15.71c0-.44,0-1.18,0-1.58l.69.6h1.48l.39-.49ZM24,15c.06,0,.08.06.08.09s0,.07-.08.1l-.38.25V21c0,.82,0,1.49.06,2V23c0,.17-.05.2-.31.31a.52.52,0,0,1-.19,0c-.06,0-.08,0-.08-.13V22.12H19.81V23c0,.15,0,.18-.23.27a.82.82,0,0,1-.21.07c-.08,0-.09-.06-.09-.22V23c0-.64,0-1.61,0-2.23V15.43c0-.51,0-.78,0-1.11l.69.62h3l.37-.53Zm-.9,3.37V15.18H19.81v3.18Zm0,3.52V18.59H19.81v3.29Z"/><path d="M34.77,20.45c0,1.26.12,1.62.44,1.8,0,0,.09.05.09.09a.31.31,0,0,1,0,.08c-.32.65-.48.74-1.14.82-.43,0-1,.07-1.46.07-1.51,0-1.7-.21-1.7-1V18.43H29.32c0,2.9-.38,4.14-3.64,5.41l-.07-.14c2.69-1.41,3.2-2.22,3.2-5.27H26.62a2.05,2.05,0,0,0-.72.12l-.3-.4c.27,0,.54,0,.78,0h3.79V15.37c0-.44,0-1.17-.05-1.57l.79.44a.14.14,0,0,1,.1.13.14.14,0,0,1-.07.11l-.27.23v3.48h.48a26.36,26.36,0,0,0,2-3.28l.7.53s0,.05,0,.07,0,.06-.09.07a.83.83,0,0,0-.48.3l-1.9,2.31H34l.48-.65.72.65c.07.07.1.12.1.17s0,.07-.17.07h-3.6v3.84c0,.52.33.56.85.56s1.26,0,1.55-.07c.51-.06.71-.2.71-2.31ZM27.1,15c1,.63,1.78,1.41,1.78,1.69,0,.43-.13.73-.37.73s-.18-.08-.26-.36A4.39,4.39,0,0,0,27,15.16Z"/><path d="M58.4,2.68a.24.24,0,0,1,.07.11s0,0-.13,0H56.56v2L58.25,4l.09.14L56.56,5.2V8.75c0,.74-.09.89-.78,1.25l-.07,0s-.06,0-.07-.1c-.09-.36-.32-.51-1.26-.8l0-.16a8.41,8.41,0,0,0,1.32.19c.29,0,.32-.11.32-.32V5.51c-1.13.69-1.22.77-1.33,1s0,.06-.06.06a.12.12,0,0,1-.08,0L54.15,6,56.05,5V2.84h-.72A2.15,2.15,0,0,0,54.6,3l-.3-.4a7.09,7.09,0,0,0,.79,0h1v-1c0-.44,0-1.17,0-1.57l.82.46c.05,0,.09,0,.09.09s0,.05-.08.07l-.28.18V2.6h.81L57.75,2Zm5.73,1.47a.2.2,0,0,1,.08.12s0,.05-.12.05h-2v3.5c0,.87,0,1.45,0,1.88v.08c0,.15,0,.19-.27.29a.65.65,0,0,1-.23.06c-.07,0-.09-.06-.09-.25V9.79c0-.64,0-1.37,0-2V4.32H59.37c-.06,3.32-.46,4.57-2.36,6.09l-.13-.1c1.89-1.88,2-3.2,2-7.3,0-.65,0-1.34,0-2l.66.47a19.88,19.88,0,0,0,3.5-1l.54.67a.21.21,0,0,1,.05.11s0,0-.05,0H63.5A1.69,1.69,0,0,0,63,1.15a2,2,0,0,0-.4,0c-.83.14-2,.34-3.21.5,0,.71,0,1.5,0,2.39H63l.46-.58Z"/><path d="M69.89,1.72s.08.06.08.08,0,.06-.08.1l-.32.23V9.26c0,.61,0,.72-.8,1.07l-.07,0s-.06,0-.07-.1c0-.27-.2-.47-1.16-.75l0-.13a7.19,7.19,0,0,0,1.22.17c.32,0,.35-.12.35-.35V6.37h-.14A12.49,12.49,0,0,1,65,9.81l-.1-.12A12.77,12.77,0,0,0,68.29,6.4l-2.41.06a2.28,2.28,0,0,0-.73.12l-.3-.4c.27,0,.54,0,.79,0h.5V2.44c0-.52,0-1,0-1.24l.62.53h.55A8.84,8.84,0,0,0,67.82,0l.67.39c.08,0,.11.07.11.1s0,0-.12.05-.49.35-1,1.19H69l.27-.46Zm-.81,1.42V2H66.62V3.14Zm0,1.47V3.38H66.62V4.61Zm0,1.54V4.85H66.62V6.2ZM75,3.28c.07.08.11.12.11.16s0,.05-.15.05H73.17V9.23c0,.73,0,.86-.7,1.15l-.08,0s0,0-.06-.08c-.09-.37-.21-.51-1.4-.89l0-.15a9.13,9.13,0,0,0,1.38.21c.29,0,.32-.1.32-.3V3.49H71a2.05,2.05,0,0,0-.72.12L70,3.21c.28,0,.54,0,.79,0h1.87V1.78c0-.52,0-1.17,0-1.57l.79.37c.08.05.13.07.13.1s0,0-.37.28V3.25H74l.41-.59ZM70.39,4.49c1,.91,1.17,1.21,1.17,1.61s-.17.55-.39.55S71,6.45,71,6.09a3.52,3.52,0,0,0-.66-1.52Z"/><path d="M85.78,88.64s.08.08.08.11,0,0-.13,0H83.94v1.94l1.7-.83.09.14-1.79,1.1v3.56c0,.73-.08.88-.77,1.25l-.08,0s0,0-.06-.09c-.09-.36-.33-.51-1.27-.8l0-.17a8.88,8.88,0,0,0,1.32.2c.29,0,.33-.11.33-.33V91.47c-1.14.69-1.23.76-1.33,1,0,0,0,0-.07,0a.09.09,0,0,1-.07,0l-.44-.51L83.44,91V88.8h-.73a2.09,2.09,0,0,0-.72.12l-.3-.4a6.91,6.91,0,0,0,.78,0h1v-1c0-.44,0-1.18,0-1.58l.82.47c.06,0,.09,0,.09.08s0,.06-.08.08l-.28.17v1.73h.81l.38-.56Zm5.74,1.47a.19.19,0,0,1,.07.12s0,0-.12,0h-2v3.5c0,.86,0,1.45.05,1.88v.08c0,.15-.05.19-.27.29a.7.7,0,0,1-.23.06c-.08,0-.1-.06-.1-.25v-.09c0-.64,0-1.38,0-2V90.28h-2.2c0,3.32-.45,4.57-2.35,6.09l-.13-.11c1.89-1.88,2-3.19,2-7.29,0-.66,0-1.34,0-2l.65.47a19.62,19.62,0,0,0,3.5-1.05l.55.67a.18.18,0,0,1,0,.11s0,0,0,0h-.08a1.44,1.44,0,0,0-.49-.08,1.61,1.61,0,0,0-.4.05c-.83.14-2,.34-3.2.49,0,.72,0,1.5,0,2.4H90.4l.47-.58Z"/><path d="M97.27,87.68c.06,0,.09.06.09.08s0,.06-.09.1l-.31.23v7.13c0,.61,0,.72-.8,1.07l-.08,0s0,0-.06-.1c-.06-.27-.21-.47-1.17-.76l0-.13a7.8,7.8,0,0,0,1.23.18c.32,0,.34-.12.34-.35V92.33h-.14a12.5,12.5,0,0,1-3.91,3.43l-.1-.12a12.48,12.48,0,0,0,3.36-3.3l-2.41.07a2.17,2.17,0,0,0-.72.12l-.3-.4c.27,0,.54,0,.79,0h.49V88.4c0-.52,0-1,0-1.24l.63.53h.55A9.84,9.84,0,0,0,95.21,86l.67.39c.07,0,.11.07.11.09s0,0-.12.06c-.22,0-.5.34-1,1.19h1.45l.27-.46Zm-.81,1.42V87.92H94V89.1Zm0,1.47V89.34H94v1.23Zm0,1.54v-1.3H94v1.35Zm5.88-2.87c.06.08.11.12.11.15s-.06.06-.16.06h-1.73v5.73c0,.74,0,.87-.71,1.16l-.07,0s-.06,0-.07-.08c-.08-.37-.2-.51-1.39-.89l0-.15a8.81,8.81,0,0,0,1.38.2c.29,0,.33-.09.33-.29v-5.7H98.42a2.15,2.15,0,0,0-.73.12l-.3-.4c.27,0,.54,0,.79,0h1.87V87.74c0-.52,0-1.18,0-1.58l.79.38c.09,0,.13.07.13.1s0,0-.36.28v2.29h.78l.41-.59Zm-4.56,1.21c1,.91,1.17,1.21,1.17,1.61s-.18.55-.39.55-.22-.2-.22-.56a3.52,3.52,0,0,0-.66-1.52Z"/><path d="M74.68,108.78c.06,0,.09.08.09.11s0,.07-.11.11l-.37.21a21,21,0,0,1-1.13,3.21,12.17,12.17,0,0,1,1.25,2.11,1.1,1.1,0,0,1,.09.39c0,.38-.23.67-.34.67s-.24,0-.32-.44a8.28,8.28,0,0,0-.92-2.26A11.69,11.69,0,0,1,70,116.52l-.09-.14a14.55,14.55,0,0,0,2.74-4,24.51,24.51,0,0,0-1.73-2.51l.14-.12c.67.78,1.28,1.52,1.78,2.2a16.36,16.36,0,0,0,.91-3H71.08a2.09,2.09,0,0,0-.72.12l-.3-.4c.27,0,.54,0,.79,0h2.78l.36-.48ZM80,110.07c.07.08.12.14.12.17s-.06.05-.16.05H78.33v5.87c0,.48-.08.63-.86,1l-.09,0s0,0,0-.08c-.08-.38-.39-.63-1.34-.84l0-.17c.72.1,1.17.17,1.43.17s.39-.12.39-.38v-5.59H75.42a2.43,2.43,0,0,0-.73.12l-.3-.4a7.29,7.29,0,0,0,.79,0h2.65v-1.44c0-.44,0-1.07,0-1.47l.78.4c.08,0,.12.07.12.1s0,0-.36.29v2.12H79l.47-.62Zm-5,1.1a3.69,3.69,0,0,1,1.37,1.43,1.15,1.15,0,0,1,0,.26c0,.35-.2.55-.41.55s-.2-.08-.26-.41a3.37,3.37,0,0,0-.83-1.72Z"/><path d="M90.62,111.29c.07.07.1.12.1.15s0,0-.13,0H86.14v4.6c0,.53-.1.71-.81,1l-.09,0s-.06,0-.07-.09c-.09-.47-.28-.65-1.48-.94V116a9.73,9.73,0,0,0,1.43.18c.46,0,.5-.15.5-.46v-4.21H81.84a2.59,2.59,0,0,0-.72.11l-.31-.39a7.13,7.13,0,0,0,.79.05h4v-2.67H82.74a2.19,2.19,0,0,0-.7.11l-.29-.39c.25,0,.52,0,.76,0h6.24l.47-.63.65.71s.08.09.08.11,0,0-.14,0H86.14v2.67h3.33l.52-.65Z"/><path d="M95.64,108.62a.16.16,0,0,1,.07.11s0,0-.1.07c-.25.08-.31.2-.37.51a15.09,15.09,0,0,1-.75,2.86c.31.39.76,1,1,1.37a1.25,1.25,0,0,1,.24.69c0,.26-.12.43-.28.43s-.25,0-.49-.76a5,5,0,0,0-.67-1.23,9.53,9.53,0,0,1-2.57,3.47l-.11-.09A13,13,0,0,0,94,112.24a22.53,22.53,0,0,0-1.64-2l.1-.12a16.42,16.42,0,0,1,1.71,1.63,13.11,13.11,0,0,0,.6-3l-1.91.07a2.09,2.09,0,0,0-.66.11l-.28-.37a5.27,5.27,0,0,0,.79,0l2-.06L95,108Zm3.22.76c.07,0,.1.05.1.08s0,.05-.08.09l-.24.22a18.53,18.53,0,0,1-.46,3.53,6.15,6.15,0,0,1-3.56,3.87l-.11-.13a6.53,6.53,0,0,0,3.38-4.39,17.08,17.08,0,0,0,.21-3c0-.25,0-.5,0-.72Zm2-1.29a.12.12,0,0,1,0,.08s0,0-.06.06l-.4.22v2.79c0,.82,0,1.27,0,1.76v.06c0,.14,0,.18-.25.27a.89.89,0,0,1-.23.07c-.07,0-.09-.06-.09-.17v-.13c0-.39,0-.7,0-1.31v-3.56h-3.1V112c0,.15,0,.83,0,1s0,.15-.29.28a.38.38,0,0,1-.17.06c-.06,0-.09-.06-.09-.2v-.12c0-.38,0-.82,0-1.21V108.9c0-.4,0-1.06,0-1.42L97,108h2.82l.33-.48Zm.42,6c0,.2,0,.37,0,.53,0,.74.09.9.33,1a.12.12,0,0,1,.07.11.2.2,0,0,1,0,.07c-.2.59-.57.8-1.54.8-1.61,0-1.67-.07-1.67-1v-2.55a7.64,7.64,0,0,0,0-.77l.77.36s.06,0,.06.07,0,0-.06.07L99,113v2.45c0,.69,0,.71,1.18.71.79,0,.87,0,1-2.09Z"/><path d="M107.55,110.06s.06,0,.06.07,0,.07-.13.1a.75.75,0,0,0-.42.4,8.66,8.66,0,0,1-4.64,4.12l0-.14a8.9,8.9,0,0,0,4.36-4.47H105a11.39,11.39,0,0,1-2.28,2.51l-.09-.11a14.09,14.09,0,0,0,2.46-3.5l.6.35c.06,0,.08,0,.08.07s0,0-.1.05c-.22,0-.24.06-.5.4h1.5l.21-.27ZM106,115s.08.07.08.09,0,0-.09,0a1,1,0,0,0-.58.27,19,19,0,0,1-2.55,1.8l0-.14a14.3,14.3,0,0,0,2.54-2.47Zm6-6.49c.07.06.11.09.11.11s0,0-.12,0c-.36,0-.62.23-1.09.83l-.13-.06.35-.73h-7.18c0,.64-.18,1.32-.74,1.32-.16,0-.33-.08-.33-.24a.31.31,0,0,1,.19-.26c.29-.14.56-.61.7-1.44h.13c0,.13,0,.25,0,.37h7.07l.33-.47Zm-7.86,3.11c.57.43.71.63.71.87s-.15.43-.28.43a.22.22,0,0,1-.22-.2,1.91,1.91,0,0,0-.29-1Zm6.1,2.33a.21.21,0,0,1,.06.08s0,0-.09,0h-2.34v2.15a1,1,0,0,1-.7,1.12l0,0s-.06,0-.07-.08c0-.32-.2-.56-1.22-.85l0-.15a7.19,7.19,0,0,0,1.22.16c.27,0,.29-.08.29-.21v-2.16h-1.6a2.38,2.38,0,0,0-.69.11l-.29-.39c.24,0,.51,0,.75,0h3.7l.37-.51Zm-5.35-3.29c.48.17,1,.39,1,.78,0,.18-.13.36-.25.36a.2.2,0,0,1-.16-.13,1.81,1.81,0,0,0-.63-.89Zm4.22,2a.26.26,0,0,1,.07.12s0,0-.13,0h-2.19a1.72,1.72,0,0,0-.62.09l-.29-.37a6.56,6.56,0,0,0,.76,0h1.53l.37-.48ZM106.47,107c1,.32,1.28.62,1.28,1s-.12.41-.28.41-.23-.11-.27-.27a1.89,1.89,0,0,0-.78-1Zm6.09,6.31c-.58.05-.75.18-.94.48a.06.06,0,0,1-.06,0l-.09,0a6.41,6.41,0,0,1-3.91-4.75l.14,0a6.83,6.83,0,0,0,.32.87h2l.27-.39.63.47c.05,0,.09.08.09.1s0,0-.11.07c-.33.07-.57.22-1.76,1.54a5.18,5.18,0,0,0,3.38,1.5Zm-2.52-3.2h-1.91a5.69,5.69,0,0,0,.94,1.44Zm-1.35,4.57a5.56,5.56,0,0,1,2.59,1.15.68.68,0,0,1,.14.41c0,.19-.1.36-.23.36s-.21,0-.34-.2a6,6,0,0,0-2.2-1.59Z"/><path d="M123.24,110.81s.08.09.08.11,0,0-.13,0h-4.31c-.67.57-1.36,1.1-2,1.59h3.49l.35-.48.67.53s.06.06.06.08,0,.06-.07.09L121,113v2.6c0,.19,0,1.18,0,1.24s0,.19-.27.29l-.21.06c-.06,0-.07,0-.07-.14v-.76h-4.17v.62c0,.15,0,.2-.21.27a.53.53,0,0,1-.22.07c-.08,0-.1-.07-.1-.25s0-1.36,0-1.45v-2.27a21.74,21.74,0,0,1-2.59,1.48l-.09-.15c1-.6,1.87-1.19,2.68-1.75l0-.69.48.36c.72-.52,1.35-1,1.93-1.52H114.1a2.59,2.59,0,0,0-.72.11l-.31-.39a5.32,5.32,0,0,0,.79,0h3.52V109h-1.94a2.39,2.39,0,0,0-.69.1l-.29-.38a6.39,6.39,0,0,0,.75,0h2.17v-.66c0-.42,0-.68,0-1.06l.73.3q.09,0,.09.09s0,0,0,.08l-.24.2v1h1l.38-.55.61.67s0,0,0,.07,0,0-.07,0h-2v1.75h.63a19.93,19.93,0,0,0,2.86-3l.63.46s.06,0,.06.07,0,0-.07.06c-.33.08-.37.11-.5.24-.74.74-1.52,1.48-2.33,2.17h2.91l.49-.65Zm-2.72,3.42v-1.44h-4l-.15.11v1.33Zm0,1.77v-1.54h-4.17V116Z"/><path d="M133.86,108c.09.09.14.16.14.19s-.07,0-.19,0h-4.59c-.33.67-.67,1.36-.93,2h3.85l.33-.52.7.45c.07,0,.1.08.1.11s0,.07-.1.13l-.3.27v5.23c0,.69,0,.78-.68,1.08a.19.19,0,0,1-.1,0s-.05,0-.07-.11c-.09-.36-.31-.56-1.23-.8l0-.15a9.12,9.12,0,0,0,1.21.18c.31,0,.33-.12.33-.39v-5.28H130.3v3.79c0,.52,0,.89,0,1.32v.07c0,.14,0,.17-.27.27a.58.58,0,0,1-.2.06c-.08,0-.1-.06-.1-.22v-.1c0-.57,0-1,0-1.43v-3.76H128v4c0,.53,0,.88,0,1.32v0c0,.15,0,.2-.27.28a.52.52,0,0,1-.2.07c-.08,0-.1-.07-.1-.23v-.1c0-.57,0-1,0-1.41v-4h-1.76v4.25c0,.82,0,1.42,0,1.83v.07c0,.15,0,.2-.27.29a.5.5,0,0,1-.21.07c-.08,0-.1-.07-.1-.23s0-1.73,0-2v-3.49c0-.44,0-1.18,0-1.58l.71.61h2.2a11.2,11.2,0,0,0,.46-2H125a2.43,2.43,0,0,0-.73.12l-.3-.4c.27,0,.54,0,.79,0h8l.42-.62Z"/><path d="M144.6,108.87a.23.23,0,0,1,.11.16s-.05.08-.15.08h-8.65a2.11,2.11,0,0,0-.73.12l-.3-.4c.27,0,.54,0,.79,0h7.76l.46-.63Zm-1.34,3.2c.09.07.13.13.13.17s0,.06-.16.06h-5.74a2.36,2.36,0,0,0-.72.12l-.3-.4c.27,0,.54,0,.78,0h5l.41-.57Zm0-1.6a.34.34,0,0,1,.12.16c0,.05-.06.08-.15.08h-5.64a2.43,2.43,0,0,0-.73.11l-.3-.4a7.29,7.29,0,0,0,.79,0h4.91l.39-.54Zm-.27,3.22c.06,0,.08.07.08.1s0,.07-.08.11l-.27.21v1.41c0,.37,0,.86,0,1.18v0c0,.13,0,.18-.28.32a.43.43,0,0,1-.2.07c-.05,0-.07,0-.07-.15v-.82h-4.6v.65c0,.11,0,.15-.23.26a.79.79,0,0,1-.23.09c-.06,0-.07,0-.07-.16v-.1c0-.39,0-.94,0-1.32v-1.33c0-.26,0-.78,0-1.11l.68.53h4.23l.35-.47Zm-.79,2.23v-2h-4.6v2Zm-3-8.8c.85.37,1.35.71,1.35,1.13s-.2.52-.36.52-.2,0-.28-.44a1.73,1.73,0,0,0-.79-1.1Z"/><path d="M80.22,126.18c0,1.26.12,1.62.44,1.8.06,0,.09,0,.09.09a.24.24,0,0,1,0,.08,1.11,1.11,0,0,1-1.14.82c-.43,0-1,.08-1.45.08-1.52,0-1.71-.22-1.71-1v-3.89H74.78c0,2.9-.38,4.14-3.65,5.42l-.07-.15c2.69-1.41,3.21-2.22,3.21-5.27H72.08a2.37,2.37,0,0,0-.73.12l-.3-.4c.27,0,.54,0,.79,0h3.78v-2.81c0-.45,0-1.18,0-1.58l.78.44a.14.14,0,0,1,.1.13.15.15,0,0,1-.06.11l-.27.24v3.47h.47a26.36,26.36,0,0,0,2-3.28l.7.53s.06,0,.06.08,0,0-.1.06a.83.83,0,0,0-.48.3l-1.9,2.31H79.4l.49-.65.71.65c.07.07.11.12.11.17s-.06.07-.18.07H76.94V128c0,.52.32.56.84.56s1.26,0,1.55-.06c.51-.07.72-.21.72-2.32Zm-7.67-5.42c1,.63,1.78,1.41,1.78,1.7s-.13.72-.37.72-.18-.08-.25-.36a4.43,4.43,0,0,0-1.25-1.93Z"/><path d="M84.94,120c.08.06.13.1.13.13s0,.07-.13.1a.6.6,0,0,0-.41.41c-.29.65-.61,1.25-.91,1.82l.38.17a.11.11,0,0,1,.08.1.15.15,0,0,1,0,.08l-.25.24v4.26c0,.67,0,1.22,0,1.7v.09c0,.17,0,.21-.24.3a.49.49,0,0,1-.22.07c-.08,0-.12-.09-.12-.29v-.08c0-.64,0-1.25,0-1.81v-4.23a15.21,15.21,0,0,1-1.57,2.26l-.11-.1a23.36,23.36,0,0,0,2.66-5.65Zm3.3,5.5-2,1.8a1.49,1.49,0,0,0-.35.51c0,.09-.07.13-.1.13s-.05,0-.09,0l-.57-.42a.91.91,0,0,0,.39-.67V122.3c0-.44,0-1.17,0-1.57l.83.42c.07,0,.11.06.11.11s0,.06-.09.09l-.31.2v5.26l2.15-1.42Zm2.19-4.57a27,27,0,0,1-.4,5,5.12,5.12,0,0,1-.21.59A4,4,0,0,1,91.6,128a.79.79,0,0,1,.1.4.48.48,0,0,1-.37.52c-.18,0-.25-.08-.32-.47a4.21,4.21,0,0,0-1.26-1.75c-.58,1.17-1.67,2-3.82,2.89l-.06-.15c2.22-1,3.42-2.4,3.7-3.66.21-.93.31-1.83.31-5.69l.86.42c.06,0,.1,0,.1.09s0,.07-.09.11Zm-3.32-.62a3.49,3.49,0,0,1,1.48,2c0,.32-.2.64-.41.64s-.29-.09-.29-.46a3.47,3.47,0,0,0-.87-2.12Z"/><path d="M102.41,124.66c.07.06.1.11.1.15s0,.07-.14.07H97.7v3.52c0,.53-.09.66-.89,1.08l-.06,0s0,0-.06-.08c-.07-.49-.22-.7-1.47-1l0-.17a11.71,11.71,0,0,0,1.54.2c.37,0,.41-.13.41-.39v-3.19H93.36a2.05,2.05,0,0,0-.72.12l-.31-.41a7.45,7.45,0,0,0,.79,0H97.2v-3.81c-1.3.13-2.49.22-4,.3V121a43,43,0,0,0,7.11-1.32l.65.66s.06.07.06.09,0,0,0,0l-.14,0a1.83,1.83,0,0,0-.37,0,3.53,3.53,0,0,0-.54,0c-.83.15-1.56.25-2.26.34v3.88h3.47l.49-.69ZM94,121.73c1.1.61,1.58,1.07,1.64,1.33a.73.73,0,0,1,0,.25c0,.37-.22.63-.46.63-.08,0-.15-.12-.22-.5a3.26,3.26,0,0,0-1.06-1.6Zm7.08.24a.16.16,0,0,1,.07.11s0,0-.08,0c-.36.07-.45.1-.6.25l-1.84,1.88-.12-.11a20.21,20.21,0,0,0,1.87-2.78Z"/><path d="M113.26,128c-.54,0-.83.07-1.07.41a.09.09,0,0,1-.07,0l-.07,0a7.63,7.63,0,0,1-3.51-3.73h-.14v2.43c0,.32,0,1.85,0,2.19,0,.17,0,.2-.27.3a.61.61,0,0,1-.22.06c-.07,0-.1-.06-.1-.24s.06-2,.06-2.33v-2.31a12,12,0,0,1-4.57,4.15l-.11-.14a13.58,13.58,0,0,0,4.13-4.11h-2.86a2.11,2.11,0,0,0-.73.12l-.3-.4c.27,0,.54,0,.79,0h3.65v-2.94h-2.84a2.43,2.43,0,0,0-.73.12l-.3-.4a7.29,7.29,0,0,0,.79.05h3.08c0-.74,0-1.38,0-1.75l.8.31c.06,0,.09.05.09.09s0,.06-.07.1l-.28.23v1h2.71l.46-.62.73.7c0,.06.08.09.08.11s0,0-.12,0H108.4v2.94H109a28.28,28.28,0,0,0,1.48-2.54l.74.58s0,0,0,.06,0,0-.1.07a1.29,1.29,0,0,0-.59.31l-1.33,1.52h2.38l.45-.64.73.74a.18.18,0,0,1,.06.1s0,0-.1,0h-4a6.25,6.25,0,0,0,4.51,3.16Zm-8-5.79c.44.2,1.5.77,1.5,1.4,0,.29-.21.53-.38.53s-.13-.07-.17-.29a3.22,3.22,0,0,0-1-1.53Z"/><path d="M122.41,121.42c.08.06.12.12.12.15s0,.08-.12.12l-.3.15v5.21c0,.82,0,1.49.06,2v.08c0,.15,0,.19-.27.29a1,1,0,0,1-.22.07c-.06,0-.07-.06-.07-.14v-.84h-5.15v.75c0,.15,0,.18-.23.27a.66.66,0,0,1-.22.06c-.08,0-.09-.06-.09-.22v-.12c0-.64,0-1.61,0-2.23v-5c0-.26,0-.78,0-1.11l.69.57h1.3l.39-1.92.77.23c.09,0,.14.07.14.09s0,0-.09.09c-.3.15-.47.37-1,1.51h3.26l.37-.52Zm-.8,2.25v-2h-5.15v2Zm0,2.21v-2h-5.15v2Zm0,2.37v-2.13h-5.15v2.13Z"/><path d="M131.17,124.38c.05,0,.07.07.07.09s0,0-.1,0h-2.73v3.11c0,.54,0,1,0,1.48v.08c0,.15,0,.19-.26.29a.65.65,0,0,1-.2.06c-.09,0-.11-.07-.11-.26v-.08c0-.63,0-1.12,0-1.59v-2.28a14.17,14.17,0,0,1-3,3.51l-.08-.12a17.89,17.89,0,0,0,3-4.2H126.1a2.15,2.15,0,0,0-.73.12l-.3-.4c.27,0,.54,0,.79,0h2c0-.45,0-.79,0-1.18l.78.36s0,0,0,0a2.21,2.21,0,0,1-.29.22v.56H130l.46-.6Zm-.1-4.3s0,0,0,0a.06.06,0,0,1-.06,0l-.25,0a2.14,2.14,0,0,0-.46.06,46,46,0,0,1-5,.83v-.15a35.85,35.85,0,0,0,5.26-1.35Zm-5.28,1.29c.9.64,1.37,1.16,1.37,1.52s-.19.55-.35.55-.17-.07-.24-.34a4.41,4.41,0,0,0-.85-1.65Zm1.82-.48c.82.55,1.13.91,1.13,1.31a.46.46,0,0,1-.37.49c-.15,0-.23-.1-.24-.41a2.59,2.59,0,0,0-.63-1.34Zm1,4.56c1.3.51,2,.93,2,1.53,0,.23-.11.41-.21.41s-.2-.06-.38-.42a5.05,5.05,0,0,0-1.51-1.43Zm6.18.51s.07.07.07.09,0,0-.07,0l-.14,0a.56.56,0,0,0-.38.17,11.29,11.29,0,0,1-5.39,3.42l0-.15a11.32,11.32,0,0,0,5.38-4.17ZM131,121.14s0,0,0,0a.06.06,0,0,1-.06,0c-.23,0-.29.07-1.6,2.16l-.12-.07c.29-.62.85-2,1-2.6Zm3.38,2s.06.06.06.08,0,0-.06,0h-.12a.6.6,0,0,0-.39.16,18.09,18.09,0,0,1-3.27,2.71l-.1-.13a19.9,19.9,0,0,0,3.3-3.42Zm-.2-3a.18.18,0,0,1,.05.07s0,0-.15,0a.63.63,0,0,0-.36.15,18.49,18.49,0,0,1-3,2.73l-.1-.11a16.47,16.47,0,0,0,2.94-3.38Z"/><path d="M139.05,126.3a4.38,4.38,0,0,1,1.34,1.25,1.11,1.11,0,0,1,.1.44c0,.31-.16.55-.34.55s-.24-.1-.28-.46c0-.08,0-.17-.06-.27l-3,.87a1.62,1.62,0,0,0-.77.39s-.05.05-.07.05a.1.1,0,0,1-.07-.05l-.34-.61,2.18-.42v-2.7h-1v.5c0,.2-.33.31-.41.31s-.08,0-.08-.16,0-.1,0-.16c0-.33,0-.83,0-1.24v-2c0-.23,0-.69,0-1l.64.46h.86v-.75c0-.44,0-1.18,0-1.58l.74.36c.08,0,.12.08.12.11s0,0-.35.26v1.6h1l.31-.49.67.5c.06,0,.09.06.09.09s0,.06-.08.08l-.36.22v1.78c0,.59,0,1,0,1.35v.09c0,.15,0,.19-.23.27a.77.77,0,0,1-.21.06c-.06,0-.07,0-.07-.13v-.54h-1.17v2.6l1.54-.29a3.51,3.51,0,0,0-.79-1.25Zm-1.3-1.2v-2.81h-1v2.81Zm1.64,0v-2.81h-1.17v2.81Zm6.15,3.59c.08.09.13.14.13.18s-.07.06-.19.06H140.9a2.31,2.31,0,0,0-.72.11l-.3-.39c.26,0,.54,0,.79,0h1.81v-7.38h-1.12a2.38,2.38,0,0,0-.73.11l-.3-.39c.26,0,.54,0,.79,0h3.11l.42-.56.58.58a.58.58,0,0,1,.11.17s-.06,0-.18,0H143v7.38h1.5l.48-.59Z"/><path d="M142.57,44.67c-.75.06-.94.19-1.08.44a.14.14,0,0,1-.11.08,10,10,0,0,1-3.12-1.8,9.48,9.48,0,0,1-4.5,2l0-.16a10,10,0,0,0,4.21-2.14,8.93,8.93,0,0,1-1.65-3.84h-1.37c-.21,3.28-.56,4.66-2.26,6.15l-.14-.11a7,7,0,0,0,1.78-4.7c.08-1.14.11-2.22.11-3.29,0-.36,0-.72,0-1.07l.76.56a36.88,36.88,0,0,0,6.05-1l.55.65s.06.08.06.1a0,0,0,0,1,0,0l-.33-.05c-.16,0-.4,0-.79.06-2.2.19-4,.33-5.67.44,0,.66,0,1.43-.06,1.93h5.17l.35-.48.76.54s.07.06.07.09,0,.06-.13.08-.34.15-.49.48a14.23,14.23,0,0,1-2,3.35,6.37,6.37,0,0,0,3.95,1.5Zm-6-5.46a7.34,7.34,0,0,0,1.72,3.49,10.56,10.56,0,0,0,1.87-3.49Z"/><path d="M148.24,37s.08.06.08.08,0,.06-.08.1l-.32.23v7.13c0,.61,0,.72-.8,1.07l-.07,0s-.05,0-.07-.1c0-.27-.2-.47-1.16-.75l0-.13a7.46,7.46,0,0,0,1.22.17c.33,0,.35-.12.35-.35V41.67l-.14,0a12.59,12.59,0,0,1-3.91,3.42l-.1-.12a12.62,12.62,0,0,0,3.36-3.29l-2.41.06a2.17,2.17,0,0,0-.72.12l-.31-.4c.27,0,.54,0,.79,0h.5V37.74c0-.52,0-1,0-1.24l.62.53h.56a8.66,8.66,0,0,0,.52-1.73l.67.39c.08,0,.11.08.11.1s0,0-.12.05-.49.35-1,1.19h1.45l.27-.45Zm-.81,1.42V37.27H145v1.17Zm0,1.47V38.68H145v1.23Zm0,1.54v-1.3H145V41.5Zm5.87-2.87c.07.08.11.12.11.16s0,0-.15,0h-1.74v5.74c0,.73,0,.86-.7,1.15l-.08,0s-.05,0-.06-.08c-.09-.37-.21-.51-1.39-.89l0-.15a9.13,9.13,0,0,0,1.38.21c.29,0,.32-.1.32-.3v-5.7h-1.63a2.09,2.09,0,0,0-.72.12l-.3-.4c.27,0,.54,0,.79,0H151V37.08c0-.52,0-1.17,0-1.57l.79.37c.09,0,.13.07.13.1s0,.06-.37.28v2.29h.79l.41-.59Zm-4.55,1.21c1,.91,1.16,1.21,1.16,1.61s-.17.56-.39.56-.21-.21-.21-.57a3.52,3.52,0,0,0-.66-1.52Z"/><path d="M75.39,48.56s.06,0,.06.07,0,0-.11.06-.33.19-.44.49a11,11,0,0,1-3.6,5.38l-.09-.12a12.25,12.25,0,0,0,3.22-5.71H72.35a2.05,2.05,0,0,0-.72.12l-.3-.4c.27,0,.54,0,.78,0h2.26L74.7,48Zm5.91,5.28-.37,0a.91.91,0,0,0-.79.3s0,.07-.09.07a.15.15,0,0,1-.08,0c-1.91-1.76-2.82-3.36-3.52-6.77v6.82c0,.84-.12,1.1-.79,1.3H75.6s0,0-.06-.06c0-.32-.24-.52-1.37-.8l0-.18a8.56,8.56,0,0,0,1.37.21c.37,0,.38-.15.38-.47V46.92c0-.45,0-1.18,0-1.58l.88.44s0,0,0,0,0,.05,0,.07l-.33.22v.54a21,21,0,0,0,1,3,21.82,21.82,0,0,0,2.11-2.38l.66.61c.07.05.09.08.09.11s0,0-.19,0a.71.71,0,0,0-.51.18l-2.08,1.64c1.12,2.56,2.41,3.56,3.82,3.84Z"/><path d="M82.18,48.44c1.08.25,1.61.65,1.61,1s-.16.48-.3.48-.21-.07-.26-.24a1.9,1.9,0,0,0-1.09-1.11Zm3-.76-1.14,3.84a5.6,5.6,0,0,0-.22,1.57,4.61,4.61,0,0,0,.11,1,2.86,2.86,0,0,1,.11.71c0,.38-.15.5-.37.5s-.35-.19-.35-.61c0-.19.07-1,.07-1.25,0-.45-.06-.8-.23-.87a3.11,3.11,0,0,0-1.06-.26l0-.16c1,0,1.22-.06,1.45-.65l1.46-3.92Zm-2.48-1.75c.74.2,1.68.57,1.68,1,0,.22-.15.51-.28.51s-.22-.06-.32-.31-.32-.63-1.12-1.11Zm9.31,1c.06,0,.09.09.09.11s0,0-.12,0H89.71l.46.39a.08.08,0,0,1,0,.06s0,0-.08.07c-.28,0-.32.07-1,1.19h1.46l.37-.51.62.5c.05,0,.08.08.08.11s0,.06-.09.09l-.32.18v5.5c0,.54,0,.61-.69.89l-.07,0s-.06,0-.07-.08c-.11-.38-.27-.51-1.29-.71l0-.17c.57.06.94.1,1.17.1s.43-.09.43-.33V49H85.92v4.45c0,.62,0,1.22,0,1.59v.07c0,.1,0,.14-.26.21a.92.92,0,0,1-.22.06c-.07,0-.09-.06-.09-.17,0-.26,0-1.49,0-1.77v-4c0-.34,0-.89,0-1.2l.71.49h2.75a9.25,9.25,0,0,0,.75-1.71H85.88a2.21,2.21,0,0,0-.65.1L85,46.8c.23,0,.48,0,.71,0H91l.4-.58ZM90.47,50.4a.29.29,0,0,1,0,.1s0,0-.1,0H88.56v1.14h.51l.24-.39.56.4c.07,0,.09.07.09.1s0,.06-.26.26v1c0,.12,0,.71,0,.75s0,.18-.27.28l-.17,0c-.07,0-.08,0-.08-.13v-.41H87.43v.3c0,.13,0,.18-.21.25a.71.71,0,0,1-.21.07c-.07,0-.09-.05-.09-.16s0-.81,0-1v-.63c0-.26,0-.78,0-1.12l.62.34h.52V50.53H86.9a2.28,2.28,0,0,0-.66.11L86,50.26a5.92,5.92,0,0,0,.71.05h1.38c0-.42,0-.89,0-1.27l.74.33s0,0,0,.05,0,0-.25.17v.72h1l.35-.47Zm-3.85-3.23c.3.17,1.1.61,1.1,1.15,0,.24-.15.44-.3.44s-.21-.08-.24-.27a2.07,2.07,0,0,0-.64-1.2Zm.77-1.82c.49.16,1.44.58,1.44,1,0,.21-.15.41-.32.41s-.18-.09-.24-.26a2,2,0,0,0-1-1.06Zm1.81,8V51.91H87.43v1.43Z"/></g></g></svg>