<svg xmlns="http://www.w3.org/2000/svg" width="325" viewBox="0 0 184.74 150.68"><defs><style>.cls-1{fill:#f66;}.cls-1,.cls-2,.cls-3,.cls-5{fill-rule:evenodd;}.cls-2{fill:#ffeb80;}.cls-3{fill:#b2b2ff;}.cls-4{fill:#ffff80;}.cls-5{fill:#fff;}</style></defs><g id="图层_2" data-name="图层 2"><g id="图片"><path class="cls-1" d="M168.09,107.22c-15.76,27.3-36,45.16-45.19,39.86S119.07,115.32,134.83,88s36-45.17,45.19-39.87,3.84,31.76-11.93,59.07"/><polyline class="cls-2" points="18.22 4.88 22.72 0.38 25.72 6.08 33.82 5.17 32.62 11.47 40.12 12.97 35.62 18.68 40.42 23.48 33.52 26.48 34.72 33.38 29.02 31.88 27.22 37.88 22.42 32.17 15.52 36.08 13.72 30.68 5.92 31.57 9.22 24.07 0.52 16.88 9.52 15.38 8.02 8.78 13.72 8.78 13.72 0.97 18.22 5.17"/><path d="M27.32,38.34l-4.95-5.88-7,3.95-1.83-5.49-8,.92L9,24.14,0,16.73l9.25-1.54L7.74,8.55H13.5V.46l4.62,4.31-.06,0L22.78,0l3.07,5.83,8.25-.91L32.89,11.3l7.64,1.53-4.61,5.83,4.9,4.89-7,3.06L35,33.68l-5.82-1.53Zm-4.85-6.45,4.66,5.52,1.74-5.81,5.57,1.47-1.17-6.73L40,23.4l-4.71-4.71,4.4-5.57-7.36-1.47,1.18-6.22-7.94.89L22.67.75,18.38,5h0l-.3.32L14,1.49V9H8.3l1.5,6.56L1.05,17,9.5,24l-3.21,7.3,7.59-.88,1.77,5.32Z"/><path class="cls-3" d="M164.45,105.12c-14.64,25.35-32.34,42.57-39.51,38.43s-1.11-28.08,13.53-53.43S170.81,47.54,178,51.68s1.11,28.08-13.53,53.44"/><circle class="cls-4" cx="21.8" cy="19.56" r="10.68" transform="translate(-1.52 37.27) rotate(-79.1)"/><path d="M21.8,30.46a10.91,10.91,0,1,1,10.91-10.9A10.91,10.91,0,0,1,21.8,30.46Zm0-21.36A10.46,10.46,0,1,0,32.26,19.56,10.47,10.47,0,0,0,21.8,9.1Z"/><path class="cls-5" d="M161.36,103.29C148,126.46,132.58,142.65,127,139.42s.73-24.66,14.11-47.83,28.78-39.37,34.37-36.14-.72,24.66-14.1,47.84"/><path d="M22.38,48.46a1.34,1.34,0,0,0-1.14.31.12.12,0,0,1-.1,0l-.08,0a7.37,7.37,0,0,1-3.33-6.28h-.25a10.27,10.27,0,0,1-1.06,3.73c1,.42,1.75.73,1.75,1.38,0,.32-.19.57-.37.57s-.18-.08-.23-.27a2.79,2.79,0,0,0-1.22-1.55,7.41,7.41,0,0,1-3.85,3.1l-.06-.14c3.09-1.84,4.16-3.37,4.5-6.82H13.59a2.36,2.36,0,0,0-.72.12l-.3-.4c.27,0,.54,0,.79,0H17a28.39,28.39,0,0,0,.13-3l.91.46c.05,0,.09,0,.09.07s0,.06-.08.09l-.33.19c0,.79-.09,1.5-.17,2.17h3.3l.52-.63.65.65a.24.24,0,0,1,.09.16s0,.06-.14.06h-4c.44,2.89,1.77,5.16,4.47,5.82Z"/><path d="M27.42,40.41s.06.05.06.08,0,.06-.08.08a1,1,0,0,0-.59.46L25.64,43A3.3,3.3,0,0,1,27,45.43a1.73,1.73,0,0,1-1.12,1.46s-.07,0-.08-.11c0-.32-.21-.51-1-.72l.05-.18a3.69,3.69,0,0,0,1,.19c.52,0,.69-.31.69-1a3,3,0,0,0-1.12-2l1.08-2.5H24.65v6.14c0,.82,0,1.63.05,2.12v.07c0,.15-.05.2-.27.3l-.2.05c-.06,0-.09-.05-.09-.23v-.11c0-.63,0-1.61,0-2.22V41.28c0-.44,0-1.18-.05-1.58l.69.6H26.3l.39-.49Zm5.23.15c.05,0,.07.06.07.09s0,.07-.07.1l-.38.25v5.57c0,.83,0,1.5,0,2v.07c0,.16,0,.19-.3.3a.57.57,0,0,1-.19,0c-.07,0-.08,0-.08-.13V47.69H28.43v.88c0,.15,0,.19-.22.27a.58.58,0,0,1-.22.07c-.08,0-.09-.06-.09-.22v-.13c0-.64,0-1.61,0-2.22V41c0-.51,0-.78,0-1.11l.7.62h3l.36-.53Zm-.9,3.37V40.75H28.43v3.18Zm0,3.52V44.17H28.43v3.28Z"/><polyline class="cls-5" points="102.82 94.88 184.42 75.97 179.32 147.97 110.62 150.68 103.72 94.88"/><path d="M176.28,109.17l-.78-.45.22-.39.78.45Zm-3.12-1.8-.78-.45.22-.39.78.45Zm-3.12-1.8-.78-.45.23-.39.78.45Zm-3.12-1.8-.78-.45.23-.39.78.45Zm-3.11-1.8-.78-.45.22-.39.78.45Zm-3.12-1.8-.78-.45.22-.39.78.45Zm-3.12-1.8-.78-.45.23-.39.77.45Zm-3.12-1.8-.78-.45.23-.39.78.45Zm-3.12-1.8-.77-.45.22-.39.78.45ZM148.22,93l-.78-.45.22-.39.78.45Zm-3.12-1.8-.78-.45.22-.39.78.45ZM142,89.37l-.78-.45.23-.39.78.45Zm-3.12-1.8-.78-.45.23-.39.78.45Zm-3.11-1.8-.78-.45.22-.39.78.45ZM132.63,84l-.78-.45.22-.39.78.45Zm-3.12-1.8-.78-.45.23-.39.78.45Zm-3.12-1.8-.78-.45.23-.39.78.45Zm-3.11-1.8-.78-.45.22-.39.78.45Zm-3.12-1.8-.78-.45.22-.39.78.45ZM117,75l-.78-.45.23-.39.78.45Zm-3.12-1.8-.78-.45.23-.39.78.45Zm-3.12-1.8-.77-.45.22-.39L111,71Zm-3.11-1.8-.78-.45.22-.39.78.45Zm-3.12-1.8-.78-.45.23-.39.77.45ZM101.45,66l-.78-.45.23-.39.78.45Zm-3.12-1.8-.78-.45.23-.39.78.45Zm-3.11-1.8-.78-.45.22-.39.78.45Zm-3.12-1.8-.78-.45.22-.39.78.45ZM89,58.77l-.78-.45.23-.39.78.45ZM85.86,57l-.78-.45.23-.39.78.45Zm-3.11-1.8L82,54.72l.22-.39.78.45Zm-3.12-1.8-.78-.45.22-.39.78.45Zm-3.12-1.8-.78-.45.23-.39.78.45Zm-3.12-1.8-.78-.45.23-.39.78.45ZM70.27,48l-.77-.45.22-.39.78.45Zm-3.11-1.8-.78-.45.22-.39.78.45ZM64,44.37l-.78-.45.22-.39.78.45Zm-3.12-1.8-.78-.45.23-.39.78.45Zm-3.12-1.8L57,40.32l.23-.39.78.45ZM54.69,39l-.78-.45.22-.39.78.45Zm-3.12-1.8-.78-.45.22-.39.78.45Zm-3.12-1.8-.78-.45.23-.39.78.45Zm-3.12-1.8-.78-.45.23-.39.78.45Zm-3.11-1.8-.78-.45.22-.39.78.45ZM39.1,30l-.78-.45.22-.39.78.45ZM36,28.17l-.78-.45.23-.39.78.45Zm-3.12-1.8-.78-.45.23-.39.78.45Zm-3.11-1.8L29,24.12l.22-.39.78.45Zm-3.12-1.8-.78-.45.22-.39.78.45ZM23.51,21l-.78-.45.22-.39.78.45Z"/><polygon points="184.42 75.48 3.94 75.48 3.94 75.03 100.14 75.03 97.77 72.02 95.67 74.39 95.33 74.09 97.56 71.57 97.56 68.6 94.83 70 94.62 69.59 97.79 67.98 100.48 69.6 100.25 69.99 98.01 68.63 98.01 71.58 100.54 74.82 100.27 75.03 184.42 75.03 184.42 75.48"/><path d="M119.21,143.67l-.22-.87.43-.11.23.87Zm-.9-3.48-.22-.88.43-.11.23.87Zm-.9-3.49-.22-.87.43-.12.23.88Zm-.89-3.49-.23-.87.44-.11.22.87Zm-.9-3.48-.23-.88.44-.11.22.88Zm-.9-3.49-.22-.87.43-.11.23.87Zm-.9-3.49-.22-.87.43-.11.23.87Zm-.9-3.48-.22-.87.43-.12.23.88Zm-.89-3.49-.23-.87.44-.11.22.87Zm-.9-3.48-.23-.88.44-.11.22.87Zm-.9-3.49-.22-.87.43-.11.23.87Zm-.9-3.49-.22-.87.43-.11.23.87Zm-.9-3.48-.22-.88.44-.11.22.88Zm-.89-3.49-.23-.87.44-.11.22.87Zm-.9-3.49-.23-.87.44-.11.22.87Zm-.9-3.48-.22-.87.43-.12.23.88Zm-.9-3.49-.22-.87.43-.11.23.87Zm-.9-3.48-.22-.87.43-.12.23.87Zm-.89-3.49-.23-.87.44-.11.22.87Zm-.9-3.49-.23-.87.44-.11.22.87Zm-.9-3.48-.22-.87.43-.12.23.88Zm-.9-3.49-.22-.87.43-.11.23.87ZM99.45,67l-.22-.87.44-.11.22.87Z"/><path d="M126.27,147.87h0c-.31,0-.62,0-.92-.08a.22.22,0,0,1-.19-.25.22.22,0,0,1,.26-.19,8.06,8.06,0,0,0,.87.07.22.22,0,0,1,.21.24A.21.21,0,0,1,126.27,147.87Zm1.38,0a.24.24,0,0,1-.23-.21.22.22,0,0,1,.2-.24c.29,0,.58-.07.88-.13a.23.23,0,0,1,.08.45l-.91.13Zm-3.61-.36-.08,0a6.37,6.37,0,0,1-.85-.36.22.22,0,1,1,.2-.4,6.41,6.41,0,0,0,.8.34.23.23,0,0,1-.07.44Zm5.84-.08a.23.23,0,0,1-.22-.17.22.22,0,0,1,.16-.27q.42-.12.84-.27a.23.23,0,0,1,.15.43q-.44.15-.87.27Zm2.15-.76a.22.22,0,0,1-.21-.14.21.21,0,0,1,.12-.29l.81-.36a.22.22,0,0,1,.3.11.23.23,0,0,1-.11.3c-.28.13-.55.25-.83.36Zm-10-.27a.19.19,0,0,1-.14-.05,5.77,5.77,0,0,1-.68-.63.21.21,0,0,1,0-.31.23.23,0,0,1,.32,0,6,6,0,0,0,.64.59.23.23,0,0,1,0,.32A.22.22,0,0,1,122.05,146.36Zm12-.71a.22.22,0,0,1-.2-.12.23.23,0,0,1,.1-.3l.78-.43a.24.24,0,0,1,.31.08.23.23,0,0,1-.09.31l-.79.44Zm-13.54-1a.23.23,0,0,1-.19-.1,8,8,0,0,1-.47-.8.22.22,0,0,1,.09-.3.23.23,0,0,1,.31.09c.14.26.29.52.44.76a.22.22,0,0,1-.06.31A.28.28,0,0,1,120.54,144.68Zm15.52-.16a.23.23,0,0,1-.12-.42l.76-.48a.22.22,0,0,1,.24.38l-.76.48A.28.28,0,0,1,136.06,144.52Zm1.9-1.26a.21.21,0,0,1-.18-.09.23.23,0,0,1,.05-.32l.73-.52a.24.24,0,0,1,.32,0,.22.22,0,0,1,0,.31l-.74.53A.2.2,0,0,1,138,143.26Zm-18.45-.62a.23.23,0,0,1-.21-.14c-.1-.28-.2-.57-.29-.87a.22.22,0,0,1,.15-.28.23.23,0,0,1,.28.15c.09.29.18.57.28.84a.21.21,0,0,1-.13.29Zm20.29-.73a.23.23,0,0,1-.18-.09.22.22,0,0,1,0-.31l.71-.56a.23.23,0,1,1,.28.36l-.71.55A.24.24,0,0,1,139.8,141.91Zm1.78-1.43a.19.19,0,0,1-.17-.08.21.21,0,0,1,0-.31l.68-.58a.23.23,0,0,1,.32,0,.22.22,0,0,1,0,.32l-.69.58A.19.19,0,0,1,141.58,140.48Zm-22.7,0a.23.23,0,0,1-.22-.18c-.06-.29-.12-.59-.16-.9a.22.22,0,0,1,.18-.25.23.23,0,0,1,.26.18c0,.3.1.59.16.88a.21.21,0,0,1-.17.26ZM143.31,139a.21.21,0,0,1-.17-.07.22.22,0,0,1,0-.32l.66-.6a.23.23,0,1,1,.31.33l-.67.61A.23.23,0,0,1,143.31,139Zm-24.77-.79a.22.22,0,0,1-.22-.2c0-.29-.06-.6-.07-.9a.22.22,0,0,1,.21-.24.23.23,0,0,1,.24.21c0,.3,0,.6.07.89a.22.22,0,0,1-.21.24Zm26.44-.75a.23.23,0,0,1-.16-.07.23.23,0,0,1,0-.32l.65-.62a.23.23,0,1,1,.31.33l-.65.62A.23.23,0,0,1,145,137.45Zm-26.56-1.52a.23.23,0,0,1-.23-.22v-.91a.22.22,0,0,1,.23-.22h0a.22.22,0,0,1,.22.23v.89a.22.22,0,0,1-.22.23Zm28.2-.07a.23.23,0,0,1-.16-.06.22.22,0,0,1,0-.32l.63-.64a.23.23,0,0,1,.32.32l-.63.64A.23.23,0,0,1,146.62,135.86Zm1.59-1.63a.22.22,0,0,1-.15-.06.23.23,0,0,1,0-.32l.62-.65a.22.22,0,0,1,.32,0,.23.23,0,0,1,0,.32l-.62.65A.23.23,0,0,1,148.21,134.23Zm-29.75-.58h0a.23.23,0,0,1-.22-.24l.06-.9a.24.24,0,0,1,.24-.21.23.23,0,0,1,.21.24l-.06.9A.21.21,0,0,1,118.46,133.65Zm31.31-1.09a.27.27,0,0,1-.15-.05.23.23,0,0,1,0-.32c.21-.22.41-.44.61-.67a.22.22,0,0,1,.32,0,.21.21,0,0,1,0,.31l-.6.67A.23.23,0,0,1,149.77,132.56Zm-31.14-1.18h0a.24.24,0,0,1-.2-.25c0-.3.06-.6.1-.9a.23.23,0,0,1,.25-.2.24.24,0,0,1,.2.25c0,.3-.07.6-.1.89A.24.24,0,0,1,118.63,131.38Zm32.66-.52a.23.23,0,0,1-.15-.05.23.23,0,0,1,0-.32c.2-.22.4-.45.59-.68a.23.23,0,1,1,.34.3l-.59.68A.22.22,0,0,1,151.29,130.86Zm1.49-1.73a.21.21,0,0,1-.15,0,.23.23,0,0,1,0-.32c.2-.22.39-.45.58-.68a.22.22,0,0,1,.35.28l-.58.7A.23.23,0,0,1,152.78,129.13Zm-33.87,0h0a.22.22,0,0,1-.19-.25c0-.3.09-.6.14-.9a.23.23,0,0,1,.26-.18.22.22,0,0,1,.18.25c0,.3-.09.6-.13.89A.24.24,0,0,1,118.91,129.11Zm35.32-1.73a.24.24,0,0,1-.14,0,.22.22,0,0,1,0-.32l.56-.7a.22.22,0,0,1,.32,0,.22.22,0,0,1,0,.31l-.56.7A.23.23,0,0,1,154.23,127.38Zm-34.95-.52h0a.23.23,0,0,1-.18-.26c.06-.3.11-.59.17-.89a.24.24,0,0,1,.27-.18.23.23,0,0,1,.17.27c0,.29-.11.59-.16.88A.23.23,0,0,1,119.28,126.86Zm36.37-1.26a.27.27,0,0,1-.14,0,.23.23,0,0,1,0-.32l.55-.71a.22.22,0,0,1,.31,0,.23.23,0,0,1,0,.32l-.55.71A.21.21,0,0,1,155.65,125.6Zm-35.92-1h0a.22.22,0,0,1-.18-.26c.07-.3.13-.59.2-.89a.24.24,0,0,1,.27-.17.23.23,0,0,1,.17.28c-.07.29-.13.58-.2.87A.22.22,0,0,1,119.73,124.63Zm37.32-.84a.23.23,0,0,1-.14,0,.23.23,0,0,1,0-.32l.54-.72a.21.21,0,0,1,.31,0,.22.22,0,0,1,.05.31l-.54.72A.24.24,0,0,1,157.05,123.79Zm-36.8-1.38h0a.23.23,0,0,1-.17-.27c.07-.29.15-.58.22-.88a.23.23,0,0,1,.28-.16.23.23,0,0,1,.16.28c-.08.29-.15.58-.22.87A.23.23,0,0,1,120.25,122.41Zm38.16-.45a.2.2,0,0,1-.13,0,.21.21,0,0,1-.05-.31l.53-.73a.22.22,0,0,1,.36.26l-.53.73A.21.21,0,0,1,158.41,122Zm-37.58-1.76h-.06a.22.22,0,0,1-.16-.27l.24-.87a.24.24,0,0,1,.28-.16.22.22,0,0,1,.15.28L121,120A.23.23,0,0,1,120.83,120.2Zm38.91-.09a.22.22,0,0,1-.13,0,.22.22,0,0,1-.05-.31l.52-.74a.23.23,0,0,1,.37.26l-.52.74A.25.25,0,0,1,159.74,120.11Zm1.31-1.87a.22.22,0,0,1-.13,0,.22.22,0,0,1-.06-.31l.51-.74a.24.24,0,0,1,.32-.06.22.22,0,0,1,.05.31l-.51.75A.21.21,0,0,1,161.05,118.24ZM121.46,118h-.07a.22.22,0,0,1-.15-.28c.09-.29.17-.58.26-.86a.23.23,0,0,1,.29-.15.22.22,0,0,1,.14.28l-.26.86A.22.22,0,0,1,121.46,118Zm40.87-1.65a.25.25,0,0,1-.12,0,.22.22,0,0,1-.07-.31c.17-.25.34-.5.5-.75a.23.23,0,0,1,.31-.07.24.24,0,0,1,.07.32c-.17.25-.34.5-.5.75A.26.26,0,0,1,162.33,116.36Zm-40.19-.53h-.07a.22.22,0,0,1-.15-.28c.09-.29.19-.57.28-.86a.24.24,0,0,1,.29-.14.23.23,0,0,1,.14.29c-.09.28-.19.56-.28.85A.23.23,0,0,1,122.14,115.83Zm41.44-1.38a.27.27,0,0,1-.12,0,.25.25,0,0,1-.07-.32l.49-.75a.22.22,0,0,1,.38.24l-.49.76A.21.21,0,0,1,163.58,114.45Zm-40.72-.78h-.07a.23.23,0,0,1-.14-.29l.3-.85a.23.23,0,0,1,.29-.14.23.23,0,0,1,.13.29l-.3.85A.23.23,0,0,1,122.86,113.67Zm42-1.14a.19.19,0,0,1-.12,0,.22.22,0,0,1-.07-.31c.16-.25.32-.5.47-.76a.22.22,0,0,1,.31-.07.23.23,0,0,1,.08.31l-.48.76A.23.23,0,0,1,164.81,112.53Zm-41.18-1h-.08a.21.21,0,0,1-.13-.29c.1-.28.2-.56.31-.84a.23.23,0,0,1,.29-.14.22.22,0,0,1,.13.29l-.31.85A.22.22,0,0,1,123.63,111.52Zm42.38-.93-.12,0a.23.23,0,0,1-.07-.31l.46-.77a.23.23,0,1,1,.39.23c-.16.26-.31.52-.47.77A.23.23,0,0,1,166,110.59Zm-41.58-1.2h-.08a.25.25,0,0,1-.13-.3c.11-.28.22-.55.33-.84a.23.23,0,0,1,.3-.12.22.22,0,0,1,.12.29l-.33.84A.22.22,0,0,1,124.43,109.39Zm42.75-.76a.2.2,0,0,1-.11,0,.23.23,0,0,1-.08-.31l.45-.77a.23.23,0,0,1,.31-.08.22.22,0,0,1,.08.31l-.45.77A.24.24,0,0,1,167.18,108.63Zm-41.9-1.36a.15.15,0,0,1-.09,0,.22.22,0,0,1-.12-.29l.34-.83a.22.22,0,0,1,.3-.12.23.23,0,0,1,.12.29l-.34.83A.23.23,0,0,1,125.28,107.27Zm42.81-.19a.2.2,0,0,1-.11,0,.22.22,0,0,1-.08-.31l.42-.73a.22.22,0,0,1,.3-.09.23.23,0,0,1,.09.31l-.42.74A.24.24,0,0,1,168.09,107.08Zm-41.93-1.91-.09,0a.22.22,0,0,1-.12-.3c.12-.27.23-.55.35-.82a.23.23,0,0,1,.3-.12.23.23,0,0,1,.12.3l-.36.82A.21.21,0,0,1,126.16,105.17Zm43,0a.23.23,0,0,1-.11,0,.22.22,0,0,1-.08-.31l.43-.78a.23.23,0,0,1,.31-.09.22.22,0,0,1,.09.3l-.44.79A.24.24,0,0,1,169.19,105.15Zm1.1-2a.19.19,0,0,1-.1,0,.23.23,0,0,1-.1-.3l.43-.79a.23.23,0,0,1,.31-.1.23.23,0,0,1,.09.31l-.43.79A.22.22,0,0,1,170.29,103.15Zm-43.22-.07-.09,0a.23.23,0,0,1-.12-.3l.37-.82a.21.21,0,0,1,.3-.11.22.22,0,0,1,.11.29l-.37.82A.22.22,0,0,1,127.07,103.08Zm44.3-1.94a.23.23,0,0,1-.11,0,.22.22,0,0,1-.09-.3l.41-.8a.24.24,0,0,1,.31-.1.23.23,0,0,1,.09.31l-.41.8A.24.24,0,0,1,171.37,101.14ZM128,101l-.09,0a.21.21,0,0,1-.11-.3l.38-.82a.22.22,0,0,1,.3-.1.22.22,0,0,1,.1.3l-.38.81A.22.22,0,0,1,128,101Zm44.4-1.89-.1,0a.23.23,0,0,1-.1-.3l.41-.81a.22.22,0,0,1,.3-.1.22.22,0,0,1,.1.3l-.41.81A.21.21,0,0,1,172.41,99.11ZM129,98.94l-.09,0a.23.23,0,0,1-.11-.3l.39-.81a.23.23,0,0,1,.41.19l-.39.81A.23.23,0,0,1,129,98.94Zm44.45-1.87a.2.2,0,0,1-.1,0,.23.23,0,0,1-.1-.3l.39-.81a.23.23,0,0,1,.41.2l-.4.81A.2.2,0,0,1,173.43,97.07ZM130,96.89l-.1,0a.21.21,0,0,1-.1-.3l.4-.81a.23.23,0,0,1,.3-.1.22.22,0,0,1,.1.3l-.4.81A.22.22,0,0,1,130,96.89ZM174.42,95l-.09,0a.23.23,0,0,1-.11-.3l.38-.82a.23.23,0,0,1,.3-.11.23.23,0,0,1,.11.3l-.39.82A.21.21,0,0,1,174.42,95ZM131,94.86a.17.17,0,0,1-.1,0,.22.22,0,0,1-.1-.3l.42-.8a.22.22,0,1,1,.39.21l-.41.8A.24.24,0,0,1,131,94.86ZM175.38,93l-.09,0a.21.21,0,0,1-.11-.3l.36-.82a.23.23,0,0,1,.3-.11A.22.22,0,0,1,176,92l-.37.83A.23.23,0,0,1,175.38,93Zm-43.3-.11a.23.23,0,0,1-.11,0,.22.22,0,0,1-.09-.3l.43-.8a.22.22,0,0,1,.3-.09.23.23,0,0,1,.09.31l-.42.79A.22.22,0,0,1,132.08,92.84Zm44.23-2-.09,0a.23.23,0,0,1-.12-.3l.36-.82a.22.22,0,0,1,.41.17c-.12.28-.23.55-.36.83A.21.21,0,0,1,176.31,90.87Zm-43.14,0a.2.2,0,0,1-.11,0,.23.23,0,0,1-.09-.31l.44-.79a.23.23,0,0,1,.3-.08.22.22,0,0,1,.09.3l-.44.79A.22.22,0,0,1,133.17,90.84Zm1.11-2a.23.23,0,0,1-.11,0,.22.22,0,0,1-.08-.31l.44-.78a.23.23,0,0,1,.31-.08.21.21,0,0,1,.08.3l-.44.78A.22.22,0,0,1,134.28,88.85Zm42.92-.08-.08,0a.22.22,0,0,1-.12-.29c.11-.28.23-.56.34-.83a.22.22,0,0,1,.29-.13.24.24,0,0,1,.13.3c-.12.27-.23.55-.35.83A.22.22,0,0,1,177.2,88.77Zm-41.78-1.9a.2.2,0,0,1-.11,0,.23.23,0,0,1-.08-.31c.15-.26.3-.52.46-.77a.21.21,0,0,1,.3-.08.22.22,0,0,1,.08.31l-.45.77A.24.24,0,0,1,135.42,86.87Zm42.64-.21-.08,0a.22.22,0,0,1-.12-.29l.33-.84a.22.22,0,1,1,.41.17c-.1.28-.22.56-.33.83A.23.23,0,0,1,178.06,86.66Zm-41.47-1.75a.27.27,0,0,1-.12,0,.22.22,0,0,1-.07-.31l.46-.77a.23.23,0,0,1,.39.24l-.47.76A.23.23,0,0,1,136.59,84.91Zm42.3-.38h-.08a.23.23,0,0,1-.13-.29c.11-.28.21-.56.31-.85a.24.24,0,0,1,.29-.13.23.23,0,0,1,.14.29c-.11.28-.21.56-.32.85A.22.22,0,0,1,178.89,84.53ZM137.78,83a.19.19,0,0,1-.12,0,.22.22,0,0,1-.07-.31l.48-.76a.22.22,0,0,1,.31-.07.23.23,0,0,1,.07.31l-.48.76A.21.21,0,0,1,137.78,83Zm41.9-.58h-.08a.21.21,0,0,1-.13-.29c.1-.28.2-.56.29-.85a.23.23,0,0,1,.29-.13.22.22,0,0,1,.14.28l-.3.85A.23.23,0,0,1,179.68,82.39ZM139,81a.27.27,0,0,1-.12,0,.23.23,0,0,1-.07-.32l.49-.75a.22.22,0,0,1,.31-.07.24.24,0,0,1,.07.31l-.49.76A.24.24,0,0,1,139,81Zm41.42-.8-.07,0a.21.21,0,0,1-.14-.28c.1-.28.19-.57.28-.85a.23.23,0,0,1,.29-.15.23.23,0,0,1,.14.29l-.28.85A.22.22,0,0,1,180.42,80.24Zm-40.18-1.11a.19.19,0,0,1-.12,0,.22.22,0,0,1-.06-.31l.5-.75a.22.22,0,1,1,.37.25l-.5.75A.23.23,0,0,1,140.24,79.13Zm40.89-1.06h-.07a.23.23,0,0,1-.15-.28l.27-.86a.22.22,0,0,1,.28-.15.23.23,0,0,1,.15.28l-.27.86A.22.22,0,0,1,181.13,78.07Zm-39.61-.83a.2.2,0,0,1-.13,0,.22.22,0,0,1-.06-.31l.51-.75a.22.22,0,0,1,.31,0,.22.22,0,0,1,.06.31l-.51.74A.22.22,0,0,1,141.52,77.24Zm40.26-1.36h-.06a.21.21,0,0,1-.15-.27l.24-.87a.23.23,0,0,1,.44.12c-.08.29-.17.58-.25.87A.22.22,0,0,1,181.78,75.88Zm-39-.52a.2.2,0,0,1-.13,0,.22.22,0,0,1-.06-.31l.52-.74a.24.24,0,0,1,.32,0,.23.23,0,0,1,.05.32c-.17.24-.35.48-.52.73A.21.21,0,0,1,142.82,75.36Zm39.57-1.67h-.06a.23.23,0,0,1-.16-.28c.08-.29.15-.58.22-.87a.23.23,0,0,1,.28-.16.22.22,0,0,1,.16.27c-.07.29-.15.58-.22.88A.23.23,0,0,1,182.39,73.69Zm-38.25-.18a.22.22,0,0,1-.13,0,.24.24,0,0,1,0-.32l.53-.72a.22.22,0,0,1,.32-.05.22.22,0,0,1,.05.31l-.54.73A.21.21,0,0,1,144.14,73.51Zm1.36-1.83a.24.24,0,0,1-.14-.05.21.21,0,0,1,0-.31q.27-.37.54-.72a.24.24,0,0,1,.32,0,.23.23,0,0,1,0,.32l-.54.72A.23.23,0,0,1,145.5,71.68Zm37.44-.21h-.06a.22.22,0,0,1-.16-.27c.07-.3.13-.59.2-.88a.21.21,0,0,1,.26-.17.23.23,0,0,1,.17.27c-.06.29-.13.58-.19.88A.23.23,0,0,1,182.94,71.47Zm-36.06-1.61a.25.25,0,0,1-.14,0,.25.25,0,0,1,0-.32l.56-.71a.22.22,0,1,1,.35.28l-.55.71A.23.23,0,0,1,146.88,69.86Zm36.54-.62h0a.23.23,0,0,1-.18-.27c.06-.29.12-.59.17-.88a.23.23,0,0,1,.26-.18.22.22,0,0,1,.18.27c-.05.29-.11.59-.17.88A.22.22,0,0,1,183.42,69.24ZM148.3,68.08a.24.24,0,0,1-.14,0,.23.23,0,0,1,0-.32l.57-.7a.22.22,0,0,1,.35.28l-.57.7A.21.21,0,0,1,148.3,68.08ZM183.83,67h0a.23.23,0,0,1-.19-.26c0-.3.1-.59.14-.89a.23.23,0,0,1,.26-.19.24.24,0,0,1,.19.26c0,.29-.1.59-.14.89A.24.24,0,0,1,183.83,67Zm-34.09-.69a.24.24,0,0,1-.14,0,.22.22,0,0,1,0-.32l.58-.69a.22.22,0,1,1,.34.29l-.58.69A.21.21,0,0,1,149.74,66.31Zm34.42-1.57h0a.21.21,0,0,1-.19-.25c0-.3.07-.59.1-.89a.23.23,0,0,1,.25-.2.24.24,0,0,1,.2.25c0,.3-.07.6-.11.9A.22.22,0,0,1,184.16,64.74Zm-32.94-.17a.27.27,0,0,1-.15,0,.23.23,0,0,1,0-.32l.59-.68a.23.23,0,0,1,.34.3c-.2.22-.39.45-.59.68A.23.23,0,0,1,151.22,64.57Zm1.51-1.7a.22.22,0,0,1-.15-.06.23.23,0,0,1,0-.32l.61-.67a.23.23,0,0,1,.32,0,.22.22,0,0,1,0,.32l-.6.66A.25.25,0,0,1,152.73,62.87Zm31.66-.39h0a.23.23,0,0,1-.2-.25l.06-.89a.22.22,0,0,1,.23-.21.23.23,0,0,1,.22.24q0,.43-.06.9A.23.23,0,0,1,184.39,62.48Zm-30.12-1.29a.22.22,0,0,1-.15-.06.23.23,0,0,1,0-.32l.62-.66a.22.22,0,0,1,.32,0,.23.23,0,0,1,0,.32c-.21.21-.41.43-.62.65A.28.28,0,0,1,154.27,61.19Zm30.23-1h0a.23.23,0,0,1-.22-.23c0-.23,0-.45,0-.67v-.22a.23.23,0,1,1,.45,0v.23c0,.22,0,.45,0,.68A.22.22,0,0,1,184.5,60.2Zm-28.64-.65a.2.2,0,0,1-.16-.07.22.22,0,0,1,0-.32l.64-.63a.22.22,0,0,1,.31.31l-.63.64A.2.2,0,0,1,155.86,59.55Zm1.62-1.6a.24.24,0,0,1-.16-.07.22.22,0,0,1,0-.32l.65-.62a.22.22,0,0,1,.32,0,.22.22,0,0,1,0,.31l-.65.62A.26.26,0,0,1,157.48,58Zm27,0a.21.21,0,0,1-.22-.21c0-.3,0-.6-.07-.89a.23.23,0,0,1,.21-.25.23.23,0,0,1,.24.21c0,.3.05.6.07.9a.23.23,0,0,1-.22.24Zm-25.32-1.53a.28.28,0,0,1-.17-.07.23.23,0,0,1,0-.32c.22-.21.45-.41.67-.6a.22.22,0,0,1,.32,0,.23.23,0,0,1,0,.32l-.67.6A.22.22,0,0,1,159.15,56.39Zm25.1-.74a.22.22,0,0,1-.22-.19l-.15-.88a.21.21,0,0,1,.17-.26.22.22,0,0,1,.27.18c.06.29.11.59.15.89a.23.23,0,0,1-.19.26Zm-23.39-.77a.22.22,0,0,1-.17-.07.22.22,0,0,1,0-.32l.69-.58a.22.22,0,0,1,.32,0,.24.24,0,0,1,0,.32l-.69.57A.21.21,0,0,1,160.86,54.88Zm1.77-1.44a.22.22,0,0,1-.14-.4l.71-.55a.23.23,0,0,1,.32,0,.22.22,0,0,1-.05.31l-.7.55A.3.3,0,0,1,162.63,53.44Zm21.15,0a.22.22,0,0,1-.22-.16q-.12-.43-.27-.84a.23.23,0,0,1,.43-.15c.1.28.19.57.28.87a.24.24,0,0,1-.16.28Zm-19.33-1.35a.26.26,0,0,1-.19-.1.22.22,0,0,1,.05-.31l.74-.52a.23.23,0,1,1,.26.37l-.73.51A.24.24,0,0,1,164.45,52.07ZM183,51.29a.22.22,0,0,1-.2-.12c-.13-.27-.28-.52-.43-.77a.24.24,0,0,1,.07-.31.23.23,0,0,1,.31.08,8.74,8.74,0,0,1,.45.8.22.22,0,0,1-.1.3A.18.18,0,0,1,183,51.29Zm-16.64-.51a.22.22,0,0,1-.12-.41c.26-.17.51-.33.77-.48a.22.22,0,0,1,.23.38l-.76.48A.27.27,0,0,1,166.33,50.78Zm1.95-1.17a.22.22,0,0,1-.1-.42l.79-.43a.24.24,0,0,1,.31.1.23.23,0,0,1-.1.3l-.79.42A.2.2,0,0,1,168.28,49.61Zm13.43-.21a.23.23,0,0,1-.17-.07,7.15,7.15,0,0,0-.61-.62.22.22,0,0,1,0-.32.22.22,0,0,1,.31,0,5.88,5.88,0,0,1,.66.66.22.22,0,0,1,0,.32A.25.25,0,0,1,181.71,49.4Zm-11.39-.82a.23.23,0,0,1-.21-.13.23.23,0,0,1,.12-.3l.83-.36a.24.24,0,0,1,.3.13.22.22,0,0,1-.13.29l-.82.35A.15.15,0,0,1,170.32,48.58ZM180,48l-.11,0a7,7,0,0,0-.78-.37.22.22,0,0,1-.13-.29.23.23,0,0,1,.29-.13,8.09,8.09,0,0,1,.84.4A.22.22,0,0,1,180,48Zm-7.51-.21a.22.22,0,0,1-.21-.16.22.22,0,0,1,.14-.28c.3-.1.59-.18.88-.26a.22.22,0,0,1,.27.16.23.23,0,0,1-.16.28c-.28.07-.56.15-.85.25Zm2.21-.54a.22.22,0,0,1-.22-.19.22.22,0,0,1,.19-.26c.3-.05.61-.08.91-.11a.24.24,0,0,1,.24.21.22.22,0,0,1-.21.24c-.29,0-.58.06-.87.1Zm3.16,0h0a8.08,8.08,0,0,0-.86-.11.23.23,0,0,1,0-.45,8.71,8.71,0,0,1,.91.11.23.23,0,0,1,0,.45Z"/><path d="M100.15,64.3l-.1-.44.88-.2.1.44Zm3.51-.8-.1-.43.88-.2.1.44Zm3.51-.79-.1-.44.88-.19.1.43Zm3.52-.79-.1-.44.87-.2.1.44Zm3.51-.79-.1-.44.88-.2.1.44Zm3.51-.79-.1-.44.88-.2.1.44Zm3.51-.8-.1-.43.88-.2.1.44Zm3.51-.79-.1-.44.88-.19.1.43Zm3.51-.79-.09-.44.87-.2.1.44Zm3.52-.79-.1-.44.88-.2.09.44Zm3.51-.79-.1-.44.88-.2.1.44Zm3.51-.8-.1-.43.88-.2.1.44Zm3.51-.79-.1-.44.88-.19.1.43ZM145.8,54l-.1-.44.88-.2.1.44Zm3.51-.79-.09-.44.87-.2.1.44Zm3.52-.79-.1-.44.88-.2.09.44Zm3.51-.8-.1-.44.88-.19.1.44Zm3.51-.79-.1-.44.88-.19.1.43Zm3.51-.79-.1-.44.88-.2.1.44Zm3.51-.79-.09-.44.87-.2.1.44Zm3.52-.79-.1-.44.88-.2.09.44Zm3.51-.8-.1-.44.88-.19.1.44Zm3.51-.79-.1-.44.34-.07.1.43Z"/><polygon points="117.98 59.94 117.66 59.62 117.84 59.44 119.57 57.41 121.37 55.25 122.8 53.23 123.2 52.41 123.36 51.72 123.3 51.13 123.08 50.53 122.57 49.9 121.81 49.2 120.81 48.43 119.62 47.66 118.25 46.83 116.92 45.98 115.79 45.33 114.3 44.52 114.12 44.34 114.22 44.24 114.22 43.95 114.38 43.95 114.6 44.17 117.16 45.6 118.48 46.45 119.86 47.28 121.06 48.07 122.1 48.86 122.9 49.59 123.49 50.34 123.75 51.05 123.81 51.75 123.62 52.57 123.18 53.46 122.51 54.44 121.73 55.53 117.98 59.94"/><path d="M118,68.84v.75h-1v1.89h-.87V69.59h-3v-.67l3.31-4.74H117v4.66Zm-1.83,0V65.29l-2.51,3.55Z"/><path d="M123.32,70.1l-.5,1.38H118.6v-.2a19.06,19.06,0,0,0,2.62-2.77,3.48,3.48,0,0,0,.76-2,1.57,1.57,0,0,0-.42-1.12,1.31,1.31,0,0,0-1-.43,1.6,1.6,0,0,0-.95.3,1.79,1.79,0,0,0-.62.91h-.19a2.44,2.44,0,0,1,.67-1.5,1.9,1.9,0,0,1,1.37-.52,2,2,0,0,1,1.45.56,1.75,1.75,0,0,1,.58,1.32,2.5,2.5,0,0,1-.25,1.08A6.91,6.91,0,0,1,121.36,69c-.87,1-1.42,1.53-1.64,1.73h1.87a4.93,4.93,0,0,0,.8,0,1.15,1.15,0,0,0,.41-.17,1.06,1.06,0,0,0,.32-.37Z"/><path d="M124.69,62a1.06,1.06,0,0,1,.88.42,1.26,1.26,0,0,1,.29.81,1.6,1.6,0,0,1-.16.66,1.12,1.12,0,0,1-.43.5,1.14,1.14,0,0,1-.61.17,1,1,0,0,1-.86-.44,1.33,1.33,0,0,1-.28-.82,1.47,1.47,0,0,1,.17-.66,1.11,1.11,0,0,1,1-.64Zm-.08.17a.6.6,0,0,0-.28.08.69.69,0,0,0-.23.29,1.4,1.4,0,0,0-.08.54,1.85,1.85,0,0,0,.2.91.64.64,0,0,0,.56.38.51.51,0,0,0,.42-.21,1.19,1.19,0,0,0,.17-.72,1.71,1.71,0,0,0-.28-1A.58.58,0,0,0,124.61,62.14Z"/><path d="M58.93,63.8a.2.2,0,0,1,.07.11s0,.05-.1.08c-.25.07-.32.19-.37.5a14.66,14.66,0,0,1-.76,2.87c.32.39.77,1,1,1.36a1.27,1.27,0,0,1,.24.69c0,.26-.12.43-.28.43s-.25,0-.49-.76a5,5,0,0,0-.67-1.23A9.53,9.53,0,0,1,55,71.32l-.11-.09a13,13,0,0,0,2.37-3.81,21,21,0,0,0-1.65-2l.11-.11A15.34,15.34,0,0,1,57.43,67a12.53,12.53,0,0,0,.59-3l-1.9.07a1.81,1.81,0,0,0-.66.12l-.28-.38a5.27,5.27,0,0,0,.79,0l2-.06.37-.51Zm3.22.76c.06,0,.1,0,.1.08s0,0-.08.09l-.25.22a17.79,17.79,0,0,1-.45,3.53,6.14,6.14,0,0,1-3.57,3.87l-.1-.13a6.59,6.59,0,0,0,3.38-4.39,17.26,17.26,0,0,0,.2-3c0-.25,0-.5,0-.72Zm2-1.29a.1.1,0,0,1,0,.08s0,0,0,.06l-.4.22v2.79c0,.82,0,1.27,0,1.76v.06c0,.14,0,.18-.26.27a.85.85,0,0,1-.22.07c-.07,0-.09-.06-.09-.17v-.12c0-.39,0-.71,0-1.32V63.41h-3.1v3.82c0,.14,0,.82,0,1s0,.15-.28.28a.38.38,0,0,1-.17.06c-.07,0-.09-.06-.09-.2v-.12c0-.38,0-.82,0-1.21V64.08c0-.4,0-1.06,0-1.42l.64.51h2.82l.32-.48Zm.42,6c0,.2,0,.37,0,.53,0,.74.09.9.32,1a.12.12,0,0,1,.08.11A.2.2,0,0,1,65,71c-.21.59-.57.8-1.55.8-1.61,0-1.66-.07-1.66-1V68.27a7.64,7.64,0,0,0,0-.77l.76.36c.05,0,.07,0,.07.07s0,0-.07.07l-.24.19v2.45c0,.69,0,.71,1.17.71.79,0,.88,0,1-2.09Z"/><path d="M70.83,65.24s.07.05.07.07-.05.07-.13.1a.79.79,0,0,0-.42.4,8.66,8.66,0,0,1-4.64,4.12l0-.14A8.86,8.86,0,0,0,70,65.33H68.33a11.53,11.53,0,0,1-2.28,2.5L66,67.72a14,14,0,0,0,2.45-3.5l.61.35s.07.05.07.07,0,0-.09,0c-.22,0-.24.06-.5.4H70l.21-.27Zm-1.6,4.94c.06,0,.09.06.09.08s0,0-.1,0a1,1,0,0,0-.57.27,19.66,19.66,0,0,1-2.55,1.8l0-.14a14.3,14.3,0,0,0,2.54-2.47Zm6-6.5c.06.06.11.09.11.11s0,0-.12,0c-.36.05-.62.23-1.09.84L74,64.6l.34-.73H67.15c0,.64-.19,1.33-.75,1.33-.15,0-.32-.09-.32-.25a.3.3,0,0,1,.18-.26c.29-.14.56-.61.7-1.44h.13a2.52,2.52,0,0,1,0,.37H74.2l.34-.47Zm-7.87,3.11c.58.44.72.63.72.87s-.16.43-.29.43a.21.21,0,0,1-.21-.19,2,2,0,0,0-.29-1Zm6.11,2.33a.21.21,0,0,1,.06.08s0,0-.1,0H71.08v2.15a1,1,0,0,1-.7,1.11l-.06,0s0,0-.06-.08c0-.32-.21-.56-1.22-.85l0-.15a7.44,7.44,0,0,0,1.22.16c.27,0,.29-.07.29-.2V69.24H69a2.5,2.5,0,0,0-.69.1L68,69c.25,0,.52,0,.76,0h3.69l.38-.51ZM68.1,65.83c.47.17,1,.39,1,.78,0,.18-.13.36-.25.36a.21.21,0,0,1-.16-.13,1.73,1.73,0,0,0-.62-.89Zm4.21,2c0,.06.08.09.08.12s0,0-.13,0H70.07a1.69,1.69,0,0,0-.62.09l-.29-.37a4.89,4.89,0,0,0,.75.05h1.54l.37-.49Zm-2.56-5.62c1,.32,1.29.62,1.29,1,0,.21-.12.41-.28.41s-.23-.11-.27-.27a1.92,1.92,0,0,0-.78-1Zm6.1,6.31c-.59,0-.75.18-.94.48a.09.09,0,0,1-.06,0l-.1,0a6.45,6.45,0,0,1-3.91-4.74l.14,0a8.78,8.78,0,0,0,.33.87h2l.27-.39.63.47s.08.08.08.1,0,0-.11.07c-.32.07-.57.22-1.76,1.54a5.18,5.18,0,0,0,3.39,1.5Zm-2.52-3.19H71.42a5.54,5.54,0,0,0,.94,1.43ZM72,69.91a5.54,5.54,0,0,1,2.59,1.14.68.68,0,0,1,.14.41c0,.2-.11.36-.24.36s-.2,0-.33-.2A5.85,5.85,0,0,0,71.93,70Z"/><path d="M86.53,66a.3.3,0,0,1,.07.11s0,.05-.13.05H82.16c-.67.56-1.35,1.09-2,1.58h3.49l.35-.48.66.53s.07.06.07.08,0,.06-.08.09l-.3.18v2.6c0,.19,0,1.19,0,1.24s0,.19-.27.29a1,1,0,0,1-.2.07c-.07,0-.08-.06-.08-.15v-.76H79.63V72c0,.16,0,.2-.2.27a.53.53,0,0,1-.23.07c-.07,0-.1-.07-.1-.25s0-1.36,0-1.45V68.41a19.86,19.86,0,0,1-2.6,1.48l-.08-.15c1-.6,1.87-1.19,2.68-1.75l0-.69.49.36c.71-.52,1.35-1,1.92-1.51H77.39a2.74,2.74,0,0,0-.73.1l-.3-.38a7.09,7.09,0,0,0,.79,0h3.52V64.16H78.73a2.08,2.08,0,0,0-.69.11l-.3-.39a6.56,6.56,0,0,0,.76,0h2.17v-.66c0-.42,0-.68,0-1.06l.72.3c.07,0,.1.06.1.09s0,0,0,.08l-.24.2v1.05h1l.38-.55.62.67a.1.1,0,0,1,0,.08s0,0-.07,0h-2v1.75h.62a20,20,0,0,0,2.87-3l.62.45s.07.05.07.08,0,0-.08,0c-.32.08-.36.11-.49.24-.74.74-1.53,1.48-2.34,2.17h2.92l.49-.65ZM83.8,69.41V68h-4a1.53,1.53,0,0,1-.16.11v1.33Zm0,1.77V69.65H79.63v1.53Z"/><path d="M158.46,83.08a.18.18,0,0,1,.07.09s0,0-.1,0H155.7v3.11c0,.54,0,1,0,1.48v.08c0,.15,0,.19-.26.29a.65.65,0,0,1-.2.06c-.09,0-.11-.07-.11-.26v-.08c0-.63,0-1.12,0-1.59V84a14,14,0,0,1-2.95,3.51l-.08-.12a17.89,17.89,0,0,0,3-4.2h-1.78a2.15,2.15,0,0,0-.73.12l-.3-.4c.27,0,.54,0,.79,0h2c0-.45,0-.79,0-1.18l.78.36s.05,0,.05,0-.18.14-.29.22V83h1.58l.46-.6Zm-.1-4.3s0,0,0,0,0,0-.06,0l-.25,0a2.14,2.14,0,0,0-.46.06,46,46,0,0,1-5,.83v-.15a34.62,34.62,0,0,0,5.26-1.35Zm-5.28,1.29c.9.64,1.37,1.16,1.37,1.52s-.19.55-.35.55-.17-.06-.24-.33a4.36,4.36,0,0,0-.85-1.66Zm1.82-.48c.82.55,1.13.91,1.13,1.31a.47.47,0,0,1-.37.5c-.15,0-.23-.11-.24-.41a2.45,2.45,0,0,0-.63-1.34Zm1,4.56c1.3.51,2,.93,2,1.53,0,.23-.11.41-.21.41s-.2-.06-.38-.42a5.05,5.05,0,0,0-1.51-1.43Zm6.18.51s.07.07.07.09,0,0-.07,0l-.14,0a.56.56,0,0,0-.38.17,11.26,11.26,0,0,1-5.39,3.42l0-.15a11.32,11.32,0,0,0,5.38-4.17Zm-3.78-4.82s0,0,0,0,0,0-.06,0c-.23,0-.29.07-1.6,2.16l-.12-.07c.29-.61.85-2,1-2.6Zm3.38,2a.12.12,0,0,1,.06.09s0,0-.06,0h-.12a.6.6,0,0,0-.39.16,17.68,17.68,0,0,1-3.27,2.71l-.1-.13a19.54,19.54,0,0,0,3.3-3.42Zm-.2-3a.18.18,0,0,1,.05.07s0,0-.15,0a.57.57,0,0,0-.36.16,18.87,18.87,0,0,1-3,2.72l-.1-.11a16.47,16.47,0,0,0,2.94-3.38Z"/><path d="M166.34,85a4.25,4.25,0,0,1,1.34,1.26,1,1,0,0,1,.1.43c0,.31-.16.55-.34.55s-.24-.1-.28-.45a2.61,2.61,0,0,0-.06-.27l-3,.86a1.62,1.62,0,0,0-.77.39s-.05,0-.07,0a.1.1,0,0,1-.07,0l-.34-.61,2.18-.42V84h-1v.5c0,.2-.33.31-.41.31s-.08,0-.08-.16,0-.1,0-.16c0-.33,0-.83,0-1.23v-2c0-.23,0-.69,0-1l.64.46H165V80c0-.44,0-1.18,0-1.57l.74.35c.08,0,.12.08.12.11s0,0-.34.26v1.6h1l.31-.49.67.5c.06,0,.09.06.09.1s0,0-.08.07l-.36.22v1.78c0,.59,0,1,0,1.35v.09c0,.15,0,.19-.23.27a.77.77,0,0,1-.21.06c-.06,0-.07,0-.07-.13V84h-1.16v2.61l1.53-.3a3.59,3.59,0,0,0-.79-1.25ZM165,83.8V81h-1v2.8Zm1.64,0V81h-1.16v2.8Zm6.15,3.59c.09.09.13.14.13.19s-.07,0-.19,0h-4.58a2.31,2.31,0,0,0-.72.11l-.3-.39c.26,0,.54,0,.79,0h1.81V80h-1.12a2.73,2.73,0,0,0-.73.11l-.3-.39c.26,0,.54,0,.79,0h3.11l.42-.57.58.59a.47.47,0,0,1,.11.16s-.06.05-.18.05h-2.17v7.38h1.5l.48-.59Z"/><path d="M97.76,67.42a1.07,1.07,0,1,1,1.07-1.06A1.07,1.07,0,0,1,97.76,67.42Zm0-1.68a.62.62,0,0,0,0,1.23.62.62,0,1,0,0-1.23Z"/><path d="M67.73,32s.06.07.06.1,0,0-.09.07c-.22.07-.28.18-.33.46a13.81,13.81,0,0,1-.7,2.63c.29.35.71.94.91,1.25a1.11,1.11,0,0,1,.22.63c0,.24-.11.4-.26.4s-.22,0-.44-.7a4.8,4.8,0,0,0-.61-1.13,8.81,8.81,0,0,1-2.36,3.18l-.1-.08a12,12,0,0,0,2.17-3.49,19,19,0,0,0-1.51-1.81l.1-.1a14.57,14.57,0,0,1,1.57,1.48,12,12,0,0,0,.54-2.77l-1.74.06a1.75,1.75,0,0,0-.61.11l-.25-.35A4.34,4.34,0,0,0,65,32l1.79,0,.35-.47Zm3,.69c.06,0,.09.05.09.08s0,0-.07.08l-.22.2a16.43,16.43,0,0,1-.42,3.24,5.63,5.63,0,0,1-3.27,3.54l-.1-.12a6,6,0,0,0,3.1-4A15.53,15.53,0,0,0,70,33c0-.23,0-.46,0-.66Zm1.85-1.18a.09.09,0,0,1,0,.07s0,0,0,.06l-.37.2V34.4c0,.75,0,1.16,0,1.61v.06c0,.13,0,.17-.24.25a.62.62,0,0,1-.21.06c-.06,0-.08-.05-.08-.15v-.12c0-.36,0-.64,0-1.21V31.64H68.84v3.5c0,.13,0,.75,0,.9s0,.14-.26.26a.29.29,0,0,1-.15.06c-.06,0-.08-.06-.08-.19v-.11c0-.35,0-.75,0-1.11V32.26c0-.37,0-1,0-1.31l.58.47h2.59l.29-.44ZM72.91,37c0,.19,0,.35,0,.49,0,.68.08.83.3.95a.11.11,0,0,1,.07.1.07.07,0,0,1,0,.05c-.19.55-.53.74-1.42.74-1.47,0-1.52-.06-1.52-.89V36.1a6.37,6.37,0,0,0,0-.71l.7.33s.06,0,.06.06,0,0-.06.07l-.23.17v2.25c0,.63,0,.65,1.08.65.73,0,.81-.05.92-1.92Z"/><path d="M78.64,33.32s.06,0,.06.07,0,.06-.12.09a.67.67,0,0,0-.38.36A7.91,7.91,0,0,1,74,37.61l0-.12a8.14,8.14,0,0,0,4-4.09H76.35a10.29,10.29,0,0,1-2.09,2.29l-.08-.1a12.69,12.69,0,0,0,2.24-3.2l.56.31s.07,0,.07.07,0,0-.09,0-.22.06-.46.37h1.38l.19-.25Zm-1.46,4.52s.08.06.08.08l-.09,0a.87.87,0,0,0-.53.25,17.73,17.73,0,0,1-2.33,1.64l0-.13a12.83,12.83,0,0,0,2.32-2.25Zm5.47-6c.06.05.1.08.1.1s0,0-.11,0c-.32,0-.56.21-1,.76l-.12-.06.32-.67H75.27c0,.59-.17,1.22-.69,1.22-.14,0-.29-.08-.29-.23a.3.3,0,0,1,.16-.24c.27-.13.52-.55.65-1.32h.12c0,.12,0,.23,0,.34h6.47l.31-.42Zm-7.21,2.85c.53.4.66.58.66.8s-.14.39-.26.39a.2.2,0,0,1-.2-.18,1.85,1.85,0,0,0-.26-.93ZM81,36.87a.21.21,0,0,1,.06.08s0,0-.09,0H78.87v2a.91.91,0,0,1-.64,1l0,0s-.05,0-.06-.07c0-.3-.19-.51-1.12-.78L77,39a6.79,6.79,0,0,0,1.12.15c.25,0,.27-.07.27-.19V37H77a2,2,0,0,0-.63.1l-.27-.36c.23,0,.47,0,.69,0h3.39l.35-.46Zm-4.9-3c.43.16.91.36.91.71,0,.17-.12.33-.23.33a.18.18,0,0,1-.15-.12A1.64,1.64,0,0,0,76.1,34ZM80,35.7s.07.08.07.11,0,0-.12,0h-2a1.58,1.58,0,0,0-.56.08l-.27-.34a5.43,5.43,0,0,0,.69,0h1.41l.33-.44Zm-2.35-5.15c.95.29,1.18.57,1.18.9s-.11.37-.26.37-.2-.1-.24-.25a1.75,1.75,0,0,0-.72-.92Zm5.59,5.79c-.54,0-.68.16-.86.43a.05.05,0,0,1,0,0l-.09,0a5.9,5.9,0,0,1-3.59-4.34l.13,0c.09.27.19.54.3.79H81l.25-.36.57.44s.08.07.08.09,0,0-.1.06c-.29.07-.52.2-1.61,1.41a4.76,4.76,0,0,0,3.1,1.38Zm-2.31-2.93H79.18A5.31,5.31,0,0,0,80,34.72Zm-1.24,4.18a5.24,5.24,0,0,1,2.38,1,.65.65,0,0,1,.13.38c0,.18-.1.33-.22.33s-.19,0-.31-.18a5.34,5.34,0,0,0-2-1.46Z"/><path d="M93,34a.22.22,0,0,1,.07.1s0,0-.12,0H89c-.62.51-1.24,1-1.87,1.45h3.2l.31-.44.62.48s.06.06.06.08,0,.05-.07.08L91,36v2.38c0,.18,0,1.09,0,1.14s0,.17-.25.26l-.19.06c-.06,0-.07-.05-.07-.13V39H86.71v.58c0,.13,0,.17-.19.24a.57.57,0,0,1-.21.06c-.06,0-.08-.06-.08-.23s0-1.24,0-1.32V36.23a20.9,20.9,0,0,1-2.38,1.35l-.08-.13c.9-.56,1.71-1.09,2.46-1.61l0-.63.44.33c.66-.48,1.24-.95,1.76-1.39H84.65a2.23,2.23,0,0,0-.66.1l-.28-.36a6,6,0,0,0,.72,0h3.23v-1.6H85.88a2,2,0,0,0-.63.1L85,32.07a5.43,5.43,0,0,0,.69,0h2V31.5c0-.38,0-.62,0-1l.67.28s.08.05.08.08,0,0,0,.07l-.22.19v1h.94l.34-.51.57.62s0,.05,0,.07,0,0-.07,0H88.12v1.6h.57a18.74,18.74,0,0,0,2.63-2.74l.57.41s.06,0,.06.07,0,0-.07,0c-.3.08-.34.1-.46.22-.67.68-1.39,1.36-2.13,2H92l.45-.59Zm-2.5,3.13V35.82H86.85l-.14.1v1.22Zm0,1.62v-1.4H86.71v1.4Z"/><path d="M102.1,33.48s.06,0,.06.06,0,0-.06.07l-.32.26v4.87c0,.67-.08.81-.69,1.11l0,0s-.06,0-.08-.08c-.1-.3-.22-.45-1.18-.75l0-.13a6.47,6.47,0,0,0,1.14.15c.32,0,.35-.1.35-.26V37H98.78v1.46c0,.16,0,1,0,1s0,.14-.22.24a.69.69,0,0,1-.26.11s0,0,0-.1v-.06c0-.33,0-.64,0-1.18V37H95.9a3.79,3.79,0,0,1-1.74,3l-.08-.09A4.94,4.94,0,0,0,95.55,36c0-.32,0-1.26,0-2.53A13.64,13.64,0,0,1,94,34.85l-.11-.13a21.57,21.57,0,0,0,3.4-4.17l.67.37c.05,0,.07,0,.07.06s0,0-.09,0-.32.11-.83.71H99.5l.33-.36.65.57s.08.08.08.11,0,0-.14,0c-.43,0-.84.32-1.7,1.37h2.41l.29-.47Zm-2.6-1.54H96.93c-.41.49-.79.91-1.17,1.3l.39.22h2.33Zm-1.19,4.8v-1.4H96c0,.54-.06,1-.11,1.4Zm0-1.62V33.68H96.08l0,1.44Zm3,0V33.68H98.78v1.44Zm0,1.62v-1.4H98.78v1.4Z"/><path d="M112.59,32a.22.22,0,0,1,.07.1s0,0-.11,0h-7.19v2.19c0,2.42-.26,4.39-1.71,5.5l-.08-.09c1-1.35,1.34-2.27,1.34-5.34V32.63c0-.37,0-.82,0-1.16l.66.49h6l.44-.58Zm.34,7.25a.92.92,0,0,0-.89.45.08.08,0,0,1-.08,0,11.67,11.67,0,0,1-3.15-1.09A7.9,7.9,0,0,1,104.63,40v-.15a9.23,9.23,0,0,0,3.84-1.38,4.29,4.29,0,0,1-1.25-1.91h-.34a1.2,1.2,0,0,0-.52.1l-.27-.36c.24,0,.49,0,.72,0H110l.31-.37.58.45s0,0,0,.07,0,0-.08.06a.7.7,0,0,0-.37.26,7.72,7.72,0,0,1-1.37,1.64,8.61,8.61,0,0,0,3.77.71Zm-.32-5.58s.08.07.08.09,0,0-.1,0h-2.25v.65c0,.14,0,.94,0,.94s0,.13-.21.2l-.2,0c-.07,0-.07,0-.07-.29h-2.11c0,.21,0,.24-.2.32a.79.79,0,0,1-.2.07c-.06,0-.07,0-.07-.13s0-.71,0-.84v-1h-.63A1.94,1.94,0,0,0,106,34l-.28-.36c.25,0,.49,0,.72,0h.85v-.4c0-.36,0-.64,0-.91l.73.33s0,0,0,.06a.1.1,0,0,1,0,.07l-.24.18v.67h2.11v-.38a9.54,9.54,0,0,0,0-1l.68.3s.08,0,.08.07,0,.06-.27.24v.73h1.21l.38-.49Zm-5.18,2.82a3.8,3.8,0,0,0,1.34,1.67,4.31,4.31,0,0,0,1.31-1.67Zm2.45-1.36V33.84h-2.11v1.33Zm-2.06-4.51a2.27,2.27,0,0,1,1.14.41.46.46,0,0,1,.12.33c0,.21-.11.44-.28.44s-.2-.14-.28-.36a2,2,0,0,0-.74-.73Z"/></g></g></svg>