<svg xmlns="http://www.w3.org/2000/svg" width="325"  viewBox="0 0 181.12 97.14"><defs><style>.cls-1{fill:#66f;}.cls-1,.cls-2,.cls-5{fill-rule:evenodd;}.cls-2{fill:#ffeb80;}.cls-3{fill:#ffff80;}.cls-4{fill:none;stroke:#000;stroke-miterlimit:10;stroke-width:0.31px;}.cls-5{fill:#bfbfbf;}</style></defs><g id="图层_2" data-name="图层 2"><g id="图片"><path class="cls-1" d="M152.6,44.92a.9.9,0,1,1-1.8,0,.9.9,0,0,1,1.8,0"/><polyline class="cls-2" points="18.22 15.19 22.72 10.69 25.72 16.39 33.82 15.48 32.62 21.79 40.12 23.29 35.62 28.98 40.42 33.78 33.52 36.78 34.72 43.69 29.02 42.19 27.22 48.19 22.42 42.48 15.52 46.38 13.72 40.98 5.92 41.88 9.22 34.38 0.52 27.18 9.52 25.68 8.02 19.09 13.72 19.09 13.72 11.29 18.22 15.48"/><path d="M27.32,48.65l-4.95-5.88-7,3.94-1.83-5.48-8,.92L9,34.45,0,27,9.25,25.5,7.74,18.86H13.5V10.77l4.6,4.3,0,0,4.72-4.72,3.07,5.83,8.25-.91-1.21,6.38,7.64,1.53L35.92,29l4.9,4.89-7,3.06L35,44l-5.83-1.53ZM22.48,42.2l4.65,5.52,1.74-5.81,5.57,1.47-1.17-6.73L40,33.71,35.32,29l4.4-5.57L32.36,22l1.19-6.22-7.95.88-2.93-5.56-4.29,4.28h0l-.3.32L14,11.8v7.51H8.31L9.8,25.87,1.05,27.33l8.45,7-3.21,7.3,7.59-.88.06.17,1.71,5.14Z"/><path class="cls-1" d="M158.36,16.36a.9.9,0,0,1-1.8,0,.9.9,0,0,1,1.8,0"/><path class="cls-1" d="M119.36,43.12a.9.9,0,1,1-1.8,0,.9.9,0,0,1,1.8,0"/><path class="cls-1" d="M114.56,41.32a.9.9,0,0,1-1.8,0,.9.9,0,0,1,1.8,0"/><path class="cls-1" d="M118.76,37.72a.9.9,0,1,1-1.8,0,.9.9,0,0,1,1.8,0"/><path class="cls-1" d="M111.56,35.92a.9.9,0,0,1-1.8,0,.9.9,0,0,1,1.8,0"/><path class="cls-1" d="M126.56,46.12a.9.9,0,1,1-1.8,0,.9.9,0,0,1,1.8,0"/><path class="cls-1" d="M127.16,41.56a.9.9,0,1,1-1.8,0,.9.9,0,0,1,1.8,0"/><path class="cls-1" d="M124.76,36.16a.9.9,0,0,1-1.8,0,.9.9,0,0,1,1.8,0"/><path class="cls-1" d="M114.2,28.12a.9.9,0,0,1-1.8,0,.9.9,0,0,1,1.8,0"/><path class="cls-1" d="M111.56,20.56a.9.9,0,0,1-1.8,0,.9.9,0,0,1,1.8,0"/><path class="cls-1" d="M116.6,15.76a.9.9,0,1,1-1.8,0,.9.9,0,1,1,1.8,0"/><path class="cls-1" d="M120,19.72a.9.9,0,1,1-1.8,0,.9.9,0,1,1,1.8,0"/><path class="cls-1" d="M123.2,22.36a.9.9,0,0,1-1.8,0,.9.9,0,0,1,1.8,0"/><path class="cls-1" d="M125,20a.9.9,0,0,1-1.8,0,.9.9,0,0,1,1.8,0"/><path class="cls-1" d="M132,18.16a.9.9,0,1,1-1.8,0,.9.9,0,0,1,1.8,0"/><path class="cls-1" d="M129.2,15.52a.9.9,0,1,1-1.8,0,.9.9,0,1,1,1.8,0"/><path class="cls-1" d="M135.56,14.56a.9.9,0,0,1-1.8,0,.9.9,0,0,1,1.8,0"/><path class="cls-1" d="M136.4,9.76a.9.9,0,1,1-1.8,0,.9.9,0,0,1,1.8,0"/><path class="cls-1" d="M141.8,12.16a.9.9,0,0,1-1.8,0,.9.9,0,0,1,1.8,0"/><path class="cls-1" d="M137,22.12a.9.9,0,1,1-1.8,0,.9.9,0,0,1,1.8,0"/><path class="cls-1" d="M138.2,16.36a.9.9,0,1,1-1.8,0,.9.9,0,0,1,1.8,0"/><path class="cls-1" d="M148.76,16.72a.9.9,0,1,1-1.8,0,.9.9,0,1,1,1.8,0"/><path class="cls-1" d="M146.6,12.52a.9.9,0,0,1-1.8,0,.9.9,0,0,1,1.8,0"/><path class="cls-1" d="M158,23.32a.9.9,0,0,1-1.8,0,.9.9,0,0,1,1.8,0"/><path class="cls-1" d="M139.16,37.36a.9.9,0,1,1-1.8,0,.9.9,0,0,1,1.8,0"/><path class="cls-1" d="M154.4,20.32a.9.9,0,1,1-1.8,0,.9.9,0,1,1,1.8,0"/><path class="cls-1" d="M162.56,29.56a.9.9,0,0,1-1.8,0,.9.9,0,0,1,1.8,0"/><path class="cls-1" d="M156.8,31.36a.9.9,0,1,1-1.8,0,.9.9,0,0,1,1.8,0"/><path class="cls-1" d="M154.4,34.12a.9.9,0,1,1-1.8,0,.9.9,0,0,1,1.8,0"/><path class="cls-1" d="M162.8,36.52a.9.9,0,1,1-1.8,0,.9.9,0,0,1,1.8,0"/><path class="cls-1" d="M159.8,39.52a.9.9,0,1,1-1.8,0,.9.9,0,0,1,1.8,0"/><path class="cls-1" d="M152.12,38.8a.9.9,0,0,1-1.8,0,.9.9,0,0,1,1.8,0"/><path class="cls-1" d="M148.4,38.32a.9.9,0,1,1-1.8,0,.9.9,0,0,1,1.8,0"/><path class="cls-1" d="M147.56,44.92a.9.9,0,1,1-1.8,0,.9.9,0,0,1,1.8,0"/><path class="cls-1" d="M150.2,31.12a.9.9,0,1,1-1.8,0,.9.9,0,1,1,1.8,0"/><path class="cls-1" d="M142.4,42.52a.9.9,0,1,1-1.8,0,.9.9,0,1,1,1.8,0"/><path class="cls-1" d="M134,33.16a.9.9,0,0,1-1.8,0,.9.9,0,0,1,1.8,0"/><path class="cls-1" d="M131,37.36a.9.9,0,1,1-1.8,0,.9.9,0,0,1,1.8,0"/><path class="cls-1" d="M130.16,22.72a.9.9,0,0,1-1.8,0,.9.9,0,0,1,1.8,0"/><path class="cls-1" d="M136.76,45.16a.9.9,0,1,1-1.8,0,.9.9,0,0,1,1.8,0"/><path class="cls-1" d="M133.4,44.56a.9.9,0,1,1-1.8,0,.9.9,0,1,1,1.8,0"/><path class="cls-1" d="M131.36,41.92a.9.9,0,1,1-1.8,0,.9.9,0,0,1,1.8,0"/><path class="cls-1" d="M148.16,22.12a.9.9,0,1,1-1.8,0,.9.9,0,0,1,1.8,0"/><path class="cls-1" d="M138.56,24.16a.9.9,0,1,1-1.8,0,.9.9,0,0,1,1.8,0"/><path class="cls-1" d="M143,19.36a.9.9,0,0,1-1.8,0,.9.9,0,0,1,1.8,0"/><path class="cls-1" d="M129.56,27.76a.9.9,0,0,1-1.8,0,.9.9,0,0,1,1.8,0"/><path class="cls-1" d="M121.76,30.52a.9.9,0,0,1-1.8,0,.9.9,0,0,1,1.8,0"/><circle class="cls-3" cx="21.8" cy="29.86" r="10.68" transform="translate(-12.27 44.22) rotate(-76.72)"/><path d="M21.8,40.77A10.91,10.91,0,1,1,32.71,29.86,10.91,10.91,0,0,1,21.8,40.77Zm0-21.36A10.46,10.46,0,1,0,32.26,29.86,10.46,10.46,0,0,0,21.8,19.41Z"/><path d="M129.64,23.81a.27.27,0,0,1,.11.16s0,.06-.15.06H125v1.56h2.89l.35-.54.69.47c.08.06.13.1.13.13s0,.08-.1.12l-.31.25v5.09c0,.94-.15,1.15-.8,1.38l-.12,0c-.07,0-.08,0-.09-.14,0-.32-.34-.6-1.38-.82l0-.16a8.87,8.87,0,0,0,1.46.22c.35,0,.4-.12.4-.37V25.83H125v4.29c0,.82,0,1.51,0,1.9v.07c0,.15,0,.2-.26.29a.49.49,0,0,1-.22.07c-.07,0-.09-.07-.09-.24s0-1.78,0-2.12V25.83h-3v6.28c0,.13,0,.17-.23.27a.59.59,0,0,1-.25.1c-.06,0-.1,0-.1-.2s0-.11,0-.18c0-.59.06-1.22.06-2.06V26.57c0-.44,0-1.16,0-1.57l.73.59h2.8V24h-3.72a2.31,2.31,0,0,0-.72.12l-.31-.4c.27,0,.55,0,.79,0h7.92l.51-.69Zm-7.32,2.72c.43.21,1.17.6,1.17,1.13,0,.22-.08.45-.24.45s-.2-.07-.26-.36a2.51,2.51,0,0,0-.74-1.12Zm0,2.21c.68.34,1.14.75,1.14,1.21,0,.24-.09.47-.29.47s-.25-.08-.27-.42a1.92,1.92,0,0,0-.65-1.15Zm3.46-2.1c.76.24,1.39.6,1.39,1.14,0,.22-.11.37-.25.37s-.27-.1-.35-.41a2.2,2.2,0,0,0-.85-1Zm0,2.18a2.48,2.48,0,0,1,1.14.77.75.75,0,0,1,.13.4.34.34,0,0,1-.29.38c-.13,0-.24-.08-.29-.34a2.22,2.22,0,0,0-.75-1.09Z"/><path class="cls-4" d="M129.64,23.81a.27.27,0,0,1,.11.16s0,.06-.15.06H125v1.56h2.89l.35-.54.69.47c.08.06.13.1.13.13s0,.08-.1.12l-.31.25v5.09c0,.94-.15,1.15-.8,1.38l-.12,0c-.07,0-.08,0-.09-.14,0-.32-.34-.6-1.38-.82l0-.16a8.87,8.87,0,0,0,1.46.22c.35,0,.4-.12.4-.37V25.83H125v4.29c0,.82,0,1.51,0,1.9v.07c0,.15,0,.2-.26.29a.49.49,0,0,1-.22.07c-.07,0-.09-.07-.09-.24s0-1.78,0-2.12V25.83h-3v6.28c0,.13,0,.17-.23.27a.59.59,0,0,1-.25.1c-.06,0-.1,0-.1-.2s0-.11,0-.18c0-.59.06-1.22.06-2.06V26.57c0-.44,0-1.16,0-1.57l.73.59h2.8V24h-3.72a2.31,2.31,0,0,0-.72.12l-.31-.4c.27,0,.55,0,.79,0h7.92l.51-.69Zm-7.32,2.72c.43.21,1.17.6,1.17,1.13,0,.22-.08.45-.24.45s-.2-.07-.26-.36a2.51,2.51,0,0,0-.74-1.12Zm0,2.21c.68.34,1.14.75,1.14,1.21,0,.24-.09.47-.29.47s-.25-.08-.27-.42a1.92,1.92,0,0,0-.65-1.15Zm3.46-2.1c.76.24,1.39.6,1.39,1.14,0,.22-.11.37-.25.37s-.27-.1-.35-.41a2.2,2.2,0,0,0-.85-1Zm0,2.18a2.48,2.48,0,0,1,1.14.77.75.75,0,0,1,.13.4.34.34,0,0,1-.29.38c-.13,0-.24-.08-.29-.34a2.22,2.22,0,0,0-.75-1.09Z"/><path d="M130.74,25.7c1.08.25,1.61.64,1.61,1s-.16.48-.3.48-.21-.07-.26-.24a1.9,1.9,0,0,0-1.09-1.11Zm3-.76-1.14,3.84a5.6,5.6,0,0,0-.22,1.57,4.61,4.61,0,0,0,.11,1,2.86,2.86,0,0,1,.11.71c0,.38-.15.5-.36.5s-.36-.19-.36-.62c0-.18.07-1,.07-1.24,0-.45-.06-.8-.23-.87a3.11,3.11,0,0,0-1.06-.26l0-.16c1,0,1.22-.06,1.45-.65l1.46-3.92Zm-2.48-1.75c.74.19,1.68.57,1.68,1,0,.22-.15.5-.28.5s-.22-.05-.32-.3-.32-.64-1.12-1.11Zm9.31,1q.09.09.09.12s0,0-.12,0h-2.32l.46.39a.11.11,0,0,1,.05.07s0,.05-.08.06c-.28.06-.32.08-1,1.2h1.47l.36-.52.62.51c.05.05.08.08.08.11s0,.05-.09.09l-.32.18v5.5c0,.54-.05.6-.69.88l-.07,0s-.06,0-.07-.08c-.1-.38-.27-.51-1.29-.71l0-.17c.57.06.94.1,1.18.1s.42-.09.42-.33V26.29h-4.82v4.45c0,.62,0,1.22,0,1.59v.06c0,.11,0,.15-.26.22a1,1,0,0,1-.21.06c-.08,0-.1-.06-.1-.17s0-1.49,0-1.77v-4c0-.33,0-.88-.05-1.19l.71.49h2.75a9.34,9.34,0,0,0,.75-1.72h-3.68a2.22,2.22,0,0,0-.66.11l-.27-.39a5.65,5.65,0,0,0,.71.05h5.31l.41-.59ZM139,27.66a.29.29,0,0,1,.05.1s0,0-.1,0h-1.86v1.14h.51l.24-.39.56.4c.07,0,.09.07.09.1s0,.06-.26.25v1c0,.12,0,.71,0,.74s0,.19-.27.29l-.17.05c-.07,0-.08,0-.08-.13v-.41H136v.3c0,.13,0,.17-.2.25a.85.85,0,0,1-.22.07c-.07,0-.09-.05-.09-.16s0-.81,0-1v-.63c0-.26,0-.78,0-1.12l.62.34h.52V27.79h-1.16a2.28,2.28,0,0,0-.66.11l-.27-.38c.24,0,.49.05.72.05h1.37c0-.43,0-.89,0-1.27l.73.33s.05,0,.05.05,0,0-.25.17v.72h1l.35-.47Zm-3.85-3.23c.3.16,1.1.61,1.1,1.15,0,.24-.15.44-.3.44s-.2-.09-.24-.27a2.11,2.11,0,0,0-.63-1.2Zm.77-1.82c.5.16,1.44.58,1.44,1.05,0,.21-.15.41-.32.41s-.18-.09-.24-.26a2,2,0,0,0-1-1.06Zm1.81,8V29.16H136V30.6Z"/><path class="cls-4" d="M130.74,25.7c1.08.25,1.61.64,1.61,1s-.16.48-.3.48-.21-.07-.26-.24a1.9,1.9,0,0,0-1.09-1.11Zm3-.76-1.14,3.84a5.6,5.6,0,0,0-.22,1.57,4.61,4.61,0,0,0,.11,1,2.86,2.86,0,0,1,.11.71c0,.38-.15.5-.36.5s-.36-.19-.36-.62c0-.18.07-1,.07-1.24,0-.45-.06-.8-.23-.87a3.11,3.11,0,0,0-1.06-.26l0-.16c1,0,1.22-.06,1.45-.65l1.46-3.92Zm-2.48-1.75c.74.19,1.68.57,1.68,1,0,.22-.15.5-.28.5s-.22-.05-.32-.3-.32-.64-1.12-1.11Zm9.31,1q.09.09.09.12s0,0-.12,0h-2.32l.46.39a.11.11,0,0,1,.05.07s0,.05-.08.06c-.28.06-.32.08-1,1.2h1.47l.36-.52.62.51c.05.05.08.08.08.11s0,.05-.09.09l-.32.18v5.5c0,.54-.05.6-.69.88l-.07,0s-.06,0-.07-.08c-.1-.38-.27-.51-1.29-.71l0-.17c.57.06.94.1,1.18.1s.42-.09.42-.33V26.29h-4.82v4.45c0,.62,0,1.22,0,1.59v.06c0,.11,0,.15-.26.22a1,1,0,0,1-.21.06c-.08,0-.1-.06-.1-.17s0-1.49,0-1.77v-4c0-.33,0-.88-.05-1.19l.71.49h2.75a9.34,9.34,0,0,0,.75-1.72h-3.68a2.22,2.22,0,0,0-.66.11l-.27-.39a5.65,5.65,0,0,0,.71.05h5.31l.41-.59ZM139,27.66a.29.29,0,0,1,.05.1s0,0-.1,0h-1.86v1.14h.51l.24-.39.56.4c.07,0,.09.07.09.1s0,.06-.26.25v1c0,.12,0,.71,0,.74s0,.19-.27.29l-.17.05c-.07,0-.08,0-.08-.13v-.41H136v.3c0,.13,0,.17-.2.25a.85.85,0,0,1-.22.07c-.07,0-.09-.05-.09-.16s0-.81,0-1v-.63c0-.26,0-.78,0-1.12l.62.34h.52V27.79h-1.16a2.28,2.28,0,0,0-.66.11l-.27-.38c.24,0,.49.05.72.05h1.37c0-.43,0-.89,0-1.27l.73.33s.05,0,.05.05,0,0-.25.17v.72h1l.35-.47Zm-3.85-3.23c.3.16,1.1.61,1.1,1.15,0,.24-.15.44-.3.44s-.2-.09-.24-.27a2.11,2.11,0,0,0-.63-1.2Zm.77-1.82c.5.16,1.44.58,1.44,1.05,0,.21-.15.41-.32.41s-.18-.09-.24-.26a2,2,0,0,0-1-1.06Zm1.81,8V29.16H136V30.6Z"/><path d="M19.79,59.12a1.34,1.34,0,0,0-1.13.3.12.12,0,0,1-.1,0l-.09,0a7.37,7.37,0,0,1-3.32-6.28H14.9a10.6,10.6,0,0,1-1.06,3.73c1,.42,1.75.73,1.75,1.38,0,.31-.2.57-.38.57s-.17-.08-.23-.27A2.72,2.72,0,0,0,13.76,57a7.35,7.35,0,0,1-3.84,3.1L9.85,60c3.09-1.84,4.16-3.37,4.51-6.82H11a2.15,2.15,0,0,0-.73.12l-.3-.4c.27,0,.54,0,.79,0h3.61c.08-.84.13-1.82.13-3l.91.45c.05,0,.08.06.08.08s0,.05-.07.09l-.34.19c0,.79-.09,1.5-.16,2.17h3.29l.52-.64.65.65c.07.07.1.12.1.16s0,.07-.14.07h-4c.43,2.88,1.76,5.15,4.46,5.82Z"/><path d="M24.83,51.06c.05,0,.07.06.07.09s0,.05-.09.07a1,1,0,0,0-.58.47l-1.18,1.93a3.31,3.31,0,0,1,1.36,2.47,1.72,1.72,0,0,1-1.11,1.45s-.08,0-.09-.1c0-.33-.2-.51-1-.73l0-.17a3.66,3.66,0,0,0,1,.18c.51,0,.69-.3.69-1a3,3,0,0,0-1.13-2l1.08-2.5H22.07v6.14c0,.82,0,1.63,0,2.11v.08c0,.15,0,.2-.27.29a.93.93,0,0,1-.19.06c-.07,0-.09-.06-.09-.23v-.11c0-.64,0-1.61,0-2.22V51.94c0-.45,0-1.18,0-1.58l.69.59h1.48l.39-.48Zm5.23.15c.06,0,.08.07.08.1s0,.07-.08.1l-.38.25v5.57c0,.82,0,1.49.06,2v.06c0,.16,0,.2-.31.31a.52.52,0,0,1-.19.05c-.06,0-.07,0-.07-.13V58.34H25.85v.89c0,.15,0,.18-.23.27a.69.69,0,0,1-.21.06c-.08,0-.09-.05-.09-.21v-.13c0-.64,0-1.61,0-2.23V51.66c0-.51,0-.78,0-1.12l.69.63h3l.37-.53Zm-.89,3.37V51.41H25.85v3.17Zm0,3.53V54.82H25.85v3.29Z"/><path d="M175,73.25l-1.21-1-6.54-3.42.21-.39,5,2.62L161,60.79l-1.94,6,3-4.72.38.24-3.9,6.21-.51,1.6-.43-.13.47-1.51.48-7.38.45,0-.37,5.65,2-6.35L148,49.25l.3-.33L160.73,60l7.58-23.57.43.13L161.1,60.32l11.5,10.22L169.54,66l.37-.25,4.06,6,1.3,1.16Zm-73.44-1.58-.41-.17.58-1.45,1.14-7.32.45.07-.87,5.56,8.3-20,.41.17-8.25,19.86,3.3-4.42.36.27-4.37,5.85Zm44.06-1.11-1.3-1-6.76-2.93.18-.41,5.13,2.22-12.7-9.81-11.09,7.8,5.11-2,.16.42-6.77,2.6-1.4,1-.26-.37,1.28-.92L122,61.6l.34.29-3.71,4.27,11.11-7.82-10.58-8.18.27-.35,10.7,8.26,13-9.17.26.37-12.92,9.09,12.58,9.72-3.44-4.4.35-.27,4.54,5.79,1.3,1ZM93.76,43l-.11-.43,5.43-1.36H47.62v-.45H99.08L93.65,39.4l.11-.43,7.17,1.79h1.59v.45h-1.59Zm.3-6.3L94,36.27l5.43-1.36H47.92v-.45H99.38L94,33.1l.11-.43,7.17,1.79h1.59v.45h-1.59Zm78.3-4.8-.11-.43,5.43-1.36H167.62v-.45h10.06l-5.43-1.36.11-.43,7.17,1.79h1.59v.45h-1.59Zm-78-1.2-.11-.43,5.43-1.36H48.22v-.45H99.68L94.25,27.1l.11-.43,7.17,1.79h1.59v.45h-1.59Zm76.5-5.7-.11-.43,5.43-1.36h-11v-.45h11l-5.43-1.36.11-.43L178,22.76h1.59v.45H178Zm-77.4-.6L93.35,24l5.43-1.36H47.32v-.45H98.78L93.35,20.8l.11-.43,7.17,1.79h1.59v.45h-1.59Zm68.94-7.87-.35-.29,6.64-8L164,11.71l-.27-.37,6.14-4.59.84-1,.35.29-1.18,1.42-3,6.45-.41-.19,2.3-4.86Zm-41.2-2.21-1-7.51-.55,5.7-.45,0,.73-7.57-.19-1.37.45-.07.23,1.67,2.75,6.74-.41.17-2.09-5.11,1,7.33Zm31.55-7-.25-.37,7.2-5-5.38,2.05-.16-.42,7.07-2.7L162.39,0l.26.37-1.48,1-4.66,5.47-.34-.29,3.54-4.16Z"/><path class="cls-5" d="M150.8,39.52a.9.9,0,1,1-1.8,0,.9.9,0,0,1,1.8,0"/><polygon points="124.24 69.98 124.01 69.59 125.22 68.85 130.56 63.51 130.88 63.82 126.85 67.85 156.41 49.79 156.64 50.18 127.32 68.09 132.52 66.51 132.65 66.94 125.78 69.03 124.24 69.98"/><path d="M63.7,52.64a1.29,1.29,0,0,0-1.14.3.12.12,0,0,1-.1,0l-.08,0c-2-1.39-3.14-3.17-3.33-6.28H58.8a10.27,10.27,0,0,1-1.06,3.73c1,.42,1.75.74,1.75,1.38,0,.32-.19.58-.38.58s-.17-.09-.22-.27a2.81,2.81,0,0,0-1.22-1.56,7.37,7.37,0,0,1-3.85,3.1l-.06-.14c3.09-1.83,4.16-3.37,4.5-6.82H54.91a2.36,2.36,0,0,0-.72.12l-.31-.4a7.61,7.61,0,0,0,.79.05h3.61a28.66,28.66,0,0,0,.13-3l.91.45s.09,0,.09.08,0,0-.08.08l-.33.2c0,.78-.09,1.5-.17,2.17h3.3l.52-.64.64.65a.24.24,0,0,1,.1.16s0,.06-.14.06h-4c.44,2.89,1.76,5.16,4.47,5.83Z"/><path d="M68.74,44.58s.06.05.06.09,0,0-.09.07a1,1,0,0,0-.58.47L67,47.14a3.3,3.3,0,0,1,1.36,2.46,1.73,1.73,0,0,1-1.11,1.46s-.07,0-.08-.11c0-.32-.21-.51-1-.72l0-.17a4,4,0,0,0,1,.18c.52,0,.69-.3.69-1a3,3,0,0,0-1.12-2.06l1.08-2.49H66v6.13c0,.82,0,1.63,0,2.12V53c0,.15,0,.19-.27.29a.67.67,0,0,1-.19,0c-.07,0-.09,0-.09-.22V53c0-.64,0-1.61,0-2.23V45.45c0-.44,0-1.17,0-1.57l.69.59h1.48L68,44Zm5.22.15c.06,0,.08.06.08.1s0,.06-.08.09l-.37.25v5.58c0,.82,0,1.49,0,2v.07c0,.16,0,.19-.3.3a.65.65,0,0,1-.2.06c-.06,0-.07,0-.07-.13V51.86H69.75v.89c0,.15,0,.18-.22.27a.73.73,0,0,1-.22.06c-.08,0-.09,0-.09-.22v-.13c0-.63,0-1.61,0-2.22V45.17c0-.5,0-.78,0-1.11l.69.63h3l.36-.53Zm-.89,3.37V44.92H69.75V48.1Zm0,3.52V48.34H69.75v3.28Z"/><path d="M84.71,50.2c0,1.25.12,1.62.44,1.79.06,0,.09,0,.09.1a.25.25,0,0,1,0,.07c-.31.65-.48.75-1.14.82a13.64,13.64,0,0,1-1.45.08c-1.52,0-1.71-.22-1.71-1V48.18H79.27c0,2.89-.38,4.13-3.65,5.41l-.07-.14c2.69-1.42,3.21-2.23,3.21-5.27h-2.2a2.41,2.41,0,0,0-.72.11l-.3-.4a7.29,7.29,0,0,0,.79,0h3.78V45.12c0-.44,0-1.18,0-1.58l.78.44c.07,0,.1.08.1.13a.14.14,0,0,1-.06.11l-.27.24v3.48h.47a25.36,25.36,0,0,0,2-3.29l.7.53s.06.06.06.08,0,.05-.1.06a.9.9,0,0,0-.48.31l-1.9,2.31h2.52l.49-.66.71.66a.27.27,0,0,1,.11.16s-.06.08-.18.08H81.43V52c0,.52.32.56.84.56s1.26,0,1.55-.06c.51-.07.72-.21.72-2.31ZM77,44.77c1,.63,1.78,1.42,1.78,1.7s-.13.72-.36.72-.19-.07-.26-.35A4.45,4.45,0,0,0,77,44.9Z"/><path d="M109.47,80.59c0,1.26.12,1.62.44,1.8.06,0,.09,0,.09.09a.24.24,0,0,1,0,.08c-.32.65-.48.75-1.14.82-.43,0-1,.08-1.46.08-1.51,0-1.7-.22-1.7-1V78.57H104c0,2.9-.37,4.14-3.64,5.42l-.07-.14c2.69-1.42,3.21-2.23,3.21-5.28h-2.2a2.36,2.36,0,0,0-.72.12l-.3-.4c.27,0,.54,0,.79,0h3.78V75.52c0-.45,0-1.18-.05-1.58l.79.44c.07,0,.1.08.1.13a.15.15,0,0,1-.06.11l-.27.24v3.48h.47a26.52,26.52,0,0,0,2-3.29l.7.53s.06.06.06.08,0,0-.1.06a.88.88,0,0,0-.48.3l-1.9,2.32h2.52l.48-.66.72.66a.27.27,0,0,1,.11.16s-.06.07-.18.07h-3.59v3.84c0,.52.32.56.84.56s1.26,0,1.55-.06c.51-.07.72-.21.72-2.32Zm-7.67-5.42c1,.63,1.78,1.42,1.78,1.7s-.13.72-.37.72-.18-.07-.25-.36a4.43,4.43,0,0,0-1.25-1.93Z"/><path d="M114.89,76.43c.06,0,.09.08.09.11s0,.06-.12.08a.79.79,0,0,0-.38.27C113.74,78,113,79,111.91,80.32l2.8-.45,0,.17a10.4,10.4,0,0,0-3.06,1,.14.14,0,0,1-.09,0s0,0-.07-.06l-.4-.68a1.39,1.39,0,0,0,1-.72c.38-.52.77-1.1,1.12-1.66a5.77,5.77,0,0,0-1.9.47s0,0-.07,0-.05,0-.09-.06l-.43-.58a1.1,1.1,0,0,0,.79-.56,15.24,15.24,0,0,0,1.44-3.1l.69.42c.06,0,.09.07.09.1s0,0-.09.07a.67.67,0,0,0-.36.27c-.65,1-1.27,2-1.9,2.81l1.94-.1a13.47,13.47,0,0,0,.92-1.77Zm.49,5.08-2.21.95a4.69,4.69,0,0,0-1.51.88.1.1,0,0,1-.08,0s0,0-.07,0l-.43-.59,4.26-1.38Zm5.17-.42c0,.42,0,.77,0,1.06a2.31,2.31,0,0,0,.28,1.4.62.62,0,0,1,.12.3c0,.11-.12.14-.21.14a5,5,0,0,1-3.14-2.19,15.32,15.32,0,0,1-3.81,2.12l0-.15a17.33,17.33,0,0,0,3.63-2.34,7.34,7.34,0,0,1-.67-2.21l-1,.19a2.38,2.38,0,0,0-.68.21l-.43-.32c.26,0,.5-.06.77-.1l1.36-.24c-.07-.47-.1-1-.14-1.63l-.56.1a2.82,2.82,0,0,0-.69.21l-.37-.34a5.47,5.47,0,0,0,.76-.08l.86-.14c0-1-.09-2-.12-3.08l.82.37c.06,0,.1.06.1.08s0,0-.08.08l-.27.2c0,.78,0,1.49,0,2.28l2.46-.41.32-.55.8.5s.07,0,.07.07,0,0-.08,0l-3.57.6a14.6,14.6,0,0,0,.14,1.63l2.53-.43.42-.64.79.54c.07,0,.1.07.1.1s0,0-.11,0l-3.7.65a7.35,7.35,0,0,0,.58,1.95,7.76,7.76,0,0,0,1.47-1.74l.71.41c.05,0,.09.06.09.08s0,0-.12.06a1.19,1.19,0,0,0-.49.27c-.51.51-1,.94-1.44,1.32a4.63,4.63,0,0,0,2,1.63l.43-2.06ZM118,74.49c1.12.39,1.41.61,1.41,1a.37.37,0,0,1-.31.4c-.1,0-.15-.06-.21-.24a3.19,3.19,0,0,0-.94-1.08Z"/><path d="M131.43,76a.32.32,0,0,1,.12.17s-.05.06-.16.06H126c0,.59,0,1-.14,1.93h2.9l.35-.52.71.55c.06,0,.09.07.09.11s0,0-.09.07l-.39.21a26.67,26.67,0,0,1-.38,3.93,1.6,1.6,0,0,1-1.16,1.22l-.1,0s-.06,0-.07-.08c-.07-.4-.46-.7-1.26-.9l0-.17a7.47,7.47,0,0,0,1.35.2.55.55,0,0,0,.64-.51,17.91,17.91,0,0,0,.42-3.91H125.8c-.33,3.18-1.58,4.64-4,5.76l-.07-.13A6.32,6.32,0,0,0,125,79.91a16.52,16.52,0,0,0,.37-3.64h-2.56a2.43,2.43,0,0,0-.73.12l-.3-.39c.27,0,.54,0,.79,0h7.63l.42-.72Zm-5.89-2.14c1.15.41,1.67.82,1.67,1.35,0,.33-.19.56-.38.56s-.24,0-.29-.34A2.45,2.45,0,0,0,125.47,74Z"/><path d="M141.72,76c.06,0,.1.1.1.13s0,.08-.1.11l-.35.18v6.44c0,.56-.13.76-.78,1.07a.3.3,0,0,1-.14,0s-.06,0-.08-.08c-.15-.41-.42-.57-1.35-.77l0-.14a9.27,9.27,0,0,0,1.35.16c.42,0,.45-.14.45-.43V76.13h-6.76v6.08c0,.18,0,1,0,1.25s0,.18-.26.28a.61.61,0,0,1-.22.06c-.08,0-.1-.06-.1-.25s.05-2,.05-2.32V76.87c0-.45,0-1.18,0-1.58l.81.6H136c.3-.72.66-1.59.79-2l.63.3q.09,0,.09.09s0,.06-.13.11c-.27.15-.46.36-1.15,1.45h4.48l.39-.51Zm-2.19,2q.09.08.09.12s0,0-.09.09l-.34.18v1.4c0,.63,0,1,.05,1.45v.08c0,.15,0,.2-.24.29a.81.81,0,0,1-.22.06c-.07,0-.08-.05-.08-.14v-.67h-2.49v.77c0,.15,0,.21-.2.27a.62.62,0,0,1-.21.06c-.08,0-.1,0-.1-.18s0-.93,0-1.1V78.43c0-.26,0-.77,0-1.11l.66.53h2.18l.35-.4Zm-.83,2.63V78.09h-2.49v2.52Z"/><path d="M152.66,74.74c.05,0,.07.06.07.1s0,.06-.08.09l-.35.2v6.36c0,.82,0,1.48.06,1.85v.06c0,.17-.05.21-.28.31a.66.66,0,0,1-.23.07c-.06,0-.07,0-.07-.15v-.8h-6.9v.71c0,.13,0,.19-.24.27a.47.47,0,0,1-.2.07c-.08,0-.09-.07-.09-.23v-.12c0-.63,0-1.48,0-2.09V75.69c0-.63,0-1.26,0-1.6l.69.59h6.46l.39-.51Zm-.88,7.85V74.92h-6.9v7.67Zm-.55-5.23c.06.06.08.09.08.11s0,0-.11,0h-2.8a7.3,7.3,0,0,1-.13.89,5.88,5.88,0,0,1,2.45,2.34.88.88,0,0,1,0,.21c0,.28-.13.46-.31.46s-.22-.09-.41-.57a6.75,6.75,0,0,0-1.79-2.28,5.41,5.41,0,0,1-2.75,3.5l-.09-.12a5.47,5.47,0,0,0,2.51-4.43h-1.69a2.22,2.22,0,0,0-.66.11l-.27-.39a5.92,5.92,0,0,0,.71,0h1.93c0-.41,0-.87,0-1.35,0-.24,0-.49,0-.74l.83.36s.07,0,.07.06a.11.11,0,0,1-.06.08l-.32.23c0,.44,0,1-.06,1.36h1.64l.47-.6Z"/><path d="M164.11,83.13c-.75.07-.94.2-1.08.45,0,0-.07.07-.11.07a9.76,9.76,0,0,1-3.12-1.79,9.48,9.48,0,0,1-4.5,2l0-.16a9.72,9.72,0,0,0,4.2-2.14,9,9,0,0,1-1.64-3.83h-1.37c-.22,3.27-.56,4.65-2.26,6.14l-.14-.1a7,7,0,0,0,1.78-4.7c.08-1.15.11-2.23.11-3.3,0-.35,0-.71,0-1.07l.76.56a36.88,36.88,0,0,0,6.05-.95l.55.65c0,.06.06.09.06.11s0,0,0,0L163,75l-.79,0c-2.19.2-3.95.34-5.67.45,0,.66,0,1.42-.05,1.93h5.16L162,77l.76.54c.05.05.07.07.07.1s0,0-.13.08-.34.15-.5.47a13.52,13.52,0,0,1-2,3.35,6.42,6.42,0,0,0,4,1.5Zm-6-5.45a7.25,7.25,0,0,0,1.72,3.49,10.67,10.67,0,0,0,1.87-3.49Z"/><path d="M169.78,75.48c.05,0,.08.07.08.09s0,.05-.08.1l-.32.22V83c0,.61,0,.72-.8,1.06l-.07,0s-.06,0-.07-.1c-.05-.27-.2-.48-1.16-.76l0-.13a7.57,7.57,0,0,0,1.22.18c.32,0,.34-.12.34-.35V80.14h-.14a12.52,12.52,0,0,1-3.91,3.43l-.09-.12a12.78,12.78,0,0,0,3.36-3.3l-2.41.07a2.28,2.28,0,0,0-.73.12l-.3-.4c.27,0,.54,0,.79,0h.5V76.21c0-.52,0-1,0-1.24l.63.53h.55a9.06,9.06,0,0,0,.53-1.73l.67.39c.08,0,.11.07.11.09s0,0-.12.06-.5.34-1,1.19h1.45l.27-.46ZM169,76.91V75.73h-2.45v1.18Zm0,1.47V77.15h-2.45v1.23Zm0,1.53V78.62h-2.45V80Zm5.88-2.86c.07.08.11.12.11.15s0,.06-.15.06h-1.74V83c0,.74,0,.87-.7,1.16l-.08,0s-.05,0-.06-.09c-.09-.36-.21-.5-1.4-.88l0-.15a8.88,8.88,0,0,0,1.39.2c.29,0,.32-.1.32-.29v-5.7h-1.63a2.05,2.05,0,0,0-.72.12l-.31-.4c.27,0,.54,0,.79,0h1.87V75.55c0-.52,0-1.18,0-1.58l.79.38c.08,0,.13.07.13.1s0,0-.37.28V77h.79l.41-.6Zm-4.56,1.21c1,.91,1.17,1.21,1.17,1.61s-.17.55-.39.55-.22-.2-.22-.56a3.47,3.47,0,0,0-.65-1.52Z"/><path d="M105.31,90.26a.19.19,0,0,1,0,.1s0,0-.09,0H103v.86a4.43,4.43,0,0,1,1.88,1.09.74.74,0,0,1,0,.24c0,.25-.15.5-.32.5s-.16-.12-.23-.29a3.46,3.46,0,0,0-1.38-1.4v2.7c0,.93,0,1.8,0,2.12v.09c0,.15,0,.19-.22.28a.7.7,0,0,1-.23.06c-.07,0-.09,0-.09-.19V96.3c0-.63.06-1.61.06-2.23V91.48a15.28,15.28,0,0,1-2.34,3.41l-.13-.09a17.33,17.33,0,0,0,2.41-4.41h-1.33a2.09,2.09,0,0,0-.72.12l-.3-.4c.27,0,.54,0,.79,0h1.62V88.22c-.72.15-1.47.28-2.14.35l0-.16a20,20,0,0,0,4.22-1.34l.52.48s.06.07.06.09,0,.06-.18.06a2.87,2.87,0,0,0-.58.06c-.38.12-.87.24-1.4.36v2h1.23l.47-.48Zm4.23-1.64c.06,0,.09.08.09.12s0,.05-.1.08l-.31.18v4.85a13.88,13.88,0,0,0,0,1.45.56.56,0,0,0,0,.1c0,.14-.06.18-.27.27a1,1,0,0,1-.22.07c-.07,0-.08-.06-.08-.14V94.49h-2.48v1.24c0,.13,0,.18-.23.27a.58.58,0,0,1-.2.06c-.08,0-.1-.06-.1-.24v-.11c0-.63,0-1.09,0-1.7V89.28c0-.41,0-.9,0-1.24l.68.51h2.2l.36-.46Zm-.82,5.64V88.79h-2.48v5.47Z"/><path d="M115.08,89.41s.08.08.08.1,0,.06-.13.06h-1.78v1.94l1.69-.83.09.14-1.78,1.1v3.56c0,.73-.09.88-.78,1.25l-.08,0s0,0-.06-.1c-.09-.35-.33-.5-1.27-.79l0-.17a8.88,8.88,0,0,0,1.32.2c.29,0,.32-.11.32-.33V92.24c-1.14.69-1.22.76-1.33,1,0,0,0,0-.06,0a.09.09,0,0,1-.08,0l-.43-.51,1.9-.94V89.57H112a2.15,2.15,0,0,0-.73.12l-.3-.4a7.09,7.09,0,0,0,.79,0h1v-1c0-.44,0-1.18,0-1.58l.82.47s.08,0,.08.08,0,.06-.07.08l-.28.17v1.73h.81l.38-.56Zm5.74,1.47c.05.05.08.09.08.11s0,.06-.12.06h-2v3.5c0,.86,0,1.45,0,1.88v.07c0,.15,0,.2-.27.29a.53.53,0,0,1-.23.07c-.07,0-.09-.07-.09-.25v-.1c0-.63,0-1.37,0-2V91.05h-2.19c-.06,3.31-.46,4.57-2.36,6.09l-.13-.11c1.89-1.88,2-3.2,2-7.29,0-.66,0-1.34,0-2l.66.47a20.76,20.76,0,0,0,3.5-1l.54.67a.18.18,0,0,1,0,.11s0,0,0,0h-.08a1.42,1.42,0,0,0-.48-.08,1.51,1.51,0,0,0-.4,0c-.83.14-2,.34-3.21.49,0,.71,0,1.5,0,2.4h3.65l.46-.58Z"/><path d="M126.58,88.44s.08.07.08.09,0,0-.08.1l-.32.22V96c0,.61,0,.72-.8,1.06l-.07,0s-.06,0-.07-.1c0-.27-.2-.48-1.16-.76l0-.13a7.57,7.57,0,0,0,1.22.18c.32,0,.34-.12.34-.35V93.1h-.14a12.52,12.52,0,0,1-3.91,3.43l-.09-.12a12.78,12.78,0,0,0,3.36-3.3l-2.41.07a2.28,2.28,0,0,0-.73.12l-.3-.4c.27,0,.54,0,.79,0h.5V89.17c0-.52,0-1,0-1.24l.63.53H124a9.06,9.06,0,0,0,.53-1.73l.67.39c.08,0,.11.07.11.09s0,.05-.12.06-.5.34-1,1.19h1.45l.27-.46Zm-.82,1.43V88.69h-2.45v1.18Zm0,1.47V90.11h-2.45v1.23Zm0,1.53V91.58h-2.45v1.35ZM131.64,90c.07.08.11.12.11.15s-.05.06-.15.06h-1.74V96c0,.74,0,.87-.7,1.16l-.08,0s-.05,0-.06-.09c-.09-.36-.21-.5-1.4-.88l0-.15a8.88,8.88,0,0,0,1.39.2c.29,0,.32-.1.32-.29v-5.7h-1.63a2.31,2.31,0,0,0-.72.11l-.31-.39c.27,0,.54,0,.79,0h1.87V88.51c0-.52,0-1.18,0-1.58l.79.38c.08,0,.13.07.13.1s0,0-.37.28V90h.79l.41-.6Zm-4.56,1.21c1,.91,1.17,1.21,1.17,1.61s-.17.55-.39.55-.22-.2-.22-.56A3.47,3.47,0,0,0,127,91.3Z"/><path d="M142.3,87.74c.1.09.14.15.14.19s-.06,0-.18,0h-4.59c-.34.67-.67,1.36-.93,1.94h3.84l.34-.51.7.45c.07,0,.1.08.1.11s0,.07-.1.13l-.3.27V95.6c0,.69,0,.77-.68,1.08l-.1,0s0,0-.07-.11c-.09-.37-.32-.56-1.24-.8l0-.15a8.38,8.38,0,0,0,1.21.17c.31,0,.33-.12.33-.39V90.16h-2.06v3.78c0,.53,0,.9,0,1.33v.07c0,.14,0,.17-.27.27a.65.65,0,0,1-.2.06c-.08,0-.1-.06-.1-.23v-.09c0-.57,0-1,0-1.43V90.16h-1.84v4a13.05,13.05,0,0,0,.05,1.31v.06c0,.15-.06.19-.27.28a.62.62,0,0,1-.21.06c-.07,0-.1-.06-.1-.22v-.1c0-.57,0-1,0-1.41v-4h-1.76v4.25c0,.82,0,1.41,0,1.82v.08c0,.15,0,.19-.27.29a.75.75,0,0,1-.22.07c-.07,0-.09-.07-.09-.23s0-1.73,0-2V90.9c0-.45,0-1.18,0-1.58l.71.6h2.19A10.13,10.13,0,0,0,137,88h-3.55a2.09,2.09,0,0,0-.72.12l-.3-.4c.27,0,.54,0,.78,0h8l.42-.62Z"/><path d="M147.59,93.61c-2.58,1.52-3.12,1.93-3.4,2.34,0,.07-.07.1-.1.1S144,96,144,96l-.44-.53a.86.86,0,0,0,.48-.67V92.08c0-.56,0-1.17,0-1.57l.66.44h1.9v-2.6h-2a2.15,2.15,0,0,0-.73.12l-.3-.38c.27,0,.54,0,.79,0h2l.35-.43.61.51c.06,0,.08.07.08.09s0,.07-.09.1l-.28.16v1.61c0,.18.07,1,.07,1.12s-.06.18-.27.27a.81.81,0,0,1-.22.06c-.09,0-.09,0-.09-.45h-2V95l3-1.48Zm5.59,2.56c-.62,0-.81.08-1,.36,0,0,0,0-.07,0a8.34,8.34,0,0,1-2.3-2A9.53,9.53,0,0,1,145.67,97l-.08-.13a11,11,0,0,0,3.95-2.7,10.37,10.37,0,0,1-1-3.75,19.08,19.08,0,0,1-1.11,2.08l-.13-.1a26.06,26.06,0,0,0,1.94-5.59l.75.49s.07.06.07.09,0,0-.08.07c-.27.13-.29.18-.35.31-.21.56-.42,1.08-.61,1.55h2.83l.43-.54.72.63c.06,0,.09.08.09.11s0,0-.12,0H151.5a11.74,11.74,0,0,1-1.37,4.59A5,5,0,0,0,153.18,96Zm-4.3-6.59c-.07.16-.13.31-.2.46a10.87,10.87,0,0,0,1.18,3.69A12.81,12.81,0,0,0,151,89.58Z"/><path d="M157,90.13s0,.05,0,.08,0,0-.08.05a.87.87,0,0,0-.41.19,24.4,24.4,0,0,1-2.33,1.94l-.13-.12a14,14,0,0,0,2.32-2.65Zm7.14,6.12c-.68.06-1,.23-1.13.48a.11.11,0,0,1-.09,0,14.26,14.26,0,0,1-3.84-1.41A12.49,12.49,0,0,1,154.26,97l0-.18a14,14,0,0,0,4.47-1.77,5.92,5.92,0,0,1-1.84-2.35h-.37a1.41,1.41,0,0,0-.56.12l-.3-.4c.27,0,.54,0,.78,0h4.48l.43-.47.66.58c.05,0,.07.08.07.11s0,0-.1.06a.84.84,0,0,0-.6.39,8.54,8.54,0,0,1-1.84,1.91,11.68,11.68,0,0,0,4.66,1Zm-.54-7.54c0,.06.08.1.08.12s0,.06-.11.06h-3.18v1.46a12.51,12.51,0,0,0,.05,1.32v.06c0,.13-.05.16-.27.24L160,92c-.08,0-.1,0-.1-.19s0-1.26,0-1.5V88.89h-1.6v1.5c0,.66,0,.91,0,1.33,0,.17,0,.21-.24.29a.82.82,0,0,1-.22,0c-.08,0-.11-.06-.11-.2v-.08c0-.51,0-.92,0-1.4V88.89h-2.34a2.09,2.09,0,0,0-.72.12l-.3-.4c.27,0,.54,0,.79,0h7.2l.49-.68Zm-6.47,4a5.43,5.43,0,0,0,1.91,2.1,7.53,7.53,0,0,0,1.87-2.1Zm1-5.84c.5.14,1.51.52,1.51,1.15,0,.29-.18.48-.35.48s-.17-.12-.22-.27a2.33,2.33,0,0,0-1-1.26Zm3.1,3c1.48.54,2.33,1.11,2.39,1.51a1.28,1.28,0,0,1,0,.19c0,.28-.12.43-.27.43s-.18-.09-.32-.35A5.72,5.72,0,0,0,161.2,90Z"/><path class="cls-5" d="M143.6,29.92a.9.9,0,1,1-1.8,0,.9.9,0,0,1,1.8,0"/></g></g></svg>