<svg xmlns="http://www.w3.org/2000/svg" width="700" viewBox="0 0 300.83 110.5"><defs><style>.cls-1{fill:#e5f7f7;}</style></defs><g id="图层_2" data-name="图层 2"><g id="图片"><rect class="cls-1" x="174.83" y="56.46" width="126" height="54"/><path d="M220.05,108.66h-.44v-.91h.44Zm0-3.61h-.44v-.89h.44Zm0-3.59h-.44v-.91h.44Zm0-3.6h-.44V97h.44Zm0-3.61h-.44v-.89h.44Zm0-3.59h-.44v-.91h.44Zm0-3.61h-.44v-.89h.44Zm0-3.59h-.44v-.91h.44Zm0-3.6h-.44V79h.44Zm0-3.61h-.44v-.89h.44Zm0-3.59h-.44v-.91h.44Zm0-3.61h-.44v-.89h.44Zm0-3.59h-.44v-.91h.44Zm0-3.6h-.44V61h.44Zm0-3.61h-.44v-.89h.44Zm0-3.59h-.44v-.91h.44Zm0-3.61h-.44v-.89h.44Zm0-3.59h-.44v-.91h.44Zm0-3.6h-.44V43h.44Zm0-3.61h-.44v-.89h.44Zm0-3.59h-.44v-.91h.44Zm0-3.61h-.44v-.89h.44Zm0-3.59h-.44v-.91h.44Zm0-3.6h-.44V25h.44Zm0-3.61h-.44v-.89h.44Zm0-3.59h-.44v-.91h.44Zm0-3.61h-.44v-.89h.44Zm0-3.59h-.44v-.91h.44Zm0-3.6h-.44V7h.44Zm0-3.61h-.44V3.36h.44Z"/><rect x="174.83" y="56.23" width="126" height="0.45"/><polygon points="184.18 101.74 183.48 101.17 219.54 56.1 219.62 56.06 296.12 15.56 296.54 16.35 220.12 56.81 184.18 101.74"/><path d="M184.21,100.85l3.5-7.53.4.19-2.74,5.91,5.23-3.91.27.37ZM222.58,76,217,67.8l.37-.25L223,75.71Z"/><path d="M230.34,47.85c-.54,0-.66-.54-1.13-3-1,2-1.24,2.32-2,2.77-1.09.66-2.51-.11-2.61-1.8-.14-2.15.83-4.61,2.16-5,.9-.3,1.78.1,2.3,2.14.21-.54.43-1.19.62-1.87.09-.3.16-.37.63-.33s.62.1.51.37c-.27.71-1,2.42-1.34,3.15.72,2.84,1,2.88,1.91,1.27.11-.19.47,0,.37.32C231.34,47.41,230.87,47.85,230.34,47.85ZM226.79,42a5.08,5.08,0,0,0-1.52,4c.19,1.22,1,1.58,1.78.85.49-.47.83-1.1,1.78-3.32C228.24,41.62,227.52,41.45,226.79,42Z"/><path d="M213.3,80.93h-.87a7.62,7.62,0,0,0,.19-1.62V73.57a4.29,4.29,0,0,1,.16-1.33,1.76,1.76,0,0,1,.63-.78,2,2,0,0,1,1.17-.33,2.25,2.25,0,0,1,1.4.44,1.48,1.48,0,0,1,.57,1.25,1.81,1.81,0,0,1-.91,1.56,2.08,2.08,0,0,1,1.35,2,2.47,2.47,0,0,1-.36,1.32,2.18,2.18,0,0,1-.82.83,2.39,2.39,0,0,1-1.11.25,1.5,1.5,0,0,1-1.21-.56v1A6.75,6.75,0,0,1,213.3,80.93Zm.19-3.19a1.3,1.3,0,0,0,1.15.68,1.16,1.16,0,0,0,1.05-.52,2.32,2.32,0,0,0,.33-1.26,3.31,3.31,0,0,0-.22-1.17,2.31,2.31,0,0,0-.56-.9,2.51,2.51,0,0,1-.57.08c-.36,0-.53-.1-.53-.28s.15-.25.44-.25a2.62,2.62,0,0,1,.7.12,2.63,2.63,0,0,0,.37-1.37,1.51,1.51,0,0,0-.29-1,.93.93,0,0,0-.76-.36,1,1,0,0,0-.64.22,1.06,1.06,0,0,0-.37.5,3.46,3.46,0,0,0-.1,1Z"/><path d="M275.4,96.9s.06,0,.06.07,0,0-.11.06-.33.19-.44.5a11.21,11.21,0,0,1-3.6,5.38l-.1-.12a12.11,12.11,0,0,0,3.22-5.72h-2.07a2.31,2.31,0,0,0-.72.12l-.31-.4c.27,0,.54,0,.79,0h2.26l.32-.48Zm5.9,5.28-.36,0a.91.91,0,0,0-.79.3c0,.05-.06.07-.09.07a.1.1,0,0,1-.08,0c-1.92-1.76-2.82-3.36-3.53-6.77v6.82c0,.84-.11,1.1-.78,1.3l-.06,0s-.05,0-.06-.07c0-.31-.24-.52-1.38-.8l0-.18a8.56,8.56,0,0,0,1.37.21c.37,0,.38-.15.38-.47V95.26c0-.45,0-1.18-.05-1.58l.89.44a.08.08,0,0,1,0,.06s0,0,0,.06l-.34.22V95a22.43,22.43,0,0,0,1,3,22.93,22.93,0,0,0,2.11-2.38l.66.61c.07.05.09.08.09.12s0,0-.2,0a.7.7,0,0,0-.5.18l-2.08,1.64c1.11,2.56,2.41,3.56,3.81,3.84Z"/><path d="M275,52.07c.07.06.1.1.1.14s-.05,0-.15,0h-8.3a2.09,2.09,0,0,0-.72.12l-.3-.4c.27,0,.54,0,.79,0h3.67V49.16h-2a2.05,2.05,0,0,0-.72.12l-.3-.4c.27,0,.54,0,.78,0h4.5l.48-.69.74.74c.06.06.1.1.1.14s0,0-.14,0h-2.94V52h3.15l.48-.71Zm-5.22-5.79a.18.18,0,0,1,.05.07s0,0-.1.06c-.39,0-.44,0-.56.11-1.21.88-2,1.41-3.36,2.27l-.1-.12a32.74,32.74,0,0,0,3.42-3Zm5.35-1.49s.06.06.06.08,0,.05-.09.06c-.42,0-.87.33-1.67,1.22l-.12-.09.81-1.23h-7.24c0,.91-.33,1.52-.85,1.52-.06,0-.29,0-.29-.19a.67.67,0,0,1,.22-.43,2.48,2.48,0,0,0,.77-1.53h.13c0,.14,0,.27,0,.39H274l.4-.46Zm-5.65-1.93c.75.27,1.43.73,1.43,1.2a.5.5,0,0,1-.4.5c-.12,0-.22-.12-.28-.34a2,2,0,0,0-.8-1.26Zm1.48,3c1.41.36,3.3,1.16,3.3,2.1a.35.35,0,0,1-.27.39c-.1,0-.24-.11-.42-.42A5.69,5.69,0,0,0,270.88,46Z"/><path d="M285.35,44.32c.08.07.11.12.11.16s0,.08-.15.08h-6.64a17.37,17.37,0,0,1-2.55,3.35l-.12-.09a18.32,18.32,0,0,0,2.9-5l.71.46c.05,0,.08.06.08.08s0,.07-.14.1a.71.71,0,0,0-.48.4l-.26.43h5.5l.45-.56Zm.35,6c0,1.21,0,1.71.24,2s.22.35.22.41a.15.15,0,0,1,0,.08.44.44,0,0,1-.33.09,2.52,2.52,0,0,1-.95-.22c-1.28-.57-2.07-1.36-2.07-4.33,0-.23,0-.47,0-.71h-4.5a2.31,2.31,0,0,0-.72.11l-.31-.4a7.29,7.29,0,0,0,.79.05h4.58l.4-.48.69.53c.06,0,.08.06.08.09s0,0-.11.09l-.36.19c0,.38,0,.7,0,1,0,1.32.24,3,1.93,3.34a14.68,14.68,0,0,0,.28-1.84Zm-1.13-4.41a.25.25,0,0,1,.09.15s0,.06-.13.06h-5.18a2.43,2.43,0,0,0-.73.12l-.3-.4a5.32,5.32,0,0,0,.79.05h4.36l.44-.54Z"/><path d="M279.12,9c0,1.26.12,1.62.44,1.8.06,0,.09.05.09.09a.31.31,0,0,1,0,.08c-.31.65-.48.74-1.13.82-.44,0-1,.08-1.46.08-1.52,0-1.71-.22-1.71-1V6.93h-1.65c-.05,2.9-.38,4.14-3.64,5.41L270,12.2c2.69-1.41,3.21-2.22,3.21-5.27H271a2.43,2.43,0,0,0-.73.12l-.3-.4c.27,0,.54,0,.79,0h3.78V3.88c0-.45,0-1.18,0-1.58l.78.44a.14.14,0,0,1,.1.13.15.15,0,0,1-.06.11l-.27.24V6.69h.47a25.22,25.22,0,0,0,2-3.28l.7.53s.06.05.06.08,0,.05-.1.06a.86.86,0,0,0-.48.3l-1.9,2.31h2.52l.49-.65.71.65c.08.07.11.12.11.17s-.06.07-.18.07h-3.59v3.84c0,.52.32.56.84.56s1.26,0,1.56-.07c.5-.06.71-.2.71-2.31Zm-7.67-5.42c1.05.63,1.78,1.41,1.78,1.7s-.13.72-.36.72-.19-.08-.26-.36a4.49,4.49,0,0,0-1.24-1.93Z"/><path d="M280.54,4.8c1,.23,1.78.52,1.78,1.2a.42.42,0,0,1-.36.46c-.09,0-.15-.11-.21-.27-.13-.42-.34-.81-1.25-1.27Zm3.48-1c-1,2.92-1.46,4.33-1.67,5.07a3.33,3.33,0,0,0-.13.94,3.84,3.84,0,0,0,.09.83,3.45,3.45,0,0,1,.06.58c0,.46-.16.65-.39.65s-.3-.21-.3-.67c0-.16.12-1,.12-1.16,0-.77-.22-.82-1.26-1l0-.16h.54c.64,0,.74-.11.93-.56l1.83-4.59Zm-2.64-1.1c1,.18,1.43.4,1.63.77a.58.58,0,0,1,.07.28.47.47,0,0,1-.33.47c-.12,0-.16-.05-.25-.32s-.35-.7-1.16-1.07Zm9.12.34c.08.06.11.1.11.13s-.05.06-.16.06h-2.64l-.54,1.34h1.63l.27-.42.68.46c.06,0,.08.07.08.09s0,0-.08.09l-.33.19V7a8.48,8.48,0,0,0,.06,1.16s0,.09,0,.12-.06.18-.27.25a.85.85,0,0,1-.22,0c-.06,0-.08,0-.08-.12V8h-1.24v3.11c0,.78-.06.93-.6,1.14l-.13,0c-.05,0-.07,0-.08-.09-.06-.36-.19-.48-1.2-.77l.05-.15a7.07,7.07,0,0,0,1.14.16c.33,0,.34-.13.34-.42V8h-1.19c0,.24,0,.28-.24.39a.57.57,0,0,1-.23.09c-.05,0-.07,0-.07-.15a1.94,1.94,0,0,1,0-.22c0-.3,0-.73,0-1.16V5.2c0-.26,0-.77,0-1.11l.6.49H287a8.75,8.75,0,0,0,.23-1.34h-2.28l-.22,4.48A7.42,7.42,0,0,1,283,12.18l-.1-.08a9.15,9.15,0,0,0,1.38-5.21c.05-1.29.1-3.07.12-4.46l.69.57h4.35l.37-.53Zm-3.86,6.28s.05.05.05.08,0,0-.07,0-.3,0-.34.09a25.54,25.54,0,0,1-2,2l-.11-.09A16.07,16.07,0,0,0,286,8.84ZM289,6.11V4.81h-2.91v1.3Zm0,1.7V6.35h-2.91V7.81ZM288.52,9c1.36.78,1.92,1.29,1.92,1.91,0,.36-.22.58-.38.58s-.2-.1-.25-.32a3.64,3.64,0,0,0-1.38-2.08Z"/><path d="M192.74,98.27s.07.07.07.1,0,.06-.1.08c-.25.08-.31.19-.37.51a15.09,15.09,0,0,1-.75,2.86c.31.39.76,1,1,1.36a1.3,1.3,0,0,1,.24.69c0,.26-.12.43-.28.43s-.25,0-.49-.75a4.84,4.84,0,0,0-.67-1.23,9.53,9.53,0,0,1-2.57,3.47l-.11-.09a12.94,12.94,0,0,0,2.37-3.82,20.84,20.84,0,0,0-1.65-2l.11-.12a15.34,15.34,0,0,1,1.71,1.62,12.44,12.44,0,0,0,.59-3l-1.9.06a1.81,1.81,0,0,0-.66.12L189,98.2a5.27,5.27,0,0,0,.79,0l2,0,.38-.52ZM196,99c.07,0,.1.06.1.09s0,0-.08.09l-.25.21a17.6,17.6,0,0,1-.45,3.53,6.12,6.12,0,0,1-3.56,3.87l-.11-.13A6.56,6.56,0,0,0,195,102.3a17.26,17.26,0,0,0,.2-3c0-.25,0-.5,0-.73Zm2-1.28a.09.09,0,0,1,0,.07.08.08,0,0,1,0,.07l-.4.21v2.79c0,.82,0,1.28,0,1.76v.07c0,.14,0,.18-.26.27a.66.66,0,0,1-.22.06c-.07,0-.09-.05-.09-.16v-.13c0-.39,0-.7,0-1.32V97.88H194v3.81c0,.14,0,.82,0,1s0,.16-.28.29a.38.38,0,0,1-.17.06c-.06,0-.09-.06-.09-.21v-.11c0-.38,0-.83,0-1.21V98.55c0-.4,0-1.06,0-1.43l.64.52h2.82l.32-.49Zm.42,6c0,.21,0,.38,0,.53,0,.75.09.91.33,1a.11.11,0,0,1,.07.11.13.13,0,0,1,0,.06c-.21.6-.57.8-1.55.8-1.6,0-1.66-.06-1.66-1v-2.55c0-.35,0-.57,0-.78l.77.37s.06,0,.06.06,0,0-.06.08l-.25.18v2.45c0,.7,0,.72,1.17.72.79,0,.88-.06,1-2.1Z"/><path d="M204.64,99.7c.05,0,.07.06.07.08s0,.06-.13.1a.75.75,0,0,0-.42.4,8.69,8.69,0,0,1-4.64,4.11l0-.14a8.86,8.86,0,0,0,4.35-4.46h-1.69a11.39,11.39,0,0,1-2.28,2.51l-.09-.11a14,14,0,0,0,2.45-3.5l.61.34s.07.06.07.08,0,0-.09,0c-.22,0-.24.07-.5.4h1.5l.21-.27Zm-1.6,4.94c.06,0,.09.07.09.09s0,0-.1,0a.91.91,0,0,0-.57.27,19.46,19.46,0,0,1-2.55,1.79l0-.14a14.28,14.28,0,0,0,2.54-2.46Zm6-6.49c.06,0,.11.08.11.1s0,0-.12,0c-.36,0-.62.23-1.09.83l-.13-.06.34-.74H201c0,.65-.18,1.33-.75,1.33-.15,0-.32-.09-.32-.25a.34.34,0,0,1,.18-.26c.3-.14.57-.6.71-1.44l.13,0c0,.13,0,.24,0,.36H208l.34-.46Zm-7.87,3.11c.58.43.72.62.72.86s-.15.43-.28.43a.21.21,0,0,1-.22-.19,2,2,0,0,0-.29-1Zm6.11,2.32a.21.21,0,0,1,.06.09s0,0-.09,0h-2.34v2.15a1,1,0,0,1-.7,1.11l-.05,0s-.06,0-.07-.07c0-.33-.2-.56-1.22-.85l0-.16a7.9,7.9,0,0,0,1.22.17c.27,0,.29-.08.29-.21V103.7H202.8a2.19,2.19,0,0,0-.7.11l-.29-.39c.25,0,.52,0,.76,0h3.69l.38-.5Zm-5.35-3.28c.48.17,1,.39,1,.78,0,.18-.13.35-.24.35a.21.21,0,0,1-.17-.13,1.7,1.7,0,0,0-.62-.88Zm4.21,2s.08.08.08.12,0,0-.13,0h-2.19a1.94,1.94,0,0,0-.62.08l-.29-.36a6.56,6.56,0,0,0,.76,0h1.53l.37-.49Zm-2.56-5.62c1,.31,1.29.61,1.29,1s-.12.41-.28.41-.23-.11-.27-.27a1.9,1.9,0,0,0-.78-1Zm6.1,6.31c-.59,0-.75.17-.94.47a.06.06,0,0,1-.06,0,.16.16,0,0,1-.09,0,6.42,6.42,0,0,1-3.92-4.74l.14,0c.1.3.21.59.33.86h2l.27-.39.63.48c.05,0,.08.07.08.1s0,0-.1.06c-.33.08-.58.23-1.77,1.55a5.23,5.23,0,0,0,3.39,1.5Zm-2.52-3.2h-1.91a5.87,5.87,0,0,0,.94,1.44Zm-1.35,4.57a5.59,5.59,0,0,1,2.59,1.14.7.7,0,0,1,.14.42c0,.19-.11.35-.24.35s-.2,0-.33-.19a5.89,5.89,0,0,0-2.2-1.59Z"/><path d="M220.34,100.46a.24.24,0,0,1,.07.11s0,0-.13,0H216q-1,.84-2,1.59h3.49l.35-.49.67.53a.14.14,0,0,1,.06.09s0,0-.08.09l-.3.18v2.59c0,.2,0,1.19,0,1.24s0,.2-.27.29a.67.67,0,0,1-.21.07c-.07,0-.08-.05-.08-.14v-.77h-4.17v.63c0,.15,0,.19-.2.27a.65.65,0,0,1-.23.06c-.07,0-.09-.06-.09-.24s0-1.37,0-1.45v-2.27a22.46,22.46,0,0,1-2.6,1.48l-.08-.15c1-.61,1.87-1.19,2.68-1.75l0-.69.48.35c.71-.52,1.35-1,1.92-1.51H211.2a2.38,2.38,0,0,0-.73.11l-.3-.39a7.09,7.09,0,0,0,.79,0h3.52V98.62h-1.94a2.38,2.38,0,0,0-.69.11l-.3-.39a6.56,6.56,0,0,0,.76,0h2.17v-.65c0-.43,0-.69,0-1.06l.72.3c.07,0,.1,0,.1.09s0,0-.05.07l-.24.21v1h1l.38-.55.62.67s0,.06,0,.08,0,0-.07,0h-2v1.75h.63a20.43,20.43,0,0,0,2.86-3l.62.45s.07.06.07.08,0,0-.08,0c-.32.09-.36.11-.49.24-.74.75-1.53,1.48-2.34,2.17h2.92l.49-.65Zm-2.73,3.41v-1.43h-4l-.16.1v1.33Zm0,1.77v-1.53h-4.17v1.53Z"/><path d="M226.16,29.17c.07,0,.09,0,.09,0a.49.49,0,0,1,0,.1.29.29,0,0,0-.07.18.22.22,0,0,0,0,.08c.75,2.66,1.76,4.62,3.68,5l0,.1-.32,0a.6.6,0,0,0-.46.19.15.15,0,0,1-.11.06s-.09,0-.17-.1a7.51,7.51,0,0,1-2.4-3.84A9.12,9.12,0,0,1,223,35.4l-.06-.08a10.47,10.47,0,0,0,3.25-4.86c-.07-.21-.15-.44-.22-.68a1,1,0,0,0-.6-.7l0-.09Z"/><path d="M233.52,29.89l.06.06s0,0-.06.07l-.21.15v4.75c0,.41,0,.48-.53.71l-.05,0s0,0,0-.07-.13-.31-.77-.5l0-.09a5.12,5.12,0,0,0,.81.12c.22,0,.23-.08.23-.23V33h-.09a8.36,8.36,0,0,1-2.61,2.29l-.07-.08a8.32,8.32,0,0,0,2.24-2.2l-1.6.05a1.39,1.39,0,0,0-.48.07l-.21-.26.53,0H231V30.38c0-.35,0-.65,0-.83l.41.35h.37a5.39,5.39,0,0,0,.35-1.15l.45.26s.07,0,.07.06,0,0-.08,0-.33.23-.64.79h1l.18-.3Zm-.54.95v-.78h-1.64v.78Zm0,1V31h-1.64v.82Zm0,1V32h-1.64v.9Zm3.92-1.91s.07.08.07.1,0,0-.1,0h-1.16V34.9c0,.49,0,.58-.47.77h-.05s0,0,0,0c-.06-.25-.14-.34-.93-.59v-.11a5.5,5.5,0,0,0,.93.14c.19,0,.21-.06.21-.19V31.07h-1.09a1.46,1.46,0,0,0-.48.08l-.2-.26.52,0h1.25v-1c0-.35,0-.79,0-1.06l.53.26c.06,0,.08,0,.08.06s0,0-.24.19v1.53h.53l.27-.4Zm-3,.8c.67.61.78.81.78,1.08s-.12.36-.26.36-.15-.13-.15-.37a2.33,2.33,0,0,0-.44-1Z"/><path d="M243.52,30.92s0,0,0,0,0,0,0,.05l-.23.18v3.55c0,.48-.06.58-.5.8l0,0s0,0-.06-.06c-.07-.22-.15-.33-.85-.55l0-.09a4.81,4.81,0,0,0,.82.11c.23,0,.26-.07.26-.19V33.44h-1.84V34.5c0,.12,0,.72,0,.75s0,.11-.16.18a.46.46,0,0,1-.19.08s0,0,0-.07v0c0-.25,0-.47,0-.87V33.44H239a2.77,2.77,0,0,1-1.26,2.19l-.06-.07a3.55,3.55,0,0,0,1.07-2.82c0-.23,0-.92,0-1.85a10.29,10.29,0,0,1-1.14,1l-.08-.1a15.62,15.62,0,0,0,2.48-3l.48.27s.05,0,.05,0,0,0-.06,0-.23.08-.61.52h1.74l.24-.27.48.42s.06.06.06.08,0,0-.11,0c-.31,0-.61.23-1.23,1h1.75l.21-.35Zm-1.89-1.12h-1.87c-.29.35-.57.66-.85.94l.28.17h1.7Zm-.86,3.49v-1h-1.66c0,.4,0,.73-.07,1Zm0-1.18v-1h-1.63l0,1Zm2.18,0v-1h-1.84v1Zm0,1.18v-1h-1.84v1Z"/><path d="M226.55,73.38a.18.18,0,0,1,0,.07s0,0-.08,0h-1.19v1.29l1.13-.55.06.09-1.19.74v2.37c0,.49-.06.59-.52.83l-.05,0s0,0,0-.07c-.06-.24-.22-.34-.85-.53l0-.11a5.38,5.38,0,0,0,.87.13c.2,0,.22-.07.22-.22V75.27c-.76.46-.81.51-.89.64s0,0,0,0a.05.05,0,0,1-.05,0l-.29-.33L225,75V73.49h-.48a1.46,1.46,0,0,0-.48.08l-.21-.27.53,0H225v-.64c0-.29,0-.78,0-1l.55.31s.06,0,.06.06l0,0-.19.12v1.15h.54l.25-.38Zm3.83,1a.15.15,0,0,1,.05.08s0,0-.08,0H229v2.34c0,.57,0,1,0,1.25v0c0,.1,0,.13-.18.19a.5.5,0,0,1-.15,0c-.05,0-.07,0-.07-.17v-.06c0-.43,0-.92,0-1.33V74.47H227.2c0,2.21-.3,3-1.57,4.07l-.09-.08c1.27-1.25,1.35-2.13,1.35-4.86,0-.44,0-.89,0-1.34l.44.31a12.75,12.75,0,0,0,2.33-.7l.36.45s0,.05,0,.07,0,0,0,0h0a1,1,0,0,0-.32,0,1.32,1.32,0,0,0-.27,0c-.56.1-1.35.24-2.14.34q0,.7,0,1.59h2.44l.31-.38Z"/><path d="M234.21,72.74s.06,0,.06.05,0,0-.06.07L234,73v4.75c0,.41,0,.49-.54.72h-.05s0,0,0-.06-.14-.32-.78-.51l0-.08a4.73,4.73,0,0,0,.81.11c.22,0,.23-.08.23-.23V75.84h-.09A8.33,8.33,0,0,1,231,78.13l-.06-.08a8.46,8.46,0,0,0,2.24-2.19l-1.61,0a1.66,1.66,0,0,0-.48.08l-.2-.27.52,0h.34V73.22c0-.35,0-.65,0-.83l.42.36h.37a6.37,6.37,0,0,0,.35-1.16l.45.26c.05,0,.07.05.07.07s0,0-.08,0-.33.23-.65.8h1l.18-.31Zm-.54,1V72.9H232v.79Zm0,1v-.82H232v.82Zm0,1v-.86H232v.9Zm3.92-1.91s.07.08.07.1,0,0-.1,0H236.4v3.82c0,.49,0,.58-.46.77l-.05,0s0,0,0-.06c-.05-.24-.13-.34-.93-.59l0-.1a6.58,6.58,0,0,0,.92.14c.19,0,.22-.07.22-.2v-3.8H235a1.46,1.46,0,0,0-.48.08l-.21-.27.53,0h1.25v-1c0-.34,0-.78,0-1l.52.25c.06,0,.09,0,.09.07s0,0-.25.18v1.53h.53l.27-.4Zm-3,.81c.67.6.78.81.78,1.07s-.11.37-.26.37-.14-.14-.14-.38a2.39,2.39,0,0,0-.44-1Z"/><path d="M244.22,73.76s0,0,0,0,0,0,0,0l-.23.19v3.54c0,.48-.06.58-.51.81h0s0,0-.06,0c-.07-.23-.16-.34-.86-.55l0-.1a4.77,4.77,0,0,0,.83.11c.23,0,.25-.07.25-.19V76.29H241.8v1.06c0,.11,0,.72,0,.75s0,.1-.16.18a.68.68,0,0,1-.18.08s-.05,0-.05-.08v0c0-.24,0-.47,0-.86V76.29h-1.75a2.77,2.77,0,0,1-1.27,2.18l-.06-.06a3.63,3.63,0,0,0,1.08-2.83V73.74a10.1,10.1,0,0,1-1.13,1l-.08-.09a16.13,16.13,0,0,0,2.47-3l.49.26s0,0,0,0,0,0-.07,0-.23.08-.6.52h1.74l.24-.26.47.41s.06.06.06.08,0,0-.1,0c-.32,0-.61.23-1.24,1h1.75l.22-.34Zm-1.89-1.12h-1.87c-.3.36-.58.67-.85,1l.28.16h1.7Zm-.87,3.5v-1h-1.65c0,.4,0,.73-.08,1Zm0-1.18v-1h-1.62l0,1Zm2.18,0v-1H241.8v1Zm0,1.18v-1H241.8v1Z"/><rect class="cls-1" y="56.5" width="126" height="54"/><path d="M9.27,101.86,9,101.5H8.55V56.18l.3-.11,112.5-40.5.15.43.27.36Zm.18-45v43.4L44.71,56.14l.08,0,70.88-37.53Zm35.84,0L11.62,98.94,116.84,19Z"/><rect y="56.27" width="126" height="0.45"/><path d="M114.46,51.08c.07.07.1.11.1.14s0,.05-.15.05h-8.3a2.09,2.09,0,0,0-.72.12l-.3-.4c.27,0,.54,0,.79,0h3.67V48.18h-2a2.05,2.05,0,0,0-.72.12l-.31-.4c.27,0,.54,0,.79,0h4.5l.48-.69.74.73c.06.07.1.11.1.14s-.05.06-.15.06h-2.93V51h3.15l.48-.71Zm-5.23-5.79a.21.21,0,0,1,.06.08s0,0-.1.05c-.39,0-.44,0-.56.12-1.21.88-2,1.41-3.36,2.27l-.1-.12a32.74,32.74,0,0,0,3.42-3Zm5.36-1.49s.06.07.06.09,0,0-.09,0c-.42.06-.87.34-1.67,1.22l-.12-.08.81-1.23h-7.24c0,.9-.34,1.52-.85,1.52-.06,0-.3,0-.3-.2a.73.73,0,0,1,.23-.43,2.42,2.42,0,0,0,.77-1.52h.13c0,.14,0,.27,0,.39h7.13l.4-.47Zm-5.65-1.92c.75.27,1.43.72,1.43,1.2a.5.5,0,0,1-.4.5c-.12,0-.22-.12-.28-.34a2,2,0,0,0-.8-1.26Zm1.48,3c1.41.36,3.3,1.16,3.3,2.1a.35.35,0,0,1-.27.39c-.1,0-.24-.11-.42-.43A5.77,5.77,0,0,0,110.38,45Z"/><path d="M124.85,43.34a.23.23,0,0,1,.11.16s0,.08-.15.08h-6.64a17.37,17.37,0,0,1-2.55,3.35l-.12-.09a19,19,0,0,0,2.9-5l.71.45s.08.07.08.09,0,.06-.14.1a.68.68,0,0,0-.48.4l-.26.43h5.49l.46-.56Zm.35,6c0,1.21,0,1.72.24,2s.22.35.22.41a.15.15,0,0,1,0,.08s-.16.08-.33.08a2.49,2.49,0,0,1-1-.21c-1.28-.57-2.07-1.36-2.07-4.33,0-.23,0-.47,0-.72h-4.5a2.43,2.43,0,0,0-.73.12l-.3-.4c.27,0,.54,0,.79,0h4.58l.4-.48.69.53c.06,0,.08,0,.08.09s0,0-.11.08l-.36.2c0,.38,0,.7,0,1,0,1.32.24,3,1.92,3.34a11.53,11.53,0,0,0,.28-1.84Zm-1.14-4.4c.07.06.1.1.1.15s0,.06-.13.06h-5.18a2.15,2.15,0,0,0-.73.12l-.3-.4a7.09,7.09,0,0,0,.79,0H123l.44-.54Z"/><path d="M112.2,100s.06.06.06.08,0,0-.11,0-.33.2-.44.5a11.14,11.14,0,0,1-3.6,5.38l-.09-.12a12.23,12.23,0,0,0,3.22-5.72h-2.08a2.31,2.31,0,0,0-.72.12l-.3-.4a7.27,7.27,0,0,0,.78,0h2.26l.33-.49Zm5.91,5.29-.37,0a.89.89,0,0,0-.79.31s0,.06-.09.06a.12.12,0,0,1-.08,0c-1.91-1.76-2.82-3.36-3.52-6.78v6.82c0,.84-.12,1.1-.79,1.31h-.06s0,0-.06-.07c0-.31-.24-.51-1.37-.8l0-.18a9,9,0,0,0,1.37.22c.37,0,.38-.15.38-.48V98.36c0-.44,0-1.18,0-1.58l.88.45s.06,0,.06,0,0,0-.06.06l-.33.22v.54a21,21,0,0,0,.95,3,21.64,21.64,0,0,0,2.11-2.37l.66.6c.07.06.09.09.09.12s0,0-.19,0a.71.71,0,0,0-.51.18l-2.08,1.65c1.12,2.56,2.41,3.55,3.82,3.83Z"/><path d="M116,6.65c0,1.26.12,1.63.44,1.8.05,0,.09.05.09.09a.24.24,0,0,1,0,.08c-.32.65-.48.75-1.14.82a13.68,13.68,0,0,1-1.46.08c-1.51,0-1.7-.22-1.7-1V4.63h-1.66c0,2.9-.38,4.14-3.64,5.42l-.07-.14c2.69-1.42,3.2-2.23,3.2-5.28h-2.19a2.31,2.31,0,0,0-.72.12l-.3-.4a7.27,7.27,0,0,0,.78.05h3.79V1.58c0-.45,0-1.18,0-1.58l.79.44c.07,0,.1.08.1.13a.13.13,0,0,1-.07.11l-.27.24V4.4h.48a26.52,26.52,0,0,0,2-3.29l.7.53a.15.15,0,0,1,.05.08s0,.05-.09.06a.88.88,0,0,0-.48.3l-1.9,2.32h2.52l.48-.66.72.66a.24.24,0,0,1,.1.16s0,.07-.17.07h-3.6V8.47c0,.52.33.56.85.56s1.26,0,1.55-.06c.51-.07.71-.21.71-2.32Zm-7.67-5.42c1,.63,1.78,1.42,1.78,1.7s-.13.72-.37.72-.18-.07-.26-.36a4.39,4.39,0,0,0-1.24-1.93Z"/><path d="M117.44,2.51c1,.22,1.77.52,1.77,1.2,0,.28-.17.45-.35.45s-.16-.11-.21-.27c-.13-.42-.35-.81-1.25-1.27Zm3.48-1c-1,2.92-1.46,4.33-1.68,5.07a3.8,3.8,0,0,0-.13.94,4.58,4.58,0,0,0,.09.83,3.6,3.6,0,0,1,.07.58c0,.46-.17.65-.39.65s-.31-.2-.31-.67c0-.16.12-1,.12-1.15,0-.78-.21-.82-1.25-1l0-.16H118c.65,0,.75-.11.93-.56l1.84-4.58ZM118.27.41c1,.18,1.44.4,1.63.77a.5.5,0,0,1,.08.28.47.47,0,0,1-.34.47c-.12,0-.16-.05-.24-.32s-.35-.7-1.16-1.07Zm9.13.35c.08.05.11.09.11.13s-.06,0-.16,0h-2.64l-.54,1.34h1.62l.27-.42.68.46c.07,0,.09.07.09.09s0,0-.09.1l-.32.18v2a10.44,10.44,0,0,0,0,1.16s0,.09,0,.12,0,.19-.27.25a.73.73,0,0,1-.21,0c-.07,0-.08,0-.08-.11V5.75h-1.24v3.1c0,.79-.07.94-.61,1.14a.38.38,0,0,1-.13,0s-.06,0-.07-.1c-.07-.36-.2-.48-1.2-.77l0-.15a7,7,0,0,0,1.15.16c.32,0,.33-.13.33-.42v-3H123c0,.24,0,.27-.23.39a.77.77,0,0,1-.23.08c-.05,0-.08,0-.08-.15a1.7,1.7,0,0,1,0-.21,10.09,10.09,0,0,0,0-1.17V2.91c0-.26,0-.78,0-1.12l.6.49h.79a10.19,10.19,0,0,0,.23-1.34h-2.28l-.22,4.48a7.44,7.44,0,0,1-1.72,4.46l-.1-.08a9.22,9.22,0,0,0,1.39-5.21c0-1.28.1-3.07.12-4.46L122,.7h4.34l.38-.53ZM123.53,7s.06.06.06.08,0,0-.08,0-.29,0-.33.09a27.5,27.5,0,0,1-2,2l-.11-.1a15.33,15.33,0,0,0,1.81-2.6Zm2.39-3.22V2.52H123V3.81Zm0,1.7V4.05H123V5.51Zm-.51,1.22c1.36.78,1.93,1.3,1.93,1.91,0,.36-.22.59-.38.59s-.21-.11-.25-.33a3.6,3.6,0,0,0-1.38-2.07Z"/><path d="M13.82,100.77s.07.07.07.11,0,.05-.1.07c-.25.08-.31.2-.37.51a15.09,15.09,0,0,1-.75,2.86c.31.39.76,1,1,1.36a1.3,1.3,0,0,1,.24.7c0,.25-.12.43-.28.43s-.25,0-.49-.76a5,5,0,0,0-.67-1.23,9.53,9.53,0,0,1-2.57,3.47l-.11-.09a13,13,0,0,0,2.37-3.81,19.77,19.77,0,0,0-1.65-2l.11-.12a16.32,16.32,0,0,1,1.71,1.62,12.44,12.44,0,0,0,.59-3L11,101a2,2,0,0,0-.66.12l-.28-.38a4.23,4.23,0,0,0,.79,0l2-.06.38-.52Zm3.22.76c.07,0,.1,0,.1.08s0,0-.08.09l-.25.21a17.8,17.8,0,0,1-.45,3.54,6.14,6.14,0,0,1-3.56,3.86l-.11-.13a6.54,6.54,0,0,0,3.38-4.38,17.26,17.26,0,0,0,.2-3c0-.25,0-.5,0-.73Zm2-1.29a.09.09,0,0,1,0,.08s0,0-.05.06l-.4.22v2.78c0,.82,0,1.28,0,1.76v.07c0,.14,0,.18-.26.27a.66.66,0,0,1-.22.06c-.07,0-.09-.05-.09-.16v-.13c0-.39,0-.7,0-1.32v-3.55H15v3.81c0,.14,0,.82,0,1s0,.15-.28.28a.38.38,0,0,1-.17.06c-.06,0-.09-.06-.09-.2v-.12c0-.38,0-.82,0-1.21v-2.94c0-.4,0-1.06,0-1.43l.64.52H18l.32-.48Zm.42,6c0,.21,0,.38,0,.53,0,.75.09.91.33,1a.11.11,0,0,1,.07.11.13.13,0,0,1,0,.06c-.21.6-.57.8-1.55.8-1.6,0-1.66-.06-1.66-1v-2.55c0-.34,0-.57,0-.78l.77.37s.06,0,.06.07,0,0-.06.07l-.25.19v2.45c0,.69.05.71,1.17.71.79,0,.88,0,1-2.1Z"/><path d="M25.72,102.21c.05,0,.07.05.07.07s0,.07-.13.1a.75.75,0,0,0-.42.4,8.65,8.65,0,0,1-4.64,4.11l0-.14a8.78,8.78,0,0,0,4.35-4.46H23.22a11.39,11.39,0,0,1-2.28,2.51l-.09-.11a14,14,0,0,0,2.45-3.5l.61.35c.05,0,.07,0,.07.07s0,0-.09,0c-.22,0-.24.06-.5.39h1.5l.21-.27Zm-1.6,4.93q.09.06.09.09s0,0-.1,0a1,1,0,0,0-.57.27,19.66,19.66,0,0,1-2.55,1.8l0-.15a14.28,14.28,0,0,0,2.54-2.46Zm6-6.49c.06,0,.11.09.11.11s-.05,0-.12,0c-.36,0-.62.23-1.09.83l-.13-.06.34-.74H22c0,.65-.18,1.33-.75,1.33-.15,0-.32-.08-.32-.25a.32.32,0,0,1,.18-.25c.3-.15.57-.61.71-1.44H22c0,.13,0,.25,0,.37h7.06l.34-.47Zm-7.87,3.11c.58.43.72.63.72.87s-.15.43-.28.43a.22.22,0,0,1-.22-.2,1.91,1.91,0,0,0-.29-1Zm6.11,2.32a.3.3,0,0,1,.06.09s0,0-.09,0H26v2.15a1,1,0,0,1-.7,1.12l-.05,0s-.06,0-.07-.08c0-.32-.2-.56-1.22-.85l0-.15a7.44,7.44,0,0,0,1.22.16c.27,0,.29-.08.29-.21V106.2H23.88a2.5,2.5,0,0,0-.7.11l-.29-.39c.25,0,.52,0,.76,0h3.69l.38-.51ZM23,102.8c.48.17,1,.39,1,.78,0,.18-.13.35-.24.35a.21.21,0,0,1-.17-.13,1.74,1.74,0,0,0-.62-.88Zm4.21,2c.05,0,.08.09.08.12s0,0-.13,0H25a1.69,1.69,0,0,0-.62.09l-.29-.37a6.56,6.56,0,0,0,.76,0h1.53l.37-.48Zm-2.56-5.62c1,.31,1.29.62,1.29,1s-.12.41-.28.41-.23-.1-.27-.27a1.9,1.9,0,0,0-.78-1Zm6.1,6.31c-.59,0-.75.17-.94.48a.07.07,0,0,1-.06,0l-.09,0a6.46,6.46,0,0,1-3.92-4.75l.15,0a8.18,8.18,0,0,0,.32.87h2l.27-.39.63.47c.05,0,.08.08.08.1s0,0-.1.06c-.33.08-.58.23-1.77,1.55a5.23,5.23,0,0,0,3.39,1.5Zm-2.52-3.2H26.31a5.87,5.87,0,0,0,.94,1.44Zm-1.35,4.57A5.56,5.56,0,0,1,29.46,108a.68.68,0,0,1,.14.41c0,.19-.11.36-.24.36s-.2,0-.33-.2a5.89,5.89,0,0,0-2.2-1.59Z"/><path d="M41.42,103a.24.24,0,0,1,.07.11s0,0-.13,0H37.05q-1,.84-2,1.59H38.5l.35-.49.67.53s.06.07.06.09,0,0-.08.09l-.3.18v2.59c0,.2,0,1.19,0,1.25s0,.19-.27.29l-.21.06c-.06,0-.08-.05-.08-.14v-.76H34.52V109c0,.15,0,.2-.2.27a.53.53,0,0,1-.23.07c-.07,0-.09-.07-.09-.25s0-1.36,0-1.45v-2.27a21.08,21.08,0,0,1-2.6,1.48l-.08-.15c1-.6,1.87-1.19,2.68-1.75l0-.69.48.36c.71-.52,1.35-1,1.92-1.52H32.28a2.73,2.73,0,0,0-.73.11l-.3-.39a5.32,5.32,0,0,0,.79,0h3.52v-1.75H33.62a2.39,2.39,0,0,0-.69.1l-.3-.39a4.93,4.93,0,0,0,.76,0h2.17v-.66c0-.42,0-.68,0-1.06l.72.3c.07,0,.1.06.1.09s0,0-.05.07l-.24.21v1h1l.38-.55.62.67s0,0,0,.07,0,0-.07,0h-2v1.75h.63a20.45,20.45,0,0,0,2.86-3l.62.46s.07,0,.07.07,0,0-.08.06c-.32.08-.36.1-.49.23-.74.75-1.53,1.48-2.34,2.18h2.92l.49-.65Zm-2.73,3.42v-1.44h-4l-.16.11v1.33Zm0,1.77v-1.54H34.52v1.54Z"/><path d="M22.71,43.56l.06,0-.06.06c-.12.06-.17.2-.16.41a7.46,7.46,0,0,1-1,4.19l-.09,0a8,8,0,0,0,.71-4.31l-1.3.47a1.44,1.44,0,0,0-.42.24l-.28-.18c.17-.05.35-.1.5-.16l1.42-.51.09-.38Zm4.9,2-.23.07c-.25.09-.38.21-.42.37s0,0,0,.06a.09.09,0,0,1-.07,0,7.2,7.2,0,0,1-3.75-3.44l1.55,4.27c.2.53.18.72-.19,1l0,0s0,0-.06,0-.26-.27-1-.18l0-.12a6.65,6.65,0,0,0,.91-.18c.23-.09.2-.18.13-.39L22.68,42.4c-.1-.28-.28-.73-.39-1l.66.08a0,0,0,0,1,0,0s0,0,0,.06l-.16.21.13.33a13.28,13.28,0,0,0,1.27,1.66,14.82,14.82,0,0,0,.79-2l.55.23a.14.14,0,0,1,.08.06s0,0-.12.06a.43.43,0,0,0-.27.23l-.93,1.5c1.28,1.35,2.32,1.67,3.26,1.53Z"/><path d="M32.49,39.44c.06,0,.09,0,.09.05s0,0,0,.09l-.16.22.37,1c.14.38.25.63.38.93v0c0,.1,0,.13-.11.25a.36.36,0,0,1-.12.09s-.06,0-.08-.07l-.12-.34-1.95.71.41,1.13c.18.52.38,1,.51,1.32l0,0c0,.09,0,.13-.11.24a.64.64,0,0,1-.13.1s-.09,0-.13-.13l0-.07c-.13-.4-.35-1-.49-1.4l-.4-1.11-1.95.71.12.33c0,.1,0,.12-.08.23a.44.44,0,0,1-.13.09s-.06,0-.1-.1l0-.1c-.07-.23-.19-.58-.29-.87l-.43-1.16c-.05-.16-.18-.48-.27-.69l.61.15,1.8-.66-.22-.59c-.1-.27-.28-.73-.38-1l.67.09c.07,0,.1,0,.11,0s0,.06,0,.11l-.16.23.35,1,1.8-.66.11-.43Zm-2.12,3-.64-1.77-1.92.7,0,0,.63,1.74Zm2.3-.84L32,39.81l-2,.71.64,1.76Z"/><path d="M35.06,37.14c.06,0,.09,0,.1,0s0,.05,0,.09a.47.47,0,0,0-.15.34q-.09.81-.18,1.41l.42,0s0,0,0,0,0,0,0,.06l-.14.18,1,2.69c.15.42.28.77.41,1.06l0,.06c0,.09,0,.12-.1.23a.36.36,0,0,1-.12.09s-.07,0-.11-.12l0-.07c-.13-.41-.26-.8-.39-1.15l-1-2.82a8.69,8.69,0,0,1-.47,1.91l-.1,0a16.79,16.79,0,0,0,.37-4.2Zm5,.76c.08,0,.11.05.12.08s0,0-.1.07l-2.75,1,.06,1.1,1.87-.68.14-.37.52.21c.06,0,.09,0,.1.06s0,0-.1.1a.51.51,0,0,0-.18.21c-.23.44-.53,1.16-.69,1.58.66.1.94.23,1,.51s0,.28-.08.32-.14,0-.39-.18a5.22,5.22,0,0,0-2.28-.55v-.12a8.35,8.35,0,0,1,1.52,0l.46-1.63-1.81.66-.11.26c0,.05,0,.08-.07.08s-.07,0-.13,0l-.43-.2.28-.33L37,39.18l-.94.34a1.32,1.32,0,0,0-.42.24l-.28-.18.5-.16L37,39,37,37.74l-1,.36a1.49,1.49,0,0,0-.43.24l-.28-.18.51-.15,1.17-.43c0-.32-.12-1.14-.16-1.44l.5.1c.07,0,.12,0,.13.06s0,.06-.18.25l.05.91L38.6,37l.15-.46.54.21c.08,0,.13.06.14.08s0,.05-.11.08l-2,.74.07,1.27,2-.74.15-.47Z"/><path d="M42.93,36.89l-.73.92L43,40.08c.21.59.22.62-.13,1l0,0s0,0-.06-.05c-.12-.21-.33-.26-.91-.2v-.1a6.06,6.06,0,0,0,.72-.17c.21-.08.2-.16.14-.33L42,38.11c-.45.56-.5.64-.52.77a.22.22,0,0,1,0,.08l-.06,0-.38-.2.89-.9-.5-1.38L41,36.6a1.78,1.78,0,0,0-.43.24l-.27-.16.5-.15.56-.2-.21-.57c-.1-.27-.28-.72-.38-1l.55.12c.07,0,.1,0,.11,0s0,0-.15.2l.39,1.06.33-.12.14-.42.46.2a.33.33,0,0,1,.11.07s0,.05-.09.07l-.9.33.45,1.24.74-.75Zm2-1.15a2.82,2.82,0,0,0,2.3.43l0,.09c-.27.11-.39.21-.44.4a.05.05,0,0,1,0,.05,3.6,3.6,0,0,1-2-.93l-.16.06c.17.47.32.86.44,1.13v0c0,.11,0,.14-.1.26a.48.48,0,0,1-.11.08c-.05,0-.07,0-.11-.13l0-.06c-.11-.34-.26-.78-.38-1.13a7.49,7.49,0,0,1-1.54,2.56l-.09-.07A7.35,7.35,0,0,0,44,36.08l-.91.33a1.49,1.49,0,0,0-.43.24l-.27-.16.5-.15,1.4-.51-.46-1.28c-.61.29-1.19.53-1.58.68l-.05-.1a28.1,28.1,0,0,0,3-1.72l.39.21s.06,0,.06.06,0,0,0,0h0a.76.76,0,0,0-.21.05l-.34.16c-.29.16-.59.31-.9.46l.48,1.31,1.22-.44.14-.44.51.22q.09,0,.09.06s0,0-.07.06Zm-2.26-.53c.37,0,.85.08,1,.41a.24.24,0,0,1-.09.32c-.09,0-.12,0-.17-.08a1.39,1.39,0,0,0-.73-.57Zm4.12,1.69s.06,0,.07,0,0,0-.14.22l.38,1.06c.15.41.26.68.35.87v0c0,.08,0,.11-.1.21a.35.35,0,0,1-.11.09s-.06,0-.08-.07l-.09-.25L44.6,40l.07.2c0,.09,0,.12-.07.22l-.12.09s-.06,0-.08-.07-.29-.85-.35-1l-.34-.93-.26-.65.35.07L46.2,37l.06-.28Zm-1.54,1.55L45,37.64,43.88,38l.3.81Zm.38,1-.33-.9L44.22,39l.33.9Zm-.08-5.19s.06,0,.06,0,0,0-.06.06-.18.17-.51,1l-.09,0a7.92,7.92,0,0,0,.18-1.14Zm1.1,3.65-.29-.81-1.09.4.29.81ZM47,39l-.33-.9-1.09.39.33.91Z"/><path d="M53.44,33c.05,0,.09.05.09.07s0,0-.06.06l-3.06,1.12.77,2.11.7-.39,0,.1-.67.44.15.42c.12.34.19.49.24.63l0,0c0,.09,0,.11-.09.2a.36.36,0,0,1-.12.09s-.06,0-.08-.07l-.28-.79L51,36.74l-1.5,1a1.82,1.82,0,0,0-.53.48.05.05,0,0,1,0,0l0,0-.4-.29.88-.5L48.44,35l-.35.13a1.32,1.32,0,0,0-.42.24l-.29-.18.51-.15,5-1.81.12-.42Zm-1.69-1.88s.08,0,.08,0,0,0,0,.09l-.17.19.24.65a5.76,5.76,0,0,0,.26.62s0,0,0,.07,0,.12-.11.22a.36.36,0,0,1-.12.09s-.05,0-.1-.13l-3,1.09c.05.13.05.14-.08.25a.48.48,0,0,1-.11.08s-.08,0-.1-.09-.17-.54-.18-.58L48.07,33c-.06-.16-.19-.48-.28-.69l.5.14,2.84-1,.1-.33Zm-.26.92-.21-.58-3,1.08.22.59Zm.28.77-.23-.62-3,1.09.23.62ZM50.33,35l-.22-.61-1.36.49.22.62Zm.29.8-.23-.65-1.36.5.23.64Zm.28.76L50.68,36l-1.36.49.3.83ZM53.22,34a.19.19,0,0,1,.09,0s0,0-.05.08a.43.43,0,0,0-.11.34A5.76,5.76,0,0,1,53,35.9a3.5,3.5,0,0,0,1.89.14l0,.08a.7.7,0,0,0-.5.41s0,0,0,0a5.15,5.15,0,0,1-1.48-.39,5.11,5.11,0,0,1-1,1.39l-.07-.05A6.57,6.57,0,0,0,52.6,36a3.57,3.57,0,0,1-1.21-1.28,1.12,1.12,0,0,0-.3.2l-.28-.18.5-.16,1.36-.49.1-.31Zm-1.72.76a3.58,3.58,0,0,0,1.18,1.06,3.94,3.94,0,0,0,.11-1.53Z"/><path d="M57.2,32.25a.14.14,0,0,1,.08.06s0,0-.07.06l-1.08.39c.07.26.13.46.15.6.7.13,1.42.44,1.54.78.07.18,0,.37-.11.41s-.09,0-.2-.16a2.68,2.68,0,0,0-1.2-.89,4.11,4.11,0,0,1-.72,3l-.1,0a4.52,4.52,0,0,0,.33-3.58l-.76.27a1.44,1.44,0,0,0-.42.24l-.28-.18.5-.15.91-.33c-.18-.54-.37-1.07-.58-1.64l-.46.17A8,8,0,0,1,54.45,33l-.11,0a10.58,10.58,0,0,0,0-3.13l.57.1a.05.05,0,0,1,0,0,.15.15,0,0,1,0,.06.45.45,0,0,0-.14.26c0,.3,0,.57,0,.82l1.14-.41.14-.46.52.28.07.05s0,0-.07.06l-1,.37c.22.6.41,1.18.56,1.64l.46-.17L56.7,32Zm2.32-3.54a.18.18,0,0,1,.08.06s0,0-.07.06l-2.82,1a1.44,1.44,0,0,0-.42.24L56,29.91l.5-.15,2.35-.86.12-.46ZM59.75,30s0,0,0,0,0,0,0,.07l-.19.2.28.76c.14.38.19.5.25.64s0,0,0,.06,0,.13-.09.22a.43.43,0,0,1-.12.09s-.06,0-.16-.26l-1.86.68c.07.2.08.23,0,.34a.51.51,0,0,1-.12.09s-.07,0-.09-.07,0-.08,0-.13c-.06-.21-.15-.51-.24-.75l-.23-.63c-.09-.23-.19-.48-.28-.69l.5.13,1.71-.63.09-.35Zm0,1.66-.51-1.39-1.86.68.5,1.39Zm1.81,2.06s.07,0,.07.06,0,0-.07.06L58.23,35a1.32,1.32,0,0,0-.42.24l-.28-.18c.17-.05.34-.09.5-.15l1.83-.67c0-.59-.1-1.33-.18-1.9l.54.09.05,0a.09.09,0,0,1,0,0,.3.3,0,0,0-.12.19L60,34.22l.84-.31.15-.45Zm-3.43-.64a2.54,2.54,0,0,1,1,.83c.07.19,0,.41-.11.46s-.12,0-.2-.2a3.05,3.05,0,0,0-.73-1Z"/><path d="M63.42,28s.06,0,.07,0,0,0,0,.07l-.18.23,1,2.62c.19.51.35.93.48,1.22l0,0c0,.11,0,.14-.11.26s-.09.08-.11.08-.06,0-.08-.07L64.25,32l-1.46.53.24.64c0,.09,0,.12-.08.21a.29.29,0,0,1-.12.09s-.08,0-.12-.13l0,0c-.13-.39-.33-1-.46-1.33l-1-2.81c-.13-.34-.18-.45-.27-.65l.54.18.32-.11a12.35,12.35,0,0,0,0-1.51l.51.07c.06,0,.1,0,.11,0s0,0-.07.07a.3.3,0,0,0-.16.24l-.22,1.05.83-.3.11-.39ZM63.5,30l-.59-1.62-1.45.53L62,30.5Zm.7,1.91-.65-1.76-1.45.52.64,1.77ZM66.44,27c.06,0,.08,0,.08.05s0,0,0,.08l-.17.21c.59,1.77,1,3,1.14,3.57s.19.87-.22,1.35l0,0s0,0-.09-.06c-.16-.2-.35-.24-1-.18l0-.11a3.87,3.87,0,0,0,.86-.16c.33-.12.33-.31.21-.72-.17-.68-.61-2.09-1.17-3.73l-1.58.58a10.22,10.22,0,0,1-.3,1.85l-.09,0a16.22,16.22,0,0,0,.06-3.42l.47.05c.09,0,.13,0,.14.05s0,.06-.09.1-.1.12-.12.33,0,.62-.06.88l1.42-.52.08-.39Zm-1.92,2.07a2.08,2.08,0,0,1,1.17.43.75.75,0,0,1,.1.17c.07.18,0,.36-.08.4s-.15,0-.22-.11a2.37,2.37,0,0,0-1-.81Z"/><path d="M71.23,29.23l-1.64,1.28c-.31.24-.39.34-.42.46a.21.21,0,0,1,0,.07l0,0-.43-.3.52-.32L68.65,29l-.39-1,.55.07c.06,0,.09,0,.1,0s0,.05-.15.22l.69,1.89.54-.34L69,27l-.44.16,0,.11c0,.14-.15.29-.21.31s-.07,0-.1-.09-.19-.6-.23-.7L67.73,26c-.06-.16-.18-.48-.27-.69l.5.2,1-.37.07-.34.5.15a.13.13,0,0,1,.07.05.09.09,0,0,1,0,.08l-.14.18.28.78c0,.1.21.5.25.59s0,.13-.11.23a.36.36,0,0,1-.12.09s-.05,0-.13-.2l-.36.13.47,1.3.44-.16.11-.39.38.22s.08.05.08.08,0,0-.06.06l-.9.32.5,1.36.89-.55Zm-1.65-2.61-.48-1.34L68,25.69,68.46,27Zm4.75-.32c-.34.16-.46.29-.51.46s0,0,0,0a5.9,5.9,0,0,1-1.66-.38,6.28,6.28,0,0,1-.79,1.29l.34.13,1.48-.54.07-.34.51.14s.06,0,.07,0,0,.05,0,.09l-.12.18.36,1c.13.37.23.61.36.9l0,.05c0,.09,0,.14-.09.24a.51.51,0,0,1-.12.09s-.07,0-.09-.07l-.18-.49-1.62.59.15.4c0,.14-.16.29-.21.31s-.07,0-.1-.09l0-.1c-.06-.2-.2-.61-.29-.85l-.37-1c0-.13-.13-.33-.21-.51a11,11,0,0,1-.81.89l-.07-.09a9.94,9.94,0,0,0,1.5-2.35,4.38,4.38,0,0,1-1.15-1.05,10.57,10.57,0,0,1-.35,1.41l-.1,0a13.86,13.86,0,0,0,.23-2.72L71,24s.07,0,.07,0,0,.05-.22.21q0,.31-.09.57l1.49-.54.1-.31.52.16a.13.13,0,0,1,.09.05s0,.05,0,.09l-.22.2a7.71,7.71,0,0,1-.47,1.66,4.2,4.2,0,0,0,2.08.06ZM70.74,25s0,.05,0,.08A4.52,4.52,0,0,0,72,26a7,7,0,0,0,.36-1.59ZM73.87,29l-.57-1.55L71.68,28l.57,1.55Z"/><path d="M76.62,23.46s.07,0,.07.05,0,0,0,.07a.53.53,0,0,0-.18.26,27.24,27.24,0,0,1-.83,2.74l1.65-.93.06.1a7.15,7.15,0,0,0-1.68,1.33.12.12,0,0,1,0,.05l-.06,0-.4-.33a.91.91,0,0,0,.46-.68c.11-.41.22-.86.31-1.29a3.58,3.58,0,0,0-1.07.73l0,0-.07,0-.4-.27a.7.7,0,0,0,.36-.53,9.61,9.61,0,0,0,.2-2.27l.52.11s.08,0,.09,0,0,0-.05.07a.48.48,0,0,0-.16.25c-.17.8-.35,1.52-.55,2.19l1.2-.5a9.6,9.6,0,0,0,.17-1.32Zm1.46,3.07-1.17,1.1a3.09,3.09,0,0,0-.74.89s0,0,0,0,0,0-.06,0l-.4-.26L78,26.45Zm3.14-1.45c.08.28.15.5.22.68a1.55,1.55,0,0,0,.49.81.36.36,0,0,1,.15.16c0,.07,0,.11-.1.13a3.35,3.35,0,0,1-2.47-.65,10.24,10.24,0,0,1-1.9,2.2l-.07-.08A11.33,11.33,0,0,0,79.28,26a4.84,4.84,0,0,1-.92-1.23l-.61.36a1.28,1.28,0,0,0-.38.29L77,25.34l.45-.23.8-.46c-.15-.29-.29-.62-.46-1l-.33.18a2,2,0,0,0-.38.3L76.8,24a3.15,3.15,0,0,0,.46-.22l.5-.28c-.25-.61-.52-1.27-.77-1.9l.6,0s.07,0,.07,0,0,0,0,.07l-.13.18c.17.49.34.94.53,1.43l1.44-.82.08-.42.62.14.06,0s0,0,0,.05L78.1,23.5a7.74,7.74,0,0,0,.46,1L80,23.65l.12-.5.62.16s.07,0,.08,0,0,0-.06,0l-2.17,1.25a4.8,4.8,0,0,0,.81,1.09A5.31,5.31,0,0,0,80,24.32l.54.09s.07,0,.07,0,0,0-.06.07a.74.74,0,0,0-.24.28c-.2.43-.4.81-.6,1.15a3.13,3.13,0,0,0,1.65.56l-.2-1.39Zm-3.1-3.55c.79,0,1,.06,1.11.32a.23.23,0,0,1-.1.32c-.06,0-.1,0-.18-.1a2.18,2.18,0,0,0-.84-.47Z"/><path d="M13.81,80.81a.1.1,0,0,1,.09,0s0,0,0,.1l0,.25.53.44A5,5,0,0,0,15,82L15,82c.06.06.06.1,0,.25a.38.38,0,0,1-.06.14s-.05,0-.15-.06l-2,2.47c.12.09.12.1.07.26a.53.53,0,0,1-.06.13s-.07,0-.13,0-.42-.37-.45-.4l-.66-.53c-.13-.11-.41-.32-.59-.45l.5-.13,1.9-2.35L13.3,81Zm.25.92-.49-.39-2,2.48.48.39Zm2.16-.18a.19.19,0,0,1,.12,0s0,0,0,.09l-2.05,2.53L16,85.6l.4-.7.08.07-.35.73.34.28.54.41,0,0c.07,0,.07.09,0,.22a.48.48,0,0,1-.06.14s-.05,0-.1,0l-.65-.54L16,86l-.78,1.62a1.6,1.6,0,0,0-.2.68s0,0,0,0H15l-.5,0,.51-.88-2-1.63-.23.29a1.55,1.55,0,0,0-.25.42h-.33a4.1,4.1,0,0,0,.35-.39L15.82,82l-.11-.43Zm-1.53.7-.51-.42-2,2.48.51.41Zm-.11,2.59-.51-.41-.91,1.12.51.42Zm.66.54-.54-.44-.91,1.13.54.43Zm.62.5-.5-.4-.91,1.12.68.55Zm.65-3.43a.16.16,0,0,1,.1,0s0,0,0,.09,0,.18.08.34a5.83,5.83,0,0,1,.59,1.38A3.63,3.63,0,0,0,19,83.4l.05.06a.74.74,0,0,0-.21.61.07.07,0,0,1,0,.05,5.27,5.27,0,0,1-1.48.42,5,5,0,0,1-.12,1.7h-.09a6.5,6.5,0,0,0-.06-1.68,3.46,3.46,0,0,1-1.69-.48,1.11,1.11,0,0,0-.16.33h-.34q.2-.2.36-.39l.91-1.13-.07-.31ZM15.43,84a3.48,3.48,0,0,0,1.56.29,4.24,4.24,0,0,0-.7-1.37Z"/><path d="M16.7,79.05c.61-.35,1-.47,1.3-.25.12.11.17.26.11.34s-.16.07-.33,0a1.44,1.44,0,0,0-1,0l2.56,2.06c.42.35.85.68,1.11.87l0,0c.09.07.09.11.05.25a.57.57,0,0,1-.06.15s-.08,0-.17-.06l-.05,0c-.32-.28-.82-.69-1.14-1L16.06,79l-.84-.64.5-.21c.07,0,.11,0,.13,0a1.14,1.14,0,0,1,0,.28Zm-.38.7c.18.13.32.23.45.34.38.31.54.53.58.74a.51.51,0,0,1-.07.39.14.14,0,0,1-.22,0A.33.33,0,0,1,17,81a1.66,1.66,0,0,0-.69-1.14Zm7.28-1.84a.78.78,0,0,0-.27.66s0,.05,0,.06a.09.09,0,0,1-.06,0,4.16,4.16,0,0,1-3.17-.35l-.1.13a3.55,3.55,0,0,1,.9,3.83h-.1a3.66,3.66,0,0,0-1-3.56l-.71.88a1.8,1.8,0,0,0-.24.42H18.5l.35-.39.82-1a17.7,17.7,0,0,0-1.47-1.3l-.46.57a1.24,1.24,0,0,0-.24.43l-.34,0,.35-.39.56-.7-1.16-.93.54-.27c.05,0,.08,0,.09,0s0,0,0,.29c.29.24.55.46.77.66L19,76.1l-.12-.36.54-.17a.12.12,0,0,1,.1,0,.17.17,0,0,1,0,.11V76l1.41,1.14.2-.25-.1-.45.51,0c.08,0,.13,0,.15,0s0,.05,0,.11l-1.43,1.76a3.13,3.13,0,0,0,3.34-.37Zm-2.93-.55-1.53-1.23-.72.88c.61.53,1,.93,1.46,1.33Z"/><path d="M22.2,72.12h.08s0,0,0,.09l0,.28,2.17,1.76c.42.34.78.61,1,.8l0,0c.08.07.09.11,0,.28a.54.54,0,0,1-.06.13s-.06,0-.1,0L25,75.12l-1,1.2.53.43c.07.06.08.09,0,.22s0,.12-.06.14-.08,0-.17,0l0,0c-.31-.27-.78-.66-1.08-.9l-2.33-1.88a6.16,6.16,0,0,0-.56-.43l.56-.12.21-.26a10.27,10.27,0,0,0-.81-1.27l.47-.21c.06,0,.1,0,.11,0s0,0,0,.09a.29.29,0,0,0,0,.29l.35,1,.56-.69-.11-.4Zm1.06,1.62-1.33-1.08-1,1.2,1.33,1.08Zm1-4.07c.05,0,.08,0,.1,0s0,0,0,.08l0,.27c1.42,1.21,2.36,2,2.81,2.47s.62.64.51,1.27v0s-.05,0-.11,0c-.24-.09-.43,0-1,.37l-.08-.08a4.52,4.52,0,0,0,.66-.57c.22-.28.11-.44-.19-.74-.51-.49-1.6-1.47-2.93-2.59l-1.06,1.31a9.51,9.51,0,0,1,.7,1.75l-.09,0a15.84,15.84,0,0,0-1.71-3l.44-.2c.07,0,.12,0,.14,0s0,.06,0,.13,0,.15.06.34.29.55.4.79l.95-1.18-.13-.37Zm.6,5.35-1.46-1.18-1,1.2,1.46,1.18Zm-1.18-2.6a2,2,0,0,1,1.22-.23.77.77,0,0,1,.18.1c.15.12.2.3.14.38s-.13.08-.25,0a2.46,2.46,0,0,0-1.27-.19Z"/><path d="M29.51,69.12l-.75,1.95c-.14.37-.16.49-.12.61a.11.11,0,0,1,0,.08h-.06l-.51,0,.28-.54-1.19-1c-.22-.19-.61-.49-.83-.64l.51-.23a.15.15,0,0,1,.11,0s0,0,0,.27l1.56,1.27.3-.58L26.42,68.4l-.3.36.09.07c.12.1,0,.33,0,.38s-.07,0-.14,0l-.55-.48-.64-.52c-.13-.11-.4-.32-.59-.45l.53-.09.69-.85-.12-.32.51-.13a.09.09,0,0,1,.09,0,.13.13,0,0,1,0,.08l0,.23.64.52.52.38c.08.06.08.1,0,.25a.31.31,0,0,1-.06.13s-.05,0-.21-.11l-.25.31,1.08.87.29-.36-.11-.39h.44l.11,0s0,0,0,.08l-.6.75,1.12.91.48-.93Zm-2.76-1.38-1.1-.9-.75.93,1.1.89ZM30.67,65c-.22.31-.25.48-.21.66,0,0,0,0,0,.06a5.32,5.32,0,0,1-1.61.52,7,7,0,0,1,0,1.52l.36-.06,1-1.23-.12-.32.51-.15a.07.07,0,0,1,.08,0s0,0,0,.08v.22l.82.66c.3.25.51.4.77.58l0,0c.08.07.09.11.05.25a.49.49,0,0,1-.06.14s-.07,0-.11,0l-.41-.33L30.68,69l.33.26c.12.1,0,.33,0,.38s-.07,0-.13,0l-.08-.07L30.1,69l-.86-.69c-.1-.09-.28-.22-.43-.34-.06.39-.14.79-.24,1.18l-.11,0a9.82,9.82,0,0,0,.08-2.79A4.48,4.48,0,0,1,27,66a10.34,10.34,0,0,1,.43,1.38l-.1,0a14.25,14.25,0,0,0-1.21-2.45l.51-.16s.07,0,.09,0,0,0-.08.29l.21.54,1-1.23-.07-.32.52-.13h.11s0,0,0,.1l-.09.29A7.55,7.55,0,0,1,28.79,66a4.14,4.14,0,0,0,1.81-1Zm-3.74.75a.24.24,0,0,0,0,.08,4.52,4.52,0,0,0,1.54.17A6.25,6.25,0,0,0,28,64.47Zm4.71,1.78-1.28-1-1.09,1.34,1.29,1Z"/><path d="M31.16,61.41c.05,0,.07,0,.09,0s0,0,0,.09a.54.54,0,0,0,0,.31,26.4,26.4,0,0,1,.7,2.77l.94-1.64L33,63a7,7,0,0,0-.76,2,.13.13,0,0,1,0,.07h-.07L31.6,65a.94.94,0,0,0,0-.82c-.11-.41-.25-.85-.4-1.27a3.74,3.74,0,0,0-.54,1.18s0,0,0,0,0,0-.06,0l-.49,0a.69.69,0,0,0,0-.64,10,10,0,0,0-1-2l.51-.18s.08,0,.09,0,0,0,0,.08a.44.44,0,0,0,0,.3c.27.78.48,1.49.66,2.17l.76-1.05a11.4,11.4,0,0,0-.53-1.22Zm4.78-1c.21.2.38.35.53.47a1.65,1.65,0,0,0,.85.45.32.32,0,0,1,.2.06c.06.05,0,.12,0,.16a3.34,3.34,0,0,1-2.45.71,10.26,10.26,0,0,1-.5,2.86l-.1,0a11.86,11.86,0,0,0,.31-2.87,4.6,4.6,0,0,1-1.43-.57l-.34.62a1.77,1.77,0,0,0-.18.44l-.34.09c.09-.14.18-.28.27-.44l.45-.8c-.28-.17-.57-.38-.91-.62l-.18.34a1.57,1.57,0,0,0-.18.44l-.34.05a4,4,0,0,0,.29-.43l.28-.5-1.64-1.23.53-.27c.05,0,.07,0,.08,0a.1.1,0,0,1,0,.07l0,.23c.4.33.77.63,1.19.95l.81-1.45L33,58.74l.59-.21s.06,0,.07,0,0,0,0,.06l-1.18,2.1a7.55,7.55,0,0,0,.9.61l.84-1.49L34,59.32l.6-.19c.06,0,.09,0,.1,0s0,0,0,.08L33.5,61.38a4.71,4.71,0,0,0,1.25.53,5.13,5.13,0,0,0-.28-1.49l.51-.2s.06,0,.07,0,0,0,0,.09a.7.7,0,0,0-.07.36,12.55,12.55,0,0,1,.08,1.3,3.14,3.14,0,0,0,1.71-.38l-.89-1.08ZM31.45,59c.68-.42.91-.48,1.12-.31s.15.25.08.33-.09.06-.21,0a2.14,2.14,0,0,0-1,0ZM34,63.28l-.43,1.55A2.91,2.91,0,0,0,33.38,66s0,0,0,.06a.08.08,0,0,1-.06,0l-.48,0,1.07-2.79Z"/><path d="M37.42,82.7c.95-.19,1.26,0,1.38.13a.34.34,0,0,1,0,.41c-.06,0-.14,0-.27-.09a1.46,1.46,0,0,0-1.1-.36Zm3.81-1s.07,0,.08,0,0,0,0,.08l-.1.25.54.72c.26.34.43.54.54.67l0,0s0,.09,0,.22a.4.4,0,0,1-.1.13s0,0-.18-.17l-2.58,2c.1.14.11.16,0,.3a.46.46,0,0,1-.09.12s-.07,0-.12-.06a.35.35,0,0,1-.06-.09c-.17-.25-.34-.48-.49-.69l-.52-.68c-.1-.14-.34-.44-.49-.61l.58,0,1.51-1.14L39.46,81,40,81c.07,0,.1,0,.11,0s0,0,0,.1-.15.22-.18,1.56l.83-.63,0-.37Zm.68,1.82-1-1.36-2.59,1.95,1,1.36Zm-2.55,3,.27.31c.72,1,.35,1.39.22,1.49a.21.21,0,0,1-.29,0,.34.34,0,0,1,0-.27,1.66,1.66,0,0,0-.26-1.46Zm3.2-1.87c.49.58.59.65.83.62,0,0,.07,0,.09,0a.34.34,0,0,1,0,.08c.12.44,0,.63-1.18,1.51-.87.65-1.08.79-1.38.39l-.7-.93c-.14-.18-.29-.37-.41-.5l.59-.12s0,0,0,0,0,0,0,0l-.09.21.72,1c.16.21.22.22.48.06a6.84,6.84,0,0,0,.62-.42A8.07,8.07,0,0,0,43,86c.21-.21.17-.33-.47-1.24Zm-2.06.46a2.5,2.5,0,0,1,1.2,0,.47.47,0,0,1,.17.14.32.32,0,0,1,0,.42c-.06,0-.14,0-.21-.05a2.36,2.36,0,0,0-1.16-.4ZM42.6,84c.84-.19,1.44-.17,1.64.11s.12.36,0,.42-.18,0-.28,0a2.39,2.39,0,0,0-1.38-.39Z"/><path d="M43.47,78.24c.06,0,.09,0,.11,0s0,0,0,.09a.47.47,0,0,0,0,.38c.1.53.17,1,.23,1.4l.42-.09h0s0,0,0,.07l-.08.21,1.73,2.29c.27.35.5.64.71.89l0,0c.06.07.06.11,0,.25l-.09.12s-.08,0-.14-.08l0-.06c-.25-.35-.49-.69-.71-1l-1.81-2.4a9,9,0,0,1,.11,2h-.11a16.33,16.33,0,0,0-.87-4.12Zm5-.76c.09,0,.13,0,.15,0s0,0-.07.1l-2.34,1.76.38,1,1.59-1.2,0-.4.56,0,.12,0s0,.07-.07.13a.62.62,0,0,0-.12.26c-.08.48-.16,1.26-.19,1.71.66-.1,1-.06,1.15.18s.11.26,0,.33-.13.06-.43-.06a5.25,5.25,0,0,0-2.34.14l0-.12A8.53,8.53,0,0,1,48.36,81l0-1.7L46.78,80.5l0,.29a.13.13,0,0,1,0,.1.31.31,0,0,1-.14,0l-.47-.06.17-.4L46,79.6l-.8.6a1.45,1.45,0,0,0-.34.36l-.32-.09c.15-.1.31-.2.44-.3l1-.72-.45-1.19-.83.63a1.6,1.6,0,0,0-.34.35L44,79.15l.44-.29,1-.75c-.12-.3-.44-1.06-.57-1.34l.51,0c.07,0,.12,0,.14,0s0,.06-.1.29l.32.86L46.81,77v-.49l.58,0c.09,0,.14,0,.16,0s0,0-.08.1L45.74,78l.44,1.2,1.73-1.31v-.49Z"/><path d="M50.92,75.7l-.43,1.09,1.45,1.93c.38.5.4.53.18,1l0,0s0,0-.07,0-.39-.15-.93.08l0-.1a5.64,5.64,0,0,0,.64-.37c.18-.14.15-.21,0-.36l-1.36-1.81c-.27.67-.29.76-.27.89s0,.07,0,.08H50L49.58,78l.59-1.11-.88-1.18-.35.26a1.6,1.6,0,0,0-.34.35l-.3-.07c.15-.1.3-.19.43-.29l.47-.36-.36-.48c-.17-.23-.47-.61-.65-.81l.57-.06c.06,0,.09,0,.11,0s0,0-.08.23l.68.9.28-.21v-.45l.5.06a.25.25,0,0,1,.12,0s0,0-.06.09l-.77.58.79,1,.49-.92ZM52.5,74a2.76,2.76,0,0,0,2.32-.26l0,.08c-.22.18-.31.32-.29.5s0,0,0,.06a3.63,3.63,0,0,1-2.18-.3l-.13.11c.29.39.55.72.75,1l0,0c.06.09.06.13,0,.27a.48.48,0,0,1-.08.12s-.08,0-.15-.09l0,0c-.2-.3-.48-.68-.7-1a7.42,7.42,0,0,1-.72,2.9l-.1,0a7.78,7.78,0,0,0,.49-2.7l-.78.58a1.45,1.45,0,0,0-.34.36l-.3-.08a4.61,4.61,0,0,0,.43-.29l1.19-.9-.82-1.08c-.49.45-1,.86-1.31,1.11l-.07-.08a29.68,29.68,0,0,0,2.37-2.52l.43.09a.15.15,0,0,1,.08,0s0,0,0,0l-.05,0a.65.65,0,0,0-.18.11,2.64,2.64,0,0,0-.29.25c-.23.23-.47.47-.72.7l.84,1.12,1-.78v-.47l.54.07.12,0s0,0-.06.08Zm-2.32.16c.36-.09.83-.17,1,.1s.09.28,0,.34-.12,0-.19,0a1.4,1.4,0,0,0-.87-.33Zm4.43.41s.07,0,.08,0,0,0-.07.26l.68.9c.26.35.45.57.58.73l0,0c.05.07,0,.1,0,.23a.48.48,0,0,1-.08.12s-.06,0-.1,0l-.16-.21-2.1,1.58.12.17c.06.08.07.1,0,.23a.5.5,0,0,1-.09.12s-.06,0-.09,0-.53-.72-.64-.86L52.14,77l-.44-.55.35,0,2-1.54,0-.29Zm-1,1.92-.52-.68-.91.69.51.68Zm-.93-4s.06,0,.07,0,0,0-.05.07-.12.21-.19,1.11h-.09a10.1,10.1,0,0,0-.16-1.14Zm1.59,4.94-.58-.78-.92.69.59.78Zm.53-1.78-.52-.69-.93.71.52.68Zm.66.88-.58-.77-.93.7.58.77Z"/><path d="M57.76,71.89c.06,0,.09,0,.1,0s0,0,0,.08l-.87.66.85,1.12.64-.81.08.08L57.4,74.79a1.21,1.21,0,0,0-.27.63s0,0,0,0,0,0-.06,0l-.46-.14.35-.44L56,73.6c-.17-.24-.48-.62-.65-.83l.53-.07c.07,0,.11,0,.13,0s0,0-.08.25l1.25,1.65.44-.55-1.92-2.55-.4.31.13.18c.06.08.06.1,0,.23a.35.35,0,0,1-.09.12s-.07,0-.13,0-.34-.52-.41-.61l-.57-.75c-.11-.14-.32-.41-.47-.58h.53l.9-.68v-.36h.51c.05,0,.08,0,.09,0s0,0,0,.09l-.07.21.31.42c.26.33.4.51.62.76l0,0c.06.08,0,.13,0,.25s-.06.11-.09.12-.06,0-.1,0L56.3,71l-.36.27.93,1.24.41-.3,0-.45Zm-1.56-1-.87-1.16-1,.77.87,1.16ZM62,71.5a.19.19,0,0,1,.1,0s0,0,0,.07l-2.19,1.65v.26s0,.08,0,.09,0,0-.08,0l-.54,0,.1-.34-2.71-3.59c-.23-.3-.58-.75-.76-1l.59,0,1.56-1.18v-.48l.58.08.12,0s0,.06-.06.1L56.54,68.9l.92,1.22,1.31-1,0-.34.55,0c.05,0,.08,0,.09,0s0,0,0,.11l-.08.22.64.86c.16.21.28.35.42.52l0,0c.06.08,0,.11,0,.25a.48.48,0,0,1-.08.12s-.07,0-.1-.05l-.13-.17-1.4,1,1.11,1.48,1.66-1.26,0-.5Zm-2.09-1-1-1.33-1.4,1,1,1.34Z"/><path d="M64.68,63.07a.2.2,0,0,1,.13,0s0,.07-.06.11L63,64.52l.41.08.06,0s0,0,0,.06a.45.45,0,0,0-.17.21,6.22,6.22,0,0,1-.28.79c.81-.15,1-.14,1.15,0s.07.19,0,.23-.09,0-.4,0a5.76,5.76,0,0,0-.9,0,12.94,12.94,0,0,1-.71,1.4l-.09,0c.17-.41.37-.85.52-1.32-.45,0-.85.15-1.19.22l0-.09a8.07,8.07,0,0,1,1.31-.42A4.94,4.94,0,0,0,63,64.58l-2.9,2.18a1.35,1.35,0,0,0-.33.35L59.4,67a4.61,4.61,0,0,0,.43-.29L64,63.56V63Zm1.6,2.77.06,0s0,0-.07.25l1,1.38c.24.31.27.4,0,.82l0,0s0,0-.08,0-.33-.12-1,.15l0-.09c.37-.22.59-.35.73-.45s.16-.21.06-.35l-1-1.36L63.77,67.9c0,.39,0,.76-.06,1.18l1.73-1.37a2.37,2.37,0,0,0-.85-.13V67.5c.88-.19,1.27-.1,1.41,0l0,.06c.12.15.13.34,0,.41s-.13,0-.24-.06a1.11,1.11,0,0,0-.27-.17c-1.39,1.28-1.63,1.55-1.67,1.72a0,0,0,0,1,0,0s0,0-.06,0l-.41-.15c.15-.19.27-.5.16-1.29l-1.26,1,.87,1.15c.2.27.38.5.51.65s-.12.4-.13.41-.06,0-.1,0l-.55-.83-.73-1c-.15-.2-.25-.33-.4-.5l.45,0,1.32-1a5.7,5.7,0,0,0-.21-.86l-1.25,1v.23a.08.08,0,0,1,0,.05l-.05,0-.48,0L61.6,68l-.54-.73a5.12,5.12,0,0,0-.36-.43l.56-.07a.09.09,0,0,1,.08,0s0,0-.07.24l.64.86,3-2.29-.62-.83c-.15-.19-.25-.33-.36-.45l.51-.09a.15.15,0,0,1,.1,0s0,0,0,.23l.54.72.37.42c.07.1-.1.36-.12.37s-.06,0-.1-.05L65,65.74,63.43,67l.36,0,.06,0s0,0,0,.09a.35.35,0,0,0-.06.22v.39l2-1.47,0-.41Zm-5.2-1.31c.75-.28,1-.3,1.17-.09a.36.36,0,0,1,0,.45.18.18,0,0,1-.21,0,1.55,1.55,0,0,0-.95-.23Z"/><path d="M69.18,59s.08,0,.09,0,0,0,0,.09l-.1.24.42.55a5.5,5.5,0,0,0,.43.51l0,.06c0,.07,0,.11,0,.24a.65.65,0,0,1-.09.13s-.06,0-.13-.1l-2.55,1.91c.09.12.09.13,0,.27l-.08.11s-.08,0-.13-.06l-.34-.5-.51-.67c-.1-.14-.31-.41-.46-.58h.52l2.41-1.82V59Zm2.16,1.3c.06,0,.1,0,.11,0s0,0,0,.07l-2.6,2,1.36,1.8.55-.57.06.08-.52.62.27.35.42.54,0,0c0,.07,0,.11,0,.22a.31.31,0,0,1-.09.12s0,0-.09,0l-.5-.68-.22-.28-1.14,1.38a1.61,1.61,0,0,0-.36.61s0,0,0,0,0,0-.06,0L68,66.42l.7-.74-1.56-2.07-.3.23a1.6,1.6,0,0,0-.34.35l-.32-.09c.15-.1.31-.19.44-.29l4.21-3.18v-.44Zm-2.14-.34-.38-.5-2.54,1.92.37.49Zm.49.65-.4-.53L66.75,62l.4.53ZM69,63.07l-.39-.52-1.16.87.39.52Zm.51.68L69,63.2l-1.15.87.41.55Zm.49.64-.39-.51-1.16.87.53.7Zm1.46-3.17a.14.14,0,0,1,.09,0s0,0,0,.09a.4.4,0,0,0,0,.35,5.29,5.29,0,0,1,.24,1.48,3.63,3.63,0,0,0,1.85-.42l0,.06a.74.74,0,0,0-.36.54.08.08,0,0,1,0,0,5.31,5.31,0,0,1-1.54,0,4.91,4.91,0,0,1-.52,1.62l-.09,0a6.89,6.89,0,0,0,.35-1.65,3.42,3.42,0,0,1-1.53-.87,1.14,1.14,0,0,0-.23.28l-.33-.09c.16-.1.31-.2.44-.3l1.16-.87v-.32ZM70,62.45a3.49,3.49,0,0,0,1.44.67,4,4,0,0,0-.34-1.49Z"/><path d="M74.71,58.42a.19.19,0,0,1,.1,0s0,0-.06.07l-.91.69.32.53c.7-.08,1.48,0,1.7.3s.12.35,0,.43-.09,0-.24-.11a2.86,2.86,0,0,0-1.41-.5A4.11,4.11,0,0,1,74.41,63H74.3a4.55,4.55,0,0,0-.72-3.53l-.65.49a1.6,1.6,0,0,0-.34.35l-.32-.09c.15-.1.31-.19.44-.29l.77-.58c-.33-.46-.66-.92-1-1.4l-.39.3a8,8,0,0,1,.23,1.72h-.11a10.64,10.64,0,0,0-.93-3l.58-.07h0a0,0,0,0,1,0,.06.41.41,0,0,0,0,.3c.07.28.15.55.21.8l1-.74v-.48l.59.12.07,0s0,0,0,.07l-.87.65c.39.52.75,1,1,1.41l.39-.29,0-.48Zm1.18-4.06a.17.17,0,0,1,.1,0s0,0,0,.08l-2.4,1.8a1.35,1.35,0,0,0-.33.35l-.33-.09a3.73,3.73,0,0,0,.44-.29l2-1.5,0-.49Zm.6,1.15s.05,0,.06,0,0,0,0,.07l-.13.25.49.65a6.09,6.09,0,0,0,.43.53l0,.06c.05.07,0,.12,0,.24l-.09.12s-.06,0-.22-.21l-1.59,1.19c.13.17.15.2.06.35l-.09.12s-.07,0-.11,0a.43.43,0,0,1-.07-.1,6.48,6.48,0,0,0-.46-.65l-.4-.54L73.92,57l.51,0,1.46-1.1,0-.36Zm.45,1.6-.88-1.18-1.59,1.2.89,1.17Zm-1.13,1.83a2.51,2.51,0,0,1,1.19.51c.12.16.14.39,0,.47s-.12,0-.25-.13a3,3,0,0,0-1-.76Zm3.47-.39.08,0s0,.05,0,.09l-2.81,2.11a1.6,1.6,0,0,0-.34.35L75.85,61a4.78,4.78,0,0,0,.44-.29l1.55-1.17a17.29,17.29,0,0,0-.73-1.77l.55-.07,0,0s0,0,0,.05a.34.34,0,0,0-.06.21L78,59.48l.71-.53v-.48Z"/><path d="M79.42,52.57h.08s0,.05,0,.09l-.1.26,1.67,2.23c.33.44.61.78.83,1l0,0c.07.09.06.13,0,.28a.58.58,0,0,1-.08.12s-.06,0-.1,0l-.31-.42-1.24.93.41.55c.06.07.06.1,0,.22a.36.36,0,0,1-.09.13s-.09,0-.16-.1l0,0c-.23-.33-.59-.82-.83-1.13l-1.8-2.39a6.43,6.43,0,0,0-.44-.55l.57,0,.27-.2a10.56,10.56,0,0,0-.48-1.44l.51-.08h.11s0,0,0,.09a.31.31,0,0,0-.09.27l.1,1.07.71-.53v-.41Zm.64,1.83L79,53,77.8,54l1,1.37ZM81.29,56l-1.13-1.5-1.24.94L80.05,57ZM82,50.68s.08,0,.09,0,0,0,0,.08L82,51c1.08,1.52,1.79,2.56,2.13,3.08s.44.78.19,1.36l0,0s0,0-.1,0c-.21-.15-.41-.14-1,.12l-.07-.1a4.2,4.2,0,0,0,.78-.39c.29-.22.22-.4,0-.76-.37-.6-1.19-1.82-2.21-3.22l-1.35,1A9,9,0,0,1,80.55,54h-.09a16.84,16.84,0,0,0-.94-3.3l.47-.08c.08,0,.12,0,.14,0s0,.06,0,.12-.07.14,0,.35.14.61.19.86l1.21-.91,0-.4Zm-1.23,2.54a2,2,0,0,1,1.24.07.67.67,0,0,1,.15.14c.11.15.12.34,0,.4s-.14.05-.25,0a2.42,2.42,0,0,0-1.19-.49Z"/><path d="M87.24,51.43l-1.19,1.7c-.23.33-.28.45-.27.57s0,.07,0,.07H85.7l-.48-.16.39-.45-.91-1.22L84,51.12l.55-.09a.09.09,0,0,1,.1,0s0,.05-.07.26l1.21,1.6.42-.49L84.42,50l-.38.28.07.09c.09.12-.06.32-.11.36s-.07,0-.12-.06-.35-.51-.42-.6l-.5-.66c-.1-.14-.32-.41-.46-.58l.53,0,.87-.65,0-.35h.52a.12.12,0,0,1,.09,0s0,0,0,.08l-.08.22.5.66.41.49c.06.08,0,.12,0,.25a.5.5,0,0,1-.09.12s-.05,0-.18-.16l-.31.24.83,1.1.37-.28v-.4l.43.1.1,0s0,0,0,.08l-.76.58.87,1.15.69-.79Zm-2.34-2-.85-1.14-1,.72L84,50.14Zm4.46-1.69c-.28.25-.36.4-.36.58s0,0,0,.07a5.62,5.62,0,0,1-1.69.11A6.62,6.62,0,0,1,86.9,50l.36,0L88.52,49l0-.34.52,0s.07,0,.08,0a.13.13,0,0,1,0,.09L89,49l.63.84c.23.31.4.51.61.75l0,0c.06.08.06.12,0,.25s-.06.11-.09.12-.07,0-.1,0l-.32-.42-1.37,1,.26.34c.09.12-.07.33-.11.36s-.08,0-.13-.06l-.06-.09c-.11-.17-.37-.53-.52-.73l-.66-.88-.34-.42q-.22.54-.51,1.08l-.1,0A9.94,9.94,0,0,0,87,48.44a4.58,4.58,0,0,1-1.41-.67,10.76,10.76,0,0,1,.08,1.45h-.11A14.26,14.26,0,0,0,85,46.56l.53,0s.07,0,.08,0,0,.05-.15.27c0,.21.06.4.08.57l1.27-1V46.1h.55a.13.13,0,0,1,.1,0s0,0,0,.09l-.16.26a7.78,7.78,0,0,1,0,1.72,4.24,4.24,0,0,0,2-.54Zm-3.81-.18v.09a4.4,4.4,0,0,0,1.46.53,7.09,7.09,0,0,0-.12-1.63Zm4.14,2.87-1-1.32-1.38,1,1,1.31Z"/><path d="M90.71,44.34c.05,0,.07,0,.08,0s0,0,0,.09a.62.62,0,0,0-.09.3,26.84,26.84,0,0,1,0,2.86L92,46.24l.08.08a6.8,6.8,0,0,0-1.22,1.76.1.1,0,0,1,0,.06h-.07l-.48-.21a.88.88,0,0,0,.24-.77c0-.43,0-.9-.08-1.34a4.19,4.19,0,0,0-.81,1s0,.05,0,.05,0,0-.07,0l-.46-.14a.7.7,0,0,0,.19-.61,9.15,9.15,0,0,0-.48-2.23l.54,0s.09,0,.09,0,0,0,0,.08a.43.43,0,0,0-.08.28c.08.82.11,1.56.12,2.26l1-.83a11.12,11.12,0,0,0-.22-1.31Zm4.88.21c.15.24.28.42.4.58a1.6,1.6,0,0,0,.71.63.4.4,0,0,1,.18.11c.05.06,0,.12,0,.16a3.35,3.35,0,0,1-2.55.1,10.15,10.15,0,0,1-1.18,2.65L93,48.72A12,12,0,0,0,94,46a4.67,4.67,0,0,1-1.24-.91l-.49.52A1.45,1.45,0,0,0,92,46h-.36l.37-.36.63-.67c-.23-.23-.46-.5-.73-.82l-.26.28a1.7,1.7,0,0,0-.28.39l-.34,0c.13-.11.24-.21.38-.35l.4-.42c-.42-.51-.87-1-1.3-1.59l.58-.13h.08s0,0,0,.08l-.07.21c.31.42.6.8.92,1.21l1.14-1.21,0-.42.63,0s0,0,.06,0,0,0,0,.05L92.13,44a8.85,8.85,0,0,0,.73.81L94,43.52,94,43l.64,0h.09s0,0,0,.07L93,44.89a5,5,0,0,0,1.08.81,5.17,5.17,0,0,0,.09-1.52l.54-.07h.08s0,0,0,.08a.75.75,0,0,0-.15.34c-.07.47-.15.9-.24,1.28a3.18,3.18,0,0,0,1.75,0l-.6-1.27ZM93,46.85l-.79,1.39a3.46,3.46,0,0,0-.46,1.07s0,0,0,0a.06.06,0,0,1-.06,0l-.46-.13,1.72-2.45Zm-1.42-4.79c.76-.25,1-.25,1.16,0a.26.26,0,0,1,0,.34c-.06,0-.11,0-.21,0a2.12,2.12,0,0,0-.94-.2Z"/></g></g></svg>