<svg xmlns="http://www.w3.org/2000/svg" width="355" viewBox="0 0 202.9 111.43"><defs><style>.cls-1{fill:#f2f2ff;}.cls-1,.cls-2,.cls-3,.cls-4,.cls-5,.cls-6{fill-rule:evenodd;}.cls-2{fill:#ffd9d9;}.cls-3,.cls-7{fill:#fff;}.cls-4{fill:#ffa6a6;}.cls-5{fill:#ffeb80;}.cls-6{fill:#d9d9ff;}.cls-8{fill:#ffff80;}</style></defs><g id="图层_2" data-name="图层 2"><g id="图片"><polyline class="cls-1" points="119.62 92.64 119.68 92.52 119.86 92.28 120.16 91.86 120.64 91.2 121.24 90.3 122.02 89.16 122.86 87.9 123.88 86.46 124.9 84.9 125.98 83.34 127.06 81.84 128.08 80.34 129.1 78.9 130 77.64 130.84 76.38 131.62 75.3 132.4 74.34 133.06 73.38 133.72 72.54 134.5 71.52 136.06 69.6 136.84 68.7 137.62 67.86 138.34 67.02 139.12 66.18 139.84 65.34 140.62 64.56 143.5 61.44 144.82 60 145.42 59.34 146.2 58.5 146.92 57.72 148.24 56.4 148.84 55.74 149.44 55.14 150.04 54.6 151.24 53.4 151.9 52.8 152.56 52.14 153.22 51.54 153.94 50.94 154.6 50.28 155.32 49.68 155.98 49.08 156.7 48.48 157.36 47.94 159.52 46.14 161.08 44.94 161.92 44.34 162.64 43.8 163.48 43.32 164.26 42.78 165.16 42.18 166.06 41.64 166.96 41.04 167.92 40.5 168.82 39.9 169.78 39.36 170.62 38.82 171.46 38.34 172.24 37.86 172.96 37.5 173.62 37.14 174.64 36.66 175.42 36.36 176.08 36.12 176.68 36 177.22 35.88 177.82 35.76 178.54 35.7 179.32 35.64 179.98 35.64 180.7 35.7 181.48 35.76 182.32 35.82 183.1 35.94 183.94 36.06 184.72 36.18 185.5 36.36 186.16 36.54 186.82 36.84 187.42 37.2 188.5 38.04 189.46 39 189.94 39.54 190.36 40.08 190.84 40.62 191.26 41.28 191.62 41.94 191.92 42.6 192.16 43.26 192.4 43.98 192.88 45.66 193.6 49.02 193.78 49.8 194.02 51.24 194.14 52.8 194.14 53.46 194.02 54.78 193.96 55.38 193.84 56.82 193.78 57.6 193.72 58.44 193.66 59.22 193.54 60.9 193.48 61.8 193.24 65.64 193.12 66.54 193.06 67.5 192.94 68.34 192.82 69.24 192.7 70.08 192.52 70.98 192.16 72.66 191.98 73.56 191.8 74.4 191.62 75.3 191.38 76.14 191.02 77.7 190.9 78.48 190.72 79.14 190.54 79.92 190.36 80.64 190.18 81.48 189.94 82.26 189.76 83.16 189.52 83.94 189.4 84.54 189.28 84.96 189.22 85.14"/><polyline class="cls-2" points="123.22 91.74 123.34 91.56 123.52 91.26 123.94 90.72 124.48 89.88 125.2 88.8 126.04 87.6 126.94 86.22 127.9 84.84 128.8 83.46 129.7 82.14 130.54 81 131.26 79.92 131.92 78.96 132.52 78.12 133.12 77.34 133.78 76.5 134.38 75.72 135.58 74.28 136.12 73.62 136.72 72.96 137.26 72.3 137.8 71.7 138.4 71.04 138.94 70.44 139.48 69.78 140.08 69.12 140.62 68.4 141.82 67.08 142.36 66.36 142.96 65.7 143.5 64.98 144.1 64.26 144.64 63.54 145.24 62.88 146.32 61.44 146.92 60.78 147.52 60.06 148.12 59.4 148.72 58.8 149.32 58.14 149.92 57.54 151.9 55.74 152.62 55.2 153.28 54.66 154 54.06 154.72 53.52 156.04 52.44 156.76 51.9 157.36 51.36 158.02 50.82 158.62 50.34 160.6 48.72 161.2 48.18 162.4 47.22 163 46.68 164.8 45.24 165.46 44.82 166.12 44.34 166.78 43.92 167.5 43.44 168.94 42.6 169.66 42.12 171.22 41.28 171.94 40.86 172.66 40.5 173.32 40.14 173.92 39.78 174.52 39.54 175.3 39.24 175.96 39.06 176.56 38.94 177.1 38.88 178.72 38.7 179.32 38.64 179.92 38.64 180.52 38.58 181.78 38.58 182.38 38.64 183.58 38.76 184.12 38.94 184.6 39.18 185.14 39.54 185.56 39.9 186.46 40.8 186.94 41.22 187.3 41.58 187.72 41.94 188.2 42.3 188.62 42.6 189.04 42.78 189.4 43.02 189.82 43.44 190.12 44.04 190.3 44.52 190.42 45.12 190.6 45.78 190.72 46.44 190.96 47.88 191.08 48.66 191.2 49.38 191.32 50.94 191.32 51.66 191.38 52.38 191.38 53.1 191.32 53.88 191.32 55.44 191.26 56.22 191.2 57.06 191.2 57.84 191.14 58.62 191.08 59.46 190.96 61.02 190.84 61.86 190.72 62.64 190.6 63.48 190.36 65.04 190.24 65.88 190.12 66.66 189.94 67.5 189.82 68.34 189.7 69.24 189.52 70.14 189.4 70.92 189.22 71.82 189.04 72.78 188.8 73.86 188.56 75.06 188.32 76.32 188.02 77.64 187.78 78.9 187.54 80.04 187.36 80.94 187.24 81.6 187.18 81.96 187.12 82.14"/><polyline class="cls-3" points="127.72 91.14 127.84 91.02 128.02 90.72 128.38 90.18 128.92 89.4 129.58 88.38 130.42 87.24 131.26 85.92 132.16 84.6 133.06 83.34 133.9 82.08 134.74 80.94 135.46 79.92 136.12 78.96 136.72 78.12 137.32 77.34 137.98 76.44 139.3 74.76 139.9 73.98 141.22 72.42 141.82 71.64 142.48 70.86 143.08 70.08 144.4 68.52 145 67.8 146.98 65.46 148.3 64.02 148.9 63.24 150.22 61.8 150.82 61.08 153.46 58.2 156.28 55.38 157 54.78 158.44 53.46 159.22 52.74 160 52.08 160.78 51.36 161.62 50.7 162.4 49.98 163.96 48.66 164.74 48.06 165.46 47.46 166.24 46.86 166.9 46.32 168.52 45.24 169.42 44.7 170.26 44.22 171.1 43.8 171.94 43.32 172.78 42.96 173.62 42.54 174.46 42.18 175.24 41.82 176.8 41.22 177.52 41.04 178.36 40.86 179.14 40.8 180.64 40.8 181.42 40.86 182.14 40.92 182.8 41.04 183.52 41.16 184.12 41.34 184.72 41.64 185.26 42 185.74 42.48 186.16 43.02 187 44.22 187.42 44.88 187.78 45.54 188.08 46.2 188.38 46.92 188.62 47.64 188.86 48.96 188.86 51.18 188.74 52.74 188.74 53.52 188.68 54.3 188.68 55.08 188.62 55.86 188.62 58.26 188.56 59.16 188.56 62.7 188.5 63.6 188.5 64.44 188.44 65.28 188.32 66.84 188.2 67.74 188.08 68.52 187.9 69.36 187.66 70.08 187.48 70.86 187.24 71.58 187.06 72.36 186.88 73.08 186.34 75.42 186.16 76.32 185.98 77.28 185.8 78.42 185.32 80.7 185.2 81.6 185.08 82.14 185.02 82.38 185.02 82.44"/><polyline class="cls-4" points="134.32 90.24 134.68 89.7 135.1 89.1 135.76 88.2 136.54 87 137.5 85.62 138.52 84.18 139.6 82.62 140.68 81.12 141.64 79.68 142.54 78.36 143.38 77.22 144.16 76.14 144.82 75.18 145.42 74.34 146.74 72.54 147.34 71.7 147.88 70.86 148.42 70.08 148.96 69.36 149.5 68.58 150.04 67.86 150.52 67.14 151.06 66.42 152.86 64.26 153.52 63.54 154.9 62.16 155.62 61.5 157.18 60.18 158.02 59.52 158.8 58.92 159.64 58.26 160.42 57.6 161.98 56.4 162.7 55.86 163.36 55.32 164.02 54.84 164.86 54.24 165.64 53.64 166.36 53.16 167.02 52.68 168.34 51.84 168.94 51.42 169.6 51 170.26 50.64 170.92 50.34 171.58 50.1 172.18 49.86 172.78 49.68 173.98 49.44 174.58 49.32 175.18 49.2 175.78 49.14 176.92 49.14 177.58 49.26 178.3 49.44 178.96 49.68 179.68 49.98 180.34 50.28 181 50.64 181.54 51.06 182.02 51.54 182.32 52.02 182.56 52.56 182.8 53.16 182.98 53.76 183.16 54.42 183.4 55.74 183.58 56.46 183.7 57.12 183.94 58.56 184 59.34 184.12 60.18 184.42 64.38 184.42 65.94 184.3 67.38 184.24 68.04 184.12 68.64 184 69.3 183.88 69.9 183.76 70.56 183.58 71.22 183.4 72 183.22 72.84 183.04 73.62 182.74 74.46 182.44 75.48 182.08 76.68 181.66 77.94 181.24 79.32 180.82 80.64 180.46 81.72 180.16 82.56 179.92 83.28 179.92 83.34"/><polyline class="cls-5" points="18.22 7.14 22.72 2.64 25.72 8.34 33.82 7.44 32.62 13.74 40.12 15.24 35.62 20.94 40.42 25.74 33.52 28.74 34.72 35.64 29.02 34.14 27.22 40.14 22.42 34.44 15.52 38.34 13.72 32.94 5.92 33.84 9.22 26.34 0.52 19.14 9.52 17.64 8.02 11.04 13.72 11.04 13.72 3.24 18.22 7.44"/><path d="M27.32,40.6l-4.95-5.88-7,4-1.83-5.49-8,.93L9,26.4,0,19l9.25-1.55L7.74,10.81H13.5V2.72L18.1,7l0,0,4.72-4.72L25.85,8.1l8.25-.92-1.21,6.38,7.64,1.53-4.61,5.83,4.9,4.89-7,3.06L35,35.94l-5.83-1.53Zm-4.85-6.45,4.66,5.52,1.74-5.81,5.57,1.47L33.27,28.6,40,25.66,35.32,21l4.4-5.56-7.36-1.48,1.18-6.22-7.94.89L22.67,3,18.38,7.3v0l-.3.32L14,3.75v7.51H8.31L9.8,17.82,1.05,19.28l8.45,7-3.21,7.3,7.59-.88.06.18L15.65,38Z"/><polyline class="cls-6" points="140.02 89.34 140.14 89.16 140.32 88.86 140.68 88.32 141.16 87.48 141.76 86.52 142.42 85.44 143.14 84.3 143.8 83.16 144.46 82.14 145.06 81.18 145.6 80.34 146.14 79.56 146.62 78.84 147.16 78 147.76 77.22 148.3 76.44 148.9 75.66 149.44 74.88 150.64 73.32 151.18 72.6 152.38 71.04 152.92 70.32 153.52 69.54 154.12 68.82 154.72 68.04 155.26 67.32 157.06 64.98 159.46 62.1 160.06 61.44 160.72 60.84 162.04 59.76 162.76 59.22 163.48 58.74 164.2 58.32 164.98 57.84 165.7 57.42 166.48 57 167.14 56.58 167.86 56.16 168.52 55.8 169.12 55.44 169.84 55.08 171.16 54.36 172.36 53.76 173.02 53.52 173.56 53.22 174.16 53.04 174.64 52.86 175.12 52.74 175.78 52.74 176.26 52.86 176.68 53.1 177.4 53.7 177.82 53.94 178.18 54.18 178.6 54.36 178.96 54.54 179.32 54.78 179.62 55.14 179.92 55.74 180.1 56.28 180.22 56.88 180.4 57.6 180.64 59.28 180.82 60.12 180.94 60.96 181.06 62.52 181.12 63.24 181.12 63.96 181.06 64.62 180.88 66.42 180.64 67.62 180.52 68.28 180.4 69.06 180.22 69.84 180.04 70.56 179.86 71.34 179.56 72.24 179.32 73.14 178.72 75.06 178.42 76.08 178.12 76.98 177.88 77.88 177.58 78.72 177.4 79.44 177.22 80.04 176.92 81.06 176.74 81.9 176.56 82.68 176.38 83.28 176.32 83.58 176.32 83.64"/><path d="M108.41,50.39l-.41.89h-2.15l-.47,1a3.79,3.79,0,0,1,2.21,1,2.33,2.33,0,0,1,.7,1.69,2.43,2.43,0,0,1-.22,1,3,3,0,0,1-.58.82,2.6,2.6,0,0,1-.78.54,2.75,2.75,0,0,1-1.24.29,1.57,1.57,0,0,1-.94-.22.6.6,0,0,1-.29-.48.35.35,0,0,1,.12-.26.41.41,0,0,1,.31-.11.61.61,0,0,1,.24,0,3,3,0,0,1,.35.22,1.4,1.4,0,0,0,.8.27,1.49,1.49,0,0,0,1.08-.47,1.55,1.55,0,0,0,.47-1.13,2,2,0,0,0-.42-1.21,2.56,2.56,0,0,0-1.15-.87,4.47,4.47,0,0,0-1.56-.27l1.37-2.78Z"/><path d="M110.39,51.09l1.74-.85h.17v6a3.45,3.45,0,0,0,0,.75.45.45,0,0,0,.21.22,2,2,0,0,0,.65.09v.2h-2.69v-.2a1.67,1.67,0,0,0,.65-.09.41.41,0,0,0,.21-.2,3.42,3.42,0,0,0,.05-.77V52.42a5.43,5.43,0,0,0-.05-1,.4.4,0,0,0-.13-.24.35.35,0,0,0-.24-.08,1.35,1.35,0,0,0-.54.16Z"/><path d="M115.86,76l-.27-.36a10.64,10.64,0,0,0,4.14-8.46,10.78,10.78,0,0,0-3.27-7.71l.32-.32a11.22,11.22,0,0,1,3.4,8A11.08,11.08,0,0,1,115.86,76Zm-3.65-1.78-.18-.41A5.84,5.84,0,0,0,113.47,64l.29-.34a6.29,6.29,0,0,1-1.55,10.58ZM176.7,33.29l-4.95-19.82.44-.11,4.95,19.82Z"/><path d="M72.51,31.82a4.14,4.14,0,0,1,1.34,1.25,1.05,1.05,0,0,1,.11.43c0,.31-.17.55-.35.55s-.24-.1-.28-.45a2.56,2.56,0,0,0,0-.27l-3,.86a1.52,1.52,0,0,0-.76.39s-.06.05-.08.05,0,0-.06-.05L69,34l2.18-.43v-2.7h-1v.5c0,.21-.34.31-.41.31s-.09,0-.09-.16,0-.09,0-.16c0-.32,0-.83,0-1.23v-2c0-.23,0-.69,0-1l.64.45h.86v-.75c0-.44,0-1.17,0-1.57l.75.35c.07,0,.11.08.11.11s0,.06-.34.26v1.6h1l.32-.49.67.5s.08.07.08.1,0,.05-.07.07l-.37.22v1.78c0,.6,0,1,0,1.35v.09c0,.15,0,.19-.22.27a.81.81,0,0,1-.22.06s-.07,0-.07-.13v-.54H71.69v2.61l1.53-.29a3.62,3.62,0,0,0-.79-1.26Zm-1.3-1.2V27.81h-1v2.81Zm1.64,0V27.81H71.69v2.81ZM79,34.2c.09.09.13.14.13.19s-.06,0-.18,0H74.37a2.38,2.38,0,0,0-.73.11l-.3-.39c.26,0,.54,0,.79,0h1.81V26.82H74.82a2.59,2.59,0,0,0-.72.11l-.31-.39a7.13,7.13,0,0,0,.79.05h3.11l.43-.57.57.59a.6.6,0,0,1,.12.16s-.07.05-.19.05H76.45V34.2H78l.48-.59Z"/><path d="M88.86,35.89c-2.12-1.86-2.67-3.16-2.67-5.07a6.09,6.09,0,0,1,2.64-4.7l.16.14a6.35,6.35,0,0,0-2.08,4.57A6.28,6.28,0,0,0,89,35.73Z"/><path d="M100.14,31.53s0,.06,0,.08,0,0,0,.06l-.37.22a7.56,7.56,0,0,1-.19,1.48,1.74,1.74,0,0,1-1,1c-.05,0-.08,0-.09-.11-.06-.31-.25-.46-1.24-.74l0-.15a5.4,5.4,0,0,0,1.17.17c.43,0,.61-.13.69-.34a4.6,4.6,0,0,0,.19-1.5H96.07v1.4c0,.89,0,1.29,0,1.65v.08c0,.15,0,.2-.23.29a.62.62,0,0,1-.21.06c-.07,0-.09-.06-.09-.23V34.8c0-.56,0-1.07,0-1.76V31.7a13.78,13.78,0,0,1-4.72,3.35l-.07-.17a13.87,13.87,0,0,0,4.12-3.22H92.66l-.26.27c0,.05-.07.07-.11.07a.19.19,0,0,1-.1-.05l-.52-.47.54-.27.28-1.08c.06-.26.13-.55.16-.76l.51.57H95.6v-1.4H93.17a2.15,2.15,0,0,0-.73.12l-.3-.4c.27,0,.54,0,.79,0h5.54l.33-.42.6.5s.07.05.07.09,0,.05-.07.07l-.29.17v.75c0,.29,0,.57,0,.81v0c0,.12,0,.17-.31.28a.35.35,0,0,1-.15.05c-.06,0-.07,0-.07-.09v-.38H96.07v1.26h3.05l.33-.45Zm-4.39-5.11a.41.41,0,0,1,.07.12c0,.05,0,.06-.11.06h-2a1.82,1.82,0,0,1,.78.85.71.71,0,0,1,0,.14c0,.26-.14.47-.31.47s-.14-.11-.19-.33a2.78,2.78,0,0,0-.56-1.13h-.66a19.32,19.32,0,0,1-1.75,2.18l-.13-.1A24.36,24.36,0,0,0,93.16,25l.59.33c.08,0,.11.07.11.09s0,.06-.13.08c-.24.06-.29.14-.74.82H94.8l.38-.61Zm-.15,5V30.17H93l-.36,1.26Zm4.86-5c.05.06.08.1.08.12s-.05,0-.12,0H97.66c.5.33.9.8.9,1.09s-.18.45-.35.45-.12-.06-.17-.28a2.19,2.19,0,0,0-.63-1.26h-.77c-.37.56-.77,1.13-1.16,1.64l-.15-.07A22.67,22.67,0,0,0,96.94,25l.61.33c.06,0,.08.06.08.08s0,0-.08.06-.29.11-.37.26-.25.42-.39.64h2.6l.42-.65Zm-1.85,3.53v-1.4H96.07v1.4Z"/><path d="M111.4,29.38c.07.07.1.12.1.16s0,.05-.16.05h-8.81a2.09,2.09,0,0,0-.72.11l-.3-.4c.27,0,.54,0,.78,0h7.89l.49-.72Z"/><path d="M122.41,34.26a1.05,1.05,0,0,0-.8.48.2.2,0,0,1-.22.12h-.52l-3.8,0a2.63,2.63,0,0,1-2.71-1.48c-.08-.13-.14-.21-.22-.21s-.74.79-1,1.51c0,.1-.07.15-.13.15s-.06,0-.13-.06l-.49-.29L114,32.88V29.51l-.67,0a1.67,1.67,0,0,0-.73.13l-.37-.35c.27,0,.58,0,.76,0l.87-.05.33-.42.67.53s.07.05.07.07,0,.06-.09.1l-.33.2v3.09c0,.64,1,1.34,1.54,1.4s1.54.08,2.34.08a36.22,36.22,0,0,0,4.07-.22Zm-9.27-8.4c.41.23,1.49.83,1.49,1.37,0,.3-.24.63-.36.63s-.17,0-.26-.4a3,3,0,0,0-1-1.49Zm9,1.2c0,.05.06.08.06.1s0,0-.11,0h-3.3a12.17,12.17,0,0,0-.64,1.09h2l.33-.47.68.48c.05.05.08.08.08.1a.09.09,0,0,1-.06.08l-.28.17v2.93a13.65,13.65,0,0,0,0,1.5s0,.05,0,.06c0,.19-.48.41-.5.41s-.07-.06-.07-.18v-.58h-3.52v.66c0,.1,0,.15-.24.26a.6.6,0,0,1-.2.08c-.07,0-.09-.07-.09-.25v-.1c0-.56,0-1.07,0-1.66V28.93c0-.25,0-.73,0-1.06l.59.42h1a4.81,4.81,0,0,0,.25-1.09h-2.34a1.29,1.29,0,0,0-.49.08l-.37-.34c.28,0,.49,0,.67,0h3.41a12.1,12.1,0,0,0,1-1.88l.67.46s.08.05.08.07,0,.05-.1.06a.71.71,0,0,0-.51.28c-.43.51-.65.74-.92,1H121l.5-.63Zm-5.52-1.85c1,.36,1.31.73,1.33,1v.05c0,.3-.18.53-.32.53s-.15-.06-.21-.28a2.22,2.22,0,0,0-.86-1.2Zm3.79,4.43V28.53h-3.52v1.11Zm0,1.43V29.88h-3.52v1.19Zm0,1.48V31.31h-3.52v1.24Z"/><path d="M124.73,36.23l-.18-.27a2.14,2.14,0,0,0,1.11-1.4c0-.23-.09-.39-.29-.37a.56.56,0,0,1-.57-.87.71.71,0,0,1,1.07,0C126.69,34.06,126.16,35.46,124.73,36.23Zm.66-6a.59.59,0,0,1-.61-.58.6.6,0,1,1,1.19,0A.59.59,0,0,1,125.39,30.27Z"/><path d="M143.94,33.94c-.59.06-1,.3-1.06.59,0,0,0,0-.08,0h-.07c-2.43-.31-3.7-.63-4.56-1.22a9.75,9.75,0,0,1-4.3,1.64l0-.17a9.48,9.48,0,0,0,4-1.76,6.22,6.22,0,0,1-1.21-1.76l.14-.09a5.74,5.74,0,0,0,1.31,1.61c.31-.34.47-.77.54-1.92h-2.5v.31c0,.14-.05.2-.22.26a1,1,0,0,1-.21.08c-.08,0-.09-.06-.09-.19v-.15c0-.32,0-.72,0-1.19V28c0-.25,0-.73,0-1l.67.55h2.4c0-.42,0-.87,0-1.36h-3.56a2.31,2.31,0,0,0-.72.12l-.3-.4c.27,0,.54,0,.78,0h7.61l.45-.69.74.67c.09.1.15.16.15.2s-.07.05-.2.05h-4.4v1.36h2.3l.35-.49.67.49c.06.05.09.08.09.11s0,.07-.08.11l-.3.26v1.94a9.4,9.4,0,0,0,.06,1.15.66.66,0,0,1,0,.13c0,.25-.39.35-.5.35s-.09-.05-.09-.15v-.48h-2.6a3.46,3.46,0,0,1-.65,2.19,9,9,0,0,0,4.13.73c.43,0,.9,0,1.37,0Zm-5.29-4.89c0-.4,0-.83,0-1.32h-2.55v1.32Zm0,1.62c0-.38,0-.84,0-1.38h-2.56v1.38Zm3.07,0V29.29h-2.52c0,.54,0,1-.06,1.38Zm0-1.62V27.73h-2.51c0,.49,0,.92,0,1.32Z"/><path d="M154.13,30.49a.19.19,0,0,1,.07.13s0,.05-.12.06c-.28,0-.56.12-1.29.88l-.14-.08.56-1h-7.08c-.14.94-.69,1.29-.95,1.29a.3.3,0,0,1-.3-.29.56.56,0,0,1,.33-.45,1.75,1.75,0,0,0,.78-1.39h.16a6,6,0,0,1,0,.6h7l.37-.41ZM154,32.38c0,.24,0,.44,0,.6,0,.64.09.79.27.89s.06.05.06.08a.11.11,0,0,1,0,.06c-.26.57-.41.64-1.88.64-1.82,0-1.82-.07-1.82-.78v-2H148.5c-.08,2.38-1.32,2.82-3.41,3.22L145,35c2.25-.66,2.93-1.15,2.93-3.23,0-.19,0-.37,0-.57l.65.49h1.8l.32-.44.69.41c.07,0,.1.08.1.1s0,.06-.07.09l-.33.24v1.72c0,.31.06.36.51.4l.75,0,.72,0c.5,0,.57-.14.74-1.79Zm.24-5.94c.07.06.11.11.11.16s-.06.07-.16.07h-8a2.31,2.31,0,0,0-.72.12l-.31-.4c.27,0,.54.05.79.05h7.11l.44-.6Zm-1.71,1.25s.08.07.08.11,0,.05-.08.09l-.33.21v.64c0,.08,0,.53,0,.57s-.43.28-.46.28-.08-.05-.08-.27h-4.05c0,.3,0,.33-.21.41a.86.86,0,0,1-.25.06q-.09,0-.09-.12c0-.05,0-.62,0-.74v-1.3a5,5,0,0,0,0-.52l.6.47h3.86l.3-.41Zm-.83,1.39V27.82h-4.05v1.26Zm-2.76-4c1,.29,1.16.59,1.16.9s-.15.43-.33.43-.22-.09-.28-.34a1.53,1.53,0,0,0-.6-.89Z"/><path d="M156.34,35.79l-.16-.16a6.46,6.46,0,0,0,2-4.71,6.12,6.12,0,0,0-2-4.6l.13-.17a6,6,0,0,1,2.61,4.77A6.14,6.14,0,0,1,156.34,35.79Z"/><line class="cls-7" x1="99.94" y1="65.7" x2="177.52" y2="36.24"/><path d="M100.87,65.59l-.16-.42.84-.32.16.42Zm3.36-1.28-.16-.42.84-.32.16.42ZM107.6,63l-.16-.42.84-.32.16.42ZM111,61.75l-.16-.42.84-.32.16.42Zm3.37-1.27-.16-.42.84-.32.16.42Zm3.36-1.28-.16-.42.84-.32.16.42Zm3.37-1.28-.16-.42.84-.32.16.42Zm3.36-1.28-.16-.42.84-.32.16.42Zm3.37-1.28-.16-.42.84-.32.16.42Zm3.36-1.27-.16-.42.85-.32.16.42Zm3.37-1.28-.16-.42.84-.32.16.42Zm3.37-1.28-.16-.42.84-.32.16.42Zm3.36-1.28-.16-.42.84-.32.16.42ZM144.62,49l-.16-.42.84-.32.16.42ZM148,47.7l-.16-.42.84-.32.16.42Zm3.37-1.28-.16-.42.84-.32.16.42Zm3.36-1.28-.16-.42.84-.32.16.42Zm3.37-1.28-.16-.42.84-.32.16.42Zm3.36-1.28-.16-.42.84-.32.17.42Zm3.37-1.27-.16-.42.84-.32.16.42ZM168.17,40l-.16-.42.85-.32.16.42Zm3.37-1.28-.16-.42.84-.32.16.42Zm3.37-1.28-.16-.42.84-.32.16.42Z"/><polyline class="cls-3" points="143.92 89.04 144.04 88.86 144.28 88.44 144.7 87.78 145.24 86.88 145.96 85.74 146.74 84.48 148.3 81.84 149.08 80.64 149.74 79.56 150.34 78.66 150.88 77.82 151.42 77.04 152.02 76.2 152.56 75.42 153.64 73.98 156.88 70.02 157.42 69.3 159.22 67.32 160.54 65.88 161.2 65.22 161.86 64.5 163.24 63.12 163.84 62.46 164.98 61.32 165.52 60.84 166.18 60.24 166.78 59.7 167.74 58.86 168.16 58.5 168.64 58.2 169.18 57.84 169.72 57.54 170.32 57.3 170.98 57.06 171.64 56.88 173.08 56.52 173.74 56.4 174.34 56.34 174.82 56.34 175.18 56.4 175.48 56.58 175.72 56.76 175.9 56.94 176.26 57.42 176.62 58.14 176.8 58.62 176.92 59.16 177.04 59.82 177.22 60.48 177.34 61.14 177.4 61.86 177.52 62.52 177.52 63.84 177.4 65.04 177.16 66.36 177.1 67.02 176.98 67.68 176.86 68.28 176.74 68.94 176.62 69.54 176.44 70.26 176.32 70.98 176.14 71.64 175.96 72.36 175.78 73.02 175.54 73.68 175.36 74.46 175.12 75.24 174.94 75.9 174.46 77.46 174.16 78.3 173.92 79.2 173.62 80.04 173.14 81.6 172.9 82.2 172.72 82.74 172.42 83.4 172.18 83.82 171.88 84.18 171.52 84.54"/><path d="M122.52,7.59c0,1.19,0,1.28.31,1.44.06,0,.08.07.08.1a.14.14,0,0,1,0,.06c-.35.51-.47.58-1.19.61l-1.52,0c-1.41,0-1.43-.14-1.43-.65V7.3h-1.36c-.32,2.06-1.26,2.44-4.13,2.89l0-.12c2.7-.66,3.54-1.23,3.61-2.77h-1.68v.22c0,.14,0,.17-.21.26a.85.85,0,0,1-.22.07c-.06,0-.08,0-.08-.15a1.09,1.09,0,0,1,0-.17,9,9,0,0,0,0-1V5.36c0-.41,0-.7,0-1.06l.61.46a13.38,13.38,0,0,0,2-.68l.39.51a.2.2,0,0,1,0,.09,0,0,0,0,1,0,0l-.08,0a.4.4,0,0,0-.2,0c-.24,0-.78.06-2.22.26v.94H117l.37-.5.47.54a.2.2,0,0,1,.08.12s-.06.05-.14.05h-2.61v1h5.76v-1h-1.4a2.15,2.15,0,0,0-.73.12l-.3-.38c.27,0,.54,0,.79,0h1.64V4.9h-1.63a2.31,2.31,0,0,0-.72.12l-.31-.37c.28,0,.54,0,.79,0h1.72l.31-.43.65.44c.07,0,.1.07.1.11s0,.05-.1.09l-.3.21V6.5c0,.14.07.86.07.87,0,.19-.44.31-.5.31s-.08,0-.08-.38h-1.67V9c0,.39,0,.4,1.2.4h1c.74-.06.77-.09.93-1.79Zm.41-5.74s.07.07.07.09,0,.05-.1.06c-.28,0-.56.24-1.23,1l-.09-.06.49-1h-3.64V2.7c0,.15,0,.88,0,1s0,.16-.23.25a.65.65,0,0,1-.2.06c-.08,0-.1-.06-.1-.23s0-1,0-1.14V1.91h-3.4a1.42,1.42,0,0,1-.64,1.26.72.72,0,0,1-.32.1.23.23,0,0,1-.25-.21.5.5,0,0,1,.25-.37,1.83,1.83,0,0,0,.78-1.43h.15a2.32,2.32,0,0,1,0,.44h3.39V.94h-2.51a2,2,0,0,0-.66.11l-.27-.37c.24,0,.49,0,.72,0h5.45l.47-.58.59.58c.08.08.12.13.12.17s0,0-.16,0h-3.25V1.7H122l.31-.43Zm-5.56,1.07h-2.14V2.7h2.14Zm0,.83h-2.13V3.53h2.13Zm3.82-.83h-2.07V2.7h2.07Zm0,.83h-2.06V3.53h2.06Z"/><path d="M132.89,10.92c-2.12-1.86-2.67-3.15-2.67-5.06a6.06,6.06,0,0,1,2.64-4.7l.16.14a6.33,6.33,0,0,0-2.09,4.57A6.24,6.24,0,0,0,133,10.76Z"/><path d="M144.16,6.57c.05,0,.06,0,.06.07s0,.05-.06.07l-.36.21a7.43,7.43,0,0,1-.2,1.48,1.74,1.74,0,0,1-1,1s-.08,0-.09-.11c-.07-.31-.25-.47-1.24-.75l0-.15a5.33,5.33,0,0,0,1.16.17c.44,0,.62-.13.7-.34a4.57,4.57,0,0,0,.19-1.49H140.1V8.09c0,.9,0,1.3,0,1.65v.08c0,.15,0,.21-.22.29a.55.55,0,0,1-.21.07c-.07,0-.1-.07-.1-.24V9.83c0-.56,0-1.07,0-1.76V6.73a13.78,13.78,0,0,1-4.72,3.35l-.07-.16A14.16,14.16,0,0,0,139,6.7h-2.27l-.26.27a.17.17,0,0,1-.11.06.25.25,0,0,1-.11,0l-.52-.47.54-.27.29-1.08c.06-.26.12-.55.16-.75l.51.56h2.44V3.58H137.2a2.43,2.43,0,0,0-.73.11l-.3-.4a7.29,7.29,0,0,0,.79,0h5.54l.32-.42.61.49s.06.06.06.09,0,0-.06.08l-.29.17v.74c0,.3,0,.58,0,.81v0c0,.12,0,.16-.31.28l-.15,0c-.06,0-.07,0-.07-.09V5.21H140.1V6.46h3.05l.32-.44Zm-4.38-5.11a.26.26,0,0,1,.06.12s0,0-.11,0h-2a2,2,0,0,1,.78.85.76.76,0,0,1,0,.14c0,.26-.14.47-.32.47s-.14-.11-.18-.32a2.88,2.88,0,0,0-.56-1.14h-.66a18.62,18.62,0,0,1-1.75,2.18L135,3.72A25.77,25.77,0,0,0,137.19.08l.59.32c.07,0,.11.08.11.1s0,.05-.13.07c-.24.07-.29.14-.75.82h1.82l.38-.6Zm-.15,5V5.21H137l-.37,1.25Zm4.86-5a.19.19,0,0,1,.07.12s0,0-.11,0h-2.76c.5.33.9.8.9,1.09s-.19.45-.35.45-.12-.06-.17-.28a2.25,2.25,0,0,0-.63-1.26h-.78c-.36.56-.76,1.13-1.15,1.64l-.15-.06A22.74,22.74,0,0,0,141,0l.61.33c.06,0,.08.06.08.08s0,0-.08.07a.53.53,0,0,0-.38.25c-.12.22-.24.43-.38.64h2.6l.42-.65ZM142.64,5V3.58H140.1V5Z"/><path d="M155.42,8.45c.08.08.13.14.13.18s-.06.06-.17.06h-8.92a2.36,2.36,0,0,0-.72.11l-.3-.4a7.27,7.27,0,0,0,.78,0h7.95l.52-.73ZM154.35,2.2c.09.09.13.14.13.19s-.06,0-.17,0h-6.65a2.05,2.05,0,0,0-.72.12l-.3-.4c.27,0,.54,0,.78,0h5.77l.48-.66Z"/><path d="M166.43,9.29a1.08,1.08,0,0,0-.8.49.19.19,0,0,1-.21.12h-.52c-1.24,0-3.44,0-3.8,0a2.62,2.62,0,0,1-2.71-1.48c-.08-.13-.14-.2-.22-.2s-.75.79-1,1.5c0,.11-.07.15-.13.15a.45.45,0,0,1-.13-.05l-.49-.29L158,7.92V4.55l-.67,0a1.67,1.67,0,0,0-.73.13l-.38-.34H157l.86-.06.34-.42.67.53s.06.05.06.07,0,.06-.08.1l-.34.21V7.9c0,.63,1,1.34,1.55,1.39s1.53.09,2.34.09a36,36,0,0,0,4.06-.23ZM157.17.9c.41.22,1.49.83,1.49,1.37,0,.29-.24.63-.36.63s-.17,0-.26-.4a3.13,3.13,0,0,0-.95-1.5Zm9,1.2s.06.07.06.09,0,.05-.12.05h-3.29a9.27,9.27,0,0,0-.64,1.09h2l.32-.48.69.49s.08.07.08.1,0,.05-.06.07l-.28.17V6.61a13.65,13.65,0,0,0,.05,1.5s0,.06,0,.07c0,.18-.49.41-.51.41s-.06-.07-.06-.19V7.82H161v.66c0,.11,0,.15-.24.26a.64.64,0,0,1-.21.09c-.06,0-.08-.08-.08-.25V8.47c0-.55,0-1.07,0-1.65V4c0-.24,0-.73,0-1l.59.42h1a4.82,4.82,0,0,0,.26-1.09h-2.34a1.45,1.45,0,0,0-.49.07L159,2c.28,0,.5,0,.67,0h3.42a12.57,12.57,0,0,0,1-1.88l.67.45s.07.06.07.08,0,0-.09,0a.71.71,0,0,0-.51.28c-.43.51-.65.75-.92,1H165l.49-.64ZM160.68.25c1,.35,1.3.72,1.32,1v.06c0,.3-.17.52-.31.52s-.15-.06-.21-.28a2.22,2.22,0,0,0-.86-1.2Zm3.79,4.43V3.56H161V4.68Zm0,1.42V4.92H161V6.1Zm0,1.48V6.34H161V7.58Z"/><path d="M168.75,11.27l-.17-.27a2.14,2.14,0,0,0,1.1-1.41c0-.22-.08-.39-.28-.36a.57.57,0,0,1-.57-.88.73.73,0,0,1,1.07,0C170.72,9.1,170.19,10.49,168.75,11.27Zm.66-6a.58.58,0,0,1-.6-.58.6.6,0,0,1,1.19,0A.59.59,0,0,1,169.41,5.3Z"/><path d="M188,9c-.59,0-1,.29-1.06.58,0,0,0,0-.09,0h-.06c-2.43-.31-3.71-.62-4.56-1.22A10,10,0,0,1,177.9,10l0-.18a9.36,9.36,0,0,0,4-1.76,6.28,6.28,0,0,1-1.21-1.76l.14-.09a5.78,5.78,0,0,0,1.32,1.61,2.86,2.86,0,0,0,.54-1.92h-2.5v.31c0,.15-.05.2-.22.26a.59.59,0,0,1-.22.08c-.07,0-.08,0-.08-.18V6.25c0-.32,0-.72,0-1.18V3c0-.24,0-.73,0-1l.67.55h2.4c0-.42,0-.88,0-1.36h-3.55a2.05,2.05,0,0,0-.72.12l-.31-.4c.27,0,.54,0,.79,0h7.61l.45-.68.74.67c.09.1.15.15.15.19s-.07.06-.2.06h-4.41V2.53h2.31l.35-.5.67.5c.06,0,.09.07.09.11s0,.06-.08.1l-.3.26V5c0,.42,0,.85.05,1.14a.72.72,0,0,1,0,.13c0,.25-.38.36-.49.36s-.09,0-.09-.15V5.94h-2.6a3.46,3.46,0,0,1-.65,2.19,8.85,8.85,0,0,0,4.13.73c.43,0,.89,0,1.37,0Zm-5.29-4.9c0-.4,0-.83,0-1.31h-2.55V4.08Zm-.05,1.62c0-.37,0-.84.05-1.38h-2.56V5.7Zm3.08,0V4.32h-2.53c0,.54,0,1-.05,1.38Zm0-1.62V2.77h-2.52c0,.48,0,.91,0,1.31Z"/><path d="M192.18,1.51c.06.05.1.07.1.09s0,0-.09.09l-.29.2V6.54c0,.7,0,1.12,0,1.37,0,0,0,.06,0,.08s-.06.18-.27.29a.52.52,0,0,1-.2.07c-.06,0-.07,0-.07-.13V7.84H189.8v.85c0,.13,0,.16-.24.23a.46.46,0,0,1-.18.06c-.07,0-.1-.07-.1-.24v-.1c0-.64,0-1.06,0-1.62V2.11c0-.26,0-.78,0-1.12l.64.5h1.37l.27-.38Zm-.77,2.84V1.71H189.8V4.35Zm0,3.28V4.57H189.8V7.63Zm7.26-3.38a.22.22,0,0,1,.07.1s0,.05-.1.05h-5.75a1.35,1.35,0,0,0-.55.1l-.27-.36c.21,0,.43,0,.63,0h3.08a21.61,21.61,0,0,0,.93-2.06l.61.38s.07,0,.07.08,0,0-.08.07a.58.58,0,0,0-.35.22l-1,1.31h1.61l.44-.57Zm-.22-2.54c.05.05.08.09.08.12s0,0-.12,0h-5a1.32,1.32,0,0,0-.57.11l-.33-.37c.22,0,.51,0,.72,0h4.2l.41-.57Zm-.66,3.8s.05,0,.05.07a.08.08,0,0,1,0,.07l-.38.25V8.53c0,.2,0,1.11,0,1.2s0,.17-.27.25A.74.74,0,0,1,197,10c-.07,0-.08,0-.08-.12V9.16h-3.21v.66c0,.18-.33.27-.43.27s-.08-.05-.08-.17,0-1.36,0-1.62V5.9c0-.28,0-.64,0-.92l.61.46h2.94l.3-.44Zm-4.25-3.35c.88.44,1.26.72,1.26,1.13s-.17.54-.36.54-.14,0-.17-.15a2.27,2.27,0,0,0-.82-1.41Zm3.39,5V5.66h-3.21V7.14Zm0,1.81V7.36h-3.21V9ZM194.66.05c1,.39,1.24.59,1.24,1s-.2.53-.38.53a.18.18,0,0,1-.18-.15,1.84,1.84,0,0,0-.75-1.23Z"/><path d="M200.37,10.82l-.17-.16a6.43,6.43,0,0,0,2-4.71,6.13,6.13,0,0,0-2-4.6l.13-.16A6,6,0,0,1,202.9,6,6.12,6.12,0,0,1,200.37,10.82Z"/><path d="M108.14,79.79l-.43-.11,2.7-10.2.43.11Zm55.17-26L134.69,37.09l.23-.39,28.62,16.74Z"/><polyline class="cls-3" points="116.92 92.04 193.42 78.54 191.02 98.04 122.02 106.74 117.22 91.74"/><path d="M23.19,49.37a1.34,1.34,0,0,0-1.13.3.1.1,0,0,1-.1,0l-.08,0a7.38,7.38,0,0,1-3.33-6.28H18.3a10.39,10.39,0,0,1-1.06,3.73c1,.42,1.75.73,1.75,1.38,0,.31-.19.57-.38.57s-.17-.08-.22-.27a2.76,2.76,0,0,0-1.22-1.55,7.41,7.41,0,0,1-3.85,3.1l-.06-.14c3.08-1.84,4.16-3.37,4.5-6.82H14.41a2.05,2.05,0,0,0-.72.12l-.31-.4c.28,0,.54,0,.79,0h3.61a28.39,28.39,0,0,0,.13-3l.91.45c.05,0,.09.06.09.08s0,.05-.08.09L18.5,41c0,.79-.09,1.5-.17,2.17h3.3l.52-.64.64.65c.07.07.1.12.1.16s0,.07-.14.07h-4c.44,2.88,1.76,5.15,4.46,5.82Z"/><path d="M28.24,41.31a.12.12,0,0,1,.06.09s0,.05-.09.07a1,1,0,0,0-.58.47l-1.18,1.93a3.31,3.31,0,0,1,1.36,2.47,1.72,1.72,0,0,1-1.11,1.45s-.07,0-.08-.1c0-.33-.21-.51-1-.73l.05-.17a3.6,3.6,0,0,0,1,.18c.52,0,.69-.3.69-1a3,3,0,0,0-1.12-2l1.08-2.5H25.47v6.14c0,.82,0,1.63,0,2.12v.07c0,.15,0,.2-.27.29a.78.78,0,0,1-.19.06c-.07,0-.09-.06-.09-.23v-.11c0-.64,0-1.61,0-2.22V42.19c0-.44,0-1.18-.05-1.58l.69.6h1.48l.39-.49Zm5.22.15c.06,0,.08.07.08.1s0,.07-.08.1l-.37.25v5.57c0,.82,0,1.49,0,2v.06c0,.17,0,.2-.3.31a.55.55,0,0,1-.2.05c-.06,0-.07,0-.07-.13V48.59H29.25v.89c0,.15,0,.18-.23.27a.62.62,0,0,1-.21.06c-.08,0-.09-.05-.09-.21v-.13c0-.64,0-1.61,0-2.23V41.91c0-.51,0-.78,0-1.12l.69.63h3l.36-.53Zm-.89,3.37V41.66H29.25v3.17Zm0,3.53V45.07H29.25v3.29Z"/><polygon points="100.19 77.36 97.77 74.27 95.67 76.65 95.33 76.35 97.79 73.56 100.54 77.08 100.19 77.36"/><path d="M106.47,87v.75h-1v1.89h-.87V87.75h-3v-.68l3.32-4.73h.58V87Zm-1.83,0V83.45L102.13,87Z"/><path d="M111.8,88.26l-.51,1.38h-4.21v-.2a19.59,19.59,0,0,0,2.62-2.77,3.58,3.58,0,0,0,.76-2,1.57,1.57,0,0,0-.42-1.12,1.33,1.33,0,0,0-1-.43,1.57,1.57,0,0,0-.94.3,1.79,1.79,0,0,0-.62.91h-.2a2.5,2.5,0,0,1,.68-1.5,1.88,1.88,0,0,1,1.36-.52,2,2,0,0,1,1.46.56,1.79,1.79,0,0,1,.58,1.32,2.52,2.52,0,0,1-.26,1.08,7.28,7.28,0,0,1-1.26,1.81c-.88,1-1.42,1.53-1.64,1.73h1.87a5,5,0,0,0,.8,0,1.15,1.15,0,0,0,.41-.17,1.17,1.17,0,0,0,.32-.37Z"/><path d="M176.28,111.43l-.78-.45.22-.39.78.45Zm-3.12-1.8-.78-.45.22-.39.78.45Zm-3.12-1.8-.78-.45.23-.39.78.45Zm-3.12-1.8-.78-.45.23-.39.78.45Zm-3.11-1.8-.78-.45.22-.39.78.45Zm-3.12-1.8-.78-.45.22-.39.78.45Zm-3.12-1.8-.78-.45.23-.39.77.45Zm-3.12-1.8-.78-.45.23-.39.78.45ZM151.33,97l-.77-.45.22-.39.78.45Zm-3.11-1.8-.78-.45.22-.39.78.45Zm-3.12-1.8-.78-.45.22-.39.78.45ZM142,91.63l-.78-.45.23-.39.78.45Zm-3.12-1.8-.78-.45.23-.39.78.45ZM135.75,88l-.78-.45.22-.39.78.45Zm-3.12-1.8-.78-.45.22-.39.78.45Zm-3.12-1.8-.78-.45.23-.39.78.45Zm-3.12-1.8-.78-.45.23-.39.78.45Zm-3.11-1.8-.78-.45.22-.39.78.45ZM120.16,79l-.78-.45.22-.39.78.45ZM117,77.23l-.78-.45.23-.39.78.45Zm-3.12-1.8-.78-.45.23-.39.78.45Zm-3.11-1.8-.78-.45.22-.39.78.45Zm-3.12-1.8-.78-.45.22-.39.78.45ZM104.57,70l-.78-.45.22-.39.78.45Zm-3.12-1.8-.78-.45.23-.39.78.45Zm-3.12-1.8L97.55,66l.23-.39.78.45Zm-3.11-1.8-.78-.45.22-.39.78.45Zm-3.12-1.8-.78-.45.22-.39.78.45ZM89,61l-.78-.45.23-.39.78.45Zm-3.12-1.8-.78-.45.23-.39.78.45Zm-3.11-1.8L82,57l.22-.39L83,57Zm-3.12-1.8-.78-.45.22-.39.78.45Zm-3.12-1.8-.78-.45L76,53l.78.45ZM73.39,52l-.78-.45.23-.39.78.45Zm-3.11-1.8-.78-.45.22-.39.78.45Zm-3.12-1.8L66.38,48l.22-.39.78.45ZM64,46.63l-.78-.45.23-.39.77.45Zm-3.12-1.8-.78-.45.23-.39.78.45ZM57.8,43,57,42.58l.22-.39.78.45Zm-3.11-1.8-.78-.45.22-.39.78.45Zm-3.12-1.8L50.79,39l.22-.39.78.45Zm-3.12-1.8-.78-.45.23-.39.78.45Zm-3.12-1.8-.78-.45.23-.39.78.45ZM42.22,34l-.78-.45.22-.39.78.45Zm-3.12-1.8-.78-.45.22-.39.78.45ZM36,30.43,35.2,30l.23-.39.78.45Zm-3.12-1.8-.78-.45.23-.39.78.45Zm-3.11-1.8L29,26.38l.22-.39.78.45ZM26.63,25l-.78-.45.22-.39.78.45Zm-3.12-1.8-.78-.45.23-.39.77.45Z"/><path d="M98,74.28h-.45V70.86l-2.73,1.4-.21-.4,3.17-1.62,2.69,1.62-.23.39L98,70.9Zm-.25-4.64a1.07,1.07,0,1,1,1.07-1.06A1.07,1.07,0,0,1,97.76,69.64Zm0-1.68a.61.61,0,0,0-.61.62.61.61,0,0,0,.61.61.61.61,0,0,0,.62-.61A.62.62,0,0,0,97.76,68Z"/><path d="M113.17,80.13a1.06,1.06,0,0,1,.88.42,1.26,1.26,0,0,1,.29.81,1.6,1.6,0,0,1-.16.66,1.12,1.12,0,0,1-.43.5,1.14,1.14,0,0,1-.61.17,1,1,0,0,1-.86-.43,1.38,1.38,0,0,1-.28-.83,1.47,1.47,0,0,1,.17-.66,1.11,1.11,0,0,1,1-.64Zm-.08.17a.6.6,0,0,0-.28.08.67.67,0,0,0-.23.3,1.34,1.34,0,0,0-.08.53,1.85,1.85,0,0,0,.21.91.6.6,0,0,0,.55.38.51.51,0,0,0,.42-.21,1.19,1.19,0,0,0,.17-.72,1.71,1.71,0,0,0-.28-1A.59.59,0,0,0,113.09,80.3Z"/><path d="M115.09,48.63a1.09,1.09,0,0,1,.89.42,1.33,1.33,0,0,1,.28.82,1.45,1.45,0,0,1-.16.65,1.06,1.06,0,0,1-.43.5,1,1,0,0,1-.6.17,1,1,0,0,1-.87-.43,1.37,1.37,0,0,1-.27-.83,1.46,1.46,0,0,1,.16-.66,1.09,1.09,0,0,1,.44-.48A1,1,0,0,1,115.09,48.63Zm-.08.17a.54.54,0,0,0-.28.09.58.58,0,0,0-.23.29,1.6,1.6,0,0,0-.08.53,1.85,1.85,0,0,0,.21.91.61.61,0,0,0,.55.38.51.51,0,0,0,.42-.21,1.19,1.19,0,0,0,.17-.72,1.66,1.66,0,0,0-.28-1A.56.56,0,0,0,115,48.8Z"/><path d="M100.15,66.56l-.1-.44.88-.2.1.44Zm3.51-.79-.1-.44.88-.2.1.44Zm3.51-.8-.09-.43.87-.2.1.44Zm3.52-.79-.1-.44.87-.2.1.44Zm3.51-.79-.1-.44.88-.2.1.44Zm3.51-.79-.1-.44.88-.2.1.44Zm3.51-.79-.1-.44.88-.2.1.44Zm3.51-.8-.1-.43.88-.2.1.44Zm3.52-.79-.1-.44.87-.2.1.44Zm3.51-.79-.1-.44.88-.2.1.44Zm3.51-.79-.1-.44.88-.2.1.44Zm3.51-.79-.1-.44.88-.2.1.44Zm3.51-.8-.1-.43.88-.2.1.44Zm3.51-.79-.09-.44.87-.2.1.44Zm3.52-.79-.1-.44.87-.2.1.44Zm3.51-.79-.1-.44.88-.2.1.44Zm3.51-.79-.1-.44.88-.2.1.44Zm3.51-.8-.1-.44.88-.19.1.44Zm3.51-.79-.1-.44.88-.2.1.44Zm3.52-.79-.1-.44.87-.2.1.44Zm3.51-.79-.1-.44.88-.2.09.44Zm3.51-.79-.1-.44.88-.2.1.44Zm3.51-.8-.1-.44.34-.07.1.44Z"/><rect x="3.94" y="77.29" width="180.48" height="0.45"/><circle class="cls-8" cx="21.8" cy="21.84" r="10.68" transform="translate(-3.76 39.12) rotate(-79.1)"/><path d="M21.8,32.74a10.91,10.91,0,1,1,10.91-10.9A10.91,10.91,0,0,1,21.8,32.74Zm0-21.36A10.46,10.46,0,1,0,32.26,21.84,10.47,10.47,0,0,0,21.8,11.38Z"/></g></g></svg>