<svg xmlns="http://www.w3.org/2000/svg" width="325" viewBox="0 0 161.82 61.58"><defs><style>.cls-1{fill:#ff5959;}.cls-1,.cls-2,.cls-3,.cls-4,.cls-5{fill-rule:evenodd;}.cls-2{fill:#ffeb80;}.cls-3{fill:#ccf;}.cls-4{fill:#ffff80;}.cls-5{fill:#fff;}</style></defs><g id="图层_2" data-name="图层 2"><g id="图层_1-2" data-name="图层 1"><polyline class="cls-1" points="116.82 50.1 116.82 48.66 116.88 47.58 116.88 44.7 116.94 43.14 117 41.64 117 40.2 117.06 38.88 117.12 37.68 117.24 35.64 117.3 34.68 117.54 32.76 117.6 31.86 117.72 30.9 117.84 30 117.9 29.1 118.14 27.3 118.32 26.4 118.44 25.44 118.62 24.54 118.8 23.58 119.28 21.66 119.88 19.62 120.24 18.6 120.6 17.52 121.02 16.44 121.38 15.3 122.22 13.14 122.58 12.12 122.94 11.16 123.3 10.26 123.66 9.42 124.02 8.64 124.5 7.68 124.98 6.9 125.4 6.18 125.88 5.52 126.36 4.92 126.84 4.38 127.68 3.3 128.52 2.34 129.12 1.74 129.66 1.26 130.14 0.9 131.1 0.3 131.64 0.12 132.18 0.06 132.78 0 133.38 0.06 133.92 0.12 134.58 0.3 135.24 0.54 135.66 0.78 136.14 1.02 136.68 1.32 137.16 1.62 138.78 2.7 139.26 3.12 139.74 3.6 140.22 4.14 140.94 5.22 141.3 5.82 141.66 6.48 141.96 7.14 142.32 7.86 142.62 8.52 142.98 9.24 143.28 9.96 143.64 10.68 144.24 12.24 144.84 13.92 145.08 14.82 145.38 15.72 145.68 16.68 145.92 17.64 146.22 18.6 146.7 20.52 147 21.48 147.18 22.5 147.42 23.52 147.78 25.32 148.02 27.24 148.2 28.2 148.32 29.22 148.44 30.18 148.68 32.22 148.92 34.14 149.04 35.16 149.16 36.06 149.34 38.94 149.4 39.96 149.46 41.16 149.46 42.36 149.52 43.68 149.58 45.06 149.58 47.46 149.64 48.42 149.64 49.62"/><polyline class="cls-2" points="9.3 50.34 5.34 47.4 10.32 46.44 9.3 41.1 14.28 42.12 15.6 35.52 19.5 38.82 23.82 34.86 25.86 39.48 32.4 37.2 32.4 42.78 38.04 43.44 35.4 47.1 39 49.98"/><polygon points="9.17 50.52 4.79 47.28 10.06 46.26 9.02 40.81 14.1 41.85 15.45 35.1 19.49 38.52 23.9 34.48 25.98 39.2 32.63 36.88 32.63 42.58 38.45 43.26 35.71 47.06 39.14 49.8 38.86 50.16 35.09 47.14 37.63 43.62 32.17 42.98 32.17 37.52 25.74 39.76 23.74 35.24 19.51 39.12 15.75 35.94 14.46 42.38 9.58 41.39 10.58 46.62 5.88 47.52 9.43 50.16 9.17 50.52"/><polyline class="cls-3" points="119.52 49.62 119.52 49.44 119.58 49.02 119.58 48.24 119.64 47.22 119.76 45.96 119.82 44.58 119.94 43.14 120 41.7 120.12 40.32 120.18 39.12 120.24 38.04 120.36 37.02 120.48 35.22 120.6 34.32 120.66 33.48 120.78 32.64 120.84 31.74 120.9 30.9 121.02 30.06 121.08 29.22 121.32 27.54 121.38 26.76 121.5 25.92 121.62 25.2 121.74 24.42 121.92 23.58 122.04 22.74 122.22 21.96 122.4 21.24 122.58 20.46 123.3 17.58 124.02 15.42 124.32 14.76 124.62 14.04 124.92 13.38 125.28 12.66 125.64 12 126 11.28 126.36 10.62 126.78 9.96 127.08 9.36 127.44 8.76 127.74 8.22 128.04 7.74 128.46 7.14 128.82 6.66 129.12 6.24 129.48 5.82 129.78 5.52 130.08 5.16 130.38 4.86 130.74 4.62 131.16 4.38 131.64 4.26 132.06 4.14 132.48 4.14 132.96 4.08 133.44 4.14 134.28 4.26 134.7 4.32 135.12 4.38 135.6 4.5 136.02 4.68 136.5 4.98 137.04 5.52 137.4 6 137.82 6.6 138.24 7.26 138.66 8.04 139.62 9.72 140.04 10.62 140.52 11.46 140.94 12.3 141.36 13.08 141.72 13.8 142.02 14.52 142.38 15.3 142.86 16.74 143.1 17.4 143.46 18.6 143.7 19.26 144.06 20.82 144.24 21.72 144.48 23.16 144.6 23.94 144.72 24.78 144.84 25.68 144.9 26.58 145.02 27.48 145.14 28.44 145.2 29.34 145.32 30.24 145.38 31.08 145.5 31.92 145.56 32.7 145.62 33.42 145.74 35.34 145.92 37.86 145.92 38.7 145.98 39.48 145.98 40.32 146.04 41.1 146.04 49.62"/><path class="cls-4" d="M11.64,50.35a11.44,11.44,0,0,1,22.44-.61"/><path d="M11.86,50.39l-.44-.08a11.66,11.66,0,0,1,22.88-.62l-.44.1a11.21,11.21,0,0,0-22,.6Z"/><polyline class="cls-5" points="123.12 50.1 123.12 48.9 123.18 48 123.18 45.42 123.24 43.92 123.24 42.36 123.3 40.8 123.3 39.36 123.36 38.04 123.42 36.78 123.42 35.7 123.48 34.74 123.54 33.84 123.66 31.92 123.78 31.02 123.84 30.12 123.96 29.28 124.02 28.44 124.14 27.6 124.2 26.82 124.32 25.98 124.8 22.86 124.92 22.14 125.1 21.3 125.28 20.52 125.52 19.74 125.7 19.02 125.94 18.24 126.42 16.8 127.38 14.16 127.62 13.62 128.04 12.84 128.88 11.52 129.3 10.92 129.78 10.38 130.2 9.84 130.68 9.42 131.22 9.12 131.76 8.94 133.02 8.94 133.74 9.06 134.4 9.18 135.06 9.36 135.6 9.6 136.14 10.02 136.5 10.44 136.8 10.98 137.1 11.64 137.34 12.3 137.64 13.02 138.12 14.46 138.36 15.24 138.6 15.96 138.84 16.74 139.02 17.4 139.26 18.12 139.44 18.84 139.62 19.62 139.86 20.4 140.22 21.96 140.46 22.74 140.64 23.52 140.82 24.24 140.94 25.02 141.12 25.74 141.24 26.46 141.42 27.18 142.02 30.78 142.08 31.5 142.2 32.16 142.32 32.88 142.44 34.32 142.5 35.16 142.5 39.54 142.44 40.38 142.44 50.1"/><path d="M161.82,50.2H3.36v-.44H84.44l-1.83-2.31-1.8,2.08-.34-.3L82.4,47V44.47l-2.32,1.21-.2-.4,2.75-1.44L85,45.29l-.24.38L82.85,44.5V47L85,49.76h76.81ZM103.48,36.58l-.32-.32.18-.18.29-.34,2-2.35,1.43-1.9.59-.89.35-.7.15-.58,0-.52-.23-.51-.39-.56-.69-.62-.88-.65-1.07-.71-2.28-1.44-1-.6-.78-.41-.68-.43.07-.1v-.31h.13l.71.45.77.41,1,.61,2.29,1.44,1.09.72.9.67.74.67.45.64.28.65.07.64-.19.7-.38.76-.61.93L106,33.68Z"/><path d="M85.36,42l-.3-.34.67-.6.3.33ZM88,39.58l-.31-.34.67-.6.3.33Zm2.67-2.41-.3-.33.67-.61.3.34Zm2.68-2.41-.3-.33.67-.61.3.34Zm2.67-2.41-.3-.33.67-.6.3.33Zm2.68-2.41-.3-.33.67-.6.3.33Zm2.68-2.4-.31-.34.67-.6.3.33Zm2.67-2.41-.3-.34.67-.6.3.34Zm2.68-2.41-.3-.33.67-.61.3.34Zm2.67-2.41-.3-.33.67-.6.3.33Zm2.68-2.41-.3-.33.67-.6.3.33Zm2.68-2.4-.31-.34.67-.6.3.33Zm2.67-2.41-.3-.34.67-.6.3.34Zm2.68-2.41-.3-.33.67-.61.3.34Zm2.67-2.41-.3-.33.67-.6.3.33Zm2.68-2.41-.3-.33.67-.6.3.33Zm2.68-2.4-.3-.34.66-.6.3.33Zm2.67-2.41-.3-.34.67-.6.3.34Z"/><path d="M82.64,43.36a.95.95,0,1,1,.94-.94A.95.95,0,0,1,82.64,43.36Zm0-1.44a.5.5,0,1,0,.49.5A.5.5,0,0,0,82.64,41.92Z"/><path d="M129.09,56.57a.22.22,0,0,1,.06.07s0,0-.09,0h-2.51v2.86c0,.49,0,.91,0,1.35V61c0,.14,0,.18-.24.27a.46.46,0,0,1-.18.06c-.08,0-.1-.07-.1-.24V61c0-.57,0-1,0-1.45V57.42a13.12,13.12,0,0,1-2.71,3.22l-.08-.11a16.36,16.36,0,0,0,2.76-3.86h-1.64a2,2,0,0,0-.66.11l-.28-.36c.25,0,.5,0,.73,0h1.88c0-.42,0-.73,0-1.08l.71.32s0,0,0,0a1.83,1.83,0,0,1-.27.2v.52H128l.42-.56Zm-.1-4s0,0,0,.05,0,0-.05,0l-.24,0a1.7,1.7,0,0,0-.41,0,42,42,0,0,1-4.61.77v-.14a31.21,31.21,0,0,0,4.82-1.24Zm-4.83,1.18c.82.6,1.24,1.07,1.24,1.4s-.16.5-.31.5-.16-.06-.22-.3a4.09,4.09,0,0,0-.78-1.52Zm1.66-.43c.75.5,1,.83,1,1.19a.43.43,0,0,1-.35.46c-.13,0-.2-.1-.21-.38a2.3,2.3,0,0,0-.58-1.22Zm.89,4.18c1.19.46,1.86.85,1.86,1.4,0,.21-.1.38-.19.38s-.18-.06-.35-.39a4.62,4.62,0,0,0-1.39-1.31Zm5.67.46s.06.07.06.09,0,0-.06,0l-.13,0a.52.52,0,0,0-.35.16A10.42,10.42,0,0,1,127,61.42l0-.14a10.37,10.37,0,0,0,4.93-3.82Zm-3.47-4.41s0,0,0,0,0,0-.06,0c-.21,0-.27.07-1.47,2l-.1-.06c.26-.56.78-1.88,1-2.38Zm3.1,1.84a.1.1,0,0,1,.05.08s0,0-.05,0h-.11a.55.55,0,0,0-.36.14,16,16,0,0,1-3,2.49l-.09-.12a17.72,17.72,0,0,0,3-3.14Zm-.19-2.75a.18.18,0,0,1,.05.07s0,0-.14,0a.5.5,0,0,0-.32.14,17.27,17.27,0,0,1-2.77,2.5l-.09-.1a15.25,15.25,0,0,0,2.7-3.1Z"/><path d="M136.3,58.33a3.67,3.67,0,0,1,1.23,1.15.87.87,0,0,1,.1.39c0,.29-.15.51-.32.51s-.21-.09-.25-.42a2,2,0,0,0-.05-.24l-2.75.79a1.49,1.49,0,0,0-.7.35s-.05,0-.07,0,0,0-.06,0l-.31-.55,2-.39V57.45h-.93v.45c0,.19-.31.29-.38.29s-.08,0-.08-.15,0-.09,0-.15c0-.29,0-.76,0-1.13V54.93c0-.21,0-.63,0-.91l.58.42h.8v-.69c0-.4,0-1.08,0-1.44l.68.32c.07,0,.11.07.11.1s0,.05-.32.24v1.47h.93l.29-.45.61.46c.05,0,.08.06.08.09s0,.05-.07.06l-.33.2v1.64c0,.54,0,.88,0,1.24v.07c0,.14,0,.18-.21.25a.65.65,0,0,1-.2.06c-.05,0-.06,0-.06-.12v-.49h-1.07v2.38l1.41-.26a3.16,3.16,0,0,0-.73-1.15Zm-1.18-1.1V54.65h-.93v2.58Zm1.5,0V54.65h-1.07v2.58Zm5.64,3.29c.08.08.12.13.12.16s-.06,0-.17,0H138a2.3,2.3,0,0,0-.67.1l-.27-.35c.23,0,.49,0,.72,0h1.66V53.75h-1a2.28,2.28,0,0,0-.66.1l-.28-.35c.24,0,.5,0,.73,0h2.85l.38-.52.53.54c.07.07.11.12.11.14s-.06,0-.17,0h-2v6.77h1.38l.43-.55Z"/><path d="M9.19,59.79c.06.06.09.1.09.13s0,0-.14,0H2.59v.71c0,.09,0,.12-.2.21A.55.55,0,0,1,2.2,61c-.06,0-.08-.05-.08-.19v-.07c0-.45,0-1.16,0-1.59V56.37a11.76,11.76,0,0,1-2,2L0,58.28a16.73,16.73,0,0,0,2.13-2.49c0-.2,0-.37,0-.49l.26.15c.42-.62.76-1.15,1-1.65H1.25a2.1,2.1,0,0,0-.64.1l-.26-.36c.22,0,.47,0,.69,0H3.53a16.81,16.81,0,0,0,.9-1.93l.73.45s.06,0,.06.07,0,0-.1.06c-.31.09-.36.14-.47.32-.2.36-.4.71-.6,1H7.83L8.27,53l.57.57c.08.08.11.13.11.16s0,0-.16,0H3.92c-.43.69-.84,1.32-1.24,1.86.13.07.14.08.14.11a1.31,1.31,0,0,1-.23.21v3.79h3v-2.9H4.28a2.1,2.1,0,0,0-.64.1l-.26-.36c.22,0,.47,0,.69,0H5.62v-1.4c0-.39,0-.63,0-1l.73.3c.07,0,.1.05.1.07s0,.06-.08.1L6.08,55v1.69H7.5l.41-.58.56.59c.07.07.1.12.1.16s-.05,0-.15,0H6.08v2.9h2l.57-.63Z"/><path d="M13.85,58.19l-2.7,1.33a1.5,1.5,0,0,0-.55.45s0,.07-.08.07-.06,0-.1-.07l-.4-.45,1.69-.66V55.43H11a2.16,2.16,0,0,0-.6.09l-.25-.34c.22,0,.44,0,.65,0h.93V53.48c0-.38,0-1,0-1.36l.75.34c.06,0,.1.06.1.1s0,.07-.34.27v2.39h.69l.35-.47.45.47c.06.06.1.11.1.15s0,.06-.14.06H12.18v3.25l1.6-.62Zm5,.13c0,1.08.05,1.24.32,1.48.05,0,.07.07.07.11a.22.22,0,0,1,0,.1c-.29.68-.47.77-2.76.77S14,60.69,14,59.55V56.22a2.88,2.88,0,0,0-.9.5l-.43-.23a3.52,3.52,0,0,0,.67-.23L14,56V54.36c0-.28,0-.79,0-1.18l.71.33c.06,0,.09.06.09.1s0,.07-.3.27v1.9l1.34-.56V53c0-.4,0-.85,0-1.2l.72.37s.07,0,.07.08,0,.06-.06.09l-.26.16V55l1.48-.62.19-.49.71.4a.1.1,0,0,1,.06.09s0,.05-.06.08l-.32.22c0,.81-.12,2.23-.2,2.92a1.06,1.06,0,0,1-.66,1,.11.11,0,0,1-.07,0s-.07,0-.08-.08c-.08-.28-.2-.34-.91-.55l0-.16a4.8,4.8,0,0,0,.76.1c.38,0,.46-.18.53-.65a27.65,27.65,0,0,0,.17-2.77l-1.63.69v2.19c0,.18,0,1.12,0,1.34s0,.23-.24.35a.4.4,0,0,1-.16.07c-.06,0-.09-.07-.09-.24s0-1.29,0-1.53v-2L14.44,56v3.54c0,.77,0,.81,2.08.81A14.85,14.85,0,0,0,18,60.31c.54-.07.58-.13.68-2Z"/><path d="M29,56.37a.29.29,0,0,1,.11.15s-.05.06-.14.06H24.81v1.93c0,.75,0,1.48,0,1.93v.08c0,.12,0,.16-.25.25a.79.79,0,0,1-.2.07c-.07,0-.09-.07-.09-.22v-.1c0-.59,0-1.47,0-2V56.58H20.77a2,2,0,0,0-.66.11l-.28-.36c.25,0,.49,0,.72,0h3.79V52.62h-2.8a2,2,0,0,0-.66.11l-.28-.36.73,0h5.88l.47-.56.5.56c.07.08.1.13.1.16s-.05.06-.17.06h-3.3v3.75H28l.45-.61Zm-7.49-3c1,.67,1.66,1.33,1.66,1.77s-.23.54-.39.54-.17-.08-.24-.43a3.75,3.75,0,0,0-1.1-1.77Zm6.05.23c.06,0,.09.07.09.1s-.05.07-.15.12c-.26.13-.48.34-1.86,2.1l-.14-.1A23.84,23.84,0,0,0,27,53.17Z"/><path d="M33.48,54c.06,0,.08.07.08.1s0,0-.11.07a.81.81,0,0,0-.34.24,38.3,38.3,0,0,1-2.36,3.15l2.56-.41,0,.16a9.27,9.27,0,0,0-2.8.92l-.08,0s0,0-.07-.06L30,57.61a1.23,1.23,0,0,0,.91-.65c.34-.48.7-1,1-1.53a5.06,5.06,0,0,0-1.73.44l-.07,0s-.05,0-.08,0l-.4-.53a1,1,0,0,0,.72-.52A13.54,13.54,0,0,0,31.72,52l.63.39c.06,0,.09.06.09.08s0,0-.09.07a.61.61,0,0,0-.32.25c-.6,1-1.17,1.8-1.75,2.58l1.79-.09a15.36,15.36,0,0,0,.84-1.63Zm.45,4.65-2,.88a4.3,4.3,0,0,0-1.39.8.09.09,0,0,1-.07,0s0,0-.07,0L30,59.82l3.91-1.27Zm4.74-.38c0,.38,0,.7,0,1a2.19,2.19,0,0,0,.26,1.29.45.45,0,0,1,.11.26c0,.11-.11.13-.19.13a4.62,4.62,0,0,1-2.88-2,13.93,13.93,0,0,1-3.49,1.94l0-.14a15.28,15.28,0,0,0,3.33-2.15,6.46,6.46,0,0,1-.61-2l-1,.17a2,2,0,0,0-.63.2l-.39-.3.7-.09,1.25-.21c-.06-.44-.09-.93-.13-1.5l-.52.09a2.59,2.59,0,0,0-.63.2l-.34-.32a6.53,6.53,0,0,0,.71-.07l.78-.13c0-.91-.08-1.88-.11-2.82l.75.34c.06,0,.09,0,.09.07s0,0-.07.08l-.25.17c0,.72,0,1.37,0,2.09l2.25-.37.3-.51.73.47s.07,0,.07.06,0,0-.08,0l-3.27.54a12.34,12.34,0,0,0,.13,1.5l2.32-.4.39-.58.72.49q.09.06.09.09s0,0-.1,0l-3.39.6a6.62,6.62,0,0,0,.53,1.79,7,7,0,0,0,1.34-1.6l.66.38s.08,0,.08.07,0,0-.11.06a1,1,0,0,0-.45.25c-.46.46-.9.86-1.31,1.2a4.15,4.15,0,0,0,1.87,1.5l.39-1.89Zm-2.33-6c1,.35,1.28.55,1.28.93,0,.21-.13.36-.27.36s-.14,0-.2-.21a2.89,2.89,0,0,0-.86-1Z"/><path d="M43.39,52.93s.08.06.08.09,0,0-.08.08l-.32.23v4.14c0,.75,0,1.11,0,1.43V59c0,.21-.42.41-.43.41s-.05-.07-.05-.2v-.46h-1.9v.85c0,.1,0,.12-.21.24a.58.58,0,0,1-.2.1c-.06,0-.07-.07-.07-.23v-.1c0-.61,0-1.28,0-2.06V53.56c0-.49,0-.77,0-1.11l.6.44h1.68l.26-.36Zm-.77,2.6V53.11h-1.9v2.42Zm0,3V55.75h-1.9V58.5Zm6.15-4.16a.34.34,0,0,1,.08.1s0,0-.13,0H47.21v5.46c0,.64,0,.68-.76,1l-.09,0s-.06,0-.07-.08c-.07-.36-.26-.53-1.43-.84l0-.16a7.5,7.5,0,0,0,1.36.21c.41,0,.5-.13.5-.31v-5.3H44.34a2.87,2.87,0,0,0-.58.07l-.36-.32a5.85,5.85,0,0,0,.73,0h2.62V53.22c0-.83,0-1.1,0-1.44l.7.36c.07,0,.11.06.11.09s0,.06-.11.1l-.22.12v1.82h.62l.36-.56Zm-4.5,1.16c.75.58,1.23,1,1.23,1.49,0,.25-.15.48-.34.48s-.19-.06-.27-.46a3.11,3.11,0,0,0-.71-1.43Z"/><path d="M53,15.32a.16.16,0,0,1,0,.09s0,.05-.08.07c-.23.07-.29.18-.34.47a14.49,14.49,0,0,1-.69,2.62c.28.36.7.95.91,1.25a1.14,1.14,0,0,1,.21.64c0,.23-.1.39-.25.39s-.23,0-.45-.69A4.62,4.62,0,0,0,51.7,19a8.81,8.81,0,0,1-2.36,3.18l-.1-.08a11.71,11.71,0,0,0,2.17-3.5,20.25,20.25,0,0,0-1.51-1.8l.1-.11a14.67,14.67,0,0,1,1.57,1.49,11.72,11.72,0,0,0,.54-2.78l-1.74.06a1.64,1.64,0,0,0-.6.11l-.26-.34a4.38,4.38,0,0,0,.72,0l1.79,0,.35-.48ZM55.9,16c.06,0,.09,0,.09.08s0,0-.07.08l-.23.2a16.42,16.42,0,0,1-.42,3.23A5.61,5.61,0,0,1,52,23.15L51.91,23A6,6,0,0,0,55,19a15.61,15.61,0,0,0,.19-2.72c0-.23,0-.46,0-.67Zm1.84-1.18a.09.09,0,0,1,0,.07s0,0-.05.06l-.37.2v2.55c0,.76,0,1.17,0,1.62v.06c0,.13,0,.16-.24.24a.58.58,0,0,1-.2.06c-.06,0-.08-.05-.08-.15v-.11c0-.36,0-.65,0-1.21V15H54.05v3.49c0,.13,0,.76,0,.91s0,.13-.25.25a.35.35,0,0,1-.16.06c-.06,0-.08-.06-.08-.19v-.1c0-.35,0-.76,0-1.11v-2.7c0-.36,0-1,0-1.3l.58.47h2.59L57,14.3Zm.38,5.49c0,.19,0,.34,0,.48,0,.68.08.83.3.95a.11.11,0,0,1,.07.1.13.13,0,0,1,0,.06c-.19.55-.52.73-1.42.73-1.47,0-1.52-.06-1.52-.89V19.42a6.7,6.7,0,0,0,0-.72l.7.34s.06,0,.06.06,0,0-.06.07l-.22.17v2.24c0,.64,0,.66,1.07.66.73,0,.81,0,.93-1.92Z"/><path d="M63.85,16.63s.06.05.06.07,0,.06-.11.09a.72.72,0,0,0-.39.37,8,8,0,0,1-4.25,3.77l0-.13a8.11,8.11,0,0,0,4-4.09H61.56A10.36,10.36,0,0,1,59.47,19l-.08-.1a13.05,13.05,0,0,0,2.25-3.21l.55.32c.05,0,.07.05.07.07s0,0-.09,0-.22.06-.45.36h1.37l.19-.24Zm-1.46,4.53s.08.06.08.08,0,0-.09,0a.87.87,0,0,0-.53.25,18.74,18.74,0,0,1-2.33,1.64L59.47,23a13.29,13.29,0,0,0,2.33-2.26Zm5.48-5.95c.06,0,.09.08.09.1s0,0-.1,0c-.33,0-.57.2-1,.76l-.12-.06.31-.67H60.48c0,.59-.17,1.21-.69,1.21-.13,0-.29-.08-.29-.22a.29.29,0,0,1,.17-.24c.26-.13.51-.56.64-1.32h.12c0,.12,0,.23,0,.34h6.47l.31-.43Zm-7.21,2.85c.52.39.65.57.65.79s-.14.4-.26.4a.2.2,0,0,1-.2-.18,1.76,1.76,0,0,0-.26-.93Zm5.59,2.13a.21.21,0,0,1,.06.08s0,0-.09,0H64.08v2a.91.91,0,0,1-.64,1l0,0s0,0-.06-.07c0-.3-.19-.52-1.12-.78l0-.14a6.92,6.92,0,0,0,1.12.15c.25,0,.27-.07.27-.19v-2H62.16a2,2,0,0,0-.63.1L61.26,20c.23,0,.48,0,.69,0h3.39l.35-.47Zm-4.9-3c.44.16.91.35.91.71,0,.17-.12.33-.23.33a.18.18,0,0,1-.15-.12,1.5,1.5,0,0,0-.57-.81ZM65.21,19c0,.05.07.08.07.11s0,0-.12,0h-2a1.61,1.61,0,0,0-.56.08l-.27-.34a5.53,5.53,0,0,0,.69,0h1.41l.34-.45Zm-2.35-5.15c1,.29,1.18.56,1.18.89s-.11.38-.25.38-.21-.1-.25-.25a1.74,1.74,0,0,0-.71-.92Zm5.59,5.78c-.53,0-.68.16-.86.44a.05.05,0,0,1,0,0l-.09,0a5.87,5.87,0,0,1-3.58-4.35l.12,0a7.24,7.24,0,0,0,.3.79h1.87l.25-.35.57.43s.08.07.08.09,0,0-.1.06c-.29.07-.52.21-1.61,1.42a4.7,4.7,0,0,0,3.1,1.37Zm-2.31-2.93H64.39A5.68,5.68,0,0,0,65.25,18ZM64.9,20.91A5.13,5.13,0,0,1,67.28,22a.65.65,0,0,1,.13.38c0,.18-.1.32-.22.32a.33.33,0,0,1-.3-.17,5.32,5.32,0,0,0-2-1.46Z"/><path d="M78.24,17.33a.22.22,0,0,1,.07.1s0,0-.12,0h-4c-.61.52-1.24,1-1.87,1.46h3.2l.31-.45.62.49s.06.06.06.08,0,.05-.07.08l-.28.17v2.37c0,.18,0,1.09,0,1.14s0,.18-.25.27l-.19.06s-.06-.05-.06-.13v-.7H71.92v.57c0,.14,0,.18-.19.25a.49.49,0,0,1-.2.06c-.07,0-.09-.06-.09-.23s0-1.25,0-1.33V19.54a20.2,20.2,0,0,1-2.38,1.36L69,20.76c.9-.55,1.71-1.09,2.46-1.6l0-.64.44.33c.66-.47,1.24-.94,1.77-1.39H69.86a2.28,2.28,0,0,0-.66.1l-.28-.35a6.06,6.06,0,0,0,.73,0h3.22V15.64H71.09a2,2,0,0,0-.63.1l-.27-.35.69,0h2v-.6c0-.39,0-.62,0-1l.67.28c.06,0,.09,0,.09.08s0,0,0,.07l-.22.18v1h.94l.35-.5.56.61s0,.05,0,.07,0,0-.07,0H73.33v1.61h.57a18.27,18.27,0,0,0,2.63-2.75l.57.42s.06.05.06.07,0,0-.07,0c-.29.08-.33.1-.45.22-.68.68-1.4,1.35-2.14,2h2.67l.45-.6Zm-2.49,3.13V19.14H72.06l-.14.1v1.22Zm0,1.62V20.67H71.92v1.41Z"/><path d="M87.31,16.79s.06.05.06.07,0,0-.06.07l-.32.26v4.87c0,.66-.08.8-.69,1.11l0,0s-.06,0-.08-.08c-.1-.31-.22-.46-1.18-.75l0-.13a6.58,6.58,0,0,0,1.14.15c.32,0,.35-.1.35-.26V20.27H84v1.45c0,.16,0,1,0,1s0,.15-.22.25a.61.61,0,0,1-.25.11s-.06,0-.06-.1V23c0-.34,0-.64,0-1.19V20.27H81.11a3.81,3.81,0,0,1-1.74,3l-.08-.09a4.94,4.94,0,0,0,1.47-3.88c0-.32,0-1.26,0-2.54a13.79,13.79,0,0,1-1.56,1.41L79.1,18a22,22,0,0,0,3.41-4.17l.66.37s.07,0,.07.06,0,0-.09,0-.32.1-.83.71h2.4l.32-.37.66.58c0,.05.07.08.07.11s0,0-.13,0c-.44,0-.85.32-1.71,1.38h2.41l.3-.47Zm-2.59-1.53H82.14c-.41.48-.79.91-1.17,1.29l.39.23H83.7Zm-1.19,4.8V18.65H81.25c0,.55-.06,1-.11,1.41Zm0-1.63V17H81.29l0,1.43Zm3,0V17H84v1.43Zm0,1.63V18.65H84v1.41Z"/><path d="M97.8,15.35a.22.22,0,0,1,.07.1s0,0-.11,0H90.57v2.19c0,2.43-.25,4.4-1.71,5.51l-.08-.09c1-1.36,1.34-2.28,1.34-5.35V16c0-.38,0-.82,0-1.16l.66.49h6l.44-.59Zm.34,7.25a.91.91,0,0,0-.89.46.08.08,0,0,1-.08,0A12,12,0,0,1,94,22a8,8,0,0,1-4.18,1.28v-.15a9.17,9.17,0,0,0,3.84-1.39,4.13,4.13,0,0,1-1.24-1.91h-.35a1.22,1.22,0,0,0-.52.11l-.27-.37c.24,0,.49,0,.72,0h3.23l.32-.36.57.44s0,.05,0,.07,0,0-.08.06a.79.79,0,0,0-.37.27,7.65,7.65,0,0,1-1.37,1.63,8.45,8.45,0,0,0,3.77.72ZM97.82,17c.05,0,.08.07.08.09s0,0-.1,0H95.56v.64c0,.15,0,.94,0,.94s0,.14-.22.21a.8.8,0,0,1-.2.05c-.07,0-.07,0-.07-.3H93c0,.22,0,.25-.2.33a.79.79,0,0,1-.2.07s-.06,0-.06-.13,0-.71,0-.84v-1h-.64a2,2,0,0,0-.66.11L91,16.91c.25,0,.5,0,.72,0h.86v-.41c0-.35,0-.63,0-.91l.72.34s0,0,0,.06a.1.1,0,0,1,0,.07l-.24.18V17h2.11v-.39c0-.35,0-.66,0-1l.68.31c.05,0,.08.05.08.07s0,.06-.26.24V17h1.2l.38-.5Zm-5.18,2.81A3.77,3.77,0,0,0,94,21.52a4.34,4.34,0,0,0,1.31-1.68Zm2.45-1.36V17.16H93v1.32ZM93,14a2.24,2.24,0,0,1,1.14.41.42.42,0,0,1,.12.32c0,.22-.11.45-.28.45s-.2-.14-.28-.36a1.9,1.9,0,0,0-.74-.73Z"/><path d="M95,44.8v.69h-.88v1.73h-.8V45.49H90.51v-.62l3-4.34h.53V44.8Zm-1.68,0V41.55L91,44.8Z"/><path d="M99.85,46l-.46,1.26H95.52V47a17.8,17.8,0,0,0,2.41-2.54,3.24,3.24,0,0,0,.69-1.8,1.45,1.45,0,0,0-.38-1,1.21,1.21,0,0,0-.91-.4,1.39,1.39,0,0,0-.87.28,1.63,1.63,0,0,0-.57.83h-.18A2.28,2.28,0,0,1,96.33,41a1.74,1.74,0,0,1,1.25-.48,1.84,1.84,0,0,1,1.33.51,1.62,1.62,0,0,1,.54,1.21,2.46,2.46,0,0,1-.23,1,6.68,6.68,0,0,1-1.16,1.65c-.81.88-1.31,1.41-1.51,1.59h1.71a4.25,4.25,0,0,0,.74,0,.91.91,0,0,0,.38-.16,1,1,0,0,0,.29-.33Z"/><path d="M100.9,38.73a.88.88,0,0,1,.74.35,1,1,0,0,1,.23.68,1.19,1.19,0,0,1-.13.54.87.87,0,0,1-.35.42,1,1,0,0,1-.51.14.86.86,0,0,1-.72-.36,1.12,1.12,0,0,1-.23-.69,1.28,1.28,0,0,1,.14-.55.94.94,0,0,1,.36-.4A.9.9,0,0,1,100.9,38.73Zm-.06.14a.44.44,0,0,0-.24.07.52.52,0,0,0-.19.24,1.18,1.18,0,0,0-.07.45,1.64,1.64,0,0,0,.17.76.53.53,0,0,0,.47.32.44.44,0,0,0,.35-.18,1,1,0,0,0,.14-.6,1.36,1.36,0,0,0-.24-.85A.46.46,0,0,0,100.84,38.87Z"/><path d="M70.76,53.59s.06.07.06.1,0,.05-.09.07c-.23.07-.29.18-.34.46a13.11,13.11,0,0,1-.69,2.63c.29.35.7.94.91,1.25a1.11,1.11,0,0,1,.22.63c0,.24-.11.4-.26.4s-.23,0-.44-.7a4.75,4.75,0,0,0-.62-1.13,8.79,8.79,0,0,1-2.35,3.18l-.1-.08a12,12,0,0,0,2.17-3.49,20.68,20.68,0,0,0-1.51-1.81l.1-.1a14.48,14.48,0,0,1,1.56,1.48,11.52,11.52,0,0,0,.55-2.77l-1.74.06a1.75,1.75,0,0,0-.61.11l-.26-.35a4.51,4.51,0,0,0,.73,0l1.79-.05.35-.47Zm2.95.69c.06,0,.09,0,.09.08s0,0-.07.08l-.23.2a16.46,16.46,0,0,1-.41,3.24,5.63,5.63,0,0,1-3.27,3.54l-.1-.12a6,6,0,0,0,3.1-4A15.53,15.53,0,0,0,73,54.56c0-.23,0-.46,0-.66Zm1.84-1.18a.09.09,0,0,1,0,.07s0,0,0,.06l-.36.2V56c0,.75,0,1.17,0,1.61v.06c0,.13,0,.17-.24.25a.62.62,0,0,1-.21.06c-.06,0-.08,0-.08-.15V57.7c0-.36,0-.64,0-1.21V53.23H71.87v3.5c0,.13,0,.75,0,.9s0,.14-.26.26a.35.35,0,0,1-.16.06c-.06,0-.08-.06-.08-.19v-.11c0-.35,0-.75,0-1.11V53.85c0-.37,0-1,0-1.31L72,53h2.58l.3-.45Zm.39,5.49c0,.19,0,.35,0,.49,0,.68.08.83.3,1a.11.11,0,0,1,.07.1.13.13,0,0,1,0,.06c-.19.54-.53.73-1.42.73-1.48,0-1.53-.06-1.53-.89V57.69a6.49,6.49,0,0,0,0-.71l.71.33s.06,0,.06.06,0,0-.06.07l-.23.17v2.25c0,.63,0,.65,1.08.65.72,0,.8,0,.92-1.92Z"/><path d="M81.67,54.91s.06.05.06.07,0,.06-.12.09a.69.69,0,0,0-.39.36A8,8,0,0,1,77,59.21l0-.13a8.18,8.18,0,0,0,4-4.09H79.37a9.83,9.83,0,0,1-2.09,2.29l-.08-.1A12.74,12.74,0,0,0,79.45,54l.56.31s.07.05.07.07,0,0-.09,0-.22.06-.46.37h1.38l.19-.25ZM80.2,59.43s.08.06.08.08,0,0-.09,0a.87.87,0,0,0-.52.25,17.11,17.11,0,0,1-2.34,1.64l0-.13a12.92,12.92,0,0,0,2.33-2.25Zm5.48-6c.06.05.1.08.1.1s0,0-.11,0c-.33,0-.56.21-1,.76l-.12-.06.32-.67H78.29c0,.59-.17,1.22-.68,1.22-.14,0-.3-.08-.3-.23a.29.29,0,0,1,.17-.24c.27-.13.52-.55.64-1.31h.12c0,.11,0,.22,0,.33h6.48l.31-.42Zm-7.21,2.85c.53.4.65.58.65.8s-.13.39-.25.39a.2.2,0,0,1-.2-.18,1.78,1.78,0,0,0-.27-.93Zm5.6,2.13a.21.21,0,0,1,.06.08s0,0-.09,0H81.9v2a.91.91,0,0,1-.65,1l0,0s0,0,0-.07c0-.29-.19-.51-1.12-.78l0-.14a6.85,6.85,0,0,0,1.11.15c.25,0,.27-.07.27-.19v-2H80a2.1,2.1,0,0,0-.64.1l-.26-.36c.22,0,.47,0,.69,0h3.39l.34-.46Zm-4.91-3c.44.16.92.36.92.71,0,.17-.12.33-.23.33a.18.18,0,0,1-.15-.12,1.66,1.66,0,0,0-.58-.81ZM83,57.29c0,.05.07.08.07.11s0,0-.12,0H81a1.67,1.67,0,0,0-.57.08l-.26-.33c.22,0,.47,0,.69,0h1.4l.34-.44Zm-2.35-5.15c.95.29,1.18.57,1.18.9s-.11.37-.26.37-.21-.1-.25-.25a1.72,1.72,0,0,0-.71-.92Zm5.59,5.79c-.54,0-.69.16-.87.43a.05.05,0,0,1-.05,0l-.08,0A5.88,5.88,0,0,1,81.68,54l.13,0c.09.27.19.54.3.79H84l.25-.36.57.44s.08.07.08.09,0,0-.1.06c-.3.07-.53.2-1.61,1.41a4.76,4.76,0,0,0,3.1,1.38ZM84,55H82.21a5,5,0,0,0,.86,1.31Zm-1.24,4.18a5.24,5.24,0,0,1,2.38,1,.65.65,0,0,1,.13.38c0,.18-.1.33-.22.33s-.19,0-.31-.18a5.54,5.54,0,0,0-2-1.46Z"/><path d="M96.06,55.6a.22.22,0,0,1,.07.1s0,0-.12,0h-4c-.62.51-1.24,1-1.88,1.45h3.2l.32-.44.61.48s.06.06.06.08,0,0-.07.08l-.27.17v2.38c0,.18,0,1.09,0,1.14s0,.18-.25.26l-.19.06c-.06,0-.07,0-.07-.13v-.7H89.74v.58c0,.13,0,.17-.19.24a.57.57,0,0,1-.21.06c-.07,0-.09-.06-.09-.23s0-1.24,0-1.32V57.82a21.62,21.62,0,0,1-2.37,1.36L86.83,59c.9-.56,1.71-1.09,2.45-1.61l0-.63.45.33c.65-.48,1.24-1,1.76-1.39H87.68a2.3,2.3,0,0,0-.67.1l-.27-.36a5.9,5.9,0,0,0,.72,0h3.23v-1.6H88.91a2.1,2.1,0,0,0-.64.1L88,53.66a5.58,5.58,0,0,0,.7,0h2v-.6c0-.39,0-.63,0-1l.66.28c.06,0,.09.05.09.08s0,0,0,.07l-.22.19v1h.94l.35-.51.57.62s0,0,0,.07,0,0-.07,0H91.14v1.6h.58a18.1,18.1,0,0,0,2.62-2.74l.58.41s.06.05.06.07,0,0-.07.05c-.3.08-.34.1-.46.22-.67.68-1.39,1.36-2.14,2H95l.44-.59Zm-2.5,3.13V57.41H89.88l-.14.1v1.22Zm0,1.62V59H89.74v1.4Z"/></g></g></svg>