<svg xmlns="http://www.w3.org/2000/svg" width="355" viewBox="0 0 186.21 147.68"><defs><style>.cls-1{fill:#ffeb80;}.cls-1,.cls-2,.cls-3{fill-rule:evenodd;}.cls-2{fill:#ffff80;}.cls-3,.cls-4{fill:#f2f2ff;}</style></defs><g id="图层_2" data-name="图层 2"><g id="图片"><polyline class="cls-1" points="113.63 15.04 113.81 18.34 115.73 16.61 117.71 18.82 119.51 16.36 122.33 17.63 122.75 13.72 125.51 12.71 122.75 9.88 123.77 5.92 120.23 5.92 119.63 3.1 117.53 5.92 113.81 4.42 113.21 8.14 109.79 10.24 111.83 11.69 110.51 15.64 113.63 14.87"/><path d="M117.72,19.18l-2-2.26-2.1,1.91-.2-3.68-3.25.81,1.4-4.19-2.18-1.54L113,8l.63-3.9,3.82,1.54,2.29-3.08.67,3.13h3.65L123,9.82l2.91,3-3,1.09L122.52,18l-2.94-1.32Zm-2-2.89,2,2.18,1.74-2.39,2.71,1.21.4-3.73,2.56-1L122.5,10l1-3.8H120l-.53-2.51L117.6,6.2,114,4.74l-.57,3.54-3.21,2,1.89,1.34-1.24,3.73,2.72-.68.1.39h.18l.16,2.83Z"/><path class="cls-2" d="M121.77,11.06a3.84,3.84,0,1,1-3.84-3.84A3.84,3.84,0,0,1,121.77,11.06Z"/><path d="M117.93,15.13A4.07,4.07,0,1,1,122,11.06,4.07,4.07,0,0,1,117.93,15.13Zm0-7.68a3.62,3.62,0,1,0,3.61,3.61A3.62,3.62,0,0,0,117.93,7.45Z"/><path class="cls-3" d="M154.05,27.86a3.72,3.72,0,1,1-3.72-3.72A3.72,3.72,0,0,1,154.05,27.86Z"/><path d="M150.33,31.81a3.95,3.95,0,1,1,3.94-3.95A4,4,0,0,1,150.33,31.81Zm0-7.44a3.5,3.5,0,1,0,3.49,3.49A3.5,3.5,0,0,0,150.33,24.37Z"/><circle class="cls-4" cx="75.93" cy="81.26" r="36"/><path d="M75.93,117.49a36.23,36.23,0,1,1,36.22-36.22A36.27,36.27,0,0,1,75.93,117.49Zm0-72A35.78,35.78,0,1,0,111.7,81.27,35.82,35.82,0,0,0,75.93,45.49Z"/><polygon points="126.4 41.72 123.99 40.96 121.59 41.43 121.5 40.98 124.02 40.49 126.53 41.29 126.4 41.72"/><path d="M151.44,94.45h.9l-.54,2.45c-.11.46-.18.74-.22.85.14.65.34,1,.61,1s.48-.22.49-.65h.19a2.2,2.2,0,0,1-.22,1,.61.61,0,0,1-.55.37.45.45,0,0,1-.41-.22,3.54,3.54,0,0,1-.3-.93,1.85,1.85,0,0,1-1.79,1.15,1.6,1.6,0,0,1-1.35-.66,3.05,3.05,0,0,1-.5-1.9,2.94,2.94,0,0,1,.54-1.88,1.67,1.67,0,0,1,1.32-.68,1.14,1.14,0,0,1,.89.39,3.21,3.21,0,0,1,.62,1.25ZM151,96.52a5.06,5.06,0,0,0-.56-1.32.86.86,0,0,0-.73-.48c-.64,0-1,.75-1,2.26s.3,2.14.92,2.14.93-.63,1.19-1.89Z"/><path d="M143.47,92.17l.08,1.68h-.2a2,2,0,0,0-.16-.63,1,1,0,0,0-.43-.45,1.48,1.48,0,0,0-.72-.15h-1v5.47a1.41,1.41,0,0,0,.14.82.78.78,0,0,0,.62.22H142v.2h-3v-.2h.26a.73.73,0,0,0,.64-.27,1.61,1.61,0,0,0,.11-.77V92.62h-.85a2.35,2.35,0,0,0-.72.08.94.94,0,0,0-.47.38,1.63,1.63,0,0,0-.23.77h-.2l.09-1.68Z"/><path d="M147.17,101.44v.19a4.93,4.93,0,0,1-1.32-.93,5.14,5.14,0,0,1-1.17-1.81,5.84,5.84,0,0,1,.39-5.14,4.66,4.66,0,0,1,2.1-1.92v.22a3,3,0,0,0-1.06,1,4.31,4.31,0,0,0-.62,1.58,9.2,9.2,0,0,0-.21,2,10.71,10.71,0,0,0,.18,2.05,5.42,5.42,0,0,0,.33,1.17,3.75,3.75,0,0,0,.52.84A4.11,4.11,0,0,0,147.17,101.44Z"/><path d="M153.06,92.05v-.22a4.83,4.83,0,0,1,1.34.93,5.35,5.35,0,0,1,1.16,1.81,5.88,5.88,0,0,1,.41,2.16,5.76,5.76,0,0,1-.8,3,4.58,4.58,0,0,1-2.11,1.92v-.19a3.14,3.14,0,0,0,1.07-1,4.39,4.39,0,0,0,.62-1.58,9.29,9.29,0,0,0,.2-2,10.83,10.83,0,0,0-.17-2,5.32,5.32,0,0,0-.33-1.16,4.22,4.22,0,0,0-.52-.85A3.91,3.91,0,0,0,153.06,92.05Z"/><path d="M160.29,39h.9l-.54,2.45c-.11.46-.18.75-.22.85.14.65.34,1,.61,1s.48-.22.49-.65h.19a2.16,2.16,0,0,1-.22,1,.61.61,0,0,1-.55.37.45.45,0,0,1-.41-.22,3.41,3.41,0,0,1-.3-.93,1.84,1.84,0,0,1-1.79,1.15,1.6,1.6,0,0,1-1.35-.66,3,3,0,0,1-.5-1.89,3,3,0,0,1,.54-1.89,1.67,1.67,0,0,1,1.32-.68,1.12,1.12,0,0,1,.89.39,3.21,3.21,0,0,1,.62,1.25ZM159.83,41a5.45,5.45,0,0,0-.55-1.32.88.88,0,0,0-.74-.48c-.64,0-1,.75-1,2.26s.3,2.14.92,2.14.93-.63,1.19-1.89Z"/><path d="M152.32,36.69l.08,1.67h-.2a2,2,0,0,0-.16-.63,1,1,0,0,0-.43-.45,1.47,1.47,0,0,0-.71-.15h-1V42.6a1.51,1.51,0,0,0,.14.82.78.78,0,0,0,.62.22h.25v.2h-3v-.2h.26a.73.73,0,0,0,.64-.27,1.58,1.58,0,0,0,.12-.77V37.13H148a2.35,2.35,0,0,0-.72.08.94.94,0,0,0-.47.38,1.63,1.63,0,0,0-.23.77h-.2l.09-1.67Z"/><path d="M156,46v.2a5,5,0,0,1-1.33-.94,5.14,5.14,0,0,1-1.17-1.81,5.93,5.93,0,0,1,.39-5.14A4.64,4.64,0,0,1,156,36.34v.22a3,3,0,0,0-1.07,1,4.5,4.5,0,0,0-.62,1.58,9.2,9.2,0,0,0-.21,2,10.71,10.71,0,0,0,.18,2,5.26,5.26,0,0,0,.33,1.17,4,4,0,0,0,.52.85A4.18,4.18,0,0,0,156,46Z"/><path d="M161.91,36.56v-.22a4.83,4.83,0,0,1,1.34.93,5.35,5.35,0,0,1,1.16,1.81,5.68,5.68,0,0,1,.41,2.16,5.76,5.76,0,0,1-.8,3,4.66,4.66,0,0,1-2.11,1.93V46A3.14,3.14,0,0,0,163,45a4.39,4.39,0,0,0,.62-1.58,9.29,9.29,0,0,0,.2-2,10.9,10.9,0,0,0-.17-2,5.32,5.32,0,0,0-.33-1.16,4.22,4.22,0,0,0-.52-.85A3.91,3.91,0,0,0,161.91,36.56Z"/><path d="M126.57,45.17l-2.34-1.72v0h-.39l-1.65,1.66-.32-.31,1.91-1.92V41h.45v1.93l2.61,1.91ZM156,34.43A18.36,18.36,0,0,1,146.89,32l.22-.38a17.91,17.91,0,0,0,18.36-.31l.24.38A18.28,18.28,0,0,1,156,34.43Z"/><path d="M148.55,89a48.85,48.85,0,0,1-14.25-2.12l.13-.43a48.69,48.69,0,0,0,27.18.31l.12.43A48.91,48.91,0,0,1,148.55,89Z"/><path d="M62.41,114.47l-.16-.42.84-.32.16.42Zm3.36-1.28-.16-.42.84-.33.16.42Zm3.36-1.29-.16-.42.84-.32.16.42Zm3.36-1.29-.16-.42.84-.32.16.42Zm3.37-1.29-.16-.42.84-.32.16.42ZM79.22,108l-.16-.42.84-.32.16.42Zm3.36-1.29-.16-.42.84-.32.16.42Zm3.36-1.29-.16-.42.84-.32.16.42Zm3.36-1.28-.16-.42.84-.32.16.41Zm3.37-1.29-.16-.42.84-.32.16.42ZM96,101.6l-.16-.42.84-.32.16.42Zm3.36-1.28-.16-.42.84-.33.16.42ZM102.75,99l-.16-.42.84-.32.16.42Zm3.37-1.29-.16-.42.83-.32.17.42Zm3.36-1.29-.16-.42.84-.32.16.42Zm3.36-1.28-.16-.42.84-.32.16.42Zm3.36-1.29-.16-.42.84-.32.16.42Zm60.71-1.28-.48-.18.16-.43.48.18Zm-57.35,0-.16-.42.84-.32.16.42Zm54.35-1.13-.84-.32.16-.42.84.32Zm-51-.15-.16-.42.85-.33.16.42Zm47.62-1.12-.84-.32.16-.42.84.32ZM126.29,90l-.16-.42.84-.32.16.42Zm40.88-1.11-.84-.31.16-.43.84.32Zm-37.52-.18-.16-.42.84-.32.16.42Zm34.16-1.09-.85-.32.16-.42.85.32Zm-30.8-.2-.16-.42.84-.32.16.42Zm27.43-1.07-.84-.32.16-.42.84.32Zm-24.07-.21-.16-.42.84-.32.16.42Zm20.7-1.07-.84-.32.16-.42.84.32Zm-17.33-.22-.16-.42.84-.32.16.42Zm14-1.05-.84-.32.16-.42.84.32Zm-10.6-.24-.16-.42.84-.32.16.42Zm7.24-1-.84-.32.15-.42.85.31Zm-3.88-.25-.16-.42.84-.32.16.42Zm.51-1-.84-.32.16-.42.84.32Zm2.85-.26-.16-.42.84-.32.16.42Zm-6.22-1-.84-.32.16-.42.84.32Zm9.58-.28L153,79.3l.84-.32.16.42Zm-12.94-1-.85-.31.16-.42.85.31Zm16.31-.28-.16-.42.84-.33.16.42Zm-19.68-1-.84-.32.16-.42L137,77Zm23-.3-.16-.42.84-.32.16.42Zm-26.41-1-.84-.32.16-.42.84.32Zm29.77-.32-.16-.42.84-.32.16.42Zm-33.14-1-.84-.31.16-.43.84.32Zm36.5-.33-.16-.42.84-.32.16.42Zm-39.86-.94-.85-.32.16-.42.85.32ZM170,73.29l-.16-.42.84-.32.16.42Zm-46.59-.93-.84-.32.16-.42.84.32Zm50-.36-.16-.42.84-.32.16.42ZM120,71.08l-.84-.32.16-.42.84.32Zm56.74-.38-.21-.41.05,0Zm-60.1-.89-.85-.32.16-.42.84.32Zm-3.37-1.27-.84-.32.16-.42.84.32Zm-3.37-1.28-.84-.32.16-.42.84.32ZM106.56,66l-.84-.32.16-.42.84.32Zm-3.36-1.27-.84-.32.15-.42.85.31Zm-3.37-1.28L99,63.12l.16-.42L100,63Zm-3.37-1.27-.84-.32.16-.42.84.32Zm-3.37-1.28-.84-.31.16-.42.84.31Zm-3.36-1.27-.84-.32.16-.42.84.32Zm-3.37-1.27L85.52,58l.16-.42.84.32ZM83,57.07l-.84-.31.16-.43.84.32ZM79.63,55.8l-.84-.32.15-.42.85.32Zm-3.37-1.27-.84-.32.16-.42.84.32Zm-3.37-1.28-.84-.32.16-.42.84.32ZM69.53,52l-.85-.32.16-.42.84.32Zm-3.37-1.27-.84-.32.16-.42.84.31Zm-3.37-1.28L62,49.11l.16-.42L63,49Z"/><polygon points="62.34 114.66 61.84 113.91 111.07 81.29 61.24 48.96 61.73 48.21 112.13 80.91 111.89 81.28 112.14 81.66 62.34 114.66"/><path d="M123.81,40.45A1.19,1.19,0,1,1,125,39.27,1.18,1.18,0,0,1,123.81,40.45Zm0-1.92a.74.74,0,1,0,.73.74A.74.74,0,0,0,123.81,38.53Z"/><rect x="12.74" y="122.83" width="50.7" height="0.9" transform="translate(-41.35 21.6) rotate(-20.83)"/><path d="M47,147.68l-.41-.19,29.4-66,.41.19ZM15,132l6.87-4.71.25.37-5.37,3.69,6.48-.74.05.45Zm96.88-50.5H76.19v-.23l-.21.1-29.4-64.8.41-.19L76.33,81.06h35.56Z"/><path d="M157.63,27.71l-.17-.42.84-.32.17.42Zm3.35-1.3-.16-.42.84-.32.16.42Zm3.36-1.3-.16-.42.84-.32.16.42Zm3.36-1.3-.16-.42.84-.32.16.42Zm3.36-1.3-.17-.42.84-.32.17.42Zm3.35-1.3-.16-.42.84-.32.16.42Zm3.36-1.29-.16-.42.84-.33.16.42Zm3.36-1.3L181,18.2l.84-.33.16.42Z"/><path d="M61.33,48.7l-46.5-18,.32-.83,46.5,18Zm68-9.54-.33-.83,26.47-10.5L127.5,17l.33-.83,29,11.21-.16.42.16.42Z"/><path d="M63.72,120.27,59.92,119l.14-.43,3.39,1.13,1.43-4,.42.15Zm48.57-17.15h-.45V75.87h-4.76l.23,5.17h-.45l-.25-5.63h5.23V58.12h.45v17.3h.2v.45h-.2Zm-40.4-7.47-3.12-1.56.2-.41,3.12,1.56Zm19-12.81h-.45V79h.45ZM68.45,69.56l-.13-.43,4.26-1.32.13.43Zm117.76-22H106V0h80.25Zm-79.8-.45h79.35V.45H106.41Zm-41.24-.6-1.42-4.28L59.47,44l-.17-.41L64,41.69l1.58,4.72Zm64.63-8.08,6.8-4.84.26.37-5.33,3.8L138,37l.06.45Z"/><path d="M181.88,37.6l-.85-.32.16-.42.85.32Zm-3.37-1.28-.84-.31.16-.43.84.32Zm-3.37-1.27-.84-.32.16-.42.84.32Zm-3.36-1.28-.85-.31.16-.43.85.32Zm-3.37-1.27-.84-.32.16-.42.84.32ZM165,31.22l-.84-.32.16-.42.84.32ZM161.68,30l-.85-.32.17-.42.84.32Zm-3.37-1.28-.84-.32.16-.42.84.32Z"/><path d="M52.14,122.05H53l-.54,2.45c-.11.46-.18.74-.22.85.14.65.34,1,.61,1s.48-.22.49-.65h.19a2.2,2.2,0,0,1-.22,1,.61.61,0,0,1-.55.37.45.45,0,0,1-.41-.22,3.54,3.54,0,0,1-.3-.93A1.85,1.85,0,0,1,50.3,127a1.6,1.6,0,0,1-1.35-.66,3.05,3.05,0,0,1-.5-1.9,2.94,2.94,0,0,1,.54-1.88,1.67,1.67,0,0,1,1.32-.68,1.14,1.14,0,0,1,.89.39,3.21,3.21,0,0,1,.62,1.25Zm-.46,2.07a5.06,5.06,0,0,0-.56-1.32.86.86,0,0,0-.73-.48c-.64,0-1,.75-1,2.26s.3,2.14.92,2.14.93-.63,1.19-1.89Z"/><path d="M50.94,35.35h.9L51.3,37.8c-.11.46-.18.74-.22.85.14.65.34,1,.61,1s.48-.22.49-.65h.19a2.2,2.2,0,0,1-.22,1,.61.61,0,0,1-.55.37.45.45,0,0,1-.41-.22,3.54,3.54,0,0,1-.3-.93,1.85,1.85,0,0,1-1.79,1.15,1.6,1.6,0,0,1-1.35-.66,3.05,3.05,0,0,1-.5-1.9,2.94,2.94,0,0,1,.54-1.88,1.67,1.67,0,0,1,1.32-.68,1.14,1.14,0,0,1,.89.39,3.21,3.21,0,0,1,.62,1.25Zm-.46,2.07a5.06,5.06,0,0,0-.56-1.32.86.86,0,0,0-.73-.48c-.64,0-1,.75-1,2.26s.3,2.14.92,2.14.93-.63,1.19-1.89Z"/><path d="M18,44.63a1.33,1.33,0,0,0-1.17-.08.11.11,0,0,1-.11,0l-.07,0a7.36,7.36,0,0,1-1.15-7l-.24-.08a10.39,10.39,0,0,1-2.19,3.19c.84.73,1.42,1.26,1.22,1.87-.1.3-.37.48-.54.42s-.14-.14-.13-.33A2.82,2.82,0,0,0,13,40.72a7.32,7.32,0,0,1-4.63,1.71l0-.15c3.52-.76,5-1.87,6.45-5l-3.17-1.06a1.93,1.93,0,0,0-.73-.12l-.16-.48a6.27,6.27,0,0,0,.74.29L14.88,37A28,28,0,0,0,16,34.25l.72.72c0,.05.06.08.05.1s0,0-.1.06l-.38.08c-.28.73-.56,1.39-.84,2l3.12,1,.69-.44.41.83c0,.08.06.14,0,.18s-.06.05-.15,0l-3.81-1.29c-.51,2.88,0,5.45,2.37,6.95Z"/><path d="M25.39,38.6a.11.11,0,0,1,0,.1s0,0-.1,0a.94.94,0,0,0-.7.25l-1.74,1.46a3.3,3.3,0,0,1,.51,2.77,1.72,1.72,0,0,1-1.52,1s-.07,0-.05-.13c.07-.31,0-.54-.69-1l.09-.15a4,4,0,0,0,.87.48c.49.17.75-.06,1-.72a3,3,0,0,0-.41-2.3l1.82-2-1.74-.59-2,5.82c-.26.77-.51,1.55-.63,2l0,.07c0,.14-.1.17-.35.19h-.2c-.06,0-.06-.08,0-.25l0-.1c.22-.6.54-1.51.74-2.1L22,38.39c.14-.41.35-1.12.46-1.5l.47.78,1.4.47.52-.33Zm4.91,1.81a.13.13,0,0,1,0,.12s-.05,0-.11.07l-.43.11L28,46c-.26.78-.46,1.42-.58,1.89l0,.07c-.05.15-.11.17-.38.19a.37.37,0,0,1-.21,0c-.06,0,0-.06,0-.14l.37-1.1L24,45.82l-.28.84c-.05.15-.09.17-.3.19a.73.73,0,0,1-.23,0c-.07,0-.07-.08,0-.23l0-.13c.22-.59.54-1.51.74-2.09l1.7-5.06c.16-.48.24-.74.33-1.07l.45.82,2.83,1,.51-.39Zm-3.05,6.25,1-3.12-3.14-1-1,3.11Zm1.12-3.34,1-3-3.14-1.06-1,3Z"/><path d="M38.74,49c-.4,1.19-.41,1.57-.16,1.84,0,0,.07.08.05.12s0,0,0,.07a1.11,1.11,0,0,1-1.34.41,13.43,13.43,0,0,1-1.4-.39c-1.44-.48-1.55-.75-1.3-1.49l1.24-3.68-1.57-.53c-1,2.73-1.68,3.8-5.18,4l0-.16c3-.48,3.75-1.09,4.72-4l-2.08-.7a2.36,2.36,0,0,0-.72-.12l-.16-.48c.25.11.5.22.73.3l3.58,1.2.9-2.67c.15-.42.36-1.12.47-1.51l.6.67a.14.14,0,0,1,0,.16.15.15,0,0,1-.09.08l-.33.14-1.11,3.29.45.16A27.48,27.48,0,0,0,39,43.25l.49.73s0,.07,0,.09-.05,0-.11,0a.85.85,0,0,0-.55.13l-2.54,1.59,2.39.8.67-.47.47.85a.28.28,0,0,1,0,.19s-.08.05-.19,0l-3.41-1.15L35,49.69c-.16.49.13.64.62.8s1.21.38,1.5.44c.5.1.74,0,1.41-2ZM33.2,41.43a4,4,0,0,1,1.15,2.18c-.14.4-.36.64-.58.57s-.15-.13-.14-.42a4.29,4.29,0,0,0-.56-2.23Z"/><path d="M3.71,124c.06,0,.1,0,.11,0s0,.06,0,.12l-.21.32,2.55,6.66c.22.57.23.69-.36,1.28l-.07.05s-.06,0-.09-.07c-.15-.23-.37-.37-1.36-.29V132a7.44,7.44,0,0,0,1.2-.28c.31-.11.28-.23.2-.44l-1-2.64-.12.06a12.58,12.58,0,0,1-2.43,4.6l-.13-.08a12.68,12.68,0,0,0,2-4.27l-2.22.92a2.1,2.1,0,0,0-.63.37l-.43-.27a7.33,7.33,0,0,0,.75-.24l.46-.19L.46,126c-.18-.48-.35-.9-.46-1.15l.77.27.52-.2a9.75,9.75,0,0,0-.12-1.8l.76.12c.09,0,.13,0,.13.06s0,0-.09.09-.34.5-.48,1.46l1.35-.52.09-.52Zm-.25,1.62L3,124.5l-2.29.87.42,1.1ZM4,127l-.44-1.15-2.29.88.44,1.15Zm.55,1.43-.46-1.21-2.29.88.48,1.26ZM9,123.63c.08,0,.14.07.15.1s0,.07-.12.1l-1.62.63,2.05,5.35c.26.69.27.83-.24,1.33l-.07.05s-.06,0-.09-.06c-.21-.31-.37-.4-1.62-.33l0-.14a8.37,8.37,0,0,0,1.36-.31c.28-.1.27-.2.2-.39l-2-5.32-1.52.58a2.06,2.06,0,0,0-.63.37l-.43-.27a7.33,7.33,0,0,0,.75-.24l1.75-.66L6.32,123c-.18-.48-.44-1.09-.6-1.45l.87.07c.1,0,.14,0,.16,0s0,0-.25.39l.82,2.14.74-.28.17-.7Zm-3.83,2.76c1.27.49,1.53.71,1.67,1.08s0,.58-.17.66-.27-.12-.4-.45a3.46,3.46,0,0,0-1.16-1.19Z"/><path d="M18,119c.08,0,.13,0,.14.08s0,.08-.05.14l-.26.29,2.3,6c.2.52.15.75-.34,1.27a.26.26,0,0,1-.12.09s-.07,0-.11,0c-.29-.33-.6-.37-1.54-.23l0-.14a11.51,11.51,0,0,0,1.32-.33c.4-.16.38-.3.27-.57l-2.34-6.11L11,121.89l2.17,5.68c.06.17.39,1,.47,1.16s0,.18-.15.35a.49.49,0,0,1-.18.14c-.07,0-.12,0-.18-.19s-.65-1.85-.78-2.19l-1.56-4.08c-.16-.41-.45-1.09-.61-1.46l1,.28,1.51-.58c0-.78,0-1.73,0-2.1l.7,0c.07,0,.11,0,.12,0s0,.08-.08.15c-.2.24-.31.51-.56,1.77l4.19-1.6.17-.62Zm-1.33,2.66c.08,0,.12,0,.14.07s0,0-.06.12l-.25.29.5,1.31a13.92,13.92,0,0,0,.57,1.33l0,.07c.05.15,0,.21-.13.36a.66.66,0,0,1-.18.14c-.06,0-.09,0-.12-.1l-.24-.63-2.33.9.27.71c.06.14,0,.2-.08.32a.54.54,0,0,1-.18.14c-.07,0-.11,0-.16-.14s-.29-.88-.35-1l-.8-2.08c-.09-.24-.28-.72-.43-1l.81.26,2-.78.18-.49Zm.17,2.74-.9-2.35-2.33.89.9,2.35Z"/><path d="M23,116.5a.14.14,0,0,1,.1.08s0,.06-.06.1c-.21.16-.22.3-.16.61a14.79,14.79,0,0,1,.31,2.94c.44.25,1.09.69,1.42.92a1.3,1.3,0,0,1,.47.56c.09.24,0,.44-.11.5s-.25.05-.72-.53a5.23,5.23,0,0,0-1.07-.91A9.48,9.48,0,0,1,22,124.93l-.13-.05a12.66,12.66,0,0,0,.84-4.4,19.71,19.71,0,0,0-2.23-1.25l.06-.15a16.29,16.29,0,0,1,2.17.9,12.8,12.8,0,0,0-.53-3l-1.75.74a2,2,0,0,0-.57.35l-.4-.25a6,6,0,0,0,.75-.25l1.8-.75.17-.62Zm4.7-2.37a.14.14,0,0,1,.07.06.11.11,0,0,1,0,.08l-.3.34,1,2.61c.29.76.46,1.18.67,1.63l0,.06c.05.13,0,.18-.14.34a.73.73,0,0,1-.19.14c-.06,0-.1,0-.14-.12l-.05-.12c-.12-.37-.23-.66-.45-1.24l-1.27-3.32L24,115.7l1.37,3.56c.05.14.31.76.37.91s0,.16-.16.37a.64.64,0,0,1-.14.12c-.06,0-.1,0-.15-.16l-.05-.11c-.11-.36-.26-.78-.4-1.14L23.8,116.5c-.14-.37-.39-1-.54-1.32l.78.26,2.63-1,.13-.57Zm-1.42,1.92c.07,0,.11,0,.12,0s0,.05,0,.11l-.15.29a18.62,18.62,0,0,1,.84,3.46,6.18,6.18,0,0,1-1.95,4.89l-.15-.09a6.51,6.51,0,0,0,1.59-5.3,16.84,16.84,0,0,0-.87-2.85c-.09-.23-.18-.46-.27-.67Zm3.95,3.52c.06.2.13.36.18.5.27.7.41.82.67.85a.13.13,0,0,1,.11.08.07.07,0,0,1,0,.06c0,.63-.24,1-1.15,1.3-1.5.58-1.58.54-1.9-.31l-.91-2.38c-.13-.33-.22-.53-.31-.72l.84.07c.05,0,.08,0,.09,0s0,0,0,.09l-.17.26.88,2.29c.24.65.3.65,1.35.25.74-.28.8-.37.19-2.32Z"/><path d="M38.18,110.57c.08,0,.13,0,.14.06s0,.05-.09.08c-.32.17-.5.43-.72,1.17h-.15l.06-.81-6.7,2.56c.24.6.31,1.31-.22,1.51a.3.3,0,0,1-.39-.12.31.31,0,0,1,.08-.31c.22-.23.31-.76.14-1.59l.13,0c.06.11.11.22.17.32l6.6-2.52.14-.56Zm-3.53,3c.06,0,.08,0,.09,0s0,.08-.08.14a.8.8,0,0,0-.26.52,8.61,8.61,0,0,1-2.85,5.5l-.09-.11A8.92,8.92,0,0,0,33.93,114l-1.59.6a11.27,11.27,0,0,1-1.23,3.16l-.12-.07a14,14,0,0,0,1-4.15l.69.11c.06,0,.09,0,.1,0s0,0-.08.08-.2.14-.32.55l1.4-.54.1-.32ZM32,116.29c.69.19.89.33,1,.55s0,.46-.11.5a.2.2,0,0,1-.27-.1,2,2,0,0,0-.64-.85Zm.36-1.17c.51,0,1.07,0,1.21.37.06.17,0,.38-.11.42a.2.2,0,0,1-.19-.06,1.82,1.82,0,0,0-.9-.61Zm.26-4c1.08-.08,1.42.11,1.55.44s0,.43-.12.49-.25,0-.35-.16a1.87,1.87,0,0,0-1.09-.66Zm2.36,7.61c.06,0,.1,0,.11,0s0,0-.08.06a.92.92,0,0,0-.44.46,20.19,20.19,0,0,1-1.74,2.59l-.1-.12a14.43,14.43,0,0,0,1.49-3.2Zm3.55-2.5q.09,0,.09.06s0,0-.08.07l-2.18.83.77,2a1,1,0,0,1-.26,1.29s0,0,0,0-.06,0-.08,0c-.15-.29-.4-.45-1.45-.36l0-.15a7.41,7.41,0,0,0,1.19-.29c.26-.1.25-.17.2-.3l-.77-2-1.49.57a2.38,2.38,0,0,0-.61.35l-.41-.26.72-.23,3.45-1.32.17-.61ZM37,115.49c.06,0,.1.05.11.08s0,.05-.11.08l-2,.78a1.85,1.85,0,0,0-.54.3l-.41-.24a4.43,4.43,0,0,0,.73-.23l1.43-.54.17-.59Zm3.54-.62c-.53.25-.63.43-.71.78a.05.05,0,0,1,0,0h-.11a6.38,6.38,0,0,1-5.34-3l.12-.08a6.82,6.82,0,0,0,.61.69l1.9-.73.12-.46.75.22q.1,0,.12.06s0,.06-.08.1c-.28.19-.45.42-1.09,2.08a5.2,5.2,0,0,0,3.69.19ZM37,112.78l-1.79.69a5.87,5.87,0,0,0,1.39,1Zm.37,4.75a5.57,5.57,0,0,1,2.83.15.68.68,0,0,1,.28.33c.07.18,0,.37-.09.42a.42.42,0,0,1-.39-.06,5.85,5.85,0,0,0-2.62-.7Z"/><path d="M49.58,108.68c.06,0,.1,0,.11.07s0,.06-.11.09l-4,1.54c-.43.77-.87,1.5-1.34,2.21l3.26-1.24.15-.58.81.25c.05,0,.09,0,.09.06s0,.06,0,.11l-.21.28.92,2.42c.07.18.47,1.09.49,1.15s0,.19-.15.36a.92.92,0,0,1-.17.14c-.06,0-.09,0-.12-.1l-.27-.72-3.9,1.49.23.58c0,.15,0,.2-.1.33a.65.65,0,0,1-.19.14c-.07,0-.11,0-.18-.2s-.45-1.28-.48-1.36l-.82-2.12a20.5,20.5,0,0,1-1.89,2.31l-.13-.11c.7-.92,1.32-1.78,1.87-2.59l-.27-.63.58.15c.48-.74.89-1.44,1.25-2.1l-3.85,1.48a2.61,2.61,0,0,0-.64.36l-.42-.26a6,6,0,0,0,.75-.24l3.29-1.26-.62-1.63-1.82.69a2.38,2.38,0,0,0-.61.35l-.41-.26a5.5,5.5,0,0,0,.72-.23l2-.77-.24-.62c-.15-.39-.25-.63-.4-1l.78,0c.07,0,.11,0,.12,0s0,0,0,.09l-.15.28.37,1,1-.37.16-.65.81.41s.06,0,.07,0,0,.05,0,.07l-1.86.71.62,1.64.59-.23a19.76,19.76,0,0,0,1.6-3.82l.75.2c.05,0,.08,0,.09,0s0,0,0,.08c-.27.19-.31.23-.38.4-.42,1-.9,1.92-1.4,2.86l2.72-1,.22-.78Zm-1.32,4.16-.52-1.34L44,112.94a.78.78,0,0,1-.1.15l.47,1.24Zm.63,1.66-.55-1.44-3.89,1.49L45,116Z"/><path d="M142.08,110.43l-1.94.68v1c0,.66,0,1.2,0,1.69v.11c0,.13,0,.17-.24.26a.65.65,0,0,1-.23.06c-.07,0-.09-.06-.09-.25v-.09c0-.64,0-1.18,0-1.8v-.84l-.64.23a2.86,2.86,0,0,0-1.24.66.09.09,0,0,1-.08,0,.07.07,0,0,1-.06,0l-.38-.62,2.4-.64v-1.57h-1.27l-.25.27a.14.14,0,0,1-.09,0,.15.15,0,0,1-.08,0l-.61-.49c.41-.14.44-.19.64-.7s.44-1.3.67-2.06h-.56a2.1,2.1,0,0,0-.72.11l-.3-.4a7.29,7.29,0,0,0,.79,0h.85c.17-.63.35-1.28.5-1.91l.67.37c.05,0,.08.05.08.07a2.82,2.82,0,0,1-.36.23l-.4,1.24h1.5l.39-.54.56.56c.07.08.11.13.11.16s-.05.06-.15.06h-2.49l-.88,2.75h1.4v-.57c0-.68,0-1.18,0-1.58l.75.37c.06,0,.09.05.09.08s0,.07-.31.29v1.41h.64l.41-.5.52.5c.07.07.1.11.1.14s0,.07-.14.07h-1.53v1.44l1.91-.51Zm4.92-2.3a.31.31,0,0,1,.1.17s0,.06-.15.06h-3.43l-.37,1.55h2.17l.3-.36.62.48c.06,0,.11.09.11.12s-.06.06-.16.09a8.19,8.19,0,0,0-1.82,2.27c.7.37,1.19.69,1.19,1.2,0,.22-.11.38-.27.38s-.17,0-.47-.43a7.28,7.28,0,0,0-2.77-1.87l0-.14a13.87,13.87,0,0,1,2.08.78l1.21-2.28h-2.12l-.2.22s0,.06-.08.06a.21.21,0,0,1-.11-.05l-.62-.36.45-.3.31-1.36h-.64a2.36,2.36,0,0,0-.72.12l-.3-.4c.27,0,.54,0,.79,0h.92l.39-1.68H143a2.15,2.15,0,0,0-.73.12l-.3-.4c.27,0,.54,0,.79,0h.8c.12-.51.33-1.58.41-2l.67.4c.05,0,.08.06.08.09s0,0-.08.1l-.28.18-.31,1.25h1.56l.43-.57.57.58c.08.09.12.14.12.18s-.06,0-.17,0H144l-.4,1.68H146l.45-.61Z"/><path d="M157,107.33s.07,0,.07.07,0,0-.07.08l-.34.28v5.31c0,.73-.09.88-.76,1.21l-.05,0s-.07,0-.09-.09c-.11-.34-.24-.5-1.28-.82l0-.14a6.9,6.9,0,0,0,1.24.16c.35,0,.38-.11.38-.28v-2h-2.76v1.59c0,.17,0,1.08,0,1.12s0,.16-.24.27a.71.71,0,0,1-.28.12c-.05,0-.07,0-.07-.11v-.06c0-.37,0-.71,0-1.3v-1.63H150.2a4.14,4.14,0,0,1-1.9,3.27l-.09-.1a5.37,5.37,0,0,0,1.61-4.23c0-.35,0-1.37,0-2.77a14.43,14.43,0,0,1-1.7,1.54l-.12-.14a23.79,23.79,0,0,0,3.71-4.55l.73.4c.05,0,.07,0,.07.06s0,0-.09.05c-.21,0-.35.12-.91.78h2.61l.36-.4.71.62c.06.06.09.09.09.12s0,0-.15,0c-.48,0-.92.35-1.86,1.51h2.63l.32-.52Zm-2.83-1.68h-2.81c-.44.53-.86,1-1.27,1.42l.42.25H153Zm-1.29,5.24v-1.53h-2.49c0,.59-.06,1.09-.12,1.53Zm0-1.77v-1.57H150.4l0,1.57Zm3.26,0v-1.57h-2.76v1.57Zm0,1.77v-1.53h-2.76v1.53Z"/><path d="M70.74,106.93h-.87a7.54,7.54,0,0,0,.19-1.61V99.58a4.12,4.12,0,0,1,.16-1.34,1.69,1.69,0,0,1,.63-.77A2,2,0,0,1,72,97.14a2.2,2.2,0,0,1,1.41.44A1.5,1.5,0,0,1,74,98.83a1.83,1.83,0,0,1-.9,1.56,2.07,2.07,0,0,1,1.34,2,2.41,2.41,0,0,1-.35,1.32,2.17,2.17,0,0,1-.82.83,2.34,2.34,0,0,1-1.12.25,1.49,1.49,0,0,1-1.2-.55v1A6.67,6.67,0,0,1,70.74,106.93Zm.19-3.19a1.27,1.27,0,0,0,1.15.68,1.15,1.15,0,0,0,1-.51,2.33,2.33,0,0,0,.33-1.27,3.47,3.47,0,0,0-.21-1.16,2.18,2.18,0,0,0-.57-.9,2.46,2.46,0,0,1-.57.07c-.35,0-.53-.09-.53-.28s.15-.25.45-.25a2.33,2.33,0,0,1,.7.13,2.64,2.64,0,0,0,.37-1.38,1.61,1.61,0,0,0-.29-1A1,1,0,0,0,72,97.5a1,1,0,0,0-.65.21,1.07,1.07,0,0,0-.36.51,3.08,3.08,0,0,0-.1,1Z"/><path d="M93.78,82.21h-.87a8.24,8.24,0,0,0,.19-1.61V74.86a4.12,4.12,0,0,1,.16-1.34,1.63,1.63,0,0,1,.63-.77,2,2,0,0,1,1.16-.33,2.15,2.15,0,0,1,1.4.44A1.48,1.48,0,0,1,97,74.11a1.83,1.83,0,0,1-.9,1.56,2.07,2.07,0,0,1,1.34,2A2.5,2.5,0,0,1,97.11,79a2.17,2.17,0,0,1-.82.83,2.34,2.34,0,0,1-1.12.25A1.49,1.49,0,0,1,94,79.5v1A7.2,7.2,0,0,1,93.78,82.21ZM94,79a1.26,1.26,0,0,0,1.15.68,1.15,1.15,0,0,0,1-.51,2.33,2.33,0,0,0,.33-1.27,3.22,3.22,0,0,0-.22-1.16,2.18,2.18,0,0,0-.56-.91,2.05,2.05,0,0,1-.57.08c-.35,0-.53-.09-.53-.28s.15-.25.45-.25a2.22,2.22,0,0,1,.69.13,2.65,2.65,0,0,0,.38-1.38,1.61,1.61,0,0,0-.29-1,1,1,0,0,0-.77-.35,1,1,0,0,0-.64.21,1.07,1.07,0,0,0-.36.51,3.08,3.08,0,0,0-.1,1Z"/><path d="M93.72,92.05h-.87A8.24,8.24,0,0,0,93,90.44V84.7a4.12,4.12,0,0,1,.16-1.34,1.57,1.57,0,0,1,.63-.77A2,2,0,0,1,95,82.26a2.17,2.17,0,0,1,1.4.44A1.48,1.48,0,0,1,97,84a1.8,1.8,0,0,1-.9,1.55,2.09,2.09,0,0,1,1.34,2,2.5,2.5,0,0,1-.35,1.32,2.13,2.13,0,0,1-.83.83,2.28,2.28,0,0,1-1.11.25,1.49,1.49,0,0,1-1.2-.55v1A7.2,7.2,0,0,1,93.72,92.05Zm.19-3.19a1.26,1.26,0,0,0,1.15.68,1.14,1.14,0,0,0,1-.52,2.27,2.27,0,0,0,.33-1.26,3.22,3.22,0,0,0-.22-1.16,2.18,2.18,0,0,0-.56-.91,2.05,2.05,0,0,1-.57.08c-.35,0-.53-.09-.53-.28s.15-.25.45-.25a2.27,2.27,0,0,1,.69.13A2.65,2.65,0,0,0,96.07,84a1.61,1.61,0,0,0-.29-1,1,1,0,0,0-.77-.35,1,1,0,0,0-.64.21,1.09,1.09,0,0,0-.36.5,3.2,3.2,0,0,0-.1,1Z"/><path d="M71.58,67.57h-.87A8.24,8.24,0,0,0,70.9,66V60.22a4.12,4.12,0,0,1,.16-1.34,1.63,1.63,0,0,1,.63-.77,2,2,0,0,1,1.16-.33,2.15,2.15,0,0,1,1.4.44,1.48,1.48,0,0,1,.57,1.25,1.8,1.8,0,0,1-.9,1.55,2.09,2.09,0,0,1,1.34,2,2.5,2.5,0,0,1-.35,1.32,2.13,2.13,0,0,1-.83.83,2.28,2.28,0,0,1-1.11.25,1.49,1.49,0,0,1-1.2-.55v1A7.2,7.2,0,0,1,71.58,67.57Zm.19-3.19a1.26,1.26,0,0,0,1.15.68,1.14,1.14,0,0,0,1-.52,2.27,2.27,0,0,0,.33-1.26,3.22,3.22,0,0,0-.22-1.16,2.18,2.18,0,0,0-.56-.91,2.05,2.05,0,0,1-.57.08c-.35,0-.53-.09-.53-.28s.15-.25.45-.25a2.27,2.27,0,0,1,.69.13,2.65,2.65,0,0,0,.38-1.38,1.61,1.61,0,0,0-.29-1,1,1,0,0,0-.77-.35,1,1,0,0,0-.64.21,1.09,1.09,0,0,0-.36.5,3.2,3.2,0,0,0-.1,1Z"/></g></g></svg>