<?xml version="1.0" encoding="UTF-8"?><svg id="uuid-70368796-d7c9-4ca6-9b5b-20876b280b73" xmlns="http://www.w3.org/2000/svg" viewBox="0 0 1366 768"><defs><style>.uuid-4ccd784e-f236-44e2-a3f0-eee7e9db05ef{fill:#fff;}</style></defs><rect y="1" width="1366" height="767"/><g><path class="uuid-4ccd784e-f236-44e2-a3f0-eee7e9db05ef" d="M728,143.43c0,.66-1.3,1.19-3.91,1.58s-5.13,.59-7.57,.59-5.21-.43-8.32-1.29c-3.1-.86-4.84-1.53-5.2-2.03-.36-.49-.58-1.37-.64-2.62-.26-3.63-2.44-6.47-6.53-8.51-4.88-2.51-7.92-4.36-9.11-5.54-1.98-1.98-3.7-3.23-5.15-3.76-1.45-.53-2.41-.79-2.87-.79-1.19,0-2.05,.33-2.57,.99-2.38,2.57-4.75,5.02-7.13,7.33-.33,.27-.49,.59-.49,.99s.06,.66,.2,.79,.63,.2,1.49,.2,2.23-.26,4.11-.79,4.03-1.06,6.44-1.58c2.41-.53,4.06-.79,4.95-.79s1.67,.25,2.33,.74c.66,.5,.99,.97,.99,1.44s-.08,.83-.25,1.09c-.17,.26-.97,.84-2.43,1.73-1.45,.89-2.92,1.67-4.41,2.33-1.48,.66-2.8,1.14-3.96,1.44-1.16,.3-2.16,.45-3.02,.45h-2.08c-1.38,0-2.31,.05-2.77,.15-.46,.1-.83,.15-1.09,.15-1.72,0-2.94-1.19-3.66-3.56-.13-.46-.46-.69-.99-.69-.93,0-2.43,1.22-4.5,3.66-2.08,2.44-3.2,4.19-3.37,5.25-.16,1.06-1.55,2.31-4.16,3.76-2.61,1.45-5.15,2.18-7.62,2.18s-4.03-.06-4.65-.2c-.63-.13-.94-.43-.94-.89,0-.79,.92-1.58,2.77-2.38,4.75-2.11,8.63-4.31,11.63-6.58,3-2.28,6.38-5.71,10.15-10.3,3.76-4.59,6.19-7.57,7.28-8.96,1.09-1.39,1.63-2.28,1.63-2.67s-.13-.74-.4-1.04-.69-.45-1.29-.45h-1.78c-.86,0-1.75-.43-2.67-1.29-.93-.86-1.58-1.76-1.98-2.72-.4-.96-.76-1.6-1.09-1.93s-.64-.49-.94-.49-.84,.23-1.63,.69c-2.31,1.39-4.6,2.38-6.88,2.97-2.28,.59-3.83,.89-4.65,.89s-1.24-.25-1.24-.74,1.09-1.7,3.27-3.61,3.68-3.17,4.51-3.76c.82-.59,2.42-2.46,4.8-5.59,2.38-3.13,3.99-5.53,4.85-7.18,.53-1.05,1.22-1.58,2.08-1.58,1.19,0,2.36,.53,3.52,1.58,1.15,1.06,1.73,1.87,1.73,2.43s-.53,1.15-1.58,1.78c-1.06,.63-2.28,1.62-3.66,2.97-1.39,1.35-2.08,2.26-2.08,2.72s.2,.69,.59,.69,1.75-.41,4.06-1.24c2.31-.82,4.85-1.83,7.62-3.02,.53-.2,1.01-.3,1.44-.3s.76,.21,.99,.64c.23,.43,.35,.89,.35,1.39s-.66,1.35-1.98,2.57c-1.32,1.22-3.37,2.49-6.14,3.81-.73,.33-1.09,.91-1.09,1.73s.54,1.58,1.63,2.28c1.09,.69,1.96,1.04,2.62,1.04l1.88-.3c.86,0,1.9,.28,3.12,.84,1.22,.56,1.88,1.09,1.98,1.58,.1,.5,.33,1.01,.69,1.54,.36,.53,2.92,2.82,7.67,6.88,4.75,4.06,8.55,7,11.39,8.81,2.84,1.82,5.71,3.25,8.61,4.31,11.42,4.09,17.13,6.83,17.13,8.22Zm-28.02,4.06c0,.66-.5,1.32-1.49,1.98-.99,.66-2.08,1.8-3.27,3.42s-1.78,4.07-1.78,7.38c0,.53-.23,.97-.69,1.34-.46,.36-.99,.48-1.58,.35-.6-.13-1.73-.2-3.42-.2s-4.03,.18-7.03,.54c-3,.36-4.92,.69-5.74,.99-.83,.3-1.55,.45-2.18,.45s-1.09-.3-1.39-.89-1.52-1.73-3.66-3.42c-2.15-1.68-3.85-3.88-5.1-6.58-1.25-2.71-1.88-4.46-1.88-5.25s.43-1.47,1.29-2.03,4.12-1.55,9.8-2.97c5.68-1.42,10.13-2.13,13.37-2.13s6.5,.83,9.8,2.48,4.95,3.17,4.95,4.55Zm-26.53,7.43c.73,0,2.72-.23,5.99-.69,3.27-.46,5.35-1.24,6.24-2.33,.89-1.09,1.34-2.33,1.34-3.71,0-2.11-1.32-3.17-3.96-3.17-1.38,0-3.37,.53-5.94,1.58-2.57,1.06-4.24,1.85-5,2.38-.76,.53-1.14,1.32-1.14,2.38,0,2.38,.82,3.56,2.47,3.56Zm31.19-58.41c.73,0,1.09,.53,1.09,1.58,0,1.58-.25,2.64-.74,3.17-.5,.53-1.78,1.44-3.86,2.72-2.08,1.29-3.53,2.08-4.36,2.38-.82,.3-1.24,.66-1.24,1.09s.13,.96,.4,1.58c.26,.63,.72,1.14,1.38,1.54,.86,.53,1.29,1.12,1.29,1.78s-.38,1.16-1.14,1.48c-.76,.33-1.62,.5-2.57,.5s-2.31-.38-4.06-1.14c-1.75-.76-2.82-2.62-3.22-5.59-.13-.99-.5-1.48-1.09-1.48s-1.06,.1-1.38,.3c-2.18,1.91-3.96,2.87-5.35,2.87-.79,0-1.19-.25-1.19-.74s.26-1.04,.79-1.63c3.63-4.09,6.07-7.26,7.33-9.5,1.25-2.24,2.61-4.47,4.06-6.68,1.45-2.21,2.39-3.53,2.82-3.96,.43-.43,.91-.64,1.44-.64s1.37,.35,2.53,1.04c1.15,.69,1.73,1.32,1.73,1.88s-.23,1.01-.69,1.34l-3.56,4.26c-2.38,2.84-3.56,4.49-3.56,4.95s.18,.69,.54,.69,1.17-.15,2.43-.45,2.44-.69,3.56-1.19c1.12-.5,2.39-.97,3.81-1.44,1.42-.46,2.36-.69,2.82-.69Z"/><path class="uuid-4ccd784e-f236-44e2-a3f0-eee7e9db05ef" d="M664.34,215.7c.53,0,.94,.16,1.24,.49s.92,1.21,1.88,2.62c.96,1.42,1.44,2.29,1.44,2.62,0,.53-.46,1.09-1.39,1.68-4.16,2.57-6.8,4.46-7.92,5.64-1.12,1.19-1.68,2.77-1.68,4.75,0,.86,.33,1.49,.99,1.88,2.71,1.65,4.06,2.87,4.06,3.66,0,.26-.07,.59-.2,.99-1.12,3.23-2.01,10.92-2.67,23.07-.07,1.71-.23,2.74-.5,3.07s-.81,.64-1.63,.94c-.83,.3-1.4,.45-1.73,.45-.93,0-1.35-.91-1.29-2.72,.06-1.82,.1-4.67,.1-8.56,0-9.57-.46-14.36-1.38-14.36-.27,0-.56,.17-.89,.49-3.1,2.77-5.97,4.8-8.61,6.09-2.64,1.29-4.32,1.93-5.05,1.93s-1.09-.2-1.09-.59c0-.99,2.14-3.91,6.44-8.76,4.29-4.85,7.06-8.15,8.32-9.9,1.25-1.75,2.65-4.07,4.21-6.98,1.55-2.9,2.98-5.05,4.31-6.44,1.32-1.39,2.34-2.08,3.07-2.08Zm4.75-11.48c0,.73-.33,1.25-.99,1.58-1.25,.59-2.39,1.45-3.41,2.57-1.03,1.12-2.03,1.98-3.02,2.57-.99,.59-3.14,2.31-6.44,5.15-1.12,.99-2.15,1.49-3.07,1.49s-1.38-.26-1.38-.79,.33-1.32,.99-2.38l3.96-6.44c1.98-3.23,3.5-5.48,4.55-6.73,1.05-1.25,1.77-2.26,2.13-3.02,.36-.76,1.1-1.14,2.23-1.14s2.14,.97,3.07,2.92c.92,1.95,1.38,3.35,1.38,4.21Zm42.97,46.33c.72,0,1.22,.16,1.48,.49,.26,.33,.49,.94,.69,1.83,.2,.89,.53,1.78,.99,2.67,.46,.89,.69,2.49,.69,4.8,0,.79-.23,1.19-.69,1.19s-1.47-.48-3.02-1.44c-1.55-.96-4.18-1.86-7.87-2.72-3.7-.86-6.55-1.29-8.56-1.29s-5.99,.38-11.93,1.14c-5.94,.76-9.77,1.35-11.48,1.78-1.72,.43-3.07,.96-4.06,1.58-.99,.62-1.68,.94-2.08,.94s-.88-.71-1.44-2.13c-.56-1.42-.84-2.41-.84-2.97s.86-.97,2.57-1.24c6.07-.92,10.25-1.68,12.52-2.28s3.86-1.12,4.75-1.58c.89-.46,1.44-1.24,1.63-2.33,.2-1.09,.3-2.09,.3-3.02s-.31-1.39-.94-1.39-1.87,.1-3.71,.3c-1.85,.2-3.09,.48-3.71,.84-.63,.36-1.07,.54-1.34,.54-.66,0-1.24-1.07-1.73-3.22-.49-2.14-.74-3.61-.74-4.41s.5-1.19,1.48-1.19c2.57-.06,4.9-.31,6.98-.74,2.08-.43,3.25-.79,3.51-1.09s.4-.81,.4-1.54c0-2.18-.13-3.53-.4-4.06-.26-.53-.99-.79-2.18-.79s-2.33,.13-3.42,.4c-1.09,.26-1.83,.39-2.23,.39-1.25,0-2.29-1.3-3.12-3.91-.83-2.61-1.24-4.14-1.24-4.6s.28-.78,.84-.94c.56-.16,1.99-.28,4.3-.35,2.31-.06,4.01-.16,5.1-.3,1.09-.13,3.6-.66,7.52-1.58,3.93-.92,7.71-1.39,11.34-1.39,2.04,0,3.07,.46,3.07,1.39l-.2,1.58v1.78c-1.32,1.45-4.39,3.2-9.21,5.25-.66,.26-1.09,.69-1.29,1.29s-.3,1.52-.3,2.77,.08,2,.25,2.23c.16,.23,.51,.31,1.04,.25,1.78-.2,4.12-.3,7.03-.3,.86,0,1.42,.12,1.68,.35,.26,.23,.4,.89,.4,1.98s-.12,1.96-.35,2.62c-.23,.66-.69,1.17-1.39,1.53-.69,.36-1.77,.97-3.22,1.83-1.45,.86-2.97,1.48-4.55,1.88-.59,.2-1.01,.5-1.24,.89-.23,.4-.35,1.14-.35,2.23s.25,1.87,.74,2.33c.5,.46,1.85,.93,4.06,1.39,2.21,.46,4.3,.69,6.29,.69s3.55-.06,4.7-.2c1.15-.13,1.96-.2,2.43-.2Zm-22.08-55.74c.66,0,1.11,.45,1.34,1.34,.23,.89,.48,1.58,.74,2.08,.26,.5,1.07,1.3,2.43,2.43,1.35,1.12,2.49,2.39,3.41,3.81,.92,1.42,1.39,2.59,1.39,3.52,0,1.32-.81,1.98-2.43,1.98s-3.61-.23-5.99-.69c-2.38-.46-3.78-.81-4.21-1.04s-.64-.86-.64-1.88,.16-2.59,.49-4.7c.33-2.11,.82-3.78,1.49-5,.66-1.22,1.32-1.83,1.98-1.83Z"/><path class="uuid-4ccd784e-f236-44e2-a3f0-eee7e9db05ef" d="M704.73,315.59c0,.4-.36,.86-1.09,1.39-.73,.53-1.37,2.1-1.93,4.7-.56,2.61-.84,5.31-.84,8.12s-.08,6.87-.25,12.18-.35,9.46-.54,12.42c-.2,2.97-.3,4.88-.3,5.74v2.28c0,1.65-.36,2.47-1.09,2.47-.33,0-.69-.13-1.09-.4-2.77-1.91-4.95-3.3-6.53-4.16-1.58-.86-3.65-2.14-6.19-3.86-2.54-1.72-4.54-3.2-5.99-4.46-.53-.53-1.11-.79-1.73-.79s-2.46,.51-5.49,1.54c-3.04,1.02-5,1.87-5.89,2.52-.89,.66-1.54,.99-1.93,.99-1.19,0-2.11-1.76-2.77-5.3-.66-3.53-.99-7.92-.99-13.17s.26-10.26,.79-15.05c.53-4.78,.99-7.52,1.39-8.22,.39-.69,1.07-1.07,2.03-1.14,.96-.06,1.81-.21,2.57-.45,.76-.23,4.54-.82,11.33-1.78s11.35-1.44,13.66-1.44,4.26,.4,5.84,1.19c1.58,.79,3.15,1.63,4.7,2.53,1.55,.89,2.33,1.6,2.33,2.13Zm-17.72,38.21c1.98,0,3.04-.66,3.17-1.98,.13-1.32,.2-6.14,.2-14.45s-.15-13.73-.45-16.24c-.3-2.51-.73-4.14-1.29-4.9-.56-.76-1.7-1.14-3.42-1.14s-4.21,.54-7.47,1.63c-3.27,1.09-5.31,2.13-6.14,3.12-.83,.99-1.24,2.47-1.24,4.46,0,.86,.53,1.29,1.58,1.29l6.24-.2c2.31,0,3.71,.23,4.21,.69,.49,.46,.74,1.55,.74,3.27,0,.99-.28,1.78-.84,2.38-.56,.59-4.14,1.98-10.74,4.16-.92,.33-1.53,.66-1.83,.99-.3,.33-.53,1.09-.69,2.28-.17,1.19-.25,2.38-.25,3.56s.36,1.78,1.09,1.78c.26,0,1.35-.25,3.27-.74,1.91-.49,3.18-.74,3.81-.74s1.2,.05,1.73,.15c.53,.1,.99,.15,1.39,.15l1.09-.1c.73,0,1.4,.5,2.03,1.49s.94,2.31,.94,3.96c0,.59-.33,1.03-.99,1.29-.33,.13-.5,.48-.5,1.04s.46,1.17,1.39,1.83c.92,.66,1.91,.99,2.97,.99Z"/><path class="uuid-4ccd784e-f236-44e2-a3f0-eee7e9db05ef" d="M724.04,465.87c0,.53-.46,.91-1.39,1.14-.92,.23-2.51,.74-4.75,1.54-3.7,1.25-7.76,1.88-12.18,1.88-1.39,0-2.53-.05-3.42-.15-.89-.1-1.87-.15-2.92-.15l-4.65,.2c-1.85,0-3.13-.63-3.86-1.88-1.78-3.3-3.98-5.76-6.58-7.38-2.61-1.62-5.86-2.43-9.75-2.43-2.44,0-4.79-.56-7.03-1.68-3.17-1.52-7.39-2.28-12.67-2.28-2.57,0-4.55,.5-5.94,1.49-.73,.53-1.49,.79-2.28,.79s-1.73-.84-2.82-2.52c-1.09-1.68-1.63-2.89-1.63-3.62s.46-1.3,1.39-1.73c.92-.43,2.04-.56,3.37-.39s2.79,.25,4.41,.25,2.9-.08,3.86-.25,2-.25,3.12-.25c3.17,0,6.7,.86,10.59,2.57,1.85,.92,3.23,1.48,4.16,1.68,1.91,.33,3.7,.89,5.35,1.68,1.65,.79,4.59,1.73,8.81,2.82,4.22,1.09,7.09,1.7,8.61,1.83,11.35,1.12,18.89,2.29,22.62,3.51,3.73,1.22,5.59,2.33,5.59,3.32Zm-21.38-40.99c0,.66-.66,1.19-1.98,1.58-3.37,.99-5.84,2.31-7.43,3.96-.4,.4-1.21,1.01-2.43,1.83-1.22,.83-2.29,1.49-3.22,1.98-.93,.5-1.92,1.22-2.97,2.18-1.06,.96-3.02,1.93-5.89,2.92s-5.39,1.98-7.57,2.97c-2.18,.99-4.7,1.65-7.57,1.98-2.87,.33-4.92,.5-6.14,.5s-1.83-.12-1.83-.35,.76-.68,2.28-1.34,3.35-1.6,5.5-2.82c2.14-1.22,6.45-3.18,12.92-5.89,3.17-1.19,5.82-2.62,7.97-4.31,2.14-1.68,3.43-2.84,3.86-3.46,.43-.62,.64-1.3,.64-2.03,0-1.45-.76-2.18-2.28-2.18-2.71,0-5.25,1.32-7.62,3.96-1.19,1.25-3.22,2.21-6.09,2.87s-5.15,1.37-6.83,2.13c-1.68,.76-3.27,1.34-4.75,1.73-1.48,.4-2.49,.99-3.02,1.78-.33,.39-.78,.59-1.34,.59s-1.38-1.11-2.47-3.32-1.63-3.63-1.63-4.26,.69-1.01,2.08-1.14c2.9-.26,5.02-.66,6.34-1.19,1.32-.53,2.9-.89,4.75-1.09,1.85-.2,4.17-.76,6.98-1.68,2.8-.92,4.9-1.49,6.29-1.68,6.27-.99,9.83-1.57,10.69-1.73,.86-.16,1.73-.25,2.62-.25s2.24,.3,4.06,.89c1.81,.59,3.28,1.4,4.41,2.42,1.12,1.03,1.68,1.83,1.68,2.43Zm-28.41-24.06c.79,0,1.32,.49,1.58,1.48,.46,1.78,1.95,3.63,4.46,5.54,1.45,1.06,2.64,2.26,3.56,3.61,.92,1.35,1.38,2.26,1.38,2.72,0,.73-.49,1.22-1.48,1.48-.99,.27-2.47,.4-4.46,.4s-3.53-.26-4.65-.79c-1.12-.53-1.93-1.22-2.43-2.08-.5-.86-.74-2.28-.74-4.26,0-2.57,.26-4.57,.79-5.99,.53-1.42,1.19-2.13,1.98-2.13Z"/><path class="uuid-4ccd784e-f236-44e2-a3f0-eee7e9db05ef" d="M720.97,552.6c.39,0,.77,.96,1.14,2.87,.36,1.92,.54,4.67,.54,8.27s-.16,7.33-.49,11.19c-.33,3.86-.64,6.2-.94,7.03-.3,.83-.66,1.24-1.09,1.24s-.99-.25-1.68-.74c-.69-.5-1.73-1.04-3.12-1.63-4.69-1.85-9.19-5.12-13.51-9.8-4.32-4.69-7.94-10.16-10.84-16.43-.4-.86-.79-1.29-1.19-1.29s-1.09,.23-2.08,.69c-.99,.46-1.98,1.42-2.97,2.87-.33,.46-.97,.76-1.93,.89-.96,.13-2.47,.21-4.55,.25-2.08,.03-3.78,.05-5.1,.05-.59,0-.97,.28-1.14,.84-.16,.56-.3,1.83-.39,3.81-.1,1.98-.15,3.56-.15,4.75l.2,3.76c0,1.38-.49,2.08-1.48,2.08-1.26,0-3.7-.81-7.33-2.43-3.63-1.62-6.4-2.99-8.32-4.11s-3-1.68-3.27-1.68-.59,.13-.99,.4c-.39,.26-.88,.4-1.44,.4s-1.6-.73-3.12-2.18c-1.52-1.45-2.28-2.57-2.28-3.37s.49-1.37,1.48-1.73c.99-.36,2.41-1.1,4.26-2.23,6-3.5,11.32-6.17,15.94-8.02,.53-.2,.79-.96,.79-2.28s-.12-2.14-.35-2.47c-.23-.33-.64-.5-1.24-.5-1.39,0-4.26,.64-8.61,1.93-4.36,1.29-7,2.49-7.92,3.61-.33,.46-.74,.69-1.24,.69s-.99-.51-1.49-1.54c-.49-1.02-1.06-2.03-1.68-3.02-.63-.99-.94-1.98-.94-2.97,0-1.32,.68-2.01,2.03-2.08,1.35-.06,3.4-.45,6.14-1.14,2.74-.69,5.62-1.65,8.66-2.87,3.04-1.22,4.69-1.95,4.95-2.18,.26-.23,.4-.53,.4-.89s-.1-.84-.3-1.44-.48-.97-.84-1.14c-.36-.16-1.09-.3-2.18-.4-1.09-.1-2.06-.15-2.92-.15s-1.8,.08-2.82,.25c-1.02,.17-2.06,.25-3.12,.25s-1.58-.16-1.58-.5,.3-.76,.89-1.29c.59-.53,2.95-2.11,7.08-4.75,4.12-2.64,8.73-5.25,13.81-7.82,.92-.4,1.57-.82,1.93-1.29,.36-.46,.71-.69,1.04-.69,.79,0,2.31,1.42,4.55,4.26,.26,.33,.5,.49,.69,.49s.3-.53,.3-1.58-.38-3.28-1.14-6.68c-.76-3.4-1.44-6.57-2.03-9.5s-.89-4.51-.89-4.7c0-1.32,1.12-1.98,3.37-1.98,.92,0,1.55,.31,1.88,.94s.69,2.31,1.09,5.05,.99,5.28,1.78,7.62c.79,2.34,1.75,7.44,2.87,15.29,.26,1.78,.54,2.94,.84,3.46,.3,.53,.84,.71,1.63,.54,.79-.16,1.44-.25,1.93-.25s.94,.23,1.34,.69c.4,.46,.91,1.58,1.54,3.37,.63,1.78,.94,2.91,.94,3.37s-.69,.73-2.08,.79c-1.92,.07-2.87,.79-2.87,2.18,0,.07,.25,1.07,.74,3.02,.5,1.95,.81,3.02,.94,3.22,.13,.2,.36,.3,.69,.3,.26,0,1.09-.51,2.48-1.54,1.38-1.02,2.38-1.83,2.97-2.43s1.14-.89,1.63-.89,1.14,.46,1.93,1.39c.79,.92,1.19,1.78,1.19,2.57s-.39,1.4-1.19,1.83c-.79,.43-1.6,1.04-2.43,1.83-.83,.79-2.43,1.88-4.8,3.27-.4,.26-.59,.74-.59,1.44s.92,2.76,2.77,6.19,4.37,6.83,7.57,10.2c3.2,3.37,5.62,5.05,7.28,5.05,.86,0,1.63-.54,2.33-1.63,.69-1.09,1.42-2.39,2.18-3.91,.76-1.52,1.6-4.92,2.53-10.2,.53-2.77,.99-4.16,1.39-4.16Zm-57.72,12.08c1.19,0,1.98-.43,2.38-1.29,.4-.86,.59-2.42,.59-4.7s-.3-3.42-.89-3.42-1.75,.56-3.46,1.68l-4.85,3.27c-1.65,.99-2.47,1.82-2.47,2.48s.78,1.15,2.33,1.48,3.68,.49,6.39,.49Zm19.8-38.41c0-.72-.13-1.55-.4-2.47-.26-.92-.53-1.55-.79-1.88-.27-.33-.73-.49-1.39-.49-3.17,0-6.29,.79-9.36,2.38-3.07,1.58-4.6,3.1-4.6,4.55,0,.53,.36,.91,1.09,1.14,.72,.23,1.48,.54,2.28,.94,.79,.4,1.47,.6,2.03,.6s1.58-.21,3.07-.64c1.48-.43,3.68-.97,6.58-1.63,.99-.26,1.48-1.09,1.48-2.48Zm4.65,20.2c0-.4-.36-1.77-1.09-4.11-.73-2.34-1.22-3.73-1.48-4.16-.27-.43-.78-.64-1.54-.64s-2,.3-3.71,.89c-1.72,.59-3.33,1.09-4.85,1.48-1.06,.33-1.58,1.42-1.58,3.27,0,.93,.4,1.57,1.19,1.93,.79,.36,1.19,.89,1.19,1.58s-.56,1.44-1.68,2.23c-1.12,.79-1.68,2.01-1.68,3.66,0,.86,.43,1.29,1.29,1.29,1.32,0,3.56-.77,6.73-2.33,3.17-1.55,5.16-2.61,5.99-3.17,.82-.56,1.24-1.2,1.24-1.93Zm19.31-25.94c0,1.25-1.06,1.88-3.17,1.88-.4,0-.73-.03-.99-.1-1.78-.46-3.63-.76-5.54-.89-.79-.06-1.5-.79-2.13-2.18-.63-1.39-.94-3.15-.94-5.3s.36-3.22,1.09-3.22c.4,0,.84,.3,1.34,.89,.49,.59,1.53,1.52,3.12,2.77s2.71,2.05,3.37,2.38c2.57,1.26,3.86,2.51,3.86,3.76Z"/><path class="uuid-4ccd784e-f236-44e2-a3f0-eee7e9db05ef" d="M713.44,640.71c0,.4-.33,.89-.99,1.48s-1.15,1.75-1.48,3.46c-.86,4.42-1.62,7.39-2.28,8.91-.26,.53-.88,2.18-1.83,4.95-.96,2.77-1.57,4.59-1.83,5.45-.66,2.24-1.55,3.37-2.67,3.37-.39,0-.73-.13-.99-.4-.26-.26-.89-.64-1.88-1.14-.99-.49-1.85-.87-2.57-1.14-2.04-.66-4.74-2.14-8.07-4.46-3.33-2.31-5-3.99-5-5.05,0-.39,.18-.59,.54-.59s.71,.1,1.04,.3c1.05,.53,2.84,1.06,5.35,1.58,2.51,.53,4.16,.79,4.95,.79s1.54-.25,2.23-.74c.69-.5,1.42-1.87,2.18-4.11,.76-2.24,1.14-4.31,1.14-6.19s-.56-3.23-1.68-4.06c-1.12-.82-2.97-1.24-5.54-1.24s-5.38,.31-8.42,.94c-3.04,.63-4.8,1.12-5.3,1.48-.49,.36-.78,.94-.84,1.73-.33,4.69-.92,9.04-1.78,13.07-.33,1.58-.49,5.16-.49,10.74s.15,8.6,.45,9.06c.3,.46,.45,.89,.45,1.29,0,1.12-1.26,1.68-3.76,1.68-1.19,0-1.96-.08-2.33-.25-.36-.17-.54-.51-.54-1.04l.2-2.18-.49-19.5c-.13-7.13-.25-10.91-.35-11.34s-.38-.64-.84-.64-2.67,.6-6.63,1.78c-3.96,1.19-6.67,2.13-8.12,2.82-1.45,.69-2.62,1.45-3.52,2.28-.89,.83-1.57,1.24-2.03,1.24s-.97-.74-1.53-2.23c-.56-1.48-.84-2.89-.84-4.21,0-1.12,.56-1.68,1.68-1.68,.73,0,2.51-.39,5.35-1.19,7.52-2.18,12.57-3.73,15.15-4.65,.59-.2,.94-.46,1.04-.79,.1-.33,.12-1.52,.05-3.56v-6.54c0-.86-.26-1.29-.79-1.29s-1.5,.31-2.92,.94c-1.42,.63-2.89,1.5-4.41,2.62-.99,.73-1.78,1.09-2.38,1.09s-1.47-.99-2.62-2.97-1.73-3.38-1.73-4.21,.56-1.3,1.68-1.44c2.38-.26,5.02-.88,7.92-1.83s4.57-1.57,5-1.83c.43-.26,.68-1.07,.74-2.43,.06-1.35,.1-3.73,.1-7.13s-.04-5.66-.1-6.78l-.2-2.57c0-1.05,.59-1.58,1.78-1.58,.4,0,.89,.07,1.48,.2,.4,.13,1.8,.2,4.21,.2s3.62,.66,3.62,1.98c0,.46-.17,.93-.5,1.39-.79,1.12-1.19,4.79-1.19,10.99,0,1.78,.06,2.87,.2,3.27s.43,.59,.89,.59,1.68-.11,3.66-.35c1.98-.23,4.04-.35,6.19-.35s4.24,.5,6.29,1.49c2.04,.99,3.07,1.75,3.07,2.28s-.23,1.03-.69,1.49c-1.12,1.12-2.34,3.18-3.66,6.19-1.32,3-1.98,4.79-1.98,5.35s.56,.84,1.68,.84c3.96,.07,7.87,.54,11.73,1.44s5.79,1.87,5.79,2.92Zm-24.65-12.57c0-1.65-.28-2.66-.84-3.02s-1.32-.54-2.28-.54-2.18,.25-3.66,.74-2.29,1.07-2.43,1.73c-.13,.66-.2,2.38-.2,5.15s.06,4.44,.2,5c.13,.56,.4,.84,.79,.84s1.35-.11,2.87-.35c1.52-.23,2.44-.45,2.77-.64,.33-.2,.71-.78,1.14-1.73,.43-.96,.81-2.11,1.14-3.47,.33-1.35,.49-2.59,.49-3.71Zm14.45-19.11c.92,0,1.59,.4,1.98,1.19,.4,.79,1.63,1.87,3.71,3.22,2.08,1.35,3.61,2.64,4.6,3.86,.99,1.22,1.48,2.18,1.48,2.87s-.35,1.27-1.04,1.73c-.69,.46-1.62,.69-2.77,.69s-2.26-.18-3.32-.54c-1.06-.36-2.23-.66-3.52-.89-1.29-.23-2.19-.94-2.72-2.13-.53-1.19-.79-2.67-.79-4.46,0-3.7,.79-5.54,2.38-5.54Z"/></g></svg>