<?xml version="1.0" encoding="utf-8"?>
<!-- Generator: Adobe Illustrator 27.0.0, SVG Export Plug-In . SVG Version: 6.00 Build 0)  -->
<svg version="1.1" id="图层_2" xmlns="http://www.w3.org/2000/svg" xmlns:xlink="http://www.w3.org/1999/xlink" x="0px" y="0px"
	 viewBox="0 0 1067.5 640.1" style="enable-background:new 0 0 1067.5 640.1;" xml:space="preserve">
<style type="text/css">
	.st0{fill:#CCCCCC;}
	.st1{fill:#FFFFFF;}
	.st2{fill:#FFB8B8;}
	.st3{fill:#2F2E41;}
	.st4{fill:#3F3D56;}
	.st5{fill:#E6E6E6;}
	.st6{fill:#F1B327;}
	.st7{fill:#954B0E;}
	.st8{fill:#868686;}
	.st9{fill:#020101;}
	.st10{fill:#FDD35A;}
	.st11{fill:#FEFEFE;}
</style>
<g>
	<path class="st0" d="M724.1,506.1c-14.4,0-26-11.6-26-26s11.6-26,26-26s26,11.6,26,26C750.1,494.4,738.4,506,724.1,506.1z"/>
	<path class="st1" d="M736.1,479.1h-11v-12.5c0-0.6-0.4-1-1-1s-1,0.4-1,1v12.5h-11c-0.6,0-1,0.4-1,1s0.4,1,1,1h11v12.5
		c0,0.6,0.4,1,1,1s1-0.4,1-1v-12.5h11c0.6,0,1-0.4,1-1S736.6,479.1,736.1,479.1z"/>
	<polygon class="st2" points="824.2,627.9 812.8,627.9 807.4,583.8 824.2,583.8 	"/>
	<path class="st3" d="M804.6,624.6h22l0,0v13.9l0,0h-35.9l0,0l0,0C790.7,630.8,797,624.6,804.6,624.6
		C804.6,624.6,804.6,624.6,804.6,624.6z"/>
	<polygon class="st2" points="778.7,627.9 767.3,627.9 761.9,583.8 778.7,583.8 	"/>
	<path class="st3" d="M759.1,624.6h22l0,0v13.9l0,0h-35.9l0,0l0,0C745.2,630.8,751.5,624.6,759.1,624.6
		C759.1,624.6,759.1,624.6,759.1,624.6z"/>
	<path class="st2" d="M833,475.4c-3.5-3.8-3.2-9.8,0.7-13.2c0.4-0.4,0.9-0.7,1.3-1l-3.5-21.1l12.3-5.3l4.6,29.9
		c2.5,4.6,0.7,10.3-3.8,12.8C840.7,479.5,835.9,478.7,833,475.4z"/>
	<path class="st2" d="M736.6,465.5c4.1-3.2,4.8-9.1,1.5-13.2c-0.3-0.4-0.7-0.8-1.1-1.2l7-20.3l-11.3-7.2l-9.5,28.7
		c-3.2,4.1-2.4,10,1.7,13.2C728.4,468.2,733.2,468.2,736.6,465.5z"/>
	<circle class="st2" cx="795.1" cy="291.7" r="24.6"/>
	<path class="st4" d="M735.8,450.3c-0.4,0-0.8-0.1-1.2-0.2l-7.2-2.1c-2.4-0.7-3.8-3.2-3.1-5.6l14.8-52.2l20.6-50.6
		c2-5,6.3-8.3,11.2-8.6c4.5-0.2,8.7,2.2,10.8,6.3l0,0c2.2,4.3,2.4,9.4,0.4,13.8l-23.4,51.2L740,447.5
		C739.3,449.2,737.7,450.3,735.8,450.3z"/>
	<path class="st3" d="M809,312.2l-13.6,0.2c-5,0.1-9.2-3.9-9.3-8.9c0-0.9,0.1-1.8,0.4-2.7c0.3-1,0.5-2,0.7-3
		c0.2-1.1,0.2-2.2,0.1-3.4c-0.2-2.7-2.6-4.8-5.3-4.6c-1.9,0.1-3.5,1.4-4.2,3.1l0,0c-2.3,0-7.2-0.7-9.5-0.7
		c-4.9-12.5,5.7-28.8,17.2-35c11.7-6.3,26.8,0.1,31.2,13.2c6.2,0.1,11.2,6.2,12,13.1s-2,14.1-6.4,19.3S812.2,312.2,809,312.2z"/>
	<path class="st3" d="M764.1,623.8c-2.3,0-4.2-1.7-4.5-4l-5.1-170.2l63.8,4.5l0,0.4c14.4,120.7,9.5,162.4,9.4,162.8
		c-0.1,2.5-2.3,4.4-4.7,4.2c-0.1,0-0.2,0-0.3,0l-14.1,0.3c-2.2-0.2-3.9-2.1-4-4.3l-13.2-123.3c-0.2-0.7-0.8-1.1-1.5-1.1
		c-0.7,0-1.3,0.5-1.4,1.2l-5.1,123.7c0.1,2.4-1.7,4.4-4,4.7l-14.9,1C764.4,623.8,764.3,623.8,764.1,623.8z"/>
	<path class="st4" d="M790.6,469.9c-0.4,0-0.8,0-1.1,0c-18.3-0.6-32.7-14.4-36.7-18.7c-1-1.1-1.4-2.6-1.1-4.1l10.6-44.8l-2.8-38.9
		c-0.9-10.9,2.9-21.7,10.5-29.6c6.3-6.7,15.2-10.3,24.4-9.9c17.9,0.9,31.9,16.8,32.1,36.3c0.2,30.2-0.7,32.3-1,33
		c-8.9,20.8-4,50-2.3,58.4c0.3,1.5-0.2,3.1-1.3,4.2C812,465.2,801.5,469.9,790.6,469.9z"/>
	<path class="st4" d="M836.7,458.5c-2.1,0-3.9-1.5-4.4-3.5l-10.9-47.6l-14.6-54.4c-1.3-4.7-0.3-9.7,2.6-13.5
		c2.7-3.6,7.2-5.4,11.7-4.4c4.7,1.1,8.4,5,9.6,10.3l12,53.2l6,53.9c0.3,2.5-1.5,4.7-4,5l-7.4,0.8C837,458.5,836.8,458.5,836.7,458.5
		z"/>
	<path class="st2" d="M248.8,463.6c4.9-3.4,6.1-10,2.8-14.9c-0.4-0.5-0.8-1-1.2-1.5l4.2-93l-21.2,2.4l1.2,91
		c-4,4.5-3.6,11.3,0.9,15.2C239.2,466.1,244.7,466.5,248.8,463.6L248.8,463.6z"/>
	<polygon class="st2" points="287.5,621.1 299.6,623.2 311.5,577.6 295.7,574.5 	"/>
	<path class="st3" d="M320.9,638.5l-37.9-6.7l0,0l2.6-14.7l0,0l23.3,4.1C316.9,622.7,322.3,630.4,320.9,638.5L320.9,638.5
		L320.9,638.5z"/>
	<polygon class="st2" points="254.4,627.1 266.7,627.1 272.5,579.8 254.4,579.8 	"/>
	<path class="st3" d="M290.3,638.5l-38.5,0l0,0l0-14.9l0,0l23.6,0C283.6,623.6,290.3,630.3,290.3,638.5L290.3,638.5L290.3,638.5
		L290.3,638.5z"/>
	<path class="st3" d="M306.5,614.2c-0.2,0-0.4,0-0.6,0l-14.4-1.2c-2.7-0.3-4.6-2.7-4.3-5.4c0-0.1,0-0.2,0-0.2l13.3-74.7l-9-47.5
		c-0.2-0.9-1-1.5-1.9-1.3c-0.7,0.1-1.3,0.7-1.3,1.5l-11.3,126.6c-0.3,2.6-2.6,4.6-5.2,4.4l-13.6-0.5c-2.5-0.2-4.4-2.2-4.5-4.6
		l-0.9-151.8l70.5-8.8l4.9,76l0,0.1l-17,83.7C310.8,612.6,308.8,614.2,306.5,614.2z"/>
	<circle class="st2" cx="276.1" cy="269.4" r="24.6"/>
	<path d="M299.3,470.5c-3.8,0-7.6-1.1-10.9-3.1c-11.9-7.4-25.4-4.5-32.4-2.1c-1.4,0.5-3,0.3-4.2-0.5c-1.2-0.8-2.1-2.1-2.2-3.6
		l-12.7-113.6c-2.1-19,9.3-36.9,27.3-42.6l0,0c0.7-0.2,1.4-0.4,2.1-0.6c11.3-3.1,23.4-1,33,5.7c9.8,6.8,16.1,17.5,17.2,29.4L327,454
		c0.1,1.5-0.4,3-1.5,4C321.7,461.5,310.8,470.5,299.3,470.5z"/>
	<path d="M260.5,372.1l-28.7-3.2c-3.1-0.3-5.4-3.2-5.1-6.3c0-0.3,0.1-0.6,0.2-0.8l7.3-27.8c1-8.7,8.9-15,17.6-13.9
		c8.7,1,14.9,8.8,14,17.5l1.1,28.7c0.1,3.2-2.3,5.8-5.5,5.9C261.1,372.1,260.8,372.1,260.5,372.1L260.5,372.1z"/>
	<path class="st2" d="M326.9,459.6c4.5-3.9,4.9-10.7,1-15.2c-0.4-0.5-0.9-0.9-1.4-1.3l-7.1-92.8l-20.8,4.7l12.2,90.4
		c-3.4,4.9-2.2,11.6,2.7,15C317.7,463.3,323.2,463,326.9,459.6z"/>
	<path d="M290.7,366.3c-1.2-1.1-1.9-2.7-1.8-4.4l1.1-28.7c-1-8.7,5.3-16.6,14-17.5c8.7-1,16.5,5.3,17.5,14l7.3,27.8
		c0.8,3.1-1,6.2-4.1,7c-0.3,0.1-0.5,0.1-0.8,0.2l-28.7,3.2C293.5,367.9,291.9,367.4,290.7,366.3z"/>
	<path class="st3" d="M274.7,294.9c-0.4,0-0.9-0.1-1.3-0.2l-0.1,0c-21.6-3.3-26.4-15.8-27.4-21c-1.1-5.4,0.2-10.6,2.9-12.7
		c-1.5-4.8-1.3-9.1,0.7-12.7c3.5-6.3,11.1-8.4,12.1-8.7c6.1-4.5,13.3-1.5,14.6-0.9c11.7-4.3,16.2-0.7,17,0.1c5.2,0.9,8.4,3,9.5,6
		c2,5.7-4.3,12.9-4.6,13.2l-0.1,0.2l-9.4,0.4c-3.5,0.2-6.2,3.1-6,6.7c0,0.2,0,0.4,0.1,0.7l0,0c0.3,1.1,0.6,2.3,1,3.4
		c1.6,5,2.8,9.3,1.3,10.9c-0.7,0.6-1.7,0.8-2.6,0.5c-1.5-0.4-2.5-0.3-3,0.2c-0.8,0.9-0.5,3,0.7,6.1c0.8,2,0.4,4.2-1,5.8
		C277.8,294.1,276.3,294.8,274.7,294.9z"/>
	<path class="st0" d="M359,640.1H219c-0.6,0-1-0.4-1-1s0.4-1,1-1h140c0.6,0,1,0.4,1,1S359.6,640.1,359,640.1z"/>
	<path class="st0" d="M847,640.1H707c-0.6,0-1-0.4-1-1s0.4-1,1-1h140c0.6,0,1,0.4,1,1S847.6,640.1,847,640.1z"/>
	<path class="st1" d="M646.7,470.1h-242c-19.3,0-35-15.7-35-35v-354c0-19.3,15.7-35,35-35h242c19.3,0,35,15.7,35,35v354
		C681.7,454.4,666,470.1,646.7,470.1z"/>
	<path class="st0" d="M608.7,327.1h-166c-17-0.1-17-25.9,0-26l166,0C625.7,301.2,625.7,327.1,608.7,327.1z"/>
	<path class="st0" d="M608.7,119.1h-166c-17-0.1-17-25.9,0-26l166,0C625.7,93.2,625.7,119,608.7,119.1z"/>
	<path class="st0" d="M608.7,375.1h-166c-17-0.1-17-25.9,0-26l166,0C625.7,349.2,625.7,375.1,608.7,375.1z"/>
	<path class="st0" d="M608.7,423.1h-166c-17-0.1-17-25.9,0-26l166,0C625.7,397.2,625.7,423.1,608.7,423.1z"/>
	<path class="st5" d="M646.7,470.1h-242c-19.3,0-35-15.7-35-35v-354c0-19.3,15.7-35,35-35h242c19.3,0,35,15.7,35,35v354
		C681.7,454.4,666,470.1,646.7,470.1z M404.7,52.1c-16,0-29,13-29,29v354c0,16,13,29,29,29h242c16,0,29-13,29-29v-354
		c0-16-13-29-29-29H404.7z"/>
</g>
<path class="st6" d="M414.3,228.7c0.1-1.5,0.3-3,0.4-4.5c1.4-1.4,1.3-2.9,0.2-4.5c0.1-1.7,0.2-3.4,0.3-5.1c1.6-2.2,2.4-4.5,1-7.1
	c0.1-1.5,0.2-3,0.3-4.5c2-1.2,2.4-3.1,2.3-5.2c-0.2-3.2,0.3-6.3,0.9-9.4c0.5-2.5,0.6-5,0.1-7.5c0-0.3,0-0.6,0-1
	c1.4-1.4,1.3-2.9,0.2-4.5c0.1-1.1,0.2-2.1,0.3-3.2c2-3.7,4.1-7.3,6.1-11c0,0,0,0,0,0c0.7,0.1,1.2-0.2,1.7-0.6
	c4.8-3.4,9.9-6.3,14.9-9.4c4.6-2.8,9.7-5.2,14.8-7.4c6.6-2.9,12.5-7.2,19-10.3c5.5-2.6,11-5.2,16.9-5.9c4.4-0.5,9-1.9,13.5-0.2
	c-0.2,0.2-0.4,0.5-0.6,0.7c-5.4,0.7-10.7,1.6-15.9,3.2c-3.8,1.1-6.5,4.9-10.9,4c-0.6-0.1-1.4,0.5-2,0.8c-3.7,1.9-7.1,4.1-11.2,5.6
	c-9.7,3.4-18.4,8.9-27.3,14c-0.8,0.5-1.6,1.3-2.4,1.5c-4.3,1-5.9,5.4-9.4,7.4c-0.7,0.4-0.4,1.4-0.5,2.1c-0.9,7.2-1.9,14.3-2.9,21.5
	c-1,7.4-1.8,14.8-3,22.2c-0.6,3.8-0.2,7.7-0.7,11.4c-0.7,4.8-0.8,9.5,0.1,14.3c0.2,0.9-0.1,2.2,1.1,2.4c1.4,0.2,1.7-1.2,2-2.1
	c0.7-2.2,0.7-5,2.1-6.5c4-4.6,6.2-10.7,11.5-14.3c1-0.7,1.1-1.6,1.4-2.6c0.9-3.1,0.5-6.3,2-9.5c1.6-3.5,2.2-7.8,2.2-11.8
	c-0.1-3.2,0.6-6.2,1.8-8.8c3.2-6.9,9.6-10.7,15.9-14.5c1.8-1.1,4.6-0.7,5.4-3.4c0.5-1.9,1.3-2.3,3.4-2.1c1.7,0.2,3.9-0.5,5.2-2
	c3.2-3.6,7.1-3.5,11.2-2.2c-0.8,2.6-3,4.4-4,6.9c-1.7,1.5-2.9,3.4-4.1,5.2c-1.3,1.9-2.9,3.3-5.3,2.4c-1.5-0.5-2.1,0.5-2.9,1.3
	c-2,2-3.7,4.3-6.6,5.2c-4.7,1.4-6.6,5.3-8,9.5c-1.2,3.8-2.2,7.6-3.2,11.4c-0.8,2.8-3.3,5-3.2,8.1c0,0.9-1.3,2.2,0.1,2.8
	c1.1,0.5,2.3-0.3,3.3-0.8c0.4-0.3,0.7-0.8,1-1.2c5.6-6.5,12.6-11.2,19.7-15.7c0,0.7-0.1,1.3-0.6,2c-4.2,5.3-10.4,8.3-15.1,13.1
	c-1.8,1.9-3.2,4.1-5.5,5.6c-4.6,3-9.6,5.3-13.8,9c-2.5,2.3-5,4.3-4.8,8.4c0.1,3,1.5,5.1,2.7,7.6c1,2,2.3,2.9,4.3,2.4
	c5-1.3,10-2.7,14.9-4.2c6.9-2.1,12.1-7.6,19.2-9.3c5.3-1.2,10-4,15-5.8c5.7-2.1,11.4-3.5,17.4-4.3c5.3-0.7,10.6-2.5,15.8-1
	c6.7,1.9,13.5,2,20.3,2.7c8.5,0.9,17,2.4,25.7,0.9c2.4-0.4,4.8-0.3,6.5-2.5c1-1.2,2.5-1.4,4.1-1.5c4-0.4,5.2-1.8,6-5.2
	c1.8-7.6-0.8-14-4.2-20.6c-4-7.5-10.5-12.2-17.2-16.6c-3.2-2.1-7.5-2.7-10.1-5.7c-2.1-2.3-5.5-1.8-7.5-4c-1.7-1.8-3.5-2.9-6-3.1
	c-1.7-0.1-3.3-0.8-4.6-1.9c-0.9-0.8-2-1.1-3.2-1.1c-5,0-8.8,2.6-12.3,5.7c-2.6,2.2-4.7,5.4-8.7,5.1c0-1.1,0.7-1.9,1.2-2.9
	c1.7-3.7,5.6-5.9,7-9.8c1.8,0.1,3.1-0.8,4-2.2c3.2-4.9,7.7-8.4,12.1-11.9c1.2-0.9,2.5-1.7,2.1-3.6c2,0.7,4,1.4,6.1,2.2
	c0.4,0.3,0.9,0.6,1.3,0.8c-0.4,2.6,2.1,1.5,3.1,2.3c4.3,3.8,10.1,4.8,15,7.8c4.3,2.6,9.4,3.4,13.5,6.7c3.3,2.7,7.3,4.6,11.1,6.7
	c3.9,2.1,7.8,4.3,11.8,6.1c6.4,2.8,12.7,5.9,19.4,7.9c7.9,2.4,16.3,3,24.4,4.2c2.9,0.4,7.2-1,8.2,3.9c0.5,2.3,1.2,4.6,1.7,7
	c0.2,1,0.2,2.1-0.4,3.1c-2.9,5.3-2.8,6.2,1.1,10.3c0.4,0.4,0.5,0.9,0.6,1.4c1.3,9.1,0.7,18.2-0.3,27.3c-0.6,5.5-1.2,10.9-2.3,16.3
	c-0.8,3.9-1.1,8.2-4.5,11c-0.4,0-1.1-0.2-0.9-0.6c1.1-3.4-1.4-4.2-3.5-5.7c-2.9-2.1-6.1-3.8-9.1-5.8c-3.6-2.5-7.7-5-11.9-5.8
	c-4.1-0.8-8.7-0.4-12.8,1.1c-4.9,1.7-9.9,3-14.8,4.6c-4.1,1.3-8.6,2.1-12.9,2.9c-8.4,1.6-16.4,2.8-24.9-0.3
	c-6.2-2.3-12.7-3.9-18.3-7.7c-4.8-3.2-8-8.4-13.2-11.2c-1.8-1-3.3-2-5.5-1.9c-12,0.4-23.7,2.6-35,6.4c-5.9,2-11.6,4.5-17.1,7.3
	c-5.8,2.9-12,4.7-18.2,6c-7.1,1.5-13.6-0.6-17.8-7c-1.8-2.8-2.9-2.1-4.3,0.1c-1.6,2.4-3.7,4.3-5.6,6.5c-2.9-1.1-5.9-2.1-5.8-6.1
	c0.5-0.9,0.3-1.4-0.7-1.6c-0.4-3.6-0.2-7.2,0-10.9C415.8,232.6,415.3,230.7,414.3,228.7z"/>
<path class="st7" d="M420.4,253c1.9-2.1,4.1-4,5.6-6.5c1.4-2.2,2.5-2.9,4.3-0.1c4.2,6.4,10.7,8.5,17.8,7c6.2-1.3,12.4-3.1,18.2-6
	c5.6-2.8,11.2-5.3,17.1-7.3c11.3-3.9,23-6,35-6.4c2.2-0.1,3.8,0.9,5.5,1.9c5.2,2.8,8.3,8,13.2,11.2c5.6,3.8,12,5.4,18.3,7.7
	c8.5,3.1,16.5,1.9,24.9,0.3c4.3-0.8,8.8-1.6,12.9-2.9c4.9-1.6,9.9-2.9,14.8-4.6c4.1-1.4,8.8-1.8,12.8-1.1c4.2,0.8,8.3,3.3,11.9,5.8
	c3,2.1,6.1,3.8,9.1,5.8c2.1,1.5,4.6,2.4,3.5,5.7c-0.1,0.4,0.5,0.6,0.9,0.6c-0.4,0.9-0.7,1.8-1.1,2.8c-1.2,0.1-1.8,1-2.4,1.9
	c-1.9,0-3.8,0.1-5.7,0.1c-0.5,0-1.1-0.1-1.6-0.1c-0.1-0.8-0.7-0.9-1.4-1.1c-8.6-1.6-17.3-1.4-26-1.2c-2,0-3.9,0.7-5.3,2.3
	c-0.3,0.1-0.6,0.1-1,0.2c-0.6,0-1.3-0.1-1.9-0.1c-2-1-3.6-0.1-5.1,1.2c-0.2,0-0.4,0-0.7,0.1c-1.8-0.8-3.2-0.1-4.5,1.2
	c-0.2,0-0.4,0-0.6,0c-2.4-0.9-4.3-0.2-5.8,1.9c-0.2,0-0.4,0-0.7,0c-3-0.8-5.8-0.9-8,1.8c-0.3,0.1-0.7,0.1-1,0.2c-1.5,0-3,0-4.5,0
	c-1.1-0.9-2.5-0.7-3.7-0.5c-5.7,0.8-11.3,0.9-17,0c-1.2-0.2-2.5-0.4-3.6,0.5c-1,0-2.1,0-3.1,0.1c-0.3-0.1-0.6-0.2-1-0.2
	c-0.1-0.8-0.6-1.4-1.4-1.6c-5.4-1.3-10.9-3.1-15.7,1.5c-0.6,0-1.1,0-1.7,0c-6.3-2.7-13.2-3.2-19.8-4.7c-2-0.4-2.1,1.5-1.8,3.1
	c0,1-0.8,1.4-1.3,2.1c-0.3,0.3-0.6,0.6-0.9,0.9c-0.7,0.3-1.4,0.7-2.1,1c-2.3-0.3-4.5-0.6-6.8,0.3c-0.5,0-0.9-0.1-1.4-0.1
	c-0.4-0.8-0.9-1.2-1.8-1c-1.1-0.5-2.2-1-3.3-1.6c-0.7-1.9-2.3-2.8-4.1-3.4c-1.8-0.7-2.5-3-4.8-3c-0.6-1.1-1.4-1.2-2.1-0.2
	c-0.9,1.3-1.2,2.8,0.2,4.1c-0.1,0.2-0.1,0.4-0.2,0.6c-1.1,0.9-2.6,1.5-2.6,3.3c-1.1,1.2-2.6,1.3-4,1.5c-0.8-1.2-1.7-1.2-2.5,0
	c-0.5-0.1-0.9-0.1-1.4-0.2c-0.2-0.4-0.4-0.5-0.8-0.2c-0.2-0.1-0.5-0.2-0.7-0.3c0-1.9-1.1-2.1-2.6-1.7c-0.2-0.1-0.4-0.2-0.5-0.3
	c0.1-1.9-0.4-3.2-2.6-3c-1.1-1.7-2.3-3.4-2.6-5.5c0.6-0.2,0.8-0.5,0.5-1.1c-0.3-0.5-0.7-0.6-1.2-0.2c-0.1-0.1-0.2-0.2-0.2-0.3
	c0.8-1.2,0-2.4-0.4-3.5c-0.3-1.1-1.3-2-2.4-0.4c-1.4,0.9-2,2.4-2.8,3.8c-4.6,7.2-10.2,13.3-17.4,18.1c-6.2,4.1-11.7,9.3-18.1,13.2
	c-0.5,0.3-1.1,0.5-1.7,0.8c-0.7,0.4-1.3,0.9-1.9,0c-0.8-1.1-0.2-1.7,0.8-2.2c1.2,0.5,2.3,0.4,3.3-0.5c3.7-3.2,7.9-5.5,11.5-8.7
	c3.6-3.1,7.7-5.6,11.4-8.5c5.9-4.6,9.2-11.3,13.5-17.1c1.7-2.4,0.7-3-1.6-3c-4.3,0-7.9-1.7-10.7-4.8c-1.5-1.6-3.1-2.4-5.3-2.5
	c-0.4-0.8,0.4-2.2-0.7-2.5c-1.2-0.3-1.5,1.2-2.1,1.9c-1.8,1.9-2.7,5-6,4.9C420.4,254,420.4,253.5,420.4,253z"/>
<path class="st8" d="M481.7,165.8c1-2.5,3.3-4.3,4-6.9c0.4-0.6,0.9-1.2,1.3-1.8c7.1-9.2,13.9-18.7,19.7-28.8
	c0.2-0.2,0.4-0.5,0.6-0.7c0.7-0.5,0.5-1.3,0.6-2c3.9-3.1,6.2-7.5,8.9-11.4c5.8-8.3,11.5-16.5,17.2-24.9c3.4-5,6.8-10,10.2-14.9
	c3.8-5.5,7-11.4,11.8-16.1c1.7-1.6,4.2-1.2,6.1-0.5c6.4,2.5,12,6.2,15.5,12.4c0.7,1.2,0.9,1.9,0.1,3.1c-6.6,10.7-14,20.9-21.2,31.1
	c-5.2,7.4-10.2,15.1-15.2,22.7c-1.5,2.3-3.6,4.1-4.9,6.6c-1,1.9-0.6,2.6,0.9,3.8c1.8,1.4,4.7,1.4,5.7,3.9c-2-0.7-4.1-1.4-6.1-2.2
	c-3.7-2.7-3.5-2.6-1.4-6.3c2.1-3.9,5.5-6.9,7.3-11c0.1-0.2,0.3-0.4,0.4-0.5c2-2.7,4-5.4,5.9-8.1c3.4-4.9,6.7-9.7,9.9-14.7
	c3.1-4.6,6.8-8.8,9.3-13.9c0.9-1.4,1.8-2.8,2.7-4.2c0.7-0.8,1.3-1.6,2-2.4c1.8-3.2,4.7-6.2,1.5-10c-2.5-3-6.1-4.9-9.1-7.2
	c-1.5-1.2-3.1-0.6-4.6,1.2c-5.8,7.3-10.8,15.2-16.2,22.8c-6.5,9.1-12.7,18.4-19.2,27.6c-5.4,7.7-10.6,15.6-16,23.3
	c-5.8,8.2-11.7,16.3-17.2,24.7c-4.3,6.6-9.4,12.8-13.7,19.4c-2.2,3.3-5.3,6.1-6.6,10c-2.1,2.3-4.5,4.3-7.8,6
	c0.7-3.7,2.6-6.2,4.4-8.5c4.8-6.2,8.5-13.1,13.2-19.3C482.4,167.3,482.4,166.5,481.7,165.8z"/>
<path class="st9" d="M429.2,250.2c2.1,0.1,3.8,0.9,5.3,2.5c2.9,3.1,6.5,4.7,10.7,4.8c2.3,0,3.3,0.7,1.6,3
	c-4.3,5.9-7.6,12.5-13.5,17.1c-3.7,2.9-7.8,5.4-11.4,8.5c-3.7,3.2-7.9,5.6-11.5,8.7c-1,0.8-2.1,1-3.3,0.5c0.1-1.3,0.3-2.5,0.4-3.8
	c1.4-0.2,1.3-0.8,0.5-1.6c0.3-1.4,0.6-2.7,0.9-4.1c1-0.3,1.3-0.8,0.5-1.7c0.2-0.9,0.5-1.9,0.7-2.8c2.3-2.7,3.3-5.8,3.1-9.4
	c1.5-2.9,0.5-6.6,3.2-9.1c1.6,2.4,2.4,2.4,4.2-0.2C423.4,258.5,427.1,254.8,429.2,250.2z"/>
<path class="st10" d="M645.5,267.1c0.4-0.9,0.7-1.8,1.1-2.8c3.4-2.9,3.7-7.2,4.5-11.1c1.1-5.4,1.7-10.8,2.3-16.3
	c1-9.1,1.6-18.2,0.3-27.3c-0.1-0.5-0.2-1-0.6-1.4c-3.8-4.1-4-5-1.1-10.3c0.6-1,0.6-2.1,0.4-3.1c-0.4-2.3-1.2-4.6-1.7-7
	c-1-4.9-5.3-3.5-8.2-3.9c-8.2-1.2-16.5-1.9-24.4-4.2c-6.7-2-13-5.1-19.4-7.9c-4-1.8-7.9-3.9-11.8-6.1c-3.8-2.1-7.7-4-11.1-6.7
	c-4.1-3.3-9.2-4.1-13.5-6.7c-4.8-3-10.6-3.9-15-7.8c-1-0.9-3.4,0.2-3.1-2.3c4.1,0.5,7.3,3.1,11,4.7c7.6,3.3,15.5,6,22.5,10.6
	c7.6,5,15.4,9.3,23.7,13.1c5.3,2.5,10.9,4.1,16.3,6.3c9.5,3.9,19.4,4.9,29.6,5c2,0,3,0.8,3.8,2.6c3.2,7.4,4.9,15.2,5.5,23.1
	c0.7,8.6,1,17.3-0.5,25.8c-0.4,2.3-0.4,4.7-0.7,7c-1.2,7.8-2.6,15.6-5.8,22.9c-2.8,6.2-5.1,7.3-11,6.6c-0.5-0.1-1.1-0.1-1-0.8
	c1.9,0,3.8-0.1,5.7-0.1C644.6,269.2,645.4,268.6,645.5,267.1z"/>
<path class="st10" d="M508,125.5c-0.1,0.7,0.1,1.5-0.6,2c-4.5-1.7-9.1-0.3-13.5,0.2c-6,0.7-11.5,3.3-16.9,5.9
	c-6.6,3.1-12.4,7.4-19,10.3c-5.1,2.2-10.1,4.6-14.8,7.4c-5,3-10.1,5.9-14.9,9.4c-0.5,0.4-1,0.7-1.7,0.6c0.6-1.6,1.6-3,3.1-3.8
	c9.3-5.3,18.3-11,28.1-15.5c5.7-2.6,10.9-6.1,16.4-9c3.3-1.7,6.7-3,10.2-4.3c5.9-2.3,11.9-4.5,18.4-4.2
	C504.6,124.6,506.3,124.8,508,125.5z"/>
<path class="st8" d="M405.2,307.8c-3.1,2.7-2.7,5.5-1.7,8.5c0.4,1.1,1.4,2.7-0.5,3.2c-1.7,0.4-2-1.3-2.3-2.5
	c-0.8-3.1-1.6-6.1-2.3-9.2c-0.2-0.8-0.4-1.8,0.7-2.2c0.8-0.3,1.5,0.1,1.8,0.9c0.5,1.4,1,0.6,1.4,0c1.1-1.5,2.3-2.5,4.3-1.6
	c1.1,0.5,1.5-0.4,2.1-0.9c2.7-1.8,4.6-1.4,5.9,1.5c1.2,2.6,2.2,5.3,3.3,7.9c0.4,1,0.8,2.2-0.6,2.7c-1.4,0.5-1.8-0.8-2.2-1.8
	c-0.9-2-1.6-4.2-2.5-6.2c-0.4-0.8-0.7-2.5-2.1-1.7c-1.1,0.6-2.4,1.6-1.7,3.3c0.7,1.7,1.3,3.4,1.9,5.1c0.4,1.3,1.4,2.9-0.4,3.6
	c-1.7,0.6-1.8-1.4-2.2-2.5C407.1,313.4,406.3,310.8,405.2,307.8z"/>
<path class="st8" d="M438,299c-3.3,2.6-2.5,5.7-1.6,8.7c0.3,1.1,1.1,2.4-0.6,2.9c-1.3,0.4-1.8-0.8-2.1-1.9c-0.9-3.2-1.7-6.4-2.5-9.6
	c-0.2-0.8-0.4-1.8,0.5-2.3c1-0.6,1.6,0,2,0.8c0.3,0.5,0.7,1.1,1.1,0.3c2-3.6,6.5-1,9-3.7c0.9-0.9,2.7,0.4,3.3,1.7
	c1.3,2.9,2.6,5.8,3.7,8.8c0.3,0.8,0.6,2-0.6,2.5c-1.2,0.5-1.7-0.5-2.1-1.4c-0.8-2-1.5-4-2.4-5.9c-0.5-1-0.7-3-2.3-2.4
	c-1.7,0.6-2.5,2.1-1.5,4.2c0.8,1.7,1.4,3.6,2,5.4c0.4,1.1,0.6,2.2-0.8,2.6c-1.2,0.4-1.6-0.7-1.9-1.7
	C440.2,305.1,439.1,302.1,438,299z"/>
<path class="st8" d="M418.3,306.5c-0.1-4.2,2.5-6.9,6.4-6.9c1.5,0,2.8,0.2,3.6,1.6c0.8,1.6,0.2,2.9-1,4c-1.3,1.2-2.7,2.4-4,3.6
	c-1.1,1-0.7,1.7,0.6,1.8c2.1,0.3,3.8-0.5,5.1-2c0.6-0.7,1.1-1.9,2.2-0.9c1,0.9,0.4,2-0.3,2.9c-1.7,2.2-6,3.4-8.7,2.4
	C419.1,312,418.7,309.2,418.3,306.5z M420.8,307.4c2.1-1.9,3.9-3,5-5C422.5,302,421.2,303.6,420.8,307.4z"/>
<path class="st8" d="M466.5,292.7c1.9,0,3.1-0.1,4.3,0c2.4,0.3,3.9,1.8,4.2,4.1c0.3,2.2-1.2,3.5-3.1,4.3c-1.8,0.7-3.7,1-5.6,0.5
	c-1-0.2-1.5-0.8-1.3-1.8c0.2-1.1,0.9-1.3,1.9-1c0.5,0.2,1.1,0.3,1.6,0.2c1.3-0.3,3.3-0.3,3.3-1.8c0.1-1.9-1.9-1.5-3.2-1.6
	c-1.9-0.2-4,0.1-4.6-2.4c-0.6-2.4,0.8-3.8,2.5-5c0.9-0.6,1.8-1.2,2.7-1.7c2.2-1.3,3.9-0.3,4,2.3c0,1.2-0.4,1.8-1.7,1.6
	C468.9,289.9,468.9,289.9,466.5,292.7z"/>
<path class="st10" d="M499.5,275.7c0.5-0.7,1.3-1.2,1.3-2.1c0.8-1.8,2.2-2.5,4.1-1.7c3.6,1.6,7.3,2.6,11.1,3.5
	c-4.1,1.1-7.6-0.9-11.2-2.1c-1.4-0.5-1.8-0.7-2.5,0.8c-2.6,5.2-8.9,8.4-14.4,5c-3.7-2.3-8-3.6-11.1-7c-1.1-1.2-2.5-1.1-3.1,0.9
	c-0.3,0.9-0.4,1.9-1.5,2.3c0-0.6,0-1.2,0-1.8c0.1-0.2,0.1-0.4,0.2-0.6c1-1.1-0.2-3.3,1.9-3.9c2.2,0,3,2.3,4.8,3
	c0.9,1.7,1.9,3.4,4.1,3.4c1.1,0.5,2.2,1,3.3,1.6c0.3,0.9,1,1.1,1.8,1c0.5,0,0.9,0.1,1.4,0.1c2.3,1.8,4.6,1.6,6.8-0.3
	c0.7-0.3,1.4-0.7,2.1-1C499.2,276.6,499.4,276.3,499.5,275.7z"/>
<path class="st8" d="M462.4,298.9c0,3.8-2.1,6.1-5.5,6c-3.3,0-5.9-3.2-6-7.4c-0.1-3.5,2.8-6.8,5.9-6.7
	C459.9,290.9,462.5,294.5,462.4,298.9z M459.8,298.3c-0.6-1.6-0.4-4.2-3.1-4.2c-2.2,0-2.8,2-2.7,4c0.1,2.1,0.9,4,3.2,4
	C459.1,302,459.9,300.4,459.8,298.3z"/>
<path class="st8" d="M429.2,250.2c-2.1,4.7-5.8,8.3-8.7,12.5c-1.4-0.7-1.7-1.7-1-3.1c0.5-1,0.7-2-1-2.2c0.6-1,1.2-1.9,1.8-2.9
	c3.4,0,4.3-3,6-4.9c0.7-0.7,0.9-2.2,2.1-1.9C429.6,247.9,428.8,249.3,429.2,250.2z"/>
<path class="st8" d="M603.2,268.9c1.4-1.6,3.3-2.2,5.3-2.3c8.7-0.2,17.4-0.3,26,1.2c0.7,0.1,1.2,0.3,1.4,1.1c-2.4,0-4.9,0.1-7.3,0.1
	c-7.5-1.2-15-1.8-22.5,0C605.1,269,604.1,268.9,603.2,268.9z"/>
<path class="st8" d="M516,275.4c-3.8-0.9-7.5-1.9-11.1-3.5c-1.8-0.8-3.2-0.1-4.1,1.7c-0.4-1.6-0.3-3.5,1.8-3
	c6.6,1.5,13.5,2,19.8,4.7c-0.5,0.1-1.1,0.3-1.6,0.4C519.1,275.6,517.6,275.5,516,275.4z"/>
<path class="st10" d="M606,269c7.5-1.8,15-1.2,22.5,0C621,269.5,613.5,269.4,606,269z"/>
<path class="st10" d="M419.9,181c0.5,2.5,0.4,5-0.1,7.5c-0.6,3.1-1.1,6.2-0.9,9.4c0.1,2.1-0.3,4-2.3,5.2c-0.6-1.6,0.1-3.1,0.3-4.7
	c0.7-5.1,1.3-10.2,1.9-15.3C418.9,182.3,418.9,181.4,419.9,181z"/>
<path class="st8" d="M545.3,275.5c1.1-0.9,2.4-0.7,3.6-0.5c5.7,0.9,11.3,0.9,17,0c1.2-0.2,2.5-0.4,3.6,0.5c-1.4,1.5-3.7,0-5.1,1.3
	c-5.1,0-10.2,0-15.2,0C548.1,275.6,546.3,276.8,545.3,275.5z"/>
<path class="st10" d="M589.4,271.6c0.2,0,0.4,0,0.6,0c1.7,0.3,3.2,0,4.5-1.2c0.2,0,0.4,0,0.7-0.1c0.3,0.1,0.6,0.2,0.9,0.3
	c-1.5,2.3-4.4,1.8-6.5,2.6c-4.1,1.5-8.5,3.4-13.1,2.3c2-1.1,4.7-0.1,6.5-2c0.2,0,0.4,0,0.7,0C585.8,273.4,587.7,272.7,589.4,271.6z"
	/>
<path class="st8" d="M524.1,275.3c4.8-4.7,10.3-2.8,15.7-1.5c0.8,0.2,1.3,0.8,1.4,1.6c-1,0-1.9,0.1-2.9,0.1c-3.5-1.2-6.9-4.2-10.4,0
	c-0.6,0.1-1.1,0.1-1.6,0.2C525.5,275.5,524.8,275.4,524.1,275.3z"/>
<path class="st7" d="M418.6,257.4c1.7,0.1,1.5,1.1,1,2.2c-0.7,1.4-0.4,2.4,1,3.1c-1.7,2.6-2.6,2.6-4.2,0.2
	C415.5,260.4,417.1,258.9,418.6,257.4z"/>
<path class="st10" d="M527.9,275.5c3.4-4.3,6.9-1.2,10.4,0c-0.5,0.1-1.1,0.4-1.5,0.3C533.9,274.4,530.9,274.3,527.9,275.5z"/>
<path class="st10" d="M426.5,161.4c-2,3.7-4.1,7.3-6.1,11C420.8,167.9,421.9,163.7,426.5,161.4z"/>
<path class="st10" d="M564.4,276.8c1.5-1.3,3.7,0.2,5.1-1.3c1.5,0,3,0,4.5,0C571.1,278.1,567.7,276.9,564.4,276.8z"/>
<path class="st8" d="M583,273.5c-1.8,1.9-4.5,0.9-6.5,2c-0.5-0.1-1-0.1-1.5-0.2C577.2,272.6,580,272.6,583,273.5z"/>
<path class="st8" d="M413.2,271.9c0.3,3.5-0.8,6.7-3.1,9.4C409.9,277.8,411,274.7,413.2,271.9z"/>
<path class="st10" d="M545.3,275.5c1,1.3,2.8,0.1,3.9,1.3c-2.4,0.1-5.1,1.3-7-1.2C543.2,275.5,544.2,275.5,545.3,275.5z"/>
<path class="st10" d="M416.2,207.6c1.4,2.6,0.6,4.9-1,7.1C414.8,212.2,415.4,209.8,416.2,207.6z"/>
<path class="st10" d="M524.1,275.3c0.7,0.1,1.5,0.2,2.2,0.4c-1.9,1.2-3.7,1.1-5.6,0c0.5-0.1,1.1-0.3,1.6-0.4
	C522.9,275.3,523.5,275.3,524.1,275.3z"/>
<path class="st10" d="M414.3,228.7c1,2,1.5,4-0.4,5.8C413.7,232.5,413.3,230.6,414.3,228.7z"/>
<path class="st8" d="M448.2,261.6c1.1-1.6,2-0.7,2.4,0.4c0.3,1.1,1.1,2.3,0.4,3.5C450,264.2,449.1,262.9,448.2,261.6z"/>
<path class="st10" d="M600.3,269c0.6,0,1.3,0.1,1.9,0.1c-0.9,1.8-2.4,1.6-4,1.3C598.9,269.9,599.6,269.5,600.3,269z"/>
<path class="st8" d="M600.3,269c-0.7,0.4-1.4,0.9-2.1,1.3c-0.7,0.1-1.4,0.1-2.1,0.2c-0.3-0.1-0.6-0.2-0.9-0.3
	C596.6,268.9,598.3,268,600.3,269z"/>
<path class="st10" d="M414.9,219.7c1.1,1.5,1.2,3.1-0.2,4.5C414.1,222.7,414.1,221.2,414.9,219.7z"/>
<path class="st10" d="M420.1,175.6c1,1.6,1.2,3.1-0.2,4.5C419.2,178.5,419.2,177,420.1,175.6z"/>
<path class="st8" d="M454.4,272.5c2.2-0.1,2.8,1.1,2.6,3C455.2,275.4,454.5,274.2,454.4,272.5z"/>
<path class="st8" d="M472.2,273.5c0,0.6,0,1.2,0,1.8c-0.8,0.6-1.2,1.8-2.6,1.5C469.6,275,471.1,274.4,472.2,273.5z"/>
<path class="st8" d="M457.6,275.9c1.5-0.4,2.6-0.2,2.6,1.7C459.1,277.4,458.1,277,457.6,275.9z"/>
<path class="st8" d="M463,278.3c0.9-1.1,1.7-1.2,2.5,0C464.7,279.2,463.9,279.1,463,278.3z"/>
<path class="st8" d="M451.1,265.8c0.5-0.4,0.9-0.3,1.2,0.2c0.3,0.5,0.1,0.9-0.5,1.1C451.2,266.9,451.1,266.4,451.1,265.8z"/>
<path class="st10" d="M413.9,245.3c1,0.2,1.2,0.7,0.7,1.6C413.9,246.6,413.6,246.1,413.9,245.3z"/>
<path class="st8" d="M408,289.9c0.8,0.8,0.8,1.4-0.5,1.6C407,290.8,407,290.2,408,289.9z"/>
<path class="st8" d="M409.3,284.1c0.8,0.8,0.5,1.4-0.5,1.7C408.4,285.1,408.3,284.4,409.3,284.1z"/>
<path class="st8" d="M460.9,277.9c0.4-0.3,0.6-0.2,0.8,0.2C461.4,278,461.1,277.9,460.9,277.9z"/>
<path class="st10" d="M510.7,169.7c4.1,0.2,6.1-2.9,8.7-5.1c3.6-3,7.3-5.7,12.3-5.7c1.2,0,2.3,0.3,3.2,1.1c1.3,1.1,3,1.8,4.6,1.9
	c2.5,0.2,4.4,1.3,6,3.1c2,2.2,5.4,1.7,7.5,4c2.7,3,6.9,3.6,10.1,5.7c6.7,4.4,13.2,9.1,17.2,16.6c3.5,6.5,6,13,4.2,20.6
	c-0.8,3.5-2.1,4.8-6,5.2c-1.5,0.2-3.1,0.3-4.1,1.5c-1.7,2.2-4.1,2.1-6.5,2.5c-8.6,1.5-17.2-0.1-25.7-0.9c-6.7-0.7-13.6-0.8-20.3-2.7
	c-5.2-1.5-10.5,0.3-15.8,1c-6,0.8-11.7,2.2-17.4,4.3c-5.1,1.8-9.8,4.6-15,5.8c-7.1,1.7-12.3,7.2-19.2,9.3c-4.9,1.5-9.9,2.9-14.9,4.2
	c-2,0.5-3.3-0.4-4.3-2.4c-1.2-2.4-2.5-4.6-2.7-7.6c-0.2-4.1,2.3-6.1,4.8-8.4c4.1-3.7,9.2-6.1,13.8-9c2.3-1.5,3.7-3.8,5.5-5.6
	c4.7-4.8,10.8-7.8,15.1-13.1c0.5-0.7,0.6-1.3,0.6-2c0.1-0.1,0.3-0.1,0.4-0.1c1,0.3,1.5-0.1,1.5-1.2c0.3-0.1,0.7-0.1,1-0.2
	c1,0.3,1.5,0,1.6-1.1c0.3-0.1,0.6-0.1,0.9-0.2c2,0.4,3.2-1.5,5-1.6c1.4-0.1,1.9-0.8,1.7-2.1c1.5-0.5,2.7-1.9,4.5-1.7
	c1,0.8,1.9,0.5,2.9-0.1c3.2-2,6.4-4,9.6-5.9c1.8-1.1,3.7-2,4.1-4.4l0,0c1.4,0.3,2.1-0.3,2.1-1.7c0.1-0.1,0.3-0.2,0.4-0.2
	c2.3-0.3,2.7-1.8,2.3-3.7L510.7,169.7z"/>
<path class="st9" d="M510.7,169.7c0,0,0,0.1,0,0.1c-0.3,0.2-0.7,0.3-1,0.5c-1.1,0-1.7,0.9-2.3,1.5c-3,3-6.7,5.3-10.3,7.3
	c-8,4.4-16.1,8.6-25.1,10.7c1.3-3.9,4.4-6.7,6.6-10c4.3-6.6,9.4-12.8,13.7-19.4c5.5-8.4,11.4-16.5,17.2-24.7
	c5.4-7.7,10.6-15.6,16-23.3c6.4-9.2,12.7-18.5,19.2-27.6c5.4-7.6,10.5-15.4,16.2-22.8c1.4-1.8,3.1-2.4,4.6-1.2
	c3.1,2.4,6.6,4.2,9.1,7.2c3.2,3.8,0.3,6.9-1.5,10c-1.8-0.1-2.3,0.8-2,2.4c-0.9,1.4-1.8,2.8-2.7,4.2c-0.4,0.3-0.9,0.5-1.2,0.9
	c-6.3,9-12.9,18-18.8,27.3c-1.8,2.7-5.2,4.6-5.1,8.5c-0.1,0.2-0.3,0.4-0.4,0.5c-3.6,1.7-4.5,5.5-6.6,8.3c-1.4,1.9-3.4,3.6-3.8,6.1
	c-0.3,2.2-1.3,3.9-2.6,5.6c-3.7,4.9-7.3,10-11,15c-1.4,3.9-5.2,6.1-7,9.8C511.4,167.8,510.6,168.6,510.7,169.7z"/>
<path class="st10" d="M506.8,128.3c-5.8,10.1-12.6,19.6-19.7,28.8c-0.4,0.6-0.9,1.2-1.3,1.8c-4.1-1.3-8-1.4-11.2,2.2
	c-1.3,1.5-3.5,2.2-5.2,2c-2.1-0.2-2.9,0.2-3.4,2.1c-0.7,2.7-3.5,2.3-5.4,3.4c-6.3,3.8-12.6,7.5-15.9,14.5c-1.2,2.6-1.8,5.6-1.8,8.8
	c0.1,3.9-0.6,8.2-2.2,11.8c-1.5,3.2-1.1,6.4-2,9.5c-0.3,1.1-0.4,2-1.4,2.6c-5.2,3.6-7.4,9.7-11.5,14.3c-1.4,1.6-1.3,4.4-2.1,6.5
	c-0.3,0.9-0.6,2.3-2,2.1c-1.2-0.2-1-1.4-1.1-2.4c-0.9-4.7-0.8-9.5-0.1-14.3c0.5-3.8,0.1-7.6,0.7-11.4c1.2-7.4,2-14.8,3-22.2
	c0.9-7.2,1.9-14.3,2.9-21.5c0.1-0.7-0.2-1.7,0.5-2.1c3.5-2,5.1-6.4,9.4-7.4c0.9-0.2,1.6-1,2.4-1.5c8.9-5.1,17.6-10.5,27.3-14
	c4-1.4,7.5-3.7,11.2-5.6c0.7-0.3,1.4-1,2-0.8c4.4,0.9,7.2-2.9,10.9-4C496.1,130,501.4,129,506.8,128.3z"/>
<path class="st7" d="M471.9,189.9c9-2.1,17.1-6.3,25.1-10.7c3.6-2,7.3-4.3,10.3-7.3c0.7-0.7,1.2-1.5,2.3-1.5c0.5,1.4-1.2,2-1.3,3.2
	c-0.2,0-0.3,0.1-0.4,0.2c-1.2,0-1.9,0.6-2.1,1.7c0,0,0,0,0,0c-5.5,3.5-11.1,7-16.6,10.5c-1.8-0.2-3,1.2-4.5,1.7
	c-2.5,0.7-5.5,0.6-6.7,3.7c-0.3,0.1-0.6,0.1-0.9,0.2c-0.8-0.1-1.3,0.3-1.6,1.1c-0.3,0.1-0.7,0.1-1,0.2c-0.8,0-1.3,0.4-1.5,1.2
	c-0.1,0-0.3,0-0.4,0.1c-7.2,4.5-14.2,9.2-19.8,15.7c-0.3,0.4-0.6,1-1,1.2c-1,0.6-2.2,1.3-3.3,0.8c-1.4-0.6-0.1-1.9-0.1-2.8
	c-0.1-3.1,2.4-5.3,3.2-8.1c1-3.8,2-7.7,3.2-11.4c1.4-4.2,3.3-8.1,8-9.5c2.9-0.9,4.6-3.2,6.6-5.2c0.8-0.8,1.4-1.8,2.9-1.3
	c2.4,0.9,4-0.6,5.3-2.4c1.2-1.8,2.4-3.7,4.1-5.2c0.7,0.7,0.6,1.5,0,2.3c-4.7,6.2-8.4,13.2-13.2,19.3c-1.8,2.3-3.7,4.8-4.4,8.5
	C467.4,194.2,469.8,192.2,471.9,189.9z M463.4,197.5c-0.1-0.2-0.1-0.5-0.2-0.5c-0.1-0.1-0.5,0.1-0.5,0.2c-0.1,0.1,0.1,0.5,0.2,0.5
	C463,197.7,463.3,197.6,463.4,197.5z"/>
<path class="st7" d="M518.8,157.1c3.7-5,7.3-10,11-15c1.3-1.7,2.3-3.4,2.6-5.6c0.4-2.5,2.4-4.2,3.8-6.1c2.1-2.8,3-6.6,6.6-8.3
	c-1.8,4.1-5.2,7.1-7.3,11c-2,3.7-2.2,3.6,1.4,6.3c0.5,1.9-0.9,2.6-2.1,3.6c-4.5,3.5-9,7-12.1,11.9
	C521.9,156.2,520.6,157.2,518.8,157.1z"/>
<path class="st8" d="M496.5,277.7c-2.2,1.9-4.4,2.1-6.8,0.3C492,277.1,494.2,277.4,496.5,277.7z"/>
<path class="st8" d="M589.4,271.6c-1.7,1.2-3.7,1.8-5.8,1.9C585.1,271.4,587,270.7,589.4,271.6z"/>
<path class="st8" d="M474.2,269c-2.2,0.5-1,2.8-1.9,3.9c-1.4-1.3-1.1-2.7-0.2-4.1C472.8,267.8,473.6,267.9,474.2,269z"/>
<path class="st8" d="M483.2,275.4c-2.3,0-3.3-1.6-4.1-3.4C480.9,272.6,482.5,273.4,483.2,275.4z"/>
<path class="st8" d="M594.5,270.3c-1.3,1.3-2.8,1.5-4.5,1.2C591.3,270.2,592.7,269.5,594.5,270.3z"/>
<path class="st8" d="M645.5,267.1c-0.1,1.5-0.9,2.1-2.4,1.9C643.7,268.1,644.4,267.2,645.5,267.1z"/>
<path class="st8" d="M488.3,277.9c-0.9,0.2-1.5-0.1-1.8-1C487.4,276.7,487.9,277.2,488.3,277.9z"/>
<path class="st8" d="M499.5,275.7c0,0.5-0.3,0.9-0.9,0.9C498.9,276.4,499.2,276.1,499.5,275.7z"/>
<path class="st7" d="M543.2,121.5c-0.1-3.9,3.3-5.7,5.1-8.5c6-9.3,12.5-18.2,18.8-27.3c0.3-0.4,0.8-0.6,1.2-0.9
	c-2.5,5-6.2,9.2-9.3,13.9c-3.2,4.9-6.6,9.8-9.9,14.7C547.3,116.2,545.2,118.8,543.2,121.5z"/>
<path class="st7" d="M571.1,80.7c-0.3-1.6,0.2-2.5,2-2.4C572.4,79.1,571.7,79.9,571.1,80.7z"/>
<path class="st11" d="M420.8,307.4c0.4-3.8,1.7-5.4,5-5C424.7,304.4,422.9,305.4,420.8,307.4z"/>
<path class="st11" d="M459.8,298.3c0,2.1-0.7,3.7-2.6,3.7c-2.3,0-3.1-1.9-3.2-4c-0.1-2,0.5-4,2.7-4
	C459.4,294.1,459.2,296.8,459.8,298.3z"/>
<path class="st6" d="M489.3,186c5.5-3.5,11.1-7,16.6-10.5c-0.4,2.4-2.3,3.3-4.1,4.4c-3.2,1.9-6.4,3.9-9.6,5.9
	C491.2,186.4,490.3,186.8,489.3,186z"/>
<path class="st6" d="M478.1,191.4c1.2-3.1,4.2-3,6.7-3.7c0.2,1.3-0.3,1.9-1.7,2.1C481.3,189.9,480.1,191.8,478.1,191.4z"/>
<path class="st6" d="M508.4,173.6c0.1-1.2,1.7-1.8,1.3-3.2c0.3-0.2,0.7-0.3,1-0.5C511.1,171.8,510.6,173.3,508.4,173.6z"/>
<path class="st6" d="M505.9,175.5c0.2-1.2,0.8-1.8,2.1-1.7C508,175.2,507.3,175.8,505.9,175.5z"/>
<path class="st6" d="M473,193.9c0.2-0.7,0.7-1.2,1.5-1.2C474.5,193.8,474,194.2,473,193.9z"/>
<path class="st6" d="M475.5,192.6c0.3-0.7,0.8-1.2,1.6-1.1C477.1,192.6,476.5,192.9,475.5,192.6z"/>
<path class="st8" d="M463.4,197.5c-0.2,0.1-0.4,0.2-0.5,0.2c-0.1-0.1-0.3-0.4-0.2-0.5c0.1-0.1,0.4-0.3,0.5-0.2
	C463.3,197,463.4,197.3,463.4,197.5z"/>
</svg>
