<?xml version="1.0" encoding="utf-8"?>
<!-- Generator: Adobe Illustrator 27.0.0, SVG Export Plug-In . SVG Version: 6.00 Build 0)  -->
<svg version="1.1" id="图层_1" xmlns="http://www.w3.org/2000/svg" xmlns:xlink="http://www.w3.org/1999/xlink" x="0px" y="0px"
	 viewBox="0 0 1231.5 771.2" style="enable-background:new 0 0 1231.5 771.2;" xml:space="preserve">
<style type="text/css">
	.st0{fill:#E6E6E6;}
	.st1{fill:#FFFFFF;}
	.st2{fill:#FF6584;}
	.st3{fill:#3F3D56;}
	.st4{opacity:0.2;enable-background:new    ;}
	.st5{fill:#CCCCCC;}
	.st6{fill:#F2F2F2;}
</style>
<path class="st0" d="M737.3,311c-1.5,0-2.7,1.2-2.7,2.7V496c0,1.5,1.2,2.7,2.7,2.7h254.1c1.5,0,2.7-1.2,2.7-2.7V313.6
	c0-1.5-1.2-2.7-2.7-2.7H737.3z"/>
<path class="st1" d="M977.3,327.3v129.6c0,1.8-1.5,3.3-3.3,3.3h-220c-0.2,0-0.3,0-0.5,0c-1.6-0.2-2.8-1.6-2.8-3.2V327.3
	c0-1.8,1.5-3.3,3.3-3.3h220C975.9,324,977.3,325.5,977.3,327.3z"/>
<circle class="st2" cx="931.7" cy="371.5" r="11.8"/>
<circle class="st3" cx="742.2" cy="317.5" r="3.9"/>
<circle class="st3" cx="985.9" cy="317.5" r="3.9"/>
<circle class="st3" cx="742.2" cy="492.1" r="3.9"/>
<circle class="st3" cx="985.9" cy="492.1" r="3.9"/>
<circle cx="823.3" cy="403.7" r="14.2"/>
<polygon class="st3" points="824.6,446.4 821.7,446.4 823.1,401.6 "/>
<polygon class="st3" points="823.3,410.1 826.4,405.8 823.3,411.2 822.9,410.6 "/>
<polygon class="st3" points="823,414.5 819.9,410.1 823,415.5 823.4,414.9 "/>
<circle cx="953.4" cy="403.7" r="14.2"/>
<polygon class="st3" points="954.7,446.4 951.8,446.4 953.1,401.6 "/>
<polygon class="st3" points="953.4,410.1 956.5,405.8 953.4,411.2 953,410.6 "/>
<polygon class="st3" points="953.1,414.5 949.9,410.1 953.1,415.5 953.4,414.9 "/>
<circle cx="864.4" cy="391.4" r="20.9"/>
<polygon class="st3" points="866.4,454.4 862.1,454.4 864,388.2 "/>
<polygon class="st3" points="864.4,400.8 869,394.4 864.4,402.3 863.8,401.5 "/>
<polygon class="st3" points="863.9,407.2 859.3,400.8 864,408.8 864.5,407.9 "/>
<circle cx="915.4" cy="383.4" r="20.9"/>
<polygon class="st3" points="917.4,446.4 913.2,446.4 915.1,380.2 "/>
<polygon class="st3" points="915.5,392.8 920.1,386.4 915.4,394.3 914.9,393.5 "/>
<polygon class="st3" points="915,399.2 910.4,392.8 915,400.8 915.6,399.9 "/>
<circle cx="783" cy="383.4" r="20.9"/>
<polygon class="st3" points="785,446.4 780.7,446.4 782.6,380.2 "/>
<polygon class="st3" points="783,392.8 787.6,386.4 783,394.3 782.5,393.5 "/>
<polygon class="st3" points="782.5,399.2 777.9,392.8 782.6,400.8 783.1,399.9 "/>
<path class="st3" d="M865.5,460.1H754.1c-0.2,0-0.3,0-0.5,0c-1.6-0.2-2.8-1.6-2.8-3.2v-27.8c10.5-1.7,21.1-2.6,31.7-2.6
	c39.6,0,72.7,11.3,81,26.5C864.8,455.2,865.4,457.6,865.5,460.1z"/>
<path class="st3" d="M977.3,450.6v6.3c0,1.8-1.5,3.3-3.3,3.3H850.7c4-2.9,8.3-5.3,12.8-7.2c15.1-6.5,36.4-10.5,60-10.5
	C944.1,442.5,962.8,445.5,977.3,450.6z"/>
<path class="st0" d="M878.6,0c-0.4,0-0.9,0.1-1.2,0.3L653.1,119.6c-1.3,0.7-1.8,2.3-1.1,3.6l85.6,161c0.7,1.3,2.3,1.8,3.6,1.1
	L965.5,166c1.3-0.7,1.8-2.3,1.1-3.6L881,1.4c-0.3-0.6-0.9-1.1-1.6-1.3C879.2,0,878.9,0,878.6,0z"/>
<path class="st1" d="M872.7,21.3l60.9,114.4c0.8,1.6,0.2,3.6-1.3,4.4c0,0,0,0,0,0L738,243.4c-0.1,0.1-0.3,0.1-0.4,0.2
	c-1.5,0.5-3.2-0.1-4-1.5l-60.9-114.4c-0.8-1.6-0.2-3.6,1.3-4.4c0,0,0,0,0,0L868.3,20C869.8,19.1,871.8,19.7,872.7,21.3
	C872.7,21.3,872.7,21.3,872.7,21.3z"/>
<ellipse transform="matrix(0.1602 -0.9871 0.9871 0.1602 484.1758 852.1078)" class="st2" cx="742.9" cy="141.5" rx="28.6" ry="28.6"/>
<path class="st3" d="M863.5,177.2l-124,65.9c-0.2,0.1-0.3,0.2-0.5,0.2l4.6-132.8c0.1-2.6,2.2-4.6,4.8-4.5c0.8,0,1.7,0.3,2.4,0.7
	l75.6,47.2l3.6,2.3L863.5,177.2z"/>
<polygon class="st4" points="863.5,177.2 821.2,199.8 825.9,158.5 826.3,155.5 826.4,154.1 830.1,156.3 "/>
<path class="st3" d="M932.6,140.5l-107.2,57l4.7-41.2l0.3-3l6.2-53.7c0.4-3.5,4.6-6,7.9-4.8c0.2,0.1,0.4,0.2,0.6,0.3L932.6,140.5z"
	/>
<circle class="st3" cx="660.5" cy="123.1" r="3.9"/>
<circle class="st3" cx="875.7" cy="8.7" r="3.9"/>
<circle class="st3" cx="742.5" cy="277.2" r="3.9"/>
<circle class="st3" cx="957.6" cy="162.8" r="3.9"/>
<path class="st0" d="M933,771.2c1.4,0.4,2.9-0.5,3.2-1.9L983.1,593c0.4-1.4-0.5-2.9-1.9-3.2l-245.5-65.3c-1.4-0.4-2.9,0.5-3.2,1.9
	l-46.9,176.2c-0.4,1.4,0.5,2.9,1.9,3.2c0,0,0,0,0,0L933,771.2z"/>
<path class="st1" d="M963.4,601.9l-33.3,125.2c-0.5,1.7-2.2,2.8-4,2.3l-212.6-56.6c-0.1,0-0.3-0.1-0.4-0.2c-1.5-0.6-2.3-2.3-1.9-3.8
	l33.3-125.2c0.5-1.7,2.2-2.8,4-2.3L961.1,598C962.9,598.4,963.9,600.2,963.4,601.9z"/>
<path class="st3" d="M934.9,709.4l-4.7,17.8c-0.5,1.7-2.2,2.8-4,2.3l-212.6-56.6c-0.1,0-0.3-0.1-0.4-0.2c-1.5-0.6-2.3-2.3-1.9-3.8
	l4.7-17.8L934.9,709.4z"/>
<rect x="821.5" y="675.7" transform="matrix(0.2571 -0.9664 0.9664 0.2571 -58.1277 1310.8315)" class="st5" width="4" height="35"/>
<rect x="743.7" y="655" transform="matrix(0.2571 -0.9664 0.9664 0.2571 -95.9242 1220.2771)" class="st5" width="4" height="35"/>
<rect x="899.3" y="696.4" transform="matrix(0.2571 -0.9664 0.9664 0.2571 -20.3313 1401.386)" class="st5" width="4" height="35"/>
<circle class="st3" cx="738.8" cy="532.1" r="3.9"/>
<circle class="st3" cx="974.2" cy="594.7" r="3.9"/>
<circle class="st3" cx="693.9" cy="700.8" r="3.9"/>
<circle class="st3" cx="929.4" cy="763.4" r="3.9"/>
<rect x="890.8" y="692.6" transform="matrix(0.2576 -0.9663 0.9663 0.2576 -16.086 1383.6487)" class="st3" width="3.1" height="19.5"/>
<path d="M747.3,662.8l3.6,1.9L898.3,704l2.1-2.7c3.7-4.7,6.1-10.3,6.8-16.2c0.5-4.4,0-9.1-3.1-11.9l5-45.3L827.7,606l-38.3,17.1
	c0,0-14.8-4.2-25.6,3.7c-3.9,3-6.8,7-8.4,11.7l-1.7,5.2L747.3,662.8z"/>
<circle class="st3" cx="779.8" cy="670.7" r="18.8"/>
<circle class="st5" cx="779.8" cy="670.7" r="9.9"/>
<circle class="st3" cx="869.6" cy="694.6" r="18.8"/>
<circle class="st5" cx="869.6" cy="694.6" r="9.9"/>
<polygon class="st1" points="802.7,623.4 846.7,635.1 852.1,636.6 861.2,639 861.3,638.3 863.5,630.4 865.8,621.4 859.8,619.8 
	854.4,618.4 844.9,615.8 839.5,614.4 828.6,611.5 "/>
<polygon class="st1" points="868.3,640.9 891.6,647.1 892.8,642.5 894.9,634.6 896.3,629.5 892.9,628.6 887.5,627.2 873,623.3 "/>
<rect x="852.5" y="653" transform="matrix(0.2576 -0.9663 0.9663 0.2576 2.5807 1312.4977)" class="st3" width="5.9" height="3.1"/>
<rect x="808.5" y="629.5" transform="matrix(0.2576 -0.9663 0.9663 0.2576 -9.6918 1252.189)" class="st3" width="3.1" height="5.9"/>
<path class="st3" d="M810.8,632.4l-0.3-0.1c-3.4-0.9-5.5-4.5-4.6-7.9l0,0c0.9-3.4,4.5-5.5,7.9-4.6l0.3,0.1l0,0L810.8,632.4
	L810.8,632.4z"/>
<path class="st3" d="M753.7,643.6c5.1,2,10.9-0.6,12.9-5.7c1.5-3.9,0.4-8.4-2.8-11.1c-3.9,3-6.8,7-8.4,11.7L753.7,643.6z"/>
<polygon class="st6" points="854.4,618.4 861.3,638.3 863.5,630.4 859.8,619.8 "/>
<polygon class="st6" points="887.5,627.2 892.8,642.5 894.9,634.6 892.9,628.6 "/>
<polygon class="st6" points="839.5,614.4 846.7,635.1 852.1,636.6 844.9,615.8 "/>
<circle cx="277.5" cy="298.3" r="12"/>
<path class="st4" d="M282.6,287.4c4.9,4.4,5.3,12,0.8,16.9c-3.5,3.9-9.2,5-14,2.8c4.9,4.5,12.5,4.1,16.9-0.8
	c4.5-4.9,4.1-12.5-0.8-16.9C284.7,288.6,283.7,288,282.6,287.4z"/>
<ellipse class="st3" cx="586" cy="311.3" rx="29.5" ry="12"/>
<path class="st4" d="M586,299.3c-1,0-2,0-3,0.1c14.9,0.6,26.5,5.7,26.5,11.9s-11.6,11.3-26.5,11.9c1,0,2,0.1,3,0.1
	c16.3,0,29.5-5.4,29.5-12S602.3,299.3,586,299.3z"/>
<path class="st3" d="M624.5,311.3h-148v-16c0-1.7-1.3-3-3-3h-82c-1.7,0-3,1.3-3,3v16h-86v-10c0-1.7-1.3-3-3-3h-44c-1.7,0-3,1.3-3,3
	v10h-12c-1.7,0-3,1.3-3,3c0,0,0,0,0,0v197c0,1.7,1.3,3,3,3c0,0,0,0,0,0h384c1.7,0,3-1.3,3-3c0,0,0,0,0,0v-197
	C627.5,312.7,626.2,311.3,624.5,311.3C624.5,311.3,624.5,311.3,624.5,311.3z"/>
<path class="st4" d="M624.5,499.6h-384c-1.7,0-3-1.3-3-3c0,0,0,0,0,0v14c0,1.7,1.3,3,3,3c0,0,0,0,0,0h384c1.7,0,3-1.3,3-3
	c0,0,0,0,0,0v-14C627.5,498.3,626.2,499.6,624.5,499.6C624.5,499.6,624.5,499.6,624.5,499.6z"/>
<rect x="237.5" y="403.3" class="st4" width="390" height="38"/>
<rect x="237.5" y="384.3" class="st4" width="390" height="38"/>
<rect x="237.5" y="393.3" width="390" height="38"/>
<circle cx="432.5" cy="412.3" r="76"/>
<path class="st4" d="M491.1,363.8c21.2,36.2,9.1,82.8-27.1,104c-32.1,18.9-73.2,11.6-97-17.1c21.2,36.2,67.8,48.3,104,27.1
	s48.3-67.8,27.1-104C496,370.3,493.7,367,491.1,363.8z"/>
<circle class="st3" cx="432.5" cy="412.3" r="56.6"/>
<path class="st1" d="M476.5,412.3c0,6-1.2,11.9-3.6,17.4c-1.3,3-2.9,5.8-4.8,8.4c-14.2,19.7-41.7,24.2-61.4,10
	c-19.7-14.2-24.2-41.7-10-61.4c2.8-3.8,6.1-7.2,10-10c2.6-1.9,5.4-3.5,8.4-4.8c22.3-9.6,48.2,0.7,57.8,23.1
	C475.3,400.4,476.5,406.3,476.5,412.3L476.5,412.3z"/>
<path class="st4" d="M476.1,405.9c-1.6-11.2-7.5-21.3-16.4-28.3c7.8,12.3,9.1,27.7,3.3,41c-1.3,3-2.9,5.8-4.8,8.4
	c-14.2,19.7-41.7,24.2-61.4,10c-0.5-0.3-0.9-0.7-1.4-1c13.1,20.5,40.2,26.5,60.7,13.5c4.7-3,8.8-6.9,12-11.4
	c1.9-2.6,3.5-5.4,4.8-8.4C476.2,422.2,477.3,414,476.1,405.9L476.1,405.9z"/>
</svg>
