<?xml version="1.0" encoding="utf-8"?>
<!-- Generator: Adobe Illustrator 27.0.0, SVG Export Plug-In . SVG Version: 6.00 Build 0)  -->
<svg version="1.1" id="uuid-2c49256d-fa26-4cc8-8abe-b09b025ca2e2"
	 xmlns="http://www.w3.org/2000/svg" xmlns:xlink="http://www.w3.org/1999/xlink" x="0px" y="0px" viewBox="0 0 1366 768"
	 style="enable-background:new 0 0 1366 768;" xml:space="preserve">
<style type="text/css">
	.st0{fill:#18365D;}
	.st1{fill:#E4E6D9;}
	.st2{fill:none;stroke:#000000;stroke-width:3.35;stroke-miterlimit:10;}
	.st3{fill:none;stroke:#000000;stroke-width:0.84;stroke-miterlimit:10;}
	.st4{fill:#FF0000;}
</style>
<rect class="st0" width="1366" height="768"/>
<g>
	<rect x="255.2" y="253.9" class="st1" width="855.5" height="260.2"/>
	<rect x="269.2" y="267.9" class="st2" width="824.2" height="233.4"/>
	<rect x="286" y="279.1" class="st3" width="794.1" height="210.1"/>
	<g>
		<path d="M421.5,388.2c1,0,2.2,2.9,3.7,8.6c1.4,5.7,2.1,11.1,2.1,16.3c0,1.2-0.3,2-0.8,2.5c-0.5,0.5-1.8,0.9-3.9,1.3
			c-2,0.4-6.2,0.9-12.4,1.4c-6.3,0.5-11.5,0.8-15.6,0.8s-6.6-0.2-7.6-0.6c-1-0.4-2.7-1.7-5.1-3.9c-2.5-2.2-4.5-4.4-6.1-6.6
			c-1.6-2.2-2.9-5-3.9-8.4c-0.2-0.9-0.6-1.3-1-1.3s-1.2,0.2-2.3,0.5s-1.8,0.6-2.2,0.8s-0.9,0.3-1.3,0.3s-0.9-0.2-1.4-0.5
			s-1.9-2-4.3-5.2c-2.4-3.1-4.2-6.1-5.4-9c-1.2-2.9-2.1-6-2.5-9.3c-0.4-3.3-0.7-5.7-0.7-7.1s0.5-2.4,1.4-3c1-0.5,3.6-1.4,8.1-2.4
			c4.4-1.1,7.9-1.8,10.3-2.2c1-0.1,1.5-0.5,1.7-0.9c0.2-0.5,0.4-2.3,0.5-5.5l0.3-9.9c0.1-1.6,0.4-2.6,0.9-3s1.8-0.5,3.7-0.5
			s3.3,0.1,4.2,0.3s1.3,0.6,1.3,1.3s-0.1,1.6-0.2,2.8s-0.4,3.5-0.6,6.7c-0.3,3.2-0.4,4.9-0.4,5.1c0,1.2,0.7,1.6,2,1.4
			c3.6-0.4,6.4-0.7,8.5-0.7s4.4,0.2,7,0.5s4.5,0.8,5.7,1.3c1.2,0.5,2,1,2.6,1.4c0.6,0.5,0.9,1,0.9,1.4s-0.2,1.1-0.6,1.8
			s-0.9,3-1.5,7c-0.6,4-1.4,7.9-2.5,11.7s-2.4,7.1-3.9,9.9s-2.5,4.4-3,4.8c-0.5,0.4-1.1,0.7-1.5,0.7s-1.4-0.2-2.8-0.7
			c-1.4-0.5-2.7-1.1-3.8-1.8c-1.1-0.7-2-1.1-2.7-1.1s-1.7,0.1-3.2,0.4s-2.4,0.5-2.6,0.8c-0.2,0.2-0.3,0.8-0.3,1.9s0.2,2.5,0.7,4.6
			c0.5,2,1.2,3.7,2,5s2,2.2,3.5,2.9s3.9,0.9,7.4,0.9s7.6-0.3,12.3-0.9c4.7-0.6,7.9-1.4,9.5-2.5c1.6-1.1,2.8-2.8,3.5-5.1
			c0.7-2.4,1.2-6.3,1.4-11.9C420.6,389.1,421,388.2,421.5,388.2L421.5,388.2z M364.9,376.5c0-1.2,0.5-1.9,1.6-2.1
			c2.7-0.5,4.3-1,4.8-1.6c0.5-0.5,0.8-2,0.8-4.5c0-1.6-0.3-2.4-0.9-2.4s-2.2,0.8-4.8,2.3c-2.6,1.5-4.2,2.6-4.7,3.3
			c-0.5,0.7-0.8,2.5-0.8,5.4s0.5,5.8,1.4,8.7c1,2.9,2.5,4.3,4.5,4.3c0.6,0,1.4-0.2,2.4-0.5s1.6-0.9,1.8-1.8c0.1-0.8,0.2-1.6,0.2-2.4
			s-0.4-1.1-1.1-1.1c-1.5,0-2.8-1-3.8-3.1C365.4,379,364.9,377.5,364.9,376.5L364.9,376.5z M396,371.8c0-3.2-0.5-5.5-1.5-7
			c-1-1.4-3.3-2.1-6.8-2.1s-5.4,0.4-5.8,1.3c-0.4,0.9-0.5,2.3-0.5,4.3c0,0.9,0.1,1.5,0.4,1.8c0.3,0.3,0.8,0.4,1.5,0.4l2.8-0.1
			c1.1,0,1.9,0.3,2.4,0.8c0.5,0.5,0.7,1.6,0.7,3.4s-0.4,2.9-1,3.4c-0.7,0.5-2.7,1.5-6,2.7c-0.7,0.2-1.1,0.6-1.3,1.1
			c-0.2,0.5-0.3,1.5-0.3,3s0.3,2.1,0.9,2.1s1.4-0.1,2.3-0.3c1-0.2,1.8-0.3,2.5-0.3s1.2,0.3,1.5,0.8c0.3,0.5,0.5,1.4,0.5,2.7
			c0.1,1.3,0.2,2.1,0.3,2.4c0.1,0.3,0.6,0.4,1.5,0.4s1.6-0.5,2.1-1.4c0.6-1,1.4-3.5,2.4-7.8C395.5,379.1,396,375.3,396,371.8
			L396,371.8z"/>
		<path d="M530.4,377.2c0,1.2-0.3,1.9-1,1.9s-1.4-0.3-2.3-1c-2.9-2-7.3-3.1-13.2-3.1c-2.1,0-4.6,0.2-7.3,0.5
			c-2.8,0.3-4.4,0.6-4.9,0.9c-0.5,0.3-0.8,1-0.8,2.4l0.2,8.7c0,8.3-0.4,15.3-1.2,21c-0.5,4.4-0.8,8.5-1,12.2
			c-0.1,2.2-0.7,3.3-1.8,3.3s-4.1-0.8-8.8-2.4c-4.7-1.6-8.2-2.9-10.3-4c-2.1-1.1-3.6-2.1-4.5-2.9c-0.9-0.8-1.3-1.4-1.3-1.7
			c0-0.6,0.4-0.9,1.1-0.9s1.4,0.1,2.1,0.3c4.2,1,7.4,1.5,9.8,1.5s3.9-0.2,4.6-0.5c0.7-0.4,1.2-1.2,1.4-2.4c0.3-1.2,0.6-4.4,1.1-9.5
			s0.7-8.8,0.7-11s-0.1-4.5-0.4-6.9c-0.3-2.4-0.5-3.8-0.9-4.1c-0.3-0.4-0.8-0.5-1.3-0.5s-1.1,0.1-1.9,0.3c-4.5,1.4-9.2,2.4-14.2,3
			c-5,0.6-9.2,1.5-12.4,2.8c-3.3,1.2-5.6,2.5-7,3.9c-0.6,0.6-1.1,0.9-1.4,0.9s-0.7-0.7-1-2.1c-0.3-1.4-0.7-2.6-1.2-3.6
			c-0.5-1-0.8-1.6-0.8-1.9c0-1,1.3-1.8,4-2.2c2.7-0.5,6.2-1.3,10.7-2.5c4.5-1.2,7.8-2.2,10-3s6.4-2.1,12.6-4
			c1.5-0.4,2.2-1.1,2.2-2.3c0-0.6-0.2-1.5-0.7-2.6c-0.5-1.1-1.1-2.1-1.8-2.9c-0.7-0.8-1-1.4-1-1.9c0-0.8,1.1-1.2,3.4-1.2
			s4.1-1.5,5.5-4.6s2.1-5.3,2.1-6.7s-0.8-2.1-2.4-2.1s-5.7,1.9-12.4,5.7s-10.3,6-11,6.7c-0.7,0.7-1.2,1-1.6,1s-0.8-0.3-1.1-0.9
			c-1-1.8-2-3.4-3.2-4.6c-0.5-0.7-0.8-1.3-0.8-2s0.7-1.2,2.1-1.5c1.4-0.3,3.2-1.1,5.3-2.5c2.2-1.4,4.5-2.6,7.1-3.6s5.2-2,7.9-2.7
			c2.7-0.7,4.7-1.1,6-1.2s2.5,0,3.4,0s1.7-0.1,2.4-0.4s1.4-0.4,2-0.4c1.7,0,4,0.8,6.9,2.5s4.4,3,4.4,4.1s-0.5,1.8-1.5,2.3
			c-2.3,1.1-4.2,2.7-5.9,4.8s-3.7,3.8-6.1,5.1c-0.7,0.3-1,1.2-1,2.8c0,4.4,1,6.5,3,6.3c3.9-0.5,6.8-0.8,8.8-0.8s3.9,0.1,5.7,0.2
			c1.8,0.1,3.6,0.2,5.3,0.2s2.8-0.1,3.3-0.2s1-0.2,1.4-0.2s0.9,0.5,1.2,1.4c0.3,1,1,2.2,2,3.9C529.9,373.8,530.4,375.5,530.4,377.2
			L530.4,377.2z"/>
		<path d="M575.4,372.9c0,3.4-0.5,7.9-1.5,13.4s-1.5,10.6-1.5,15.1s-0.3,7.2-0.8,8.1c-0.5,0.9-2,1.3-4.4,1.3c-0.7,0-1.1-0.1-1.4-0.4
			s-0.4-0.7-0.4-1.4l0.5-7.6c0.2-2.9,0.2-6.5,0.2-10.8s-0.1-8.6-0.3-12.6s-0.3-6.4-0.4-7s-0.2-1.2-0.2-1.8c0-1.7,0.6-2.5,1.8-2.5
			s2.7,0.5,4.3,1.4c1.7,1,2.8,1.7,3.2,2.2S575.4,371.7,575.4,372.9L575.4,372.9z M585.5,356.1c0,2.7-1.2,4.1-3.6,4.1
			c-1.3,0-2.9-0.5-4.6-1.5c-1.8-1-2.8-1.9-3.2-2.8c-0.4-0.8-0.6-2.5-0.6-5s0.4-4.4,1.1-5.6s1.5-1.9,2.4-1.9s1.6,0.7,2.3,2.1
			c0.7,1.4,1.7,2.8,2.9,4.2C584.4,352.1,585.5,354.2,585.5,356.1L585.5,356.1z M615.8,384.6c0.7,0,1.4,0.8,2.2,2.4
			c0.8,1.6,1.5,4.3,1.9,8c0.5,3.7,0.7,6.4,0.7,8.1c0,1.4-0.7,2.3-2,2.8s-4.5,0.7-9.7,0.7s-8.6-1.4-10.5-4.1
			c-1.9-2.7-2.8-5.8-2.8-9.1c0-0.7,0-1.3,0.1-1.8s0.1-1,0.1-1.8s-0.2-1.2-0.7-1.2s-1.3,0.9-2.6,2.8c-1.2,1.9-2.2,3.2-3,4
			s-1.4,1.8-1.9,3.2c-0.5,1.4-1.6,2.4-3.1,3.2s-3.5,1.2-5.9,1.2s-3.5-0.3-3.5-1c0-1,1.7-2.2,5-3.9c3.3-1.6,5.6-3.4,6.8-5.4
			c1.2-2,1.8-3.4,1.8-4.1s-0.4-1.4-1.3-2.1c-1.8-1.5-3.1-3.3-3.8-5.3c-0.7-2-1-3.5-1-4.5c0-1.4,0.8-2.2,2.4-2.4
			c1.6-0.2,2.8-0.5,3.8-0.9c1-0.4,2.1-0.8,3.3-1.1c1.3-0.3,2.3-0.8,3-1.5c0.7-0.7,2.2-2,4.5-4s4.3-4.1,5.9-6.4s2.9-3.5,3.8-3.5
			s1.8,0.4,2.6,1c0.8,0.7,1.3,1.3,1.3,1.9s-0.5,1.4-1.7,2.5c-4.6,4.8-6.9,7.4-6.9,7.7s0.3,0.5,0.8,0.5c1.8,0.1,3.7,0.7,5.7,1.7
			c2,1,3.1,2,3.1,3.2s-1,2.8-2.9,5.1c-0.7,0.9-1.3,2-1.8,3.4s-0.9,2.2-1.4,2.6c-0.5,0.4-1.3,0.6-2.4,0.6s-1.8,0.1-2.2,0.3
			s-0.6,0.5-0.8,0.7c-0.2,0.3-0.5,1.5-0.9,3.7s-0.7,3.6-0.7,4.2c0,2.6,1.7,3.9,5.1,3.9s5.7-1,6.8-3s1.8-5.1,1.8-9.4
			C614.8,385.7,615.1,384.6,615.8,384.6L615.8,384.6z M596.6,362.3c0,1-1.1,2.5-3.3,4.6s-3.7,3.1-4.6,3.1s-1.7-0.7-2.5-2.2
			c-0.8-1.5-1.2-2.6-1.2-3.3s0.7-1.1,2-1.1s3.8-0.5,7.3-1.6c0.5-0.1,1-0.2,1.5-0.2S596.6,361.8,596.6,362.3L596.6,362.3z
			 M635.2,400.7c0,3.8,0.2,7.4,0.5,10.8s0.5,6.4,0.5,9.1s-0.1,4.2-0.3,4.5c-0.2,0.3-0.6,0.4-1.1,0.4c-3.2,0-8.5-1.9-15.7-5.8
			c-7.3-3.9-10.9-6.4-10.9-7.6c0-0.4,0.2-0.7,0.7-0.7s1,0.1,1.5,0.3c3.1,1,6.9,1.5,11.3,1.5c1.6,0,2.7-0.1,3.2-0.4s0.9-0.9,1.2-1.8
			c0.3-0.9,0.4-2.3,0.4-4.1c0-3.9-0.4-13-1.3-27.3l-1.3-23.9c-0.3-2.6-0.8-4.5-1.7-5.5s-2.1-1.5-4-1.5c-3.2,0-7,0.9-11.4,2.7
			c-4.4,1.8-7.3,3.4-9,4.8c-0.6,0.5-1.2,0.8-2,0.8s-1.8-0.9-3.2-2.6c-1.4-1.7-2.2-3-2.2-3.7s0.3-1.3,0.9-1.6
			c0.6-0.3,2.9-0.9,6.7-1.6s8.4-1.5,13.6-2c2.3-0.3,4.3-0.6,6-1c1.7-0.4,3.5-0.6,5.4-0.6s4.7,0.7,8.2,2s5.3,2.6,5.3,3.7
			c0,0.3-0.2,0.7-0.4,1.2c-1.5,2.6-2.3,6.8-2.3,12.6c0,3.5,0.2,8.5,0.7,15C635,384.7,635.2,392.2,635.2,400.7L635.2,400.7z
			 M593.7,382.9c1,0,2.7-0.4,5.2-1c2.5-0.7,3.7-2,3.7-3.8s-0.9-2.8-2.6-2.8s-3.6,0.5-5.4,1.4c-1.8,1-2.8,2.2-2.8,3.8
			S592.4,382.9,593.7,382.9L593.7,382.9z"/>
		<path d="M742.3,389.1c2.3,0,3.9,1.1,4.7,3.4s1.2,3.9,1.2,4.8c0,1.8-0.7,2.8-2.1,2.8c-0.4,0-0.8-0.1-1.3-0.3c-1.8-0.7-4-1-6.5-1
			s-5.4,0.2-8.8,0.5c-3.3,0.3-5.2,0.6-5.6,0.8s-0.9,0.5-1.3,1.1c-0.4,0.5-1.5,1.7-3.2,3.4c-1.7,1.7-3.3,3.7-4.8,6s-2.3,3.9-2.4,4.8
			c-0.1,0.9-0.4,1.7-1,2.3s-2.2,1.4-4.6,2.2c-2.5,0.8-4.4,1.3-5.8,1.3s-2.8-0.2-4.2-0.5s-2.1-0.8-2.1-1.3s0.4-1,1.1-1.5
			c8.5-3.7,13.9-7,16.1-9.9c2.2-2.8,3.3-4.8,3.3-5.8c0-0.4-0.2-0.7-0.7-0.7s-2.9,0.4-7.4,1.1s-7,1.3-7.7,1.6s-1.3,0.5-1.9,0.5
			s-1.1-0.1-1.4-0.4c-0.4-0.3-0.7-0.4-1-0.4s-0.5,0.2-0.8,0.5c-2.1,3.4-4.2,5.9-6.1,7.6s-3.4,2.6-4.3,2.6s-1.8-1.5-2.6-4.4
			c-0.8-2.9-1.2-5.4-1.2-7.4s0.1-3.8,0.3-5.4c0.2-1.6,0.3-2.9,0.3-3.7c0-3.3-1-5-3.1-5c-0.6,0-1.3,0.2-2.2,0.5s-1.7,0.5-2.4,0.5
			s-1.7-1.2-3-3.5c-1.3-2.3-1.9-3.8-1.9-4.5c0-1.3,0.7-2,2-2.1c2.7-0.3,5.7-0.9,9-1.8c3.3-0.9,5.7-1.9,7.4-2.9
			c0.4-0.2,1-0.3,1.6-0.3s1.8,0.7,3.5,2c1.7,1.3,2.6,2.8,2.6,4.4s-0.6,3-1.8,4.3c-2.9,3-4.7,5.8-5.5,8.3c-0.8,2.5-1.2,4.2-1.2,5
			s0.5,1.2,1.5,1.2s2.5-0.8,4.6-2.4c2-1.6,4.2-5.5,6.5-11.5c0.5-1.2,1-1.9,1.3-1.9s0.5,0.7,0.5,2.2c0,2.9-0.7,6.1-2,9.5
			c-0.2,0.4-0.2,0.7-0.2,1s0.5,0.4,1.4,0.4c1.8,0,5.3-0.7,10.6-2.2s8.3-2.3,9.1-2.5c0.7-0.2,1.4-1.3,2-3.2c0.6-2,1-4.7,1-8.2
			s0.6-5.9,1.5-7.1c0.9-1.2,1.7-1.9,2.4-1.9s1.2,0.2,1.8,0.7c0.5,0.5,0.8,0.9,0.8,1.2s0,0.6-0.1,0.8c-0.5,1.2-0.8,3.9-0.8,8.2
			s0.1,6.8,0.3,7.3s0.7,0.8,1.5,0.8c2,0,5.5-0.6,10.6-1.8C740.7,389.2,741.6,389.1,742.3,389.1L742.3,389.1z M695.4,357.9
			c0,0.9-0.2,2-0.4,3.4s-0.7,2.1-1.3,2.1c-0.2,0-0.9-0.3-2-1s-2.1-1.2-3.1-1.5s-1.7-1.1-2.1-2.2s-0.6-3.3-0.6-6.4
			c0-1.9,0.6-3.5,1.7-4.6c1.1-1.2,2-1.8,2.6-1.8c1,0,2.1,1.6,3.4,4.7C694.8,353.8,695.4,356.2,695.4,357.9L695.4,357.9z
			 M732.9,363.4c5.1,0,9.1,1.7,12.2,5.2c3,3.5,4.6,5.9,4.6,7.4c0,0.6-0.2,1.1-0.7,1.4s-1.7,0.7-3.8,1c-2.1,0.3-4.3,0.5-6.7,0.5
			s-3.8-0.1-4.3-0.3c-0.5-0.2-0.8-0.4-0.8-0.8s0.5-0.8,1.5-1.3s1.9-1.4,2.7-2.5s1.2-2.3,1.2-3.3s-0.3-2-1-2.9s-1.7-1.3-3-1.3
			s-3,0.2-5,0.5s-3.4,0.8-4.5,1.3c-4,2.2-7.4,3.6-10.1,4.1c-0.7,0.1-1,0.4-1,0.8c0,1,1.1,1.9,3.2,3c0.8,0.4,1.2,1.4,1.2,3.1
			c0,2.4-1.1,3.5-3.2,3.5c-3,0-5.7-2.4-8-7.1c-0.4-1-0.9-1.4-1.3-1.4s-1,0.1-1.5,0.4s-1.2,0.4-1.9,0.4c-1.2,0-1.9-0.6-1.9-1.9
			s0.4-2,1.1-2c2-0.3,4.3-1.1,6.9-2.3s4.1-2.2,4.7-2.8c0.6-0.6,0.9-1.5,0.9-2.7s-0.6-1.8-1.9-1.8c-2,0-3.4,0.3-4.1,0.8
			c-0.4,0.3-1,0.4-1.5,0.4s-1.1-0.6-1.5-1.7c-0.4-1.1-0.6-2.2-0.6-3.1c0-1.5,0.4-2.2,1.3-2.3s2.6-0.6,5.4-1.5c2.8-0.9,4.3-1.6,4.6-2
			c0.3-0.4,0.7-2.6,1.2-6.6s0.8-7,0.8-9c0.1-2,0.8-3.1,2.1-3.1s2.4,0.2,3.3,0.6s1.3,0.9,1.3,1.4s-0.1,1-0.3,1.5
			c-0.5,1.2-0.8,5-0.8,11.4c0,1,0.7,1.4,2.1,1.1c3.2-0.6,5.2-0.9,6.2-0.9s1.5,0.4,1.8,1.1c0.2,0.7,0.3,1.5,0.3,2.2
			c0,2.6-1,4.2-3.1,4.6c-1.4,0.3-2.9,0.8-4.4,1.5c-1.5,0.7-2.4,1.3-2.6,1.6c-0.2,0.4-0.3,1.2-0.3,2.4s0.8,1.9,2.4,1.9
			c0.5,0,1.4-0.1,2.8-0.3S731.5,363.4,732.9,363.4L732.9,363.4z M716.4,389.1c0,2.3-1.4,3.4-4.2,3.4c-2,0-3.7-0.6-5-1.9
			c-1.4-1.3-2-2.9-2-4.9c0-1,0.2-1.8,0.6-2.4c0.4-0.6,0.8-0.9,1.2-0.9s0.8,0.1,1.2,0.4c2.1,1.4,4.4,2.5,6.7,3.3
			c0.4,0.1,0.8,0.5,1.1,1C716.3,387.8,716.4,388.4,716.4,389.1L716.4,389.1z M745.4,419.1c0,3.1-0.3,4.6-1,4.6s-1.7-0.4-3-1.3
			c-1.4-0.9-2.9-2.1-4.7-3.6s-4-3.6-6.8-6.3s-4.2-4.2-4.5-4.5c-0.2-0.3-0.3-0.7-0.3-1.2c0-0.8,0.5-1.2,1.4-1.2s3.6,0.6,8.1,1.9
			s7.2,2.1,8.1,2.6c0.9,0.5,1.5,1.6,2,3.2C745.1,414.8,745.3,416.8,745.4,419.1L745.4,419.1z"/>
		<path d="M823.8,353.9c0,1.1-0.2,1.9-0.6,2.4c-0.4,0.5-1.4,1-3,1.5c-1.6,0.5-2.4,1-2.4,1.3s0.3,0.8,0.9,1.3s1.4,1,2.5,1.5
			c1.1,0.5,1.6,1.3,1.6,2.4s-0.6,1.9-1.9,2.4c-1.3,0.5-2.2,1.2-2.6,1.9c-0.5,0.7-0.7,1.3-0.7,1.8s0.6,0.7,1.7,0.7s1.9,0.2,2.2,0.7
			c0.4,0.4,0.5,1.2,0.5,2.2s-0.4,1.9-1.3,2.6c-0.9,0.7-2.8,1.7-5.8,3c-0.7,0.4-1.2,0.9-1.3,1.4s-0.2,1.1-0.2,1.8s0.2,1,0.7,1
			s1.3-0.3,2.5-0.8c1.2-0.5,2.2-0.8,2.9-0.8c1.5,0,2.6,0.6,3.2,1.9c0.6,1.2,0.9,2.2,0.9,3s-0.5,1.3-1.4,1.7s-3.5,0.9-7.8,1.6
			c-1,0.1-1.7,0.4-2,0.8s-0.5,0.8-0.5,1.4s0.3,1,1,1.2c4.1,1.5,6.2,3,6.2,4.7c0,0.6-0.3,1.3-0.8,2s-1.1,1.2-1.9,1.2
			s-1.5-0.1-2.4-0.3c-0.8-0.2-1.6-0.3-2.2-0.3s-0.9,0.4-0.9,1.1s0.2,2.1,0.4,4s0.4,3.6,0.4,4.9c0,4-0.8,6-2.5,6
			c-0.6,0-2.2-0.6-4.8-1.8c-2.6-1.2-5.2-3.1-7.8-5.8c-0.4-0.5-0.8-0.8-1.2-0.8s-0.8,0.5-1.4,1.6s-1,1.9-1.1,2.4
			c-0.3,1-0.8,1.4-1.7,1.4s-2.1-0.5-3.8-1.4c-1.7-1-2.6-1.8-2.6-2.5s0.2-1.4,0.4-1.9s1.5-2.2,3.6-5.2s3.4-4.7,3.8-5.2
			s0.7-0.9,0.7-1.3s-0.3-0.5-0.8-0.5s-1.8,0.3-3.7,0.8c-1.9,0.5-3.3,1-4.1,1.4c-0.8,0.4-1.4,0.7-1.9,0.7s-1-0.5-1.6-1.6
			c-0.6-1.1-0.9-1.9-0.9-2.6s0.5-1.1,1.7-1.4c8.1-2.4,12.8-3.9,14.4-4.6c1.5-0.7,3.8-1.5,6.8-2.4c1-0.3,1.4-0.8,1.4-1.4
			c0-1.5-0.4-2.2-1.3-2.2c-0.4,0-1.8,0.2-4.5,0.7c-2.6,0.5-4.1,0.9-4.5,1.2c-0.4,0.3-0.9,0.4-1.4,0.4s-1.1-0.6-1.8-1.9
			s-0.9-2.2-0.9-2.9c0-1,0.3-1.5,0.9-1.6c0.6-0.1,2.1-0.7,4.6-1.8c2.5-1.1,5-2,7.5-2.9s4.1-1.6,4.7-2.3s1.2-1.8,2.1-3.1
			c0.8-1.4,1.3-2.5,1.3-3.4s-0.1-1.7-0.3-2.4c-0.2-0.7-0.4-1-0.5-1s-0.4,0.3-0.7,1s-0.9,1.2-1.7,1.7c-0.8,0.5-1.5,1-1.9,1.6
			c-0.5,0.6-1.5,2.2-3.1,4.9c-0.5,0.9-1.2,1.6-2,2c-0.8,0.5-1.5,0.7-1.9,0.7s-0.8-0.2-1.2-0.6s-0.5-1-0.5-1.9s0.4-2,1.3-3.4
			c1.4-2.1,2.1-3.8,2.1-5c0-0.5-0.4-0.8-1.3-0.8s-1.6,0.1-2.1,0.3c-0.5,0.2-1.1,0.5-1.9,1c-0.7,0.5-1.3,0.7-1.7,0.7
			s-0.8-0.6-1.4-1.9s-0.8-2.2-0.8-2.9s0.6-1,1.9-1.2c2.3-0.3,5.9-1.2,10.8-2.9c6.7-2.3,11.9-3.4,15.7-3.4c1.5,0,2.6,0.1,3.1,0.4
			C823.5,352.7,823.7,353.2,823.8,353.9L823.8,353.9z M806.3,398.5c0-1,0-2.2-0.1-3.4s-0.3-1.9-0.7-1.9s-0.8,0.1-1.3,0.3
			c-0.5,0.2-1.6,0.5-3.2,0.9c-1.7,0.4-2.5,0.7-2.7,0.9s-0.3,0.9-0.3,1.9c-0.1,1.1-0.2,2.5-0.4,4.2c-0.2,1.7-0.3,3-0.3,3.7
			s0.5,1.4,1.6,1.9s2.2,0.8,3.5,0.8s2.2-0.2,2.7-0.5s0.9-1.5,1-3.5C806.2,401.8,806.3,400,806.3,398.5L806.3,398.5z M811.9,332.8
			c0.7,0,1.3,0.5,1.8,1.5c0.5,1,1.2,2.2,2,3.6s1.4,2.7,1.7,3.7c0.2,1,0.3,2.4,0.3,4s-0.2,2.7-0.7,3.1s-1.2,0.7-2.4,0.7
			c-1.6,0-3.3-0.7-5.1-2s-2.7-3.3-2.7-5.8c0-1.7,0.6-3.6,1.8-5.7S810.9,332.8,811.9,332.8L811.9,332.8z M860.1,369.8
			c0.6,0,1,0.1,1.3,0.4c0.3,0.3,1,1.3,2.1,3.1c1.1,1.8,1.9,3.1,2.2,3.9c0.4,0.7,0.5,1.4,0.5,2.1c0,1.5-0.8,2.3-2.3,2.3
			c-0.3,0-0.6,0-0.9-0.1c-1.3-0.4-3.5-0.5-6.5-0.5s-4.7,0.2-5.1,0.5c-0.4,0.3-0.9,2.3-1.6,6c-0.7,3.7-1,6.8-1,9.4s0.1,4.8,0.2,6.8
			c0.2,1.9,0.2,4,0.2,6.3s-0.2,4.2-0.4,5.8s-0.4,3-0.4,4.2s0.2,2.5,0.6,4.1c0.4,1.6,0.6,2.8,0.6,3.8c0,2-1.2,3.1-3.6,3.1
			c-0.9,0-1.5-0.1-2-0.3s-0.8-0.7-1.1-1.4c-0.3-0.7-0.4-1.6-0.4-2.6l0.1-3.4c0-2.7-0.2-9-0.5-18.8s-0.6-15.5-0.9-17.3
			s-0.5-2.9-0.7-3.5s-0.5-0.9-1-0.9s-1.5,0.3-2.9,0.8s-2.5,1.1-3.3,1.6s-1.4,1.2-1.8,1.8c-0.4,0.7-0.9,1.7-1.5,3.1
			c-0.6,1.4-0.9,2.7-0.9,3.9l0.2,3.5c0,2.1-1,4.4-2.9,6.9c-1.9,2.5-3.9,4-5.8,4.6s-3.2,0.9-3.8,0.9s-0.9-0.2-0.9-0.5
			c0-0.6,1.2-2.6,3.6-6c2.4-3.4,4.1-6.8,5.2-10.3s1.9-7.4,2.4-12s0.8-8.4,0.8-11.7l-0.2-6.3c0-1,0.2-1.7,0.5-2.1
			c0.3-0.4,0.9-0.7,1.7-0.9c4.2-1,7.5-2,9.8-3c4.9-2,8.5-3,10.7-3c1.2,0,2.1,0.4,2.8,1.2s1,1.7,1,2.8s-0.2,2-0.7,2.8
			c-0.5,0.7-1.3,1.2-2.5,1.4s-2.4,0.7-3.5,1.5s-2.8,1.3-4.9,1.4c-3.3,0.3-5.7,1.6-7.3,3.9c-1.6,2.3-2.4,4.4-2.4,6.5
			c0,0.6,0.3,0.9,0.8,0.9c0.3,0,2.8-0.8,7.5-2.3c4.7-1.5,8.5-2.6,11.3-3.3C855.5,370.1,858,369.7,860.1,369.8L860.1,369.8z"/>
		<path d="M967.4,379c1.9,0,3.1,0.6,3.5,1.9s1,2.4,1.7,3.4s1,1.9,1,2.6c0,1.3-0.8,2-2.4,2c-0.5,0-1.1-0.1-1.7-0.2
			c-2-0.4-4.8-0.8-8.4-1.2s-7.4-0.5-11.3-0.5s-8.4,0.4-13.3,1.1s-8.9,1.6-11.8,2.6c-2.9,1-4.6,1.7-5,2.2s-0.7,1.1-0.9,1.8
			c-0.9,5.1-2.2,8.6-4.1,10.7c-1.2,1.4-2.8,3.7-4.6,6.9c-0.6,1-1.3,1.7-2.2,2.4s-1.7,0.9-2.4,0.9s-1.3-0.2-1.8-0.7
			c-0.4-0.5-1.1-2.1-1.9-5c-0.8-2.9-1.3-5.4-1.3-7.5s0.1-4.2,0.3-6.3c0.2-2,0.3-3.6,0.3-4.8s-0.2-2.3-0.7-3.3s-1-1.5-1.6-1.5
			s-1.5,0.2-2.5,0.5c-1,0.4-1.8,0.8-2.2,1.3c-0.5,0.5-0.9,0.7-1.4,0.7c-1,0-2.3-1.2-4.2-3.7s-2.8-4.2-2.8-5.1c0-1.4,1.1-2.2,3.4-2.4
			c3.1-0.3,6.6-1.3,10.5-2.9c3.9-1.6,6.1-2.9,6.7-3.7c0.4-0.4,0.7-0.7,1-0.7s0.8,0.4,1.3,1.3s1.5,2,2.8,3.4s1.9,2.8,1.9,4.2
			c0,1.8-0.8,2.8-2.3,3c-1.2,0.1-2,0.9-2.6,2.2s-1.3,4.1-2.2,8.5s-1.3,6.9-1.3,7.8c0,1.6,0.5,2.4,1.7,2.4c1.2,0,3.1-1.2,5.7-3.7
			c2.5-2.5,3.8-4.9,3.8-7.4c0-1.1-0.2-1.9-0.7-2.5c-0.5-0.5-0.7-1-0.7-1.5c0-0.7,0.4-1,1.2-1l1.5,0.1c0.8,0,1.4-0.2,1.9-0.5
			c1.4-1.2,3.2-2,5.3-2.6c2.2-0.6,3.4-1,3.7-1.4s0.7-1.1,1-2.2s1-2.5,1.9-4.1s1.4-2.6,1.4-3s-0.3-0.5-0.9-0.5c-2,0-4.1,0.3-6,1
			c-0.6,0.2-1.1,0.3-1.4,0.3c-1.2,0-1.9-1.5-1.9-4.4c0-1.7,0.7-2.6,2-2.6s3-0.4,5.1-0.9l5.1-1.3c1.4-0.4,2.2-0.8,2.6-1.1
			s0.7-1.4,1.1-2.9c0.4-1.5,0.6-2.7,0.6-3.5s-0.3-1.2-1-1.2c-1.5,0-3.1,0.5-5,1.4c-0.7,0.4-1.3,0.7-1.8,0.7c-1,0-2-1.1-3-3.4
			c-1-2.3-1.4-4.2-1.4-5.7c0-1,0.5-1.8,1.6-2.2s3.1-0.7,6.1-0.8c3-0.1,5.6-0.5,7.9-1.3c2.2-0.8,4.8-1.4,7.8-1.9
			c2.9-0.5,4.8-0.8,5.7-0.8s1.6,0.7,2.2,2.2s1,2.6,1,3.5c0,2-0.6,3.1-1.9,3.3c-2,0.1-3.6,0.5-4.7,1.3c-1.1,0.8-2.3,2.5-3.7,5
			c-1.4,2.5-2.1,4-2.1,4.5s0.2,0.8,0.5,0.8c0.3,0.1,1.6,0.1,3.9,0.1s4.4,0.5,6.4,1.5s3.5,1.7,4.3,2.2s1.3,1.1,1.3,2
			c0,1.1-0.5,2-1.7,2.7c-1.1,0.7-2.2,1.9-3.3,3.6s-1.7,2.8-1.7,3.3s0.5,0.8,1.4,0.8c1,0.1,2.7,0.1,5.2,0.1L967.4,379L967.4,379z
			 M917.9,358c0,2.5-1.2,3.7-3.6,3.7c-1.2,0-2.8-0.3-4.7-0.9s-3.1-1.2-3.6-1.7s-0.9-1.2-1.2-1.9c-0.2-0.7-0.3-2.7-0.3-5.8
			s0.5-5.3,1.4-6.5c0.9-1.2,1.8-1.8,2.8-1.8c1.5,0,2.4,0.8,2.9,2.3s1,2.8,1.5,3.8c0.6,1,1.5,2.4,2.9,4.2
			C917.3,355.2,917.9,356.8,917.9,358L917.9,358z M948,391.3c4.5,0,8.5,1.2,11.9,3.6c3.5,2.4,5.2,4.1,5.2,5.2c0,0.6-0.6,1.4-1.9,2.3
			c-3.8,2.9-5.7,6.1-5.7,9.7c0,1.5-0.2,2.8-0.7,3.8c-0.5,1-0.8,1.6-1.1,1.9c-0.3,0.3-1,0.3-2.4,0.2c-1.3-0.1-2.7-0.2-4.2-0.2
			s-3.3,0.1-5.6,0.3c-2.3,0.2-3.8,0.5-4.7,1c-0.8,0.4-1.6,0.7-2.2,0.7s-1.3-0.6-2.1-1.8s-2.2-2.5-4-4c-1.8-1.5-3.4-3.9-4.8-7.1
			c-1.4-3.3-2-5.9-2-8c0-1.4,0.5-2.2,1.6-2.3s2.6-0.6,4.7-1.4s5.1-1.6,9-2.5S946,391.3,948,391.3L948,391.3z M940.5,409.3
			c2.6,0,4.9-0.8,6.8-2.4c1.9-1.6,2.8-3.4,2.8-5.3c0-1-0.5-1.9-1.4-2.5s-2.2-1-3.6-1s-3.3,0.4-5.4,1.1s-3.3,1.8-3.6,3.1
			c-0.3,1.3-0.4,2.4-0.4,3.4s0.4,1.8,1.3,2.5S939,409.3,940.5,409.3z M938.4,380.8c0.4,0,1.5-0.2,3.3-0.5s2.8-0.6,3.2-0.8
			c0.4-0.2,0.8-0.8,1.4-1.9c0.6-1.1,1.1-2.2,1.5-3.5c0.4-1.2,0.6-2.2,0.6-3c0-1.4-0.7-2.1-2-2.1c-1.8,0-3.2,1-4.2,3
			c-1,2-2,3.9-3.1,5.5c-1,1.7-1.5,2.6-1.5,2.9S937.9,380.8,938.4,380.8z"/>
	</g>
	<g>
		<path class="st4" d="M1039.2,317.5c-0.8-0.9-0.9-1.4-0.3-1.4c0.6,0,1.2,0.1,1.9,0.5c0.6,0.4,1.1,0.8,1.3,1.5
			c0.6-1.3,1.1-2.5,1.3-3.5c0.3-1,0.4-1.6,0.4-2c0-0.4-0.2-0.6-0.5-0.5c-0.3,0.1-0.7,0.2-1.3,0.4s-1.1,0.1-1.7-0.3s-0.6-0.6,0.1-0.7
			c0.7,0,1.3-0.2,2-0.4c0.7-0.2,1.2-0.5,1.5-0.8c0.3-0.3,1.1-0.1,2.1,0.5c0.7,0.4,0.8,0.9,0.3,1.4s-1,1.6-1.6,3.4
			c-0.6,1.8-1.3,3.5-2.2,5.2c-0.9,1.7-2,3.1-3.4,4.4c-1.4,1.2-2.8,2.1-4.3,2.7c-1.5,0.5-1.7,0.4-0.5-0.3s2.3-1.8,3.6-3
			s2.4-3,3.6-5.2C1040.9,319,1040.1,318.4,1039.2,317.5L1039.2,317.5z M1048.8,323.7c-0.2,0.3-0.4,1-0.7,2.2
			c1.6-0.4,2.9-0.6,3.8-0.7c0.9-0.1,1.8-0.2,2.5-0.3c0.8-0.1,1.5,0.1,2.2,0.6s0.5,0.9-0.7,1c-1.2,0.1-2.4,0.2-3.7,0.3
			c-1.3,0.1-2.7,0.2-4.2,0.4c-0.9,2.9-2.1,5.1-3.6,6.5c-1.5,1.4-3.2,2.4-5.2,2.9c-1.9,0.5-2,0.3-0.2-0.7c1.8-0.9,3.3-2.1,4.5-3.5
			c1.2-1.4,2-3.1,2.5-4.9c-1.2,0.3-2.2,0.5-3,0.6s-1.5,0.2-2.1,0.3s-1.2-0.2-1.9-0.7s-0.7-0.8,0.1-0.9c0.8,0,1.8-0.1,2.9-0.2
			c1.2-0.1,2.5-0.3,4.1-0.5c0.3-1.1,0.3-2.2,0.1-3.5c-1.2,0-2-0.1-2.5-0.5c-0.5-0.3-0.1-0.6,1.2-0.9c1.3-0.3,2.4-0.5,3.2-0.8
			c0.8-0.3,1.6-0.5,2.3-0.7c0.8-0.2,1.4-0.1,1.9,0.4s0.3,0.9-0.8,1.3c-1.1,0.4-2.3,0.7-3.7,0.9
			C1048.7,322.9,1049,323.4,1048.8,323.7L1048.8,323.7z M1053.1,315.5c0.7-0.8,1.4-1.7,2.1-2.6s1-1.7,1-2.3c0-0.7,0.3-0.9,0.9-0.5
			s1.2,0.8,1.8,1.2c0.6,0.4,0.5,0.8-0.2,1s-2.4,1.4-5.2,3.7c2,2.4,3.9,4.2,5.6,5.5c1.7,1.2,3.3,2.1,4.8,2.6c1.5,0.5,1.8,0.8,0.8,0.9
			c-1,0.1-2.2,0.2-3.8,0.2c-1.6,0-2.8-0.5-3.8-1.8c-1-1.2-2.3-3.1-4-5.5c-1.7-2.4-2.9-3.8-3.6-4.3c-0.7-0.5-0.9-0.8-0.7-0.9
			s0.6-0.1,1.1,0.1c0.7-1,1.3-1.9,1.7-2.7c0.4-0.8,0.6-1.4,0.5-1.9s0.2-0.6,0.7-0.4s1.2,0.5,1.7,0.9c0.6,0.4,0.5,0.8-0.2,1.1
			s-2,1.4-4,3.1C1051.4,313.7,1052.3,314.7,1053.1,315.5L1053.1,315.5z M1057.1,332.9c0.5,0.6,0.7,1.5,0.5,2.7s-0.9,1-2.4-0.6
			s-2.8-3-4.1-4.2s-1.3-1.6-0.3-1.3c1,0.3,2.2,0.8,3.5,1.5C1055.7,331.7,1056.6,332.3,1057.1,332.9z"/>
		<path class="st4" d="M1044.8,350.9c-0.1-1.3-0.3-2.3-0.6-2.9s-0.1-0.9,0.6-0.7s1.4,0.4,2,0.7s0.8,0.7,0.5,1.3
			c-0.3,0.5-0.5,1.5-0.5,3.1s-0.1,3.5-0.4,6s-1,4.5-2.1,6.2c-1.2,1.6-2.5,2.9-4.1,3.7c-1.6,0.8-1.7,0.6-0.5-0.5
			c1.2-1.1,2.3-2.5,3.3-4.2c1-1.7,1.6-4.2,1.7-7.5c-2.6,1.4-4.3,2.7-5.2,3.8c-0.9,1.1-1.7,1.3-2.2,0.5c-0.5-0.8-0.5-1.4,0.1-2
			c0.6-0.6,1-1.3,1.2-2.1c0.2-0.8,0.3-2.3,0.1-4.4c-0.1-2.1-0.5-3.6-1.1-4.5c-0.6-0.8-0.6-1.2,0.1-1.1s1.4,0.3,2,0.7
			c1.6-0.9,2.8-1.7,3.7-2.5c0.8-0.8,1.2-1.5,1.2-2.1c-0.1-0.6,0.3-0.8,1-0.5s1.4,0.8,2,1.3s0.6,1-0.1,1.1c-0.7,0.2-1.6,0.5-2.7,1.1
			s-2.7,1.3-4.8,2.3c0.3,1.6,0.4,4.7,0.4,9.3c1.3-0.6,2.8-1.2,4.4-1.9C1044.9,353.5,1044.9,352.2,1044.8,350.9L1044.8,350.9z
			 M1052.8,358.3c0,4.3-0.1,7.8-0.3,10.2s-0.6,3.8-1,3.9c-0.4,0.1-0.7-1.1-0.7-3.6s0-5.5,0.1-9.4s0.1-6.7,0-8.4s-0.4-3-0.9-3.7
			c-0.5-0.7-0.4-0.9,0.4-0.8c0.8,0.1,1.3,0.3,1.8,0.4c0.4,0.1,1.3,0,2.7-0.4s2.3-0.8,2.7-1.1c0.4-0.4,1.1-0.4,1.9-0.1
			c0.8,0.3,1.6,0.6,2.1,1c0.6,0.4,0.7,0.8,0.3,1.2c-0.4,0.4-0.7,1-0.9,1.7c-0.2,0.8-0.3,2.1-0.3,4.2s-0.5,3.5-1.4,4.6
			s-1.6,1.3-1.9,0.3c-0.4-0.9-1-1.8-2.1-2.6s-0.9-1,0.3-0.7c1.2,0.4,2,0.4,2.4,0.1s0.6-1,0.7-2.3c0-1.3,0-2.5,0-3.6
			c-0.1-1.1-0.2-1.8-0.5-2s-0.9-0.2-1.7,0s-2.1,0.5-3.7,0.9C1052.8,350.5,1052.8,353.8,1052.8,358.3L1052.8,358.3z"/>
		<path class="st4" d="M1044.9,411.6c-0.1,0.4-0.3,1.2-0.4,2.3s-0.2,2.1-0.2,3.1s0.3,1.4,0.9,1.3c0.6-0.1,2-0.2,4.4-0.4
			s4.5-0.4,6.4-0.7s3.3,0,4.1,0.8s0.5,1.2-0.8,1.1c-1.3,0-4.1,0-8.2,0.3c-4.1,0.2-6.5,0.6-7.2,1.1c-0.7,0.5-1.2,0.4-1.6-0.3
			c-0.3-0.7-0.4-1.4-0.2-2.1c0.2-0.7,0.4-1.4,0.5-2.1c0.1-0.7,0.1-1.5,0.1-2.6c-0.1-1.1-0.2-2.1-0.3-3.1c-2.2,0.3-3.6,0.4-4.1,0.5
			s-1.3-0.2-2.2-0.8c-0.9-0.6-0.9-0.9,0.2-0.9c1.2,0,2.7-0.1,4.5-0.2s4.1-0.3,6.7-0.5c2.6-0.2,4.8-0.4,6.7-0.7
			c1.9-0.2,3.4-0.4,4.4-0.6c1.1-0.2,2,0,2.9,0.6c0.9,0.6,1.2,1,0.9,1.3s-1.2,0.4-2.5,0.4s-3.5,0-6.2,0.1s-6.1,0.3-9.9,0.7
			C1044.6,410.7,1045,411.1,1044.9,411.6L1044.9,411.6z M1052.9,393.6c-0.3-0.7,0-0.9,0.8-0.7c0.8,0.3,1.5,0.6,2,0.9
			c0.5,0.4,0.6,0.7,0.3,1s-0.8,1.3-1.4,2.9c2.3-0.3,3.8-0.5,4.6-0.7c0.8-0.2,1.6,0.1,2.4,0.9s0.5,1.2-1.1,1.2s-3.7,0.1-6.4,0.3
			c-1,2-1.7,3.1-2.1,3.5s-0.5,0.2-0.4-0.5c0.1-0.7,0.4-1.6,0.7-2.9c-1.8,0.2-3.7,0.4-5.7,0.7c0,1.4-0.1,2.4-0.3,2.9s-0.4,0.5-0.7,0
			c-0.3-0.5-0.4-1.4-0.5-2.6c-2.3,0.3-3.8,0.5-4.6,0.7c-0.8,0.2-1.6,0-2.6-0.7c-1-0.6-0.9-0.9,0.2-0.9c1.1,0,3.3-0.1,6.7-0.5
			c-0.2-1.6-0.6-2.8-1.2-3.5s-0.5-1.1,0.3-1c0.8,0.1,1.6,0.2,2.2,0.5c0.6,0.2,0.9,0.5,0.7,0.9s-0.2,1.4-0.3,2.9
			c1.7-0.3,3.7-0.6,6-0.9C1053.1,395.8,1053.2,394.4,1052.9,393.6L1052.9,393.6z M1048,403.9c1.4,0.1,2.4,0.4,2.9,0.9
			c0.5,0.5,0.6,1,0.3,1.7s-0.8,0.7-1.7,0.1c-0.8-0.5-1.7-1.1-2.5-1.7C1046.3,404.1,1046.6,403.8,1048,403.9L1048,403.9z"/>
		<path class="st4" d="M1044.4,433.9c-0.2,0.3-0.3,0.9-0.3,2c0.8-0.3,1.4-0.5,1.9-0.7c0.5-0.2,0.9-0.1,1.3,0.2
			c0.4,0.3,0.3,0.6-0.4,0.9s-1.6,0.6-2.9,0.9v3.2c1.1,0.1,2,0.3,2.7,0.7c0.8,0.4,1.1,0.9,1,1.7c-0.1,0.8-0.5,1-1.2,0.5
			c-0.7-0.5-1.6-1.1-2.5-1.9v9.2c0,0.8-0.2,1.7-0.5,2.6c-0.4,0.9-0.8,0.8-1.2-0.4c-0.4-1.2-0.6-2.2-0.3-3.1c0.2-0.8,0.3-2,0.4-3.5
			c0-1.5,0.1-3.4,0.2-5.6c-1.9,3.5-3.9,6.2-6.2,7.9s-2.6,1.8-1.1,0.1c1.5-1.6,2.9-3.5,4.2-5.7c1.3-2.2,2.1-3.8,2.5-5
			c-2.5,0.9-4,1.4-4.6,1.7s-1.3,0.1-2.2-0.5c-0.9-0.5-0.7-0.9,0.6-1c1.3-0.1,3.5-0.7,6.7-1.8c0.1-1.1-0.1-2.3-0.4-3.3
			c-1.8,0.6-3.1,1-3.8,1c-0.8,0-0.8-0.1-0.1-0.5s1.5-0.8,2.3-1.2c0.8-0.4,1.7-1.1,2.7-1.9c1-0.8,1.6-1.5,1.7-2.1
			c0.1-0.6,0.7-0.4,1.9,0.5s1.4,1.5,0.5,1.7s-1.6,0.5-2.1,0.7c-0.6,0.3-1.3,0.7-2.3,1.2C1044.1,433.2,1044.6,433.6,1044.4,433.9
			L1044.4,433.9z M1059.8,434.6c0.5-0.3,1.1-0.3,1.7-0.1c0.7,0.3,1.3,0.6,1.8,1s0.5,0.9-0.1,1.4c-0.6,0.5-1.2,1.8-1.8,3.9
			c0.9,0.9,1,1.4,0.3,1.4c-0.7,0-2.4,0.2-5.2,0.6c0,5.6-0.1,8.9-0.1,10c-0.1,1.1-0.2,2-0.3,2.8c-0.1,0.8-0.3,1.2-0.6,1.3
			s-0.4-0.4-0.5-1.5c-0.1-1.1-0.1-2.3-0.1-3.7v-8.6l-3.9,0.5c-0.4,1-0.7,1.2-0.9,0.7s-0.4-1.1-0.5-1.7c-0.1-0.7-0.2-1.7-0.5-3.1
			c-0.2-1.4-0.5-2.3-0.9-2.9c-0.4-0.5-0.2-0.8,0.3-0.7c0.6,0.1,1,0.2,1.3,0.3c0.3,0.1,0.9,0.1,1.7,0.1c0.8,0,1.9-0.2,3.3-0.5
			c0-2.1-0.1-3.7-0.2-4.9c-0.1-1.1-0.4-2-0.7-2.6c-0.4-0.6-0.2-0.9,0.5-0.7c0.7,0.1,1.3,0.4,2,0.7c0.7,0.3,0.9,0.7,0.6,1.3
			c-0.3,0.5-0.4,2.5-0.4,6C1058.2,435.3,1059.3,434.9,1059.8,434.6L1059.8,434.6z M1050.9,442.5l3.9-0.5v-4.9l-4.4,0.4
			C1050.7,440.1,1050.8,441.8,1050.9,442.5L1050.9,442.5z M1060.1,441.1c0.3-2.5,0.3-3.9,0.2-4.4c-0.1-0.4-0.5-0.6-1-0.5
			c-0.5,0.1-1.5,0.3-2.8,0.5v5C1057.8,441.6,1059,441.3,1060.1,441.1L1060.1,441.1z"/>
	</g>
</g>
</svg>
