<?xml version="1.0" encoding="UTF-8"?><svg id="uuid-456d0df4-bce8-4f5a-a348-f644ce3fe621" xmlns="http://www.w3.org/2000/svg" viewBox="0 0 1366.5 768.5"><defs><style>.uuid-4d6f3a79-7a31-43da-9978-7b8cadc77349{fill:#f4f3ef;opacity:.31;}.uuid-591bf980-ac7e-4dc1-b2d4-a8d12e840a60{fill:#964029;}.uuid-1af7a62a-bcbc-4f61-842e-84b517ec2a1e{fill:#d1d1d1;}.uuid-fe9290fe-d65f-4c7d-8270-27fb242fab03{fill:#040000;}.uuid-76051d0f-9b44-49f1-a589-d44bdab9dc1f{fill:#b65b23;}.uuid-e994f494-23e2-4bfa-9518-7810fd667a39{fill:#bfa97e;}.uuid-46f59c70-058a-40f3-aa85-2b317fbb7ce6{fill:#58858c;}.uuid-ff96b197-f4ae-4ede-961d-5d2cff8a3ec5{fill:#b5b5b5;}</style></defs><g><rect class="uuid-76051d0f-9b44-49f1-a589-d44bdab9dc1f" x="1138.58" y="640.25" width="227.67" height="128"/><rect class="uuid-76051d0f-9b44-49f1-a589-d44bdab9dc1f" x="1138.58" y="512.25" width="227.67" height="128"/><rect class="uuid-76051d0f-9b44-49f1-a589-d44bdab9dc1f" x="1138.58" y="384.25" width="227.67" height="128"/><rect class="uuid-1af7a62a-bcbc-4f61-842e-84b517ec2a1e" x="1138.58" y="256.25" width="227.67" height="128"/><rect class="uuid-1af7a62a-bcbc-4f61-842e-84b517ec2a1e" x="1138.58" y="128.25" width="227.67" height="128"/><rect class="uuid-46f59c70-058a-40f3-aa85-2b317fbb7ce6" x="1138.58" y=".25" width="227.67" height="128"/><rect class="uuid-76051d0f-9b44-49f1-a589-d44bdab9dc1f" x="910.92" y="640.25" width="227.66" height="128"/><rect class="uuid-76051d0f-9b44-49f1-a589-d44bdab9dc1f" x="910.92" y="512.25" width="227.66" height="128"/><rect class="uuid-76051d0f-9b44-49f1-a589-d44bdab9dc1f" x="910.92" y="384.25" width="227.66" height="128"/><rect class="uuid-1af7a62a-bcbc-4f61-842e-84b517ec2a1e" x="910.92" y="256.25" width="227.66" height="128"/><rect class="uuid-1af7a62a-bcbc-4f61-842e-84b517ec2a1e" x="910.92" y="128.25" width="227.66" height="128"/><rect class="uuid-46f59c70-058a-40f3-aa85-2b317fbb7ce6" x="910.92" y=".25" width="227.66" height="128"/><rect class="uuid-ff96b197-f4ae-4ede-961d-5d2cff8a3ec5" x="683.25" y="640.25" width="227.67" height="128"/><rect class="uuid-ff96b197-f4ae-4ede-961d-5d2cff8a3ec5" x="683.25" y="512.25" width="227.67" height="128"/><rect class="uuid-46f59c70-058a-40f3-aa85-2b317fbb7ce6" x="683.25" y="384.25" width="227.67" height="128"/><rect class="uuid-e994f494-23e2-4bfa-9518-7810fd667a39" x="683.25" y="256.25" width="227.67" height="128"/><rect class="uuid-e994f494-23e2-4bfa-9518-7810fd667a39" x="683.25" y="128.25" width="227.67" height="128"/><rect class="uuid-e994f494-23e2-4bfa-9518-7810fd667a39" x="683.25" y=".25" width="227.67" height="128"/><rect class="uuid-ff96b197-f4ae-4ede-961d-5d2cff8a3ec5" x="455.58" y="640.25" width="227.67" height="128"/><rect class="uuid-ff96b197-f4ae-4ede-961d-5d2cff8a3ec5" x="455.58" y="512.25" width="227.67" height="128"/><rect class="uuid-46f59c70-058a-40f3-aa85-2b317fbb7ce6" x="455.58" y="384.25" width="227.67" height="128"/><rect class="uuid-1af7a62a-bcbc-4f61-842e-84b517ec2a1e" x="455.58" y="256.25" width="227.67" height="128"/><rect class="uuid-1af7a62a-bcbc-4f61-842e-84b517ec2a1e" x="455.58" y="128.25" width="227.67" height="128"/><rect class="uuid-1af7a62a-bcbc-4f61-842e-84b517ec2a1e" x="455.58" y=".25" width="227.67" height="128"/><rect class="uuid-ff96b197-f4ae-4ede-961d-5d2cff8a3ec5" x="227.92" y="640.25" width="227.66" height="128"/><rect class="uuid-ff96b197-f4ae-4ede-961d-5d2cff8a3ec5" x="227.92" y="512.25" width="227.66" height="128"/><rect class="uuid-e994f494-23e2-4bfa-9518-7810fd667a39" x="227.92" y="384.25" width="227.66" height="128"/><rect class="uuid-1af7a62a-bcbc-4f61-842e-84b517ec2a1e" x="227.92" y="256.25" width="227.66" height="128"/><rect class="uuid-1af7a62a-bcbc-4f61-842e-84b517ec2a1e" x="227.92" y="128.25" width="227.66" height="128"/><rect class="uuid-1af7a62a-bcbc-4f61-842e-84b517ec2a1e" x="227.92" y=".25" width="227.66" height="128"/><rect class="uuid-ff96b197-f4ae-4ede-961d-5d2cff8a3ec5" x=".25" y="640.25" width="227.67" height="128"/><rect class="uuid-ff96b197-f4ae-4ede-961d-5d2cff8a3ec5" x=".25" y="512.25" width="227.67" height="128"/><rect class="uuid-e994f494-23e2-4bfa-9518-7810fd667a39" x=".25" y="384.25" width="227.67" height="128"/><rect class="uuid-1af7a62a-bcbc-4f61-842e-84b517ec2a1e" x=".25" y="256.25" width="227.67" height="128"/><rect class="uuid-1af7a62a-bcbc-4f61-842e-84b517ec2a1e" x=".25" y="128.25" width="227.67" height="128"/><rect class="uuid-1af7a62a-bcbc-4f61-842e-84b517ec2a1e" x=".25" y=".25" width="227.67" height="128"/></g><rect class="uuid-4d6f3a79-7a31-43da-9978-7b8cadc77349" x=".25" y=".25" width="1366" height="768"/><g><g><path class="uuid-591bf980-ac7e-4dc1-b2d4-a8d12e840a60" d="M727.67,212.8s9.9,7.64,16.22,13.12c-.41,1.59-1.92,2.31-3.85,2.31h-123.88l-1.24-4.18h23.37v-71.24l17.32,6.92h11.69c.28-3.32,.55-7.21,.82-11.1h-51.56l-1.1-4.04h53.07c.28-4.04,.55-7.93,.69-11.25l22.41,2.88c-.41,2.45-2.2,3.75-5.36,4.18l-1.65,4.18h32.04l4.54-5.77c-.96,.14-1.92,.29-2.75,.29h-2.75v-6.35h-72.74v3.46c0,1.44-7.01,4.9-13.2,4.9h-2.2v-39.95l16.64,6.78h70.12l7.29-8.08,15.12,11.97c-.69,1.01-2.61,2.31-5.36,2.88v20.19c0,.29-.96,1.01-2.47,1.59,3.44,2.6,8.39,6.49,12.1,9.81-.41,1.59-1.79,2.31-3.71,2.31h-54.17c-1.65,3.75-3.3,7.79-4.68,11.1h22.69l7.01-9.52,17.19,12.4c-.96,1.59-2.61,2.45-6.19,3.03v57.83l8.52-10.67Zm-84.7-84.22h14.3v-16.44h-14.3v16.44Zm11.27,35.33v12.26h48.12v-12.26h-48.12Zm48.12,16.3h-48.12v11.54h48.12v-11.54Zm-48.12,15.72v11.39h48.12v-11.39h-48.12Zm0,28.12h48.12v-12.55h-48.12v12.55Zm17.19-111.91v16.44h14.99v-16.44h-14.99Zm44.27,16.44v-16.44h-14.99v16.44h14.99Z"/><path class="uuid-591bf980-ac7e-4dc1-b2d4-a8d12e840a60" d="M824.75,309.35c-1.1,1.44-2.75,1.87-6.05,.72-6.19,8.51-13.75,16.87-22.55,24.95v34.32c0,10.96-2.75,16.73-21.86,18.32-.55-4.61-1.24-8.22-3.71-10.24-2.2-2.02-5.5-3.89-13.2-5.05v-2.02s15.81,1.15,19.11,1.15c2.61,0,3.16-1.15,3.16-3.32v-19.9c-21.72,15.72-49.22,28.7-82.36,35.77l-.83-2.02c29.7-10.38,55.69-26.39,75.9-44.56h-71.5l-1.24-4.04h21.04v-68.94l18.15,7.07h9.07c.83-5.48,1.79-13.85,2.48-19.47l23.65,3.75c-.41,2.31-2.47,3.46-5.36,3.75-3.02,3.32-7.97,8.36-11.55,11.97h21.04l7.7-9.23,16.09,13.27c-.96,1.15-2.89,2.45-5.77,3.03v33.75c4.4-5.62,8.25-11.39,11.55-17.16l17.05,14.13Zm-87.72-33.6v16.3h42.62v-16.3h-42.62Zm0,36.78h42.62v-16.3h-42.62v16.3Zm39.74,20.91l2.89-2.74v-13.99h-42.62v16.73h39.74Z"/><path class="uuid-591bf980-ac7e-4dc1-b2d4-a8d12e840a60" d="M731.38,484.3s8.39,7.64,13.34,12.69c-.41,1.59-1.79,2.31-3.71,2.31h-17.6v21.34c-.14,1.15-7.7,4.62-12.93,4.62h-2.61v-8.65h-22v10.1c0,11.39-2.75,17.59-22.27,19.33-.55-4.9-1.38-8.51-3.85-10.82-2.61-2.31-6.05-4.18-14.02-5.34v-2.02s17.05,1.15,20.35,1.15c2.47,0,3.44-.86,3.44-2.74v-9.66h-40.29l-1.24-4.04h41.52v-13.27h-54.31l-1.1-4.04h55.41v-13.27h-39.19l-1.24-3.89h40.42v-13.27h-21.59v3.46c0,1.44-7.43,5.05-14.02,5.05h-2.2v-38.07l17.33,6.92h20.49v-11.39h-53.9l-1.24-4.04h55.14v-16.44l21.31,2.16c-.14,2.16-1.51,3.61-4.95,4.18v10.1h29.7l9.21-11.83s10.18,7.93,16.64,13.56c-.28,1.59-1.79,2.31-3.85,2.31h-51.7v11.39h21.04l7.43-8.22,15.4,11.97c-.69,1.01-2.47,2.16-4.95,2.74v16.73c-.14,1.01-8.25,4.33-13.61,4.33h-2.89v-4.9h-22.41v13.27h20.62l7.15-8.22,14.99,11.68c-.83,1.15-2.47,2.31-5.22,2.88v10.82h.69l7.29-10.96Zm-61.87-23.51v-14.57h-21.59v14.57h21.59Zm16.36-14.57v14.57h22.41v-14.57h-22.41Zm0,49.03h22v-13.27h-22v13.27Zm22,4.04h-22v13.27h22v-13.27Z"/><path class="uuid-591bf980-ac7e-4dc1-b2d4-a8d12e840a60" d="M675.28,588.56l15.12,14.42c-.96,1.59-2.34,2.16-5.77,2.6-6.05,43.12-19.66,82.35-70.26,101.68l-1.24-1.73c21.86-13.41,35.47-32.45,44-54.95-3.02,1.73-7.01,1.59-11.14-1.87-.69-7.36-4.13-15.29-8.39-21.63-6.32,10.1-13.75,18.46-22.27,25.24l-1.65-1.15c12.24-19.47,22.14-48.75,25.44-79.32l22.55,5.34c-.55,1.87-2.06,3.17-5.36,3.32-1.51,6.35-3.3,12.12-5.23,17.74h15.54l8.66-9.66Zm-25.57,13.7c-2.89,7.5-6.05,14.42-9.49,20.62,12.93,3.61,19.11,9.95,20.76,15.72,3.44-11.54,5.5-23.65,6.88-36.34h-18.15Zm61.19,15.43c46.75,12.26,35.34,46.58,18.29,35.05-3.02-10.38-10.86-21.78-18.29-30.58v80.04c0,1.59-7.01,5.05-13.2,5.05h-3.3v-134.56l21.45,2.16c-.28,2.02-1.24,3.46-4.95,4.04v38.79Z"/></g><g><path class="uuid-fe9290fe-d65f-4c7d-8270-27fb242fab03" d="M642.94,251.13c-.07,.51-.34,.92-1.39,1.05v24.85c0,.41-1.56,1.19-3.03,1.19h-.65v-27.6l5.07,.51Zm-2.14-4.9c8.77,.75,6.19,7.28,2.72,5.17-.44-1.73-1.8-3.74-3.03-4.93l.31-.24Zm18.83,24.31c.78,.31,.92,.68,.92,1.19,0,1.16-1.02,1.7-4.25,1.7h-1.77c-2.31,0-2.62-.65-2.62-2.52v-5.98h-1.26c-.34,4.08-1.6,7.89-8.09,10.44l-.41-.48c4.22-2.75,4.96-5.92,5.13-9.21-.54,.34-1.6,.71-2.62,.71h-.48v-10.3l3.6,1.43h4.25c.71-1.77,1.46-4.18,1.9-5.88l4.66,1.53c-.17,.37-.58,.61-1.33,.54-1.02,1.12-2.48,2.62-3.98,3.81h1.53l1.53-1.6,3.23,2.41c-.17,.2-.54,.41-1.05,.51v6.19c-.03,.27-1.77,.92-2.86,.92h-.58v-1.02h-.17v5.37c0,.34,.07,.44,.58,.44h2.04c.24,0,.37-.07,.51-.31,.24-.41,.65-1.7,1.05-3.13h.41l.1,3.23Zm-13.53-18.66c7.41,1.63,4.59,6.9,1.84,4.79-.2-1.53-1.26-3.43-2.14-4.62l.31-.17Zm1.53,6.63v5.44h7.48v-5.44h-7.48Zm18.94-8.5c-.24,.27-.71,.58-1.39,.68v23.02c0,2.58-.58,4.08-5.07,4.52-.1-1.19-.31-2.11-.88-2.65-.58-.58-1.39-1.02-3.2-1.26v-.51s3.84,.27,4.62,.27c.65,0,.82-.24,.82-.78v-23.22h-13.05l-.31-.95h13.02l1.7-2.01,3.74,2.89Z"/><path class="uuid-fe9290fe-d65f-4c7d-8270-27fb242fab03" d="M647.13,303.9c-.92,1.19-2.89,3.47-5.34,5.88-.27,.75-.71,1.26-1.12,1.53l-2.79-4.22c1.53-.82,1.77-1.12,1.77-1.87v-14.69h-3.91l-.31-.99h4.25l1.77-1.77,3.3,2.72c-.17,.24-.58,.51-1.39,.65v14.04c1.16-.51,2.41-1.05,3.64-1.63l.14,.34Zm-8.98-23.25c9.38,1.39,6.56,8.19,2.99,5.88-.54-1.97-2.04-4.18-3.3-5.68l.31-.2Zm25.63,18.53s2.35,1.84,3.77,3.13c-.07,.37-.44,.54-.92,.54h-9.45c-2.31,4.79-6.42,7.75-13.8,9.49l-.17-.41c5.37-1.9,8.67-4.83,10.4-9.08h-8.6l-.27-.99h9.25c.95-2.79,1.36-6.09,1.33-9.96l5.51,.78c-.1,.37-.37,.61-1.29,.61-.34,3.33-.95,6.15-1.94,8.57h4.11l2.07-2.69Zm-10.3-8.84v-4.15h-6.53l-.27-.95h6.8v-4.9l4.9,.44c-.07,.44-.34,.75-1.16,.88v3.57h2.86l1.97-2.58s2.31,1.73,3.67,2.99c-.1,.37-.44,.54-.92,.54h-7.58v4.15h5.27l1.97-1.97,3.47,3.3c-.27,.24-.65,.34-1.33,.37-1.09,1.36-2.96,3.23-4.45,4.35l-.34-.24c.34-1.36,.71-3.33,.95-4.83h-17.24l-.27-.99h8.23Zm-6.73,6.53c7.92-.24,6.02,5.81,2.86,4.18-.44-1.43-1.87-3.06-3.13-3.91l.27-.27Zm1.53-4.45c7.82-.54,6.05,5.58,2.89,4.01-.48-1.36-1.87-2.92-3.16-3.74l.27-.27Zm9.28,11.66c11.97,2.07,10.27,9.69,6.32,7.72-1.29-2.55-4.28-5.58-6.63-7.45l.31-.27Z"/><path class="uuid-fe9290fe-d65f-4c7d-8270-27fb242fab03" d="M663.95,316.48s2.41,1.8,3.84,3.09c-.1,.37-.48,.54-.99,.54h-7.62c3.54,1.29,3.47,3.67,2.24,4.59l2.55,2.45c-.37,.27-1.09,.34-2.11-.07-2.62,.54-5.81,1.02-9.21,1.46v3.5l5.51-.54,1.73-2.52s2.31,1.43,3.71,2.41c-.03,.37-.34,.61-.82,.65l-10.13,.95v3.5l8.63-.85,1.84-2.82s2.52,1.53,4.08,2.62c-.03,.37-.41,.61-.88,.65l-13.67,1.39v3.09c0,.68,.31,.88,1.73,.88h4.28c1.46,0,2.86-.03,3.5-.07,.54-.03,.95-.14,1.19-.41,.37-.48,.99-1.7,1.63-3.3h.34l.14,3.33c1.33,.44,1.67,.95,1.67,1.73,0,1.77-1.56,2.38-8.87,2.38h-4.45c-4.11,0-5.27-.68-5.27-3.67v-3.57l-12.31,1.22-.37-.95,12.68-1.22v-3.54l-9.25,.88-.34-.95,9.59-.92v-3.43c-3.77,.34-7.62,.58-11.29,.65l-.07-.58c7.24-.92,16.15-2.89,21.59-4.76-.14-1.46-.85-3.06-1.56-4.18h-1.5c-1.29,2.35-2.89,4.35-4.69,5.85l-.44-.27c.68-1.53,1.33-3.54,1.9-5.64-.14,.03-.27,.03-.41,.03h-6.87c5.54,2.58,2.28,7.28-.31,4.83,.07-1.6-.51-3.47-1.26-4.83h-.71c-1.8,3.2-4.05,5.68-6.63,7.41l-.44-.27c2.07-3.16,3.98-8.13,4.83-13.02l5.37,1.6c-.17,.41-.58,.68-1.36,.68-.37,.92-.78,1.8-1.22,2.65h4.18l1.9-2.58s1.8,1.46,3.13,2.65c.37-1.6,.71-3.26,.92-4.86l5.2,1.36c-.14,.44-.51,.75-1.29,.75-.37,.92-.82,1.84-1.26,2.69h5.64l2.04-2.65Z"/><path class="uuid-fe9290fe-d65f-4c7d-8270-27fb242fab03" d="M648.15,370.5c-1.09,1.43-3.13,4.18-5.81,7.17-.24,.71-.68,1.19-1.09,1.46l-2.79-4.25c1.39-.82,1.63-1.12,1.63-1.87v-14.01h-4.18l-.27-.99h4.52l1.8-1.84,3.3,2.79c-.2,.24-.58,.51-1.33,.65v12.85c1.29-.68,2.62-1.46,4.01-2.28l.2,.31Zm-9.69-22.06c10.57,1.53,7.96,9.15,4.05,6.83-.78-2.31-2.72-4.93-4.32-6.63l.27-.2Zm27.67,26.69c1.22,.41,1.56,.82,1.56,1.53,0,1.7-1.7,2.14-9.01,2.14h-4.73c-4.08,0-5.2-.61-5.2-3.43v-14.89l4.32,1.63h7.38v-9.83h-13.02l-.31-.99h12.92l1.94-2.21,4.11,3.2c-.27,.34-.85,.71-1.7,.88v11.8c-.03,.24-2.01,.92-3.33,.92h-.61v-2.82h-7.82v11.59c0,.71,.27,.92,1.8,.92h4.59c1.7,0,3.16-.03,3.81-.07,.58-.03,.85-.17,1.16-.51,.41-.65,.99-2.21,1.67-4.39h.37l.1,4.52Z"/><path class="uuid-fe9290fe-d65f-4c7d-8270-27fb242fab03" d="M613.16,263.84s2.52,1.94,4.05,3.3c-.1,.37-.44,.54-.95,.54h-20.98l-.27-.99h15.91l2.24-2.86Zm8.53-13.87s2.62,1.9,4.22,3.3c-.1,.37-.48,.54-.99,.54h-19.62c-.34,2.11-.68,4.25-.99,5.92h14.52l2.21-2.14,3.74,3.2c-.31,.31-.75,.51-1.53,.61-.68,8.26-2.01,13.7-4.21,15.4-1.29,1.09-2.82,1.53-5.24,1.53,0-1.19-.2-2.21-.85-2.79-.68-.68-2.31-1.26-4.11-1.6l.03-.44c1.94,.17,4.96,.41,5.88,.41,.68,0,1.02-.1,1.43-.44,1.33-1.02,2.38-6.05,2.96-12.78h-14.75l-1.46,1.8-3.81-2.21c.27-.27,.71-.54,1.16-.82,.78-3.64,1.73-10.33,1.9-13.16l5.24,1.05c-.14,.41-.48,.82-1.33,.78-.14,1.22-.37,2.89-.65,4.69h13.94l2.31-2.86Z"/><path class="uuid-fe9290fe-d65f-4c7d-8270-27fb242fab03" d="M618.97,290.94l2.82-3.94s3.13,2.72,5,4.49c-.1,.37-.48,.54-1.05,.54h-30.46l-.31-1.09h24Z"/><path class="uuid-fe9290fe-d65f-4c7d-8270-27fb242fab03" d="M594.6,321.71c.75-.03,1.73-.14,2.92-.27v-11.59l4.39,.41c-.07,.37-.27,.65-1.02,.75v10.06l2.48-.27v-15.23l4.93,.44c-.07,.48-.34,.82-1.22,.95v6.15h.61l1.7-2.48s1.94,1.73,3.03,2.89c-.1,.37-.41,.54-.88,.54h-4.45v6.26c1.56-.2,3.2-.41,4.83-.61l.07,.48c-3.23,1.26-7.82,2.86-14.58,4.96-.24,.44-.58,.71-.95,.82l-1.84-4.25Zm27.64,10.61s2.45,1.9,3.94,3.23c-.1,.37-.48,.54-.99,.54h-29.24l-.31-.99h24.41l2.18-2.79Zm-22.4-5.44h17.2l2.07-2.65s2.38,1.8,3.81,3.06c-.1,.37-.44,.54-.92,.54h-21.89l-.27-.95Zm25.5-7.31c1.05,.44,1.33,.85,1.33,1.56,0,1.6-1.5,2.31-6.8,2.31h-3.23c-3.33,0-4.08-.71-4.08-3.37v-14.52l4.86,.48c-.03,.41-.34,.75-1.09,.85v6.36c2.24-1.33,4.49-2.99,5.64-4.28l3.91,2.92c-.34,.34-.92,.41-1.94,.14-1.87,.85-4.72,1.73-7.62,2.31v4.79c0,.58,.17,.75,1.19,.75h2.72c1.02,0,1.94,0,2.31-.03,.41-.03,.68-.14,.92-.41,.27-.51,.82-2.07,1.36-3.81h.41l.1,3.94Z"/><path class="uuid-fe9290fe-d65f-4c7d-8270-27fb242fab03" d="M599.39,359.25c2.07,4.62,.85,7.92-1.02,9.01-1.26,.82-2.99,.41-3.47-1.02-.44-1.39,.41-2.41,1.53-3.03,1.29-.75,2.69-2.69,2.55-4.93l.41-.03Zm3.98-2.28c0,.41-1.73,1.33-3.43,1.33h-.58v-17.95l4.28,1.7h14.21l1.87-2.04,3.88,2.96c-.2,.27-.68,.61-1.39,.75v12.95c-.03,.24-2.01,1.02-3.33,1.02h-.68v-1.84h-14.82v1.12Zm15.84,9.42c1.22,.41,1.5,.88,1.5,1.6,0,1.73-1.63,2.31-8.46,2.31h-4.42c-3.91,0-4.83-.61-4.83-3.37v-8.23l5.07,.41c-.07,.48-.37,.75-1.05,.88v6.15c0,.51,.17,.65,1.46,.65h4.22c1.46,0,2.82,0,3.37-.03,.58-.03,.78-.14,1.05-.51,.41-.58,.95-1.97,1.63-4.01h.37l.1,4.15Zm-15.84-23.36v5.3h5.51v-5.3h-5.51Zm5.51,11.83v-5.58h-5.51v5.58h5.51Zm-.1,2.14c9.76,2.07,6.02,9.42,2.38,6.49-.1-2.21-1.33-4.69-2.65-6.29l.27-.2Zm3.94-13.97v5.3h5.47v-5.3h-5.47Zm5.47,11.83v-5.58h-5.47v5.58h5.47Zm.99,4.18c11.12,3.03,7.38,11.59,3.33,8.26-.2-2.82-1.8-5.95-3.64-8.02l.31-.24Z"/><path class="uuid-fe9290fe-d65f-4c7d-8270-27fb242fab03" d="M622.88,381.18s2.28,1.84,3.64,3.13c-.1,.37-.48,.54-.95,.54h-10.95c-2.28,1.63-4.83,3.16-7.58,4.59h10.91l2.04-2.65s2.28,1.8,3.6,3.09c-.07,.37-.44,.54-.92,.54h-11.69c-.37,1.22-.92,2.89-1.36,4.15h7.34l2.01-1.84,3.5,2.86c-.24,.31-.65,.51-1.36,.58-.54,4.22-1.56,7.11-3.3,8.19-1.09,.68-2.45,1.02-4.42,1.02,0-1.02-.14-1.94-.78-2.48-.65-.61-2.07-1.09-3.67-1.39v-.44c1.7,.14,4.49,.31,5.24,.31,.54,0,.85-.03,1.19-.27,.75-.48,1.43-2.58,1.84-5.54h-7.65l-1.46,1.67-3.71-2.24c.34-.27,.82-.58,1.33-.82,.41-1.12,.88-2.65,1.16-3.74h-1.8c-3.3,1.56-6.83,2.92-10.54,3.94l-.2-.48c5.47-2.31,10.64-5.54,15.09-9.04h-14.01l-.27-.95h10.78v-4.56h-7.79l-.27-.95h8.06v-4.83l5.24,.41c-.07,.44-.27,.75-1.12,.88v3.54h1.67l1.87-2.55s1.63,1.36,2.86,2.55c1.29-1.39,2.41-2.75,3.33-4.11l4.66,2.82c-.2,.34-.58,.51-1.39,.31-1.84,2.18-4.25,4.35-7.11,6.49h5l1.97-2.72Zm-12.85,2.72h.58c1.8-1.5,3.47-3.03,4.93-4.56h-5.51v4.56Z"/></g></g></svg>