<?xml version="1.0" encoding="UTF-8"?><svg id="uuid-9065588c-cc6f-4ac9-b38a-6dbbf91cc254" xmlns="http://www.w3.org/2000/svg" viewBox="0 0 1366 768"><defs><style>.uuid-780c70f2-8049-4502-ac34-680d64ad70e1{fill:none;stroke:#2063b4;stroke-linecap:round;stroke-linejoin:round;stroke-width:6px;}.uuid-83230bf2-f57e-42ec-9cf9-ae78d82f55b9{fill:#ccc;}</style></defs><rect class="uuid-83230bf2-f57e-42ec-9cf9-ae78d82f55b9" width="1366" height="768"/><g><path class="uuid-780c70f2-8049-4502-ac34-680d64ad70e1" d="M749.38,404.01c3.36,5.82,68.09-47.07,71.45-41.25"/><path class="uuid-780c70f2-8049-4502-ac34-680d64ad70e1" d="M615.31,430.36c10.66,18.47,222.45-153.05,233.11-134.59,9.64,16.69-209.83,117.36-200.19,134.05,9.11,15.78,186.01-128.44,195.13-112.66,8.81,15.25-190.95,108.39-182.15,123.64,8.08,13.99,165.24-114.06,173.31-100.06s-174.17,100.4-166.11,114.38c3.64,6.31,77.41-53.11,81.05-46.8s-74.23,52.82-70.55,59.2c4.1,7.1,82.64-57.18,86.74-50.08s-84.38,57.66-80.26,64.81c4.54,7.86,92.91-64.11,97.44-56.26s-94.63,62.55-90.06,70.47,97.88-67.37,102.58-59.22-100.44,65.31-95.61,73.68,100.41-68.84,105.11-60.69-101.17,65.66-96.31,74.08,97.05-66.87,101.74-58.74c4.75,8.23-98.69,64.48-93.94,72.71s98.65-67.82,103.35-59.67-98.1,64.2-93.37,72.38,94.92-65.71,99.64-57.53c4.82,8.34-100.18,65.19-95.36,73.53s99.61-68.53,104.38-60.27-99.93,65.07-95.13,73.4c4.85,8.4,97.29-67.37,102.14-58.97,4.51,7.81-93.11,61.82-88.6,69.63s92.03-63.44,96.49-55.71c3.28,5.69-65.03,48.43-61.74,54.12s67.69-46.84,71.05-41.02c2.31,4-42.38,37.61-40.07,41.61s44.54-30.92,46.8-27.02c1.21,2.1-15.54,24.64-14.33,26.75,1.15,1.99,23.05-15.96,24.2-13.97"/><path class="uuid-780c70f2-8049-4502-ac34-680d64ad70e1" d="M618.59,267.75c6.76,11.72,138.62-95.65,145.39-83.94,5.74,9.94-121.15,75.17-115.41,85.11,6.23,10.8,129.16-88.96,135.39-78.17,5.19,8.98-108.62,69.21-103.43,78.19,5.51,9.54,115.92-79.64,121.42-70.1,4.95,8.58-103.24,66.65-98.29,75.22s106.06-72.92,111.12-64.16c4.94,8.56-102.99,66.53-98.05,75.08,5.07,8.79,104.41-72,109.48-63.21,5.41,9.38-113.8,71.67-108.38,81.05s108.73-75.06,114.05-65.85c6.06,10.49-128.5,78.67-122.44,89.17,5.99,10.37,125.4-86.23,131.39-75.86"/><path class="uuid-780c70f2-8049-4502-ac34-680d64ad70e1" d="M482.77,184.54c.45,.78,11.79-7.84,12.24-7.07,1.15,1.99-13.79,23.78-12.64,25.77,2.02,3.5,41.27-28.49,43.29-24.99,2.41,4.18-44.73,38.73-42.32,42.91,3.49,6.05,71.1-49.12,74.6-43.07,3.95,6.84-80.28,55.71-76.33,62.55,4.97,8.61,103.65-71.33,108.62-62.71,5.46,9.45-114.77,72.14-109.31,81.59,6.46,11.18,134.66-92.66,141.11-81.47,6.88,11.91-147.15,87.55-140.27,99.46,7.93,13.74,165.87-114.09,173.8-100.35,8.44,14.62-182.7,104.46-174.26,119.09,9.4,16.28,193.46-133.4,202.86-117.12s-210.11,117.5-200.46,134.21c10.84,18.78,220.99-152.63,231.83-133.85s-244.73,133.96-233.55,153.32c12.2,21.13,250.81-172.97,263.01-151.85s-275.57,148.63-263.03,170.34c5.79,10.03,118.3-81.67,124.09-71.64,6.07,10.52-128.83,78.83-122.76,89.35,5.81,10.06,118.12-81.61,123.93-71.55,6.14,10.63-130.27,79.51-124.13,90.14,5.81,10.06,119.76-82.55,125.57-72.5,6.21,10.76-132,80.34-125.79,91.1,5.83,10.1,119.16-82.26,124.99-72.16,6.29,10.89-133.76,81.18-127.47,92.07,7.01,12.14,147.68-101.45,154.69-89.31,7.5,12.99-161.26,94.26-153.76,107.25,8.43,14.59,173.17-119.43,181.59-104.84,8.75,15.16-189.75,107.81-181,122.97,16.6,28.75,344.26-237.09,360.86-208.34,17,29.44-376.76,196.74-359.76,226.19,16.79,29.08,344.72-237.8,361.51-208.72,17.2,29.79-381.34,198.92-364.14,228.71s351.68-242.01,368.56-212.79c17.32,29.99-383.95,200.16-366.63,230.15,5.76,9.97,120.08-82.62,125.84-72.65,6.17,10.68-131,79.86-124.84,90.55,5.79,10.03,117.24-81.06,123.03-71.03,6.21,10.76-131.96,80.32-125.75,91.08,5.79,10.02,120.02-82.66,125.81-72.64,6.07,10.52-128.85,78.84-122.78,89.36,5.79,10.02,117-80.91,122.79-70.89s-127.77,78.33-121.74,88.76c5.68,9.84,118.78-81.7,124.46-71.86,4.72,8.18-98.05,64.18-93.33,72.36,4.19,7.26,86.62-59.69,90.81-52.43,3.17,5.49-62.41,47.18-59.24,52.68,2.7,4.68,55.44-38.24,58.14-33.57,1.73,2.99-28.42,30.9-26.7,33.89,1.21,2.09,27.9-18.9,29.11-16.81"/></g></svg>