<?xml version="1.0" encoding="utf-8"?>
<!-- Generator: Adobe Illustrator 27.0.0, SVG Export Plug-In . SVG Version: 6.00 Build 0)  -->
<svg version="1.1" id="uuid-9ff686ef-3c77-4971-88c4-3a8b59081ca6"
	 xmlns="http://www.w3.org/2000/svg" xmlns:xlink="http://www.w3.org/1999/xlink" x="0px" y="0px" viewBox="0 0 1390 792"
	 style="enable-background:new 0 0 1390 792;" xml:space="preserve">
<style type="text/css">
	.st0{fill:url(#SVGID_1_);stroke:#A67C52;stroke-width:24;stroke-miterlimit:10;}
	.st1{fill:#C69C6D;}
	.st2{fill:#FFFFFF;}
</style>
<linearGradient id="SVGID_1_" gradientUnits="userSpaceOnUse" x1="12" y1="396" x2="1378" y2="396" gradientTransform="matrix(1 0 0 -1 0 792)">
	<stop  offset="0" style="stop-color:#3E3025"/>
	<stop  offset="1" style="stop-color:#937A5F"/>
</linearGradient>
<rect x="12" y="12" class="st0" width="1366" height="768"/>
<g>
	<path class="st1" d="M544.6,264.9c6,31.5,25.7,62.9,73.4,82.1l-0.3,1.9c-10.4,1.9-16.5,8.2-18.4,19.8
		c-39.7-24.2-52.5-65.6-57.1-99.7c-5.1,40.5-22.2,75.3-84,99.7l-1.5-2.6c47.4-28.6,60.7-62.4,64.4-101.2h-61.5l-1.4-4.9h63.2
		c1.2-16,1-33.1,1-50.8l28.6,2.7c-0.5,2.6-2,4.3-6.1,4.9c-0.3,14.8-0.5,29.3-1.7,43.1h38.3l12.6-15.5c0,0,13.8,10.4,22.3,17.7
		c-0.5,1.9-2.4,2.7-4.9,2.7H544.6L544.6,264.9z"/>
	<path class="st2" d="M741.2,245.9c-1.2,1.5-3.8,2.9-7.2,3.6V351c-0.2,1.4-9.2,5.6-15.8,5.6h-2.9v-13.5h-25.9v12.6
		c0,2.2-7.2,6.5-15.3,6.5H671V233.4l19.1,8h1c1.2-9.4,2.7-22.7,3.6-32.2l27.6,6.6c-0.7,2.9-3.1,4.1-7,4.1
		c-4.4,6-11.1,14.8-16.5,21.5h14.8l9-10.2L741.2,245.9L741.2,245.9z M689.4,246.4v42.2h25.9v-42.2H689.4z M715.3,338.4v-44.8h-25.9
		v44.8H715.3z M824.3,245.9c-1.4,1.5-3.6,2.7-7.5,3.2c-1.2,68.7-3.6,99.8-12.9,109.9c-6.1,6.5-13.6,9.2-24.9,9.2
		c0-6.5-0.9-11.2-3.8-14c-3.1-3.2-9.7-6-18.1-7.5l0.2-2.4c8.2,0.7,19.9,1.5,24.4,1.5c3.1,0,4.6-0.7,6.3-2.2c6.3-5.8,8-39.7,9.2-97.8
		h-31.7c-8.2,14.5-17.9,26.6-28.8,35.8l-2.2-1.4c9.4-17.4,18.6-45.1,23-71.2l26.9,7.8c-0.7,2.2-2.7,3.4-6.6,3.4
		c-2.9,7.3-6,14.1-9.5,20.6h27.1l10.7-11.1L824.3,245.9L824.3,245.9z M749,275.7c49.8,14.6,31.2,51.5,13.1,36.3
		c-0.9-12.1-7.7-25.9-14.5-35.3L749,275.7L749,275.7z"/>
	<g>
		<path class="st2" d="M686.8,417.8c12,5.2,16.4,10,16.4,18.8c0,10.6-8.4,17.7-22.4,17.7c-6.7,0-13.7-1.9-18.2-4.8l0.5-13.5h4.5
			l3.4,13c2.8,1.2,5.3,1.6,8.8,1.6c8.3,0,13.3-3.9,13.3-10.6c0-5.7-2.8-8.5-9.9-11.5l-3.7-1.6c-10.2-4.5-16.1-9.7-16.1-19
			c0-10.7,8.8-16.8,21-16.8c6.3,0,11.5,1.8,15.7,4.5l-0.6,12.7H695l-3.4-12.5c-1.9-0.9-3.7-1.2-6.1-1.2c-7.1,0-12.1,3.6-12.1,10
			c0,5.7,3.3,8.8,9.3,11.4L686.8,417.8L686.8,417.8z"/>
		<path class="st2" d="M786,450.2v2.5h-21.9v-2.5l5.6-0.7c0.1-4.6,0.2-11.2,0.2-15.8v-9.9c0-7.6-2.1-9.9-6.3-9.9
			c-3.4,0-6.8,1.7-10.5,5.4c0.2,1.4,0.3,2.9,0.3,4.5v9.9c0,4.6,0.1,11.3,0.2,15.9l5.3,0.6v2.5h-22v-2.5l5.8-0.7
			c0.1-4.6,0.2-11.2,0.2-15.8v-9.8c0-7.4-2-10-6.3-10c-3.2,0-6.7,2-10.2,5.4v14.4c0,4.5,0.1,11.3,0.2,15.9l5.3,0.6v2.5h-22.2v-2.5
			l5.9-0.7c0.1-4.6,0.2-11.4,0.2-15.8v-5.8c0-5.4,0-8.3-0.3-12.1l-6.4-0.6v-2l15.6-4.9l1.1,0.7l0.6,7.3c4.7-5.4,9.5-8.1,15-8.1
			c5.8,0,9.6,2.7,11.3,8.4c5.2-6.2,10.1-8.4,15.4-8.4c8.4,0,12.5,4.9,12.5,15.9v9.7c0,4.6,0.1,11.3,0.2,15.9L786,450.2L786,450.2z"
			/>
		<path class="st2" d="M834.9,448.4c-2.1,4-4.9,5.6-9.2,5.6c-4.9,0-7.8-2.8-8.8-7.1c-4.5,4.7-7.6,7.2-13.6,7.2
			c-6.8,0-11.8-4-11.8-10.9s3.7-10.7,16.2-14.6c2.4-0.8,5.7-1.7,8.8-2.4V422c0-8.6-2.2-10.9-8.3-10.9c-1.4,0-2.8,0.2-4.2,0.5
			l-1.1,5.8c-0.3,4.5-2.5,6.2-5.3,6.2s-4.4-1.3-4.9-3.7c1.1-7.3,7.8-11.8,19.1-11.8c10.6,0,15.1,4.6,15.1,16V445
			c0,3.6,1.1,4.9,2.9,4.9c1.2,0,2.2-0.7,3.6-2.7L834.9,448.4L834.9,448.4z M816.5,428.5c-2.4,0.7-4.7,1.4-6.1,2
			c-6.4,2.5-8.8,6.2-8.8,11.3s2.6,7,6.5,7c2.7,0,4.7-1.2,8.4-4.3L816.5,428.5L816.5,428.5z"/>
		<path class="st2" d="M861.2,450.2v2.5h-23.5v-2.5l6.2-0.7c0.2-5.1,0.2-10.7,0.2-15.8v-41.1l-6.6-0.5v-2.3l16.3-3.5l1.1,0.7
			l-0.3,12.9v33.7c0,5.1,0.1,10.7,0.2,15.9L861.2,450.2L861.2,450.2z"/>
		<path class="st2" d="M889.6,450.2v2.5h-23.5v-2.5l6.2-0.7c0.2-5.1,0.2-10.7,0.2-15.8v-41.1l-6.6-0.5v-2.3l16.3-3.5l1.1,0.7
			l-0.3,12.9v33.7c0,5.1,0.1,10.7,0.2,15.9L889.6,450.2L889.6,450.2z"/>
		<path class="st2" d="M721.7,492.8l-7.5,1l-0.4,56.5h-5.6l-35.8-50.4l0.2,46.2l10.4,1v2.8h-21.9v-2.8l7.5-1l0.4-51l-1.3-1.7
			l-6.2-0.7v-2.9h17.1l31.8,44.1l-0.2-40l-10.5-1.1v-2.9h21.9L721.7,492.8L721.7,492.8z"/>
		<path class="st2" d="M725.4,528.2c0-14.5,10.1-22.9,21.9-22.9s21.9,8.3,21.9,22.9s-9.5,23.1-21.9,23.1S725.4,542.7,725.4,528.2z
			 M757.8,528.3c0-13.4-3.9-19.9-10.5-19.9s-10.5,6.6-10.5,19.9s3.7,20,10.5,20S757.8,541.8,757.8,528.3z"/>
		<path class="st2" d="M803.4,545.6c-2.4,3.7-6.2,5.8-11.7,5.8c-7.5,0-11.6-3.7-11.6-11.9c0-2.6,0.1-4.9,0.1-8.1v-21.2h-7v-2.7
			l7.5-0.8l3.5-12.7h7l-0.2,12.8h10.7v3.4h-10.8v30c0,4.5,2,6.4,5.3,6.4c2.1,0,3.6-0.8,5.8-2.4L803.4,545.6L803.4,545.6z"/>
		<path class="st2" d="M818.1,528.2c0.3,12.4,6.5,17.8,14.4,17.8c5.8,0,9.3-2.4,12.2-6.2l1.6,1.1c-3.2,6.7-9.4,10.5-17.4,10.5
			c-12.7,0-22-8.3-22-23s10.7-22.9,22.1-22.9s17.8,7.5,17.8,17.8c0,2.1-0.2,3.7-0.6,5L818.1,528.2L818.1,528.2z M831.9,525.2
			c3.7,0,4.6-1.9,4.6-6c0-6.6-3.5-10.8-8.4-10.8s-9.6,4.9-10.1,16.8H831.9L831.9,525.2z"/>
		<path class="st2" d="M875.2,524c8.5,2.8,12,7.1,12,13.4c0,8.3-6.6,13.9-18.6,13.9c-5.8,0-10.4-1.3-15-3.7l0.3-10.5h4.7l2.3,9.8
			c2.1,0.9,4.4,1.3,7.1,1.3c6.5,0,9.9-2.5,9.9-7c0-3.6-1.9-5.8-8.2-7.9l-4.5-1.5c-7-2.2-11.3-6.1-11.3-12.6
			c0-7.8,6.1-13.8,17.2-13.8c5.2,0,9.2,1.3,13.6,3.6l-0.6,9.7h-4.1l-2.5-8.8c-1.9-1-3.8-1.5-6.2-1.5c-5.4,0-8.4,2.6-8.4,6.6
			c0,3.4,1.8,5.6,8,7.6L875.2,524L875.2,524z"/>
	</g>
	<path class="st1" d="M546.1,401c-0.3,2.6-1.9,4.3-6.3,4.8c3.6,65.6,19.6,105.3,77.9,126.8l-0.3,2c-10.2,1.9-16.7,8.9-18.9,19.9
		c-42.9-22.8-55.7-62.9-60-117.2c-3.1,43.8-15.3,87.4-79.4,118.1l-1.9-2.4c62.3-45.5,60.7-100.5,60.8-154.7L546.1,401L546.1,401z"/>
	<path class="st1" d="M948.2,499c5.7,0,10.2,4.6,10.2,10.2l0,0v21.7c0,1.9-0.8,3.7-2.1,5l-17.7,17.7c-1.3,1.3-3.1,2.1-5,2.1h-21.7
		c-5.7,0-10.2-4.6-10.2-10.2v-36.3c0-5.7,4.6-10.2,10.2-10.2L948.2,499L948.2,499z M948.2,503.7h-36.3c-3.1,0-5.5,2.5-5.5,5.5v36.3
		c0,3,2.5,5.5,5.5,5.5h21.3v-10.2c0-5.4,4.2-9.9,9.7-10.2l0.6,0h10.2v-21.3C953.7,506.2,951.2,503.7,948.2,503.7L948.2,503.7z
		 M950.4,535.2h-6.9c-2.9,0-5.3,2.2-5.5,5.1l0,0.5v6.9L950.4,535.2L950.4,535.2L950.4,535.2z"/>
</g>
</svg>
