<?xml version="1.0" encoding="utf-8"?>
<!-- Generator: Adobe Illustrator 27.0.0, SVG Export Plug-In . SVG Version: 6.00 Build 0)  -->
<svg version="1.1" id="uuid-48dd0a43-0d89-4719-aa4a-682dc8154f8b"
	 xmlns="http://www.w3.org/2000/svg" xmlns:xlink="http://www.w3.org/1999/xlink" x="0px" y="0px" viewBox="0 0 1368.4 769.6"
	 style="enable-background:new 0 0 1368.4 769.6;" xml:space="preserve">
<style type="text/css">
	.st0{fill:#FDFD9C;}
	.st1{fill:#270E0B;}
	.st2{fill:#77481C;}
	.st3{fill:#1D192A;}
	.st4{fill:#580714;}
	.st5{fill:#B7763C;}
	.st6{fill:#6E596D;}
	.st7{fill:#51425C;}
	.st8{fill:#FBD865;}
	.st9{fill:#9A1830;}
	.st10{fill:#8B6D77;}
	.st11{fill:#FDFAF2;}
	.st12{fill:#302641;}
	.st13{fill:#EAC9AC;}
	.st14{fill:#E76409;}
</style>
<rect x="0" class="st0" width="1368" height="768"/>
<path class="st0" d="M624,459.9c-7.3,0-9.4,6.9-14,10.5c-8.1,6.3-13.9,15.2-23,20.5v-172c5.3-1.6,7.7,2.9,10.8,5.5
	c24.8,21.4,49.5,43,74.3,64.5c-0.4,4.1-4.3,4.4-6.8,6.2c-6.7,4.8-13.4,9.6-20,14.5c-3.5,2.6-5.4,5.3,0.6,7.3
	c6.3,5.7,12.5,11.3,18.8,17c-2.8,4.4-6.7,8.1-7.9,13.4c-3.9,5.1-7.7,10.3-11.6,15.4c-2.6-2.5-5.2-4.9-7.8-7.4
	C629.4,447.6,627.2,448.4,624,459.9L624,459.9z"/>
<g>
	<path class="st1" d="M239.7,767.6H74.2c-14.9,0.2-30,0.4-45.2,0.4c-9.7,0-19.4,0-29,0c11.4-21.4,26.8-45.9,47.8-70.7
		c9.7-11.4,19.4-21.6,28.7-30.5c6.9,1,10.5,7.9,17,9.6c1,0.9,1.9,1.9,2.9,2.8c0.3-0.4,0.6-0.8,0.9-1.3c-1.1-0.7-2.2-1.4-3.2-2.2
		c-8.2-12.3-19.3-22.2-28.7-33.5c-12.4-14.9-28.4-26.7-37.7-44.2c2.1-3.1,7.6-5,2.5-10.4C20,576.7,10.2,565.3,0.2,554.2
		c0-4.3,0-8.7,0-13.1c13.5,10.5,23.5,24.4,35.2,36.7c5.1,5.3,7.9,5.2,12.7,0c7.6-8.2,15.9-15.8,23.9-23.7c3,2.6,6.2,5,8.9,7.8
		c21.4,22.6,42.5,45.4,63.9,68c27.1,28.6,54.5,57,81.7,85.5C230.9,732.8,235.3,750.2,239.7,767.6L239.7,767.6z"/>
	<path class="st2" d="M226.4,715.4c-27.2-28.5-54.6-56.9-81.7-85.5c-21.4-22.6-42.6-45.4-63.9-68c-2.7-2.8-5.9-5.2-8.9-7.8
		c-1.5-2-2.9-4.1-4.6-5.9C45,524,22.6,499.9,0.2,475.8c0-3.6,0-7.3,0-10.9c9.1-5.2,14.9-14.2,23-20.5c4.6-3.6,6.7-10.5,14-10.5
		c-1.8,6.4-3.5,12.9-5.5,19.8c8,0.5,14.2-4.8,22-3.8c-1.6,7.4-3,14.1-4.4,20.7c7.4,2.7,13.5-3.3,20-0.4c-1.2,6.4-2.3,12.6-3.8,21.3
		c15.3-12.2,24.4-3.8,33.2,6.1c2.4,2.7,5.2,5.1,7.8,7.5c31.2,29.6,62.5,59.2,93.8,88.7c8.7,23.3,15.5,47.3,22.5,71.1
		C220.3,682.1,224.7,698.7,226.4,715.4L226.4,715.4z M117.9,591.4c3,0.1,4.8-1.6,4.9-4.4c0.2-3.3-1.7-5.5-5-5.6
		c-2.7,0-4.8,1.5-4.9,4.5C112.9,589.2,114.3,591.4,117.9,591.4L117.9,591.4z M146.7,608.6c-2.7,0.3-4.6,1.8-4.8,4.7
		c-0.3,3.6,2.1,5.6,5.1,5.6c3.1,0,5.4-2.3,5-5.8C151.7,610.4,149.7,608.8,146.7,608.6L146.7,608.6z M175.2,639.1
		c-0.5-2.9-2-4.6-5.1-4.5c-3.7,0-5.1,2.3-5,5.5c0.1,3,2.2,4.7,4.9,4.6C173.3,644.5,175.1,642.3,175.2,639.1z"/>
	<path class="st3" d="M76.6,666.8c-9.4,9-19.1,19.1-28.7,30.5C26.8,722.1,11.4,746.6,0,768c0-12,0-24,0-36c0-12.9,0.1-25.7,0.1-38.5
		V586.8c2.9-0.4,4.8,1.4,6.5,3.2c13.8,14.8,28.1,29.2,41.1,44.6C57.1,645.7,69.3,654,76.6,666.8L76.6,666.8z"/>
	<path class="st4" d="M85.3,362.9c-24.8-21.5-49.5-43.1-74.3-64.5c-3.1-2.6-5.4-7.1-10.8-5.5v-6.5c3.1,0.1,3.7-2.3,4.5-4.5
		c5.6-0.2,9.2,3.7,13.3,6.4c15.2,9.9,30.3,20.1,46.9,31.1c-1.5-14-2.8-25.9-4.1-37.9c0.5-1.7,0.9-3.4,1.4-5.1c1-1.2,2-2.3,3-3.5
		c1.6,13.9,3,27.9,5.1,41.7c0.8,5.2,2.8,10.1,8,13.4c16.1,10.2,31.9,20.9,47.8,31.6c3.1,2.1,6,4,9.9,2.4l-0.1,0.1
		c-1.2,2.2-0.4,3.7,1.6,4.9c2.1,1.2,4.1,2.4,6.2,3.6l-0.4,0.6l0.4,0.6c-0.1,6.5-5.5,10.1-8.6,14.9c-1.8,0-3.3,0.4-4.3,2.1l0,0
		c-14,0.2-24.3-8.3-35.1-15.4C93.3,368.8,89.3,365.8,85.3,362.9L85.3,362.9z"/>
	<path class="st5" d="M0.2,475.8C22.6,499.9,45,524,67.4,548.2c1.7,1.8,3.1,4,4.6,5.9c-8,7.9-16.3,15.4-23.9,23.7
		c-4.8,5.2-7.6,5.4-12.7,0c-11.7-12.2-21.6-26.2-35.2-36.7C0.2,519.3,0.2,497.6,0.2,475.8L0.2,475.8z"/>
	<path class="st6" d="M226.4,715.4c-1.8-16.8-6.2-33.3-3.7-50.4c6.1-0.7,8.2,4.2,10.1,8.2c14.6,29.9,23.8,61.5,28.6,94.4h-21.8
		C235.3,750.2,230.8,732.8,226.4,715.4L226.4,715.4z"/>
	<path class="st7" d="M76.6,666.8c-7.3-12.8-19.5-21.1-28.8-32.1c-13-15.4-27.3-29.8-41.1-44.6c-1.7-1.9-3.6-3.6-6.5-3.2
		c0-5.1,0-10.2,0-15.2c2.8,2.8,5.6,5.5,8.4,8.3c6.1,6.3,10.6,14.5,19.3,18.1c9.3,17.5,25.3,29.3,37.7,44.2
		c9.4,11.3,20.5,21.2,28.7,33.5l-0.6,0.7C87,674.7,83.5,667.8,76.6,666.8z"/>
	<path class="st5" d="M27.8,598c-8.8-3.5-13.2-11.7-19.3-18.1c-2.7-2.8-5.6-5.5-8.4-8.3c0-5.8,0-11.6,0-17.4
		c10,11.2,19.8,22.5,30.1,33.4C35.4,593,29.9,594.8,27.8,598z"/>
	<path class="st7" d="M135.1,386.6c3.2-4.8,8.5-8.3,8.6-14.9c17.2,0,29.7,9.5,41.1,20.9c13.1,13.1,22.5,28.9,32.7,44.1
		c6.7,19.2,4.7,39.4,6.3,59.1c1.5,19.4,0.5,39,0.6,58.6c0,7.2-1.4,11.5-8.8,4.7c1.4-17.4-3.1-34.5-2.2-51.8c0.2-5.1-2.7-7.6-9-8.3
		c4.6,18.7,0.8,37.3,4.6,55.3c-3.5-2.8-7-5.6-10.5-8.3c-0.4-18.4-2.2-36.6-4.6-54.8c-0.5-4-2.6-7.9-6.3-7.5
		c-4.3,0.5-2.4,5.4-2.2,8.2c1.1,15.8,2.6,31.5,4,47.3c-2-1.5-4.1-3-6.1-4.5c-5-2.3-7.8-6.5-8.7-11.7c-1.1-6.3-1-13-2.7-19.1
		c-2.4-8.8,0.5-19.2-7.9-26.1c-5.6-4.6-11.4-8.8-16.8-13.5c-17.6-15.3-36.9-28.6-53.5-45.1c12.7-9.7,26.8-17.8,37.1-30.4l0,0
		C132.6,388.7,134.2,388.3,135.1,386.6L135.1,386.6z M152.9,397.4c-4.9,2.3-1.8,5.5-0.6,8.1c5.9,13.2,13.1,25.8,23.6,36
		c8.4,8.2,15.9,18,29.1,19c2,0.7,4.3,1.9,3.9-2C206.7,431.1,180.7,402.8,152.9,397.4L152.9,397.4z M146.3,442.9
		c-1.2,11.2,6.8,14.5,12,19.2c1.8,1.6,4.6,6.4,7.8,2.9c3.6-4-1.3-6.4-3.7-8.5C157.7,452.1,152.6,448.2,146.3,442.9L146.3,442.9z"/>
	<path class="st8" d="M37.2,433.9c3.2-11.5,5.4-12.3,13.3-4.6c2.6,2.5,5.2,4.9,7.8,7.4c0.9,1.5,1.5,3.4,2.7,4.5
		c34.7,34.2,69.5,68.4,104.2,102.6c6.6,5.7,10.1,15,20,16.8c6.2,10.6,15.6,19.7,14.9,33.3c-31.2-29.6-62.5-59.1-93.8-88.7
		c-2.6-2.5-5.4-4.9-7.8-7.5c-8.8-9.9-18-18.4-33.2-6.1c1.6-8.7,2.7-14.9,3.8-21.3c-6.5-2.9-12.6,3.1-20,0.4
		c1.4-6.5,2.8-13.3,4.4-20.7c-7.7-1-14,4.3-22,3.8C33.6,446.8,35.4,440.3,37.2,433.9L37.2,433.9z"/>
	<path class="st3" d="M185.3,560.6c-9.9-1.8-13.4-11.1-20-16.8c-1-14.1-5.9-27.4-7.9-41.2c-0.7-5.1-2.7-8.7-6.4-12
		c-19.4-17.2-38.5-34.9-58.5-51.4c-7.4-6.1-12.9-14.7-22.6-18c1.2-5.3,5.2-9,7.9-13.4c6.3,2.4,8.5,10.5,15.9,11.3
		c16.6,16.5,35.9,29.8,53.5,45.1c5.4,4.7,11.3,8.9,16.8,13.5c8.4,6.9,5.5,17.4,7.9,26.1c1.7,6.2,1.6,12.8,2.7,19.1
		c0.9,5.2,3.7,9.4,8.7,11.7C181.9,543.4,186,551.8,185.3,560.6L185.3,560.6z"/>
	<path class="st9" d="M136,361.9c-3.9,1.6-6.8-0.3-9.9-2.4c-15.8-10.6-31.6-21.4-47.8-31.6c-5.3-3.3-7.3-8.2-8-13.4
		c-2.1-13.8-3.4-27.8-5.1-41.7c3.5-9,7.2-17.9,13.2-25.6c7.2,26.7,14.5,53.4,22.2,82c2.5-4.4,4-7.1,5.5-9.8
		c4.7-6.3,9.5-12.6,14.2-18.9C126.3,320.8,131.8,341.2,136,361.9L136,361.9z"/>
	<path class="st10" d="M217.6,436.7c-10.2-15.2-19.6-31-32.7-44.1c-11.4-11.4-23.9-20.8-41.1-20.9l-0.4-0.6l0.4-0.6
		c-0.9-4.8-1.8-9.6-2.8-14.4C181.8,361.4,211.9,393,217.6,436.7L217.6,436.7z"/>
	<path class="st3" d="M189.5,539.1c-1.4-15.8-2.9-31.5-4-47.3c-0.2-2.8-2.1-7.6,2.2-8.2c3.7-0.5,5.7,3.4,6.3,7.5
		c2.4,18.2,4.2,36.5,4.6,54.8C195.6,543.6,192.5,541.4,189.5,539.1z"/>
	<path class="st11" d="M34.6,231.8c1.6-2.5,4.1-3.5,6.6-4.5c7.2,16.2,10.7,34.1,21,49c-0.5,1.7-1,3.4-1.4,5.1
		c-2.2,1.1-3.8,7.7-6.6-0.2C48.2,264.5,41.2,248.2,34.6,231.8L34.6,231.8z"/>
	<path class="st11" d="M106.1,319.5c-1.5,2.7-3.1,5.4-5.5,9.8c-7.7-28.6-15-55.3-22.2-82c1.2-4.2,1.8-2.7,2.8,0.2
		c6.8,20.4,13.6,40.8,20.5,61.2C102.9,312.3,104.6,315.8,106.1,319.5z"/>
	<path class="st3" d="M209.1,554.3c-3.9-18.1-0.1-36.6-4.6-55.3c6.3,0.7,9.3,3.2,9,8.3c-0.9,17.3,3.6,34.4,2.2,51.8
		C213.4,557.4,211.3,555.9,209.1,554.3L209.1,554.3z"/>
	<path class="st11" d="M140.9,356.1c0.9,4.8,1.8,9.6,2.8,14.4c-2.1-1.2-4.1-2.4-6.2-3.6c-0.3-1.7,0.2-3.7-1.6-4.9l0.1-0.1
		c-4.1-20.7-9.7-41.1-15.7-61.4c0.1-1.1-0.3-2.8,0.2-3.1c3.3-1.9,3.2,1.3,3.7,2.9c3.7,12.8,7.2,25.6,11,38.3
		C136.9,344.6,139,350.3,140.9,356.1L140.9,356.1z"/>
	<path class="st7" d="M94.2,675.7c1.1,0.7,2.2,1.4,3.2,2.2c-0.3,0.4-0.6,0.8-0.9,1.3c-1-0.9-1.9-1.9-2.9-2.8L94.2,675.7L94.2,675.7z
		"/>
	<path class="st8" d="M117.9,591.4c-3.6,0-5.1-2.2-4.9-5.5c0.1-3,2.2-4.6,4.9-4.5c3.3,0.1,5.2,2.3,5,5.6
		C122.7,589.8,121,591.5,117.9,591.4z"/>
	<path class="st8" d="M146.7,608.6c3.1,0.1,5,1.8,5.3,4.5c0.4,3.4-1.9,5.7-5,5.8c-3,0-5.5-1.9-5.1-5.6
		C142.1,610.4,143.9,608.9,146.7,608.6L146.7,608.6z"/>
	<path class="st8" d="M175.2,639.1c-0.2,3.2-1.9,5.4-5.2,5.5c-2.7,0.1-4.8-1.6-4.9-4.6c-0.1-3.2,1.4-5.5,5-5.5
		C173.2,634.5,174.7,636.2,175.2,639.1z"/>
	<path class="st2" d="M69.9,421.3c9.7,3.2,15.2,11.9,22.6,18c20,16.5,39,34.2,58.5,51.4c3.6,3.2,5.6,6.9,6.4,12
		c2,13.8,6.9,27.2,7.9,41.2C130.5,509.6,95.7,475.5,61,441.2c-1.2-1.2-1.8-3-2.7-4.5C62.2,431.6,66.1,426.4,69.9,421.3L69.9,421.3z"
		/>
	<path class="st12" d="M93.8,419.2c-7.5-0.7-9.6-8.9-15.9-11.3c-6.3-5.7-12.5-11.3-18.8-17c10.8-8.9,22.6-15.7,36.7-17.6
		c10.8,7.2,21,15.6,35.1,15.4C120.5,401.4,106.5,409.4,93.8,419.2L93.8,419.2z"/>
	<path class="st10" d="M95.8,373.3c-14.2,1.9-25.9,8.7-36.8,17.6c-6-2-4-4.7-0.6-7.3c6.6-4.9,13.3-9.7,20-14.5
		c2.5-1.8,6.4-2.1,6.8-6.2C89.3,365.8,93.3,368.8,95.8,373.3L95.8,373.3z"/>
	<path class="st9" d="M34.6,231.8c6.6,16.5,13.6,32.8,19.6,49.5c2.8,7.9,4.4,1.4,6.6,0.2c1.3,12,2.6,23.9,4.1,37.9
		c-16.5-11-31.7-21.2-46.9-31.1c-4.1-2.7-7.7-6.6-13.3-6.4C8.5,261.5,18.1,244.6,34.6,231.8L34.6,231.8z"/>
	<path class="st9" d="M135.9,362.1c1.8,1.2,1.3,3.2,1.6,4.9C135.6,365.8,134.8,364.2,135.9,362.1z"/>
	<path class="st12" d="M135.1,386.6c-0.9,1.8-2.5,2.1-4.3,2.1C131.8,387,133.3,386.6,135.1,386.6z"/>
	<path class="st3" d="M152.9,397.4c27.8,5.4,53.7,33.8,56,61.1c0.3,4-1.9,2.7-3.9,2c-0.5-2.4-2.5-3.3-4.3-4.6
		C179.5,440.8,163.6,421.2,152.9,397.4z"/>
	<path class="st10" d="M152.9,397.4c10.7,23.8,26.6,43.4,47.8,58.6c1.7,1.2,3.8,2.2,4.3,4.6c-13.2-1-20.7-10.8-29.1-19
		c-10.5-10.2-17.7-22.8-23.6-36C151.1,402.9,148,399.7,152.9,397.4L152.9,397.4z"/>
	<path class="st10" d="M146.3,442.9c6.4,5.3,11.5,9.2,16.1,13.6c2.3,2.2,7.3,4.5,3.7,8.5c-3.2,3.5-5.9-1.3-7.8-2.9
		C153,457.4,145.1,454.1,146.3,442.9L146.3,442.9z"/>
</g>
<g>
	<path class="st4" d="M708.9,231c-6.1,9.2-13.7,17.2-21.5,24.9c-4.7,4.6-4.1,8-0.3,12.2c-10.2,9.6-20.5,19.2-30.7,28.8
		c-4.4-2.6-1.1-4.8,0.6-6.8c6-7.3,11.5-15,18.2-21.5c5.7-5.5,4.2-8.9-0.5-13.8c-7.2-7.5-14.7-14.8-20.2-23.7L708.9,231L708.9,231z"
		/>
	<path class="st10" d="M702,629.3c0,13.2,0,26.3,0,39.4c-0.2,0.2-0.7,0.3-0.7,0.5c0.1,0.5,0.3,0.9,0.5,1.4
		c-5.7,18.7-11.4,37.4-17.1,56.1c-0.1,0.2-0.4,0.4-0.6,0.7c-0.6-0.7-1.1-1.4-1.7-2.2c0-42.8,0.1-85.6,0.1-128.4
		c0-21,0-42.1,0.1-63.1c0-5.8,0-11.6,0-17.4c-0.1-9.3-0.1-18.7-0.2-28c0.1-19,0.3-38,0.3-56.9c0-3,1.4-6.6-2.2-8.8
		c7.1-6.5,14.3-13,21.4-19.5c0.1,66.1,0.2,132.3,0.4,198.5c0,2.9,0.3,5.7-2.6,7.8c-8.6,6-5.8,11.9,0.5,17.6
		C700.8,627.7,701.4,628.5,702,629.3L702,629.3z"/>
	<path class="st13" d="M682.5,596.8c0,42.8-0.1,85.6-0.1,128.4c-10.8-28.7-20.8-57.2-19.6-89.1c1.8-47.8,0.5-95.7,0.5-143.6
		c0-5.1-0.5-10.1,5.1-13.2c2.1-1.2,4.6-4.3,2-6.2c-12.8-9.5-5.4-22.5-6.5-34c5.6-5.5,11.1-11,16.7-16.5c3.6,2.2,2.2,5.8,2.2,8.8
		c0,19-0.2,38-0.3,56.9c-14,8.6-6.4,21.6-8.6,35c4.4-3.5,6.6-5.2,8.8-7c0,5.8,0,11.6,0,17.4c-4.5,0.5-8.1,3.2-8.2,7.3
		c-0.4,20.9-0.2,41.8-0.2,63.7C677.9,601.2,680.2,599,682.5,596.8L682.5,596.8z"/>
	<path class="st4" d="M756.5,302.8c-2.1-6.8-4.1-13.5-7-22.7c9,10,16,18.2,23.6,25.9c4.2,4.2,2.4,6.2-1.1,9.2
		c-23.3,20.5-46.5,41.1-69.8,61.7c-13.5,11.1-26.3,11.1-38.6,0c-22.8-20.1-45.5-40.4-68.5-60.3c-4.9-4.2-6.9-7.5-1-12.3
		c2.2-1.8,3.8-4.4,5.8-6.4c2.7-2.7,5.1-7.9,9.3-5.7c4.5,2.4,0.1,7-0.1,10.6c-3.4,3.8-2.6,6.4,1.6,9.5c23.1,16.7,46,33.6,68.8,50.6
		c3.7,2.8,6.1,3.2,10.1,0.1c21.7-16.8,43.5-33.3,65.6-49.6C760.2,309.8,759.8,306.7,756.5,302.8L756.5,302.8z"/>
	<path class="st11" d="M756.5,302.8c3.3,4,3.7,7-1.2,10.6c-22.1,16.3-43.9,32.8-65.6,49.6c-4,3.1-6.4,2.7-10.1-0.1
		c-22.8-17-45.8-33.9-68.8-50.6c-4.2-3-5-5.7-1.6-9.5c17.1,8.5,30.9,21.9,47.1,31.7c3.1,1.9,6.1,3.8,9.1,5.7c2,3.3,5,5.2,8.6,6.2
		c5.4,7.6,11.2,7.3,17.6,1.1c2-2,4.4-3.6,6.5-5.4c15.8-11,31.5-22.2,47.4-33C749,306.7,752,303.3,756.5,302.8L756.5,302.8z"/>
	<path class="st9" d="M656.4,296.8c10.2-9.6,20.5-19.2,30.7-28.8c1.2,1.3,2.7,2.5,3.7,3.9c5.8,7.7,17.7,14.4,16.7,22.7
		c-1,8-11.6,14.8-18,22.2c-0.9,1.1-1.8,2.2-2.7,3.4c-3.5,3.9-7,3.8-10.4,0C669.8,312.4,663.1,304.6,656.4,296.8L656.4,296.8z
		 M685.8,281.2c-1.6,1.3-3.8,2.5-3,4.3c2,4.7,5.8,8,10.3,10.1c1.2,0.6,3.5-2,2.6-3.7C693.5,287.5,689.9,284.1,685.8,281.2
		L685.8,281.2z"/>
	<path class="st6" d="M663.6,376.9c12.3,11.1,25.1,11.1,38.6,0c-0.1,8.7-0.2,17.4-0.2,26.1c-7.1,6.5-14.3,13-21.4,19.5
		c-5.6,5.5-11.1,11-16.7,16.5C663.8,418.3,663.7,397.6,663.6,376.9L663.6,376.9z"/>
	<path class="st9" d="M698.1,342.1c-2.2,1.8-4.5,3.4-6.5,5.4c-6.3,6.2-12.2,6.5-17.6-1.1c2.3-8.9,11.5-12.1,15.6-19.5
		C692.5,332,695.3,337.1,698.1,342.1z"/>
	<path class="st4" d="M689.6,326.9c-4.1,7.4-13.3,10.7-15.6,19.5c-3.6-1-6.6-2.9-8.6-6.2c3.7-6.7,7.3-13.4,11-20.1
		c3.5,3.8,6.9,3.9,10.4,0C687.8,322.4,688.7,324.6,689.6,326.9L689.6,326.9z"/>
	<path class="st6" d="M701.8,670.6c-0.2-0.5-0.4-0.9-0.5-1.4c0-0.1,0.4-0.3,0.7-0.5C702.2,669.4,702.1,670,701.8,670.6L701.8,670.6z
		"/>
	<path class="st6" d="M702,629.3c-0.6-0.8-1.2-1.7-1.8-2.5C700.8,627.7,701.4,628.5,702,629.3z"/>
	<path class="st11" d="M682.5,596.8c-2.3,2.2-4.7,4.4-8.3,7.8c0-21.8-0.2-42.8,0.2-63.7c0.1-4.1,3.7-6.8,8.2-7.3
		C682.6,554.7,682.5,575.8,682.5,596.8L682.5,596.8z"/>
	<path class="st11" d="M682.6,516.2c-2.2,1.8-4.4,3.5-8.8,7c2.2-13.4-5.4-26.3,8.6-35C682.5,497.5,682.5,506.9,682.6,516.2z"/>
	<path class="st13" d="M685.8,281.2c4,2.9,7.7,6.2,9.9,10.7c0.9,1.8-1.3,4.3-2.6,3.7c-4.5-2.1-8.3-5.5-10.3-10.1
		C682.1,283.8,684.2,282.5,685.8,281.2L685.8,281.2z"/>
</g>
<g>
	<path class="st3" d="M1293.5,769.6h-115.4c0.1-29-1.4-58-4.8-86.8c-2.5-16-3.8-32.3-10.2-47.5c-1.4-3.2-2.5-7.3-7-7.4
		c-4.7-0.2-7.1,3.5-8.5,7.2c-2.5,6.4-4.9,12.9-6.4,19.5c-8.9,37.8-11,76.4-13.1,115h-6.5c0.1-44.6,2.6-89,15.3-132.2
		c3-10.3,7.5-20.2,11.2-30.4c2.5-3.6,6.9-6.3,6.3-11.6l-0.1,0.1c2.3,0.8,2.7-0.3,2.3-2.3l-0.1,0.1c11.1-6.8,22.3-11.1,34.2-1.8
		c0.1,0.6,0.3,1.2,0.5,1.9c-1.9,10.1-7.3,18.8-13.2,26.7c-9.2,12.5-5.3,23.5,0.2,35.9c5.2-5.1,7.3-10.9,10.5-16.1
		c5.2-8.5,8.1-18.4,16-25.2c7.1,8.2,8.8,18.8,12.4,28.5c7.3,19.9,11.7,39.7-5.3,57.5c-2.2,2.3-4.8,6,0.1,9.5
		c5.1-5.8,10.1-11.7,15.6-18c1.4,4,0.9,7.8,4.9,9.1c-3,8.7-1.3,17,1.4,28.1c6.6-14.8,15-25.5,22.8-36.5
		c17.1-24.2,34.8-47.8,57.3-67.3l6.1-6.5c3.5-2.5,6.9-5.2,10.4-7.6c11.6-7.9,22.6-16.9,37.3-18.3c0,33.4-0.8,66.8,0,100.2
		c0.4,19.7,1.4,71.1,0.4,74.7"/>
	<path class="st14" d="M1190.7,591.5c-11.9-9.3-23.2-5-34.2,1.8c-0.1-5.7-1.4-10.3-8.4-10.2c0-9.5-0.1-19.1-0.1-28.6
		c4.5-0.2,10.4,0.8,10.3-5.9c-0.1-6.8-5.6-5.9-10.3-5.3c-0.2-14.7-0.4-29.3-0.6-44c5.2-4,10.3-8,15.5-12.1c2.7,3.3,6,5.3,9.9,2.3
		c3.8-3,3.1-6.6,0.2-10c11.2-10,22.9-19.5,35.2-28.1c0.7,3.9,2.6,6.7,7,6.2c2.5-0.3,4.6-2,5.3-4.5c1.1-4.2-1.3-6.5-4.8-8.1
		c4.4-5.8,7.1-12.4,8.7-19.4c4.5-0.2,6.7-2.6,6.2-7c-0.6-5.2-4.5-5.9-8.8-5.6c-1.3-2.4-2.7-4.8-4-7.2c-1.9-5-7.2-4.2-10.8-6.2
		c-0.6-4.1-2.7-7.2-7-6.2c-4,1-7.2,3.7-4.2,8.7c-7.1,4.5-13.6,10.1-21.8,12.8c-0.1-2.1-0.1-4.2-0.2-6.2c-0.2-4.3-2.2-6.8-6.6-6.7
		c-3.3,0-5.6,2.2-5.8,5.3c-0.3,4.2,2.5,6.5,6.5,7.2c2,0.3,4.1,0.3,6.2,0.5c-3.9,5.7-11.4,6.7-15.7,12c-0.6,0.4-1.2,0.8-1.8,1.1
		c-6.4,3.4-8.7,2.6-7.5-5.5c2.5-18.2,9.1-34.5,20.3-49c0.2,5,1.2,9.6,7.7,8.9c3.2-0.3,5.5-2.7,5.2-5.8c-0.8-6.8-6.2-5.5-10.7-5.4
		c-0.3,0-0.7-0.1-1.1-0.2c8.9-15.5,17.8-31,27.5-47.9c3.6,9,0.6,17,3.1,24.3c-0.2,2,0.4,4.1,2.6,2.9c6.2-3.5,12.3-7.3,10.9-16.1
		c3.9,4.7,7.8,5.3,12.5,0.6c2.7-2.7,6.3-4.5,9.6-6.6c-6.1,13.2-8.9,26.6-0.5,39.9c7.1,11.2,18,17,30.2,20.9
		c5.2,4.4,12.1,6.5,16.4,12.2c3.2,2.1,6.1,5.1,10.5,3.6c5.4,4.1,10.8,8.1,16.1,12.2c-2.9,3.5-2.3,6.6,1.4,9c3.9,2.5,6.7,0.2,9.1-2.7
		c6.7,2.5,13.2,5.3,17.8,11.1c-3.4,3-4.3,6.6-1.1,10.1c2.1,2.3,5.5,2.1,7.7,0.1c3.9-3.5,1.8-7-0.8-10.2c0.1-0.8,0.1-1.5,0.2-2.2
		c6.6,7.3,13.2,14.6,19.7,21.9c-5.2,0.5-9.7,2.7-7.9,8.5c2.2,6.9,7.6,4.3,12.2,2.4v10.9c-10.4-0.5-20.6-3.2-31.1-2
		c-0.1-4.9-2.2-8.5-7.4-7.7c-5.3,0.9-5.7,5.3-4.7,9.8c-7.2,2.5-14.3,5-21.5,7.5c-0.1-4.1-0.7-8.1-5.6-9c-2.7-0.5-4.9,1.1-6.1,3.4
		c-2.2,4.4-0.1,7.4,3.7,9.6c-13.7,8.2-26.6,17.5-38.8,27.8c-0.6-0.1-1.1-0.2-1.7-0.2c-8.9-2.5-10.6-0.6-8.4,8.7
		c-11,12.3-21.9,24.6-32.9,36.9c-0.3-4.8-2.9-7-7.6-6.4c-3.3,0.5-5,3.2-4.7,6c0.6,6,5.6,5.1,9.7,5.4
		C1203.9,574.1,1197.3,582.8,1190.7,591.5L1190.7,591.5z M1237,460.5c-3.6,0.5-6.2,2.5-6.2,6.2c0,4.2,2.6,6.7,6.8,6.4
		c3.7-0.3,5.8-2.8,5.6-6.5C1243.1,462.8,1240.6,461,1237,460.5L1237,460.5z M1183,530.3c-3.6,0.2-6.3,1.9-6.7,5.6
		c-0.4,3.7,1.5,6.4,5.2,6.9c4.2,0.6,7-1.6,7.3-5.9C1189,533.2,1186.5,531.1,1183,530.3L1183,530.3z M1258.4,421.1
		c3.6-0.3,6.4-2,6.4-5.9c0-3.8-2.6-6.1-6.1-6.4c-3.8-0.3-6.2,2-6.3,5.8C1252.3,418.4,1254.5,420.6,1258.4,421.1L1258.4,421.1z
		 M1215.2,534.5c3.3-0.3,5.9-1.9,6.4-5.6c0.5-3.7-1.6-6.5-5.1-7c-4.2-0.6-6.9,2.1-7.3,6C1208.7,531.6,1211.3,533.7,1215.2,534.5z
		 M1235,396.8c3.6-0.3,6-2.2,6.2-6c0.2-3.9-1.8-6.2-5.6-6.5c-4-0.4-6.2,2.3-6.5,5.7C1228.8,393.7,1231.5,395.8,1235,396.8
		L1235,396.8z M1201.8,469.7c-3.5,1-6.3,2.6-6.1,6.6c0.2,3.8,2.6,5.9,6.4,5.8c3.8-0.1,6.2-2.4,6-6.2
		C1207.9,472.3,1205.2,470.4,1201.8,469.7z M1272.1,464.1c3.4-1,6.2-2.5,6-6.5c-0.2-3.9-2.6-6-6.3-5.9c-3.8,0.1-6.3,2.3-6,6.1
		C1266,461.5,1268.6,463.5,1272.1,464.1L1272.1,464.1z M1248.7,436.3c-3.8,0.3-6,2.4-5.8,6.1c0.2,3.6,2.3,6.2,6.1,5.9
		c3.4-0.3,6.1-2.4,5.9-6.3C1254.7,438.4,1252.6,436.2,1248.7,436.3L1248.7,436.3z M1157.9,510.5c-2.9,0.4-5.4,2-5.8,5.8
		c-0.4,3.7,1.7,6.4,5.2,6.8c4.1,0.5,6.9-2.2,7.1-6.2C1164.5,513.4,1162.3,511,1157.9,510.5L1157.9,510.5z M1217.3,367.5
		c-0.1-4.1-2.6-6.3-6.2-6.4c-3.6-0.1-6.2,2.5-6.3,6.1c-0.2,3.8,2.3,6,6.1,6.1C1214.8,373.4,1216.9,371.2,1217.3,367.5L1217.3,367.5z
		 M1308.4,443.8c-3.4,1-6,2.9-5.9,6.7c0.2,3.9,2.7,5.8,6.5,5.6c3.8-0.2,6.1-2.4,5.9-6.2C1314.5,446.2,1311.9,444.4,1308.4,443.8
		L1308.4,443.8z M1232.7,498.7c-0.2-3.5-2.1-5.8-6-5.8c-3.9,0-6.1,2.6-6.2,6c-0.1,3.7,2.4,6.2,6.1,6.1
		C1230.2,505.1,1232.6,502.9,1232.7,498.7L1232.7,498.7z M1199.8,507.4c-0.6-3.8-2.7-5.9-6.5-5.8c-3.8,0.1-6.2,2.3-6,6.1
		c0.2,3.7,2.8,6.2,6.4,6C1197.2,513.6,1199.4,511.1,1199.8,507.4L1199.8,507.4z M1178.1,568.3c-0.6-3.1-2.2-5.6-6.2-5.6
		c-3.8-0.1-6.4,2-6.4,5.8c-0.1,3.7,2.4,6.3,6,6.4C1175.2,575.1,1177.2,572.5,1178.1,568.3L1178.1,568.3z M1261.8,496
		c3.5-0.8,5.8-2.9,5.5-6.6c-0.4-3.8-3-5.5-6.7-5.2c-3.7,0.3-5.9,2.6-5.6,6.4C1255.4,494.2,1258.2,495.7,1261.8,496L1261.8,496z
		 M1289,431c-0.5-3.1-2.2-5.6-6.1-5.7c-3.8-0.1-6.3,2-6.4,5.8c-0.1,3.2,2.1,5.4,5.4,5.6C1285.6,437,1288.1,435.3,1289,431L1289,431z
		"/>
	<path class="st13" d="M1256.2,515c12.2-10.3,25.1-19.6,38.8-27.8c2.7-1.3,5.3-2.6,8-4c7.2-2.5,14.3-5,21.5-7.5
		c4.1-0.7,8.1-1.4,12.1-2.1c10.5-1.2,20.7,1.6,31.1,2v100.2c-4.6-0.3-9.1-0.7-13.1,2.4c-12.8,2.3-20.5,13.9-32.6,17.6
		c0.2-5.2-2.4-4.1-5.1-2.2c-9.5,6.7-18.6,13.8-27.1,21.7c-1.8,1.7-3.7,5.6-7,2.5c-3.8-3.5-0.1-5.9,2.2-7.8
		c11.3-9.7,22.2-19.8,34.9-27.6c5.9-3.7,7.9-9,9.5-15c1.3-4.7-0.9-5.2-4.4-4.3c-4.9,1.3-9.7,3-14.5,4.6c-2.3,0.8-4.9,2.7-7.1,0.7
		c-2.4-2.2-0.1-4.7,0.7-6.9c2.8-7.8,5.7-15.5,9-24.3c-9.1,1.4-17.2,2.6-25.3,3.8c-5.6,0.8-8.5-0.6-6.2-7c1.8-5.1,3-10.4,4.5-15.6
		c0.7-2.4,2.2-5.3-0.1-7.1c-2.5-1.9-5.6-0.5-8.1,1c-1.8,1.2-3.4,2.7-5,4.1c-22.3,19.3-41.4,41.5-59.7,64.5
		c-2.7,3.5-4.8,12.3-9.1,9.1c-5.9-4.4,1.9-9.2,4.7-13.2c15.3-21.7,35.4-39.2,52.9-59c0.8-0.6,1.6-1.3,2.3-1.9
		c-1.4-1.3-2.5-0.5-3.5,0.6C1258.8,516.6,1257.1,517,1256.2,515L1256.2,515z"/>
	<path class="st5" d="M1367.6,305.8c-11.3,4.1-16.7,14.9-25,22.3c-10,2.7-20,8.5-29.8-0.5c5-0.2,8.8-1,2.8-6.2
		c-5.2-4.5-10.5-8.9-15.6-13.5c-3.6-3.2-3.9-6,0.3-9.5c7.4-6.3,14.1-13.6,21.4-20c4.3-3.7,4.2-6.1,0.6-10.4
		c-12.6-14.9-24.8-30.3-36.9-45.6c-2.3-2.9-6.3-5.4-4.9-10.2h13.1c-1.9,4.2,1.6,3.7,3.7,4.2c35.3,8.8,57.3,30.9,66.1,66.1
		c0.5,2.1,0,5.6,4.2,3.7L1367.6,305.8L1367.6,305.8z"/>
	<path class="st6" d="M1128.1,769.6c2.1-38.6,4.2-77.2,13.1-115c1.6-6.7,4-13.1,6.4-19.5c1.4-3.7,3.8-7.3,8.5-7.2
		c4.5,0.1,5.6,4.2,7,7.4c6.5,15.2,7.7,31.5,10.2,47.5c-15,28.3-28.3,57.4-40.9,86.8L1128.1,769.6L1128.1,769.6z"/>
	<path class="st11" d="M1280.5,212.1c-1.4,4.8,2.6,7.2,4.9,10.2c12.2,15.3,24.3,30.6,36.9,45.6c3.7,4.4,3.7,6.7-0.6,10.4
		c-7.4,6.4-14,13.7-21.4,20c-4.2,3.6-3.9,6.3-0.3,9.5c5.1,4.6,10.4,9,15.6,13.5c6,5.2,2.2,6-2.8,6.2c-9.8-5.2-17.6-12.6-23-22.2
		c-5.9-10.4-6-10.8-6.8-9.8c-5.1,5.7,0.9,9.7,2.4,14.3c0.2,0.7,0.7,1.2,1.1,1.9c-3.6,3.5-7.2,7.1-10.8,10.6
		c-11.7,11.4-11.7,11.3-0.1,22.6c2.3,2.3,8,4.3,2.4,8.9c-19.1-13.4-24.3-26.6-19-47.7c16.9-12.4,31.6-27.4,46.7-41.9
		c3.6-3.5,2.4-5.8-0.3-9.1c-9-10.8-17.7-21.9-26.7-32.8c-2.6-3.1-5.6-5.8-4.8-10.4L1280.5,212.1L1280.5,212.1z"/>
	<path class="st10" d="M1132.4,769.6c12.6-29.4,25.9-58.5,40.9-86.8c3.4,28.8,4.9,57.8,4.8,86.8H1132.4z"/>
	<path class="st14" d="M1321.9,595.8c12-3.7,19.8-15.2,32.6-17.6c0.3,10.4,6.2,9.4,13.1,6.3v8.7c-14.7,1.5-25.7,10.5-37.3,18.3
		c-3.6,2.4-7,5.1-10.4,7.6c-0.3-8.2-3.9-11-11.5-6.9c-0.7-0.7-1.4-1.3-2.1-2C1311.4,605.4,1316.7,600.6,1321.9,595.8L1321.9,595.8z"
		/>
	<path class="st7" d="M1363.2,453.9c1.5,0.6,2.1,3,4.4,2.1v8.7c-4.6,1.9-10.1,4.5-12.2-2.4C1353.5,456.6,1358,454.3,1363.2,453.9
		L1363.2,453.9z"/>
	<path class="st6" d="M1367.6,584.5c-6.9,3.1-12.7,4.1-13.1-6.3c3.9-3.1,8.5-2.7,13.1-2.4V584.5z"/>
	<path class="st12" d="M1217.7,405.7c1.3,2.4,2.7,4.8,4,7.2c0.1,2.9,0.1,5.7,0.2,8.5c-2.4,8.9-6.9,16.7-14.4,22.2
		c-14.5,10.7-29.1,21.2-43.6,32c-6.8,5-7.7,0-8.9-4.9c2.8-10.6,0.4-21.6,1.9-32.3c7.2-2.4,12.5-9.7,21.2-8.6
		c3.3,6.8,6.4,14.1,15.9,13c6.2-0.7,10.8-4.1,12.4-10.4c2.1-8.2-1.8-13.8-8.7-17.7C1204.6,412.5,1209.7,405.9,1217.7,405.7
		L1217.7,405.7z"/>
	<path class="st11" d="M1266.1,388.8c-12.2-3.9-23.2-9.7-30.2-20.9c-8.4-13.3-5.6-26.7,0.5-39.9c4.5-3.7,9-7.5,13.4-11.2
		c-0.3,9,3.7,16.9,6.6,25.1c-19.5,15.3-19.5,17.4-0.4,33c2.5,2,5.2,3.9,7.9,5.6c3.2,2,4.7,4.4,3.2,8.1L1266.1,388.8z"/>
	<path class="st11" d="M1154.9,470.8c1.2,4.9,2.1,9.9,8.9,4.9c14.5-10.7,29.1-21.2,43.6-32c7.5-5.6,12-13.3,14.4-22.2
		c2.6,0.2,2.1,2.4,2.4,4c-1.6,7-4.2,13.6-8.7,19.4c-2.5,2.2-5,4.4-7.5,6.5c-12.3,8.7-24,18.1-35.2,28.1c-3.4,2.6-6.7,5.2-10.1,7.8
		c-5.2,4-10.3,8-15.5,12.1c-2.5-4.4-3.4-9.7,0.9-12.6C1154.4,482.6,1154.9,477,1154.9,470.8L1154.9,470.8z"/>
	<path class="st3" d="M1217.7,405.7c-8,0.2-13.1,6.9-20.2,9.1c-11.5-1.5-17.6,4.2-19.5,15.1c-8.7-1.1-13.9,6.2-21.2,8.6
		c0-1.4,0-2.8,0-4.2c2.2-2.2,1.7-4.9,1.4-7.5c4.3-5.2,11.8-6.2,15.7-12h0c8.2-2.6,14.7-8.2,21.8-12.7c3.8-0.9,7.5-1.7,11.2-2.6
		C1210.5,401.5,1215.8,400.7,1217.7,405.7L1217.7,405.7z"/>
	<path class="st7" d="M1256.4,341.9c-2.9-8.2-6.8-16.1-6.6-25.1c3.8-2.9-1.2-13.4,9.2-10.5c-5.4,21-0.1,34.2,19,47.7
		c0.6,4.9,0.1,7.3-5.6,3.9C1265.7,353.8,1262.3,346.6,1256.4,341.9z"/>
	<path class="st7" d="M1170.3,370.9c0.3,0.1,0.7,0.2,1.1,0.2c4.5,0,9.9-1.3,10.7,5.4c0.3,3.1-1.9,5.4-5.2,5.8
		c-6.6,0.7-7.5-3.9-7.7-8.9C1169.6,372.5,1169.9,371.7,1170.3,370.9z"/>
	<path class="st6" d="M1147.9,543.3c4.7-0.6,10.2-1.5,10.3,5.3c0.1,6.7-5.8,5.7-10.3,5.9C1147.9,550.8,1147.9,547,1147.9,543.3
		L1147.9,543.3z"/>
	<path class="st9" d="M1214.4,334c1.4,8.8-4.7,12.6-10.9,16.1c-2.2,1.3-2.8-0.9-2.6-2.9C1205.4,342.8,1209.9,338.4,1214.4,334z"/>
	<path class="st7" d="M1148,583.1c7,0,8.4,4.6,8.4,10.2l0.1-0.1c-1.6-0.1-2.2,0.8-2.3,2.3l0.1-0.1c-2.1,0.1-4.2,0.1-6.4,0.2
		C1148,591.4,1148,587.2,1148,583.1L1148,583.1z"/>
	<path class="st14" d="M1147.9,595.6c2.1-0.1,4.2-0.1,6.4-0.2c0.6,5.3-3.8,8-6.3,11.6C1148,603.2,1148,599.4,1147.9,595.6
		L1147.9,595.6z"/>
	<path class="st12" d="M1158.2,426.7c0.3,2.6,0.9,5.4-1.4,7.5c-0.1-2.1-0.3-4.3-0.4-6.4C1157,427.5,1157.6,427.1,1158.2,426.7
		L1158.2,426.7z"/>
	<path class="st10" d="M1321.9,595.8c-5.2,4.8-10.5,9.7-15.7,14.5c-14.2,12-25.8,26.3-36.5,41.5c-3.9,1.7-4.8,5.7-6.9,8.8
		c-6,4.3-8.8,11-12.6,16.9c-1.6,3.7-5.4,6.4-4.7,11c-6.7,2-9.4,8-13.3,12.8c-3.9-1.3-3.4-5.1-4.9-9.1c-5.5,6.3-10.5,12.2-15.6,18
		c-4.9-3.5-2.3-7.2-0.1-9.5c17-17.8,12.7-37.6,5.3-57.5c-3.6-9.7-5.3-20.3-12.4-28.5c-1.6-9-7.8-15-13.5-21.3
		c-0.2-0.6-0.4-1.2-0.5-1.9c6.6-8.7,13.3-17.4,19.9-26.1c0.9-1.7,1.8-3.4,2.6-5c11-12.3,21.9-24.6,32.9-36.9c3.4-2.3,6.4-5,8.4-8.7
		c0.6,0.1,1.1,0.2,1.7,0.2c0.9,2,2.7,1.6,4.4,1.6c0.4,0.4,0.8,0.9,1.1,1.3c-17.5,19.8-37.6,37.3-52.9,59c-2.8,4-10.6,8.8-4.7,13.2
		c4.2,3.2,6.3-5.7,9.1-9.1c18.2-23.1,37.4-45.2,59.7-64.5c1.6-1.4,3.2-3,5-4.1c2.5-1.6,5.6-3,8.1-1c2.3,1.8,0.8,4.7,0.1,7.1
		c-1.5,5.2-2.7,10.5-4.5,15.6c-2.2,6.4,0.6,7.8,6.2,7c8.1-1.2,16.2-2.4,25.3-3.8c-3.3,8.8-6.2,16.5-9,24.3c-0.8,2.2-3.1,4.7-0.7,6.9
		c2.2,2,4.7,0.1,7.1-0.7c4.8-1.6,9.6-3.3,14.5-4.6c3.4-0.9,5.6-0.4,4.4,4.3c-1.7,6.1-3.6,11.4-9.5,15c-12.7,7.9-23.6,18-34.9,27.6
		c-2.3,2-6,4.3-2.2,7.8c3.3,3.1,5.2-0.8,7-2.5c8.5-7.9,17.6-15.1,27.1-21.7C1319.5,591.6,1322.1,590.5,1321.9,595.8L1321.9,595.8z
		 M1262.5,642.3c2.7-2.7,6.6-4.7,6.8-9.1c0.1-1.8-1.2-5.1-3.8-3.5c-3.1,2-6.9,4.4-6.5,9.2C1259.2,640.5,1260.1,642.3,1262.5,642.3z"
		/>
	<path class="st14" d="M1232.2,701.3c3.9-4.8,6.6-10.9,13.3-12.8c3.6,1.3,6.6,0.5,8.2-3c1.6-3.6-0.3-6.2-3.5-8
		c3.8-5.9,6.6-12.6,12.6-16.9c3.2,3.6,7.3,4.2,10.1,0.4c2.6-3.5,2.1-7.6-3.2-9.2c10.7-15.2,22.3-29.5,36.5-41.5
		c0.7,0.7,1.4,1.3,2.1,2c-4.7,7.1,3.5,9,5.5,13.4c-22.5,19.5-40.2,43.2-57.3,67.3c-7.8,11-16.2,21.6-22.8,36.5
		C1230.9,718.3,1229.2,710,1232.2,701.3L1232.2,701.3z"/>
	<path class="st12" d="M1191.1,593.4c5.7,6.3,11.9,12.3,13.5,21.3c-7.8,6.8-10.7,16.7-16,25.2c-3.2,5.2-5.3,11-10.5,16.1
		c-5.5-12.4-9.4-23.4-0.2-35.9C1183.8,612.2,1189.2,603.5,1191.1,593.4L1191.1,593.4z"/>
	<path class="st7" d="M1313.8,625.6c-2-4.4-10.2-6.3-5.5-13.4c7.7-4,11.2-1.2,11.5,6.9C1317.8,621.3,1315.8,623.5,1313.8,625.6
		L1313.8,625.6z"/>
	<path class="st14" d="M1154.2,595.5c0.1-1.5,0.7-2.3,2.3-2.3C1156.9,595.2,1156.6,596.3,1154.2,595.5z"/>
	<path class="st9" d="M1266.1,388.8l1-0.2c11.3,1.7,20.4-2.5,28.1-10.5c16.1,18,32.1,35.9,48.2,53.9c-0.1,0.7-0.1,1.5-0.2,2.2
		c-2,0-3.9,0-5.9,0c-4.6-5.8-11.1-8.6-17.8-11.1c-2.4-3.9-5.4-6.8-10.5-6.3c-5.4-4.1-10.8-8.1-16.1-12.2c2-4.9,1.7-9.6-4-10.9
		c-5.1-1.2-6.3,3.1-6.5,7.3C1278.2,395.3,1271.3,393.2,1266.1,388.8L1266.1,388.8z"/>
	<path class="st6" d="M1237,460.5c3.6,0.5,6.1,2.3,6.3,6c0.2,3.8-1.9,6.3-5.6,6.5c-4.2,0.3-6.9-2.2-6.8-6.4
		C1230.8,463,1233.4,461,1237,460.5L1237,460.5z"/>
	<path class="st6" d="M1183,530.3c3.5,0.8,6,2.8,5.8,6.6c-0.3,4.2-3.1,6.5-7.3,5.9c-3.7-0.5-5.6-3.2-5.2-6.9
		C1176.7,532.2,1179.3,530.5,1183,530.3L1183,530.3z"/>
	<path class="st6" d="M1302.9,483.2c-2.7,1.3-5.3,2.6-8,4c-3.8-2.2-5.9-5.2-3.7-9.6c1.2-2.3,3.4-4,6.1-3.4
		C1302.2,475.2,1302.8,479.1,1302.9,483.2L1302.9,483.2z"/>
	<path class="st6" d="M1173.9,414.7c-2.1-0.1-4.2-0.1-6.2-0.5c-4-0.7-6.8-3-6.5-7.2c0.2-3.1,2.5-5.2,5.8-5.3c4.4,0,6.5,2.5,6.6,6.7
		C1173.7,410.6,1173.8,412.7,1173.9,414.7L1173.9,414.7L1173.9,414.7z"/>
	<path class="st6" d="M1258.4,421.1c-3.8-0.5-6.1-2.7-6-6.5c0.1-3.8,2.4-6.2,6.3-5.8c3.6,0.3,6.2,2.6,6.1,6.4
		C1264.8,419.1,1262,420.8,1258.4,421.1L1258.4,421.1z"/>
	<path class="st7" d="M1215.2,534.5c-3.9-0.8-6.5-2.9-6.1-6.6c0.4-3.9,3.2-6.7,7.3-6c3.5,0.5,5.6,3.2,5.1,7
		C1221.1,532.5,1218.5,534.2,1215.2,534.5z"/>
	<path class="st6" d="M1235,396.8c-3.6-1-6.2-3.1-5.9-6.8c0.3-3.4,2.5-6.1,6.5-5.7c3.8,0.3,5.9,2.6,5.6,6.5
		C1241,394.6,1238.6,396.4,1235,396.8L1235,396.8z"/>
	<path class="st6" d="M1201.8,469.7c3.5,0.6,6.1,2.6,6.3,6.2c0.2,3.8-2.2,6-6,6.2c-3.8,0.1-6.2-2-6.4-5.8
		C1195.5,472.4,1198.3,470.7,1201.8,469.7z"/>
	<path class="st6" d="M1272.1,464.1c-3.6-0.6-6.1-2.6-6.4-6.2c-0.3-3.8,2.3-6,6-6.1c3.8-0.1,6.1,2,6.3,5.9
		C1278.4,461.7,1275.5,463.2,1272.1,464.1L1272.1,464.1z"/>
	<path class="st12" d="M1248.7,436.3c3.9-0.1,6,2.1,6.2,5.8c0.2,3.9-2.5,6-5.9,6.3c-3.7,0.3-5.9-2.3-6.1-5.9
		C1242.7,438.7,1244.9,436.6,1248.7,436.3L1248.7,436.3z"/>
	<path class="st7" d="M1157.9,510.5c4.4,0.5,6.6,2.9,6.5,6.4c-0.2,3.9-2.9,6.6-7.1,6.2c-3.6-0.4-5.6-3-5.2-6.8
		C1152.5,512.5,1155,510.9,1157.9,510.5z"/>
	<path class="st7" d="M1217.3,367.5c-0.4,3.6-2.4,5.9-6.4,5.8c-3.8-0.1-6.3-2.3-6.1-6.1c0.2-3.7,2.7-6.2,6.3-6.1
		C1214.7,361.2,1217.2,363.4,1217.3,367.5L1217.3,367.5z"/>
	<path class="st6" d="M1308.4,443.8c3.5,0.5,6.2,2.4,6.4,6.1c0.3,3.8-2.1,6-5.9,6.2c-3.8,0.2-6.3-1.7-6.5-5.6
		C1302.3,446.7,1305,444.9,1308.4,443.8L1308.4,443.8z"/>
	<path class="st7" d="M1232.8,498.7c-0.1,4.2-2.6,6.4-6.1,6.4c-3.6,0-6.2-2.5-6.1-6.1c0.1-3.5,2.2-6.1,6.2-6
		C1230.7,493,1232.5,495.2,1232.8,498.7L1232.8,498.7z"/>
	<path class="st6" d="M1199.8,507.4c-0.4,3.7-2.6,6.2-6.2,6.4c-3.6,0.2-6.2-2.4-6.4-6c-0.2-3.9,2.2-6,6-6.1
		C1197.1,501.5,1199.2,503.6,1199.8,507.4L1199.8,507.4z"/>
	<path class="st6" d="M1178.1,568.3c-0.9,4.1-3,6.7-6.6,6.6c-3.6-0.2-6.1-2.8-6-6.4c0.1-3.8,2.6-5.8,6.4-5.8
		C1175.9,562.8,1177.5,565.3,1178.1,568.3L1178.1,568.3z"/>
	<path class="st6" d="M1261.8,495.9c-3.6-0.2-6.4-1.7-6.8-5.5c-0.4-3.7,1.8-6,5.6-6.4c3.7-0.3,6.3,1.4,6.7,5.2
		C1267.6,493,1265.3,495.1,1261.8,495.9L1261.8,495.9z"/>
	<path class="st6" d="M1208.1,451.4c2.5-2.2,5-4.4,7.5-6.5c3.5,1.6,5.8,4,4.8,8.1c-0.7,2.6-2.8,4.3-5.3,4.5
		C1210.7,458,1208.8,455.2,1208.1,451.4L1208.1,451.4z"/>
	<path class="st6" d="M1289,431c-0.9,4.3-3.4,6-7.1,5.7c-3.3-0.3-5.5-2.4-5.4-5.6c0.1-3.8,2.6-5.8,6.4-5.8
		C1286.8,425.3,1288.5,427.9,1289,431L1289,431z"/>
	<path class="st7" d="M1282.5,401c0.2-4.2,1.4-8.5,6.5-7.3c5.7,1.3,6.1,6,4,10.9C1288.6,406.1,1285.7,403.1,1282.5,401L1282.5,401z"
		/>
	<path class="st6" d="M1213.2,560.3c-0.9,1.7-1.8,3.4-2.6,5c-4.1-0.3-9.1,0.6-9.7-5.4c-0.3-2.8,1.4-5.6,4.7-6
		C1210.3,553.3,1212.9,555.5,1213.2,560.3L1213.2,560.3z"/>
	<path class="st6" d="M1337.4,434.2c2,0,3.9,0,5.9,0c2.6,3.2,4.6,6.7,0.8,10.2c-2.3,2-5.6,2.2-7.7-0.1
		C1333.1,440.8,1334,437.2,1337.4,434.2L1337.4,434.2z"/>
	<path class="st6" d="M1336.5,473.6c-4.1,0.7-8.1,1.4-12.1,2.1c-1-4.5-0.6-9,4.7-9.8C1334.2,465,1336.4,468.7,1336.5,473.6
		L1336.5,473.6z"/>
	<path class="st6" d="M1309.2,416.8c5.1-0.5,8.1,2.4,10.5,6.3c-2.4,2.9-5.2,5.2-9.1,2.7C1306.9,423.4,1306.3,420.3,1309.2,416.8
		L1309.2,416.8z"/>
	<path class="st7" d="M1162.8,487.2c3.4-2.6,6.7-5.2,10.1-7.8c2.9,3.4,3.6,7.1-0.2,10C1168.8,492.5,1165.5,490.6,1162.8,487.2z"/>
	<path class="st6" d="M1224.3,425.4c-0.4-1.6,0.2-3.8-2.4-4c-0.1-2.9-0.1-5.7-0.2-8.5c4.3-0.4,8.2,0.3,8.8,5.6
		C1231,422.8,1228.8,425.3,1224.3,425.4L1224.3,425.4z"/>
	<path class="st6" d="M1206.9,399.4c-3.8,0.9-7.5,1.7-11.2,2.6c-3-5,0.2-7.7,4.2-8.7C1204.2,392.2,1206.3,395.3,1206.9,399.4
		L1206.9,399.4z"/>
	<path class="st6" d="M1254.5,514.7c-2,3.7-4.9,6.4-8.4,8.7C1243.8,514.1,1245.6,512.3,1254.5,514.7z"/>
	<path class="st10" d="M1260.5,516.6c1-1.1,2.1-1.9,3.5-0.6c-0.8,0.6-1.6,1.3-2.3,1.9C1261.3,517.4,1260.9,517,1260.5,516.6
		L1260.5,516.6z"/>
	<path class="st5" d="M1295.3,378.1c-7.7,8-16.8,12.2-28.1,10.5c1.5-3.7,0-6.1-3.2-8.1c-2.8-1.7-5.4-3.5-7.9-5.6
		c-19.2-15.6-19.1-17.7,0.4-33c5.9,4.7,9.3,11.9,16,15.9c5.6,3.4,6.2,1,5.6-3.9c5.6-4.6,0-6.6-2.4-8.9
		c-11.5-11.4-11.6-11.3,0.1-22.6c3.6-3.5,7.2-7.1,10.8-10.6c11.8,14.3,24.3,27.4,44.8,27.1C1319.3,351.9,1307.3,365,1295.3,378.1
		L1295.3,378.1z"/>
	<path class="st7" d="M1331.4,338.9c-20.6,0.2-33.1-12.8-44.8-27.1c-0.4-0.6-0.9-1.2-1.1-1.9c-1.6-4.7-7.5-8.6-2.4-14.3
		c0.8-1,0.9-0.6,6.8,9.8c5.4,9.6,13.2,17,23,22.2c9.8,9,19.8,3.2,29.8,0.5C1343.1,336,1336.6,336.8,1331.4,338.9L1331.4,338.9z"/>
	<path class="st11" d="M1178,429.8c2-10.9,8-16.5,19.5-15.1c7,3.9,10.8,9.5,8.7,17.7c-1.6,6.2-6.2,9.7-12.4,10.4
		C1184.3,444,1181.3,436.7,1178,429.8L1178,429.8z"/>
	<path class="st13" d="M1262.6,642.3c-2.5,0.1-3.3-1.7-3.5-3.4c-0.4-4.7,3.4-7.1,6.5-9.2c2.5-1.6,3.9,1.7,3.8,3.5
		C1269.1,637.6,1265.3,639.6,1262.6,642.3z"/>
	<path class="st6" d="M1269.7,651.8c5.3,1.6,5.8,5.7,3.2,9.2c-2.8,3.8-6.9,3.2-10.1-0.4C1264.9,657.4,1265.8,653.4,1269.7,651.8z"/>
	<path class="st6" d="M1250.2,677.4c3.2,1.8,5.1,4.4,3.5,8c-1.6,3.5-4.6,4.3-8.2,3C1244.8,683.8,1248.6,681.1,1250.2,677.4z"/>
</g>
</svg>
