<?xml version="1.0" encoding="UTF-8"?><svg id="uuid-187dd3b9-1bf9-4d86-aa7d-e38fc299010a" xmlns="http://www.w3.org/2000/svg" viewBox="0 0 1366 768"><defs><style>.uuid-0fa3f0cb-9614-4711-b5a2-5f596d49612c{fill:#009245;}.uuid-1a950d6a-01b2-49bf-8676-36742bf0f0f6{fill:#fff;}</style></defs><rect class="uuid-0fa3f0cb-9614-4711-b5a2-5f596d49612c" y="1" width="1366" height="767"/><g><path class="uuid-1a950d6a-01b2-49bf-8676-36742bf0f0f6" d="M694.63,238.72c.13,.2,.2,.48,.2,.84s-.31,.89-.94,1.58-1.17,1.72-1.63,3.07c-.46,1.35-.99,2.24-1.58,2.67s-1.09,.81-1.48,1.14-.59,.78-.59,1.34,.21,.97,.64,1.24,1.24,.99,2.43,2.18,3.56,2.89,7.13,5.1c3.56,2.21,6.55,3.52,8.96,3.91,2.41,.4,5.87,1.65,10.39,3.76,4.52,2.11,6.78,3.66,6.78,4.65s-2.11,1.48-6.34,1.48-6.95-.15-8.17-.45-2.62-.53-4.21-.69-2.74-.21-3.46-.15h-1.88c-1.32,0-2.01-.49-2.08-1.48-.13-1.58-.96-3.32-2.48-5.2s-4.49-3.88-8.91-5.99c-1.45-.66-2.41-1.12-2.87-1.38s-.91-.4-1.34-.4-.84,.26-1.24,.79c-1.06,1.45-2.25,2.64-3.56,3.56-1.32,.92-2.54,1.9-3.66,2.92s-2.04,1.54-2.77,1.54-1.58-.21-2.57-.64c-.99-.43-1.48-.86-1.48-1.29s.3-.88,.89-1.34c2.18-1.72,4.11-3.38,5.79-5,1.68-1.62,2.59-2.53,2.72-2.72,.13-.2,.2-.46,.2-.79s-.13-.61-.4-.84c-.27-.23-1.09-.76-2.47-1.58-1.39-.82-2.25-1.24-2.57-1.24-.86,0-2.38,.94-4.55,2.82s-3.89,3.66-5.15,5.35c-1.25,1.68-1.91,2.79-1.98,3.32-.07,.53-.91,1.4-2.53,2.62-1.62,1.22-3.46,1.83-5.54,1.83s-3.32-.1-3.71-.3c-.4-.2-.59-.58-.59-1.14s.84-1.37,2.52-2.42c1.68-1.06,3.12-1.85,4.31-2.38,1.91-.92,4.09-2.87,6.53-5.84,2.44-2.97,4.26-5.92,5.45-8.86,1.19-2.94,1.78-4.6,1.78-5s-.21-.59-.64-.59-2.13,.54-5.1,1.63c-2.97,1.09-4.82,1.85-5.54,2.28-.73,.43-1.17,.84-1.34,1.24-.17,.4-.45,.59-.84,.59s-.99-.69-1.78-2.08c-.79-1.39-1.19-2.51-1.19-3.37s.41-1.29,1.24-1.29,2.66-.61,5.49-1.83c2.84-1.22,4.55-1.91,5.15-2.08,.59-.16,.89-.51,.89-1.04s-.03-.99-.1-1.39c-.53-4.09-.79-7.16-.79-9.21s.05-3.48,.15-4.31c.1-.82,.15-1.76,.15-2.82l-.2-4.16c0-1.05,.72-1.85,2.18-2.38,.79-.26,1.42-.64,1.88-1.14,.46-.49,1.01-1.4,1.63-2.72,.63-1.32,.94-2.21,.94-2.67s-.2-.69-.59-.69-.73,.03-.99,.1c-1.45,.33-3.63,.66-6.54,.99-5.02,.53-7.99,1.45-8.91,2.77-.46,.59-.86,.89-1.19,.89s-.61-.56-.84-1.68c-.23-1.12-.35-2.24-.35-3.37s.06-1.86,.2-2.23c.13-.36,1.17-.72,3.12-1.09,1.95-.36,3.74-.64,5.4-.84,1.65-.2,4.98-.87,10-2.03,5.02-1.15,9.9-2.08,14.65-2.77s8-1.05,9.75-1.09c1.75-.03,3.08-.05,4.01-.05,2.44,0,4.29-.26,5.54-.79,.26-.06,.49-.1,.69-.1,.79,0,1.67,.66,2.62,1.98,.96,1.32,1.44,2.64,1.44,3.96s-.3,1.98-.89,1.98-1.27-.15-2.03-.45c-.76-.3-2.2-.45-4.31-.45s-5.38,.15-9.8,.45c-4.42,.3-7.01,.64-7.77,1.04-.76,.4-1.58,1.17-2.48,2.33-.89,1.16-1.34,1.87-1.34,2.13s.12,.49,.35,.69c.23,.2,.45,.26,.64,.2,3.17-.86,5.72-1.29,7.67-1.29s3.98,.25,6.09,.74c2.11,.5,3.17,1.17,3.17,2.03,0,.27-.13,.53-.4,.79-1.06,1.06-1.62,4.26-1.68,9.6-.13,3.96-.36,7.1-.69,9.41s-.49,4.4-.49,6.29-.07,3.18-.2,3.91l-.2,1.78c0,.53,.07,1.06,.2,1.58Zm-23.37-7.62c.13,0,1.75-.54,4.85-1.63,3.1-1.09,5.64-1.91,7.62-2.47s3.1-.96,3.37-1.19c.26-.23,.48-1,.64-2.33,.16-1.32,.25-2.87,.25-4.65s-.08-3.6-.25-5.45c-.17-1.85-.31-3.13-.45-3.86-.13-.72-.53-1.32-1.19-1.78-.66-.46-1.6-.69-2.82-.69s-3.35,.45-6.39,1.34-4.87,1.67-5.49,2.33c-.63,.66-.94,1.17-.94,1.54s.08,.64,.25,.84,.35,.26,.54,.2c1.32-.46,3.25-1.02,5.79-1.68,2.54-.66,4.22-.99,5.05-.99s1.24,.66,1.24,1.98-.18,2.2-.54,2.62-1.27,.83-2.72,1.19c-1.45,.36-3.38,1.14-5.79,2.33-2.41,1.19-3.61,2.15-3.61,2.87,0,.4,.26,.59,.79,.59,.33,0,1.5-.28,3.51-.84,2.01-.56,3.63-1.05,4.85-1.48,1.22-.43,1.93-.64,2.13-.64,.66,0,.99,.68,.99,2.03s-.18,2.23-.54,2.62c-.36,.4-1.7,1.07-4.01,2.03-2.31,.96-4.49,1.7-6.54,2.23-.86,.27-1.29,.83-1.29,1.68s.23,1.29,.69,1.29Zm15.45,6.44c.33,0,.49-.23,.49-.69,0-.2-.23-.53-.69-.99-.46-.46-.88-1.01-1.24-1.63-.37-.63-.71-1.01-1.04-1.14-.33-.13-.59-.2-.79-.2l-2.18,.79c-.66,.2-1.26,.54-1.78,1.04-.53,.5-1.27,1.62-2.23,3.37-.96,1.75-1.44,2.89-1.44,3.41s.3,1.09,.89,1.68,1.5,1.25,2.72,1.98c1.22,.73,2.03,1.09,2.43,1.09s.91-.33,1.54-.99c.62-.66,.94-1.22,.94-1.68,0-.92-1.16-1.65-3.46-2.18-.86-.2-1.29-.73-1.29-1.58,0-1.05,.66-1.65,1.98-1.78l5.15-.49Z"/><path class="uuid-1a950d6a-01b2-49bf-8676-36742bf0f0f6" d="M706.32,314.35c0,.4-.36,.86-1.09,1.39s-1.37,2.1-1.93,4.7c-.56,2.61-.84,5.31-.84,8.12s-.08,6.87-.25,12.18c-.16,5.31-.35,9.46-.54,12.43-.2,2.97-.3,4.88-.3,5.74v2.28c0,1.65-.36,2.48-1.09,2.48-.33,0-.69-.13-1.09-.4-2.77-1.92-4.95-3.3-6.53-4.16s-3.65-2.14-6.19-3.86c-2.54-1.71-4.54-3.2-5.99-4.46-.53-.53-1.11-.79-1.73-.79s-2.46,.51-5.49,1.53c-3.04,1.03-5,1.87-5.89,2.53s-1.54,.99-1.93,.99c-1.19,0-2.11-1.77-2.77-5.3-.66-3.53-.99-7.92-.99-13.17s.26-10.26,.79-15.05c.53-4.79,.99-7.52,1.39-8.22,.39-.69,1.07-1.07,2.03-1.14,.96-.06,1.81-.21,2.57-.45,.76-.23,4.54-.82,11.33-1.78,6.8-.96,11.35-1.44,13.66-1.44s4.26,.4,5.84,1.19c1.58,.79,3.15,1.63,4.7,2.52,1.55,.89,2.33,1.6,2.33,2.13Zm-17.72,38.21c1.98,0,3.04-.66,3.17-1.98,.13-1.32,.2-6.14,.2-14.46s-.15-13.73-.45-16.24c-.3-2.51-.73-4.14-1.29-4.9-.56-.76-1.7-1.14-3.42-1.14s-4.21,.54-7.47,1.63c-3.27,1.09-5.31,2.13-6.14,3.12-.83,.99-1.24,2.47-1.24,4.45,0,.86,.53,1.29,1.58,1.29l6.24-.2c2.31,0,3.71,.23,4.21,.69,.49,.46,.74,1.55,.74,3.27,0,.99-.28,1.78-.84,2.38-.56,.59-4.14,1.98-10.74,4.16-.92,.33-1.53,.66-1.83,.99s-.53,1.09-.69,2.28c-.17,1.19-.25,2.38-.25,3.56s.36,1.78,1.09,1.78c.26,0,1.35-.25,3.27-.74,1.91-.5,3.18-.74,3.81-.74s1.2,.05,1.73,.15c.53,.1,.99,.15,1.39,.15l1.09-.1c.73,0,1.4,.49,2.03,1.48s.94,2.31,.94,3.96c0,.59-.33,1.02-.99,1.29-.33,.13-.5,.48-.5,1.04s.46,1.17,1.39,1.83c.92,.66,1.91,.99,2.97,.99Z"/><path class="uuid-1a950d6a-01b2-49bf-8676-36742bf0f0f6" d="M670.97,423.85c0,.59-.49,1.45-1.48,2.57-.99,1.12-1.62,1.93-1.88,2.43-.27,.49-.4,1.04-.4,1.63-.07,2.57-.26,5.79-.59,9.65-.33,3.86-.5,7.15-.5,9.85l.1,7.13c0,3.23-.23,5.33-.69,6.29s-1.24,1.44-2.33,1.44-1.87-.17-2.33-.49c-.46-.33-.69-.89-.69-1.68s.16-3.45,.5-7.97c.33-4.52,.49-7.75,.49-9.7s-.12-3.61-.35-5c-.23-1.38-.43-2.16-.59-2.33-.17-.16-.41-.25-.74-.25-.66,0-1.55,.93-2.67,2.77-1.12,1.85-1.68,3.1-1.68,3.76s-.08,1.15-.25,1.48c-.16,.33-.84,1.09-2.03,2.28-1.19,1.19-2.29,2.1-3.32,2.72s-2.06,1.07-3.12,1.34c-1.06,.27-1.98,.4-2.77,.4s-1.19-.15-1.19-.45,.16-.68,.49-1.14c.33-.46,1.44-1.77,3.32-3.91,1.88-2.14,3.33-3.73,4.36-4.75,1.02-1.02,2.66-3.1,4.9-6.24,2.24-3.13,4.11-5.99,5.59-8.56,1.48-2.57,2.67-4.41,3.56-5.49,.89-1.09,1.6-1.63,2.13-1.63s1.35,.45,2.48,1.34c1.12,.89,1.68,1.73,1.68,2.52Zm1.78-17.52c0,.4-.08,.78-.25,1.14-.17,.36-1.22,1.6-3.17,3.71-1.95,2.11-3.88,3.88-5.79,5.3-1.92,1.42-3.93,3.19-6.04,5.3-.33,.33-.73,.49-1.19,.49s-.83-.08-1.09-.25c-.27-.16-.4-.56-.4-1.19s.1-1.2,.3-1.73c.2-.53,1.2-2.44,3.02-5.74,1.81-3.3,3.22-5.76,4.21-7.38s1.81-2.85,2.48-3.71c.66-.86,1.07-1.34,1.24-1.44,.16-.1,.31-.15,.45-.15,.46,0,1.25,.46,2.38,1.39,1.12,.92,2.04,1.67,2.77,2.23,.72,.56,1.09,1.24,1.09,2.03Zm46.93,20.59c0,1.78-.56,2.67-1.68,2.67-.4,0-1.16-.16-2.28-.49-1.12-.33-2.66-.5-4.6-.5s-3.23,.13-3.86,.4-1.19,.89-1.68,1.88c-.5,.99-.79,1.85-.89,2.57-.1,.73-.15,2.81-.15,6.24l-.2,15.15c0,1.98,.15,4.42,.45,7.33,.3,2.9,.56,4.93,.79,6.09,.23,1.15,.35,1.96,.35,2.43,0,1.25-.49,1.88-1.48,1.88-.4,0-.86-.1-1.39-.3-1.25-.53-3.78-1.32-7.57-2.38-3.79-1.06-6.53-2.08-8.22-3.07-1.68-.99-3.61-2.44-5.79-4.36-2.18-1.91-3.27-2.95-3.27-3.12s.1-.25,.3-.25,.43,.03,.69,.1c7.66,2.31,12.46,3.46,14.4,3.46s3.23-.36,3.86-1.09c.63-.72,.94-1.81,.94-3.27s-.17-5.02-.5-10.69c-.33-5.68-.68-9.68-1.04-12.03-.36-2.34-.63-3.71-.79-4.11-.17-.4-.61-.76-1.34-1.09s-1.32-.5-1.78-.5c-1.78,0-4.19,.28-7.23,.84-3.04,.56-5.51,1.37-7.43,2.43-.66,.4-1.24,.59-1.73,.59s-1.24-.86-2.23-2.57c-.99-1.71-1.49-2.82-1.49-3.32s.07-.84,.2-1.04c.13-.2,1.25-.51,3.37-.94,2.11-.43,3.74-.71,4.9-.84,1.15-.13,3.08-.53,5.79-1.19,2.71-.66,4.9-1.32,6.58-1.98,1.68-.66,3.18-1.12,4.5-1.38s2.59-.4,3.81-.4,2.39-.15,3.51-.45,2.16-.5,3.12-.59c.96-.1,2.82-.15,5.59-.15,1.12,0,1.88,.25,2.28,.74,.39,.49,1.02,1.44,1.88,2.82,.86,1.39,1.29,2.87,1.29,4.46Zm-16.34-24.55c1.05,0,1.91,.56,2.57,1.68,.66,1.12,.99,2.1,.99,2.92s-.17,1.53-.49,2.13c-.33,.59-2.15,1.72-5.45,3.37-3.3,1.65-5.51,2.61-6.63,2.87-1.12,.26-2.08,.4-2.87,.4-2.64,0-4.39,.12-5.25,.35-.86,.23-1.38,.35-1.58,.35-.92,0-1.55-.76-1.88-2.28s-.66-2.69-.99-3.52c-.33-.82-.49-1.34-.49-1.53,0-.73,.63-1.15,1.88-1.29,2.18-.13,4.14-.56,5.89-1.29,1.75-.73,4.34-1.6,7.77-2.62,3.43-1.02,5.61-1.53,6.53-1.53Z"/><path class="uuid-1a950d6a-01b2-49bf-8676-36742bf0f0f6" d="M666.32,532.55c-.13,.59,.06,.99,.59,1.19,.2,.07,.41,.35,.64,.84,.23,.49,.35,.97,.35,1.44,0,1.06-.31,1.93-.94,2.62s-1.01,1.25-1.14,1.68-.36,3.15-.69,8.17c-.33,5.02-.5,9.07-.5,12.18s.12,5.59,.35,7.47c.23,1.88,.35,3.4,.35,4.55s-.15,2.33-.45,3.51-.73,1.78-1.29,1.78-1.55-.54-2.97-1.63c-1.42-1.09-3.15-2.29-5.2-3.61-2.05-1.32-3.71-2.86-5-4.6-1.29-1.75-2.06-2.74-2.33-2.97-.26-.23-1.58-1.04-3.96-2.42-2.38-1.39-3.56-2.67-3.56-3.86,0-.46,.21-1.02,.64-1.68,.43-.66,2.54-2.97,6.34-6.93,3.79-3.96,7.54-7.56,11.24-10.79,.39-.4,.59-1.02,.59-1.88v-3.76c0-.86-.23-1.29-.69-1.29s-1.54,.21-3.22,.64c-1.68,.43-2.87,.83-3.56,1.19-.69,.37-1.34,.84-1.93,1.44-.59,.6-1.15,.89-1.68,.89s-1.47-1.29-2.82-3.86c-1.35-2.57-2.03-4.32-2.03-5.25s.76-1.45,2.28-1.58c4.29-.46,7.75-1.4,10.39-2.82,2.64-1.42,4.03-2.21,4.16-2.38,.13-.16,.31-1.29,.54-3.37,.23-2.08,.58-7.8,1.04-17.18,.06-1.85,.48-2.77,1.24-2.77s1.96,.35,3.61,1.04c1.65,.69,2.47,1.34,2.47,1.93s-.2,1.12-.59,1.58c-.93,1.12-1.39,2.59-1.39,4.4s-.23,3.53-.69,5.15c-.46,1.62-.69,3.81-.69,6.58,0,.53,.12,.84,.35,.94,.23,.1,1.01,.15,2.33,.15,1.05,0,1.58,1.09,1.58,3.27,0,.99-.63,2.15-1.88,3.46-1.25,1.32-1.88,2.31-1.88,2.97v3.56Zm-6.34,21.88v-4.16c0-.59-.15-.89-.45-.89s-.58,.23-.84,.69c-3.17,5.21-5.38,8.45-6.63,9.7-1.26,1.25-1.88,2.33-1.88,3.22s.15,1.57,.45,2.03c.3,.46,1.19,1.04,2.67,1.73,1.49,.69,2.72,1.04,3.71,1.04s1.67-.23,2.03-.69c.36-.46,.61-1.98,.74-4.55s.2-5.28,.2-8.12Zm30-8.02c0,.46-.43,.99-1.29,1.58s-1.52,1.24-1.98,1.93c-.46,.69-.96,1.77-1.49,3.22-.53,1.45-.79,2.38-.79,2.77s.16,.69,.49,.89c2.51,1.45,3.76,2.91,3.76,4.36,0,.73-.15,1.48-.45,2.28-.3,.79-.78,1.19-1.44,1.19s-1.48-.23-2.47-.69c-.99-.46-1.72-.69-2.18-.69s-.79,.17-.99,.49c-2.05,3.1-4.85,4.65-8.41,4.65-1.26,0-2.69-.23-4.31-.69-1.62-.46-2.43-.99-2.43-1.58s.53-1.09,1.58-1.48c2.77-.99,4.85-2.03,6.24-3.12,1.39-1.09,2.08-1.83,2.08-2.23s-.2-.73-.6-.99l-2.28-1.88c-1.52-1.19-2.28-2.16-2.28-2.92s.61-1.14,1.83-1.14,3.41,.53,6.58,1.58c.2,.13,.43,.2,.69,.2,.86,0,1.29-.73,1.29-2.18,0-.6-.23-1.27-.69-2.03-.46-.76-1.06-1.14-1.78-1.14s-1.44,.3-2.13,.89-1.24,.89-1.63,.89-.99-.35-1.78-1.04c-.79-.69-1.19-1.35-1.19-1.98s.5-1.1,1.48-1.44c1.98-.66,3.96-1.44,5.94-2.33,1.98-.89,3.45-1.34,4.4-1.34s2.23,.49,3.81,1.48,2.38,1.82,2.38,2.47Zm-11.98-10.1c.33,0,.61-.18,.84-.54,.23-.36,.45-1.39,.64-3.07,.2-1.68,.3-3.5,.3-5.45s-.12-3.91-.35-5.89c-.23-1.98-.43-3.12-.59-3.42-.17-.3-.41-.45-.74-.45-.93-.06-1.55-.79-1.88-2.18-.33-1.39-.5-2.34-.5-2.87,0-1.32,.54-1.98,1.63-1.98s3.55-.61,7.38-1.83c3.83-1.22,7.88-2.31,12.18-3.27s7-1.44,8.12-1.44,1.88,.51,2.28,1.54c.39,1.02,.59,1.93,.59,2.72,0,2.04-.89,3.23-2.67,3.56-1.65,.27-2.74,.64-3.27,1.14-.53,.5-.93,1.9-1.19,4.21-.26,2.31-.39,6.11-.39,11.39,0,.73,.33,1.09,.99,1.09,2.24,0,4.42-.26,6.54-.79,.59-.13,1.12-.2,1.58-.2,1.38,0,2.43,.73,3.12,2.18,.69,1.45,1.04,2.71,1.04,3.76s-.56,1.58-1.68,1.58c-.4,0-.83-.1-1.29-.3-1.65-.66-3.43-.99-5.35-.99s-3.2,.05-3.86,.15c-.66,.1-.99,.41-.99,.94,0,1.25,.08,2.06,.25,2.43,.16,.36,.45,.54,.84,.54,1.91,0,3.66,.41,5.25,1.24,1.58,.83,2.38,1.6,2.38,2.33s-.27,1.35-.79,1.88-1.21,2.77-2.03,6.73c-.83,3.96-1.38,6.27-1.68,6.93-.3,.66-.45,1.09-.45,1.29,0,.59,.88,1.52,2.62,2.77,1.75,1.25,4.17,2.54,7.28,3.86,7.52,3.3,11.29,5.67,11.29,7.13,0,.33-.15,.61-.45,.84-.3,.23-1.26,.45-2.87,.64-1.62,.2-3.29,.3-5,.3s-3.6-.28-5.64-.84c-2.05-.56-3.37-1.07-3.96-1.54-.59-.46-.96-1.16-1.09-2.08-.4-1.92-1.24-3.56-2.53-4.95-1.29-1.38-2.1-2.08-2.43-2.08s-.63,.13-.89,.39c-4.29,4.29-7.74,7.06-10.35,8.32s-4.9,1.88-6.88,1.88c-.59,0-1.09-.13-1.48-.39-.4-.27-.59-.6-.59-.99s.26-.73,.79-.99c4.09-2.05,7.43-4.32,10-6.83,2.57-2.51,3.86-4.19,3.86-5.05,0-.46-.13-.76-.4-.89l-3.37-2.28c-.99-.66-1.65-1.32-1.98-1.98-.33-.66-.5-1.47-.5-2.43s.33-1.87,.99-2.72,1.44-1.29,2.33-1.29,1.95,.97,3.17,2.92c1.22,1.95,2.13,2.92,2.72,2.92,.26,0,.46-.11,.59-.35,.13-.23,.46-1.17,.99-2.82,.53-1.65,.79-3.27,.79-4.85s-.36-2.38-1.09-2.38c-.4,0-1.27,.4-2.62,1.19-1.35,.79-2.33,1.19-2.92,1.19s-1.26-.38-1.98-1.14c-.73-.76-1.09-1.42-1.09-1.98s.15-.97,.45-1.24c.3-.26,.78-.54,1.44-.84,.66-.3,1.04-.64,1.14-1.04,.1-.39,.15-1.1,.15-2.13s-.16-1.54-.49-1.54-1.4,.21-3.22,.64c-1.82,.43-4.26,1.17-7.33,2.23-3.07,1.06-5.56,1.82-7.47,2.28-1.92,.46-3.25,.84-4.01,1.14-.76,.3-1.32,.45-1.68,.45s-.74-.25-1.14-.74c-.4-.49-.59-.97-.59-1.44s.18-.87,.54-1.24,1.73-.92,4.11-1.68c2.38-.76,3.89-1.2,4.55-1.34Zm7.33-2.67c.06,0,1.24-.41,3.51-1.24,2.28-.82,3.85-1.35,4.7-1.58,.86-.23,1.37-.5,1.54-.79,.16-.3,.25-1.8,.25-4.5,0-7.59-.79-11.38-2.38-11.38-2.9,0-4.59,.2-5.05,.59-.46,.4-.69,1.01-.69,1.83s.23,1.21,.69,1.14c1.32-.2,2.34-.3,3.07-.3s1.19,.12,1.39,.35c.2,.23,.3,.61,.3,1.14,0,1.19-.69,2.05-2.08,2.57-2.31,.92-3.68,1.58-4.11,1.98-.43,.4-.64,.79-.64,1.19s.26,.56,.79,.49c2.11-.26,3.6-.4,4.46-.4s1.29,.28,1.29,.84-.2,1.11-.59,1.63c-.4,.53-.94,.89-1.63,1.09-.69,.2-1.58,.56-2.67,1.09-1.09,.53-1.73,.89-1.93,1.09-.2,.2-.38,.54-.54,1.04-.17,.49-.25,.97-.25,1.44s.2,.69,.59,.69Z"/></g></svg>