<?xml version="1.0" encoding="UTF-8"?><svg id="uuid-5712cf39-2aa4-406b-9840-b8c172a661a0" xmlns="http://www.w3.org/2000/svg" viewBox="0 0 1366 768"><defs><style>.uuid-71593ebf-47aa-4978-a824-d57c391d77eb{fill:#fff;}</style></defs><rect width="1367" height="768"/><g><path class="uuid-71593ebf-47aa-4978-a824-d57c391d77eb" d="M668.35,229.54c.33-1.65,.76-3.2,1.29-4.65,.53-1.45,.89-2.18,1.09-2.18s.3,.26,.3,.79-.17,1.45-.5,2.77c-1.72,6.93-2.57,13.6-2.57,20l.3,10.1c0,1.92-.2,3.43-.59,4.55-.4,1.12-.96,1.68-1.68,1.68s-1.55-.76-2.48-2.28l-2.97-4.75c-.99-1.65-1.39-3.56-1.19-5.74,.46-4.49,.69-9.6,.69-15.34,0-4.49-.43-6.73-1.29-6.73-.33,0-.76,.26-1.29,.79-2.9,3.04-4.77,4.55-5.59,4.55s-1.75-1.24-2.77-3.71c-1.02-2.48-1.53-4.55-1.53-6.24s.64-2.99,1.93-3.91c1.29-.92,2.77-2.48,4.46-4.65,1.68-2.18,3.91-5.2,6.68-9.06,2.77-3.86,4.36-6.15,4.75-6.88,.4-.72,.59-1.4,.59-2.03s-.07-1.27-.2-1.93c-.13-.66-.2-1.24-.2-1.73s.28-.74,.84-.74,1.96,.66,4.21,1.98c2.24,1.32,4.04,2.9,5.4,4.75,1.35,1.85,2.03,3.73,2.03,5.64,0,2.57-1.22,4.69-3.66,6.34-4.49,2.97-8.05,6.63-10.69,10.99,2.11,1.58,3.66,4.12,4.65,7.62Zm36.83-23.66c4.82-1.05,8.46-1.58,10.94-1.58s4.83,1.14,7.08,3.42c2.24,2.28,3.37,4.57,3.37,6.88s-.96,3.83-2.87,4.55c-1.72,.66-3.09,1.54-4.11,2.62-1.02,1.09-2.66,2.39-4.9,3.91,1.32,1.65,1.98,3.07,1.98,4.26s-.33,2.06-.99,2.62c-.66,.56-1.39,.84-2.18,.84s-1.52-.11-2.18-.35c-.66-.23-1.75-.35-3.27-.35s-2.81,.33-3.86,.99c-.53,11.35-1.06,20.49-1.58,27.42-.53,6.93-1.02,11.48-1.49,13.66-.46,2.18-.99,3.27-1.58,3.27-.92,0-1.68-2.87-2.28-8.61-.59-5.74-1.02-16.6-1.29-32.57-1.32,.66-2.49,1.11-3.51,1.34-1.02,.23-2.08,.33-3.17,.3-1.09-.03-1.93-.05-2.52-.05-.59,2.18-1.49,3.27-2.67,3.27s-2.61-1.4-4.26-4.21c-1.65-2.8-2.47-5.69-2.47-8.66,0-4.95-.99-8.12-2.97-9.5-1.06-.73-1.58-1.32-1.58-1.78s.73-.69,2.18-.69c2.64,0,4.92,.53,6.83,1.58,1.91-2.64,3.81-4.6,5.69-5.89s4.67-2.59,8.37-3.91c0-2.71-.26-4.93-.79-6.68-.53-1.75-.79-3.33-.79-4.75s.23-3.05,.69-4.9c-.13-.53-.2-1.02-.2-1.48,0-1.52,.5-2.75,1.49-3.71,.99-.96,2.26-1.44,3.81-1.44s2.84,.79,3.86,2.38,1.54,3.9,1.54,6.93c0,.33-.05,1.58-.15,3.76-.1,2.18-.15,4.55-.15,7.13Zm-9.21,21.98c0-5.21-.03-8.68-.1-10.39-2.18,1.32-4.16,2.08-5.94,2.28-.59,.13-1.19,.64-1.78,1.53s-.89,1.96-.89,3.22,.1,2.87,.3,4.85c2.51,.26,5.31-.23,8.42-1.49Zm.2-27.72c.46-.13,.69-.5,.69-1.09,0-1.12-.18-1.68-.54-1.68s-.54,.49-.54,1.48c0,.53,.13,.96,.4,1.29Zm8.61,19.4c.53,1.58,1.19,2.38,1.98,2.38s2.31-1.52,4.55-4.55c2.24-3.04,3.37-5.11,3.37-6.24,0-.59-.41-.89-1.24-.89s-2.15,.25-3.96,.74c-1.82,.5-3.32,1.21-4.5,2.13-.13,2.44-.2,4.59-.2,6.44Z"/><path class="uuid-71593ebf-47aa-4978-a824-d57c391d77eb" d="M702.71,365.27c7,2.77,11.85,5.08,14.55,6.93,2.71,1.85,4.65,4.16,5.84,6.93,1.19,2.77,1.78,4.46,1.78,5.05s-.31,.89-.94,.89-2.34-.79-5.15-2.38c-2.81-1.58-5.05-3-6.73-4.26-1.68-1.25-3.3-2.33-4.85-3.22-1.55-.89-4.34-2.26-8.37-4.11-3.56,4.03-8.02,6.04-13.37,6.04-4.22,0-9.31-1.25-15.25-3.76-1.52,2.18-2.81,3.27-3.86,3.27s-1.87-.4-2.42-1.19c-.56-.79-.84-1.82-.84-3.07s.84-3.42,2.52-6.48,3.42-4.98,5.2-5.74c1.78-.76,3.89-2.75,6.34-5.99,2.44-3.23,3.66-5.28,3.66-6.14,0-.33-.17-.69-.5-1.09l-10.2,6.14c-3.37,1.98-5.21,3.04-5.54,3.17-.33,.13-.69,.2-1.09,.2-1.45,0-2.18-1.02-2.18-3.07,0-3.43,.58-5.15,1.73-5.15s2.38-.21,3.66-.64c1.29-.43,3.94-1.53,7.97-3.32-1.85-3.3-2.77-6.96-2.77-10.99,0-8.05,4.16-15.44,12.47-22.18,1.19-.99,1.71-1.88,1.58-2.67-2.11,.53-4.29,1.42-6.53,2.67-2.24,1.25-5.05,3.47-8.42,6.63-.99,.92-2.24,1.39-3.76,1.39s-3.04-.51-4.55-1.53c-1.52-1.02-2.79-2.38-3.81-4.06-1.02-1.68-1.53-2.74-1.53-3.17s.4-.68,1.19-.74c2.57-.13,4.75-.43,6.53-.89,1.78-.46,4.92-1.48,9.41-3.07,10.69-3.7,19.34-5.54,25.94-5.54,2.97,0,5.4,.36,7.28,1.09,1.88,.73,2.82,1.82,2.82,3.27,0,.86-.36,1.58-1.09,2.18-.73,.59-1.68,.89-2.87,.89-4.29,.07-7.29,.51-9.01,1.34-1.72,.83-2.57,1.54-2.57,2.13s.59,1.12,1.78,1.58c2.38,.92,3.93,1.77,4.65,2.52,.73,.76,1.09,1.83,1.09,3.22s-.1,3.35-.3,5.89c-.2,2.54-.3,4.7-.3,6.48l.2,5.84c0,4.49-.59,7.95-1.78,10.4,1.91,.73,3.43,1.83,4.55,3.32,1.12,1.48,1.68,2.9,1.68,4.26s-.3,2.61-.89,3.76c-.59,1.16-1.58,3.48-2.97,6.98Zm-11.78,2.18c-1.45-.66-3.45-1.3-5.99-1.93-2.54-.63-4.64-.94-6.29-.94-2.84,1.78-5.05,3.9-6.63,6.34,2.38,1.12,4.75,1.68,7.13,1.68,4.16,0,8.08-1.72,11.78-5.15Zm-11.68-27.82c1.91-1.72,3.22-2.72,3.91-3.02,.69-.3,1.04-.59,1.04-.89s-.45-.45-1.34-.45-1.47-.36-1.73-1.09c-.26-.73-.4-1.76-.4-3.12s.73-2.62,2.18-3.81c.79-.73,1.19-1.32,1.19-1.78s-.66-.96-1.98-1.49c-.73,.79-1.4,2.61-2.03,5.45-.63,2.84-.94,5.08-.94,6.73s.03,2.81,.1,3.46Zm6.34-21.68c5.02,1.45,7.52,3.07,7.52,4.85,0,1.12-.61,2.34-1.83,3.66-1.22,1.32-1.83,2.23-1.83,2.72s.56,1.14,1.68,1.93c1.12,.79,1.68,1.63,1.68,2.52s-.79,1.67-2.38,2.33c-.86,.4-1.29,.83-1.29,1.29s.54,.86,1.63,1.19c1.09,.33,1.82,.5,2.18,.5s.61-.11,.74-.35c.13-.23,.23-1.55,.3-3.96,.07-2.41,.1-4.52,.1-6.34s-.1-3.98-.3-6.48c-.2-2.51-.36-3.94-.49-4.31-.13-.36-.43-.71-.89-1.04-.46-.33-1.62-.83-3.46-1.49l-3.37,2.97Zm9.9,44.55c1.45-1.98,2.47-3.86,3.07-5.64,.59-1.78,.89-3.13,.89-4.06s-.25-1.39-.74-1.39-1.01,.26-1.54,.79c-.53,.53-1.35,1.09-2.47,1.68-1.12,.59-3.66,1.78-7.62,3.56-.26,.73-.63,1.49-1.09,2.28,4.09,1.12,7.26,2.05,9.5,2.77Zm-4.06-13.17c-.2-1.65-.49-2.48-.89-2.48s-1.22,.83-2.47,2.48v1.68c1.45-.4,2.57-.96,3.37-1.68Z"/><path class="uuid-71593ebf-47aa-4978-a824-d57c391d77eb" d="M693,433.88c3.43-1.52,7.59-2.28,12.47-2.28s9.26,.84,13.12,2.52c3.86,1.68,5.79,3.85,5.79,6.48,0,.66-.2,1.34-.59,2.03-.4,.69-.71,1.6-.94,2.72-.23,1.12-.48,3.04-.74,5.74-.86,8.78-1.72,14.37-2.57,16.78-.86,2.41-2.33,5.41-4.41,9.01-2.08,3.6-3.58,5.4-4.5,5.4-.33,0-.73-.38-1.19-1.14-.46-.76-.97-1.35-1.53-1.78-.56-.43-1.93-1.07-4.11-1.93-2.18-.86-3.81-1.81-4.9-2.87-1.09-1.05-2.23-2.47-3.42-4.26-1.19-1.78-1.78-2.85-1.78-3.22s.2-.54,.59-.54,1.22,.23,2.48,.69c5.28,1.85,9.04,2.77,11.29,2.77,1.19,0,2.03-.38,2.52-1.14,.5-.76,1.09-4.03,1.78-9.8,.69-5.77,1.04-9.9,1.04-12.38s-.13-4.39-.4-5.74c-.26-1.35-.66-2.46-1.19-3.32-.53-.86-.99-1.42-1.39-1.68-.4-.26-1.16-.4-2.28-.4-3.63,0-8.68,1.25-15.15,3.76-.53,1.92-.86,4.03-.99,6.34,1.58-.92,3-1.88,4.26-2.87,1.25-.99,2.49-1.48,3.71-1.48s2.39,.36,3.51,1.09c1.12,.73,1.68,1.78,1.68,3.17s-.59,2.61-1.78,3.66c-1.58,1.45-2.38,2.61-2.38,3.46s.23,1.32,.69,1.39c2.71,.26,4.57,1.34,5.59,3.22,1.02,1.88,1.54,3.2,1.54,3.96s-.46,1.14-1.39,1.14c-1.52,0-3.6-.26-6.24-.79-2.64-.53-4.6-1.4-5.89-2.62-1.29-1.22-1.93-2.57-1.93-4.06s.89-3.32,2.67-5.5c.53-.66,.79-1.29,.79-1.88s-.13-.89-.4-.89c-.93,0-2.48,.92-4.65,2.77-.2,2.25-.3,4.75-.3,7.52l.1,4.95c0,3.43-.36,6.09-1.09,7.97-.73,1.88-1.34,2.82-1.83,2.82s-1.4-.78-2.72-2.33c-1.32-1.55-1.98-3.51-1.98-5.89s.1-4.95,.3-7.72c-2.24,2.31-4.62,5.51-7.13,9.6-.59,1.06-1.37,1.58-2.33,1.58s-1.95-.76-2.97-2.28c-1.02-1.52-1.54-3.17-1.54-4.95s.35-3.03,1.04-3.76c.69-.73,1.04-1.44,1.04-2.13s-.3-1.34-.89-1.93c-.59-.59-.89-1.24-.89-1.93s.16-1.19,.5-1.49c.33-.3,1.02-.45,2.08-.45,3.1,0,4.79,.92,5.05,2.77,.13,.93,.36,1.39,.69,1.39,.2,0,.94-.46,2.23-1.39,1.29-.92,2.39-1.48,3.32-1.68,0-2.18,.1-4.72,.3-7.62-1.52,.53-2.81,1.09-3.86,1.68-1.06,.59-1.85,.94-2.38,1.04-.53,.1-1.49,.15-2.87,.15s-3.04,.83-4.95,2.47c-1.92,1.65-2.87,3.24-2.87,4.75,0,.53,.1,1.19,.3,1.98,.4,1.78,.59,4.6,.59,8.46s-.26,6.91-.79,9.16c-.53,2.24-1.19,3.37-1.98,3.37-.26,0-.54-.13-.84-.4-.3-.26-.97-1.12-2.03-2.57-1.06-1.45-1.73-2.84-2.03-4.16-.3-1.32-.41-2.57-.35-3.76,.06-1.19,.1-2.66,.1-4.41s-.36-3.02-1.09-3.81c-1.65-2.04-2.47-4.39-2.47-7.03s.35-5.36,1.04-8.17c.69-2.8,1.27-4.21,1.73-4.21,.26,0,.43,.36,.5,1.09,.2,1.92,.89,4.46,2.08,7.62s2.08,4.75,2.67,4.75c3.43-5.94,5.56-9.16,6.39-9.65,.82-.49,5.16-2,13.02-4.5,.2-1.45-.43-3.02-1.88-4.7-1.45-1.68-2.57-2.39-3.37-2.13-2.64,.92-4.16,1.39-4.55,1.39s-.64-.08-.74-.25c-.1-.16-.25-.25-.45-.25-.53,0-1.85,.41-3.96,1.24-2.11,.83-3.42,1.24-3.91,1.24s-.74-.1-.74-.3c0-.13,.46-.45,1.39-.94,.92-.49,2.39-1.34,4.41-2.52,2.01-1.19,3.17-1.91,3.46-2.18,.3-.26,.45-.54,.45-.84s-.48-.92-1.44-1.88c-.96-.96-1.92-2.19-2.87-3.71-.96-1.52-1.44-2.39-1.44-2.62s.26-.35,.79-.35l2.48,.2c2.97,0,6.68-.68,11.14-2.03,4.46-1.35,7.11-2.72,7.97-4.11,.46-.79,1.32-1.19,2.57-1.19,2.11,0,4.12,.89,6.04,2.67,1.91,1.78,2.87,3.3,2.87,4.55,0,.79-.41,1.5-1.24,2.13-.83,.63-2.18,1.32-4.06,2.08-1.88,.76-4.67,2.06-8.37,3.91,1.91,2.38,3.17,5.08,3.76,8.12Z"/><path class="uuid-71593ebf-47aa-4978-a824-d57c391d77eb" d="M694.19,528.82c1.72-2.64,3.23-3.96,4.55-3.96s3.42,1.17,6.29,3.51,4.31,4.24,4.31,5.69c0,.73-.33,1.45-.99,2.18-3.23,3.5-4.85,6.2-4.85,8.12,0,.4,.1,.84,.3,1.34,.2,.5,.3,.97,.3,1.44,0,1.32-1.39,2.38-4.16,3.17-6.93,2.11-11.63,5.36-14.11,9.75-2.48,4.39-3.71,8.96-3.71,13.71,0,1.32,1.19,2.34,3.56,3.07,2.38,.73,5.38,1.09,9.01,1.09s7.13-.21,10.49-.64c3.37-.43,5.97-.97,7.82-1.63,1.85-.66,3.28-1.52,4.31-2.57,1.02-1.05,1.7-2.23,2.03-3.51,.33-1.29,.5-3.2,.5-5.74s.1-3.81,.3-3.81,.59,1.06,1.19,3.17c1.45,5.54,3.07,9.5,4.85,11.88,.73,.93,1.09,1.82,1.09,2.67,0,2.24-2.44,4.08-7.33,5.49-4.89,1.42-11.19,2.13-18.91,2.13-4.29,0-7.72-.2-10.3-.59-2.57-.4-4.47-.91-5.69-1.53-1.22-.63-2.36-1.49-3.42-2.57-1.06-1.09-1.85-2.34-2.38-3.76-.53-1.42-.79-3.76-.79-7.03s.82-8.07,2.48-14.4c-1.12-1.52-1.68-2.82-1.68-3.91s1.05-1.93,3.17-2.52c5.21-1.45,8.7-2.92,10.44-4.41,1.75-1.48,3.1-3.22,4.06-5.2,.96-1.98,1.44-3.4,1.44-4.26s-.26-1.29-.79-1.29c-.99,0-2.43,1.04-4.31,3.12s-4.11,3.12-6.68,3.12c-1.12,0-2.24-.2-3.37-.59-2.44,.2-4.7,1.78-6.78,4.75-2.08,2.97-4.82,9.39-8.22,19.26-3.4,9.87-5.1,15.99-5.1,18.36l.2,3.07c0,1.45-.5,2.18-1.49,2.18s-2.24-1.19-3.76-3.56c-1.52-2.38-2.28-4.36-2.28-5.94,0-.46,.03-.92,.1-1.39,.26-1.32,.51-4.14,.74-8.46,.23-4.32,.35-8.79,.35-13.41-2.18,2.91-3.63,4.88-4.36,5.94-.73,1.06-1.49,1.75-2.28,2.08-.79,.33-1.55,.5-2.28,.5-2.38,0-4.32-1.17-5.84-3.51-1.52-2.34-2.28-4.6-2.28-6.78,0-1.25,.31-2.54,.94-3.86,.63-1.32,1.05-1.98,1.29-1.98s.35,.31,.35,.94-.07,1.37-.2,2.23c-.13,.86-.2,1.6-.2,2.23s.43,.94,1.29,.94c1.85,0,4.04-.74,6.58-2.23,2.54-1.49,4.14-2.74,4.8-3.76,.66-1.02,1.6-1.8,2.82-2.33,1.22-.53,2.57-.79,4.06-.79s2.67,.54,3.56,1.63c.89,1.09,1.34,2.26,1.34,3.51,0,.86-.35,1.9-1.04,3.12-.69,1.22-1.44,3.38-2.23,6.48-.79,3.1-1.19,5.35-1.19,6.73s.07,2.31,.2,2.77c3.63-8.05,6.63-14.22,9.01-18.51,2.38-4.29,5.05-8.15,8.02-11.58-.07-.26-.1-.5-.1-.69,0-1.06,1.02-2.18,3.07-3.37,2.04-1.19,6-2.94,11.88-5.25Zm-32.67-5.94c.79,0,2.71,.25,5.74,.74,3.03,.49,4.83,1.37,5.4,2.62,.56,1.25,.84,2.52,.84,3.81s-.2,2.08-.59,2.38c-.4,.3-1.21,.59-2.43,.89-1.22,.3-2.31,.63-3.27,.99-.96,.36-3.05,1.3-6.29,2.82l-10.59,5.05c-1.72,.79-2.76,1.19-3.12,1.19s-.54-.03-.54-.1c0-.2,.3-.5,.89-.89,2.11-1.39,4.52-3.28,7.23-5.69,2.71-2.41,4.37-4.01,5-4.8,.63-.79,.94-1.48,.94-2.08,0-.53-.5-1.12-1.49-1.78-.99-.66-1.8-1.62-2.42-2.87-.63-1.25-.94-2.01-.94-2.28s.08-.4,.25-.4,.53,.13,1.09,.4c.56,.26,1.04,.4,1.44,.4s.86-.07,1.39-.2c.53-.13,1.02-.2,1.49-.2Z"/></g></svg>