<?xml version="1.0" encoding="UTF-8"?><svg id="uuid-ee5d81b0-e5ff-42b5-822d-54491f469d4f" xmlns="http://www.w3.org/2000/svg" xmlns:xlink="http://www.w3.org/1999/xlink" viewBox="0 0 1366 768"><defs><style>.uuid-da6e8763-5733-4e9c-843c-8cfe457f7ee1{fill:#fff;}.uuid-f2c3dcbf-62de-4d34-ba56-b7df405e51f5{fill:url(#uuid-bb7f99bd-1564-4805-836b-9255d28f6a2e);}.uuid-37e81478-06a6-4571-bda5-294b67bda0b1{fill:#0080b4;}.uuid-78772809-9438-4462-930b-dc319eda6e34{opacity:.42;}.uuid-4c5d34b8-1c2c-4e24-ba38-aaacd27b3d1a{fill:#1b1918;}.uuid-0ce779bc-cb0c-4942-99b8-78056c09966a{fill:#fdc34e;}</style><linearGradient id="uuid-bb7f99bd-1564-4805-836b-9255d28f6a2e" x1="0" y1="384.5" x2="1366" y2="384.5" gradientUnits="userSpaceOnUse"><stop offset="0" stop-color="#1e8840"/><stop offset="1" stop-color="#8aa508"/></linearGradient></defs><rect class="uuid-f2c3dcbf-62de-4d34-ba56-b7df405e51f5" y="1" width="1366" height="767"/><g class="uuid-78772809-9438-4462-930b-dc319eda6e34"><g><path class="uuid-4c5d34b8-1c2c-4e24-ba38-aaacd27b3d1a" d="M600.5,410.5c-2.82,.37-5.66,.44-8.5,.57-8.14,.38-16.29,.08-24.43,.17-1.59,.02-3.18-.16-4.77-.25-.25-.01-.5,0-.73,0-.17,.44,.14,.61,.33,.82,3.01,3.27,4.45,7.21,5,11.55,.57,4.47,.25,8.88-1.1,13.17-1.5,4.79-4.11,8.88-7.92,12.2-4.88,4.25-10.62,6.64-16.84,8.08-5.89,1.36-11.88,1.57-17.87,1.27-7.29-.36-14.37-1.84-20.91-5.26-5.3-2.76-9.69-6.56-12.78-11.74-1.84-3.09-2.75-6.49-3.31-10.01-.34-2.14-.44-4.31-.43-6.44,.05-8.59,1.8-16.72,7.35-23.61,4.37-5.42,9.98-8.79,16.91-9.85,1.15-.18,2.32-.1,3.49-.1,21.72,0,43.45,.05,65.17-.04,5.03-.02,10.08-.06,15.06-1.04,1.22-.24,1.4-.1,1.69,1.14,1.02,4.28,2.01,8.57,3.01,12.85,.28,1.22,.56,2.44,.87,3.65,.12,.49,.18,1.04,.71,1.32v1.55Zm-74.65,1.05c-5.73,0-11.46,.01-17.2-.01-.96,0-1.74,.23-2.41,.98-3.43,3.83-5,8.22-3.98,13.35,.58,2.89,2.06,5.17,4.8,6.51,1.52,.75,3.1,1.28,4.74,1.68,2.74,.66,5.54,.92,8.33,.97,5.68,.1,11.37,.33,17.05-.21,2.06-.2,4.11-.51,6.05-1.3,1.97-.81,3.85-1.79,5.19-3.51,2.85-3.66,3.04-7.66,1.31-11.83-.86-2.06-2.26-3.74-3.86-5.29-.96-.92-1.98-1.37-3.34-1.35-5.56,.05-11.12,.02-16.68,.02Z"/><path class="uuid-4c5d34b8-1c2c-4e24-ba38-aaacd27b3d1a" d="M487.7,648.65c0-5.91,.01-11.82,.02-17.73q0-2.21,2.24-2.22c16.34,0,32.68,0,49.01-.01,2.2,0,4.39-.17,6.54-.72,3-.76,4.16-2.36,4.32-5.45,.14-2.84-.75-5.36-2.02-7.79-1.15-2.23-2.64-4.24-4.18-6.22-.55-.7-1.21-1.06-2.11-1.01-.47,.03-.95,0-1.42,0-16.68,0-33.36,0-50.05,0q-2.34,0-2.34-2.38c0-5.18,0-10.35,0-15.53,0-.35,0-.69,0-1.04,.05-1.22,.25-1.44,1.44-1.49,.47-.02,.95,0,1.42,0,18.19,0,36.38-.03,54.57,.01,5.43,.01,10.74-.64,15.96-2.12,1.25-.36,1.45-.26,1.82,1.07,1.24,4.31,2.45,8.63,3.66,12.95,.26,.91,.49,1.83,.76,2.74,.2,.69,0,1.15-.66,1.47-2.3,1.11-4.67,2-7.24,2.25-.04,0-.09,0-.13,0-.33,.04-.75-.05-.94,.3-.23,.43,.15,.72,.37,1.01,2.1,2.8,4.03,5.73,5.44,8.93,2.75,6.22,3.57,12.67,1.85,19.32-1.19,4.6-3.69,8.31-7.7,10.96-1.62,1.07-3.44,1.56-5.29,2.01-.53,.13-1.14,.11-1.47,.68h-63.9Z"/><path class="uuid-4c5d34b8-1c2c-4e24-ba38-aaacd27b3d1a" d="M494.69,118.5c.24,.64,.85,.82,1.38,1.09,3.59,1.79,7.18,3.58,10.77,5.36,.35,.17,.7,.34,1.04,.52,1,.55,1.06,.73,.51,1.7-1.14,2.03-2.19,4.12-3.16,6.23-2.13,4.65-3.75,9.46-4.49,14.54-.31,2.13-.57,4.27-.09,6.43,.34,1.54,.88,2.98,1.77,4.28,3.64,5.33,10.79,4.98,13.92-.68,1.05-1.9,1.71-3.96,2.17-6.07,.73-3.37,1.2-6.79,1.81-10.19,.91-5.1,3.2-9.55,6.63-13.4,2.44-2.74,5.63-4.22,9.13-5.07,4.98-1.2,9.9-1.05,14.76,.64,5.5,1.91,9.63,5.48,12.53,10.46,2.61,4.47,3.88,9.35,4.31,14.51,.9,10.83-1.71,20.87-6.6,30.43-.52,1.02-.66,1.07-1.7,.56-3.72-1.81-7.45-3.62-11.16-5.44-1.36-.67-1.39-.77-.68-2.17,1.38-2.7,2.52-5.48,3.4-8.38,.93-3.07,1.46-6.21,1.43-9.43-.02-1.83-.34-3.62-1.07-5.29-1.01-2.31-2.69-3.88-5.24-4.36-2.78-.53-5.15,.53-6.59,2.97-1.26,2.13-2.06,4.45-2.7,6.84-1.17,4.33-2.15,8.71-3.51,12.99-.85,2.68-1.87,5.3-3.55,7.58-3.45,4.67-8.09,7.47-13.82,8.27-7.48,1.04-14.18-.81-19.96-5.77-3.76-3.23-6.25-7.32-7.96-11.91-2.19-5.87-2.9-11.98-2.54-18.2,.38-6.55,1.95-12.86,4.35-18.96,1.17-2.97,2.45-5.89,3.87-8.75,.21-.42,.44-.84,.52-1.32h.52Z"/><path class="uuid-4c5d34b8-1c2c-4e24-ba38-aaacd27b3d1a" d="M519.41,274.85c9.66,0,19.32,.06,28.97-.03,3.74-.03,7.5-.33,11.08-1.6,.57-.2,1.12-.46,1.68-.66,.72-.26,.93-.18,1.18,.53,.19,.53,.32,1.07,.47,1.62,1.25,4.71,2.51,9.42,3.75,14.13,.42,1.6,.29,1.87-1.27,2.58-1.38,.63-2.84,1.02-4.31,1.36-.25,.06-.51,.11-.75,.18-.68,.21-.73,.4-.25,.99,.24,.3,.53,.57,.77,.87,3.26,4.11,5.47,8.7,6.02,13.95,.56,5.37,.05,10.61-2.9,15.35-1.41,2.26-3.18,4.18-5.34,5.74-.25,.18-.5,.34-.74,.52-.76,.6-.8,.86-.18,1.57,.79,.91,1.63,1.78,2.41,2.7,2.48,2.92,4.51,6.1,5.67,9.78,.78,2.48,1.17,5.02,1.22,7.63,.07,3.66-.25,7.24-1.52,10.69-1.36,3.7-3.51,6.81-6.93,8.92-2.41,1.49-5.12,1.98-7.87,2.33-2.23,.29-4.47,.27-6.71,.27-17.98,0-35.96,0-53.93,0q-2.22,0-2.22-2.24c0-5.09,0-10.18,0-15.27,0-.39,0-.78,.02-1.16,.03-.61,.34-.96,.97-.98,.47-.02,.95-.02,1.42-.02,16.99,0,33.97,0,50.96,0,1.77,0,3.54-.12,5.26-.52,2.79-.64,3.78-1.95,3.96-4.8,.21-3.34-1.02-6.25-2.56-9.08-.91-1.67-2.06-3.18-3.25-4.66-.47-.58-1.03-.9-1.78-.88-.47,.01-.95,0-1.42,0-17.07,0-34.15,0-51.22,0q-2.36,0-2.36-2.35c0-4.87,0-9.75,0-14.62,0-.26,0-.52,0-.78,.04-1.42,.23-1.63,1.69-1.63,3.71-.02,7.42,0,11.12,0,13.62,0,27.25,0,40.87,0,1.6,0,3.19-.18,4.73-.59,2.73-.71,4.01-2.37,4.16-5.21,.24-4.47-1.28-8.38-3.72-12.01-.34-.5-.75-.95-1.07-1.46-.57-.9-1.37-1.19-2.41-1.18-3.75,.03-7.5,.01-11.25,.01-13.97,0-27.94,0-41.91,0q-2.23,0-2.23-2.23c0-5.13,0-10.27,0-15.4,0-.13,0-.26,0-.39,.02-1.76,.16-1.91,1.94-1.91,9.92,0,19.83,0,29.75,0v-.02Z"/><path class="uuid-4c5d34b8-1c2c-4e24-ba38-aaacd27b3d1a" d="M506.02,226.12c.67,.37,1.37,.4,2.03,.51,7.2,1.21,14.25,2.97,21.2,5.22,9.6,3.09,19.26,6,28.89,9,1.94,.6,3.87,1.22,5.8,1.82,1.54,.48,1.64,.58,1.65,2.16,.01,3.8,0,7.59,0,11.39,0,2.11,0,4.23,0,6.34,0,.34,.01,.69-.03,1.03-.1,.72-.35,.91-1.05,.7-.78-.23-1.55-.53-2.32-.8-8.93-3.18-17.87-6.36-26.8-9.54-11.41-4.06-22.83-8.1-34.23-12.2-7.79-2.8-15.66-5.37-23.31-8.54-3.79-1.57-7.46-3.36-10.85-5.71-3.89-2.7-6.76-6.24-8.92-10.4-2.09-4.02-3.44-8.27-4.14-12.74-.25-1.58-.12-1.82,1.29-2.55,3.48-1.81,6.97-3.61,10.45-5.42,1.04-.54,1.3-.46,1.69,.68,.97,2.9,1.99,5.79,3.32,8.56,1.34,2.8,3.38,4.98,5.75,6.89,3.05,2.47,6.61,4.03,10.19,5.56,.52,.22,1.06,.42,1.49-.21,1.59-2.32,3.92-3.74,6.28-5.08,5.3-3.02,10.93-5.32,16.69-7.27,12.37-4.19,24.77-8.32,37.15-12.49,4.86-1.64,9.72-3.3,14.58-4.94,1.57-.53,1.79-.37,1.98,1.23,.68,5.78,1.36,11.56,2.03,17.34,.17,1.45,.02,1.71-1.39,2.13-6.69,2-13.39,3.98-20.08,5.97-8.51,2.53-17.03,5.05-25.54,7.59-4.13,1.23-8.33,2.23-12.51,3.29-.4,.1-.85,.12-1.26,.49Z"/><path class="uuid-4c5d34b8-1c2c-4e24-ba38-aaacd27b3d1a" d="M537.51,570.49c-1.81,0-3.62-.05-5.43,0-6.81,.24-13.61,.24-20.42,.23-6.85-.01-12.42-2.79-16.85-7.94-5.08-5.91-7.68-12.9-8.89-20.49-.46-2.86-.65-5.74-.52-8.64,.15-3.63,.65-7.22,1.91-10.65,2.6-7.1,7.54-11.65,14.93-13.35,5.65-1.3,11.29-1.19,16.84,.64,5.24,1.73,9.09,5.15,11.82,9.89,2.47,4.29,3.69,8.99,4.43,13.84,.73,4.79,.86,9.61,.78,14.45-.03,2.01,.03,2.05,1.99,2.07,2.37,.03,4.74,0,7.08-.49,2.79-.57,4.51-2.22,5.09-5.01,.6-2.84,.4-5.66-.2-8.47-.92-4.35-2.73-8.35-4.87-12.21-.79-1.43-1.68-2.81-2.53-4.21-.62-1.03-.61-1.16,.47-1.81,1.48-.89,2.97-1.76,4.46-2.63,2.53-1.47,5.07-2.94,7.61-4.41,1.07-.62,1.18-.62,1.85,.43,1.71,2.65,3.16,5.44,4.44,8.32,1.99,4.51,3.7,9.1,4.7,13.95,.94,4.55,1.19,9.16,.89,13.77-.28,4.37-1.18,8.63-3.28,12.55-1.75,3.26-4.1,5.98-7.4,7.74-2.9,1.55-6.04,2.31-9.31,2.4-3.19,.08-6.38,.02-9.57,.02v.02Zm-23.74-20.21c2.68,0,4.58,.01,6.47,0,1.45-.01,1.61-.18,1.62-1.66,0-1.38,.05-2.76-.03-4.14-.13-2.45-.38-4.9-1.13-7.26-1.09-3.46-3.3-5.66-6.94-6.35-1.37-.26-2.74-.26-4.12-.26-2.58,.01-4.94,.79-7.03,2.25-2.68,1.87-4.09,4.44-3.68,7.75,.42,3.42,2.09,6.25,4.47,8.7,.48,.49,1.04,.72,1.73,.73,3.14,.05,6.28,.39,8.64,.24Z"/><path class="uuid-37e81478-06a6-4571-bda5-294b67bda0b1" d="M526.9,472.19c8.76,.08,17.48,.66,26.07,2.52,3.12,.68,6.19,1.53,9.14,2.77,1.07,.45,2.12,.95,3.1,1.59,.58,.37,1.15,.76,1.67,1.22,2.54,2.23,2.54,4.68,.01,6.93-1.37,1.22-2.97,2.06-4.63,2.79-4.05,1.77-8.32,2.81-12.65,3.59-10.45,1.88-20.97,2.24-31.55,1.62-6.98-.41-13.89-1.31-20.65-3.18-2.41-.67-4.77-1.49-7.01-2.62-1.35-.68-2.64-1.46-3.71-2.55-2.02-2.05-2.02-4.2,0-6.23,1.11-1.12,2.45-1.9,3.85-2.58,3.67-1.78,7.59-2.8,11.56-3.61,8.18-1.66,16.47-2.18,24.8-2.26Z"/></g><path class="uuid-0ce779bc-cb0c-4942-99b8-78056c09966a" d="M588.76,473.39c5.9,.02,10.6,4.79,10.61,10.77,.01,5.77-4.74,10.42-10.63,10.41-5.88,0-10.57-4.79-10.58-10.8,0-5.83,4.66-10.41,10.6-10.39Z"/></g><g><path class="uuid-da6e8763-5733-4e9c-843c-8cfe457f7ee1" d="M816.76,185.14c.92,0,2.03,2.57,3.32,7.72s1.93,10.03,1.93,14.65c0,1.05-.25,1.8-.74,2.23-.49,.43-1.65,.82-3.46,1.19-1.82,.36-5.54,.77-11.19,1.24-5.64,.46-10.31,.69-14.01,.69s-5.97-.18-6.83-.54c-.86-.36-2.39-1.53-4.6-3.51-2.21-1.98-4.04-3.98-5.5-5.99-1.45-2.01-2.61-4.54-3.46-7.57-.2-.79-.51-1.19-.94-1.19s-1.12,.15-2.08,.45-1.63,.53-2.03,.69c-.4,.17-.79,.25-1.19,.25s-.81-.15-1.24-.45-1.72-1.85-3.86-4.65c-2.15-2.8-3.78-5.49-4.9-8.07-1.12-2.57-1.88-5.36-2.28-8.37-.4-3-.59-5.15-.59-6.43s.43-2.18,1.29-2.67,3.28-1.22,7.28-2.18c3.99-.96,7.08-1.63,9.26-2.03,.86-.13,1.37-.41,1.54-.84,.16-.43,.31-2.1,.45-5l.3-8.91c.06-1.45,.35-2.34,.84-2.67s1.62-.5,3.37-.5,3,.1,3.76,.3c.76,.2,1.14,.58,1.14,1.14s-.07,1.4-.2,2.53c-.13,1.12-.31,3.13-.54,6.04s-.35,4.42-.35,4.55c0,1.06,.59,1.49,1.78,1.29,3.23-.39,5.79-.59,7.67-.59s3.99,.17,6.34,.5c2.34,.33,4.04,.71,5.1,1.14,1.05,.43,1.85,.86,2.38,1.29,.53,.43,.79,.86,.79,1.29s-.18,.96-.54,1.58c-.36,.63-.81,2.72-1.34,6.29-.53,3.56-1.29,7.08-2.28,10.54s-2.14,6.44-3.46,8.91-2.23,3.91-2.72,4.31c-.49,.4-.96,.59-1.38,.59s-1.27-.21-2.53-.64-2.39-.97-3.42-1.63c-1.02-.66-1.83-.99-2.43-.99s-1.57,.13-2.92,.39c-1.35,.27-2.13,.5-2.33,.69-.2,.2-.3,.76-.3,1.68s.21,2.29,.64,4.11c.43,1.82,1.04,3.3,1.83,4.46,.79,1.16,1.83,2.02,3.12,2.57,1.29,.56,3.5,.84,6.63,.84s6.81-.26,11.04-.79c4.22-.53,7.08-1.27,8.56-2.23,1.48-.96,2.54-2.49,3.17-4.6,.63-2.11,1.04-5.68,1.24-10.69,.06-1.58,.36-2.38,.89-2.38Zm-50.98-10.59c0-1.05,.49-1.68,1.48-1.88,2.44-.46,3.89-.94,4.36-1.44,.46-.5,.69-1.83,.69-4.01,0-1.45-.28-2.18-.84-2.18s-2.01,.68-4.36,2.03c-2.34,1.35-3.75,2.34-4.21,2.97-.46,.63-.69,2.25-.69,4.85s.43,5.21,1.29,7.82c.86,2.61,2.21,3.91,4.06,3.91,.53,0,1.25-.15,2.18-.45,.92-.3,1.45-.83,1.58-1.58,.13-.76,.2-1.47,.2-2.13s-.33-.99-.99-.99c-1.39,0-2.53-.92-3.42-2.77s-1.34-3.23-1.34-4.16Zm28.02-4.26c0-2.9-.46-5-1.38-6.29-.93-1.29-2.96-1.93-6.09-1.93s-4.87,.4-5.2,1.19c-.33,.79-.49,2.08-.49,3.86,0,.79,.11,1.32,.35,1.58,.23,.27,.68,.4,1.34,.4l2.47-.1c.99,0,1.7,.23,2.13,.69,.43,.46,.64,1.47,.64,3.02s-.31,2.57-.94,3.07c-.63,.5-2.42,1.3-5.39,2.43-.59,.2-.97,.54-1.14,1.04-.17,.5-.25,1.39-.25,2.67s.26,1.93,.79,1.93,1.22-.08,2.08-.25,1.6-.25,2.23-.25,1.07,.23,1.34,.69c.26,.46,.43,1.27,.49,2.43s.16,1.87,.3,2.13c.13,.27,.58,.4,1.34,.4s1.4-.43,1.93-1.29c.53-.86,1.24-3.18,2.13-6.98s1.34-7.28,1.34-10.45Z"/><path class="uuid-da6e8763-5733-4e9c-843c-8cfe457f7ee1" d="M815.77,277.8c0,1.12-.3,1.68-.89,1.68s-1.29-.3-2.08-.89c-2.57-1.85-6.53-2.77-11.88-2.77-1.92,0-4.11,.15-6.58,.45s-3.95,.56-4.41,.79c-.46,.23-.69,.94-.69,2.13l.2,7.82c0,7.46-.36,13.76-1.09,18.91-.46,3.96-.76,7.62-.89,10.99-.07,1.98-.61,2.97-1.63,2.97s-3.66-.71-7.92-2.13c-4.26-1.42-7.34-2.62-9.26-3.61-1.92-.99-3.27-1.87-4.06-2.62-.79-.76-1.19-1.27-1.19-1.53,0-.53,.33-.79,.99-.79s1.29,.1,1.88,.3c3.76,.92,6.7,1.39,8.81,1.39s3.48-.17,4.11-.5c.63-.33,1.05-1.04,1.29-2.13,.23-1.09,.56-3.93,.99-8.52,.43-4.59,.64-7.87,.64-9.85s-.12-4.04-.35-6.19c-.23-2.14-.5-3.38-.79-3.71-.3-.33-.68-.49-1.14-.49s-1.02,.1-1.68,.3c-4.03,1.25-8.3,2.16-12.82,2.72-4.52,.56-8.25,1.38-11.19,2.47-2.94,1.09-5.03,2.26-6.29,3.51-.53,.53-.96,.79-1.29,.79s-.63-.63-.89-1.88-.63-2.33-1.09-3.22c-.46-.89-.69-1.47-.69-1.73,0-.92,1.2-1.6,3.61-2.03,2.41-.43,5.62-1.19,9.65-2.28,4.03-1.09,7.03-1.98,9.01-2.67,1.98-.69,5.78-1.9,11.38-3.61,1.32-.33,1.98-1.02,1.98-2.08,0-.53-.21-1.3-.64-2.33-.43-1.02-.96-1.9-1.58-2.62-.63-.73-.94-1.29-.94-1.68,0-.72,1.02-1.09,3.07-1.09s3.7-1.39,4.95-4.16c1.25-2.77,1.88-4.79,1.88-6.04s-.73-1.88-2.18-1.88-5.17,1.7-11.14,5.1c-5.97,3.4-9.27,5.41-9.9,6.04-.63,.63-1.12,.94-1.49,.94s-.71-.26-1.04-.79c-.86-1.65-1.82-3.04-2.87-4.16-.46-.59-.69-1.2-.69-1.83s.63-1.07,1.88-1.34c1.25-.26,2.86-1.01,4.8-2.23,1.95-1.22,4.07-2.31,6.38-3.27,2.31-.96,4.67-1.77,7.08-2.43,2.41-.66,4.22-1.01,5.45-1.04s2.24-.05,3.07-.05,1.55-.13,2.18-.4c.62-.26,1.24-.4,1.83-.4,1.52,0,3.6,.76,6.24,2.28,2.64,1.52,3.96,2.74,3.96,3.66s-.46,1.62-1.38,2.08c-2.05,.99-3.81,2.43-5.3,4.31s-3.32,3.42-5.49,4.6c-.59,.26-.89,1.09-.89,2.47,0,3.96,.89,5.84,2.67,5.64,3.5-.46,6.14-.69,7.92-.69s3.5,.07,5.15,.2c1.65,.13,3.25,.2,4.8,.2s2.54-.06,2.97-.2c.43-.13,.86-.2,1.29-.2s.78,.43,1.04,1.29c.26,.86,.86,2.01,1.78,3.46,.92,1.45,1.39,2.97,1.39,4.55Z"/><path class="uuid-da6e8763-5733-4e9c-843c-8cfe457f7ee1" d="M800.33,397.29c0,.86,1.3,2.44,3.91,4.75,2.61,2.31,4.83,3.86,6.68,4.65,1.85,.79,4.87,2.21,9.06,4.26s6.68,3.35,7.47,3.91c.79,.56,1.19,1.04,1.19,1.44,0,.92-2.23,1.39-6.68,1.39s-7.62-.25-9.5-.74c-1.88-.5-3.43-.79-4.65-.89-1.22-.1-1.93-.31-2.13-.64-.2-.33-.36-.83-.5-1.48-.59-3.56-1.65-6.3-3.17-8.22s-3.17-2.87-4.95-2.87c-.66,0-1.29,.3-1.88,.89-2.18,2.18-4.7,3.89-7.57,5.15s-5.63,1.88-8.27,1.88c-1.25,0-2.44-.15-3.56-.45-1.12-.3-1.68-.61-1.68-.94s.46-.69,1.39-1.09c5.08-2.11,8.79-4.09,11.14-5.94,2.34-1.85,3.52-3.1,3.52-3.76,0-.26-.2-.58-.59-.94-.4-.36-.76-.74-1.09-1.14-1.32-1.65-3.33-2.48-6.04-2.48-1.25,0-2.23,.71-2.92,2.13-.69,1.42-1.17,2.33-1.44,2.72-.27,.4-1.11,1.37-2.53,2.92-1.42,1.55-2.39,2.62-2.92,3.22-.53,.59-1.02,.97-1.48,1.14-.46,.16-.89,.28-1.29,.35-.4,.07-1.12,.1-2.18,.1s-1.58,.59-1.58,1.78l.2,7.23c0,2.11-.59,3.17-1.78,3.17-.73,0-1.72-.39-2.97-1.19-1.25-.79-1.88-1.48-1.88-2.08s.25-1.4,.74-2.43c.5-1.02,.74-4.44,.74-10.25s-.03-8.99-.1-9.55c-.07-.56-.3-.84-.69-.84-1.19,0-4.39,1.95-9.6,5.84-1.19,.93-2.81,1.75-4.85,2.47-2.04,.73-3.35,1.09-3.91,1.09s-1.21-.15-1.93-.45c-.73-.3-1.09-.64-1.09-1.04s.46-.92,1.39-1.59c8.05-5.94,13.22-10.25,15.49-12.92,2.28-2.67,3.42-4.65,3.42-5.94s-1.22-1.93-3.66-1.93-4.51,.53-6.19,1.58c-1.68,1.06-2.82,1.58-3.42,1.58-.86,0-1.37-.61-1.54-1.83-.16-1.22-.53-2.49-1.09-3.81-.56-1.32-.84-2.18-.84-2.57,0-1.45,1.02-2.18,3.07-2.18,4.42,0,8.13-.35,11.14-1.04,3-.69,4.65-1.21,4.95-1.54s.48-.82,.54-1.48c.53-4.95,.89-9.27,1.09-12.97,.13-1.45,.2-4.16,.2-8.12,0-2.24,.56-3.37,1.68-3.37,.53,0,1.6,.39,3.22,1.19,1.62,.79,2.43,1.39,2.43,1.78s-.13,.83-.4,1.29c-1.19,2.18-1.78,5.59-1.78,10.25s.05,7.34,.15,8.07c.1,.73,.61,1.14,1.53,1.24s1.55,.38,1.88,.84c.33,.46,.5,1.37,.5,2.72s-.46,2.33-1.39,2.92c-1.25,.79-2.03,1.55-2.33,2.28-.3,.73-.45,1.82-.45,3.27,0,.53,.1,.96,.3,1.29s.87,.88,2.03,1.63c1.15,.76,1.86,1.48,2.13,2.18,.26,.69,.4,1.34,.4,1.93s-.27,.97-.79,1.14c-.53,.17-1.39,.25-2.57,.25s-1.93,.15-2.23,.45-.51,.76-.64,1.39-.33,2.86-.59,6.68c-.26,3.83-.4,6.11-.4,6.83s.21,1.09,.64,1.09,1.3-.48,2.62-1.44c1.32-.96,2.97-3.07,4.95-6.34,1.98-3.27,3.42-6.91,4.31-10.94,.89-4.02,1.34-6.62,1.34-7.77s-.27-2.06-.79-2.72c-1.52-1.98-2.28-3.4-2.28-4.26s.69-1.5,2.08-1.93c1.38-.43,3.94-1.73,7.67-3.91s6.85-3.89,9.36-5.15c2.51-1.25,4.26-2.44,5.25-3.56,.26-.33,.61-.5,1.04-.5s.99,.54,1.68,1.63c.69,1.09,1.04,2.13,1.04,3.12s-.45,1.93-1.34,2.82c-.89,.89-4.77,3.38-11.63,7.47-1.32,.79-2.38,1.67-3.17,2.62-.79,.96-1.7,2.43-2.72,4.41-1.03,1.98-1.6,3.22-1.73,3.71-.13,.5-.2,1.35-.2,2.57s.15,2.29,.45,3.22,.91,1.73,1.83,2.43c.92,.69,2.29,1.6,4.11,2.72,1.81,1.12,2.85,1.68,3.12,1.68,.33,0,.68-.21,1.04-.64,.36-.43,.99-1.88,1.88-4.36,.89-2.47,1.34-4.37,1.34-5.69s-.53-1.98-1.58-1.98c-.66,0-1.35,.28-2.08,.84s-1.24,.84-1.53,.84-.79-.33-1.49-.99c-.69-.66-1.04-1.3-1.04-1.93s.26-1.19,.79-1.68c.53-.5,1.95-1.14,4.26-1.93,2.31-.79,4.26-1.19,5.84-1.19s3.27,.33,5.05,.99c1.78,.66,2.67,1.27,2.67,1.83s-.33,1.21-.99,1.93c-.99,1.12-2,3.37-3.02,6.73-1.03,3.37-2.39,6.73-4.11,10.1-.33,.73-.49,1.25-.49,1.58Z"/><path class="uuid-da6e8763-5733-4e9c-843c-8cfe457f7ee1" d="M811.71,512.73c2.04,0,3.2,1.06,3.46,3.17,.13,.99,.4,1.88,.79,2.67,.4,.79,.6,1.86,.6,3.22s-.3,2.03-.89,2.03-1.35-.2-2.28-.59c-2.25-.93-5.41-1.72-9.51-2.38-4.09-.66-9.29-.99-15.59-.99s-10.97,.35-14.01,1.04c-3.04,.69-5.15,1.02-6.34,.99-1.19-.04-2.21-.05-3.07-.05-3.3,0-6.57,.33-9.8,.99-1.78,.46-3.13,.73-4.06,.79-1.85,.2-3.22,.58-4.11,1.14-.89,.56-1.54,.84-1.93,.84s-.81-.45-1.24-1.34c-.43-.89-.78-1.48-1.04-1.78s-.39-.73-.39-1.29,.59-.84,1.78-.84c.33,0,1.48-.17,3.46-.49,1.98-.33,3.61-.68,4.9-1.04s2.72-.68,4.31-.94c1.58-.27,2.53-.46,2.82-.59,.3-.13,.45-.54,.45-1.24s-.3-1.77-.89-3.22c-1.92-5.28-2.87-8.78-2.87-10.49,0-.59,.18-.97,.54-1.14,.36-.16,1.01-.25,1.93-.25h2.57c.86,0,1.75-.16,2.67-.49,12.01-4.03,20.79-6.04,26.33-6.04,3.04,0,5.68,.56,7.92,1.68,.26,.13,1.05,.46,2.38,.99,2.97,.99,4.46,2.15,4.46,3.46,0,.53-.27,.97-.79,1.34-.53,.36-1.4,1.78-2.62,4.26-1.22,2.48-1.83,4.06-1.83,4.75s.51,1.04,1.54,1.04,2.08,.05,3.17,.15c1.09,.1,2.23,.26,3.42,.49,1.19,.23,2.04,.31,2.57,.25,.53-.06,.92-.1,1.19-.1Zm-50.49-30.39c0,2.57,.1,4.75,.3,6.53,.2,1.78,.3,3.07,.3,3.86s-.35,1.39-1.04,1.78c-.69,.39-1.34,.59-1.93,.59s-1.05-.21-1.38-.64c-.33-.43-.79-1.4-1.39-2.92-.59-1.52-1.21-3.76-1.83-6.73s-.94-4.77-.94-5.39,.13-1.04,.4-1.24c.26-.2,.84-.4,1.73-.59s1.7-.3,2.43-.3c2.38,0,3.56,.86,3.56,2.57l-.2,2.47Zm42.07-29.8c1.91,0,2.87,1.38,2.87,4.16,0,1.32-.26,2.16-.79,2.52-.53,.36-1.39,.56-2.57,.59-1.19,.04-2.53,.2-4.01,.5s-3.1,.54-4.85,.74-2.76,.38-3.02,.54c-.26,.17-.74,.59-1.44,1.29-.69,.69-1.38,1.32-2.08,1.88s-1.54,1.62-2.53,3.17c-.99,1.55-1.85,2.33-2.57,2.33s-1.09-.46-1.09-1.39,.3-2.41,.89-4.46c.06-.2,.1-.39,.1-.59,0-.59-.51-.82-1.54-.69-1.02,.13-2.31,.2-3.86,.2s-2.46,.15-2.72,.45-.35,.78-.25,1.44c.1,.66,.15,1.12,.15,1.39,0,1.05-.48,1.78-1.44,2.18-.96,.39-1.65,.59-2.08,.59s-.81-.43-1.14-1.29c-.53-1.58-.91-2.56-1.14-2.92s-.51-.54-.84-.54-1.3,.3-2.92,.89-2.82,1.22-3.61,1.88c-.79,.66-1.52,.99-2.18,.99s-1.27-.51-1.83-1.54c-.56-1.02-1.22-2.01-1.98-2.97-.76-.96-1.14-1.87-1.14-2.72s.66-1.35,1.98-1.49c6.01-.53,9.22-.89,9.65-1.09,.43-.2,.64-.48,.64-.84s-.03-.71-.1-1.04c-.73-3.1-1.09-5.49-1.09-7.18s.21-2.72,.64-3.12,1.15-.59,2.18-.59,2.44,.23,4.26,.69c1.81,.46,2.72,.99,2.72,1.58s-.27,1.22-.79,1.88c-.53,.66-.79,1.93-.79,3.81s.05,3.02,.15,3.42,.96,.59,2.57,.59,3.46-.3,5.54-.89c2.08-.59,3.37-.96,3.86-1.09,.5-.13,.91-.38,1.24-.74,.33-.36,.62-1.04,.89-2.03,2.18-7.13,3.53-10.96,4.06-11.48s1.29-.79,2.28-.79,2,.4,3.02,1.19c1.02,.79,1.54,1.47,1.54,2.03s-.23,1.17-.69,1.83c-.46,.66-.91,1.6-1.34,2.82s-.64,2.42-.64,3.61c0,.86,.36,1.29,1.09,1.29,1.38,0,2.65-.16,3.81-.5,1.15-.33,2.13-.49,2.92-.49Zm-32.27,60.79c0-.53-.13-1.96-.4-4.31-.26-2.34-.45-3.74-.54-4.21-.1-.46-.4-.69-.89-.69s-1.29,.23-2.38,.69c-1.09,.46-1.73,.89-1.93,1.29-.2,.4-.3,1.35-.3,2.87s.1,2.96,.3,4.31c.2,1.35,.4,2.18,.6,2.47,.2,.3,.48,.45,.84,.45s1.17-.18,2.43-.54,1.95-.74,2.08-1.14c.13-.4,.2-.79,.2-1.19Zm32.97-41.58c.66,0,.99,.56,.99,1.68s-.08,1.88-.25,2.28-.92,1.07-2.28,2.03c-1.35,.96-2.61,1.67-3.76,2.13-1.15,.46-1.73,1.09-1.73,1.88,0,.46,.26,1.21,.79,2.23,.53,1.03,.79,1.98,.79,2.87s-.69,1.6-2.08,2.13c-1.39,.53-2.47,.97-3.27,1.34-.79,.36-1.9,.69-3.32,.99-1.42,.3-2.43,.45-3.02,.45-1.25,0-1.88-.39-1.88-1.19,0-.53,.4-1.05,1.19-1.58,2.44-1.71,4.01-2.94,4.7-3.66s1.04-1.39,1.04-1.98-.15-.89-.45-.89-.59,.05-.89,.15c-.3,.1-.61,.15-.94,.15-.92,0-1.65-.58-2.18-1.73-.53-1.15-1.04-1.73-1.53-1.73s-.94,.31-1.34,.94c-.39,.63-.66,1.35-.79,2.18-.13,.83-.36,1.45-.69,1.88-.33,.43-1.16,1.17-2.47,2.23-1.32,1.06-2.34,1.72-3.07,1.98s-1.58,.39-2.57,.39-1.58,.1-1.78,.3c-.2,.2-.3,.6-.3,1.19l.1,1.88c0,1.45-.56,2.57-1.68,3.37-1.12,.79-1.95,1.19-2.47,1.19-1.32,0-1.98-1.37-1.98-4.11s-.13-5.08-.4-7.03c-.26-1.95-.39-3.71-.39-5.3s-.33-3.76-.99-6.53c-.13-.46-.2-.89-.2-1.29,0-1.25,.73-1.88,2.18-1.88s2.94,.28,4.46,.84c1.52,.56,2.28,1.3,2.28,2.23,0,.46-.1,.89-.3,1.29-.66,1.39-.99,4.62-.99,9.7,0,.79,.23,1.19,.69,1.19,.79,0,2.64-1.63,5.54-4.9,2.9-3.27,5.51-7.18,7.82-11.73,1.12-2.31,2.34-3.46,3.66-3.46,.72,0,1.53,.46,2.42,1.39,.89,.92,1.34,1.72,1.34,2.38s-.96,1.65-2.87,2.97c-1.12,.79-1.68,1.45-1.68,1.98,0,.66,.38,.99,1.14,.99s1.77-.2,3.02-.59l1.78-.69c5.02-1.65,7.89-2.47,8.61-2.47Zm-28.31,41.68c.73,0,1.5-.13,2.33-.4,.82-.26,1.4-.61,1.73-1.04,.33-.43,.69-1.54,1.09-3.32s.59-3.56,.59-5.35-.91-2.67-2.72-2.67-2.79,1.16-2.92,3.46c-.2,3.43-.4,5.66-.59,6.68s-.3,1.72-.3,2.08,.26,.54,.79,.54Zm12.47-1.58c1.78,0,2.9-.2,3.37-.59,.46-.4,.96-1.7,1.49-3.91,.53-2.21,.79-3.88,.79-5,0-2.64-1.45-3.96-4.36-3.96-1.58,0-2.38,.3-2.38,.89,0,.2,.15,.49,.45,.89,.3,.39,.45,.86,.45,1.38s-.33,1.55-.99,3.07c-.86,2.38-1.29,4.08-1.29,5.1s.18,1.63,.54,1.83c.36,.2,1,.3,1.93,.3Z"/><path class="uuid-da6e8763-5733-4e9c-843c-8cfe457f7ee1" d="M745.88,577.87c-.2-.6-.3-1.14-.3-1.63s.21-.86,.64-1.09c.43-.23,1.25-.35,2.47-.35s2.82-.16,4.8-.49c1.98-.33,3.58-.79,4.8-1.39,1.22-.59,2.23-1.02,3.02-1.29,.79-.26,1.22-.92,1.29-1.98,.59-6.07,1.24-10.84,1.93-14.3s1.12-5.38,1.29-5.74c.16-.36,.53-.54,1.09-.54s1.43,.27,2.62,.79c1.19,.53,1.78,1.02,1.78,1.48s-.25,1.09-.74,1.88c-.49,.79-.93,2.41-1.29,4.85-.36,2.44-.54,4.69-.54,6.73s.02,3.35,.05,3.91c.03,.56,.41,.84,1.14,.84l4.36-.3c.72,0,1.2,.15,1.44,.45,.23,.3,.35,1.09,.35,2.38s-.2,2.23-.59,2.82-2.47,2.08-6.24,4.46c-.86,.46-1.29,1.42-1.29,2.87,0,.73,.2,1.25,.59,1.58,1.58,1.06,2.72,1.96,3.42,2.72,.69,.76,1.04,1.57,1.04,2.43,0,2.44-.76,3.66-2.28,3.66-.66,0-1.34-.12-2.03-.35s-1.11-.35-1.24-.35c-.53,0-.79,.33-.79,.99l-.4,8.81c-.26,5.21-.4,9.36-.4,12.43s.18,5.33,.54,6.78c.36,1.45,.54,2.44,.54,2.97,0,1.32-.64,1.98-1.93,1.98s-2.51-.48-3.66-1.44c-1.16-.96-1.73-1.67-1.73-2.13s.18-1.04,.54-1.73c.36-.69,.71-1.95,1.04-3.76,.33-1.81,.49-3.25,.49-4.31s-.02-2.09-.05-3.12-.05-4.27-.05-9.75c0-.66-.2-.99-.59-.99-.66,0-4.69,3.43-12.08,10.3-1.58,1.45-2.87,2.18-3.86,2.18s-1.87-.18-2.62-.54c-.76-.36-1.14-.99-1.14-1.88s.79-2.06,2.38-3.52c6.01-5.81,10.03-10.31,12.08-13.51,2.04-3.2,3.07-5.59,3.07-7.18,0-.66-.43-.99-1.29-.99-2.91,0-5.05,.43-6.44,1.29-.73,.46-1.4,.69-2.03,.69s-1.11-.56-1.44-1.68l-1.78-5.94Zm34.06-8.32c.26-2.38,.81-3.93,1.63-4.65,.82-.72,2.41-1.35,4.75-1.88,2.34-.53,4.72-1.22,7.13-2.08,2.41-.86,4.31-1.29,5.69-1.29s3.48,.25,6.29,.74c2.8,.5,4.21,1.14,4.21,1.93,0,.39-.26,.86-.79,1.38-.99,.99-1.88,3.2-2.67,6.63-.79,3.43-1.62,6.65-2.47,9.65-.86,3-1.42,4.87-1.68,5.59-.26,.73-.63,1.29-1.09,1.68-.46,.4-1.34,.71-2.62,.94-1.29,.23-3.35,.86-6.19,1.88-2.84,1.02-4.44,1.63-4.8,1.83-.36,.2-.54,.45-.54,.74s.16,.54,.5,.74c1.85,.86,3.08,1.48,3.71,1.88,.62,.39,1.17,.59,1.63,.59,.73,0,2.95-1.12,6.68-3.37,3.73-2.24,7.8-5.38,12.23-9.4,.79-.72,1.39-1.09,1.78-1.09s.94,.46,1.63,1.39c.69,.93,1.04,1.62,1.04,2.08s-.53,.96-1.58,1.48c-.79,.46-2.64,1.9-5.54,4.31-2.9,2.41-6.17,4.77-9.8,7.08-.46,.26-.69,.54-.69,.84s.2,.54,.59,.74c1.65,.93,3.17,1.95,4.55,3.07,4.22,3.43,7.88,5.54,10.99,6.34,2.77,.73,6.07,1.96,9.9,3.71,3.83,1.75,5.74,3.05,5.74,3.91s-.94,1.49-2.82,1.88c-1.88,.4-3.94,.6-6.19,.6s-4.88-.3-7.92-.89c-3.04-.59-4.88-1.12-5.54-1.58-.66-.46-1.12-1.58-1.39-3.37-.59-3.76-2.57-6.17-5.94-7.23-2.05-.59-4.06-1.44-6.04-2.53-1.98-1.09-4.03-1.88-6.14-2.38-2.11-.5-3.6-.74-4.46-.74-.59,0-1.01,.18-1.24,.54-.23,.36-.4,1.4-.5,3.12-.1,1.72-.15,3.04-.15,3.96,0,1.52,.1,3.07,.3,4.65,.2,1.58,.46,2.52,.79,2.82,.33,.3,.72,.45,1.19,.45,.99,0,2.72-.66,5.2-1.98s4.83-2.94,7.08-4.85c.66-.53,1.14-.79,1.44-.79s.45,.13,.45,.39c0,.79-1.11,2.76-3.32,5.89-2.21,3.13-5.03,5.84-8.46,8.12-3.43,2.28-5.64,3.41-6.63,3.41-.53,0-.94-.38-1.24-1.14-.3-.76-.58-2.94-.84-6.53-.27-3.6-.4-8.73-.4-15.39s.36-13.43,1.09-20.29l1.48-13.56Zm4.65,17.03c.2,0,.43-.06,.69-.2,1.39-.59,3.89-1.52,7.52-2.77,.73-.26,1.25-.72,1.58-1.38s.83-2.62,1.49-5.89c.66-3.27,.99-6.19,.99-8.76,0-1.52-.56-2.28-1.68-2.28s-2.41,.53-3.86,1.58c-1.45,1.06-2.76,2.16-3.91,3.32s-1.73,2.39-1.73,3.71c0,.33,.1,.49,.3,.49s.4-.03,.59-.1c2.04-.99,3.68-1.49,4.9-1.49s1.83,.96,1.83,2.87c0,.93-.4,1.62-1.19,2.08-1.98,1.12-3.68,2.24-5.1,3.37-1.42,1.12-2.26,1.87-2.52,2.23-.27,.36-.4,.99-.4,1.88s.16,1.34,.49,1.34Z"/><path class="uuid-da6e8763-5733-4e9c-843c-8cfe457f7ee1" d="M671.43,128.71c0,.59,.45,1.7,1.34,3.32,.89,1.62,3.22,3.71,6.98,6.29,.99,.73,2.31,1.88,3.96,3.46,3.96,3.76,8.12,6.37,12.47,7.82,3.3,1.06,5.64,2.03,7.03,2.92,1.39,.89,2.08,1.6,2.08,2.13,0,1.19-2.41,1.78-7.23,1.78-2.84,0-5.38-.23-7.62-.69-2.24-.46-3.7-.94-4.36-1.44-.66-.5-1.12-1.57-1.39-3.22s-1.21-3.56-2.82-5.74c-1.62-2.18-3.96-4.34-7.03-6.48-3.07-2.14-5.41-3.88-7.03-5.2-1.62-1.32-2.94-2.23-3.96-2.72-1.02-.5-2.21-.74-3.56-.74s-2.81,.71-4.36,2.13c-1.55,1.42-3.2,3.43-4.95,6.04-1.75,2.61-3.86,4.95-6.34,7.03s-4.01,4.24-4.6,6.48c-.2,.86-1.01,1.65-2.43,2.38-1.42,.73-2.94,1.09-4.55,1.09s-3.23-.1-4.85-.3c-1.62-.2-2.43-.59-2.43-1.19,0-.79,1.81-1.95,5.45-3.46,3.63-1.52,7.41-4.41,11.33-8.66,3.93-4.26,5.89-7.14,5.89-8.66,0-.46-.38-.69-1.14-.69s-2.51,.31-5.25,.94c-2.74,.63-5.07,1.47-6.98,2.53-.46,.26-.93,.39-1.39,.39s-1.01-.62-1.63-1.88c-.63-1.25-.94-2.08-.94-2.47,0-.66,.43-1.02,1.29-1.09,.86-.07,1.73-.26,2.62-.6,.89-.33,2.23-.71,4.01-1.14,1.78-.43,3.17-.68,4.16-.74,.99-.06,2.53-.39,4.6-.99,2.08-.59,3.2-.99,3.37-1.19,.16-.2,.25-.53,.25-.99s-.08-.81-.25-1.04c-.16-.23-.58-.38-1.24-.45-1.12-.2-1.68-.76-1.68-1.68s.12-1.52,.35-1.78,.78-.56,1.63-.89c.72-.26,1.09-.89,1.09-1.88s-.15-1.49-.45-1.49-.63,.07-.99,.2-.73,.2-1.09,.2-.66-.31-.89-.94c-.23-.63-.35-1.11-.35-1.44,0-.79,.12-1.37,.35-1.73,.23-.36,.91-.68,2.03-.94,1.12-.26,1.71-.92,1.78-1.98,.2-1.58,.73-2.56,1.58-2.92,.86-.36,1.55-.54,2.08-.54,1.05,0,1.95,.35,2.67,1.04,.73,.69,1.22,1.04,1.48,1.04s.89-.15,1.88-.45c.99-.3,1.76-.49,2.33-.59,.56-.1,.97-.25,1.24-.45,.26-.2,.48-.76,.64-1.68,.16-.92,.69-1.55,1.58-1.88,.89-.33,1.68-.49,2.38-.49s1.34,.07,1.93,.2c.59,.13,.96,.33,1.09,.6s.2,.86,.2,1.78c0,.46,.35,.73,1.04,.79,.69,.07,1.04,.61,1.04,1.63s-.05,1.72-.15,2.08c-.1,.36-.41,.61-.94,.74-1.19,.27-1.78,1.03-1.78,2.28,0,.4,.31,.59,.94,.59s1.07,.15,1.34,.45c.26,.3,.4,.84,.4,1.63s-.07,1.34-.2,1.63-.66,.73-1.58,1.29c-.92,.56-1.53,1.06-1.83,1.48-.3,.43-.45,1.04-.45,1.83s.35,1.19,1.04,1.19,2.31-.16,4.85-.49,4.46-.61,5.74-.84c1.29-.23,2.18-.35,2.67-.35s.87,.13,1.14,.39c.26,.27,.71,.99,1.34,2.18,.63,1.19,.94,2.21,.94,3.07,0,1.45-.43,2.18-1.29,2.18-.4,0-.89-.1-1.49-.3-1.52-.59-3.33-.89-5.44-.89s-3.96,.07-5.54,.2c-1.58,.13-2.51,.27-2.77,.4s-.4,.33-.4,.59Zm-30.79-16.73c0,1.25,.3,2.33,.89,3.22s.89,1.62,.89,2.18-.16,.96-.49,1.19-1.21,.35-2.62,.35-2.81-.26-4.16-.79c-1.35-.53-2.03-1.32-2.03-2.38s.43-1.85,1.29-2.38c1.32-.79,2.39-1.71,3.22-2.77,.82-1.05,1.47-1.58,1.93-1.58s.77,.13,.94,.4c.16,.26,.25,.63,.25,1.09l-.1,1.49Zm41.09,47.52c0,1.98-.53,2.97-1.58,2.97-.27,0-1.26-.15-2.97-.45-1.72-.3-3.56-.45-5.54-.45s-6.14,.43-12.47,1.29-10.23,1.5-11.68,1.93c-1.45,.43-2.44,.64-2.97,.64-1.32,0-2.26-.63-2.82-1.88s-.84-2.34-.84-3.27,.1-1.55,.3-1.88c.2-.33,.64-.49,1.34-.49s2.51-.18,5.45-.54c2.94-.36,5.03-.78,6.29-1.24,1.25-.46,1.96-.94,2.13-1.44,.16-.5,.25-1.21,.25-2.13,0-1.58-.41-2.38-1.24-2.38s-1.72,.1-2.67,.3c-.96,.2-1.68,.3-2.18,.3s-1.01-.51-1.54-1.53c-.53-1.02-.79-1.91-.79-2.67s.3-1.5,.89-2.23c.59-.73,1.32-1.12,2.18-1.19,3.37-.33,5.18-.78,5.45-1.34,.26-.56,.39-1.65,.39-3.27s.5-2.67,1.49-3.17c.99-.49,1.78-.74,2.38-.74s1.5,.23,2.72,.69c1.22,.46,1.95,.86,2.18,1.19,.23,.33,.35,.83,.35,1.49l-.1,1.19c0,.59,.56,.89,1.68,.89l2.08-.1c1.65,0,2.47,.83,2.47,2.48,0,1.32-.3,2.34-.89,3.07-.59,.73-2.14,1.62-4.65,2.67-.4,.13-.68,.43-.84,.89-.17,.46-.25,1.29-.25,2.47s.15,1.98,.45,2.38c.3,.4,.91,.6,1.83,.6,2.04,0,3.89-.13,5.54-.4s2.87-.4,3.66-.4,1.39,.25,1.78,.74c.4,.5,.96,1.24,1.68,2.23,.72,.99,1.09,1.91,1.09,2.77Zm-9.9-63.36c4.22,0,7.61,.64,10.15,1.93s5.02,3.73,7.43,7.33c2.41,3.6,3.61,5.73,3.61,6.38s-.25,1.09-.74,1.29c-.5,.2-2.03,.3-4.6,.3s-4.88-.39-6.93-1.19c-2.05-.79-3.07-1.34-3.07-1.63s.66-.54,1.98-.74c1.32-.2,2.46-.71,3.42-1.54,.96-.82,1.44-1.9,1.44-3.22s-.97-2.64-2.92-3.96c-1.95-1.32-3.88-1.98-5.79-1.98s-4.34,.4-7.28,1.19c-2.94,.79-5.21,1.67-6.83,2.62s-3.02,1.47-4.21,1.53c-4.62,.33-8.22,1.06-10.79,2.18-.59,.26-1.06,.39-1.39,.39s-.49-.45-.49-1.34,.3-1.57,.89-2.03c.59-.46,2.1-1.14,4.5-2.03,2.41-.89,4.27-1.48,5.59-1.78,1.32-.3,2.82-.83,4.51-1.59,1.68-.76,3.38-1.3,5.1-1.63,1.71-.33,3.86-.49,6.44-.49Zm-3.96-6.73c0,2.05-.53,3.07-1.58,3.07-.33,0-.79-.1-1.38-.3-1.45-.59-2.71-.89-3.76-.89s-1.77-.13-2.13-.4c-.36-.26-.66-.94-.89-2.03-.23-1.09-.35-2.38-.35-3.86s.31-2.77,.94-3.86c.62-1.09,1.44-1.63,2.42-1.63,1.59,0,3.1,1.37,4.55,4.11,1.45,2.74,2.18,4.67,2.18,5.79Zm-8.51,26.83c.46,0,1.14-.13,2.03-.39s1.44-.43,1.63-.5c1.19-.26,1.78-1.02,1.78-2.28,0-.46-.26-.69-.79-.69s-1.47,.21-2.82,.64c-1.35,.43-2.11,.86-2.28,1.29-.17,.43-.25,.86-.25,1.29s.23,.64,.69,.64Zm.5,7.92c.46,0,1.17-.16,2.13-.49s1.44-1.05,1.44-2.18c0-.86-.43-1.29-1.29-1.29-1.32,0-2.23,.31-2.72,.94-.49,.63-.74,1.29-.74,1.98s.4,1.04,1.19,1.04Z"/><path class="uuid-da6e8763-5733-4e9c-843c-8cfe457f7ee1" d="M652.32,224.64c0,1.65-1.25,3.24-3.76,4.75-1.65,.99-2.69,1.8-3.12,2.43-.43,.63-.64,1.68-.64,3.17s.1,2.48,.3,2.97,.51,.74,.94,.74,1.12-.3,2.08-.89c.96-.59,1.62-.89,1.98-.89s.54,.25,.54,.74-.41,1.52-1.24,3.07c-.83,1.55-1.96,3.53-3.42,5.94-1.45,2.41-2.57,4.04-3.37,4.9-.79,.86-1.63,1.57-2.53,2.13-.89,.56-2.39,2.16-4.5,4.8-.4,.46-.89,.69-1.48,.69s-1.5-.61-2.72-1.83c-1.22-1.22-1.83-2.13-1.83-2.72s.48-1.22,1.44-1.88c.96-.66,2.08-1.73,3.37-3.22,1.29-1.48,2.19-2.72,2.72-3.71,.53-.99,.96-2.39,1.29-4.21,.33-1.81,.5-3.12,.5-3.91,0-1.65-.66-2.47-1.98-2.47s-3.5,.59-6.53,1.78c-.27,.13-.53,.2-.79,.2-.66,0-1.34-.71-2.03-2.13-.69-1.42-1.04-2.56-1.04-3.42,0-1.38,.72-2.18,2.18-2.38,.99-.13,2.79-.54,5.39-1.24s4.11-1.14,4.51-1.34c.39-.2,.69-.54,.89-1.04,.2-.5,.43-1.42,.69-2.77,.26-1.35,.86-2.03,1.78-2.03,1.78,0,3.17,.83,4.16,2.48,.33,.66,.79,.89,1.39,.69,1.38-.39,2.54-.59,3.46-.59s1.38,.4,1.38,1.19Zm2.87-16.93c0,1.06-.21,2.01-.64,2.87-.43,.86-1.16,1.72-2.18,2.57-1.03,.86-2.16,1.58-3.42,2.18-1.25,.59-2.36,.91-3.32,.94-.96,.04-1.88,.05-2.77,.05s-1.72,.13-2.48,.39c-.76,.27-1.42,.4-1.98,.4s-1.06-.21-1.49-.64-.88-1.42-1.34-2.97c-.46-1.55-.69-2.72-.69-3.51,0-1.52,.76-2.18,2.28-1.98,.46,.07,.96,.1,1.48,.1,2.04,0,4.55-.45,7.53-1.34,2.97-.89,5.21-1.34,6.73-1.34s2.28,.76,2.28,2.28Zm45.94,42.47c.99,0,1.87,.61,2.62,1.83,.76,1.22,1.14,2.31,1.14,3.27s-.18,1.67-.54,2.13c-.36,.46-.84,.63-1.44,.5-2.71-.6-6.47-.92-11.29-.99s-8.31-.1-10.49-.1c-7.92,0-13.73,.53-17.42,1.58-.73,.2-1.32,.3-1.78,.3s-.89-.25-1.29-.74-.93-1.47-1.58-2.92c-.26-.59-.56-.89-.89-.89s-1.16,.78-2.47,2.33c-1.32,1.55-3.25,2.9-5.79,4.06-2.54,1.15-4.75,1.73-6.63,1.73s-2.82-.46-2.82-1.39c0-.53,.33-1.06,.99-1.58,5.01-4.29,8.07-7.03,9.16-8.22,1.09-1.19,2.61-3.43,4.55-6.73,1.95-3.3,3.46-6.62,4.55-9.95,1.09-3.33,2.03-7.51,2.82-12.52,.79-5.01,1.27-10.28,1.44-15.79,.16-5.51,.56-8.64,1.19-9.4,.63-.76,1.62-1.14,2.97-1.14s2.03,.46,2.03,1.39-.13,1.98-.4,3.17c-.53,2.51-.79,4.88-.79,7.13,0,1.32,.23,2.25,.69,2.77,.46,.53,1.38,.79,2.77,.79s3.4-.46,6.04-1.38c2.64-.92,5.43-1.62,8.37-2.08,2.94-.46,4.7-.69,5.3-.69s1.01,.23,1.24,.69c.23,.46,.35,.99,.35,1.58s-.15,1.3-.45,2.13c-.3,.83-1.21,1.68-2.72,2.57-1.52,.89-2.61,2.05-3.27,3.46-.66,1.42-.99,2.71-.99,3.86s.23,1.98,.69,2.47c.46,.49,1.05,.68,1.78,.54s1.68-.2,2.87-.2,2,.12,2.43,.35,.64,.88,.64,1.93-.18,1.88-.54,2.47c-.36,.59-1.44,1.34-3.22,2.23-1.78,.89-3.14,1.68-4.06,2.38s-1.38,2.23-1.38,4.6c0,5.88,.36,9.21,1.09,10,.73,.79,1.83,1.4,3.32,1.83,1.49,.43,5.23,.64,11.24,.64Zm-40.09-28.02c0,.93-.25,1.83-.74,2.72-.5,.89-1.04,1.34-1.63,1.34-.92,0-1.91-.72-2.97-2.18-1.06-1.45-1.58-3.3-1.58-5.54,0-1.85,.62-2.77,1.88-2.77,.92,0,1.99,.64,3.22,1.93,1.22,1.29,1.83,2.79,1.83,4.5Zm17.03,.69c0-1.52-.17-2.54-.49-3.07-.33-.53-1.06-.91-2.18-1.14-1.12-.23-2.05-.58-2.77-1.04s-1.52-1.22-2.38-2.28c-.4-.46-.79-.69-1.19-.69s-.6,.53-.6,1.58c-.07,5.81-.89,10.43-2.47,13.86-1.91,4.29-3.28,7.69-4.11,10.2-.83,2.51-1.24,4.72-1.24,6.63l.1,2.18-.2,1.68c0,1.32,.56,1.98,1.68,1.98s2.57-.21,4.36-.64c1.78-.43,3.37-.76,4.75-.99,1.39-.23,2.49-.68,3.32-1.34,.83-.66,1.34-1.32,1.54-1.98,.2-.66,.43-2.16,.69-4.5,.26-2.34,.4-3.97,.4-4.9s-.17-1.58-.5-1.98c-.33-.39-.89-.59-1.68-.59h-2.38c-.99,0-1.7-.72-2.13-2.18-.43-1.45-.64-2.44-.64-2.97,0-1.12,.43-1.78,1.29-1.98,3.3-.66,5.13-1.14,5.49-1.44,.36-.3,.68-.82,.94-1.58,.26-.76,.4-1.7,.4-2.82Z"/><path class="uuid-da6e8763-5733-4e9c-843c-8cfe457f7ee1" d="M648.76,352.94c0,1.78-.73,3.89-2.18,6.34s-2.54,4.03-3.27,4.75c-.73,.72-1.34,1.55-1.83,2.47-.5,.92-1.16,1.39-1.98,1.39s-2.06-.45-3.71-1.34c-1.65-.89-2.47-1.65-2.47-2.28s.26-1.17,.79-1.63c1.71-1.38,3.17-2.77,4.36-4.16,.46-.46,2.08-1.65,4.85-3.56,2.77-1.91,4.37-2.87,4.8-2.87s.64,.3,.64,.89Zm19.8-60.19c0,.26-.1,.54-.3,.84s-.36,1.07-.49,2.33c-.07,1.72-.94,3.12-2.62,4.21-1.68,1.09-4.04,2.96-7.08,5.59-3.04,2.64-5.03,4.54-5.99,5.69-.96,1.16-1.54,2.11-1.73,2.87-.2,.76-.3,1.68-.3,2.77s-.38,2.11-1.14,3.07c-.76,.96-1.95,1.82-3.56,2.57-1.62,.76-2.86,1.52-3.71,2.28-.86,.76-1.98,1.42-3.37,1.98-1.39,.56-2.31,.84-2.77,.84s-.69-.16-.69-.49c0-1.32,1.29-3.56,3.86-6.73s4.06-4.95,4.46-5.35c2.24-2.18,4.85-5.36,7.82-9.55,2.97-4.19,5.29-7.23,6.98-9.11s3.04-3.61,4.06-5.2,1.9-2.38,2.62-2.38,1.57,.4,2.52,1.19c.96,.79,1.44,1.65,1.44,2.57Zm11.98,34.55c2.77,0,5.12,1.55,7.03,4.65,1.91,3.1,2.87,5.48,2.87,7.13,0,.92-.33,1.7-.99,2.33s-1.5,.94-2.52,.94-2.34-.33-3.96-.99c-1.62-.66-2.62-1.14-3.02-1.44s-.59-.68-.59-1.14,.76-.92,2.28-1.38c2.51-.86,3.76-2.08,3.76-3.66,0-.86-.48-1.81-1.44-2.87-.96-1.05-1.96-1.58-3.02-1.58-2.18,0-3.89,1.75-5.15,5.25-.73,2.11-1.45,3.71-2.18,4.8-.73,1.09-1.57,1.85-2.52,2.28-.96,.43-1.55,.84-1.78,1.24-.23,.39-.51,1.65-.84,3.76-.33,2.11-.49,3.78-.49,5s.08,2.41,.25,3.56c.16,1.16,.25,2.81,.25,4.95s-.07,3.55-.2,4.21c-.13,.66-.2,1.55-.2,2.67l.1,2.47c0,1.32-.49,1.98-1.48,1.98-.53,0-1.6-.28-3.22-.84-1.62-.56-3.15-.91-4.6-1.04-2.31-.2-4.62-1.04-6.93-2.52-2.31-1.48-3.47-2.59-3.47-3.32,0-.46,.58-.58,1.73-.35s2.29,.35,3.42,.35c3.37,0,5.48-.4,6.34-1.19,.86-.79,1.4-1.88,1.63-3.27,.23-1.39,.35-3.48,.35-6.29s-.12-4.83-.35-6.09c-.23-1.25-.5-2.03-.79-2.33s-.69-.45-1.19-.45-2.11,.39-4.85,1.19c-2.74,.79-4.47,1.38-5.2,1.78-.73,.4-1.48,.59-2.28,.59s-1.57-.49-2.33-1.48c-.76-.99-1.14-1.71-1.14-2.18s.41-.84,1.24-1.14c.82-.3,2.39-1.07,4.7-2.33s3.79-2.21,4.46-2.87c1.45-1.71,3.13-3.6,5.05-5.64,.13-.13,.2-.26,.2-.4,0-.4-.23-.59-.69-.59s-2.15,.56-5.05,1.68c-2.9,1.12-4.64,1.87-5.2,2.23-.56,.36-1.12,.54-1.68,.54s-1.17-.33-1.83-.99-1.58-1.48-2.77-2.47c-.33-.26-.49-.71-.49-1.34s.89-1.38,2.67-2.28c1.78-.89,3.73-1.63,5.84-2.23,.46-.13,1.07-.48,1.83-1.04,.76-.56,1.27-1.07,1.53-1.54,3.76-5.41,7.89-11.09,12.38-17.03s6.93-9.07,7.33-9.41c.4-.33,.91-.49,1.54-.49s1.27,.36,1.93,1.09,.99,1.53,.99,2.42-.36,1.8-1.09,2.72c-3.37,4.29-6.3,8.27-8.81,11.93-2.51,3.66-3.76,5.63-3.76,5.89,0,.46,.2,.69,.59,.69,.26,0,1.45-.38,3.56-1.14,2.11-.76,3.58-1.54,4.41-2.33,.82-.79,2.92-3.43,6.29-7.92,.66-1.05,1.49-1.58,2.48-1.58,.39,0,.77,.15,1.14,.45s.54,.58,.54,.84c0,.92-1.78,4.12-5.35,9.6s-7.39,10.29-11.48,14.45c-.2,.2-.3,.43-.3,.69s.08,.4,.25,.4,.86-.2,2.08-.6c1.22-.39,2.66-1.38,4.31-2.97,2.84-2.71,5.48-4.06,7.92-4.06Zm2.28,24.65c.73,0,1.7,.25,2.92,.74,1.22,.5,2.29,1.07,3.22,1.73,.92,.66,1.57,1.29,1.93,1.88s.54,1.78,.54,3.56c0,2.77-.66,4.16-1.98,4.16-.79,0-3.18-1.62-7.18-4.85s-5.99-5.33-5.99-6.29,.49-1.43,1.48-1.43c.26,0,.84,.08,1.73,.25,.89,.17,2,.25,3.32,.25Z"/><path class="uuid-da6e8763-5733-4e9c-843c-8cfe457f7ee1" d="M651.43,420.46c0,.4-.58,1.52-1.73,3.37-1.16,1.85-2.51,3.61-4.06,5.3-1.55,1.68-2.59,2.99-3.12,3.91-.53,.93-.79,1.55-.79,1.88,0,.79,.39,1.19,1.19,1.19,.33,0,.89-.13,1.68-.39,.79-.26,1.38-.53,1.78-.79,.4-.26,.76-.4,1.09-.4s.59,.3,.79,.89,.3,1.19,.3,1.78c0,1.52-1.09,2.77-3.27,3.76-6.6,3.04-10.72,5.21-12.38,6.54-.92,.79-1.65,1.19-2.18,1.19s-1.15-.58-1.88-1.73-1.09-2.03-1.09-2.62,.33-1.09,.99-1.49c2.04-1.32,3.27-2.24,3.66-2.77l1.68-2.57c.79-1.19,1.19-1.93,1.19-2.23s-.54-.45-1.63-.45-2.16,.18-3.22,.54c-1.06,.36-1.93,.54-2.62,.54s-1.4-.66-2.13-1.98c-.73-1.32-1.09-2.16-1.09-2.52s.36-.71,1.09-1.04c1.52-.6,2.62-1.14,3.32-1.63,.69-.49,2.08-2.54,4.16-6.14,2.08-3.6,4.31-7.23,6.68-10.89,2.38-3.66,3.83-5.82,4.36-6.48,.53-.66,1.12-.99,1.78-.99s1.47,.54,2.43,1.63c.96,1.09,1.44,1.88,1.44,2.38s-.4,1.14-1.19,1.93-2.18,2.62-4.16,5.49-3.32,4.94-4.01,6.19c-.69,1.26-1.04,2.18-1.04,2.77s.53,.89,1.58,.89c.53,0,.97-.12,1.34-.35,.36-.23,1.22-1.1,2.57-2.62,1.35-1.52,2.14-2.66,2.38-3.42,.23-.76,.59-1.14,1.09-1.14s1.12,.26,1.88,.79c.76,.53,1.14,1.09,1.14,1.68Zm-3.07,24.25c.33,0,.63,.25,.89,.74,.26,.49,.4,.92,.4,1.29s-.23,.78-.69,1.24c-2.05,2.05-3.66,3.8-4.85,5.25s-2.77,2.97-4.75,4.55-3.51,2.86-4.6,3.81c-1.09,.96-1.78,1.53-2.08,1.73-.3,.2-.76,.3-1.39,.3s-1.5-.51-2.62-1.54c-1.12-1.02-1.68-1.83-1.68-2.43s.18-1.07,.54-1.44,2.38-1.8,6.04-4.31c3.66-2.51,6.38-4.26,8.17-5.25,2.77-1.52,4.46-2.56,5.05-3.12,.59-.56,1.12-.84,1.58-.84Zm40.39-10.89c0,1.52-.23,2.66-.69,3.41-.46,.76-1.07,1.14-1.83,1.14s-2.16-.72-4.21-2.18c-2.05-1.45-3.07-2.38-3.07-2.77s.36-.63,1.09-.69c4.09-.4,6.14-1.45,6.14-3.17,0-.66-.33-1.37-.99-2.13-.66-.76-1.68-1.14-3.07-1.14s-2.67,.51-3.86,1.54c-1.19,1.02-1.95,2.08-2.28,3.17-.33,1.09-.78,1.95-1.34,2.57s-1.7,1.21-3.41,1.73c-1.72,.53-2.81,.99-3.27,1.39-.46,.39-.76,1.12-.89,2.18-.46,3.3-.93,5.59-1.39,6.88-.46,1.29-1.32,2.89-2.57,4.8-2.24,3.43-3.46,6.67-3.66,9.7-.13,1.26-.41,2.2-.84,2.82-.43,.63-1.35,1.4-2.77,2.33-1.42,.92-3.12,1.73-5.1,2.43s-3.6,1.04-4.85,1.04c-.73,0-1.09-.2-1.09-.59s.63-1.29,1.88-2.67l5.94-6.34c1.32-1.38,2.72-3.25,4.21-5.59,1.48-2.34,2.54-4.31,3.17-5.89,.62-1.58,.94-3.28,.94-5.1s-.26-2.72-.79-2.72-1.21,.2-2.03,.59c-.83,.4-1.44,.6-1.83,.6s-.76-.21-1.09-.64c-.33-.43-.86-1.47-1.58-3.12-.73-1.65-1.09-2.64-1.09-2.97,0-.92,.66-1.47,1.98-1.63,1.32-.16,2.48-.54,3.46-1.14,.99-.6,1.83-1.04,2.53-1.34s1.44-1.37,2.23-3.22c.79-1.85,1.19-3.04,1.19-3.56,0-.4-.28-.59-.84-.59s-1.5,.28-2.82,.84-2.29,.84-2.92,.84-1.07-.43-1.34-1.29c-.4-1.45-.71-2.41-.94-2.87-.23-.46-.35-.94-.35-1.44s.53-.74,1.58-.74,3.3-.45,6.73-1.34c3.43-.89,8.68-2.69,15.74-5.39,1.78-.66,3.02-.99,3.71-.99s1.47,.76,2.33,2.28c.86,1.52,1.29,2.69,1.29,3.51s-.21,1.34-.64,1.54-1.14,.3-2.13,.3-2.74,.26-5.25,.79c-2.51,.53-3.91,.91-4.21,1.14-.3,.23-.81,.96-1.54,2.18s-1.35,2.33-1.88,3.32c-.53,.99-.79,1.63-.79,1.93s.46,.45,1.38,.45,2.11-.49,3.56-1.48c2.18-1.58,4.27-2.38,6.29-2.38s3.83,.94,5.45,2.82c1.62,1.88,2.42,4.17,2.42,6.88Zm-11.98-28.02c0,1.06-.51,1.7-1.53,1.93-1.03,.23-2.15,.35-3.37,.35s-2.56-.35-4.01-1.04c-1.45-.69-2.18-1.73-2.18-3.12s.3-3.3,.89-5.74c.59-2.44,1.21-3.66,1.83-3.66s1.05,.36,1.29,1.09c.23,.73,.82,1.68,1.78,2.87s1.87,2.18,2.72,2.97c1.72,1.58,2.57,3.04,2.57,4.36Zm22.47,39.6c.4,0,1.06,.66,1.98,1.98s1.78,4.62,2.57,9.9c.26,1.45,.61,3.04,1.04,4.75,.43,1.71,.64,3.15,.64,4.31s-.48,1.99-1.44,2.52c-.96,.53-3.04,1.09-6.24,1.68s-6.65,.89-10.34,.89-6.68-.63-8.96-1.88-4.14-3.46-5.59-6.63-2.18-7.33-2.18-12.47c0-2.31,.13-4.83,.4-7.57s.56-4.29,.89-4.65c.33-.36,.69-.54,1.09-.54s1.27,.23,2.62,.69c1.35,.46,2.03,1.01,2.03,1.63s-.1,1.14-.3,1.53c-.53,1.26-1.04,3.32-1.54,6.19-.49,2.87-.74,5.59-.74,8.17,0,4.49,1.15,7.08,3.46,7.77s5.12,1.04,8.42,1.04,5.76-.56,7.38-1.68c1.62-1.12,2.49-2.41,2.62-3.86,.26-4.16,.59-7.49,.99-10,.4-2.51,.79-3.76,1.19-3.76Z"/><path class="uuid-da6e8763-5733-4e9c-843c-8cfe457f7ee1" d="M665.09,510.75c0,1.98,2.9,5.35,8.71,10.1,6.8,5.68,10.87,9.22,12.23,10.64,1.35,1.42,2.61,2.49,3.76,3.22,1.15,.73,3.25,1.85,6.29,3.37,8.12,4.03,12.8,6.65,14.06,7.87s1.88,2.1,1.88,2.62c0,.73-2.05,1.09-6.14,1.09-2.24,0-4.72-.26-7.42-.79-2.71-.53-5.3-1.22-7.77-2.08-2.47-.86-3.89-1.45-4.26-1.78-.36-.33-.74-1.35-1.14-3.07-.39-1.72-.86-3.04-1.38-3.96-.53-.92-1.96-2.23-4.31-3.91-2.34-1.68-5.89-4.73-10.64-9.16-3.37-3.17-6.47-4.75-9.31-4.75-.99,0-1.93,.27-2.82,.79-.89,.53-2.13,1.7-3.71,3.51-1.58,1.82-3.25,4.11-5,6.88-1.75,2.77-3.75,5.38-5.99,7.82-.79,.93-1.38,2.28-1.78,4.06-.4,1.78-.76,2.89-1.09,3.32s-1.09,.96-2.28,1.58c-1.19,.63-2.72,1.14-4.6,1.53-1.88,.4-3.61,.59-5.2,.59s-2.69-.2-3.32-.59c-.63-.39-.94-.79-.94-1.19s.13-.72,.4-.99,2.21-1.78,5.84-4.55c3.63-2.77,6.3-5.48,8.02-8.12,2.04-3.23,4.67-7.06,7.87-11.48,3.2-4.42,5.46-7.36,6.78-8.81,1.32-1.45,2.38-2.8,3.17-4.06,.79-1.25,2.28-3.73,4.46-7.43,.99-1.71,1.86-2.57,2.62-2.57s1.78,.74,3.07,2.23,1.93,2.49,1.93,3.02-.33,1.3-.99,2.33c-.66,1.02-.99,1.93-.99,2.72Zm17.72,38.21c0,.39-.48,1.09-1.44,2.08s-1.85,2.1-2.67,3.32c-.83,1.22-2.39,3.68-4.7,7.38-1.45,2.31-3.12,4.62-5,6.93s-3.09,3.6-3.61,3.86c-.53,.26-1.25,.48-2.18,.64-.93,.16-1.95,.25-3.07,.25-2.91,0-4.36-.46-4.36-1.38,0-.53,.46-1.19,1.39-1.98,3.17-2.71,5.78-5.51,7.82-8.41s3.07-5.35,3.07-7.33c0-.92-.2-1.81-.59-2.67-.4-.86-.83-1.4-1.29-1.63-.46-.23-1.17-.35-2.13-.35s-2.11,.21-3.46,.64c-1.35,.43-2.71,1.15-4.06,2.18-1.35,1.02-3.2,2-5.54,2.92-2.34,.93-3.83,1.39-4.46,1.39s-1.58-.82-2.87-2.47-1.93-2.8-1.93-3.46,.46-1.21,1.38-1.63c.92-.43,3.58-1.09,7.97-1.98,4.39-.89,8.23-1.5,11.53-1.83,3.3-.33,5.28-.61,5.94-.84,.66-.23,1.39-.35,2.18-.35,2.51,0,5.15,.58,7.92,1.73,2.77,1.15,4.16,2.16,4.16,3.02Zm-24.75-22.38c.59,0,1.34,.4,2.23,1.19,.89,.79,2.24,1.73,4.06,2.82,1.81,1.09,3.33,2.34,4.55,3.76,1.22,1.42,1.83,2.47,1.83,3.17s-.66,1.21-1.98,1.54-2.56,.49-3.71,.49-2.43-.25-3.81-.74c-1.38-.49-2.38-.86-2.97-1.09-.6-.23-1.14-1.09-1.63-2.57-.49-1.49-.74-2.92-.74-4.31s.2-2.44,.59-3.17,.92-1.09,1.58-1.09Z"/><path class="uuid-da6e8763-5733-4e9c-843c-8cfe457f7ee1" d="M660.64,650.04c0-.73-.1-1.09-.3-1.09s-.4,.04-.59,.1c-5.54,1.78-10.1,2.77-13.66,2.97-.86,.07-1.4,.48-1.63,1.24-.23,.76-.58,3.58-1.04,8.46-.13,1.45-.39,2.49-.79,3.12s-1.44,1.63-3.12,3.02c-1.68,1.38-3.38,2.52-5.1,3.41-1.72,.89-2.82,1.34-3.32,1.34s-.74-.27-.74-.79,.56-1.47,1.68-2.82c1.12-1.35,2.23-2.97,3.32-4.85,1.09-1.88,2.28-4.85,3.56-8.91s2.23-7.9,2.82-11.53c.59-3.63,.89-7.16,.89-10.59s-.1-6.75-.3-9.95c-.2-3.2-.3-5.31-.3-6.34s.06-1.88,.2-2.57c.13-.69,.31-1.12,.54-1.29,.23-.16,.58-.25,1.04-.25,1.71,0,6.7-1.19,14.95-3.56,4.75-1.39,8.68-2.51,11.78-3.37,3.1-.86,5.81-1.29,8.12-1.29,3.04,0,6.29,.45,9.75,1.34,3.46,.89,5.2,1.87,5.2,2.92,0,.26-.13,.59-.4,.99-.86,1.19-1.29,4.17-1.29,8.96s.33,12.01,.99,21.68,1.32,16.81,1.98,21.43c.79,6.53,1.19,11.29,1.19,14.26,0,1.45-.58,2.18-1.73,2.18s-3.99-1.14-8.51-3.42c-4.52-2.28-7.71-4.08-9.55-5.39-1.85-1.32-2.77-2.21-2.77-2.67s.21-.69,.64-.69,.87,.07,1.34,.2c3.37,1.12,6.54,1.68,9.5,1.68,1.45,0,2.18-.72,2.18-2.18s-.31-7.52-.94-18.21c-.63-10.69-1.21-19.02-1.73-25-.53-5.97-.97-9.59-1.34-10.84-.37-1.25-1.09-2.13-2.18-2.62-1.09-.49-2.46-.74-4.11-.74-.73,0-1.93,.18-3.61,.54-1.68,.36-2.66,.63-2.92,.79-.26,.17-.43,.76-.49,1.78-.07,1.02-.3,2.86-.69,5.49-.26,1.19-.4,2.33-.4,3.42s.07,1.7,.2,1.83c.13,.13,.43,.17,.89,.1,2.57-.53,4.49-.79,5.74-.79s2.18,.53,2.77,1.58,.89,2.16,.89,3.32-.16,1.85-.49,2.08c-.33,.23-1.19,.38-2.57,.45-1.39,.07-2.76,.33-4.11,.79-1.35,.46-2.25,.86-2.67,1.19-.43,.33-.64,.76-.64,1.29l-.1,4.75c0,.4,.06,.69,.2,.89,.13,.2,.46,.23,.99,.1,4.88-1.05,7.92-1.58,9.11-1.58,.92,0,1.49,.43,1.68,1.29,.33,1.52,.68,2.59,1.04,3.22,.36,.63,.54,1.17,.54,1.63,0,1.39-1.25,2.08-3.76,2.08-1.32,0-3.27,.25-5.84,.74s-3.98,.84-4.21,1.04c-.23,.2-.41,.45-.54,.74s-.31,2.61-.54,6.93c-.23,4.32-.35,8.2-.35,11.63,0,3.89-1.75,5.84-5.25,5.84-1.52,0-2.28-.49-2.28-1.48,0-.27,.06-.63,.2-1.09,1.05-3.3,1.48-7.29,1.29-11.98l-.3-6.93Zm-12.67-23.96c0,.79,.3,1.3,.89,1.54,.59,.23,1.42,.35,2.47,.35s2.1-.3,3.12-.89,2.79-1.35,5.3-2.28c.66-.26,.99-.69,.99-1.29l.1-5.74c0-2.97-.28-4.46-.84-4.46s-2.18,.6-4.85,1.78c-2.67,1.19-4.54,2.36-5.59,3.51-1.06,1.16-1.58,2.96-1.58,5.4v2.08Zm.69,18.32c.26,0,1.04-.15,2.33-.45s2.39-.68,3.32-1.14c.92-.46,1.95-.91,3.07-1.34,1.12-.43,1.85-.69,2.18-.79,.33-.1,.56-.26,.69-.5,.13-.23,.2-.51,.2-.84l-.1-5.15c0-.73-.25-1.09-.74-1.09s-2.24,.35-5.25,1.04-4.69,1.19-5.05,1.49-.56,1.04-.59,2.23-.15,2.44-.35,3.76c-.2,1.32-.3,2.11-.3,2.38s.2,.4,.59,.4Z"/></g></svg>