<?xml version="1.0" encoding="utf-8"?>
<!-- Generator: Adobe Illustrator 27.0.0, SVG Export Plug-In . SVG Version: 6.00 Build 0)  -->
<svg version="1.1" id="图层_1" xmlns="http://www.w3.org/2000/svg" xmlns:xlink="http://www.w3.org/1999/xlink" x="0px" y="0px"
	 viewBox="0 0 826.2 483.5" style="enable-background:new 0 0 826.2 483.5;" xml:space="preserve">
<style type="text/css">
	.st0{fill:#E6E6E6;}
	.st1{fill:#FFFFFF;}
	.st2{fill:#F2F2F2;}
	.st3{fill:#CCCCCC;}
	.st4{fill:#FFB8B8;}
	.st5{fill:#2F2E41;}
	.st6{opacity:0.2;enable-background:new    ;}
</style>
<path class="st0" d="M490.6,128.1h-79.7c-3.5,0-6.9-1.6-9.1-4.4l0,0c-2.2-2.8-3-6.5-2.2-10c7.3-30.8,7.4-62.9,0-93.6
	c-0.8-3.5,0-7.2,2.2-10c2.2-2.8,5.5-4.4,9.1-4.4h79.7c5.7,0,10.5,4.1,11.4,9.8c5.2,34.1,5.2,68.8,0,102.9
	C501.2,124,496.3,128.1,490.6,128.1z"/>
<path class="st1" d="M410.9,11.7c-1.7,0-3.3,0.8-4.4,2.1c-1.1,1.4-1.5,3.2-1.1,4.9c7.6,31.7,7.6,64.7,0,96.4c-0.4,1.7,0,3.5,1.1,4.9
	l0,0c1,1.3,2.7,2.1,4.4,2.1h79.7c2.7,0,5.1-2,5.5-4.7c5.2-33.5,5.2-67.6,0-101c-0.4-2.7-2.8-4.7-5.5-4.7H410.9z"/>
<path class="st0" d="M473.2,40.6h-41.8c-3.3,0-6-2.7-6-6v-2.3c0-3.3,2.7-6,6-6h41.8c3.3,0,6,2.7,6,6v2.3
	C479.2,37.9,476.5,40.6,473.2,40.6z"/>
<path class="st0" d="M473.2,70.2h-41.8c-3.3,0-6-2.7-6-6v-2.3c0-3.3,2.7-6,6-6h41.8c3.3,0,6,2.7,6,6v2.3
	C479.2,67.5,476.5,70.2,473.2,70.2z"/>
<path class="st0" d="M473.2,99.8h-41.8c-3.3,0-6-2.7-6-6v-2.3c0-3.3,2.7-6,6-6h41.8c3.3,0,6,2.7,6,6v2.3
	C479.2,97.1,476.5,99.8,473.2,99.8z"/>
<path class="st0" d="M640.6,204.1h-79.7c-3.5,0-6.9-1.6-9.1-4.4l0,0c-2.2-2.8-3-6.5-2.2-10c7.3-30.8,7.4-62.9,0-93.6
	c-0.8-3.5,0-7.2,2.2-10c2.2-2.8,5.5-4.4,9.1-4.4h79.7c5.7,0,10.5,4.1,11.4,9.8c5.2,34.1,5.2,68.8,0,102.9
	C651.2,200,646.3,204.1,640.6,204.1z"/>
<path class="st1" d="M560.9,87.7c-1.7,0-3.3,0.8-4.4,2.1c-1.1,1.4-1.5,3.2-1.1,4.9c7.6,31.7,7.6,64.7,0,96.4c-0.4,1.7,0,3.5,1.1,4.9
	l0,0c1,1.3,2.7,2.1,4.4,2.1h79.7c2.7,0,5.1-2,5.5-4.7c5.2-33.5,5.2-67.6,0-101c-0.4-2.7-2.8-4.7-5.5-4.7H560.9z"/>
<path class="st2" d="M481.6,290.6h-79.7c-3.7,0-7.2-1.7-9.5-4.6c-2.3-2.9-3.2-6.8-2.3-10.4c7.3-30.7,7.3-62.7,0-93.4
	c-0.9-3.6,0-7.5,2.3-10.4c2.3-2.9,5.8-4.6,9.5-4.6h79.7c5.9,0,11,4.3,11.9,10.2c5.3,34.1,5.3,68.9,0,103
	C492.6,286.3,487.6,290.6,481.6,290.6z"/>
<path class="st0" d="M623.2,131.6h-41.8c-3.3,0-6-2.7-6-6v-2.3c0-3.3,2.7-6,6-6h41.8c3.3,0,6,2.7,6,6v2.3
	C629.2,128.9,626.5,131.6,623.2,131.6z"/>
<path class="st0" d="M623.2,161.2h-41.8c-3.3,0-6-2.7-6-6v-2.3c0-3.3,2.7-6,6-6h41.8c3.3,0,6,2.7,6,6v2.3
	C629.2,158.5,626.5,161.2,623.2,161.2z"/>
<circle class="st1" cx="442" cy="228.5" r="23"/>
<path class="st0" d="M453,225.5h-8v-8c0-1.7-1.3-3-3-3s-3,1.3-3,3v8h-8c-1.7,0-3,1.3-3,3s1.3,3,3,3h8v8c0,1.7,1.3,3,3,3s3-1.3,3-3
	v-8h8c1.7,0,3-1.3,3-3S454.6,225.5,453,225.5z"/>
<path class="st3" d="M471,17h-42c-2.5,0-4.5-2-4.5-4.5v-8c0-2.5,2-4.5,4.5-4.5h42c2.5,0,4.5,2,4.5,4.5v8C475.5,15,473.5,17,471,17z"
	/>
<path class="st3" d="M623,94h-42c-2.5,0-4.5-2-4.5-4.5v-8c0-2.5,2-4.5,4.5-4.5h42c2.5,0,4.5,2,4.5,4.5v8C627.5,92,625.5,94,623,94z"
	/>
<polygon class="st4" points="258.8,471.1 271,471.1 274.9,423.8 258.8,423.8 "/>
<path class="st5" d="M255.6,467.1l24.1,0h0c8.5,0,15.4,6.9,15.4,15.4c0,0,0,0,0,0v0.5l-39.5,0L255.6,467.1z"/>
<polygon class="st4" points="192.8,471.1 205,471.1 210.9,423.8 192.8,423.8 "/>
<path class="st5" d="M189.6,467.1l24.1,0h0c8.5,0,15.4,6.9,15.4,15.4c0,0,0,0,0,0v0.5l-39.5,0L189.6,467.1z"/>
<path class="st5" d="M194.9,456.1c-1.3,0-2.5-0.5-3.4-1.3l0,0c-1-0.9-1.6-2.2-1.6-3.5L185,275.1l69.8,17.5l21.5,64.6
	c2.8,8.3,4,17.1,3.5,25.8l-2.7,62.6c-0.1,2.7-2.3,4.8-5,4.8h-11.7c-2.5,0-4.6-1.9-5-4.3l-8.4-69.1c-0.7-5.4-2.6-10.6-5.5-15.2
	l-16.5-26.1c-0.3-0.5-0.9-0.6-1.4-0.3c-0.3,0.2-0.4,0.4-0.5,0.7l-12.9,115.1c-0.3,2.4-2.3,4.3-4.7,4.4l-10.6,0.6
	C195.1,456.1,195,456.1,194.9,456.1z"/>
<circle class="st4" cx="243.2" cy="136.4" r="24.6"/>
<path d="M254.5,299.7c-0.4,0-0.8-0.1-1.3-0.2h0L184,281.8c-2.6-0.7-4.2-3.2-3.7-5.8l15.9-85.7c2-10.1,8.8-18.5,18.2-22.5
	c9.2-4.1,19.8-3.3,28.3,2.1c1,0.6,1.9,1.3,2.9,2c7.8,5.8,12.5,14.8,12.6,24.5l1.3,98.3C259.5,297.4,257.3,299.6,254.5,299.7
	C254.5,299.7,254.5,299.7,254.5,299.7z"/>
<path class="st4" d="M191.1,300.7c-3.1-4.6-1.9-10.8,2.7-14c0.5-0.3,1-0.6,1.5-0.9l-3.1-35.6l16.3,8.8l0.4,32.5
	c1.9,5.2-0.7,11.1-6,13C198.6,306.2,193.7,304.6,191.1,300.7z"/>
<path d="M196.9,281.1c-0.5,0-0.9-0.1-1.4-0.2c-2-0.5-3.5-2-4-4l-8-31.9c-2.8-11.1-1.5-22.9,3.8-33.1l16.8-32.9
	c2.2-8.2,10.6-13.1,18.8-11c4,1,7.4,3.6,9.5,7.1c2.1,3.6,2.7,7.9,1.7,11.9l-23.9,53.5l0.3,32c0,2.3-1.4,4.4-3.6,5.2l-8,3
	C198.2,281,197.6,281.1,196.9,281.1z"/>
<path class="st4" d="M311.5,287.6c-5.5-0.6-9.5-5.6-8.8-11.1c0.1-0.6,0.2-1.2,0.4-1.7l-29-20.9l17.4-6.6l24.9,20.8
	c5.2,1.9,7.9,7.8,5.9,13C320.5,285.5,316.1,288.1,311.5,287.6L311.5,287.6z"/>
<path d="M296.3,272.3c-0.9,0-1.7-0.2-2.5-0.6L264.4,257c-10.3-5.1-18.3-13.8-22.7-24.5l-14-34.2c-4.8-7-3-16.6,3.9-21.4
	c3.4-2.4,7.5-3.3,11.6-2.5c4.1,0.7,7.7,3.1,10.1,6.5l24.9,53l24.5,20.7c1.8,1.5,2.4,3.9,1.6,6.1l-3,8c-0.4,1.1-1.1,2-2,2.6
	C298.5,272,297.4,272.3,296.3,272.3z"/>
<path class="st5" d="M238.1,161.3c1.3,0.6,4-9.8,2.8-11.9c-1.8-3.1-1.7-3.1-2.9-5.1s-1.4-4.8,0.1-6.6s5.1-1.6,5.8,0.7
	c-0.4-4.3,3.8-7.7,8-8.7s8.6-0.4,12.9-1.2c4.9-1,10-5.1,8-10.5c-0.3-0.9-0.8-1.7-1.5-2.4c-2.3-2.5-5.4-3.6-8.5-4.7
	c-6.4-2.2-13-4.4-19.8-4.2c-11.4,0.6-21.4,7.9-25.4,18.6c-0.5,1.3-0.8,2.7-1.1,4c-2.3,12.5,4.9,24.9,16.8,29.6L238.1,161.3z"/>
<polygon class="st6" points="209.1,273.3 209.6,240.4 227.1,205.3 213.1,241.3 "/>
<path class="st0" d="M367.2,356l-73.6-30.6c-3.3-1.3-5.7-4.1-6.7-7.5l0,0c-1-3.4-0.3-7.2,1.8-10c18.6-25.6,30.9-55.2,35.9-86.5
	c0.6-3.5,2.7-6.6,5.8-8.4c3.1-1.7,6.8-1.9,10.1-0.6l73.6,30.6c5.2,2.2,8.1,7.9,6.8,13.4c-8.2,33.5-21.5,65.5-39.5,95
	C378.6,356.2,372.5,358.1,367.2,356z"/>
<path class="st1" d="M338.3,217.9c-1.6-0.7-3.3-0.6-4.8,0.3c-1.5,0.8-2.6,2.4-2.8,4.1c-5.2,32.2-17.9,62.7-37,89.1
	c-1,1.4-1.4,3.2-0.9,4.9l0,0c0.5,1.6,1.6,3,3.2,3.6l73.6,30.6c2.5,1,5.4,0.1,6.9-2.2c17.6-28.9,30.7-60.4,38.8-93.3
	c0.6-2.7-0.8-5.4-3.3-6.4L338.3,217.9z"/>
<path d="M377.5,286L338.8,270c-3.1-1.3-4.5-4.8-3.2-7.8l0.9-2.2c1.3-3.1,4.8-4.5,7.8-3.2l38.6,16.1c3.1,1.3,4.5,4.8,3.2,7.8
	l-0.9,2.2C384,285.9,380.5,287.3,377.5,286z"/>
<path d="M366.1,313.4l-38.6-16.1c-3.1-1.3-4.5-4.8-3.2-7.8l0.9-2.2c1.3-3.1,4.8-4.5,7.8-3.2l38.6,16.1c3.1,1.3,4.5,4.8,3.2,7.8
	l-0.9,2.2C372.7,313.2,369.2,314.7,366.1,313.4z"/>
<path class="st3" d="M392.9,247.6c-0.6,0-1.2-0.1-1.7-0.3l-38.9-15.7c-2.3-0.9-3.4-3.6-2.5-5.9l3-7.4c0.9-2.3,3.6-3.4,5.9-2.5
	l38.9,15.7c2.3,0.9,3.4,3.6,2.5,5.9l-3,7.4C396.4,246.5,394.8,247.6,392.9,247.6z"/>
<path class="st3" d="M311.2,483.5h-140c-0.6,0-1-0.4-1-1s0.4-1,1-1h140c0.6,0,1,0.4,1,1S311.7,483.5,311.2,483.5z"/>
</svg>
