<?xml version="1.0" encoding="utf-8"?>
<!-- Generator: Adobe Illustrator 27.0.0, SVG Export Plug-In . SVG Version: 6.00 Build 0)  -->
<svg version="1.1" id="图层_1" xmlns="http://www.w3.org/2000/svg" xmlns:xlink="http://www.w3.org/1999/xlink" x="0px" y="0px"
	 viewBox="0 0 1121 599.8" style="enable-background:new 0 0 1121 599.8;" xml:space="preserve">
<style type="text/css">
	.st0{fill:#E5E5E5;}
	.st1{fill:#CBCBCB;}
	.st2{fill:#FFB7B7;}
	.st3{fill:#2F2E41;}
	.st4{opacity:0.1;enable-background:new    ;}
	.st5{fill:#F1F1F1;}
	.st6{opacity:0.17;fill:#2F2E41;enable-background:new    ;}
</style>
<path class="st0" d="M827.3,480.5l-52.7-78.3c0,0,79.8,27.9,70.7,78.3H827.3z"/>
<path class="st0" d="M281.2,481l-2,0c0.8-22.2,3.1-44.4,7.1-66.3c8.6-46.9,23-77.7,42.7-91.5l1.1,1.6
	C284.1,357.2,281.2,479.8,281.2,481z"/>
<path class="st0" d="M306.2,480.5l-2,0c0-2.2,1.3-54.4,21.8-68.8l1.1,1.6C307.4,427.1,306.2,480,306.2,480.5z"/>
<circle cx="341.5" cy="315" r="10"/>
<circle cx="336.6" cy="401" r="10"/>
<path class="st0" d="M301.5,331c1.9,12-3,22.7-3,22.7s-7.9-8.7-9.8-20.7s3-22.7,3-22.7S299.6,319,301.5,331z"/>
<path class="st0" d="M334.2,360.1c-11.5,3.9-22.9,1-22.9,1s7.2-9.3,18.7-13.3s22.9-1,22.9-1S345.7,356.2,334.2,360.1z"/>
<path class="st0" d="M334.6,436.3c-5.2,1.6-10.7,1.9-16.1,0.7c6.9-8.8,18.3-12.7,29.2-10C344.2,431.2,339.7,434.4,334.6,436.3z"/>
<path class="st1" d="M884,482.5H237c-0.6,0-1-0.4-1-1s0.4-1,1-1h647c0.6,0,1,0.4,1,1S884.6,482.5,884,482.5z"/>
<polygon class="st2" points="645.8,528.6 637.6,549.9 551.6,528.5 563.7,497 "/>
<path class="st3" d="M668.5,531.1l-26.4,68.7l-0.9-0.3c-14.8-5.7-22.1-22.2-16.5-37l0,0l16.1-41.9L668.5,531.1z"/>
<path class="st0" d="M515.1,262l-37.5,3.5L475.7,377c1,11.4,11,19.8,22.4,19l23.8-1.6L515.1,262z"/>
<path class="st0" d="M647.2,256.5l-25.7-0.3l-1.5,132.5l0,0c22.8,0.8,41.9-17.1,42.6-39.9c0-1,0-2,0-3L647.2,256.5z"/>
<path class="st3" d="M498.4,435.8c-0.6,3.8-1.5,7.6-2.6,11.4c-1.3,3.6-3.3,7-4.5,10.7c-3.8,11.7,1.5,24.8,9.8,33.8
	c7.2,7.8,16.6,13.4,26.9,16c7.5,1.9,15.4,2.2,23.1,2.4c21.5,0.7,43.6,1.4,63.9-5.5c6.4-2.2,12.7-5.1,18.6-8.4
	c1.9-0.9,3.5-2.2,4.8-3.8c1.6-2.2,1.8-5.1,1.7-7.8c0-9.1-1.9-18.2-1.5-27.3c0.2-5,1.2-10.1,0.7-15.1c-1.3-11.7-9.8-21.3-21.3-24
	c-5.8-1.2-11.8-0.6-17.7,0c-15.3,1.5-30.6,2.2-46,2.1c-15.7-0.1-31.3-2.5-46.9-2.7c-4.6-0.1-4.5,1.3-6,5.8
	C500.4,427.4,499.3,431.5,498.4,435.8z"/>
<path class="st3" d="M437.1,428.4c-4.2-1.1-8.6-1.5-12.9-1.4c-17.8,1-31.4,16.2-30.4,33.9c0.1,1.4,0.2,2.7,0.5,4
	c1.1,4.9,2.8,9.6,5.1,14c3.4,6.9,7.5,13.9,13.9,18.3c3.7,2.6,8,4.2,12.2,5.8l33.4,12.6c4.9,1.8,9.8,3.7,14.8,5.4
	c24.9,8.6,50.9,13.8,77.2,15.3c8,0.5,16.1,0.6,24-1.2c1.9-0.4,3.8-1.1,4.9-2.7c0.6-1.1,1-2.3,1.1-3.6l2.1-14.4
	c0.3-2,0.6-4.2-0.2-6.1c-0.9-2.4-3.3-3.9-5.5-5.2c-21.9-12.6-47.6-19.6-66-36.8c-4.3-4.1-8-10.5-13.3-13.3c-6-3.1-13-4.9-19.2-7.8
	C465.1,439,451.8,431.8,437.1,428.4z"/>
<path class="st4" d="M470.4,447.8c11.8,3.7,61.6,29.3,70.1,38.2c-1.1,0.4-40-21.3-41.1-21.7c-10.6-3.2-21.2-6.4-31.3-11
	c-2-0.9-13.1-5.3-12.6-7.9C456,442.5,468.3,447.1,470.4,447.8z"/>
<path class="st0" d="M541.6,224.5l-31.8,24.1c0,0-33.5,1-32.4,22.5S492,393.9,492,393.9l2.9,34.9l55.2,15.7
	c29.8,8.5,61.3,9.2,91.5,2l0,0l-6.6-35c0,0,26.6-159,10.6-166s-26-5-26-5L599.5,223L541.6,224.5z"/>
<path class="st3" d="M635.6,185.6c0,31.3-28.9,26.6-64.6,26.6s-64.6,4.7-64.6-26.6s14.1-86.8,64.6-86.8
	C623.2,98.8,635.6,154.3,635.6,185.6z"/>
<ellipse transform="matrix(0.7071 -0.7071 0.7071 0.7071 51.1 454.1735)" class="st2" cx="573.8" cy="165.4" rx="43.5" ry="43.5"/>
<path class="st3" d="M520.5,164.3L520.5,164.3h17.2l7.6-21.3l1.5,21.3h8.2l4.4-12.4l0.9,12.4h61.1l0,0c0-25.4-20.6-46-46-46
	c0,0,0,0,0,0h-8.9C541.1,118.3,520.5,138.9,520.5,164.3L520.5,164.3z"/>
<rect x="527.6" y="229.5" width="87" height="105"/>
<polygon class="st2" points="532.4,527.6 540.6,548.9 626.6,527.5 614.5,496 "/>
<path class="st3" d="M537.2,519.5l16.1,41.9l0,0c5.7,14.8-1.7,31.3-16.5,37l-0.9,0.3l-26.4-68.7L537.2,519.5z"/>
<path class="st3" d="M704.3,420.2c6.9-1.7,14.1-2.2,21.2-1.4c5.7,0.6,11.5,2.2,15.6,6.1c5,4.8,6.6,12.1,6.8,19.1
	c0.2,13.8-4.4,27.2-12.9,38c-2.1,2.7-4.6,5.1-7.4,7.1c-3,1.9-6.3,3.5-9.6,4.6l-74.7,29.5c-19.7,7.8-39.4,15.5-59.9,20.6
	c-2.3,1.1-5.1,0.1-6.2-2.2c0,0,0-0.1,0-0.1c-6.5-9.4-12-19.4-16.4-30c-0.7-0.9-0.6-2.1,0.3-2.8c0.2-0.1,0.4-0.3,0.6-0.3l52.9-30.4
	c3.8-2.2,7.6-4.4,10.8-7.4c2.3-2.2,4.2-4.8,5.5-7.7c1.1-2.3,1.2-7.7,2.6-9.4c1.4-1.7,6.1-1.8,8.2-2.4c3.1-0.9,6-2.1,9-3.4
	c11.8-5.3,22.4-13,33.7-19.2C690.5,425,697.3,422.2,704.3,420.2z"/>
<path class="st4" d="M674.4,442.9c-9.1,6.8-20.8,13.1-29.8,20.1c-3.1,2.4-54.3,31.2-55,35c8.4,1.4,61.9-36,69.5-39.7
	s14.4-9,21.2-14.2c1.7-1.3,9-5.3,4.1-6.8C681.5,436.4,676.4,441.5,674.4,442.9z"/>
<circle class="st5" cx="837.6" cy="148.5" r="31.2"/>
<circle class="st5" cx="779.8" cy="163.4" r="21.9"/>
<circle class="st5" cx="378.2" cy="153.4" r="17.6"/>
<circle class="st5" cx="407.2" cy="170.5" r="12.3"/>
<circle class="st5" cx="577.7" cy="13.4" r="13.4"/>
<path class="st6" d="M497.6,296.5l1.2-9.3c0,0,44.8,3.3,37.8,14.3s-24,12-24,12L497.6,296.5z"/>
<path class="st2" d="M531.4,256.2c5.2,0.6,9.9,3.4,12.7,7.8l0,0c5.3,8.1,3,18.9-5.1,24.2c-0.2,0.1-0.4,0.3-0.6,0.4
	c-0.7,0.4-1.5,0.8-2.3,1.1l-27.5,84.2c-3.3,7-11.7,9.9-18.7,6.6s-9.9-11.7-6.6-18.7c0,0,0-0.1,0.1-0.1l29.3-83.3
	c-2.7-9.3,2.7-18.9,11.9-21.6C526.8,256.1,529.1,255.9,531.4,256.2z"/>
<path class="st0" d="M498,288c0,0,15.8,27,38.6,13.5l-22.1,84.6h-18.6l-19.3-3.6l5.4-35L498,288z"/>
<path class="st0" d="M610.7,306.4l-13.1-17.9c0,0,6.3-18.6,30.6-11.8C628.2,276.7,643.7,311.4,610.7,306.4z"/>
<path class="st6" d="M610.7,306.4l-13.1-17.9c0,0,6.3-18.6,30.6-11.8C628.2,276.7,643.7,311.4,610.7,306.4z"/>
<path class="st2" d="M614.1,243.8c7.8,3.6,11.8,12.4,9.3,20.6l29.3,83.3c3.4,6.9,0.6,15.3-6.4,18.7c-6.9,3.4-15.3,0.6-18.7-6.4
	c0,0,0-0.1-0.1-0.1L600,275.7c-0.8-0.3-1.6-0.7-2.3-1.1c-8.3-4.9-11-15.7-6.1-24c0.1-0.2,0.2-0.4,0.4-0.6l0,0
	c2.9-4.4,7.5-7.2,12.7-7.8C608,241.8,611.2,242.4,614.1,243.8z"/>
<path class="st0" d="M597.6,288.5c0,0,21.6,13.1,30.6-11.8l30.4,80l-9,15.8l-1.3,0.1c-10.9,0.9-21.6-3.6-28.6-12.1l0,0
	c-7-8.5-11.8-18.7-13.9-29.5L597.6,288.5z"/>
</svg>
