<?xml version="1.0" encoding="utf-8"?>
<!-- Generator: Adobe Illustrator 27.0.0, SVG Export Plug-In . SVG Version: 6.00 Build 0)  -->
<svg version="1.1" id="图层_1" xmlns="http://www.w3.org/2000/svg" xmlns:xlink="http://www.w3.org/1999/xlink" x="0px" y="0px"
	 viewBox="0 0 1021.5 433.6" style="enable-background:new 0 0 1021.5 433.6;" xml:space="preserve">
<style type="text/css">
	.st0{fill:#FFFFFF;}
	.st1{fill:#3F3D56;}
	.st2{fill:#CACACA;}
	.st3{fill:#FFB6B6;}
	.st4{fill:#2F2E41;}
</style>
<rect x="458.3" y="76.5" class="st0" width="30.1" height="30.1"/>
<rect x="409.8" y="76.5" class="st0" width="30.1" height="30.1"/>
<rect x="361.2" y="76.5" class="st0" width="30.1" height="30.1"/>
<rect x="457.4" y="145.1" class="st0" width="30.1" height="30.1"/>
<rect x="408.9" y="145.1" class="st0" width="30.1" height="30.1"/>
<rect x="360.4" y="145.1" class="st0" width="30.1" height="30.1"/>
<rect x="459.4" y="239.9" class="st0" width="30.1" height="30.1"/>
<rect x="410.8" y="239.9" class="st0" width="30.1" height="30.1"/>
<rect x="362.3" y="239.9" class="st0" width="30.1" height="30.1"/>
<rect x="458.5" y="308.5" class="st0" width="30.1" height="30.1"/>
<rect x="410" y="308.5" class="st0" width="30.1" height="30.1"/>
<rect x="361.5" y="308.5" class="st0" width="30.1" height="30.1"/>
<rect x="457.7" y="377.1" class="st0" width="30.1" height="11.8"/>
<rect x="409.2" y="377.1" class="st0" width="30.1" height="11.8"/>
<rect x="360.6" y="377.1" class="st0" width="30.1" height="11.8"/>
<rect x="207.6" y="308.5" class="st0" width="30.1" height="30.1"/>
<rect x="167" y="308.5" class="st0" width="22.2" height="30.1"/>
<rect x="206.7" y="377.1" class="st0" width="30.1" height="11.8"/>
<path class="st0" d="M169.8,377.1c3.1,5.7,8.5,9.8,14.9,11.3c1.2,0.3,2.4,0.4,3.7,0.5v-11.8L169.8,377.1z"/>
<path class="st1" d="M860,283.7v82.5c0,3.8-1,7.5-2.8,10.8l-1.6-1.3l-3-2.5L836,359.3l4.1,17.1l-4.9,0.3l-0.4,0l-8.8,0.5l-7.7,0.4h0
	l-11,0.6l-10.8,0.6l-3.6,0.2l-22.9,1.2l-9.8,0.5l-4.4,0.2l-11.7,0.6l-15.7,0.8l-2.9,0.2l-46,2.5l-29.3,1.6l-4.5,0.2l-0.3,0l-1.8,0.1
	h0l-4,0.2l-5.8,0.3l-9.3,0.5l-4.1,0.2l-11.9,0.7l-11.5,0.6l-10.8-0.6l-34.9-2l-22.6-1.3l-0.7,0l-40.1-2.3l-30.1-1.7l-18.4-1
	l-30.1-1.7l-13.9-0.8l-4.5-0.3l-11.1-0.6l-50.8-2.9l-3.8-0.2l-0.2,0l-18.4-1l-11.5-0.7l24.1-22.4l0.3-0.3l9.4-8.7
	c6.8-12.2,13.3-24.4,32.6-30.3l2.1-2l29.1-27l5-0.1l130.3-1.7l19.7-0.3l40.3-0.5l14.6-0.2l10.8,0.6l93.5,5.5l6.1,0.4L744,287
	l28.8,1.7l13.7,0.8l3.3,0.2l0.2,0l1.7,0.1l4.5-0.4l5.5-0.5l2-0.2l0.9-0.1l19.7-1.7l1.7-0.1l4.7-0.4l27.3,37.6L860,283.7z"/>
<path class="st0" d="M754.5,372.9c-13.9-20.1-24-71-20-92c-0.2-0.7,8.1,10.8,8.1,10.1c0.1-3.5,2.6-6.3,5.6-6.1l37.4,2
	c1.9,0.2,3.5,1.3,4.3,3l28.2,54.1c0.4,0.9,0.7,1.8,0.8,2.8c0.3,3.5-1.9,6.6-4.9,7l-50.1,5.5c-0.2,0-0.3,0-0.5,0
	C761.1,359.3,755.2,375.6,754.5,372.9z"/>
<path class="st0" d="M595.4,372.7l0.4,2l1.4,7.7c0.3,1.6,0.7,3.1,1.3,4.5c0.2,0.5,0.4,0.9,0.6,1.3c0.1,0.2,0.2,0.4,0.3,0.7H702l17-2
	l0.2,0c3.5-0.5,6.8-2.1,9.3-4.6c4.2-4.2,6.6-10,6.6-15.9c0-0.8,0-1.7-0.1-2.5c-0.1-1.2-0.3-2.3-0.5-3.5c1.9-21.7-3.1-43-14.7-63.6
	c-1-4.4-3.3-8.4-6.7-11.4c-2.8-2.5-6.3-3.9-10-4.1l-82.8-3.4c-3.2-0.1-6.3,0.7-8.9,2.4c-5.1,3.1-8.8,9.1-9.5,16.2
	c-7,22.4-9.3,45.9-6.8,69.3C594.9,368.1,595,370.5,595.4,372.7z"/>
<path class="st0" d="M565.1,382.9l-212.7-6.2c-2.7-0.1-42.2,15.5-44.1,13.1c-4.2-5.3-4.3-14.1-0.2-19.5l92.9-92.2
	c1.7-2.5,4.6-4.1,7.6-4.2h171.2c0.8,0,1.6,0.1,2.4,0.4c5.7,1.7,9.3,9.1,7.9,16.6l-14.4,81.4c-1.1,6.3-5.4,10.7-10.3,10.7
	C565.3,382.9,565.2,382.9,565.1,382.9z"/>
<path d="M787.5,293.3l-180.8-12.5l-214,0.7c26.3-27.8,142.1-61.8,266-20.8c124,4.2,133,29.1,133,29.1l1.5,2.4L787.5,293.3z"/>
<path d="M859.1,372.5c-0.5,1.6-1.1,3.1-1.9,4.6c-1.2,2.2-2.8,4.2-4.7,6c-0.1,0.1-0.3,0.2-0.4,0.4c-1.7,1.5-3.6,2.7-5.7,3.6
	c-0.9,0.4-1.9,0.8-2.8,1c-0.6,0.2-1.3,0.3-2,0.5c-0.9,0.2-1.8,0.3-2.7,0.3c-0.5,0-1,0.1-1.6,0.1H608.5l-11.5,0.6l-10.8-0.6H189.7
	c-0.5,0-0.9,0-1.4,0c-1.2-0.1-2.5-0.2-3.7-0.5l3.7-0.5l6.1-0.9l12.3-1.8l30.1-4.4l11.7-1.7l28.4-4.2l4.8-0.7l13.2-1.9l11.7,0.2
	l17.9,0.4h0.2l4.1,0.1l27.2,0.5l10,0.2l73.3,1.5l6.7,0.1l10,0.2l31.8,0.6l40.1,0.8l2.7,0l43,0.9l0.6,0l21.9-1.5l21.5-1.5l16.2-1.1
	l5.2-0.4l0.2,0l1.2-0.1l0.8-0.1l6.4-0.5l23.9-1.7l10.6-0.8l4.6-0.3l4.8-0.3l43.8-3.1l12.2-0.9h0l6.7-0.5l12.2-0.9h0l12.6-0.9h0
	l4.9-0.3l1.9-0.1l14.2-1l8.6-0.6l14.8-1l4.6-0.3l6.1-0.4l1.7-0.1l0.3,0c0,0,5.1,0.1,11.8,3.8c2.1,1.2,4.1,2.6,6,4.1
	c1.3,1.1,2.5,2.2,3.7,3.4C858.1,371.3,858.6,371.9,859.1,372.5z"/>
<polygon class="st2" points="632.4,388.9 647.9,388.9 646.5,387.6 645.8,386.9 645.8,386.9 642.5,383.9 639.9,381.5 637.8,383.6 
	636.9,384.4 634.4,386.9 633.8,387.6 "/>
<path class="st3" d="M717.4,388.9h23.8l3.7-2l11-6l2.6-1.4l20.4-16.2h0l5.1-4.1l2.7-2.1l3.3-2.6l16.2-12.9c0.4-0.4,0.9-0.8,1.2-1.2
	c1.8-2,2.7-4.7,2.4-7.4c0-0.1,0-0.2,0-0.3c-0.4-3-2.1-5.6-4.6-7.2c-3.6-2.2-8.3-1.9-11.5,0.9l-11.9,10l-4.8,4l-18.4,15.5l-11.2,9.4
	h0l-2.1,1.8l-19.7,15.2l-5.6,4.3L717.4,388.9z"/>
<path d="M800,353.8L800,353.8c1.3,0.2,2.5-0.5,3.1-1.7c0.3-0.7,0.9-1.3,1.5-1.7c0.1-0.1,0.3-0.1,0.4-0.2c1.7-0.7,3-2.1,3.5-3.9
	c0.7-2.9,2.9-5.8,5.2-7.9c2.5-2.4,5.1-4.7,6.9-7.6c2.6-4.2,3.4-10.1-1.7-13.6c-2.2-1.5-4.8-2.1-7.4-1.9c-5.5,0.4-10,3.8-14.3,7
	l1.1-2.1c-4.6,3.6-10,6.3-15.6,7.8c1,0.9,0.1,2.7-1.1,3.1c-1.3,0.4-2.6,0-3.9-0.3c-1.6-0.3-3.7-0.3-4.3,1.6c-0.3,1-0.2,2,0.3,2.8
	c4.6,8.1,10.8,15.2,18.2,20.8c1.7,1.2,3.6,2.5,5.6,2.2S801.2,355.4,800,353.8z"/>
<path class="st3" d="M795.4,370.4l1.1,8.4l1,8.2l0.1,0.9l0.2,1.1h39.5c0.5,0,1,0,1.6-0.1c0.9-0.1,1.8-0.2,2.7-0.3l0.5-2.1l0.3-1.3
	l-16.5-5.2l-7.4-2.3h0l-10.8-3.4L795.4,370.4z"/>
<path class="st4" d="M780.1,350.6c0.8,1.8,1.9,4.2,3.1,6.9c0.3,0.6,0.5,1.2,0.8,1.8c0.5,1.2,1.1,2.4,1.6,3.6
	c2.5,5.5,5.2,11.4,7.3,16.1c1.8,3.9,3.1,6.9,3.6,8c0.2,0.3,0.2,0.5,0.2,0.5l0.9,0.4l2.6,1.1h37c0.5,0,1,0,1.6-0.1
	c0.9-0.1,1.8-0.2,2.7-0.3c0.7-0.1,1.3-0.3,2-0.5c1-0.3,1.9-0.6,2.8-1c2.1-0.9,4-2.1,5.7-3.6c0.1-0.7,0.2-1.8,0.4-3.2
	c0.3-2,0.4-4,0.4-6.1c0-1.6-4-4.3-5.1-11c-0.4-2.5-0.4-5,0-7.4c2.1-15.2,1.3-38.4-13.3-43L824,294.4H804l-3.3,9.6v0l-1.9,5.5
	l-1.1,3.3l-0.2,0.3l-7.2,9.4c0,0-1.1,1.5-2.7,3.7v0c-2.3,3.3-4.2,6.7-5.8,10.4c-1.1,2.3-1.8,4.8-2.3,7.3
	C779,346.2,779.2,348.5,780.1,350.6z"/>
<path class="st4" d="M822.4,275.8c-14.7,11.2-31.2,20.1-34.3,32.5c0,0,1.9-19.4-6.8-15.7c-14.5,6.2-9.6-27.4-5.5-32.9
	c6.8-9.2,29.7-14.4,29.7-14.4l16.2,8.9L822.4,275.8z"/>
<circle class="st3" cx="796.7" cy="263.9" r="25.5"/>
<path class="st4" d="M805.9,254.2l1,4.3l-17.1,3.9c0-1.8-0.8-3.4-2.1-4.6c0.4,1.7,0.3,3.4-0.1,5.1c-9.2,5.2-8.7,7-16.2,5.7
	c-2.1,0.5-4.2-0.8-4.7-2.9c0,0,0,0,0,0l0,0c-3-13.2-4-26.7,9.1-30c13.2-3.3,26.7,4.7,30,18C805.8,253.9,805.8,254,805.9,254.2
	L805.9,254.2z"/>
<path class="st4" d="M801.7,271.4c-3.1-13.7-16.8-22.3-30.5-19.2c-1.6,0.4-3.2,0.9-4.8,1.6c1.2-3.5,3.6-6.5,6.8-8.4l19.3-8.4
	c9.5-2.2,24.6-8.3,31.4-2.4c6.3,5.4,3.2,16,9.1,21.9c6.4,6.5,6.9,14.2,5.1,18.6c-2.1,5.1-6.3,12.1-11.5,13.6
	c-0.3-1.8-1.2-3.4-2.5-4.6c0.4,1.7,0.4,3.5,0.1,5.2l-31.7,25.3c3-2.6,5.5-9.2,7.2-16.7c1-4.4,7.2-6,2.2-13.5
	S802.4,274.3,801.7,271.4z"/>
<path class="st4" d="M827.1,243.2l-0.1,0.2c-0.1,0.2-0.2,0.5-0.3,0.7l0,0c-0.5,0.2-1-0.1-1.6-0.6c0.1,1.1,0.1,2.1,0.2,3.1l-16.9-6.6
	c2.9,0.5,3.4-9.9,5.5-7.9c0.1,0.1,0.2,0.2,0.3,0.3c-0.3-0.6-0.4-1.3-0.5-2c-0.1-0.8,0-1.7,0.2-2.5c0,0,0,0,0,0
	c0.2-0.7,0.5-1.5,1-2.1c0.6-0.9,1.4-1.7,2.3-2.4c2.4-1.8,5.4-2.4,8.3-1.5c3.2,1.2,5.9,3.6,7.5,6.6c1.5,2.3,2.2,5.1,2.1,7.8
	c-0.1,0.7-0.2,1.4-0.5,2.1c-0.6,1.9-2.1,3.5-4,4.2c-0.2,0.1-0.5,0.2-0.8,0.3c-0.2-1.3-0.2-2.6,0-3.9
	C828.7,240.3,827.8,241.7,827.1,243.2z"/>
<path d="M810.7,239.4c0,0.6,0.1,1.1,0.2,1.6c0,0.1,0,0.1,0,0.2c0.7,3.1,4.4-3.3,7.3-1.2c1.8,1.3,3.8,2.3,5.9,3c0.1-0.2,0.9,0.2,1,0
	c0-0.1,0-0.9,0-1c-1.8-0.7-3.5-1.7-4.9-3c-2.7-2-2.3-0.1-3-3c-0.7-3.3-5-1.9-2.8-3.4l-0.3-0.4c-1.6,1.1-2.7,2.7-3.3,4.5c0,0,0,0,0,0
	C810.8,237.7,810.7,238.5,810.7,239.4z"/>
<path class="st3" d="M806.5,388.9h18.3l0.2-2l0.7-7l0.3-2.8l1.2-12l0.5-5.2l1.2-11.5l0.4-3.9c0.5-5.3-3.3-10.1-8.7-10.8
	c-0.4,0-0.7-0.1-1.1-0.1h0c-0.5,0-0.9,0-1.4,0.1c-2.3,0.3-4.4,1.5-6,3.2c-1.5,1.6-2.3,3.7-2.5,5.9l0,0.2v0l-0.9,12l-0.5,6.2
	l-0.2,3.4l-0.7,9.5l-0.3,4l-0.6,8.8L806.5,388.9z"/>
<path d="M833.7,357.4L833.7,357.4c1-0.8,1.4-2.2,0.9-3.4c-0.3-0.7-0.3-1.5-0.1-2.3c0-0.1,0.1-0.3,0.1-0.4c0.7-1.7,0.6-3.7-0.4-5.2
	c-1.6-2.5-2.1-6.1-2.1-9.3c0-3.4,0.2-6.9-0.6-10.3c-1.2-4.8-4.9-9.5-10.9-8.3c-2.6,0.5-4.9,2-6.5,4c-3.5,4.2-4.3,9.8-5,15.1
	l-0.8-2.2c-0.6,5.8-2.5,11.5-5.3,16.6c1.3-0.1,2,1.8,1.4,3s-1.8,1.9-3,2.6c-1.4,0.9-2.8,2.4-1.8,4.2c0.5,0.9,1.3,1.5,2.3,1.7
	c9,2.4,18.4,2.9,27.6,1.5c2-0.3,4.3-0.8,5.5-2.5S835.8,357.7,833.7,357.4z"/>
<path class="st2" d="M639,378.3L639,378.3c0,5.9,4.8,10.6,10.6,10.6h21.8c5.9,0,10.6-4.8,10.6-10.6v-8.1c0-5.9-4.8-10.6-10.6-10.6
	c-1.3,0-2.5,0.2-3.7,0.7l-21.8,8.1C641.8,369.9,639,373.9,639,378.3z"/>
<g>
	<path d="M464.7,111.8c0.8,0.6,2.8,1.5,6,2.8c4.4,3.8,6.7,6.5,7.1,8.3c-1.1,1.5-1.7,2.9-1.7,4.2c-0.3,3.1-0.6,9-0.9,17.8
		c0.1,1.1,0.2,2.5,0.2,4.1v5.1h0.2c6.2-2.2,9.9-3.3,11.1-3.3c3.8,1.7,5.7,2.7,5.7,3c0.2,0.3,0.3,0.6,0.3,0.9v0.2
		c-0.1,0.4-0.7,0.8-1.7,1.2c-1.3-0.4-2.6-0.7-3.9-0.7c-1.9,0-5.4,0.4-10.4,1.1H476c-0.3,0.1-0.5,0.3-0.5,0.5v20.7
		c0,2.3,0.2,8.8,0.5,19.5c0,3.8-0.9,8.1-2.8,13.1h-0.4v-0.9c-1.1-6.6-1.6-12.3-1.6-17.2c0-2.3,0.1-6.5,0.2-12.7
		c-0.6-11-0.9-18.1-0.9-21.2c-0.3-0.1-0.5-0.2-0.7-0.2c-4.9,0.9-10.8,2.6-17.8,5.1c-1.1,0.3-2.2,0.4-3.3,0.4c-0.1,0-1.1-0.4-3-1.2
		c-0.8,1.3-1.9,1.9-3.2,1.9c-1.7,0-3.6-1.3-5.8-3.9c-1.6-0.6-2.7-0.9-3.3-0.9h-0.2v15.5c0,4-0.1,9.1-0.2,15.4c0.1,0.7,0.2,2,0.2,4
		c-0.8,0.7-1.5,1.1-2.1,1.1c-1.5-0.9-4.4-2.2-8.8-3.7c-4.8-2.8-8.7-6.8-11.8-12c-0.9-2.1-1.4-3.8-1.4-5.1v-0.4h-0.2
		c-4.5,4.3-7.8,6.5-9.9,6.5c-2-0.2-3-1-3-2.3v-0.3l4.9-2.3c15.9-16.2,24.4-25.4,25.4-27.8v-0.7H426c-8.2,2.4-14.8,4.9-19.9,7.6
		c-0.5,0.8-1.4,1.2-2.5,1.2c-3.6-1.2-6.2-3.2-7.8-6.1l-0.5-1.4c0.1,0,0.2-0.1,0.2-0.2c1.8,0.4,3,0.7,3.7,0.7
		c16.1-2.8,25.8-5.3,29.1-7.4v-0.2c0-1.9,0.2-5.3,0.7-10.2l-14.3,4.9c-1.7,0.4-2.8,0.7-3.3,0.7V137c0.9-1.1,6.3-4.8,16.2-10.9
		c4.3-3,7-5.4,8.1-7.1v-0.5c-0.6-1.8-0.9-2.9-0.9-3v-0.2c3.3,1.4,5.4,2.7,6.4,3.9c2.8,2.6,4.3,4.7,4.6,6.2c0,1.4-0.8,2.1-2.3,2.1
		c-0.4,0-1.7-0.5-3.7-1.4h-0.2c-2.8,2-4.1,3.9-4.1,5.8c-0.6,2.1-1.1,5.2-1.4,9.3c0.3,0,0.5,0.1,0.5,0.2c4.7-0.6,7.3-1.1,7.9-1.4
		c1.3,1.1,3.2,1.9,5.5,2.6c0.6,0.8,0.9,1.4,0.9,1.6c0,0.9-0.6,1.4-1.8,1.5c-0.1,0-0.9-0.2-2.3-0.7c-7.7,0-11.6,0.5-11.6,1.4v0.2
		c0,1-0.1,3.6-0.2,7.7c0.2,0,2.5,1.1,6.9,3.2c2.8,1.7,5.5,2.6,8.3,2.6c0.8,0,7.3-1.5,19.4-4.5c1.7,0,2.5-0.2,2.5-0.7
		c-0.8-18-1.4-30.3-1.8-36.9c-2.6-2.8-4-4.8-4-6C464.6,112,464.7,112,464.7,111.8z M409.4,174c1.8,3.9,4.9,7.6,9.2,11.3l0.4,0.3
		c4.9,0,7.4-0.5,7.4-1.4c0.2-10,0.4-19.6,0.8-28.9H427c-3.6,2.8-8.6,8.1-15.2,15.9C410.2,172.8,409.4,173.7,409.4,174z M459.1,141.2
		l5.1,2.5c2.5,0.6,3.7,1.6,3.7,3c0,1.3-1.9,1.9-5.8,1.9c0,0.3-1.1,0.6-3.2,0.9h-0.3c-0.4,0-0.9-0.9-1.4-2.8c-4-0.7-6-2.3-6-4.6
		C453,141.8,455.7,141.5,459.1,141.2z M462.5,125.4c3.1,1.5,4.6,2.4,4.6,2.6c0.2,0,0.3,0.1,0.3,0.2v0.8c0,0.4-1.5,1.1-4.4,2
		c0,0.3-1.5,1.1-4.6,2.3c-4.5-1.1-6.8-3.2-6.8-6.2l0.5-0.3h0.7C453.9,126.8,457.1,126.3,462.5,125.4z"/>
	<path d="M560,121.4h0.4c4.3,1.4,7.2,3.5,8.6,6.3c2.9,2.8,4.4,4.9,4.4,6.3c0.1,0.6,0.2,1.3,0.2,1.9c-1.2,3.3-1.8,9.6-1.8,19V173
		c0,3.2-0.3,10.3-0.9,21.3v2.5c0,2.7-1,4.1-3,4.1h-0.2c-1.2,0-2.8-1.7-5-5c-0.3-1.5-0.5-2.3-0.7-2.3l0.5-3.4l-5.2-6.8h-1.6
		c-10.4,1.2-15.6,2.3-15.6,3.2c0,0.3-0.1,0.9-0.4,1.8c0,0.1,0.1,1.1,0.2,2.9c0,0.8-0.1,2.1-0.2,3.9c0.1,1.4,0.2,2.9,0.2,4.3
		c0,0.8-0.8,1.2-2.3,1.4c-1.7,0-3.2-2-4.5-5.9c1.7-1.3,2.5-7.9,2.5-19.7c0-9.4,0.1-15.2,0.3-17.4c-0.6-14.2-2.2-21.3-4.6-21.3
		c-4.7-0.3-7-1.7-7-4.1c0.4-0.9,1.6-1.3,3.6-1.3c0.3,0,2.1,0.6,5.4,1.8h0.2c6.5,0,15.5-2.6,26.9-7.7V125c-0.3-1.4-0.4-2.6-0.4-3.4
		V121.4z M537.5,137.2c1.8,4.3,2.8,7.7,2.8,10.2h0.2c7.2-0.6,12.3-0.8,15.2-0.8v-0.3c1,0,2.2,0.7,3.6,2v0.2c0,0.8-5.4,2.2-16.3,4.1
		h-2.9v9.8c0,0.2,0.2,0.4,0.7,0.7h0.2c3.1,0,7.2-0.2,12.4-0.7c3.3,0.7,5,1.4,5,2.2c-1,1.9-6.8,3.2-17.2,3.9h-0.7v0.3
		c-0.3,4-0.4,7.3-0.4,9.9v2.3h0.2c6.8-1.7,11.1-2.5,12.9-2.5h0.4c4.7,0.6,7,2.1,7,4.5c0.4,0.7,1,1.4,2,2h0.7
		c0.4-9.9,0.7-18.1,0.7-24.7c0-19.9-0.6-29.9-1.8-29.9c-13.6,2.9-21.8,5.1-24.7,6.6V137.2z"/>
	<path d="M667.3,173h3.8c1.7,0,3.6,0.1,5.7,0.2c0.5-0.1,1.1-0.2,1.8-0.2c4.3,1,6.6,1.4,7.1,1.4v-0.8h0.7c1.5,1.1,3.9,2.3,7.1,3.5
		c1.1,1.3,1.6,2.4,1.6,3.3c-0.3,1.6-1.1,2.4-2.4,2.4c-4.2-2-7.7-3-10.6-3c-5.6-1.2-12.4-1.8-20.4-1.8H661c-7.4,0-17,1.2-28.7,3.6
		l-8.4,3.4c-7.6-1.1-11.4-2.7-11.4-4.9v-0.4c0.1,0,0.3-0.1,0.6-0.2c2.5,0.1,4.6,0.2,6.3,0.2c6.8-1.3,14.6-2.5,23.6-3.4
		C654.7,174.1,662.8,173,667.3,173z M662.8,137.3c2.4,1.5,4.8,2.6,7.1,3.3c0.6,0.7,0.8,1.3,0.8,1.8v0.5c-0.3,0.6-0.9,1-1.8,1.4
		c-0.3,0-0.6-0.1-0.8-0.2c-8.3,0-14.1,0.8-17.5,2.3c-2.9,0.8-5,1.2-6.3,1.2h-1c-2.9,0-4.9-1.4-5.8-4.1c4-0.8,9.9-2.4,17.9-4.9
		C658.7,138.2,661.1,137.8,662.8,137.3z M659.1,155.4c5,1.7,7.7,3,8.2,4c0,2.2-3.2,3.3-9.6,3.3c-5.4,0.8-8.8,1.2-10.2,1.2
		c-2.2,0-4.3-1.4-6.1-4.2v-0.2l0.6-0.4h1.2C650.5,156.6,655.8,155.4,659.1,155.4z"/>
</g>
</svg>
