<?xml version="1.0" encoding="utf-8"?>
<!-- Generator: Adobe Illustrator 27.0.0, SVG Export Plug-In . SVG Version: 6.00 Build 0)  -->
<svg version="1.1" id="图层_1" xmlns="http://www.w3.org/2000/svg" xmlns:xlink="http://www.w3.org/1999/xlink" x="0px" y="0px"
	 viewBox="0 0 1019.1 492.2" style="enable-background:new 0 0 1019.1 492.2;" xml:space="preserve">
<style type="text/css">
	.st0{fill:#F2F2F2;}
	.st1{fill:#E6E6E6;}
	.st2{fill:#A0616A;}
	.st3{fill:#3F3D56;}
	.st4{fill:#2F2E41;}
</style>
<g>
	<path class="st0" d="M316.9,354.8c-0.8-1.4-4.5,0.1-5.2-1.2c-0.7-1.3,2.7-3.2,4.7-7.7c0.3-0.8,2.6-5.9,0.9-7.5
		c-3.1-3-17.2,9.3-22.2,5.3c-1.1-0.9-1.8-2.6-5.1-5.5c-1.3-1.1-2.1-1.7-2.9-1.5c-1.1,0.3-1.2,1.7-2.3,4.6c-1.7,4.3-2.8,4-3.8,7.4
		c-0.8,2.5-0.6,4-1.5,4.3c-1.3,0.4-2.4-2.3-4-2c-1.6,0.2-2.6,3.4-2.9,5.7c-0.6,4.4,1,7.3,1.9,10.4c1,3.3,1.6,8.4-0.7,15.5
		l-22.3,62.8c4.9-12.9,19.2-48.2,25.1-61.3c1.7-3.8,3.6-7.6,7.6-9.1c3.8-1.5,8.9-0.6,15.6-2.2c0.8-0.2,2.9-0.7,3.2-2
		c0.2-1-1-1.6-0.8-2.6c0.3-1.3,2.7-1.3,5.8-2.8c2.1-1.1,3.5-2.3,4.6-3.4C312.9,361.7,318,356.7,316.9,354.8L316.9,354.8z"/>
	<path class="st0" d="M229.3,387.9c-0.9,0-1.2,2.2-2.1,2.2c-0.8,0-0.8-2.3-2.4-4.5c-0.3-0.4-2.2-3-3.4-2.6
		c-2.4,0.7-0.4,11.1-3.8,12.4c-0.7,0.3-1.8,0.1-4.2,0.9c-0.9,0.3-1.4,0.6-1.5,1c-0.2,0.6,0.5,1.1,1.6,2.5c1.6,2.1,1.2,2.5,2.6,4
		c1,1.1,1.8,1.4,1.7,2c-0.2,0.7-1.8,0.5-2.2,1.4c-0.3,0.9,0.9,2.3,2,3.1c2,1.6,3.9,1.6,5.6,2c1.9,0.5,4.6,1.7,7.4,4.8l24.4,29
		c-4.9-6.1-18.1-23.3-22.8-30c-1.4-1.9-2.7-4-2.3-6.3c0.4-2.3,2.3-4.6,3.4-8.3c0.1-0.4,0.5-1.6-0.1-2.1c-0.4-0.4-1.1,0-1.5-0.3
		c-0.6-0.5,0.1-1.7,0.3-3.7c0.1-1.4-0.1-2.4-0.3-3.3C231.4,391.8,230.5,387.9,229.3,387.9L229.3,387.9L229.3,387.9z"/>
	<path class="st0" d="M248.1,392.1l-0.6-5.1l0.3-0.4c1.2-1.8,1.8-3.5,1.8-5.2c0-0.3,0-0.5,0-0.8c0-1.1-0.1-2.4,0.6-3.9
		c0.4-0.9,1.5-2.8,3.1-2.6c0.4,0.1,0.8,0.3,1,0.5c0-0.1,0.1-0.1,0.1-0.2c0.5-0.8,0.9-1.1,1.3-1.4c0.3-0.2,0.6-0.5,1.1-1.1
		c0.2-0.3,0.4-0.5,0.5-0.7c0.4-0.6,1-1.3,1.9-1.3c1,0,1.6,0.9,1.9,1.5c0.6,1,0.9,1.7,1.1,2.2c0.1,0.2,0.1,0.4,0.2,0.4
		c0.3,0.5,3,0,4.1-0.1c2.3-0.4,4.3-0.7,5.1,0.7c0.6,1,0.2,2.4-1.3,4.2c-0.5,0.6-1,1-1.4,1.3c0.4,0.2,0.7,0.5,0.8,1.1l0,0
		c0.3,1.2-0.7,2.5-3.1,3.7c-0.6,0.3-1.4,0.7-2.5,0.9c-0.5,0.1-1,0.1-1.4,0.1c0,0.2-0.1,0.5-0.2,0.8c-0.4,0.8-1.3,1.1-2.6,1
		c-1.4-0.1-2.6-0.4-3.7-0.6c-0.9-0.2-1.7-0.4-2.3-0.3c-1.2,0.1-2,1-3.1,2.2L248.1,392.1L248.1,392.1L248.1,392.1z"/>
	<path class="st0" d="M250.7,361.9l-4.8,1.8l-0.4-0.2c-2-0.7-3.9-0.9-5.5-0.5c-0.3,0.1-0.5,0.1-0.8,0.2c-1,0.3-2.3,0.7-3.9,0.4
		c-0.9-0.2-3.1-0.7-3.3-2.3c-0.1-0.4,0.1-0.8,0.2-1.1c-0.1,0-0.1,0-0.2-0.1c-0.9-0.3-1.3-0.6-1.7-0.9c-0.3-0.2-0.6-0.5-1.3-0.8
		c-0.3-0.1-0.6-0.2-0.8-0.3c-0.7-0.3-1.5-0.6-1.7-1.5c-0.2-1,0.5-1.8,0.9-2.2c0.8-0.9,1.4-1.3,1.9-1.6c0.2-0.1,0.3-0.2,0.4-0.3
		c0.4-0.4-0.7-2.9-1.2-3.9c-0.9-2.1-1.8-4-0.6-5.1c0.9-0.8,2.3-0.8,4.4,0.2c0.6,0.3,1.2,0.7,1.6,1c0.1-0.4,0.4-0.8,0.8-1.1l0,0
		c1.1-0.6,2.6,0.1,4.3,2.1c0.4,0.5,1,1.2,1.5,2.2c0.2,0.5,0.4,0.9,0.5,1.3c0.2-0.1,0.5-0.1,0.8,0c0.9,0.2,1.4,1,1.7,2.3
		c0.3,1.4,0.3,2.6,0.4,3.7c0,0.9,0.1,1.8,0.3,2.3c0.4,1.1,1.5,1.7,2.9,2.4L250.7,361.9L250.7,361.9z"/>
	<path class="st0" d="M248.1,347l-0.6-5.1l0.3-0.4c1.2-1.8,1.8-3.5,1.8-5.2c0-0.3,0-0.5,0-0.8c0-1.1-0.1-2.4,0.6-3.9
		c0.4-0.9,1.5-2.8,3.1-2.6c0.4,0.1,0.8,0.3,1,0.5c0-0.1,0.1-0.1,0.1-0.2c0.5-0.8,0.9-1.1,1.3-1.4c0.3-0.2,0.6-0.5,1.1-1.1
		c0.2-0.3,0.4-0.5,0.5-0.7c0.4-0.6,1-1.3,1.9-1.3c1,0,1.6,0.9,1.9,1.5c0.6,1,0.9,1.7,1.1,2.2c0.1,0.2,0.1,0.4,0.2,0.4
		c0.3,0.5,3,0,4.1-0.1c2.3-0.4,4.3-0.7,5.1,0.7c0.6,1,0.2,2.4-1.3,4.2c-0.5,0.6-1,1-1.4,1.3c0.4,0.2,0.7,0.5,0.8,1.1l0,0
		c0.3,1.2-0.7,2.5-3.1,3.7c-0.6,0.3-1.4,0.7-2.5,0.9c-0.5,0.1-1,0.1-1.4,0.1c0,0.2-0.1,0.5-0.2,0.8c-0.4,0.8-1.3,1.1-2.6,1
		c-1.4-0.1-2.6-0.4-3.7-0.6c-0.9-0.2-1.7-0.4-2.3-0.3c-1.2,0.1-2,1-3.1,2.2L248.1,347L248.1,347L248.1,347z"/>
	<path class="st0" d="M253.2,445.4l-1.1-0.7l-0.3-1.2l0.3,1.2l-1.2,0.1c0-0.1-0.1-0.4-0.2-0.8c-0.6-2.3-2.2-9.2-3.7-20
		c-1-7.6-1.5-15.4-1.7-23.2c-0.1-7.8,0.3-13.7,0.6-18.5c0.2-3.6,0.5-7,0.8-10.3c0.7-8.9,1.4-17.3,0.9-26.5c-0.1-2.1-0.3-6.4-2.9-11
		c-1.5-2.7-3.5-5-6-7l1.6-2c2.8,2.2,5,4.8,6.6,7.8c2.8,5.1,3,9.8,3.2,12.1c0.5,9.4-0.2,17.9-0.9,26.9c-0.3,3.3-0.5,6.7-0.8,10.3
		c-0.3,4.7-0.7,10.6-0.5,18.3c0.1,7.7,0.7,15.4,1.6,22.9c1.4,10.7,3.1,17.5,3.6,19.7C253.5,444.7,253.5,444.9,253.2,445.4
		L253.2,445.4L253.2,445.4z"/>
	<path class="st0" d="M234.2,331.5c-0.1,0-0.2,0-0.3,0c-2.1-0.1-4.1-1.4-5.9-3.8c-0.8-1.1-1.3-2.4-2.1-5c-0.1-0.4-0.8-2.4-1.2-5.2
		c-0.3-1.8-0.2-2.6,0.1-3.2c0.4-0.7,1-1.3,1.8-1.6c0-0.2,0-0.5,0.1-0.7c0.4-1,1.6-0.9,2.2-0.8c0.3,0,0.7,0.1,1.1,0.1
		c0.7,0,1-0.2,1.5-0.5c0.5-0.3,1.2-0.6,2.1-0.8c1.9-0.4,3.4,0.1,3.9,0.3c2.7,0.9,4,3,5.6,5.4c0.3,0.5,1.4,2.3,2.1,4.7
		c0.5,1.8,0.4,2.5,0.3,3.1c-0.3,1.2-1,1.9-2.9,3.4c-1.9,1.6-2.9,2.4-3.7,2.9C237,330.8,235.8,331.5,234.2,331.5
		C234.2,331.5,234.2,331.5,234.2,331.5z"/>
</g>
<path class="st1" d="M794.2,444.2L794.2,444.2c0,0.5-0.4,0.8-0.8,0.8H211.1v-1.7h582.2C793.8,443.4,794.2,443.8,794.2,444.2z"/>
<g>
	<g>
		<path class="st2" d="M626.1,178.7c0,0-31.3,3.8-26.1-21s35.3-70.5,35.3-70.5l17,9.5l-19.5,46.2l8.4,6.6L626.1,178.7L626.1,178.7z"
			/>
		<polygon points="728.8,148.5 724.4,184.9 613.7,184.3 635.9,145.7 		"/>
		
			<ellipse transform="matrix(0.5822 -0.8131 0.8131 0.5822 206.4146 564.0114)" class="st2" cx="652" cy="81.2" rx="21.1" ry="13.6"/>
	</g>
	<rect x="718.1" y="287" class="st3" width="6.8" height="157.6"/>
	<rect x="685.5" y="287" class="st3" width="6.8" height="157.6"/>
	<rect x="502.8" y="187.8" class="st1" width="6.8" height="256.8"/>
	<rect x="612.2" y="287" class="st3" width="6.8" height="157.6"/>
	<rect x="586.2" y="287" class="st3" width="6.8" height="157.6"/>
	<polygon class="st3" points="712,283.6 580.8,283.6 555.7,319.3 686.2,327.1 	"/>
	<g>
		<g>
			<polygon class="st2" points="471.8,161.5 472.4,135.6 393.2,141.7 392.8,159.2 			"/>
			<path class="st4" d="M418.2,138.6l-3.8,9.1l-5.4,0.2c0,0,6.4,2,8.1,13.5l-5.2,1.6c0,0-5,4.7-14.4,4.2l-25.2-2.1l-0.1-8.8l17.4-2
				c0,0,3.9-2.5-15.3-13c0,0-6.4-3.9-0.6-23.1c0.8-2.6,3.2-4.5,5.9-4.6c1.5,0,2.9,0.5,3.5,2.4c1.4,4.8,0,9.6,4,12.6
				C391,131.6,418.2,138.6,418.2,138.6L418.2,138.6z"/>
		</g>
		<path class="st4" d="M702.2,260.5c0,0-27.3,46.5-89.1,38.1c-14.7-2-27.7-10.7-35-23.6c-14.3-24.9-35.9-68.5-28.9-93.2l-104.6-20
			l-8.2-25.4l113.2-14.7c10-1.3,19.8,3.6,24.8,12.3l55.1,96.3l16.4,1.8L702.2,260.5L702.2,260.5z"/>
	</g>
	<g>
		<g>
			<polygon class="st2" points="473.8,172.1 472.4,146.2 393.9,158.7 394.9,176.2 			"/>
			<path class="st4" d="M418.6,153.6l-3,9.4l-5.4,0.6c0,0,6.5,1.4,9.2,12.8l-5.1,2c0,0-4.6,5.1-14,5.4l-25.2-0.1l-0.8-8.7l17.2-3.4
				c0,0,3.7-2.9-16.3-11.8c0,0-6.6-3.4-2.5-22.9c0.6-2.7,2.8-4.8,5.5-5.1c1.5-0.2,3,0.3,3.7,2.1c1.8,4.7,0.8,9.6,5,12.2
				S418.6,153.6,418.6,153.6L418.6,153.6z"/>
		</g>
		<path class="st4" d="M711.5,252.2c0,0-23.5,48.5-85.8,45.1c-14.8-0.8-28.4-8.5-36.8-20.7c-16.2-23.7-41.3-65.4-36.3-90.6
			l-105.8-11.5l-10.3-24.6l111.6-23.8c9.9-2.1,20,2,25.7,10.3l62.7,91.5l16.5,0.5L711.5,252.2L711.5,252.2z"/>
	</g>
	<polygon class="st3" points="639.9,47.3 634.4,51.4 663,90.8 668.4,89.4 	"/>
	<path d="M714.1,134.8l31.3-1.4l13.6,61.1c0,0-28.5,107.3-62.5,103.3c0,0-21.1-15.6-21.1-21.1c0-5.4-28.5-19-28.5-19l-6.8-23.1
		l20.4-31.3c0,0,8.2-24.5,35.3-38L714.1,134.8L714.1,134.8z"/>
	<polygon class="st1" points="535.4,182.4 257.5,182.4 257.5,189.2 393.4,189.2 393.4,444.6 400.2,444.6 400.2,189.2 535.4,189.2 	
		"/>
	<circle class="st2" cx="730.4" cy="92.7" r="36.7"/>
	<polygon class="st1" points="602.5,139.6 576.8,149.8 627.1,216.4 644.8,202.8 	"/>
	<g>
		<path class="st2" d="M702.5,267.3c0,0-9.5,30.1-29.9,15s-49.7-61.2-49.7-61.2l15.7-11.6l34,36.8l9.5-4.9L702.5,267.3L702.5,267.3z
			"/>
		<polygon points="717.5,161.3 748.7,180.3 702.5,280.9 672.6,240.1 		"/>
		<ellipse transform="matrix(0.866 -0.5 0.5 0.866 -18.07 339.4482)" class="st2" cx="624.4" cy="203.4" rx="13.6" ry="21.1"/>
	</g>
	<path class="st3" d="M734.4,203.8c9.4-30.9,19.5-40.6,30.1-34.5c8.1,4.7,10.5,15.3,5.8,23.3c-12.1,20.5-37,67.4-31.8,98.5
		c0,0,8.2,43.5-57.1,43.5s-127.7-14.9-127.7-14.9l34-5.4l77.3,5.5c17.7,1.3,32.5-13.8,30.2-31.4c-0.1-0.6-0.2-1.2-0.3-1.8
		C691,265.3,734.4,203.8,734.4,203.8L734.4,203.8z"/>
</g>
<path class="st4" d="M716.6,77.5c-3,8.4,3.6,17.1,12.5,16.5l0.2,0l0,0c6,7.5,6.1,18,0.4,25.7l0,0c-0.5,9.9,1.1,19.7,4.5,29l9.7,26
	l15-7l7.1,19l41.9-21.6l-25.4-57.1l-7.7-31c-5.5-22-28-35.3-50-29.5L708.1,52c-13.3,3.5-21,17.5-16.8,30.6v0L716.6,77.5"/>
</svg>
