<?xml version="1.0" encoding="utf-8"?>
<!-- Generator: Adobe Illustrator 27.0.0, SVG Export Plug-In . SVG Version: 6.00 Build 0)  -->
<svg version="1.1" id="图层_1" xmlns="http://www.w3.org/2000/svg" xmlns:xlink="http://www.w3.org/1999/xlink" x="0px" y="0px"
	 viewBox="0 0 1237 588" style="enable-background:new 0 0 1237 588;" xml:space="preserve">
<style type="text/css">
	.st0{fill:#E6E6E6;}
	.st1{fill:#2F2E41;}
	.st2{fill:#3F3D56;}
	.st3{fill:#FFFFFF;}
	.st4{fill:#FFB8B8;}
	.st5{font-family:'NotoSerifSC-Bold-90ms-RKSJ-H';}
	.st6{font-size:71.1574px;}
</style>
<ellipse class="st0" cx="380" cy="557.8" rx="158" ry="12"/>
<path class="st1" d="M342.8,140.5c27.5-11.7,61.7-4.3,95.2,0.9c0.3-6.2,4.1-13.8,0.1-18.2c-4.8-5.3-4.4-10.8-1.5-16.4
	c7.4-14.3-3.2-29.4-13.9-42.1c-4.9-5.8-12.2-8.8-19.8-8.3l-19.8,1.4c-9.9,0.7-18.3,7.5-21.1,16.9l0,0c-4.7,6.4-7.3,12.8-5.7,19.2
	c-7.1,4.8-8.3,10.7-5.1,17.3c2.7,4.1,2.7,8.2-0.1,12.1c-3.7,5-6.5,10.6-8.3,16.5L342.8,140.5z"/>
<path class="st1" d="M996.2,495.1H435.8c-10.4,0-18.8-8.4-18.8-18.8l0,0l0,0c203.2-23.6,402.5-23.6,598,0l0,0
	C1015,486.7,1006.6,495.1,996.2,495.1L996.2,495.1z"/>
<path class="st2" d="M1015,477.4l-598-1.1l69.3-116.6l0.3-0.6v-257c0-13.1,10.6-23.8,23.8-23.8c0,0,0,0,0,0h407.9
	c13.1,0,23.8,10.6,23.8,23.8c0,0,0,0,0,0v258.8L1015,477.4z"/>
<path class="st3" d="M509.9,94.9c-4.3,0-7.7,3.5-7.7,7.7V337c0,4.3,3.5,7.7,7.7,7.7h412.3c4.3,0,7.7-3.5,7.7-7.7V102.7
	c0-4.3-3.5-7.7-7.7-7.7L509.9,94.9z"/>
<path class="st1" d="M511.6,375.7c-1.3,0-2.5,0.8-3,1.9L487.2,424c-0.8,1.7,0,3.6,1.6,4.4c0.4,0.2,0.9,0.3,1.4,0.3h449.1
	c1.8,0,3.3-1.5,3.3-3.3c0-0.5-0.1-1-0.4-1.5l-23.2-46.4c-0.6-1.1-1.7-1.8-3-1.8L511.6,375.7z"/>
<circle class="st3" cx="714.3" cy="86.1" r="5"/>
<path class="st1" d="M670.2,437.6c-1.5,0-2.8,1-3.2,2.5l-5.4,19.9c-0.5,1.8,0.6,3.6,2.3,4.1c0.3,0.1,0.6,0.1,0.9,0.1h101.9
	c1.8,0,3.3-1.5,3.3-3.3c0-0.4-0.1-0.7-0.2-1.1l-6.9-19.9c-0.5-1.3-1.7-2.2-3.1-2.2L670.2,437.6z"/>
<polygon class="st1" points="942,355.2 942,359.7 486.3,359.7 486.6,359.1 486.6,355.2 "/>
<circle cx="929.3" cy="95.5" r="77.4"/>
<path class="st3" d="M961.4,129.2h-64.1c-2.4,0-4.4-2-4.4-4.4V86.1c0-2.4,2-4.4,4.4-4.4h64.1c2.4,0,4.4,2,4.4,4.4v38.7
	C965.8,127.2,963.8,129.2,961.4,129.2z M897.3,86.1v38.7h64.1l0-38.7L897.3,86.1z"/>
<path class="st3" d="M949.2,86.1h-39.8V68.4c0-12.8,8.4-22.1,19.9-22.1s19.9,9.3,19.9,22.1V86.1z M913.9,81.7h31V68.4
	c0-10.4-6.4-17.7-15.5-17.7s-15.5,7.3-15.5,17.7L913.9,81.7z"/>
<circle class="st3" cx="929.3" cy="104.3" r="4.4"/>
<path class="st0" d="M875.3,265.3H556.7c-3.3,0-5.9-2.6-5.9-5.9v-79c0-3.3,2.6-5.9,5.9-5.9h318.6c3.3,0,5.9,2.6,5.9,5.9v79
	C881.2,262.6,878.6,265.3,875.3,265.3z M556.7,176.8c-2,0-3.5,1.6-3.5,3.5v79c0,2,1.6,3.5,3.5,3.5h318.6c2,0,3.5-1.6,3.5-3.5v-79
	c0-2-1.6-3.5-3.5-3.5L556.7,176.8z"/>
<circle class="st0" cx="606.2" cy="216.8" r="24"/>
<path class="st0" d="M661.7,200.8c-2.2,0-4,1.8-4,4c0,2.2,1.8,4,4,4c0,0,0,0,0,0h188.9c2.2,0,4-1.8,4-4s-1.8-4-4-4H661.7z"/>
<path class="st0" d="M661.7,224.8c-2.2,0-4,1.8-4,4s1.8,4,4,4H743c2.2,0,4-1.8,4-4s-1.8-4-4-4H661.7z"/>
<path class="st4" d="M485.5,226.4l-58.9,31.3l-0.7-26.1c19.2-3.2,37.5-8.8,54.4-17.9l6.2-15.2c2.1-5.3,8.2-7.8,13.4-5.7
	c1.6,0.6,3,1.7,4.1,3l0,0c3.4,4.2,3.1,10.3-0.9,14.1L485.5,226.4z"/>
<path class="st1" d="M341.6,407.2L341.6,407.2c-0.9-3.2-0.3-6.6,1.5-9.4L356,378c6.3-9.7,19-13.1,29.3-7.7l0,0
	c-5.4,9.3-4.7,17.4,1.9,24.4c-10.2,5-19.6,11.4-27.9,19c-5.3,3.6-12.5,2.2-16.1-3C342.5,409.7,341.9,408.5,341.6,407.2z"/>
<path class="st1" d="M488.2,381.3L488.2,381.3c-4,6.6-11.1,10.7-18.9,10.8l-86,0.7l-3.7-21.6l38-11.2l-32.1-24.6l35-41l63.6,59.3
	C492,360.8,493.6,372.3,488.2,381.3z"/>
<path class="st1" d="M370,529.2h-20.1c-18.1-123.9-36.5-248.1,17.9-294.5l64.1,10.4l-8.2,54.4l-35.8,41L370,529.2z"/>
<path class="st1" d="M387.6,557.2L387.6,557.2c-3.2,0.9-6.6,0.3-9.4-1.5l-21.9-2.9c-9.7-6.3-13.1-19-7.7-29.3l0,0
	c9.3,5.4,17.4,4.7,24.4-1.9c5,10.1,13.2,9.5,21,17.9c3.6,5.3,2.2,12.5-3,16.1C390.1,556.3,388.9,556.9,387.6,557.2z"/>
<path class="st4" d="M417.7,151.9l-37.3-8.9c6.2-12.7,6.7-26.8,3.7-41.8l25.4-0.7C410.3,119.1,412.7,136.5,417.7,151.9z"/>
<path d="M427.9,267.5c-27.1,18.5-46.3,0.6-60.9-26.9c2-16.9-1.3-37-7.4-59c-5.6-20,5-41.1,24.5-48.4l0,0l32.1,13.4
	c27.2,22.2,32.6,46.2,22.4,71.6L427.9,267.5z"/>
<path class="st4" d="M349.8,170.5L320,186.2l52.9,31.3l7.4,18.2c2,4.9-0.4,10.6-5.3,12.6c-0.2,0.1-0.3,0.1-0.5,0.2l0,0
	c-5,1.7-10.5-0.9-12.3-6c-0.3-0.8-0.5-1.7-0.5-2.6l-0.7-12.7L293.7,205c-4.6-1.5-8.2-5.1-9.9-9.6l0,0c-2.4-6.7,0-14.3,5.9-18.3
	l54.1-37.1L349.8,170.5z"/>
<path d="M379.6,173.5c-12.4-5.5-23.7,0.5-38,5.2l-2.2-39.5c14.2-7.6,27.7-9.6,40.3-3.7L379.6,173.5z"/>
<circle class="st4" cx="394.5" cy="96.2" r="23.8"/>
<path class="st1" d="M423,93.2c-23.6,2.3-41.5-1.5-53-12.5v-8.8h51L423,93.2z"/>
<text transform="matrix(1 0 0 1 575 332.0586)" class="st5 st6">密码设计</text>
</svg>
