<?xml version="1.0" encoding="utf-8"?>
<!-- Generator: Adobe Illustrator 27.0.0, SVG Export Plug-In . SVG Version: 6.00 Build 0)  -->
<svg version="1.1" id="图层_1" xmlns="http://www.w3.org/2000/svg" xmlns:xlink="http://www.w3.org/1999/xlink" x="0px" y="0px"
	 viewBox="0 0 1318 677.2" style="enable-background:new 0 0 1318 677.2;" xml:space="preserve">
<style type="text/css">
	.st0{fill:#FFB8B8;}
	.st1{fill:#2F2E41;}
	.st2{fill:#3F3D56;}
	.st3{opacity:0.2;enable-background:new    ;}
	.st4{fill:#536DFE;}
	.st5{fill:#E6E6E6;}
	.st6{fill:#FF6584;}
</style>
<polygon class="st0" points="522.7,659.5 531.4,662.1 545.6,629.7 532.8,625.9 "/>
<path class="st1" d="M521.3,656l17.2,5.1l0,0c6,1.8,9.5,8.2,7.7,14.2l-0.1,0.4l-28.1-8.4L521.3,656z"/>
<polygon class="st0" points="605.6,666.7 614.2,663.5 606.1,629.1 593.5,633.7 "/>
<path class="st1" d="M602.4,664.7l16.8-6.2l0,0c5.9-2.2,12.5,0.9,14.7,6.8l0.1,0.3l-27.6,10.1L602.4,664.7z"/>
<polygon class="st1" points="537.3,600.9 522.5,649.9 540.3,655.1 557.4,609.8 "/>
<polygon class="st1" points="584.1,612 597.5,658.1 616.1,649.2 602.7,606.1 "/>
<path class="st2" d="M577.2,620.3c-11.9-0.1-23.8-1.1-35.5-3.3l-0.3-0.1v-11.3l-6.8-0.8l5.3-18.9c-2.5-29.2,1-66.1,2.2-76.7
	c0.3-2.5,0.4-3.9,0.4-3.9l6-50.6l10-9.2l4.5,2.9l8.4,8.4c9.8,24,17.5,46.7,17.6,48.1l32.8,105l-0.2,0.2
	C610.1,618.1,592.8,620.3,577.2,620.3z"/>
<polygon class="st3" points="552.7,477.2 550.4,491.5 565.9,497.9 "/>
<path class="st1" d="M583.1,445.4h-35.8c-1.5,0-2.8-1.2-2.8-2.8v-15.5c0-11.4,9.3-20.7,20.7-20.7c11.4,0,20.6,9.3,20.7,20.7v15.5
	C585.9,444.2,584.7,445.4,583.1,445.4z"/>
<circle class="st0" cx="569.2" cy="429.3" r="15.2"/>
<path class="st1" d="M590.8,428.8h-21.9l-0.2-3.1l-1.1,3.1h-3.4l-0.4-6.2l-2.2,6.2H555v-0.3c0-9,7.3-16.4,16.4-16.4h3.1
	c9,0,16.4,7.3,16.4,16.4V428.8z"/>
<path class="st1" d="M568.7,448.3c-0.2,0-0.3,0-0.5,0l-16-2.8v-26.5h17.7l-0.4,0.5c-6.1,7.1-1.5,18.6,1.8,24.8
	c0.5,0.9,0.4,2.1-0.2,2.9C570.4,447.9,569.6,448.3,568.7,448.3z"/>
<path class="st4" d="M597,512.4h-8.8c-0.6,0-1.1-0.4-1.1-1l-1.8-18h14.6l-1.8,18C598.1,512,597.6,512.4,597,512.4z"/>
<path class="st1" d="M599.9,495.6h-14.5c-0.6,0-1.1-0.5-1.1-1.1v-2.7c0-0.6,0.5-1.1,1.1-1.1h14.5c0.6,0,1.1,0.5,1.1,1.1v2.7
	C601,495.1,600.5,495.6,599.9,495.6z"/>
<path class="st3" d="M542.9,504.7L542.9,504.7c8.3,9.6,22.1,12.4,33.5,6.8l3.3-1.6L542.9,504.7z"/>
<path class="st0" d="M595.7,501.2c-2.6-2.9-7-3.1-9.8-0.6c-0.3,0.3-0.6,0.6-0.8,0.9l-15.3-4.3l-4.9,8.7l21.7,5.8
	c3.2,2.2,7.5,1.4,9.7-1.8C598.1,507.2,597.9,503.6,595.7,501.2z"/>
<path class="st2" d="M559.1,510.8c-7.3,0-17.1-4.3-28.8-12.5c-1.3-0.9-2.2-2.3-2.4-3.9c-0.9-5.5,4.5-12.9,5-13.6l5.6-15.4
	c0.1-0.3,1.9-6.9,6.4-9.3c1.9-1,4.2-1.1,6.2-0.3c8.6,3.1,1.9,27.4,1,30.6l11.5,5.4l7.3,4.6l10,1L578,510l-15.1,0.3
	C561.7,510.7,560.4,510.8,559.1,510.8z"/>
<path class="st5" d="M1102.7,396.7c0-54.4-44.2-98.6-98.6-98.5c-54.4,0-98.6,44.2-98.5,98.6c0,13.3,2.7,26.5,7.9,38.7
	c-0.1-0.1-0.2-0.2-0.3-0.3c4.4,10.2,10.4,19.6,18,27.8c0,0,0,0,0.1,0.1c0.6,0.7,1.2,1.3,1.8,2c18.2,19,43.2,29.9,69.5,30.3
	l-3.3,180.9h10.3l-2.1-119.4l14.9-7.8l-2.3-4.3l-12.7,6.7l-1-56.1C1059.9,494,1102.7,450.2,1102.7,396.7z"/>
<path class="st5" d="M810.1,348.6c0-63.8-51.8-115.5-115.6-115.5c-63.8,0-115.5,51.8-115.5,115.6c0,15.6,3.2,31,9.3,45.4
	c-0.1-0.1-0.2-0.2-0.3-0.4c5.1,12,12.2,23,21,32.6c0,0,0.1,0.1,0.1,0.1c0.7,0.8,1.4,1.5,2.2,2.3c21.3,22.2,50.7,35,81.5,35.5
	l-3.9,212h12.1l-2.4-139.9l17.4-9.2l-2.7-5.1l-14.9,7.8l-1.1-65.7C760,462.7,810.1,411.4,810.1,348.6z"/>
<path class="st5" d="M478.3,303.4c0-72.6-58.9-131.4-131.5-131.4c-72.6,0-131.4,58.9-131.4,131.5c0,17.7,3.6,35.3,10.6,51.6
	c-0.1-0.1-0.3-0.3-0.4-0.4c5.8,13.6,13.9,26.1,23.9,37.1c0,0,0.1,0.1,0.1,0.1c0.8,0.9,1.6,1.8,2.5,2.6
	c24.3,25.3,57.7,39.8,92.7,40.3l-4.4,241.3H354l-2.8-159.3l19.9-10.5l-3-5.8l-17,8.9l-1.3-74.8C421.2,433.2,478.3,374.8,478.3,303.4
	z"/>
<circle class="st6" cx="971.7" cy="86" r="86"/>
<circle class="st4" cx="460.6" cy="187.6" r="172.3"/>
<path class="st3" d="M333.3,72.5c-37.4,87.5,3.2,188.8,90.7,226.2c68.1,29.1,147.2,11.5,196.4-43.8C583,342.4,481.8,383,394.3,345.6
	s-128.1-138.7-90.7-226.2C310.9,102.3,320.9,86.4,333.3,72.5z"/>
<polygon class="st2" points="461,187.6 461.5,187.6 470,676.1 452,676.1 "/>
<rect x="460.1" y="453.2" transform="matrix(0.8849 -0.4659 0.4659 0.8849 -158.2771 274.5041)" class="st2" width="32.2" height="8.5"/>
<path class="st2" d="M724.1,671.6c0,0,0.6-13,13.4-11.5"/>
<circle class="st4" cx="720.5" cy="652.8" r="6.4"/>
<rect x="719.5" y="663.5" class="st2" width="1.8" height="12.6"/>
<path class="st2" d="M282.1,669.8c0,0,0.6-13,13.4-11.5"/>
<ellipse transform="matrix(3.327797e-02 -0.9994 0.9994 3.327797e-02 -381.4277 907.6663)" class="st4" cx="278.5" cy="651" rx="6.4" ry="6.4"/>
<rect x="277.4" y="661.7" class="st2" width="1.8" height="12.6"/>
<path class="st2" d="M386.5,670.7c0,0,0.6-13,13.4-11.5"/>
<circle class="st4" cx="382.9" cy="651.9" r="6.4"/>
<rect x="381.9" y="662.6" class="st2" width="1.8" height="12.6"/>
<path class="st2" d="M664.2,83.3L677,73.1c-9.9-1.1-14,4.3-15.7,8.6c-7.8-3.2-16.2,1-16.2,1l25.6,9.3
	C669.4,88.5,667.2,85.5,664.2,83.3z"/>
<path class="st2" d="M858.8,187.5l12.8-10.2c-9.9-1.1-14,4.3-15.7,8.6c-7.8-3.2-16.2,1-16.2,1l25.6,9.3
	C864,192.8,861.8,189.8,858.8,187.5z"/>
<path class="st2" d="M649,276.5l12.8-10.2c-9.9-1.1-14,4.3-15.7,8.6c-7.8-3.2-16.2,1-16.2,1l25.6,9.3
	C654.1,281.7,651.9,278.7,649,276.5z"/>
<path class="st2" d="M898.7,676.3c0,0,0.6-13,13.4-11.5"/>
<path class="st2" d="M778.9,676.3c0,0,0.6-13,13.4-11.5"/>
<path class="st2" d="M342.3,676.3c0,0,0.6-13,13.4-11.5"/>
<path class="st2" d="M952.7,676.3c0,0,0.6-13,13.4-11.5"/>
<path class="st2" d="M927.5,676.3c0,0,0.6-13,13.4-11.5"/>
<path class="st2" d="M875.5,676.3c0,0-0.6-13-13.4-11.5"/>
<path class="st2" d="M668.4,676.3c0,0-0.6-13-13.4-11.5"/>
<path class="st2" d="M496.5,676.3c0,0-0.6-13-13.4-11.5"/>
<path class="st2" d="M313.7,676.3c0,0-0.6-13-13.4-11.5"/>
<path class="st2" d="M1006.9,676.3c0,0-0.6-13-13.4-11.5"/>
<path class="st2" d="M929.5,677.2c0,0-0.6-13-13.4-11.5"/>
<rect x="215" y="674.6" class="st2" width="888" height="2"/>
</svg>
