<?xml version="1.0" encoding="utf-8"?>
<!-- Generator: Adobe Illustrator 27.0.0, SVG Export Plug-In . SVG Version: 6.00 Build 0)  -->
<svg version="1.1" id="图层_1" xmlns="http://www.w3.org/2000/svg" xmlns:xlink="http://www.w3.org/1999/xlink" x="0px" y="0px"
	 viewBox="0 0 1312.6 728.2" style="enable-background:new 0 0 1312.6 728.2;" xml:space="preserve">
<style type="text/css">
	.st0{fill:#E6E6E6;}
	.st1{fill:#FFFFFF;}
	.st2{fill:#3F3D56;}
	.st3{fill:#2F2E41;}
	.st4{fill:#CCCCCC;}
</style>
<path class="st0" d="M694.5,173.1h-4V63.6c0-35-28.4-63.4-63.4-63.4H395c-35,0-63.4,28.4-63.4,63.4v0v601c0,35,28.4,63.4,63.4,63.4
	c0,0,0,0,0,0h232.1c35,0,63.4-28.4,63.4-63.4V251.1h4L694.5,173.1z"/>
<path class="st1" d="M629.7,16.7h-30.3c4.7,11.5-0.8,24.6-12.3,29.3c-2.7,1.1-5.6,1.7-8.5,1.7h-133c-12.4,0-22.5-10.1-22.5-22.5
	c0-2.9,0.6-5.8,1.7-8.5h-28.3c-26.1,0-47.3,21.2-47.3,47.3v600.1c0,26.1,21.2,47.3,47.3,47.3l0,0h233.2c26.1,0,47.3-21.2,47.3-47.3
	l0,0l0,0V64C677,37.9,655.8,16.7,629.7,16.7L629.7,16.7z"/>
<path id="f3818c68-126c-4685-b4e0-2450731ccc2a-1033" class="st0" d="M657.8,488H378.2c-2.9,0-5.2-2.3-5.2-5.2v-69.4
	c0-2.9,2.3-5.2,5.2-5.2h279.6c2.9,0,5.2,2.3,5.2,5.2v69.4C662.9,485.7,660.6,488,657.8,488z M378.2,410.4c-1.7,0-3.1,1.4-3.1,3.1
	v69.4c0,1.7,1.4,3.1,3.1,3.1h279.6c1.7,0,3.1-1.4,3.1-3.1v-69.4c0-1.7-1.4-3.1-3.1-3.1H378.2z"/>
<circle id="abdb74b7-e321-430b-89c2-b563f66442fc" class="st0" cx="414.4" cy="448.2" r="21.7"/>
<path id="addd02b1-b85b-481a-baea-1b0ba5ed9f4a-1034" class="st0" d="M464.6,433.7c-2,0-3.6,1.7-3.6,3.7c0,2,1.6,3.5,3.6,3.6h170.9
	c2,0,3.7-1.6,3.7-3.6s-1.6-3.7-3.6-3.7l0,0c0,0-0.1,0-0.1,0L464.6,433.7z"/>
<path id="a42dc2a4-5fb2-4ea8-b2b3-ce81bc256782-1035" class="st0" d="M464.6,455.4c-2,0-3.6,1.7-3.6,3.7c0,2,1.6,3.5,3.6,3.6h170.9
	c2,0,3.7-1.6,3.7-3.6s-1.6-3.7-3.6-3.7c0,0-0.1,0-0.1,0H464.6z"/>
<path id="b84687c4-e3b4-4975-8361-bf73c33c9ee5-1036" class="st0" d="M657.8,604H378.2c-2.9,0-5.2-2.3-5.2-5.2v-69.4
	c0-2.9,2.3-5.2,5.2-5.2h279.6c2.9,0,5.2,2.3,5.2,5.2v69.4C662.9,601.7,660.6,604,657.8,604z M378.2,526.4c-1.7,0-3.1,1.4-3.1,3.1
	v69.4c0,1.7,1.4,3.1,3.1,3.1h279.6c1.7,0,3.1-1.4,3.1-3.1v-69.4c0-1.7-1.4-3.1-3.1-3.1H378.2z"/>
<circle id="fe3713e7-4e14-41f8-af1d-48b338e5371c" class="st0" cx="414.4" cy="564.1" r="21.7"/>
<path id="e34cf46a-1d6c-4c41-b5e1-331fa5bf8d4c-1037" class="st0" d="M464.6,549.6c-2,0-3.6,1.7-3.6,3.7c0,2,1.6,3.5,3.6,3.6h170.9
	c2,0,3.7-1.6,3.7-3.6s-1.6-3.7-3.6-3.7l0,0c0,0-0.1,0-0.1,0H464.6z"/>
<path id="e105039f-b7a6-49c8-8f81-87505f1b0ae5-1038" class="st0" d="M464.6,571.4c-2,0-3.6,1.7-3.6,3.7c0,2,1.6,3.5,3.6,3.6h170.9
	c2,0,3.7-1.6,3.7-3.6s-1.6-3.7-3.6-3.7c0,0-0.1,0-0.1,0H464.6z"/>
<path id="ad9187ec-89e0-4b9d-a4fb-dc654c09bafe-1039" class="st0" d="M512.1,344.1c-54.3,0-98.4-44-98.4-98.3v-0.1
	c0-0.2,0-0.4,0-0.6c0.3-53.9,44.4-97.8,98.4-97.8c54.3,0,98.4,44.1,98.4,98.4C610.4,300,566.4,344,512.1,344.1L512.1,344.1
	L512.1,344.1z M512.1,149.4c-52.9,0.1-95.9,42.8-96.3,95.7c0,0.2,0,0.4,0,0.6c0,53.2,43.1,96.3,96.3,96.3
	c53.2,0,96.3-43.1,96.3-96.3C608.4,192.5,565.3,149.4,512.1,149.4L512.1,149.4z"/>
<circle class="st1" cx="646.7" cy="423" r="40"/>
<path d="M632.8,441c-0.1,0-0.1,0-0.2,0h-21.5c-5.7-0.1-10.3-4.8-10.2-10.6c0.1-5.6,4.6-10.1,10.2-10.2h21.5c0.1,0,0.2,0,0.3,0
	c5.7,0.1,10.3,4.8,10.3,10.5C643.2,436.5,638.5,441,632.8,441z"/>
<rect x="657" y="725.5" class="st2" width="324" height="2.2"/>
<path d="M676.9,535.9c-0.3-0.4-0.5-0.8-0.6-1.3l-5.2-13.8c-1.3-3.4,0.5-7.1,3.8-8.4l115.2-43c3.4-1.3,7.1,0.5,8.4,3.8l5.2,13.8
	c1.3,3.4-0.5,7.1-3.8,8.4c0,0,0,0,0,0l-115.2,43C681.8,539.5,678.6,538.5,676.9,535.9L676.9,535.9z"/>
<path class="st3" d="M789.8,465.9L743,484.6c-3.1,0.9-4.9,4.1-4.1,7.2l5.4,21.8c0.8,3.2,4.1,5.2,7.3,4.4c0.4-0.1,0.7-0.2,1.1-0.4
	l47-22.1c3.1-1.2,4.7-4.6,3.5-7.7l-5.6-18.3C796.4,466.3,792.9,464.7,789.8,465.9z"/>
<path d="M875.6,601.5c-3,0.3-5.9-1.5-6.9-4.3l-40.1-116.3c-1.2-3.4,0.6-7.1,4-8.3c0,0,0,0,0,0l14-4.8c3.4-1.2,7.1,0.6,8.3,4
	l40.1,116.3c1.2,3.4-0.6,7.1-4,8.3l-14,4.8C876.5,601.4,876.1,601.5,875.6,601.5z"/>
<path class="st3" d="M857.8,469.9l15.4,48c1.2,3-0.1,6.4-3,7.7l-20.3,9.7c-3,1.4-6.6,0.2-8-2.8c-0.2-0.4-0.3-0.7-0.4-1.1L828.8,481
	c-1.1-3.1,0.6-6.5,3.7-7.6l17.7-7.3C853.3,465.1,856.7,466.7,857.8,469.9z"/>
<path class="st3" d="M811.2,726.2h-14.8c-3.6,0-6.5-2.9-6.5-6.5v-123c0-3.6,2.9-6.5,6.5-6.5h14.8c3.6,0,6.5,2.9,6.5,6.5v123
	C817.7,723.3,814.8,726.2,811.2,726.2z"/>
<path class="st3" d="M840.4,726.2h-14.8c-3.6,0-6.5-2.9-6.5-6.5v-123c0-3.6,2.9-6.5,6.5-6.5h14.8c3.6,0,6.5,2.9,6.5,6.5v123
	C846.9,723.3,844,726.2,840.4,726.2z"/>
<path class="st4" d="M852.6,611.1h-67.1c-3.9,0-7-3.1-7-7V495.2c0-22.4,18.1-40.5,40.5-40.5s40.5,18.1,40.5,40.5v108.9
	C859.6,608,856.4,611.1,852.6,611.1z"/>
<path class="st3" d="M862.7,637.8h-34V445.6l0.6,0.2c19.7,5.4,33.3,23.3,33.4,43.7V637.8z"/>
<path class="st3" d="M806.6,637.8h-34V489.5c0-20.4,13.7-38.3,33.4-43.7l0.6-0.2V637.8z"/>
<circle cx="818.5" cy="378.6" r="53.5"/>
<path class="st3" d="M879,366.3c0,0,3-83-36-56c0,0-22.5-75.5-77.5,37.5l-16,16c0,0,72-10,139,21L879,366.3z"/>
<path class="st3" d="M819.3,405.1c-3.3-0.1-7.4-0.2-10.6-2.5c-1.9-1.5-3.1-3.7-3.2-6.1c-0.1-1.7,0.6-3.4,1.9-4.5
	c1.7-1.4,4.1-1.7,6.7-1l-2.7-19.7l2-0.3l3.2,23.2l-1.7-0.8c-1.9-0.9-4.6-1.3-6.2,0.1c-0.8,0.7-1.2,1.8-1.2,2.9
	c0.1,1.8,1,3.4,2.4,4.5c2.5,1.8,5.7,2,9.5,2.1L819.3,405.1z"/>
<rect x="790.8" y="373" class="st3" width="10.8" height="2"/>
<rect x="824.8" y="373" class="st3" width="10.8" height="2"/>
<path class="st2" d="M699.2,541c-3,1.4-6.6,0.1-8-2.9l-34.5-74.4c-1.4-3-0.1-6.6,2.9-8s6.6-0.1,8,2.9l34.5,74.4
	C703.5,536.1,702.2,539.6,699.2,541z"/>
<path d="M663.7,461c-2.2,0-4-1.8-4-4v-51h-50c-2.2,0-4-1.8-4-4s1.8-4,4-4h54c2.2,0,4,1.8,4,4v55C667.7,459.2,665.9,461,663.7,461z"
	/>
<path class="st2" d="M664.7,466.6c-24,11.2-52.6,0.7-63.7-23.3c-11.2-24-0.7-52.6,23.3-63.7c24-11.2,52.6-0.7,63.7,23.3
	C699.1,426.9,688.7,455.5,664.7,466.6z M629.3,390.4c-18,8.4-25.9,29.8-17.5,47.8c8.4,18,29.8,25.9,47.8,17.5
	c18-8.4,25.9-29.8,17.5-47.8C668.8,389.9,647.4,382.1,629.3,390.4L629.3,390.4z"/>
</svg>
