<?xml version="1.0" encoding="UTF-8"?><svg id="uuid-bbdf0408-327b-4092-979c-ffe4b63a21ca" xmlns="http://www.w3.org/2000/svg" viewBox="0 0 1366 768"><defs><style>.uuid-2a6fe1ed-6b8b-4dfe-88e8-80d7a27d786f{fill:#4e9def;}.uuid-8bdab5f2-2bca-4495-be0a-b66361c06657{fill:none;stroke:#fff;stroke-linecap:round;stroke-linejoin:round;stroke-width:5px;}</style></defs><rect class="uuid-2a6fe1ed-6b8b-4dfe-88e8-80d7a27d786f" width="1366" height="768"/><g><path class="uuid-8bdab5f2-2bca-4495-be0a-b66361c06657" d="M832.62,259.36c1.73,2.99,55.22-34.73,56.45-32.59,1.02,1.76-36.07,31.26-34.59,33.83,1.21,2.1,41.03-25.27,41.72-24.09,1.53,2.65-32.64,28.04-30.62,31.53,.86,1.5,36.38-22.81,37.16-21.46,1.59,2.76-31.86,28.2-30.11,31.24,.59,1.02,34.6-23.45,36.1-20.85s-34.21,29.13-32.27,32.49c.56,.97,37.15-22.82,37.75-21.79,2.21,3.83-37.92,34.2-37.25,35.36,1.22,2.12,40.85-26.67,42.19-24.36,2.76,4.77-47.28,35.62-44.89,39.77,2.01,3.48,46.88-32.56,49.26-28.44,2.52,4.36-58.21,43.95-56.69,46.58,1.99,3.44,58.91-37.6,60.46-34.91,1.26,2.19-79.42,51.9-76.04,57.76,2.97,5.14,75.95-51.33,79.19-45.72"/><path class="uuid-8bdab5f2-2bca-4495-be0a-b66361c06657" d="M686.16,259.82c5.35,9.27,141.33-91.22,145.49-84,5.05,8.74-131.11,77.13-125.73,86.45,5.68,9.84,132.33-87.25,137.03-79.11s-129.75,82.13-126.87,87.11c4.15,7.19,130.6-91.12,137.41-79.33,4.5,7.8-134.42,84.31-131.32,89.68,5.95,10.31,138.32-86.3,141.11-81.47,4.83,8.37-143.58,79.53-136.12,92.45s141.84-89.67,145.21-83.84c6.83,11.83-142.87,90.66-140.41,94.92,4.34,7.52,145.04-92.46,148.82-85.92s-152.03,83.12-144.01,97c2.67,4.62,82.79-52.66,84.9-49.02,4.13,7.16-83.44,54.25-80.07,60.09,3.64,6.31,67.01-41.9,68.4-39.49,3.27,5.67-66.6,45.33-63.58,50.56,2.6,4.51,62.74-38.52,63.74-36.8,1.89,3.27-60.67,44.83-58.91,47.87,2.46,4.25,60.51-41.23,63.24-36.51,3.31,5.74-60.78,43.48-58.41,47.58,2.24,3.87,64.96-40.78,66.38-38.32,1.93,3.34-65.09,43.27-61.55,49.39,1.14,1.98,68.69-43.4,70.31-40.59,3.13,5.43-66.59,49.74-65.48,51.66,1.77,3.06,59.66-41.49,62.71-36.21,2.52,4.36-61.4,41.14-57.86,47.26,.63,1.08,40.59-25.12,41.32-23.86,1.17,2.02-37.47,33.18-36.48,34.92,2.02,3.5,43.47-26.8,44.21-25.52,2.29,3.96-41.01,33.73-39.36,36.58,6.12,10.6,149.15-93.98,152.55-88.08,7.94,13.76-154.92,86.65-147.71,99.14,3.95,6.84,145.4-93.56,149.56-86.35,7.07,12.25-149.27,89.52-144.71,97.41,4.56,7.9,142.09-91.11,146.02-84.31,2.56,4.44-144.4,89.79-141.18,95.37,6.8,11.78,137.74-89.42,142.02-82,6.61,11.45-141.46,89.14-138.7,93.93,4.99,8.64,135.27-83.61,137.66-79.48,7.42,12.85-147.13,80.54-139.22,94.24,3.26,5.65,130.63-92.05,137.84-79.58"/><path class="uuid-8bdab5f2-2bca-4495-be0a-b66361c06657" d="M644.79,436.12c2.73,4.73,63.12-41.64,65.37-37.74,2.74,4.74-47.85,35.9-45.43,40.09,2.61,4.52,47.73-33.42,50.27-29.02,1.51,2.61-41.69,34.58-40.24,37.09,1.6,2.76,43.43-28.87,45.07-26.02,1.07,1.86-41.47,33.61-39.66,36.75,1.19,2.06,42.91-28.4,44.48-25.68s-44.68,37.85-43.9,39.2c2.3,3.98,47.29-30.61,48.72-28.13"/><path class="uuid-8bdab5f2-2bca-4495-be0a-b66361c06657" d="M568.13,260.76c9.42,16.31,187.55-127.02,195.67-112.97,4.67,8.08-184.94,99.06-175.6,115.24,4.76,8.25,186.16-120.45,191.78-110.72,5.19,8.99-189.16,105.91-181.73,118.78,8.39,14.53,191.66-122.23,196.67-113.55,10.57,18.3-193.74,119.09-190.87,124.06,10.84,18.78,193.75-136.84,204.57-118.11,5.75,9.96-203.58,122.49-199.72,129.17,9.57,16.58,204.6-136.43,212.53-122.7,8.62,14.93-211.99,126.3-207.68,133.76,1.55,2.68,54.02-37.74,56.86-32.83s-53.62,41.11-52.02,43.89c2.35,4.07,46.15-28.34,46.88-27.07,1.15,1.99-43.45,35.73-42.06,38.14,.65,1.13,42.18-29.27,44.31-25.58,1.32,2.28-41.68,32.85-39.48,36.65s42.12-28.74,44.04-25.42-41.56,32.42-39.21,36.49c1.66,2.88,43.34-26.51,43.98-25.39,.94,1.63-39.95,35.08-39.15,36.46,1.68,2.9,42.17-28.45,43.95-25.37,2.33,4.04-40.61,33.86-39.12,36.44,.96,1.67,42.95-27.13,43.96-25.38,1.55,2.68-40.45,34.15-39.13,36.45,1.07,1.85,42.27-28.33,43.97-25.39,.93,1.61-40.97,35.88-40.26,37.1,1.74,3.01,43.64-28.59,45.11-26.04,2.01,3.49-48.32,38.86-47.07,41.03,2.39,4.14,49.55-34.07,51.91-29.97"/><path class="uuid-8bdab5f2-2bca-4495-be0a-b66361c06657" d="M573.08,187.3c2.28,3.94,41.66-28.73,43.68-25.22,3.49,6.05-83.01,58.47-81.57,60.95,4.88,8.45,128.08-88.39,134.33-77.56,3.68,6.38-158.98,87.98-151.33,101.23,8.86,15.34,171.81-121.57,181.5-104.79,8.74,15.13-199.07,114.63-192.93,125.25,8.3,14.38,210.53-136.23,216.89-125.22,5.76,9.98-230.19,134.94-225.08,143.8,10.21,17.69,234.64-160.61,245.52-141.75,9.57,16.58-256.9,149.2-251.28,158.93,1.77,3.07,63.55-43.29,66.41-38.34,1.61,2.78-73.06,49.91-70.41,54.51,2.34,4.05,55.89-36.39,57.67-33.3,2.11,3.65-63.27,43.69-60.37,48.71,2.19,3.79,59.76-40.74,62.46-36.06,1.35,2.34-67.56,44.82-64.08,50.85s67.27-41.85,68.58-39.59c3.63,6.28-70.94,50.89-69.24,53.83,2.83,4.89,72.53-45.36,74.04-42.75,3.66,6.34-77.67,49.76-73.8,56.47,1.7,2.94,76.15-49.63,78.6-45.38,1.77,3.06-79.46,55.37-77.57,58.64,3.71,6.43,78.8-53.74,82.37-47.56,4.25,7.36-83.69,55.06-80.61,60.4,1.96,3.4,84.18-51.54,85.45-49.33,4.52,7.83-84.36,59.41-83,61.78,2.76,4.78,84.28-56.93,87.86-50.73,3.88,6.73-86.9,59.09-84.76,62.79,2.41,4.18,85.95-58.11,89.62-51.74s-90.93,54.77-85.92,63.46c4.77,8.27,86.72-59.43,90.78-52.41,2.74,4.75-91.04,55.93-86.5,63.8,3.65,6.33,87.32-59.39,91.21-52.66,3.67,6.36-88.68,59.98-86.48,63.79s87.39-60.16,91.59-52.88c3.89,6.74-105.47,65.16-101.32,72.35,5.19,8.98,103.74-71.1,108.59-62.7,4.05,7.01-126.27,76.19-121.69,84.12,4.09,7.09,129.46-83.11,133.08-76.84,5.45,9.44-148.85,93.84-146.27,98.3,9.27,16.06,229.08-149.35,236.48-136.53,13.49,23.36-259.25,141.48-249.7,158.02,8.25,14.29,166.81-113.9,174.43-100.71,9.84,17.04-191.5,115.52-187.65,122.19,2.74,4.75,174.38-115.93,180.98-104.49,6.52,11.28-203.47,109.63-194.08,125.91,5.58,9.67,190.55-123.15,196.24-113.3,9.17,15.89-180.73,95.92-171.09,112.63,7.65,13.25,173.97-109.24,177.78-102.64,6.29,10.9-153.3,88.17-147.15,98.82,7.17,12.42,150.04-103.35,157.28-90.8,2.69,4.67-129.01,82.91-126.66,86.98,3.95,6.84,209.22-142.4,218.58-126.2,8.34,14.45-196.72,107.11-187.92,122.35,8.71,15.08,188.28-119.03,192.75-111.28,8.59,14.88-164.96,102.19-161.97,107.37,3.95,6.84,159.24-110.12,167.11-96.48,3.92,6.79-140.86,86.01-136.89,92.89,4.47,7.75,139.59-92.68,144.82-83.61s-137.28,75.89-129.82,88.81c3.23,5.59,139.35-85.26,141.43-81.66,5,8.65-131.31,79.52-126.91,87.13,5.34,9.26,282.76-190.71,294.65-170.12,6.42,11.13-285.83,162.44-278.71,174.77,9.26,16.04,268.34-170.31,275-158.77,4.75,8.22-264.02,151.18-257.48,162.51,10.75,18.62,238.68-168.94,252.16-145.59,8.07,13.98-238.1,137.88-232.28,147.96,3.51,6.08,218.09-141.69,224.92-129.86s-211.54,114.49-202.23,130.61c6.94,12.02,187.37-118.09,191.66-110.66s-168.09,102.1-164.28,108.7c7.49,12.97,141.8-97.25,148.46-85.71,4.05,7.01-114.26,68.09-109.18,76.89,2.84,4.92,76.13-50.85,79.12-45.68"/></g></svg>