<?xml version="1.0" encoding="utf-8"?>
<!-- Generator: Adobe Illustrator 27.0.0, SVG Export Plug-In . SVG Version: 6.00 Build 0)  -->
<svg version="1.1" id="uuid-06a46a88-3a36-45ca-bce9-2f81f82d9648"
	 xmlns="http://www.w3.org/2000/svg" xmlns:xlink="http://www.w3.org/1999/xlink" x="0px" y="0px" viewBox="0 0 1368.4 769.6"
	 style="enable-background:new 0 0 1368.4 769.6;" xml:space="preserve">
<style type="text/css">
	.st0{fill:url(#SVGID_1_);}
	.st1{fill:#FAFCFB;}
	.st2{fill:#FACF2A;}
	.st3{fill:#00933A;}
	.st4{fill:#FFFFFF;}
	.st5{fill:#E4E6D9;}
	.st6{fill:none;stroke:#000000;stroke-width:3.35;stroke-miterlimit:10;}
	.st7{fill:none;stroke:#000000;stroke-width:0.84;stroke-miterlimit:10;}
</style>
<linearGradient id="SVGID_1_" gradientUnits="userSpaceOnUse" x1="2.000000e-02" y1="386" x2="1366.02" y2="386" gradientTransform="matrix(1 0 0 -1 0 770)">
	<stop  offset="0" style="stop-color:#00933A"/>
	<stop  offset="0.2" style="stop-color:#3E7331"/>
	<stop  offset="0.4" style="stop-color:#75582A"/>
	<stop  offset="0.59" style="stop-color:#A14224"/>
	<stop  offset="0.76" style="stop-color:#C03220"/>
	<stop  offset="0.9" style="stop-color:#D4291D"/>
	<stop  offset="1" style="stop-color:#DB261D"/>
</linearGradient>
<rect x="0" class="st0" width="1366" height="768"/>
<path class="st1" d="M250.3,296.6c12.5-17.3,21.6-36.4,28.6-56.6c-0.6,9.9,0.9,19.2,5,28.1c15.3,33.2,58,42.6,86,19
	c0.7-0.6,1.4-1,2.1-1.5c0.1,0.1,0.3,0.3,0.4,0.4c-14.7,25.4-18.8,52.5-11.7,81c5.9,23.8,18.9,43.2,38.2,58.4c0.7,0.5,1.6,0.8,1.9,2
	c-6.3-0.3-12.6-0.8-18.8-1c-34-1.1-67.2,3-99.5,14c-35.2,12-63.9,32.7-86.8,62.1c-17,21.8-31.5,45-42,70.6c-0.1,0.3-0.4,0.6-0.5,0.7
	c-32.5-45.2-75-58.8-127.8-40.2c59.6-46.7,68.5-133.7,22.3-189.3c11.1,4,22,7.4,33.1,9.5c39.7,7.7,78.4,4.7,116-10.5
	c12.1-4.9,22.9-12,32.2-21.2c0.5,0.3,1.1,0.6,1.6,0.9c8.2,5,17.2,3.6,22.6-3.4C258.6,312.5,257.4,303.2,250.3,296.6L250.3,296.6z
	 M100,504.4c28.3-15.2,56.5-30.4,85.3-45.9c0,3.5-1.5,5.6-3.2,7.6c-3,3.4-6.8,5.6-10.7,7.8c-15.4,8.3-30.8,16.6-46.1,24.9
	c-1.1,0.6-2.4,1-3,2.2c-2.2,4.2-4.4,8.4-6.7,12.8c0.7,0,1,0.1,1.2,0c23-12.4,46-24.7,68.8-37.2c8.1-4.4,12.1-11.6,12.2-20.9
	c0.1-5.8,0-11.7,0-17.5c0-4.9,0-9.7,0-15.1c-26.1,14-51.6,27.8-77.1,41.5c-0.6,0.4-1.3,0.9-1.7,1.5c-2.2,4.2-4.4,8.4-6.9,13.2
	c1.2-0.5,1.6-0.7,2.1-0.9c16.1-8.6,32.1-17.3,48.2-25.9c6.8-3.7,13.6-7.3,20.4-10.9c0.7-0.4,1.9-1.9,2.5,0.2c1,3.5-0.2,6.3-3.4,8.1
	c-24.3,13.1-48.6,26.2-72.9,39.4c-1.4,0.8-3,1.4-3.8,3c-1.9,3.9-3.8,7.7-5.8,11.5c-0.1,0.3-0.2,0.5-0.4,0.8
	C99.4,504.5,99.7,504.4,100,504.4L100,504.4z M179.8,428c9.6-4.1,15.3-11.2,17.2-21.2c1.8-10.1,0.5-20.4,1-31.1
	c-1.2,0.6-1.9,0.9-2.5,1.2c-10.1,5.5-20.3,11-30.4,16.4c-0.9,0.5-2,1.9-2.9,0.9c-0.6-0.6-0.3-2.1-0.4-3.3c-0.1-1.8,1.5-2.2,2.6-2.8
	c6.8-3.7,13.3-8,20.4-10.9c9.5-3.9,10.4-13.3,14.9-20.4c-1,0.1-1.7,0.4-2.3,0.8c-26,14-51.8,28.2-78,41.9c-5.7,3-8.5,6-7.6,12.5
	c0.6,4.2,0.1,4.3,3.9,2.2c10.2-5.5,20.4-11,30.8-16.6c0.7,5.2,0.8,5.3-3.3,7.4c-7.2,3.6-14,7.7-17.9,15.2c-0.1,0.1-0.4,0-0.6,0
	c-0.6-1.5,0.3-3.2-0.7-4.8c-3.7,1.9-7.1,3.9-10.6,5.5c-1.8,0.8-1.5,2.1-1.5,3.5c0,6.6,0,13.2,0,19.8c0,6.6,0,13.3,0,20.5
	c3.7-2,6.9-3.8,10.2-5.4c1.8-0.9,2.5-2,2.5-4.1c-0.2-6.3,0-12.7-0.1-19c0-4.3,1.3-8.1,4.5-10.9c5.1-4.5,11.6-6.8,17.9-10.6
	c0,9.8,0.1,18.8-0.1,27.8c-0.1,3.2,0.8,3.4,3.3,1.9c3.1-1.8,6.2-3.5,9.4-5c1.7-0.8,2.3-1.9,2.2-3.9c-0.1-8.5,0-17-0.1-25.5
	c0-2.3,0.5-3.7,2.7-4.7c4-1.9,7.8-4.2,11.7-6.2c3-1.5,5.7-3.6,9.2-4.5C185.3,406.2,186.5,417.7,179.8,428L179.8,428z M236.8,417.7
	c1.7-5.5,5-8.4,9.4-10.7c20.3-10.7,40.4-21.6,60.6-32.5c5.5-2.9,10.6-10.1,12-16.7c-2.4,1.3-4.8,2.6-7.1,3.8
	c-33.9,18.3-67.8,36.5-101.7,54.8c-1.1,0.6-2.6,0.8-2.6,2.4c0.1,3-0.4,6,0.3,9.1c3.4-1.8,6.6-3.4,10.6-5.5
	c-3.8,7.4-7.1,14-10.9,21.3c5.1-2.7,9.3-5,14.1-7.5v20.3c1.6,0.2,2.3-0.6,3.2-1c19.1-10.2,38.1-20.7,57.3-30.7
	c17-8.9,17.4-21.8,15.5-39.7C277.4,396,257.3,406.7,236.8,417.7L236.8,417.7z M207.2,413.5c15.2-8.2,29.8-16.1,44.4-24
	c1-0.5,2.1-0.9,2.1-2.4c0-3.5,0-7,0-11.1c-4.7,2.5-8.9,4.8-13.1,7c-0.8,0.4-2.2,1.9-2.3-0.4c-0.2-3.1-0.6-6.5,0.2-9.5
	c0.6-2.3,3.8-2.6,5.8-3.9c2.3-1.4,4.6-2.7,7-3.8c1.8-0.9,2.7-1.9,2.5-4.1c-0.3-3-0.2-6-0.3-9c-3.2,0.4-5.5,2.8-8.4,4
	c-0.1,0-0.2,0.1-0.3,0.2c-6.5,3.6-6.4,3.6-6.5-3.8c0-2.9-0.2-5.6,3.4-6.6c6.6-1.8,8.5-6.3,7.6-12.8c-0.4-2.8-0.4-3.6-3.2-2
	c-9.6,5.4-19.1,11-29.1,15.6c-9,4.1-10,13.1-14.2,20.3c6.1-3.3,12.2-6.5,18.8-10.1c0,2.8-0.2,5.1,0.1,7.3c0.4,3.4-0.6,5.7-4,7
	c-2.8,1.1-5.4,2.8-8,4.3c-0.9,0.5-2.1,0.7-2.1,2c-0.1,3.7,0,7.4,0,11.5c4.3-2.3,8-4.3,11.7-6.3c0.8-0.4,2.1-1.6,2.3,0.1
	c0.3,3.2,0.4,6.6,0,9.9c-0.2,1.8-2.7,2-4.2,2.9c-2.6,1.5-5.3,3-8,4.4c-1.3,0.6-1.9,1.5-1.9,2.9C207.3,406.3,207.3,409.6,207.2,413.5
	L207.2,413.5z M258.6,385.9c5.5-3,10.5-5.4,15.2-8.4c14.5-9,23.2-22,24.2-39.1c0.7-11.4,0.1-22.8,0.1-34.2c0-0.2-0.3-0.3-0.6-0.6
	c-8.2,4.4-16.5,8.9-25.4,13.6c0-4.5,0-8.4,0-12.2c0-0.7,0.6-1.9-1-2c-1.7-0.1-6.2,3.7-6.5,5.5c-1,5.6-2.9,11.1-7.2,14.8
	c-5.6,4.9-3,10.7-3.7,16.3c2.1-0.4,3-2,4.9-1.7L258.6,385.9L258.6,385.9z M166.6,417c3.8-2,7.3-4.2,11.1-5.9
	c3.2-1.4,3.8-3.5,2.8-6.8c-3.8,2-7.3,4.2-11.1,5.9C166.1,411.6,165.6,413.7,166.6,417z M166.6,428.9c3.8-2,7.3-4.1,10.9-5.8
	c3.1-1.4,4-3.4,3-6.9c-3.6,1.9-7,4-10.6,5.6C166.7,423.2,165.4,425.1,166.6,428.9L166.6,428.9z M142.2,425c-3.9,2.1-7.6,4-11.2,6
	c-2.4,1.3-3.2,3.5-2.5,6.6c3.6-1.9,7-4.1,10.7-5.7C142.4,430.5,143.4,428.6,142.2,425L142.2,425z M128.2,449.6
	c3.8-2,7.4-4.1,11.2-5.8c3.2-1.4,3.9-3.5,2.8-6.9c-3.8,2-7.3,4.2-11.1,5.8C128,444.1,127.4,446.2,128.2,449.6L128.2,449.6z"/>
<path class="st2" d="M250.3,296.6c7.1,6.5,8.3,15.8,2.9,23c-5.4,7-14.4,8.4-22.6,3.4c-0.5-0.3-1.1-0.6-1.6-0.9
	c-4.1-4.7-6.5-10-4.9-16.4C227,294,239.5,289.6,250.3,296.6L250.3,296.6z"/>
<path class="st1" d="M372.6,284.7c0.1-0.1,0.2-0.1,0.3-0.2c0,0,0.1,0,0.2,0.1c-0.2,0-0.4,0-0.6,0L372.6,284.7L372.6,284.7z"/>
<path class="st1" d="M372.5,284.6c0.4,0.5,0.2,0.9-0.1,1.4c-0.1-0.1-0.3-0.3-0.4-0.4c0.2-0.3,0.5-0.5,0.7-0.8L372.5,284.6
	L372.5,284.6z"/>
<path class="st3" d="M179.8,428c6.8-10.3,5.5-21.8,5.6-33.5c-3.5,0.9-6.2,3-9.2,4.5c-3.9,2-7.7,4.4-11.7,6.2c-2.2,1-2.8,2.4-2.7,4.7
	c0.1,8.5,0,17,0.1,25.5c0,1.9-0.5,3-2.2,3.9c-3.2,1.5-6.3,3.2-9.4,5c-2.5,1.5-3.4,1.4-3.3-1.9c0.2-9,0.1-18,0.1-27.8
	c-6.2,3.8-12.7,6-17.9,10.6c-3.2,2.8-4.6,6.6-4.5,10.9c0.1,6.3-0.1,12.7,0.1,19c0.1,2.1-0.7,3.2-2.5,4.1c-3.3,1.6-6.4,3.4-10.2,5.4
	c0-7.2,0-13.9,0-20.5c0-6.6,0-13.2,0-19.8c0-1.4-0.2-2.6,1.5-3.5c3.5-1.6,6.9-3.6,10.6-5.5c1,1.6,0.1,3.3,0.7,4.8
	c0.2,0,0.6,0.1,0.6,0c3.9-7.5,10.6-11.6,17.9-15.2c4-2,4-2.1,3.3-7.4c-10.3,5.6-20.6,11.1-30.8,16.6c-3.8,2.1-3.3,2-3.9-2.2
	c-0.9-6.5,1.9-9.6,7.6-12.5c26.1-13.6,52-27.9,78-41.9c0.7-0.4,1.4-0.7,2.3-0.8c-4.6,7-5.4,16.5-14.9,20.4
	c-7.1,2.9-13.7,7.2-20.4,10.9c-1.2,0.6-2.7,1-2.6,2.8c0.1,1.1-0.2,2.6,0.4,3.3c1,1,2-0.4,2.9-0.9c10.2-5.4,20.3-10.9,30.4-16.4
	c0.6-0.3,1.3-0.6,2.5-1.2c-0.5,10.7,0.9,20.9-1,31.1C195.1,416.8,189.4,423.9,179.8,428L179.8,428z"/>
<path class="st3" d="M236.8,417.8c20.5-11,40.5-21.8,60.6-32.6c1.9,17.8,1.5,30.8-15.5,39.7c-19.2,10-38.2,20.4-57.3,30.7
	c-0.9,0.5-1.6,1.2-3.2,1v-20.3c-4.8,2.5-9,4.8-14.1,7.5c3.8-7.4,7.1-13.9,10.9-21.3c-4,2.1-7.2,3.8-10.6,5.5
	c-0.8-3.1-0.3-6.1-0.3-9.1c0-1.6,1.6-1.8,2.6-2.4c33.9-18.3,67.8-36.5,101.7-54.8c2.3-1.2,4.6-2.5,7.1-3.8
	c-1.4,6.7-6.5,13.8-12,16.7c-20.2,10.9-40.3,21.8-60.6,32.5C241.8,409.4,238.5,412.2,236.8,417.8L236.8,417.8z M236.1,438.8
	c15.4-8.4,30.6-16.4,45.5-24.8c4.5-2.5,6-7.3,6.5-12.9c-15.6,8.4-30.3,16.8-45.5,24.2C236.5,428.3,234.5,431.9,236.1,438.8
	L236.1,438.8z"/>
<path class="st3" d="M99.5,503.8c1.9-3.8,3.9-7.7,5.8-11.5c0.8-1.6,2.4-2.2,3.8-3c24.3-13.1,48.6-26.2,72.9-39.4
	c3.2-1.8,4.4-4.6,3.4-8.1c-0.6-2.2-1.8-0.6-2.5-0.2c-6.8,3.6-13.6,7.3-20.4,10.9c-16.1,8.6-32.1,17.3-48.2,25.9
	c-0.4,0.2-0.8,0.4-2.1,0.9c2.5-4.9,4.7-9.1,6.9-13.2c0.3-0.6,1-1.1,1.7-1.5c25.5-13.7,51-27.5,77.1-41.5c0,5.4,0,10.2,0,15.1
	c0,5.8,0,11.7,0,17.5c-0.1,9.3-4.1,16.5-12.2,20.9c-22.9,12.5-45.9,24.9-68.8,37.2c-0.2,0.1-0.5,0-1.2,0c2.3-4.4,4.5-8.6,6.7-12.8
	c0.6-1.2,1.9-1.6,3-2.2c15.4-8.3,30.7-16.6,46.1-24.9c3.9-2.1,7.7-4.4,10.7-7.8c1.7-2,3.2-4.1,3.2-7.6c-28.8,15.5-57,30.7-85.3,45.9
	C99.9,504.2,99.7,504,99.5,503.8L99.5,503.8z"/>
<path class="st3" d="M207.2,413.5c0-4,0.1-7.2,0-10.5c0-1.5,0.6-2.3,1.9-2.9c2.7-1.4,5.4-2.8,8-4.4c1.5-0.9,3.9-1.1,4.2-2.9
	c0.4-3.2,0.4-6.6,0-9.9c-0.2-1.6-1.5-0.5-2.3-0.1c-3.7,2-7.4,4-11.7,6.3c0-4.1,0-7.8,0-11.5c0-1.3,1.2-1.5,2.1-2
	c2.7-1.5,5.2-3.2,8-4.3c3.4-1.3,4.4-3.6,4-7c-0.2-2.2-0.1-4.5-0.1-7.3c-6.6,3.6-12.7,6.8-18.8,10.1c4.2-7.1,5.2-16.1,14.2-20.3
	c10-4.6,19.5-10.2,29.1-15.6c2.9-1.6,2.9-0.8,3.2,2c0.8,6.5-1,11-7.6,12.8c-3.6,1-3.4,3.7-3.4,6.6c0.1,7.4,0,7.4,6.5,3.8
	c0.1-0.1,0.2-0.1,0.3-0.2c2.9-1.1,5.2-3.5,8.4-4c0.1,3,0,6,0.3,9c0.2,2.1-0.7,3.2-2.5,4.1c-2.4,1.1-4.7,2.4-7,3.8
	c-2,1.2-5.2,1.5-5.8,3.9c-0.7,3-0.4,6.3-0.2,9.5c0.2,2.3,1.6,0.8,2.3,0.4c4.2-2.2,8.4-4.5,13.1-7c0,4.1,0,7.6,0,11.1
	c0,1.5-1.1,1.8-2.1,2.4C237.1,397.3,222.5,405.2,207.2,413.5L207.2,413.5z"/>
<path class="st3" d="M258.6,385.9V338c-1.9-0.4-2.8,1.3-4.9,1.7c0.7-5.7-1.9-11.5,3.7-16.3c4.3-3.7,6.2-9.1,7.2-14.8
	c0.3-1.8,4.9-5.5,6.5-5.5c1.5,0,1,1.2,1,2c0.1,3.9,0,7.7,0,12.2c8.9-4.8,17.2-9.2,25.4-13.6c0.3,0.3,0.6,0.5,0.6,0.6
	c0,11.4,0.6,22.8-0.1,34.2c-1.1,17.1-9.8,30.1-24.2,39.1C269.1,380.5,264.1,382.9,258.6,385.9L258.6,385.9z M270.7,344.2
	c5.3-2.8,9.8-5.3,14.3-7.7c1.2-0.6,1.5-1.4,1.5-2.7c-0.1-3-0.1-6,0-9.1c0.1-1.9-0.6-2.2-2.2-1.3c-4,2.2-8,4.4-12,6.5
	c-1.1,0.6-1.8,1.2-1.8,2.6C270.7,336.1,270.7,339.8,270.7,344.2L270.7,344.2z M270.7,371.3c8.3-6.8,12.1-15.2,14.5-25.3
	c-5,2.7-9.2,5-13.5,7.3c-0.8,0.4-1,1.1-1,1.9C270.7,360.3,270.7,365.4,270.7,371.3z"/>
<path class="st3" d="M166.6,417c-1-3.3-0.5-5.4,2.8-6.8c3.8-1.7,7.3-3.8,11.1-5.9c1,3.3,0.5,5.4-2.8,6.8
	C173.9,412.7,170.4,414.9,166.6,417z"/>
<path class="st3" d="M166.6,428.9c-1.2-3.8,0.1-5.7,3.3-7.1c3.6-1.6,7.1-3.7,10.6-5.6c1.1,3.5,0.1,5.5-3,6.9
	C173.8,424.8,170.4,426.9,166.6,428.9L166.6,428.9z"/>
<path class="st3" d="M142.2,425c1.2,3.6,0.2,5.5-3,6.9c-3.7,1.6-7.1,3.8-10.7,5.7c-0.7-3.1,0.1-5.3,2.5-6.6
	C134.6,429,138.3,427.1,142.2,425L142.2,425z"/>
<path class="st3" d="M128.2,449.6c-0.9-3.4-0.3-5.4,2.9-6.8c3.8-1.6,7.3-3.8,11.1-5.8c1.1,3.4,0.4,5.5-2.8,6.9
	C135.6,445.4,132,447.6,128.2,449.6L128.2,449.6z"/>
<path class="st3" d="M100,504.4c-0.3,0.1-0.6,0.1-0.9,0.2c0.1-0.3,0.2-0.5,0.4-0.8C99.7,504,99.8,504.2,100,504.4z"/>
<path class="st1" d="M236.1,438.8c-1.6-6.8,0.4-10.5,6.6-13.5c15.2-7.4,29.9-15.8,45.5-24.2c-0.6,5.7-2.1,10.4-6.5,12.9
	C266.7,422.4,251.5,430.4,236.1,438.8L236.1,438.8z"/>
<path class="st1" d="M270.7,344.2c0-4.4,0-8,0-11.7c0-1.4,0.7-2,1.8-2.6c4-2.1,8-4.3,12-6.5c1.6-0.9,2.2-0.7,2.2,1.3
	c-0.1,3-0.1,6,0,9.1c0,1.3-0.4,2.1-1.5,2.7C280.5,338.9,276,341.3,270.7,344.2L270.7,344.2z"/>
<path class="st1" d="M270.7,371.3c0-5.9,0-11,0-16.1c0-0.8,0.2-1.5,1-1.9c4.3-2.3,8.6-4.6,13.5-7.3
	C282.7,356.1,278.9,364.5,270.7,371.3L270.7,371.3z"/>
<g>
	<path class="st4" d="M1244.6,395.9c23-0.6,37.9,11.1,47.5,31c2.2,4.5,4.6,8.9,6.8,13.4c7.5,15.6,20.4,22.8,37.2,23.6
		c6.6,0.3,13.2,0,19.6-0.1c-6.2,4.7-21.1,7.8-33.9,6.8c-13.3-1.1-24.5-5.8-32.1-17.5c-0.6-0.9-2.5-1.8-3.5-1.6
		c-14.4,3.9-28.8,8-44.5,12.3c4,2.8,7,5.2,10.2,7c1.1,0.6,3.2,0.2,4.6-0.3c5.4-2.2,10.6-4.9,16.1-6.9c1.8-0.7,4.6-0.4,6.2,0.6
		c4.3,2.5,8.2,5.6,13.3,9.1c-7.5,3.5-14.3,6.6-21.9,10.1c9.5,6.7,18.5,13,27.6,19.4c-5.5,5.4-8.4,5.7-13.6,2
		c-6.8-4.8-13.8-9.4-20.4-14.4c-2.8-2.1-5.1-2.1-8.2-0.6c-7,3.4-14.2,6.5-21.4,9.5c-14.5,6.1-30.7-1.5-34.2-16.7
		c1.4,1.2,2.4,2.1,3.4,3c4.4,3.6,9.3,4.5,14.5,2.2c8.2-3.6,16.4-7.4,25.6-11.5c-4.7-3.3-8.8-6.2-12.9-9c-3.6-2.5-7.2-4.9-10.6-7.5
		c-1.2-0.9-1.9-2.4-2.9-3.7c1.3-0.9,2.5-2.2,4-2.6c10.9-3.2,21.8-6.1,32.7-9.2c9.8-2.7,19.5-5.5,30.2-8.5
		c-3.2-7.4-5.7-14.7-9.3-21.3c-5.1-9.5-14.2-13.6-24.2-16.2c-2-0.5-3.9-1.7-5.8-2.5L1244.6,395.9L1244.6,395.9z"/>
	<path class="st4" d="M1143.1,342.2c8.7,6.1,17.5,12.2,26.2,18.4c4.8,3.4,4.7,5.1-0.6,7.5c-20.8,9.4-41.7,18.6-62.5,27.9
		c-4,1.8-7.7,1.5-11.3-1c-17.7-12.5-35.5-24.8-53.2-37.3c-4.4-3.1-4.2-5.2,0.6-7.3c20.8-9.3,41.7-18.6,62.5-27.9
		c4.3-1.9,8.2-1.5,12.2,1.4C1125.6,330.1,1134.4,336.1,1143.1,342.2L1143.1,342.2L1143.1,342.2z M1062.3,360.6
		c9.7,6.8,19,13.2,28.1,19.8c2.5,1.8,4.5,1.9,7.2,0.7c12.2-5.6,24.6-11,36.8-16.6c4.6-2.1,9.3-4.2,14.8-6.6
		c-10.7-7.5-20.6-14.5-30.5-21.2c-0.9-0.6-2.9-0.2-4.1,0.3c-16.1,7.1-32.2,14.3-48.3,21.5C1065.2,358.8,1064.1,359.5,1062.3,360.6
		L1062.3,360.6z"/>
	<path class="st4" d="M1244.5,395.8c1.4,1.7,2.6,3.8,4.3,5.1c9,6.5,18.2,12.8,27.4,19.3c-5,5.3-8.3,5.9-13.3,1.9
		c-3.8-3.1-6.9-3.3-11.5-1.2c-20.4,9.5-40.9,18.7-61.5,27.7c-17.4,7.6-34.8,8.8-51.8-1.4c-7.2-4.3-13.1-10.1-16.6-19.7
		c18.7,17.8,38.2,15.6,58.3,6.7c20.1-8.9,40.1-17.9,61-27.3c-18.1-12.7-35.7-25-53.4-37.4c6.8-5.5,8.5-5.6,14.7-1.3
		c12.3,8.6,24.5,17.2,36.9,25.7c1.6,1.1,3.8,1.3,5.6,2C1244.6,395.9,1244.5,395.8,1244.5,395.8L1244.5,395.8z"/>
	<path class="st4" d="M1080.3,294c-18.4-12.9-35.9-25.2-53.6-37.5c6.7-5.3,8.1-5.4,14.4-1c23.3,16.3,46.7,32.6,70,49
		c1.4,1,2.8,2.2,4.2,3.3c-6.3,5.3-8.2,5.6-13.6,1.4c-3.5-2.7-6.3-3.2-10.7-1.2c-20.7,9.6-41.5,19-62.4,28
		c-17.4,7.5-34.8,8.6-51.7-1.6c-7-4.3-12.8-9.9-16.3-19.3c2.4,2.1,3.8,3.3,5.2,4.4c13.8,10.6,29.2,11.3,44.5,5.1
		c20.8-8.3,41.2-17.9,61.7-27C1074.6,296.6,1077,295.5,1080.3,294z"/>
	<path class="st4" d="M1200.4,393.1c4.2,3,8.5,5.9,12.7,8.9c4,2.9,4,4.8-0.3,6.7c-15,6.8-30,13.5-45.1,20.1c-3.8,1.7-7.4,1-10.9-1.4
		c-8.3-5.9-16.7-11.6-24.9-17.5c-4.3-3-4.1-5.1,0.8-7.3c14.4-6.5,28.8-12.9,43.3-19.4c4.5-2,8.6-1.6,12.6,1.5
		C1192.4,387.6,1196.4,390.3,1200.4,393.1L1200.4,393.1L1200.4,393.1z M1149,409.6c9.2,9,9.8,9.1,20.5,4.3c4.2-1.9,8.5-3.8,12.7-5.7
		c4.5-2,8.9-4,14.3-6.4c-4-2.8-7-5.1-10.2-7c-0.9-0.5-2.6-0.5-3.7,0C1171.6,399.4,1160.6,404.4,1149,409.6L1149,409.6z"/>
	<path class="st4" d="M983.5,306.1c-4.4-3.1-8.8-6-13.1-9.2c-3.6-2.6-3.5-4.7,0.5-6.5c15-6.8,30-13.7,45.2-20
		c2.8-1.2,7.5-0.5,10.2,1.1c8.9,5.5,17.3,11.8,25.9,17.9c4.1,2.9,3.8,4.9-0.9,7c-14.4,6.5-28.9,12.9-43.3,19.4
		c-4.5,2-8.6,1.8-12.7-1.3C991.5,311.5,987.5,308.9,983.5,306.1L983.5,306.1z M988,296.9c9.4,9,10,9.1,20.6,4.3
		c3.9-1.8,7.9-3.5,11.8-5.3c4.8-2.2,9.5-4.4,15-7c-3.8-2.7-6.9-5-10.1-7c-0.9-0.6-2.6-0.6-3.6-0.1
		C1010.7,286.7,999.6,291.7,988,296.9L988,296.9z"/>
	<path class="st4" d="M955.3,314.1c7.6,22.9,27.6,31.8,46.9,40.9c17.6,8.3,35.9,15.2,53.6,23.2c20.1,9.1,33.5,24.2,39.1,45.9
		c0.7,2.5,1.1,5.1,1.3,7.9c-9.5-13.3-17.7-28.2-37.8-25.6c-1.9-15.6-14.1-22.2-26-28.5c-14.8-7.9-30.3-14.5-45.3-22.1
		c-12-6.1-23.1-13.6-29-26.4c-2.1-4.6-2.8-9.8-4.2-14.8C954.3,314.5,954.8,314.3,955.3,314.1L955.3,314.1z"/>
	<path class="st4" d="M1231.2,475.7c-22.8,4.2-43.2,1.2-62.3-10c10.7,0.2,21,0.4,31.4,0.5c1,0,2.1,0.1,3-0.3
		C1214.8,461.5,1222.3,468.7,1231.2,475.7L1231.2,475.7z"/>
	<path class="st4" d="M1273.1,504.6c-7.3,6.6-21.6,5.3-19.7,19.8c-5.2-1.1-12-7.5-12.6-12.6c-0.8-6.3,3.4-9.5,7.9-12.7
		c6-4.2,11.7-5.6,17.5,0.5C1268,501.6,1270.6,502.9,1273.1,504.6L1273.1,504.6z"/>
</g>
<g>
	<g>
		<rect x="580" y="44.3" class="st5" width="228" height="669.4"/>
		<rect x="591.2" y="55.3" class="st6" width="204.5" height="644.9"/>
		<rect x="601.8" y="68.4" class="st7" width="184.1" height="621.4"/>
	</g>
	<g>
		<g>
			<path d="M663.3,184.9c2-11.1,4.1-22.2,6.1-33.3c0.4-2.1,0.3-4.3,0.3-6.4c0.1-3.4,1-6.3,4.1-8.5c0.2,0,0.7,0.2,1.1,0.3
				c4,0.9,6.2,3.5,6.8,7.6c0.3,2.6,0.6,5.3,1.6,8.3c1.3-2.3,2.5-4.7,4.1-6.9c1.8-2.6,1.2-4.8,0.1-7.4c-2.5-5.8-1.5-7.2,3.4-12.1
				c3-3,5.2-7.1,7.3-10.9c4.1-7.5,7.9-15.1,11.8-22.7c1.2-2.5,2.2-5.1,3.2-7.7c0.3-0.7,0.6-1.9,0.2-2.4c-1.9-2.3,0.2-3.4,1.1-4.9
				c1.4,0.4,2.9,0.6,4,1.3c4.4,2.6,5.5,6.1,3,12c-2.5,5.8-5.7,11.4-8.6,17c-0.3,0.7-0.6,1.4-0.7,2.3c8.1-4,13.8-11,20.5-16
				c2.1,1.1,3.6,2.2,5.3,2.8c4.5,1.6,5.8,5.5,2.8,9.5c-2.1,2.9-4.2,5.8-6.3,8.8c-0.5,0.7-1,1.4-1.2,2.2c-1.5,5.2-4.4,9.4-9.4,13.3
				c4.8,2,8.8,3.9,13,5.3c3.2,1.1,6.6,1.7,10,2c7.6,0.6,14.3,3.7,20.6,7.8c1,0.7,1.9,1.7,3.5,3.3c-3.9,0.3-6.9,0.6-9.9,0.7
				c-4.8,0.2-9.6,0.2-14.4,0.3c-7.5,0.2-14-2.6-20.4-6.1c-2.8-1.5-5.4-3.4-8.3-4.8c-1-0.4-2.8,0-3.8,0.7
				c-5.8,4.3-11.3,8.9-17.1,13.2c-4.3,3.2-8.8,6.1-13.2,9.2c-0.7,0.5-1.5,1.3-1.6,2c-0.5,5.2-3.1,9.3-6.7,13.7
				c-1.6-2.6-3.1-5.1-5-8.3c-0.4,2.2-1,4-1,5.8c-0.1,3.3-0.1,6.6,0.4,9.8c0.4,3-1,5.1-2.4,7.4c-2.5,4-5.1,7.8-7.4,11.9
				c-1.2,2.1-2.3,2.4-4.1,1c-3.6-2.7-5.4-8.5-4-12.8c0.3-1,0.5-2,0.5-3c1.1-17.5,2.1-34.9,3.1-52.4c0.1-1.9,0-3.9-0.3-5.8
				s-1.2-3.4-3.8-1.9c0.7-1.6,1.2-2.8,1.8-4.1c-0.2-0.2-0.5-0.3-0.7-0.5c-3.2,4.2-8.6,6.2-10.1,12.3c-0.6,2.4-3.5,4.4-5.7,6.3
				c-2.7,2.4-5.5,4.6-8.5,6.7c-3.4,2.4-6,1-6.5-3.1c-0.3-3.6,0.3-6.5,3.4-9c2.4-1.9,4-4.7,6.1-6.8c2.6-2.6,5.6-4.8,8.2-7.4
				c4.8-4.9,9.5-9.9,14.1-15.1c3.2-3.7,6.6-7.3,9.2-11.4c1.7-2.8,2.3-6.4,3.1-9.8c0.5-2,4.5-4.3,6.7-3.4c5.6,2.3,6.9,3,4.6,9.9
				c-2.8,8.5-8.7,14.8-14.8,20.9c-2.6,2.6-5.2,5.2-7.7,7.8c0.1,0.2,0.2,0.5,0.3,0.8c1.1-0.2,2.2-0.4,3.2-0.8
				c1.7-0.7,3.2-1.5,4.7,0.3c1.3,1.5,1.3,2.8-0.2,4.3c-0.5,0.4-0.5,1.5-0.5,2.3c-0.1,7.3-0.3,14.6-0.3,21.9c0,7.6,0.4,15.2,0.4,22.8
				c0,3.3-0.5,6.5-0.7,9.8C662.4,184.8,662.8,184.8,663.3,184.9L663.3,184.9z M710.5,124.1c5.8,2.8,6.3,2.8,9.5-1
				c2.1-2.5,4-5.2,5.7-8c1.3-2.3,2.1-5,3.2-7.5c-0.4-0.3-0.8-0.5-1.2-0.8C721.9,112.4,716.3,118.1,710.5,124.1z M688.1,151.1
				c0.7-0.4,1.4-0.8,2-1.4c5.5-4.8,10.9-9.7,16.3-14.6c2.7-2.5,2.6-3.7-0.3-5.9C697.8,134.5,692.3,142.2,688.1,151.1L688.1,151.1z"
				/>
			<path d="M655.4,230c11-7.5,21.8-15.2,32.9-22.5c6.6-4.3,13.6-8,20.5-11.9c12.8-7.2,23.5-16.7,30.5-29.8c0.9-1.8,1.5-3.7,2.4-5.8
				c-1.3-0.4-2.1-0.7-2.9-0.9c-0.1-0.3-0.3-0.6-0.4-0.8c1.7-1,3.3-2,5.3-3.3c1.8,1.1,3.9,2.2,5.9,3.6c1.8,1.2,3,2.7,1.6,5.2
				c-1.7,3.1-2.8,6.7-4.8,9.6c-5.1,7.4-10.2,15-16,21.8c-7.3,8.6-17.3,12.9-28.2,15.8c-7.8,2.1-15.3,5.3-22.7,8.5
				c-8,3.5-15.7,7.6-23.6,11.4C655.7,230.4,655.6,230.2,655.4,230L655.4,230z"/>
			<path d="M713.6,186.6c-1.4,0.3-2.9,0.6-4.5,0.9c-2.9-1.9-4.3-4.4-3-8.4c1.1-3.2,2.3-5.9,5.3-7.6c2-1.2,3.8-2.9,5.7-4.3l-0.7-1
				c-2.4,1.4-4.8,2.9-7.3,4c-4.8,2.1-9.7,4-14.5,5.9c-1.8,0.7-2.9,0.1-3-2.1c-0.2-4.3,0.7-8.1,4.5-10.9c2.1-1.5,4-3.2,6-4.8
				c0.5-0.4,1.1-0.9,1.2-1.4c1.1-5.2,5.6-4.5,9.2-5.2c1.1-0.2,2.6,1.2,3.9,1.8c-0.5,1-1,2.1-1.7,2.9c-2.2,2.6-4.6,5.1-6.6,8
				c5-1.1,10.2-1.7,13.2-6.6c1.6-2.6,3.4-2.6,6-0.2c1.8,1.7,3.9,3.2,6.6,5.3c-0.9,1.4-1.8,3.5-3.3,5c-4.1,4.4-8.6,8.6-12.8,13
				C716.3,182.9,715,184.8,713.6,186.6L713.6,186.6z"/>
		</g>
		<g>
			<path d="M638.2,322.3c-4.1,2-7.2,3.6-10.4,5.1c-4.5,2.2-9,4.5-13.6,6.3c-3.1,1.2-5.6-0.8-7.5-5.2c-0.9-2.2,0.1-5.9,2.2-7.1
				c0.8-0.5,2-0.6,2.9-0.5c2.1,0.2,3.4-0.7,3.8-2.7c0.3-1.5,0.9-1.8,2.4-1.7c5.6,0.4,10-2.8,14.5-5.3c1.2-0.7,1.8-3.2,1.9-4.9
				c0.2-2.6-0.3-5.2-0.4-7.8c5.8-2.4,6.3-3.4,5.2-9.6c-3.8,2.8-7.6,5.5-9.5,9.7c-0.8,1.7-0.3,4.2,0.1,6.3c0.3,1.9,1.1,3.7,1.7,5.6
				c-0.3,0.2-0.5,0.4-0.8,0.6c-1-0.7-2.2-1.4-3.1-2.3c-1.9-1.9-3.6-3.9-5.3-5.9c-0.3-0.4-0.7-1.1-0.6-1.5c1.4-4.4-1.3-8-2.7-11.7
				c0.2-0.2,0.4-0.4,0.6-0.6c0.9,0.9,1.8,1.7,2.6,2.7c1,1.1,1.8,2.2,2,2.2c3.2-2.6,6.3-5.3,9.6-7.8c1.7-1.3,3.4-2.6,5.2-3.5
				c1.4-0.7,2.1-1.5,2-3.2c-0.1-3.1,0-6.2,0-9.3c-2.9-0.6-4.1,1.2-5.5,2.7c-1.2,1.3-2.3,2.7-3.6,3.8c-3.1,2.7-5.6,2.7-7.9-0.7
				c-2-3-4.4-3.1-7.3-2.3c-0.5,0.1-1.1,0.3-1.6,0.4c-2.5,0.4-5.1,0.8-7.7,0.8c2.8-1.2,5.6-2.3,8.3-3.6c4.3-2.2,4.3-2.2,2.4-6.7
				c-0.1-0.3-0.2-0.7-0.3-1.1c2.8,0.3,5.6,0.1,6.3,4.1c5.1-2.5,10-4.8,14.8-7.3c0.9-0.5,1.7-2.1,1.8-3.2c0.2-2.4,0-4.8-0.1-7.2
				c-0.1-3.6,0.1-7.2-3.4-9.6c-0.4-0.2-0.5-0.7-0.8-1.1c-0.1-0.1,0-0.4-0.1-1.3c3.1,0.7,6.2,1,9,2.1c2.4,1,2.5,3.7,2.5,6
				c0.1,3,0,6,0,8.9c4.8-1.1,9.2-2.1,13.7-3.1c3.3-0.7,10.4,3.2,11.5,6.4c1.1,3.5-1.7,8.1-5.4,8.4c-2,0.2-4-0.1-6,0.1
				c-4.1,0.4-8.2,1-12.2,1.5c-1.5,0.2-2.1,0.9-1.9,2.4c0.3,2.5,0.6,4.9,0.9,7.8c2.1-0.7,4-1.5,5.9-2.1c3.2-0.9,6.4-2,9.9-0.7
				c3.8,1.5,4.9,2.9,4.4,7c-0.5,4.1-1,8.2-3.3,11.8c-1.1,1.8-1.8,3.9-3,6.7c6.1-1.9,11.5-3.5,17.2-5.3c-0.8-0.8-1.2-1.3-1.7-1.7
				c3.6-0.3,7-0.7,11.3-1.1c-1.3,1.6-2.1,2.9-3.2,3.8c-5.1,3.7-10.3,7.3-15.6,10.9c-1.5,1-3.1,2.1-4.9,2.5c-3.7,0.8-5.2,3.3-6.1,6.6
				c-0.3,0.9-0.7,1.8-1.1,3c-2.2-1.6-4-2.9-5.9-4.3c-5.2,1.2-7.2,3.8-7,9.2c0,0.8,0.1,1.7,0.2,2.5c0.5,4.9,1.1,9.8,1.6,14.6
				c0.4,4.7,0.9,9.5,1.1,14.3c0.2,4.4-0.9,8.6-3,12.4c-0.3,0.6-0.6,1.1-0.8,1.8c-1.6,4.2-3.2,8.4-5.1,12.7v-12.8
				c-0.9,0.2-1.4,0.4-1.8,0.5C633.9,354.8,637.5,339,638.2,322.3L638.2,322.3z M658.1,293c1.1-4.4,2-8.1,2.8-11.8
				c0.1-0.3-1.2-1.3-1.7-1.2c-2.9,0.9-5.7,1.8-8.5,3c-2.9,1.2-4.4,5.1-3.5,8.5C650.7,290.7,654.3,289.1,658.1,293L658.1,293z
				 M657.1,294.9c-0.2-0.2-0.5-0.5-0.7-0.7c-2.7,1.7-5.5,3.3-8.1,5.3c-0.9,0.7-1.8,2.9-1.4,3.3c1,1.2,2.7,2.3,4.2,2.5
				c1.1,0.2,3.2-0.8,3.6-1.7C655.9,300.8,656.4,297.8,657.1,294.9L657.1,294.9z M633.2,315.8c-0.1-0.2-0.2-0.5-0.3-0.7
				c-2.6,1.3-5.3,2.6-7.9,4c0.2,0.3,0.3,0.7,0.5,1C628.1,318.6,630.7,317.2,633.2,315.8z M611.9,325.7c1.6,1.2,3.6,0.7,6.4-2.1
				C616.2,324.3,614.1,325,611.9,325.7z"/>
			<path d="M704.7,364.4c-1.1,2.1-2.2,4-3.2,5.9c-0.3,0-0.5,0-0.8,0c-0.2-3.5-0.4-7-0.7-10.5c-0.3-2.7-0.7-5.4-1-7.9
				c-0.2-0.1,0.5,0.2,1.1,0.4c0.9-7,1.8-13.8,2.6-20.7c-5.3,1.1-7.6,3.4-7.7,8.4c0,3,0.5,6.1,1,9.1c0.3,1.9-2.7,9.1-4.6,9.5
				c-0.8,0.2-2.2-0.5-2.8-1.2c-2.5-3.3-4.3-6.8-3.2-11.2c0.6-2.4,0.5-5,0.8-7.7c-2.8,0.7-5.1,1.3-7.4,1.8c-1.5,0.3-1.7,1.1-1.5,2.6
				c0.5,4.6,0.8,9.3,1,14c0.1,2.2-4.4,4.3-6.7,3.2c-2.3-1.2-5-2.1-5.9-4.9c-0.5-1.5-0.7-3.2-0.7-4.9c0-1.9,0.5-3.8,0.4-5.8
				c-0.1-6.1-0.4-12.1-0.6-18.2c0-1.7-0.1-3.6,0.4-5.2c0.3-1.2,1.5-2.9,2.4-3c2.5-0.2,3.8-1.9,5.6-3.2c9.6-6.6,19.2-13.1,31.3-13.9
				c1.9-0.1,3.9-0.4,5.7-1.2c4.1-1.8,8.3-1.3,12.5-1c5.1,0.3,9.6,6.8,8.5,11.8c-0.5,2.3-0.5,4.7-0.8,7c-0.4,3-0.5,6-1.4,8.9
				c-1.6,5-1.3,9.9-0.8,14.9c0.1,1.2,0,2.4-0.1,3.6c-1.1,8-2.3,16-3.2,24c-0.2,2-1.2,2.6-2.7,3.7c-4.2,3.1-6.7-0.1-9.5-1.9
				c-2.2-1.3-4-3.3-5.9-5C706.1,365.5,705.5,365.1,704.7,364.4L704.7,364.4z M673.6,333.2c0.3-0.3,0.5-0.5,0.8-0.8
				c1.8-0.3,3.7-0.9,5.5-0.7c4.8,0.6,8-2,7.7-6.8c-0.1-1-0.1-2-0.3-3c-0.4-2-0.7-4.1-4.4-2.9c1.6-2.6,3.1-4.2,5.4-4.4
				c0.9-0.1,2.3,0.7,2.7,1.5c1.3,2.3,2.5,4.7,3.4,7.2c0.6,1.6,1.4,2,2.9,1.2c0.7-0.3,1.4-0.5,2.1-0.8c5.3-2.1,5.3-2.1,5.2-8
				c0-2.9,0-5.8,0-9.1c1.5,0.6,2.3,1,3.5,1.4c0,3.8-0.1,7.5,0.1,11.2c0,0.6,1.3,1.5,2.1,1.6c3.8,0.7,7.7,1.2,11.8,1.9
				c0.1-0.3,0.5-1.1,0.6-2c0.6-3.9,1.2-7.8,1.6-11.7c0.6-5.5-3.1-8.7-8.4-7c-7.3,2.2-14.5,4.7-21.7,7.2c-4.8,1.7-9.5,3.9-14.3,5.8
				c-2.2,0.9-4.7,1.4-6.5,2.8c-1.6,1.2-3.7,3.6-3.4,5C670.5,326.4,672.3,329.8,673.6,333.2L673.6,333.2z M721.9,324.9
				c-3.9,0.8-7.2,1.4-10.3,2.3c-0.9,0.2-1.7,1.5-2,2.4c-0.5,1.5-0.7,3-0.8,4.6c-0.2,6-0.3,12.1-0.5,18.1c0,1.6-0.6,3.3-0.1,4.6
				c0.4,1.2,1.9,2.1,3.2,2.7c0.3,0.2,1.8-1.2,2.1-2c1.1-3.7,2-7.5,2.9-11.2C718.1,339.4,719.9,332.4,721.9,324.9L721.9,324.9z"/>
			<path d="M701.5,234.5c1.1-0.2,2.7-1.1,4.2-0.8c3.7,0.6,4.7,3.3,3.9,7c-1.5,6.6-4.2,12.6-8.4,18.7c1.6,0.3,2.8,0.8,3.9,0.6
				c3.6-0.7,6.2,0.4,8.4,3.2c5.1,6.6,12.7,9.5,19.5,13.6c1.6,1,3.8-0.7,5.6,1.1c2.9,3,7,2.9,10.8,3.1c9.1,0.5,18.1,1.7,26.8,4.9
				c2.1,0.8,4.2,1.7,6.3,2.5c0,0.4,0.1,0.7,0.1,1.1c-1.7,0.6-3.3,1.6-5,1.8c-7.9,0.7-15.8,1.2-23.7,1.6c-6.5,0.3-12.6-1.2-18.4-4.1
				c-3.2-1.6-6.2-3.6-9.5-5c-1.8-0.8-3.9-0.8-5.8-1.1c0.4-0.3,1.1-0.7,1.9-1.1c-0.4-0.5-0.6-0.9-1-1.2c-5.3-3.7-10.5-7.4-15.8-11.1
				c-1.4-1-2.6-2-3.9-3c-2.1-1.6-4-1.6-5.8,0.4c-5.4,5.9-10.7,11.9-16,17.8c-1.5,1.6-2.7,3.5-4.2,5.1c-0.7,0.7-1.8,1-2.7,1.5
				c-2.9-4.5-2.2-10.2,2.2-13.1c5.1-3.3,8.3-8.2,12.2-12.5c6.9-7.6,11.4-16.6,14.1-26.4C701.6,238,701.4,236.6,701.5,234.5
				L701.5,234.5z"/>
			<path d="M713.9,284.5c0.7,3.6-3.5,2.3-4.1,4.5v-2.1c-0.5-0.1-0.8-0.3-1.1-0.2c-2.8,0.8-5.7,1.6-8.4,2.6c-5.2,2-11.3,1.4-16.1-1.9
				C693.9,283.9,703.6,282.2,713.9,284.5L713.9,284.5z"/>
		</g>
		<g>
			<path d="M635.7,594.4c-2.4-1.8-4.7-3.5-6.9-5.2c-0.2-0.2-0.6-0.4-0.6-0.6c-0.1-2.8-0.8-5.9,0.1-8.5c0.9-2.5,3.1-4.7,5.2-6.7
				c4.4-4.2,9.1-8,13.5-12.1c2-1.9,3.8-4,6-6.4c0.9,1.1,1.7,2.1,2.1,2.6c2.3-0.4,4.9-1.6,6.2-0.8c2,1.2,1.7,3.8-0.1,5.6
				c0.3,0.4,0.5,0.6,0.5,0.6c4.1-1.4,6.9,1.6,10.1,3.2c2,1,2.6,2.2,1.1,4.3c-5.8,8.1-11.4,16.2-17.1,24.3c-0.7,1-1.3,2-2.1,3.2
				c3.8,2.4,2.8,6.1,3.1,9.6c0.7,8.4-1.1,16.5-2.1,24.8c-0.7,6.5-0.2,13.2-1,19.7c-0.7,5.7-1.7,11.5-5.9,16.2
				c-1.6,1.8-3,3.9-4.6,5.9c0-11.4-0.6-22.9,0.2-34.3c0.8-11.4,3.1-22.8,4.8-35c-12.6,9.7-22.8,21.3-37.4,26.4l0.1-0.9
				c-1.2-1-2.6-1.8-3.5-3c-0.8-1.1-1.2-2.6-1.6-3.9c-0.8-2.7,1.2-8.2,3.8-9.2c10-4.2,18.2-11.4,26.9-17.5c8.6-6,16.1-13.3,22-22.1
				c0.5-0.7,0.9-1.3,1.3-2c0.1-0.2,0.1-0.4,0.2-1.5c-2.9,1.6-5.7,2.5-7.7,4.4c-3.3,3.2-6.1,7.1-9.1,10.7
				C641,588.8,638.6,591.3,635.7,594.4L635.7,594.4z"/>
			<path d="M690.6,602.6c-5.7,1.8-11.5,3.2-15.4,8.2c-1.4,1.8-2.8,1.1-4.1,0c-3.5-2.8-6.2-6-4.8-11.3c2.1-0.9,3.9-0.8,4.8,2.1
				c0.5,1.8,1.6,2.3,3.4,1.5c4.9-2.4,9.8-4.5,14.7-7c1-0.5,1.9-2.1,1.9-3.2c0.3-6.8,0.2-13.7,0.5-20.5c0.1-2.1,0.9-4.2,1.8-6.1
				c0.7-1.5,4.8-0.9,6.4,1.2c1,1.2,1.5,2.9,1.9,4.5c0.9,4,1.5,8.1,2.4,12.1c0.6,2.8,2.8,4.3,5.2,5.4c1.1,0.5,2.2,1,3,1.8
				c0.9,0.8,2.2,2.3,1.9,2.8c-0.5,1.2-1.8,2.3-3.1,2.9c-1,0.5-2.4,0.1-3.5,0.3c-3,0.5-6.1,0.8-9,1.7c-0.9,0.3-1.9,1.8-2,2.9
				c-0.3,3-0.2,6-0.3,9c-0.1,1.9,0.8,2.1,2.4,2c7-0.4,14-0.8,21-0.9c1.1,0,2.9,1,3.1,1.8c0.4,1.7-0.4,3.3-2.6,3.7
				c-4,0.6-8,1-11.9,1.8c-3.3,0.7-6.6,1.8-9.9,2.7c-2,0.5-2.8,1.6-2.6,3.7c0.8,9.5,1.8,19,2.3,28.5c0.2,4.7-0.3,9.4-0.7,14.1
				c-0.2,2.2-1.9,2.9-3.9,2c-2.1-1-3.7-2.4-4.7-4.7c-1.8-3.9-2.7-7.8-3.2-12c-0.8-6.1-2.6-12.1-4-18.2c-0.1-0.4-0.2-0.8-0.2-1.2
				c-0.5-3.4-2.4-4.6-5.6-3.6c-1.7,0.5-3.8-1-3.6-3c0.4-3.1-0.2-6.5,2.7-8.9c2.5-2.1,4.6-4.9,6.8-7.2c2.4-2.6,4.6-4.1,7.8-4.7
				C691.5,606.1,691.3,604.6,690.6,602.6L690.6,602.6z M689.1,625c-4.6,0.9-5.1,1.5-5,5.8c0.1,1.9,0,3.8,0.4,5.7
				c1.2,5.6,2.6,11.1,3.9,16.7c0.2-0.1,0.5-0.1,0.7-0.2V625L689.1,625z M702.5,592.8c-1.9-4.3-3.6-8.1-5.3-11.9
				c-0.6,3.7-0.6,7.3-0.5,10.9c0,0.5,1,1.2,1.5,1.3C699.4,593.2,700.6,593,702.5,592.8L702.5,592.8z"/>
			<path d="M739.5,594.2c-3.4,2.4-6,4.5-8.8,6.1c-3.5,2-7,3.9-10.7,5.4c-1.3,0.5-3.6,0.3-4.6-0.5c-1.5-1.3-3.1-3.5-3-5.3
				c0-2.3,2.2-4.1,4.8-4c2,0,3.4-0.8,4.5-2.4c0.4-0.6,1.6-1.3,2.1-1.1c2.7,1,4.1-0.7,5.8-2.2c0.9-0.8,1.6-3,3.5-1
				c0.2,0.2,1.1-0.3,1.6-0.6c7.8-3.3,15.7-6.5,23.4-10.1c5.8-2.7,12-3.2,18.1-3.9c1.5-0.2,3.2,0.4,4.7,0.7c0.1,0.5,0.2,0.9,0.2,1.3
				c-3.1,1.3-6.2,2.7-9.4,3.8c-6.5,2.3-13.1,4.3-19.6,6.7c-3.2,1.2-6.1,3.1-9,4.8c-0.8,0.4-1.7,1.3-1.7,2.1c0,0.5,1.2,1.2,1.9,1.8
				c0.8,0.7,1.8,1.3,2.3,2.1c0.6,0.9,1,2,1,3.1c0.5,9.5,2.8,18.8,1.9,28.4c-0.9,9.2-1,18.5-1.5,27.8c-0.2,2.8-0.7,5.5-1,8.3
				c-0.3,4-3.9,3.6-6.3,4.5c-1.9,0.7-4.1,0.5-5.2-2.1c-2.7-6.3-9.1-8.1-14.3-11.4c-2.1-1.3-4.3-2.3-6.3-4.1c5.4,1,10.9,2,16.3,3
				c7,1.3,5.8,1.3,7-4.5c3-14.7,5.2-29.5,4.3-44.6C741.6,602.7,740.4,598.9,739.5,594.2L739.5,594.2z"/>
			<path d="M760.3,568c-5.7,7.3-14,9.7-20.4,14.1c-1.4-0.1-2.8-0.3-4.2-0.2c-3.2,0.1-4.9-2.1-3.6-5c0.7-1.4,1.4-2.5,3.5-1.5
				c1,0.5,2.8,0.2,4-0.3c4-1.9,7.8-4.1,11.8-6C754,567.8,756.7,566.6,760.3,568L760.3,568z"/>
			<path d="M717.4,588.3c-1.4-4.1-2.8-8-4.2-12.1c1.7-1.3,6,0.6,8.6,4.2C723.1,582.3,721.7,584.9,717.4,588.3L717.4,588.3z"/>
		</g>
		<g>
			<path d="M715.1,484.8c-0.8,1.7-1.4,3.4-2.3,5.1c-0.9,1.7-1.7,3.6-3,5c-2.1,2.2-4.5,4.2-7,6c-1.7,1.2-2.9,3.3-4.2,5.1
				c-0.8,1-1.3,2.2-2,3.5c0.8,0.5,1.8,1.2,2.9,1.8c3,1.6,6,3.2,9.1,4.7c1,0.5,2.2,0.9,3.3,1.2c1.9,0.5,3.1,1.8,4,3.4
				c0.8,1.4,1.8,2.6,2.8,4c-1,0.8-1.2,1.5-0.5,2.5c0.5,0.7,0.4,1.8,0.4,2.8c0,0.3-0.3,0.7-0.5,0.8c-2.3,1.2-4.7,1.5-7.2,0.7
				c-6.3-2-11.6-5.8-17.1-9.3c-1-0.6-1.8-1.6-2.7-2.4c-1.7-1.5-2.8-1.6-4.8-0.4c-0.4,0.2-0.8,0.4-1.3,0.5c-1.9,0.6-3.8,1-5.7,1.7
				c-2.4,0.9-4.7,2-6.9,3.1c-1.1,0.5-2.1,0.6-3.4,0.5c-1.7-0.2-3.5,0.9-5.3,1.3c-1.2,0.3-2.6,0.3-3.8,0.5c-1.2,0.2-2.3,0.2-3.4,0.6
				c-1.8,0.6-3.6,1.5-5.3,2.2c-1.9,0.8-3.9,1.7-5.7,2.5c-0.9-0.3-2-0.6-3.2-0.9c1-0.9,2-1.9,3.2-2.8c2.6-2.2,5.3-4.5,8-6.6
				c2.7-2.1,5.1-4.5,8.3-6c1.7-0.8,2.9-2.4,4.4-3.5c2.2-1.6,4.5-3.1,6.8-4.5c1.4-0.9,2.8-1.6,4.2-2.5c0.2-0.1,0.2-1.1-0.1-1.4
				c-1.6-1.9-3.3-3.7-5-5.5c-0.9-1-1.7-2.1-2.6-3.1c-0.6-0.7-1.3-1-2.1-0.1c-0.2,0.2-0.5,0.3-0.8,0.3c-1.3-0.1-2.5-0.1-3.4,1.3
				c-0.4,0.6-1.7,0.6-2-0.4c-0.5-1.6-1.1-3.1-0.3-4.9c0.7-1.6,0.7-3.5,1.1-5.4c-1.3,0-2.7-0.1-4,0c-2.7,0.4-5.3,0.8-7.9,1.5
				c-1.6,0.5-3,1.6-4.6,2.2c-1.6,0.7-3.2,1.4-4.9,1.6c-3.1,0.4-5.8,2.2-9.2,1.9c-1.5-0.2-2.6-0.8-3.4-1.7c-1.8-2-3.7-4-5.2-6.3
				c-0.9-1.4-1.2-3.2-1.8-4.9c-0.3-0.7-0.7-1.4-1-2.1c-0.1-0.3-0.3-0.7-0.2-1c0.1-0.2,0.6-0.4,0.9-0.3c1.5,0.5,3.1,0.9,4.3,1.7
				c1.7,1.2,3.3,1.7,5.3,1.5c5.3-0.4,10.5-0.8,15.8-1.1c7.3-0.5,14.7-0.8,22-1.3c1.8-0.1,2.8-1.5,3.9-2.6c3-3.2,5.7-6.7,7.6-10.7
				c0.8-1.7,1.2-3.6,1.8-5.5c0.3-1,1.9-1.6,3.1-1c2,1,3.9,2.1,5.9,3.2c1.3,0.7,2,1.7,1.8,3.2c0,0.2,0,0.4,0,0.6
				c-0.1,1,0.9,2.1-0.6,2.9c-0.9,0.5-1.7,1.2-2.5,1.8c-0.4,0.3-0.9,0.6-1.1,1c-1,1.5-1.8,2.9-2.8,4.4c-0.1,0.1,0,0.4-0.1,0.8
				c1.4-0.1,2.7-0.2,4-0.4c1.9-0.3,3.9-0.6,5.8-1c1.5-0.2,3.1-0.4,4.6-0.8c0.3-0.1,0.6-0.7,0.8-1.1c0.2-0.5,0-1.4,0.2-1.4
				c0.5-0.1,1.3-0.1,1.8,0.1c1.7,1.1,3.7,1.3,5.6,1.2c4.6-0.4,9.1-1.3,13.7-1.4c5.6-0.2,11.3-0.2,16.9,0.4c4.7,0.5,9.3,1.7,13.9,2.8
				c2.7,0.6,4.7,2.5,6.3,4.6c0.8,1.1,1.7,2.1,2.3,3.3c1,1.9,1.8,3.8,2.5,5.7c0.4,1.3-1.1,3.3-2.5,4c-1.1,0.5-2.1,1.1-3.1,1.8
				c-1.3,0.9-2-0.3-2.7-0.8c-0.7-0.4-1.1-1.3-1.7-1.8c-1-0.8-1.9-1.6-3.4-1.4c-0.5,0.1-1.3,0.1-1.7-0.2c-1.5-1.1-3.2-0.6-4.9-0.8
				c-0.6-0.1-1.4,0.6-2,0.4c-2.4-0.6-4.8-1.3-7.1-2.1c-0.7-0.3-1.1-1.3-1.8-1.7c-1.4-0.9-2.9-2-4.5-2.2c-3.7-0.4-7.5-0.5-11.2,0.8
				c-0.6,0.2-1.3,0.2-2,0.2C714.9,484.5,715,484.6,715.1,484.8L715.1,484.8z M697.5,482.4c-0.1-0.2-0.2-0.3-0.3-0.5
				c-2.1,0.3-4.2,0.5-6.2,1c-3.5,0.8-6.9,2.5-10.5,1.8c-3.6-0.6-6,1-8.2,3.2c-1.9,1.9-4,3.3-6.6,4.2c-0.5,0.1-0.8,0.5-1.2,0.8
				c0.1,0.1,0.1,0.3,0.2,0.4c0.5-0.1,1.1-0.1,1.6-0.2c1.2-0.4,2.4-0.4,3.7-0.1c5.1,1.1,10,2.6,14.1,5.9c0.8,0.6,1.6,0.8,2.4-0.3
				c1.5-2.1,3.3-4.1,4.6-6.4c1.5-2.6,3-5.2,4.9-7.5C696.5,484.1,697,483.2,697.5,482.4L697.5,482.4z"/>
			<path d="M660.3,419.1c-0.1-0.6-0.2-1-0.2-1.4c0.1-0.1,0.2-0.2,0.3-0.2c3.4-0.3,4.9,0.7,5.8,3.7c0.6,1.9,1.2,3.8,2.2,5.6
				c1.2,2.1,0.9,4.4,1.5,6.6c0.3,1,0.9,1.9,1.3,2.8c0.3,1,0.5,2.1,0.8,3.2c0.1,0.6,0.1,1.1,0.1,1.7h0.6c0-1.2,0.1-2.4,0-3.6
				c-0.3-2.4,0.9-4,2.9-5.1c4.2-2.3,7.6-5.3,10.3-9.6c-1.1,0.1-2.1,0-2.9,0.2c-1.6,0.5-3,1.4-4.6,1.7c-2.8,0.5-5.7,1.5-8.6,0.7
				c-0.5-0.1-1-0.9-1.3-1.5c-0.5-1.3-0.9-2.8-1.6-4.1c0.4-1.3,1.3-1.7,3.1-1.6c1.9,0.1,3.9-0.8,5.8-1.4c3.5-1.1,6.9-2.3,10.3-3.5
				c1.2-0.4,2.4-0.6,3.6-1.1c0.4-0.2,0.8-0.8,0.8-1.2c0.1-2.6,0-5.3,0.1-8c0-1.4-0.8-1.8-2.1-2c-2.6-0.3-4.6,0.8-6.7,2
				c-1.5,0.9-2.9,2-4.8,0.9c-0.3-0.2-0.9-0.3-1.2-0.1c-2.7,1.5-4.8,0-6.7-1.4c-2.8-2-5.4-4.3-8-6.6c-0.5-0.4-0.5-1.5-0.3-2.2
				c0.1-0.3,1.2-0.5,1.8-0.6c2.4-0.3,4.6,0.3,6.4,1.9c0.3,0.2,0.8,0.4,1.1,0.3c6.5-1.4,13-2.9,19.6-4.4c0.7-0.2,1.4-0.2,2.1-0.3
				c5.6-1,11.3-1.7,16.8-3c4.6-1.1,9.1-1,13.7-1.1c1,0,1.9-0.5,2.9-0.6c0.8,0,1.6,0.1,2.3,0.4c2.4,0.8,4.9,1.6,7.2,2.7
				c1.3,0.7,2.4,1.9,3.3,3.1c0.3,0.4,0.1,1.4-0.2,1.9c-0.5,1-1.3,1.8-1.9,2.7c-0.4,0.5-0.7,1.3-1.2,1.4c-2,0.5-1.8,1.7-1.7,3.1
				c0.1,2.4-1.5,3.3-3.8,2.2c-3.6-1.8-7.4-3-11.5-3.2c-1.6-0.1-3.2,0.4-4.8,0.5c-2.6,0.1-5.2,0-8.1,0c0.2,0.7,0.3,1.3,0.4,2
				c0.5,1.7,1.1,3.4,1.4,5.1c0.2,1.4,0.8,1.9,2.2,1.7c1.4-0.2,2.8-0.6,4.3-0.9c3.6-0.7,7.2-1,10.8,0.2c1.7,0.6,3.5,1,4.8,2
				c2,1.5,3.6,3.4,5.4,5.2c0.6,0.6,1.2,1.3,1.8,2c2.4,2.8,1.4,6.9-2.2,8.3c-2.7,1.1-4,2.7-4,5.4c0,0.8-1,2-1.9,2.4
				c-1.3,0.6-2.2,1.3-2.5,2.6c-0.4,1.8-0.6,3.6-1.2,5.3c-0.6,1.6-1.5,3.2-2.3,4.8c-0.3,0.7-0.8,1.4-0.8,2c-0.1,3.2,0,6.5-0.1,9.8
				c-0.1,2.4-2.4,3.5-4.7,2.3c-0.7-0.4-1.4-0.9-2-1.4c-1.6-1.4-3.2-2.9-4.8-4.4c-1.5-1.5-3.1-3-4.5-4.6c-1.4-1.7-3-1.5-4.8-0.8
				c-2.2,0.8-4.5,1.4-6.7,2.2c-4.4,1.5-8.9,1.4-13.5,1.6c-0.8,0-1.7,0-2.5,0.1c-3.8,0.3-7.6,0.5-11.4,0.8c-2.3,0.2-4.5,0.4-6.6-0.9
				c-1-0.6-1.5-1.2-1.3-2.4c0.2-1-0.2-2-0.3-3c0-0.5,0-1,0.2-1.4c0.7-1.9,0.8-3.7-0.2-5.7c-1.1-2.4-1.8-5-2.3-7.6
				c-0.5-2.2-0.3-4.6-0.9-6.9c-0.3-1.4-1.4-2.6-2.3-3.8c-0.5-0.7-1.2-1.2-1.8-1.8c-0.2-0.2-0.2-0.8,0-0.9c1.2-0.5,2.4-1.3,3.7-1.4
				C656.1,418.6,658.1,418.9,660.3,419.1L660.3,419.1z M714.7,414.5c-1,0.4-2,0.6-2.9,1.1c-1.1,0.6-2.1,1.5-3.3,1.8
				c-3.3,0.8-3.8,2.8-3.4,5.5c0.2,1.2-0.1,2.4-0.1,3.6c-0.1,1.7-1.2,2.9-2.6,3.8c-2.5,1.7-3.6,4-3.8,6.8c0,0.6,0.5,1.5,1.1,1.8
				c1.9,1.2,3.8,2.4,5.9,3.3c1.8,0.8,3.8,1.4,5.8,2c0.5,0.1,1.7-0.2,1.8-0.5c0.8-2.2,1.3-4.5,1.9-6.8c0.2-0.6,0.3-1.2,0.5-1.8
				c0.6-2.2,1.3-4.4,1.6-6.6c0.4-3.2,0.5-6.4,0.8-9.6C718.1,416.7,716.6,414.8,714.7,414.5L714.7,414.5z M681.8,441.2
				c0.1,0.2,0.2,0.5,0.4,0.7c3-0.4,6-0.6,9-1.1c1.8-0.3,2.6-1.4,2.6-3.3c0-2.8,0.3-5.6,0.9-8.3c0.5-2.5,1.6-4.8,2.4-7.2
				c0.3-0.9,0.4-1.8,0.6-2.8c-0.2-0.1-0.4-0.2-0.6-0.4c-0.8,0.6-2,1-2.3,1.7c-1,2.6-2,5.2-2.5,7.9c-0.8,4.5-3.5,7.6-7.3,10.2
				C683.9,439.5,682.9,440.4,681.8,441.2L681.8,441.2z M694.3,405.8c0,0.3,0,0.5-0.1,0.8c-0.2,4.5,0,4.7,4.7,3.9
				c0.2,0,0.4,0,0.5-0.1c0.4-0.2,1-0.4,1.1-0.8c0.9-2.7,1.7-5.4,1.2-8.2c-0.3-1.4-1.2-1.8-2.6-1.5c-3.1,0.6-4.7,2.3-4.8,5.3
				C694.3,405.3,694.3,405.6,694.3,405.8L694.3,405.8z"/>
		</g>
	</g>
</g>
</svg>
