<?xml version="1.0" encoding="UTF-8"?><svg id="uuid-d9f0a06b-0f43-42ee-a9c2-3f9c7a0da9ef" xmlns="http://www.w3.org/2000/svg" xmlns:xlink="http://www.w3.org/1999/xlink" viewBox="0 0 1366 768"><defs><style>.uuid-f61bf6f2-2df7-43ce-a750-97055083c8ea{fill:#fff;}.uuid-7e865e90-aed2-4d79-8a2e-f152ddfa76c3,.uuid-aea57003-d9f4-49c3-af3d-3716aa41fb85{fill:none;}.uuid-b9af4a3f-67c8-4825-83b6-f3ae3292a007{fill:url(#uuid-26fa5d7e-7447-43e1-9806-f07d0413b3d8);}.uuid-aea57003-d9f4-49c3-af3d-3716aa41fb85{stroke:#231815;stroke-width:.75px;}</style><pattern id="uuid-26fa5d7e-7447-43e1-9806-f07d0413b3d8" x="0" y="0" width="72" height="72" patternTransform="translate(-1386 -990)" patternUnits="userSpaceOnUse" viewBox="0 0 72 72"><g><rect class="uuid-7e865e90-aed2-4d79-8a2e-f152ddfa76c3" width="72" height="72"/><path class="uuid-aea57003-d9f4-49c3-af3d-3716aa41fb85" d="M80.4,64.14s.96,4.06-2.92,4c-3.88-.06-3.94,1.87-3.13,4.29s-.18,4.62-3.34,4.57"/><g><path class="uuid-aea57003-d9f4-49c3-af3d-3716aa41fb85" d="M13.35,15.53s3.79-1.74,4.5,2.08c.71,3.82,2.61,3.5,4.82,2.23,2.21-1.28,4.56-.74,5.14,2.37"/><path class="uuid-aea57003-d9f4-49c3-af3d-3716aa41fb85" d="M66.04,28.74s-2.6,3.26-4.95,.18c-2.36-3.08-3.91-1.94-5.3,.19-1.4,2.14-3.74,2.72-5.66,.2"/><path class="uuid-aea57003-d9f4-49c3-af3d-3716aa41fb85" d="M39.03,29.05s-3.82-1.67-1.45-4.74c2.38-3.07,.87-4.28-1.55-5.08-2.42-.8-3.59-2.91-1.65-5.41"/><path class="uuid-aea57003-d9f4-49c3-af3d-3716aa41fb85" d="M41.14,24.82s4.08-.88,2.36-4.36c-1.72-3.48-.01-4.36,2.52-4.67,2.54-.3,4.1-2.14,2.69-4.98"/><path class="uuid-aea57003-d9f4-49c3-af3d-3716aa41fb85" d="M55.12,14.87s4.08-.88,2.36-4.36c-1.72-3.48-.01-4.36,2.52-4.67,2.54-.3,4.1-2.14,2.69-4.98"/><path class="uuid-aea57003-d9f4-49c3-af3d-3716aa41fb85" d="M27.39,34.19s3.68-1.96,1.07-4.84c-2.61-2.87-1.21-4.19,1.15-5.18,2.36-.99,3.35-3.18,1.23-5.53"/><path class="uuid-aea57003-d9f4-49c3-af3d-3716aa41fb85" d="M10.39,22.94s1.29,3.96-2.58,4.23c-3.87,.27-3.77,2.19-2.76,4.53,1.01,2.35,.21,4.62-2.94,4.84"/><path class="uuid-aea57003-d9f4-49c3-af3d-3716aa41fb85" d="M7.56,41.16s-2.02-3.65,1.72-4.64c3.75-1,3.29-2.87,1.85-4.97-1.44-2.11-1.09-4.5,1.97-5.31"/><path class="uuid-aea57003-d9f4-49c3-af3d-3716aa41fb85" d="M20.44,17s1.35-3.95,4.6-1.83c3.25,2.12,4.33,.52,4.93-1.96,.6-2.48,2.61-3.82,5.26-2.09"/><path class="uuid-aea57003-d9f4-49c3-af3d-3716aa41fb85" d="M12.33,44.48s-1.77-3.78,2.04-4.51c3.81-.73,3.48-2.63,2.19-4.83-1.29-2.2-.77-4.56,2.34-5.16"/><path class="uuid-aea57003-d9f4-49c3-af3d-3716aa41fb85" d="M24.03,38.67s-3.43-2.37-.51-4.93c2.92-2.56,1.68-4.03-.55-5.28-2.23-1.25-2.96-3.55-.58-5.63"/><path class="uuid-aea57003-d9f4-49c3-af3d-3716aa41fb85" d="M11.01,59.64s.3-4.16,3.99-2.94c3.69,1.22,4.32-.6,4.27-3.15-.05-2.55,1.55-4.36,4.56-3.36"/><path class="uuid-aea57003-d9f4-49c3-af3d-3716aa41fb85" d="M29.5,52.86s-.38,4.15-4.04,2.87c-3.66-1.29-4.33,.52-4.33,3.07,0,2.55-1.63,4.33-4.62,3.28"/><path class="uuid-aea57003-d9f4-49c3-af3d-3716aa41fb85" d="M19.67,27.31s-4.17,.18-3.38-3.62c.79-3.8-1.09-4.22-3.62-3.88-2.53,.34-4.5-1.04-3.86-4.14"/><path class="uuid-aea57003-d9f4-49c3-af3d-3716aa41fb85" d="M32.71,27.97s-1.49,3.89,2.37,4.35c3.85,.46,3.66,2.38,2.53,4.66-1.13,2.29-.44,4.6,2.7,4.98"/><path class="uuid-aea57003-d9f4-49c3-af3d-3716aa41fb85" d="M3.32,45.67s1.92,3.7,4.82,1.13c2.91-2.57,4.21-1.15,5.17,1.21,.96,2.37,3.14,3.39,5.51,1.29"/><path class="uuid-aea57003-d9f4-49c3-af3d-3716aa41fb85" d="M51.02,83.38s-1.86-3.73,1.93-4.56c3.79-.83,3.41-2.72,2.07-4.89-1.34-2.17-.88-4.54,2.21-5.21"/><path class="uuid-aea57003-d9f4-49c3-af3d-3716aa41fb85" d="M64.56,9.98s2.47,3.36-1.13,4.83c-3.59,1.46-2.9,3.26-1.2,5.17,1.7,1.91,1.64,4.32-1.29,5.51"/><path class="uuid-aea57003-d9f4-49c3-af3d-3716aa41fb85" d="M59.95,14.27s-4.09,.84-2.4,4.33c1.68,3.5-.04,4.36-2.58,4.64-2.54,.28-4.12,2.1-2.75,4.95"/><path class="uuid-aea57003-d9f4-49c3-af3d-3716aa41fb85" d="M17.08,.72s4.17,.2,3.04,3.91c-1.13,3.71,.71,4.31,3.26,4.19,2.55-.11,4.39,1.44,3.47,4.47"/><path class="uuid-aea57003-d9f4-49c3-af3d-3716aa41fb85" d="M39.44,15.71s-4.05-.99-2.23-4.42c1.82-3.43,.13-4.36-2.39-4.74-2.53-.38-4.04-2.26-2.55-5.05"/><path class="uuid-aea57003-d9f4-49c3-af3d-3716aa41fb85" d="M18.03,7.9s-3.97-1.27-4.22,2.6c-.25,3.87-2.17,3.78-4.52,2.78-2.35-1-4.62-.19-4.82,2.97"/><path class="uuid-aea57003-d9f4-49c3-af3d-3716aa41fb85" d="M8.4,64.14s.96,4.06-2.92,4c-3.88-.06-3.94,1.87-3.13,4.29s-.18,4.62-3.34,4.57"/><path class="uuid-aea57003-d9f4-49c3-af3d-3716aa41fb85" d="M70.32,33.48s-2.27,3.5-4.91,.65c-2.64-2.84-4.08-1.56-5.26,.7-1.19,2.26-3.46,3.07-5.61,.75"/><path class="uuid-aea57003-d9f4-49c3-af3d-3716aa41fb85" d="M50.38,1.6s.96,4.06-2.92,4c-3.88-.06-3.95,1.87-3.13,4.28,.81,2.42-.18,4.62-3.34,4.57"/><path class="uuid-aea57003-d9f4-49c3-af3d-3716aa41fb85" d="M43.88,31.8s-1.63-3.83,2.2-4.44c3.83-.6,3.57-2.51,2.35-4.76-1.21-2.25-.61-4.58,2.51-5.07"/><path class="uuid-aea57003-d9f4-49c3-af3d-3716aa41fb85" d="M74.88,33.61s-4.15-.44-2.81-4.08c1.34-3.64-.46-4.34-3.01-4.38-2.55-.03-4.3-1.7-3.21-4.67"/><path class="uuid-aea57003-d9f4-49c3-af3d-3716aa41fb85" d="M62.12,38.22s3.47-2.32,4.77,1.34c1.3,3.65,3.13,3.04,5.11,1.43,1.98-1.61,4.39-1.45,5.45,1.53"/><path class="uuid-aea57003-d9f4-49c3-af3d-3716aa41fb85" d="M71.68,62.73s-.76,4.1-4.29,2.48c-3.53-1.62-4.36,.12-4.59,2.66-.23,2.54-2.02,4.16-4.9,2.84"/><path class="uuid-aea57003-d9f4-49c3-af3d-3716aa41fb85" d="M28.78,43.96s4.13,.55,2.7,4.16c-1.44,3.61,.34,4.35,2.89,4.45,2.55,.1,4.25,1.81,3.08,4.75"/><path class="uuid-aea57003-d9f4-49c3-af3d-3716aa41fb85" d="M14.79,43.43s1.2,3.99,4.53,2.01c3.33-1.99,4.35-.36,4.85,2.15,.5,2.5,2.46,3.91,5.18,2.29"/><path class="uuid-aea57003-d9f4-49c3-af3d-3716aa41fb85" d="M1.79,60.01s1.2,3.99,4.53,2.01c3.33-1.99,4.35-.36,4.85,2.15,.5,2.5,2.46,3.91,5.18,2.29"/><path class="uuid-aea57003-d9f4-49c3-af3d-3716aa41fb85" d="M37.88,69.01s4.15-.36,2.89-4.03c-1.27-3.67,.54-4.33,3.09-4.31,2.55,.02,4.33-1.61,3.3-4.6"/><path class="uuid-aea57003-d9f4-49c3-af3d-3716aa41fb85" d="M34.49,60.09s3.21,2.66,.08,4.95c-3.13,2.29-2.02,3.87,.09,5.31,2.11,1.44,2.65,3.79,.1,5.66"/><path class="uuid-aea57003-d9f4-49c3-af3d-3716aa41fb85" d="M50.83,63.59s-3.37-2.46-.39-4.94c2.98-2.48,1.78-3.99-.42-5.29-2.19-1.31-2.88-3.62-.44-5.64"/><path class="uuid-aea57003-d9f4-49c3-af3d-3716aa41fb85" d="M55.94,59.43s2.82-3.07,4.95,.17c2.13,3.24,3.76,2.21,5.3,.18,1.54-2.03,3.92-2.45,5.66,.2"/><path class="uuid-aea57003-d9f4-49c3-af3d-3716aa41fb85" d="M40.17,32.48s4.16,.24,3,3.94c-1.16,3.7,.66,4.31,3.22,4.22,2.55-.09,4.38,1.49,3.43,4.5"/><path class="uuid-aea57003-d9f4-49c3-af3d-3716aa41fb85" d="M31.67,40.41s-.39,4.15,3.45,3.56c3.83-.59,4.16,1.3,3.69,3.81-.47,2.51,.81,4.55,3.94,4.07"/><path class="uuid-aea57003-d9f4-49c3-af3d-3716aa41fb85" d="M19.47,42.71s1.06-4.03,4.46-2.16c3.4,1.88,4.36,.21,4.78-2.31,.42-2.52,2.33-3.99,5.1-2.46"/><path class="uuid-aea57003-d9f4-49c3-af3d-3716aa41fb85" d="M1.21,13.18s4.16-.21,3.03-3.92c-1.14-3.71,.69-4.31,3.24-4.2,2.55,.11,4.39-1.46,3.46-4.48"/><path class="uuid-aea57003-d9f4-49c3-af3d-3716aa41fb85" d="M35.69,57.65s-3.82-1.68-4.46,2.15c-.64,3.83-2.55,3.54-4.78,2.3s-4.57-.66-5.1,2.46"/><path class="uuid-aea57003-d9f4-49c3-af3d-3716aa41fb85" d="M83.79,52.82s-1.59-3.86-4.71-1.55c-3.12,2.31-4.29,.78-5.04-1.66-.75-2.44-2.83-3.65-5.38-1.77"/><path class="uuid-aea57003-d9f4-49c3-af3d-3716aa41fb85" d="M67.72,48.84s-1.02,4.04-4.44,2.21c-3.42-1.84-4.36-.16-4.75,2.36-.39,2.52-2.28,4.02-5.07,2.52"/><path class="uuid-aea57003-d9f4-49c3-af3d-3716aa41fb85" d="M59.64,60.81s-.12,4.17-3.86,3.11c-3.73-1.06-4.29,.78-4.13,3.33,.16,2.55-1.37,4.42-4.41,3.55"/><path class="uuid-aea57003-d9f4-49c3-af3d-3716aa41fb85" d="M51.35,47.94s2.02-3.65,4.85-1c2.83,2.65,4.17,1.27,5.2-1.07,1.02-2.34,3.24-3.3,5.54-1.14"/><path class="uuid-aea57003-d9f4-49c3-af3d-3716aa41fb85" d="M41.29,59.08s-1.96-3.68,1.81-4.61c3.77-.93,3.34-2.81,1.93-4.94-1.4-2.13-1.01-4.51,2.06-5.27"/><path class="uuid-aea57003-d9f4-49c3-af3d-3716aa41fb85" d="M62.01,83.53s-1.29-3.96,2.58-4.23c3.87-.27,3.77-2.19,2.76-4.53-1.01-2.34-.21-4.62,2.95-4.84"/><path class="uuid-aea57003-d9f4-49c3-af3d-3716aa41fb85" d="M46.41,34.02s4.09-.81,3.89,3.06c-.2,3.88,1.72,4.01,4.17,3.28,2.45-.72,4.61,.34,4.45,3.5"/><path class="uuid-aea57003-d9f4-49c3-af3d-3716aa41fb85" d="M66.59,12.82s4.13-.53,3.67,3.32c-.46,3.85,1.45,4.12,3.94,3.56,2.49-.56,4.58,.65,4.2,3.8"/><path class="uuid-aea57003-d9f4-49c3-af3d-3716aa41fb85" d="M65.07,53.84s2.41,3.4,4.94,.45c2.52-2.95,4.01-1.73,5.28,.48,1.28,2.21,3.58,2.92,5.64,.52"/><path class="uuid-aea57003-d9f4-49c3-af3d-3716aa41fb85" d="M45.46,62.83s-3.72,1.88-1.18,4.81c2.54,2.93,1.11,4.22-1.26,5.15-2.38,.93-3.42,3.11-1.35,5.5"/><path class="uuid-aea57003-d9f4-49c3-af3d-3716aa41fb85" d="M28.23,80.31s-3.57-2.16-.81-4.89c2.76-2.73,1.43-4.12-.87-5.24-2.3-1.12-3.18-3.36-.92-5.59"/><path class="uuid-aea57003-d9f4-49c3-af3d-3716aa41fb85" d="M19.97,65.69s1.2,4-2.68,4.17c-3.88,.17-3.83,2.09-2.87,4.46,.95,2.37,.1,4.62-3.06,4.76"/></g><g><path class="uuid-aea57003-d9f4-49c3-af3d-3716aa41fb85" d="M2.88,33.61s-4.15-.44-2.81-4.08c1.34-3.64-.46-4.34-3.01-4.38-2.55-.03-4.3-1.7-3.21-4.67"/><path class="uuid-aea57003-d9f4-49c3-af3d-3716aa41fb85" d="M-9.88,38.22s3.47-2.32,4.77,1.34c1.3,3.65,3.13,3.04,5.11,1.43,1.98-1.61,4.39-1.45,5.45,1.53"/><path class="uuid-aea57003-d9f4-49c3-af3d-3716aa41fb85" d="M-.32,62.73s-.76,4.1-4.29,2.48c-3.53-1.62-4.36,.12-4.59,2.66-.23,2.54-2.02,4.16-4.9,2.84"/><path class="uuid-aea57003-d9f4-49c3-af3d-3716aa41fb85" d="M-16.06,59.43s2.82-3.07,4.95,.17c2.13,3.24,3.76,2.21,5.3,.18,1.54-2.03,3.92-2.45,5.66,.2"/><path class="uuid-aea57003-d9f4-49c3-af3d-3716aa41fb85" d="M11.79,52.82s-1.59-3.86-4.71-1.55c-3.12,2.31-4.29,.78-5.04-1.66-.75-2.44-2.83-3.65-5.38-1.77"/><path class="uuid-aea57003-d9f4-49c3-af3d-3716aa41fb85" d="M-5.41,12.82s4.13-.53,3.67,3.32c-.46,3.85,1.45,4.12,3.94,3.56,2.49-.56,4.58,.65,4.2,3.8"/><path class="uuid-aea57003-d9f4-49c3-af3d-3716aa41fb85" d="M-6.93,53.84s2.41,3.4,4.94,.45c2.52-2.95,4.01-1.73,5.28,.48,1.28,2.21,3.58,2.92,5.64,.52"/></g><path class="uuid-aea57003-d9f4-49c3-af3d-3716aa41fb85" d="M80.4-7.86s.96,4.06-2.92,4c-3.88-.06-3.94,1.87-3.13,4.29s-.18,4.62-3.34,4.57"/><g><path class="uuid-aea57003-d9f4-49c3-af3d-3716aa41fb85" d="M51.02,11.38s-1.86-3.73,1.93-4.56c3.79-.83,3.41-2.72,2.07-4.89-1.34-2.17-.88-4.54,2.21-5.21"/><path class="uuid-aea57003-d9f4-49c3-af3d-3716aa41fb85" d="M8.4-7.86s.96,4.06-2.92,4C1.6-3.92,1.54-1.99,2.35,.43s-.18,4.62-3.34,4.57"/><path class="uuid-aea57003-d9f4-49c3-af3d-3716aa41fb85" d="M34.49-11.91s3.21,2.66,.08,4.95c-3.13,2.29-2.02,3.87,.09,5.31,2.11,1.44,2.65,3.79,.1,5.66"/><path class="uuid-aea57003-d9f4-49c3-af3d-3716aa41fb85" d="M62.01,11.53s-1.29-3.96,2.58-4.23c3.87-.27,3.77-2.19,2.76-4.53-1.01-2.34-.21-4.62,2.95-4.84"/><path class="uuid-aea57003-d9f4-49c3-af3d-3716aa41fb85" d="M45.46-9.17s-3.72,1.88-1.18,4.81c2.54,2.93,1.11,4.22-1.26,5.15-2.38,.93-3.42,3.11-1.35,5.5"/><path class="uuid-aea57003-d9f4-49c3-af3d-3716aa41fb85" d="M28.23,8.31s-3.57-2.16-.81-4.89c2.76-2.73,1.43-4.12-.87-5.24-2.3-1.12-3.18-3.36-.92-5.59"/><path class="uuid-aea57003-d9f4-49c3-af3d-3716aa41fb85" d="M19.97-6.31s1.2,4-2.68,4.17c-3.88,.17-3.83,2.09-2.87,4.46,.95,2.37,.1,4.62-3.06,4.76"/></g></g></pattern></defs><rect class="uuid-f61bf6f2-2df7-43ce-a750-97055083c8ea" y="1" width="1366" height="767"/><rect class="uuid-b9af4a3f-67c8-4825-83b6-f3ae3292a007" y="1" width="1366" height="767"/><g><path d="M691.32,188.33c.99,0,1.63,.2,1.93,.59,.3,.4,.45,1.22,.45,2.48s-.18,2.03-.54,2.33c-.36,.3-1.83,.61-4.41,.94-2.57,.33-6.85,1.22-12.82,2.67-5.97,1.45-10.54,2.31-13.71,2.57-4.16,.26-6.57,.59-7.23,.99-.66,.4-1.09,.59-1.29,.59-.46,0-1.14-.76-2.03-2.28-.89-1.52-1.34-2.52-1.34-3.02s.5-.81,1.49-.94c6.4-1.12,11.22-2.19,14.45-3.22,3.23-1.02,7.36-1.9,12.38-2.62,5.02-.73,9.24-1.09,12.67-1.09Zm-25.24-36.43c0,.46-.28,1.24-.84,2.33-.56,1.09-.96,2.01-1.19,2.77-.23,.76-.35,1.73-.35,2.92l.3,6.14c0,1.45-.38,2.18-1.14,2.18s-2.24-.26-4.46-.79-3.73-.99-4.55-1.39c-.83-.4-1.24-.86-1.24-1.39,0-.92,1.8-3.4,5.4-7.42,3.6-4.03,6.05-6.04,7.38-6.04,.46,0,.69,.23,.69,.69Zm32.08-8.02c4.49,0,8.63,2.21,12.42,6.63,3.79,4.42,5.69,7.1,5.69,8.02,0,.33-.2,.61-.59,.84-.39,.23-1.5,.5-3.32,.79-1.81,.3-4.14,.45-6.98,.45s-4.26-.26-4.26-.79c0-.33,.4-.79,1.19-1.39,2.64-1.91,3.96-3.61,3.96-5.1s-.56-2.72-1.68-3.71-2.74-1.49-4.85-1.49-4.29,.56-6.54,1.68c-3.56,1.85-6.27,2.97-8.12,3.37-1.52,.33-2.28,1.92-2.28,4.75,0,1.45,.1,2.38,.3,2.77,.2,.4,.72,.59,1.58,.59s2.24-.18,4.16-.54c1.91-.36,3.08-.66,3.51-.89,.43-.23,.88-.61,1.34-1.14,.46-.53,.82-.79,1.09-.79,.4,0,1.02,.81,1.88,2.43,.86,1.62,1.29,3.02,1.29,4.21s-1.25,1.95-3.76,2.28c-1.32,.2-2.41,.5-3.27,.89-1.91,.92-4.79,1.78-8.61,2.57-.66,.13-1.12,.31-1.39,.54-.27,.23-.56,.86-.89,1.88-.33,1.02-.5,1.93-.5,2.72s.63,1.19,1.88,1.19c.46,0,1.6-.1,3.42-.3,1.81-.2,3.71-.53,5.69-.99,1.98-.46,4.52-.69,7.62-.69,4.36,0,7.67,.51,9.95,1.53,2.28,1.02,4.07,1.73,5.39,2.13,.53,.2,.79,.56,.79,1.09s-.13,1.16-.4,1.88c-.93,2.71-1.52,4.92-1.78,6.63-.79,6.8-3.27,14.49-7.43,23.07-.53,1.12-1.02,2.64-1.48,4.55-.27,1.12-.66,1.68-1.19,1.68s-1.38-.41-2.57-1.24c-1.19-.83-3.3-1.73-6.34-2.72-5.41-1.78-9.03-3.53-10.84-5.25-1.82-1.72-2.72-2.9-2.72-3.56,0-.26,.18-.4,.54-.4s.81,.1,1.34,.3c4.55,1.45,9.14,2.18,13.76,2.18,1.12,0,1.88-.11,2.28-.35,.4-.23,1.14-1.29,2.23-3.17,1.09-1.88,1.98-4.11,2.67-6.68,.69-2.57,1.04-5.1,1.04-7.57s-.31-4.22-.94-5.25c-.63-1.02-1.62-1.83-2.97-2.43-1.35-.59-2.96-.89-4.8-.89s-4.82,.4-8.91,1.19c-4.09,.79-8.05,1.82-11.88,3.07-.46,.13-.91,.2-1.34,.2s-1.09-.16-1.98-.5c-.89-.33-1.34-.77-1.34-1.34s.23-1.2,.69-1.93c1.25-2.04,2.47-5.41,3.66-10.1,1.19-4.69,1.78-7.9,1.78-9.65s-.39-3.33-1.19-4.75c-.79-1.42-1.72-2.13-2.77-2.13-.4,0-.84,.1-1.34,.3-.5,.2-.94,.3-1.34,.3s-.69-.73-.89-2.18l-.4-2.08c0-.53,.4-.83,1.19-.89,4.62-.2,8.12-.53,10.49-.99,2.38-.46,6.96-1.78,13.76-3.96,1.78-.59,3.53-.89,5.25-.89Z"/><path d="M667.46,243.17c.46,0,1.67,.38,3.61,1.14s2.92,1.58,2.92,2.47-.91,2.33-2.72,4.31c-1.82,1.98-2.77,3.76-2.87,5.35s-.91,3.3-2.43,5.15c-1.72,2.05-2.99,4.14-3.81,6.29-.82,2.15-1.24,4.08-1.24,5.79,0,.99,.4,1.68,1.19,2.08,2.04,1.25,3.07,2.2,3.07,2.82s-.16,1.17-.49,1.63c-.33,.46-.64,1.9-.94,4.31-.3,2.41-.45,4.5-.45,6.29s-.07,3.56-.2,5.35c-.13,1.78-.2,2.74-.2,2.87,0,1.12,.1,2.41,.3,3.86,.2,1.45,.3,2.31,.3,2.57,0,1.25-.63,2.16-1.88,2.72-1.26,.56-2.18,.84-2.77,.84-1.12,0-1.58-.68-1.38-2.03,.2-1.35,.3-4.01,.3-7.97,0-11.29-.56-16.93-1.68-16.93-.46,0-1.88,1.32-4.26,3.96-2.38,2.51-4.04,4.03-5,4.55-.96,.53-1.7,.79-2.23,.79-.86,0-1.29-.35-1.29-1.04s.26-1.47,.79-2.33c5.08-7.52,8.84-13.76,11.29-18.71s5.58-12.87,9.41-23.76c.53-1.58,1.42-2.38,2.67-2.38Zm44.45,48.21c.86,0,1.49,.12,1.88,.35,.4,.23,1.17,1.39,2.33,3.46s1.73,3.68,1.73,4.8-.3,1.68-.89,1.68c-.26,0-.66-.16-1.19-.5-1.12-.66-3.56-.99-7.33-.99s-7.21,.18-10.35,.54c-3.13,.36-4.88,.69-5.25,.99-.36,.3-.64,.84-.84,1.63s-.3,2.48-.3,5.05c0,4.95,.15,8.12,.45,9.5,.3,1.39,.45,2.39,.45,3.02s-.23,1.07-.69,1.34c-.46,.26-1.4,.4-2.82,.4s-2.31-.15-2.67-.45c-.36-.3-.54-.91-.54-1.83l.3-12.57c.2-5.94,.3-10.48,.3-13.61s-.03-6.57-.1-10.3c-.07-3.73-.17-5.91-.3-6.53-.13-.63-.53-1.19-1.19-1.68s-1.25-.74-1.78-.74c-1.12,0-2.38,1.68-3.76,5.05-.73,1.78-1.7,3-2.92,3.66-1.22,.66-2.79,.99-4.7,.99s-3.19-.11-3.81-.35c-.63-.23-.94-.61-.94-1.14s.46-1.09,1.38-1.68,2.43-2.36,4.51-5.3c2.08-2.94,3.88-5.66,5.39-8.17,1.52-2.51,2.9-5.54,4.16-9.11,.73-2.04,1.87-4.77,3.42-8.17,1.55-3.4,2.54-5.36,2.97-5.89,.43-.53,.91-1.52,1.44-2.97,.53-1.58,1.1-2.38,1.73-2.38s1.3,.3,2.03,.89c.72,.59,1.83,1.24,3.32,1.93,1.48,.69,2.23,1.34,2.23,1.93s-.53,1.32-1.58,2.18c-2.24,1.92-4.87,5.36-7.87,10.35-3.01,4.98-4.51,8.17-4.51,9.55,0,.46,.26,.69,.79,.69,1.71,0,4.29-.59,7.72-1.78,3.43-1.19,6.34-2.05,8.71-2.57,2.38-.53,4.04-1.02,5-1.49,.96-.46,1.78-.69,2.47-.69s1.67,.61,2.92,1.83c1.25,1.22,1.88,2.76,1.88,4.6,0,1.19-.99,1.78-2.97,1.78l-2.48-.2c-1.58,0-3.43,.28-5.54,.84-2.11,.56-3.95,1.19-5.49,1.88-1.55,.69-2.49,1.21-2.82,1.53-.33,.33-.64,.99-.94,1.98-.3,.99-.45,1.8-.45,2.42s.43,.94,1.29,.94c2.11,0,4.24-.35,6.39-1.04,2.14-.69,3.91-1.04,5.3-1.04,1.98,0,2.97,.91,2.97,2.72s-.28,3.04-.84,3.66c-.56,.63-1.7,1.07-3.41,1.34-3.37,.53-6.19,1.39-8.46,2.57-2.28,1.19-3.55,2.08-3.81,2.67s-.39,1.85-.39,3.76c0,.86,.23,1.29,.69,1.29s1.57-.08,3.32-.25c1.75-.16,2.89-.31,3.42-.45,5.87-1.32,9.57-1.98,11.09-1.98Z"/><path d="M667.75,393.55c0,1.12-.13,2.96-.39,5.5-.27,2.54-.78,4.8-1.54,6.78-.76,1.98-1.93,3.93-3.51,5.84-1.58,1.91-2.66,3.1-3.22,3.56-.56,.46-1.14,.69-1.73,.69s-1.07-.53-1.44-1.58c-.36-1.06-.78-2.04-1.24-2.97-.6-1.39-.96-6.53-1.09-15.44,0-3.43-.56-5.15-1.68-5.15-.33,0-.94,.12-1.83,.35-.89,.23-1.62,.53-2.18,.89-.56,.36-1.19,.54-1.88,.54s-1.14-.33-1.34-.99c-.53-1.65-1.16-2.97-1.88-3.96-.73-.99-1.09-1.81-1.09-2.48s.16-1.22,.5-1.68c.33-.46,.78-.73,1.34-.79,.56-.07,1.25-.25,2.08-.54,.82-.3,2.14-.61,3.96-.94,1.81-.33,3.6-.84,5.35-1.53s2.9-1.25,3.46-1.68c.56-.43,1.01-.64,1.34-.64,.72,0,1.62,.88,2.67,2.62,1.05,1.75,1.58,3.04,1.58,3.86s-.33,1.6-.99,2.33c-1.91,2.11-3,4.52-3.27,7.23-.33,3.1-.89,6.11-1.68,9.01-.07,.26-.1,.5-.1,.69,0,.93,.36,1.39,1.09,1.39s1.96-.92,3.71-2.77c1.75-1.85,3.05-4.62,3.91-8.32,.2-.86,.43-1.29,.69-1.29s.39,.5,.39,1.48Zm-4.85-40.09c.66,0,1.05,.51,1.19,1.53,.13,1.02,1.05,2.59,2.77,4.7,1.72,2.11,2.57,4.29,2.57,6.53,0,1.72-1.12,2.57-3.37,2.57-1.39,0-2.89-.45-4.51-1.34-1.62-.89-2.64-1.58-3.07-2.08-.43-.5-.64-1.12-.64-1.88s.18-1.95,.54-3.56c.36-1.62,1.01-3.1,1.93-4.46,.92-1.35,1.78-2.03,2.57-2.03Zm51.08,21.98c0,.26-.13,.63-.4,1.09-.27,.46-.54,1.75-.84,3.86-.3,2.11-.45,4.26-.45,6.44l.4,16.14c.2,6.27,.3,11.95,.3,17.03,0,1.19-.1,2.04-.3,2.57-.2,.53-.71,.79-1.54,.79s-2.86-.63-6.09-1.88c-3.23-1.25-6.67-3.53-10.3-6.83-.4-.33-.71-.49-.94-.49s-.4,.45-.5,1.34c-.1,.89-.15,2.75-.15,5.59,0,.99-.59,1.58-1.78,1.78l-1.68,.3c-.53,0-.89-.18-1.09-.54-.2-.36-.3-1.44-.3-3.22s-.07-3.51-.2-5.2c-.13-1.68-.2-4.8-.2-9.36,0-1.12-.3-1.68-.89-1.68-.86,0-2.25,.3-4.16,.89-1.92,.59-3.14,1.06-3.66,1.39-.53,.33-.86,.93-.99,1.78-.53,4.29-.96,6.91-1.29,7.87-.33,.96-1.06,1.44-2.18,1.44s-1.68-.69-1.68-2.08c0-6.2,.1-11.81,.3-16.83,.2-5.02,.53-8.99,.99-11.93,.46-2.94,.84-4.9,1.14-5.89s.61-1.63,.94-1.93c.33-.3,.74-.45,1.24-.45s1.34-.26,2.52-.79c1.19-.53,2.74-1.02,4.65-1.49,1.91-.46,2.87-.77,2.87-.94s-.2-.38-.59-.64c-2.44-1.45-3.66-3.2-3.66-5.25,0-1.05,.3-2.04,.89-2.97,.59-.92,1.17-1.39,1.73-1.39s1.01,.21,1.34,.64c.33,.43,.92,.96,1.78,1.58,.86,.63,1.62,.94,2.28,.94s1.5-.79,2.53-2.38,1.54-2.92,1.54-4.01-.28-1.83-.84-2.23c-.56-.4-1.07-.59-1.54-.59-1.19,0-4.92,1.65-11.19,4.95-1.05,.53-1.87,.79-2.42,.79s-1.17-.79-1.83-2.38c-.66-1.58-.99-2.66-.99-3.22s.2-.96,.59-1.19c.4-.23,1.73-.66,4.01-1.29,2.28-.63,4.26-1.07,5.94-1.34,1.68-.26,3.37-.4,5.05-.4s3.07-.15,4.16-.45c1.09-.3,2.13-.45,3.12-.45s2.66,.28,5,.84c2.34,.56,3.78,1.01,4.31,1.34,.53,.33,.79,.76,.79,1.29s-.31,1.24-.94,2.13c-.63,.89-2.28,2.41-4.95,4.55-2.67,2.15-5.33,4.08-7.97,5.79-.53,.33-.79,.69-.79,1.09s.15,.92,.45,1.58c.3,.66,1.14,.89,2.53,.69,1.39-.2,2.94-.3,4.65-.3s4.03,.3,6.93,.89c2.9,.59,4.36,1.45,4.36,2.57Zm-25.94,20v-3.46c0-.79-.23-1.19-.69-1.19s-1.78,.3-3.96,.89-3.38,1.29-3.61,2.08c-.23,.79-.35,1.75-.35,2.87,0,.79,.3,1.19,.89,1.19,.86,0,2.18-.11,3.96-.35,1.78-.23,2.86-.45,3.22-.64,.36-.2,.54-.66,.54-1.39Zm.69-14.16c0-.59-.07-1.01-.2-1.24-.13-.23-.46-.35-.99-.35-3.1,0-5.03,.73-5.79,2.18-.76,1.45-1.14,2.77-1.14,3.96,0,.4,.31,.59,.94,.59s1.87-.23,3.71-.69c1.85-.46,2.89-.86,3.12-1.19,.23-.33,.35-1.42,.35-3.27Zm13.86,32.47c1.05,0,1.83-.18,2.33-.54,.49-.36,.81-.86,.94-1.48,.13-.63,.2-2.19,.2-4.7s-.08-4.19-.25-5.05c-.17-.86-.61-1.29-1.34-1.29l-4.85,.5c-3.3,.26-5.02,.58-5.15,.94-.13,.36-.28,1.63-.45,3.81-.17,2.18-.25,3.3-.25,3.37,0,.79,.35,1.47,1.04,2.03,.69,.56,1.8,1.11,3.32,1.63,1.52,.53,3,.79,4.46,.79Zm2.67-21.19v-3.27c0-.59-.53-.86-1.58-.79l-7.03,.59c-.53,.07-.96,.22-1.29,.45-.33,.23-.53,1.14-.59,2.72l-.1,1.88c0,.86,.49,1.19,1.48,.99,2.97-.46,5.45-.76,7.42-.89,1.12-.07,1.68-.63,1.68-1.68Zm-.79-10.49c0-.73-.35-1.78-1.04-3.17-.69-1.39-1.48-2.08-2.38-2.08s-1.77,.17-2.62,.5c-.86,.33-1.39,.64-1.58,.94-.2,.3-.36,.84-.5,1.63l-.3,2.38c0,.59,.43,.86,1.29,.79,1.19-.13,2.97-.2,5.35-.2,1.19,0,1.78-.26,1.78-.79Z"/><path d="M708.44,495.03c2.11,0,3.53,1.02,4.26,3.07,.72,2.05,1.09,3.5,1.09,4.36,0,1.65-.63,2.48-1.88,2.48-.33,0-.73-.1-1.19-.3-1.65-.59-3.61-.89-5.89-.89s-4.9,.15-7.87,.45c-2.97,.3-4.65,.53-5.05,.69-.4,.17-.79,.5-1.19,.99s-1.35,1.5-2.87,3.02c-1.52,1.52-2.97,3.32-4.36,5.4-1.39,2.08-2.11,3.53-2.18,4.36-.07,.83-.38,1.52-.94,2.08-.56,.56-1.95,1.22-4.16,1.98-2.21,.76-3.94,1.14-5.2,1.14s-2.52-.15-3.81-.45c-1.29-.3-1.93-.69-1.93-1.19s.33-.94,.99-1.34c7.66-3.37,12.47-6.32,14.45-8.86,1.98-2.54,2.97-4.27,2.97-5.2,0-.4-.21-.59-.64-.59s-2.64,.33-6.63,.99c-3.99,.66-6.3,1.16-6.93,1.49-.63,.33-1.21,.5-1.73,.5s-.96-.11-1.29-.35c-.33-.23-.63-.35-.89-.35s-.49,.17-.69,.5c-1.91,3.04-3.75,5.33-5.49,6.88-1.75,1.55-3.04,2.33-3.86,2.33s-1.6-1.32-2.33-3.96-1.09-4.87-1.09-6.68,.1-3.45,.3-4.9c.2-1.45,.3-2.57,.3-3.37,0-2.97-.93-4.46-2.77-4.46-.53,0-1.19,.17-1.98,.5-.79,.33-1.5,.5-2.13,.5s-1.52-1.04-2.67-3.12-1.73-3.42-1.73-4.01c0-1.19,.59-1.81,1.78-1.88,2.44-.26,5.13-.81,8.07-1.63,2.94-.82,5.16-1.7,6.68-2.62,.4-.2,.88-.3,1.44-.3s1.62,.59,3.17,1.78c1.55,1.19,2.33,2.51,2.33,3.96s-.53,2.74-1.58,3.86c-2.57,2.71-4.22,5.2-4.95,7.47-.73,2.28-1.09,3.78-1.09,4.5s.45,1.09,1.34,1.09,2.26-.73,4.11-2.18c1.85-1.45,3.79-4.92,5.84-10.39,.46-1.12,.86-1.68,1.19-1.68s.5,.66,.5,1.98c0,2.64-.6,5.48-1.78,8.51-.13,.33-.2,.63-.2,.89s.43,.4,1.29,.4c1.58,0,4.77-.66,9.55-1.98,4.79-1.32,7.51-2.06,8.17-2.23,.66-.16,1.27-1.14,1.83-2.92,.56-1.78,.87-4.26,.94-7.42,.06-3.17,.51-5.31,1.34-6.43,.83-1.12,1.54-1.68,2.13-1.68s1.12,.21,1.58,.64c.46,.43,.69,.79,.69,1.09s-.03,.54-.1,.74c-.46,1.06-.69,3.53-.69,7.42s.08,6.07,.25,6.53c.16,.46,.61,.69,1.34,.69,1.78,0,4.95-.53,9.5-1.58,.92-.2,1.71-.3,2.38-.3Zm-42.17-28.12c0,.79-.13,1.82-.4,3.07-.26,1.25-.66,1.88-1.19,1.88-.2,0-.79-.3-1.78-.89s-1.93-1.04-2.82-1.34-1.52-.97-1.88-2.03c-.36-1.05-.54-2.97-.54-5.74,0-1.71,.51-3.1,1.54-4.16,1.02-1.05,1.8-1.58,2.33-1.58,.86,0,1.86,1.42,3.02,4.26,1.15,2.84,1.73,5.02,1.73,6.53Zm33.76,4.95c4.55,0,8.2,1.55,10.94,4.65,2.74,3.1,4.11,5.31,4.11,6.63,0,.53-.2,.96-.59,1.29-.4,.33-1.54,.64-3.42,.94s-3.88,.45-5.99,.45-3.4-.08-3.86-.25c-.46-.16-.69-.4-.69-.69s.45-.68,1.34-1.14c.89-.46,1.7-1.22,2.43-2.28,.73-1.06,1.09-2.04,1.09-2.97s-.3-1.78-.89-2.57c-.6-.79-1.5-1.19-2.72-1.19s-2.71,.17-4.46,.5c-1.75,.33-3.09,.73-4.01,1.19-3.63,1.98-6.67,3.2-9.11,3.66-.6,.13-.89,.36-.89,.69,0,.86,.96,1.75,2.87,2.67,.73,.33,1.09,1.25,1.09,2.77,0,2.11-.96,3.17-2.87,3.17-2.71,0-5.12-2.14-7.23-6.44-.4-.86-.79-1.29-1.19-1.29s-.86,.13-1.38,.4c-.53,.26-1.09,.4-1.68,.4-1.12,0-1.68-.58-1.68-1.73s.33-1.76,.99-1.83c1.85-.26,3.91-.96,6.19-2.08,2.28-1.12,3.68-1.96,4.21-2.52,.53-.56,.79-1.37,.79-2.43s-.56-1.58-1.68-1.58c-1.85,0-3.07,.23-3.66,.69-.4,.26-.86,.4-1.39,.4s-.97-.51-1.34-1.53c-.36-1.02-.54-1.96-.54-2.82,0-1.32,.38-2.01,1.14-2.08,.76-.07,2.38-.51,4.85-1.34,2.47-.82,3.84-1.44,4.11-1.83,.26-.4,.61-2.38,1.04-5.94,.43-3.56,.68-6.27,.74-8.12,.06-1.85,.69-2.77,1.88-2.77s2.18,.18,2.97,.54c.79,.36,1.19,.79,1.19,1.29s-.1,.94-.3,1.34c-.46,1.06-.69,4.49-.69,10.3,0,.92,.63,1.25,1.88,.99,2.84-.53,4.69-.79,5.54-.79s1.39,.33,1.58,.99c.2,.66,.3,1.32,.3,1.98,0,2.38-.93,3.76-2.77,4.16-1.25,.26-2.57,.73-3.96,1.39-1.39,.66-2.18,1.16-2.38,1.49-.2,.33-.3,1.06-.3,2.18s.73,1.68,2.18,1.68c.46,0,1.29-.1,2.48-.3,1.19-.2,2.44-.3,3.76-.3Zm-14.85,23.17c0,2.05-1.25,3.07-3.76,3.07-1.78,0-3.28-.58-4.5-1.73-1.22-1.15-1.83-2.62-1.83-4.41,0-.92,.18-1.65,.54-2.18,.36-.53,.73-.79,1.09-.79s.71,.13,1.04,.4c1.91,1.25,3.93,2.24,6.04,2.97,.4,.13,.72,.45,.99,.94,.26,.5,.39,1.07,.39,1.73Zm26.04,26.93c0,2.77-.3,4.16-.89,4.16s-1.5-.4-2.72-1.19-2.62-1.88-4.21-3.27c-1.58-1.39-3.61-3.28-6.09-5.69s-3.81-3.76-4.01-4.06c-.2-.3-.3-.64-.3-1.04,0-.73,.41-1.09,1.24-1.09s3.27,.56,7.33,1.68c4.06,1.12,6.48,1.92,7.28,2.38,.79,.46,1.39,1.42,1.78,2.87,.4,1.45,.59,3.2,.59,5.25Z"/><path d="M689.54,558.59c0,.53,.05,.97,.15,1.34,.1,.36,.66,1.35,1.68,2.97,1.02,1.62,2.06,3.04,3.12,4.26,1.05,1.22,2.08,2.26,3.07,3.12,2.97,2.64,5.81,5.51,8.52,8.61,2.44,2.77,5.71,5.12,9.8,7.03,5.94,2.77,9.45,4.6,10.54,5.49,1.09,.89,1.63,1.67,1.63,2.33s-.31,1.09-.94,1.29c-.63,.2-2.13,.3-4.5,.3s-4.8-.23-7.28-.69c-2.47-.46-4.55-.78-6.24-.94-1.68-.16-2.71-1.44-3.07-3.81s-1.19-4.42-2.47-6.14c-1.29-1.72-3-3.25-5.15-4.6-2.14-1.35-4.04-2.95-5.69-4.8-1.65-1.85-3.1-3.2-4.36-4.06-1.25-.86-2.14-1.29-2.67-1.29s-1.01,.26-1.44,.79c-.43,.53-1.4,2.23-2.92,5.1-1.52,2.87-2.44,4.82-2.77,5.84-.33,1.02-.49,2.18-.49,3.46s.49,1.93,1.48,1.93c.26,0,.71-.07,1.34-.2,.62-.13,1.3-.2,2.03-.2,1.71,0,2.57,.5,2.57,1.49,0,.26-.04,.63-.1,1.09-.4,1.98-.59,4.09-.59,6.34,0,.86,.13,1.29,.39,1.29s2-.84,5.2-2.52c3.2-1.68,5.06-2.66,5.59-2.92,.53-.26,.84-.54,.94-.84,.1-.3,.21-.45,.35-.45,.46,0,.91,.61,1.34,1.83,.43,1.22,.64,2.28,.64,3.17s-.56,1.63-1.68,2.23c-.39,.2-1.58,1.06-3.56,2.57-1.98,1.52-4.42,3.1-7.33,4.75-1.26,.79-1.88,1.67-1.88,2.62s.11,2.18,.35,3.66c.23,1.48,.59,2.76,1.09,3.81,.49,1.06,1.6,1.72,3.32,1.98,1.71,.26,3.25,.4,4.6,.4s2.79-.23,4.31-.69c1.52-.46,2.56-.92,3.12-1.39,.56-.46,.99-1.29,1.29-2.47,.3-1.19,.45-2.74,.45-4.65l-.2-3.96c0-.99,.3-1.49,.89-1.49,.33,0,.66,.18,.99,.54,.33,.36,.89,1.57,1.68,3.61,.79,2.05,1.65,4.72,2.57,8.02,.92,3.3,1.38,5.46,1.38,6.49s-.21,1.7-.64,2.03c-.43,.33-1.32,.53-2.67,.59-1.35,.07-3.3,.3-5.84,.69-2.54,.4-5.07,.59-7.57,.59s-5-.69-7.47-2.08-4.21-2.92-5.2-4.6-1.62-4.8-1.88-9.36c-.27-4.55-.4-7.52-.4-8.91s.08-2.84,.25-4.36c.16-1.52,.25-2.67,.25-3.47,0-2.38-.5-3.56-1.49-3.56-.33,0-.73,.2-1.19,.59-3.3,2.97-5.97,5.1-8.02,6.39-2.05,1.29-3.81,2-5.3,2.13-1.48,.13-2.28,.31-2.38,.54-.1,.23-.38,.91-.84,2.03-.46,1.12-1.02,2.38-1.68,3.76-.66,1.39-.99,2.66-.99,3.81s.46,1.73,1.38,1.73,3.04-1.49,6.34-4.46c.33-.33,.63-.5,.89-.5s.4,.36,.4,1.09-.4,2.34-1.19,4.85c-.79,2.51-2.13,4.93-4.01,7.28-1.88,2.34-3.3,3.51-4.26,3.51s-1.91-1.19-2.87-3.56-1.34-4.37-1.14-5.99c.2-1.62,.3-5.13,.3-10.54,0-2.31-.86-3.46-2.57-3.46-1.26,0-2.61,.26-4.06,.79-1.45,.53-2.46,1.17-3.02,1.93-.56,.76-1.06,1.14-1.49,1.14s-1.25-.94-2.47-2.82c-1.22-1.88-1.83-3.45-1.83-4.7,0-.79,.66-1.25,1.98-1.39,1.65-.2,3.74-.58,6.29-1.14,2.54-.56,4.26-1.09,5.15-1.58,.89-.5,2.33-1.63,4.3-3.42,.66-.59,1.37-.89,2.13-.89s1.8,.53,3.12,1.58c1.32,1.06,1.98,2.24,1.98,3.56,0,.53-.13,1.04-.4,1.53-.27,.5-.4,1.07-.4,1.73,0,.4,.21,.59,.64,.59s1.25-.79,2.47-2.38c1.22-1.58,2.85-3.53,4.9-5.84,.99-1.12,2.13-3.05,3.42-5.79,1.29-2.74,3.08-6.93,5.39-12.57,2.31-5.64,3.71-9.41,4.21-11.29,.5-1.88,1.09-3.7,1.78-5.45,.69-1.75,1.15-2.79,1.38-3.12,.23-.33,.92-.5,2.08-.5s2.04,.21,2.67,.64c.63,.43,.94,1.04,.94,1.83s-.23,1.57-.69,2.33c-.46,.76-.88,1.8-1.24,3.12-.37,1.32-.54,2.54-.54,3.66Zm-33.36,3.66c.59,0,1.05,.41,1.39,1.24,.33,.83,.96,1.77,1.88,2.82,1.71,1.85,2.94,3.35,3.66,4.5,.72,1.16,1.09,2.36,1.09,3.61,0,2.05-.66,3.07-1.98,3.07-.4,0-1.27-.26-2.62-.79-1.35-.53-2.39-.89-3.12-1.09-1.65-.53-2.47-1.58-2.47-3.17,0-6.8,.72-10.2,2.18-10.2Z"/></g></svg>