<?xml version="1.0" encoding="UTF-8"?><svg id="uuid-82cbeb57-94f8-4d0f-8b6c-289ab9fd209d" xmlns="http://www.w3.org/2000/svg" viewBox="0 0 1366 768"><defs><style>.uuid-2e473baf-96a7-4b13-8eed-10856f2bb7ca{fill:#fff;}</style></defs><rect class="uuid-2e473baf-96a7-4b13-8eed-10856f2bb7ca" width="1366" height="768"/><path d="M0,768c13.74-11.98,35.04-27.81,64-39,57.43-22.19,109.81-12.52,133-9,49.6,7.52,19.81-4.91,257-15,109.92-4.67,211.35-8.74,344-2,55.5,2.82,48.29,4.06,83,5,153.62,4.14,203.44-22.74,289-15,98.17,8.88,165.01,54.97,182.27,65.92,5.81,3.69,10.54,6.88,13.73,9.08H0Z"/><g><path d="M768.97,181.36s10.58,7.69,16.89,13.05c-.41,1.51-1.92,2.2-3.85,2.2h-70.05l16.34,12.22c-.82,1.1-2.61,2.47-5.49,2.88v29.25c0,9.2-2.47,14.15-20.05,15.38-.27-4.12-.55-7.14-1.92-8.93-1.37-1.65-2.88-3.3-8.24-4.26v-1.65s7.83,.55,10.16,.55c1.79,0,2.2-.82,2.2-2.33v-4.12h-18.68v16.76c0,1.65-7.55,5.49-14.97,5.49h-2.61v-60.02l18.27,7.14h16.62l7.42-8.38h-53.84l-1.1-3.85h40.79c-.55-.27-.96-.55-1.51-.82-.82-6.46-4.81-13.18-8.79-17.03l.82-.69c29.67-3.02,29.67,13.6,20.6,18.54h21.7c2.2-5.91,4.12-13.87,5.08-19.64l25.41,6.04c-.55,1.65-2.06,2.88-5.22,2.75-4.53,3.57-10.3,7.55-16.62,10.85h21.43l9.2-11.4Zm5.08,57.41c0,8.1-1.51,12.91-10.03,15.52l14.28,11.67c-1.1,1.24-2.61,2.06-5.49,2.47-2.47,16.89-6.32,27.47-13.73,31.86-4.67,2.75-10.3,3.98-19.23,3.98,.14-4.94-.55-9.48-3.02-11.95-2.75-2.88-7.97-5.08-14.56-6.32v-1.51c6.73,.55,17.17,1.1,20.05,1.1,2.2,0,3.43-.27,4.53-.96,2.75-1.79,5.08-9.06,6.59-19.5h-30.08c-6.46,23.21-29.67,34.47-66.2,38.59l-.41-1.51c26.1-7.69,39.69-19.23,43.54-37.08h-39.14l-1.24-3.85h92.71l6.59-6.04c-2.2,.41-4.53,.69-7.28,.82-.41-4.26-.82-7.55-2.88-9.48-1.79-1.65-3.98-3.43-10.71-4.53v-1.65s12.5,.82,14.97,.82c1.65,0,2.2-.41,2.2-1.92v-39.28l23.07,1.92c-.28,2.06-1.65,3.02-4.53,3.43v33.38Zm-87.76-29.94v9.2h18.68v-9.2h-18.68Zm18.68,22.94v-9.89h-18.68v9.89h18.68Zm41.2,4.53c0,1.24-7.55,4.12-13.87,4.12h-2.61v-38.73l21.01,1.79c-.28,1.65-1.1,2.88-4.53,3.43v29.39Z"/><path d="M656.07,366.51h36.67c-1.79-.69-3.57-1.79-5.22-3.57,1.1-3.85,.82-8.1-.27-10.58h-5.91v3.43c0,1.51-7.42,5.08-14.42,5.08h-2.33v-48.07l17.44,6.87h26.78l7.42-8.24,16.07,11.95c-.82,1.1-2.75,2.33-5.63,2.88v27.88c-.14,.96-8.38,3.71-13.6,3.71h-2.88v-5.49h-15.52c16.07,3.3,13.73,11.54,6.87,14.15h13.32l8.24-10.44s9.34,7.14,14.97,12.09c-.41,1.51-1.79,2.2-3.71,2.2h-77.19l-1.1-3.85Zm48.07,32.96v22.94c0,10.99-2.33,17.72-18.68,18.95-.14-4.81-.41-8.65-1.65-10.99-1.1-2.06-2.75-3.85-7.42-4.81v-1.65s6.87,.41,8.79,.41c1.65,0,2.06-.82,2.06-2.2v-9.48c-.69,.41-1.79,.55-3.43,.55-5.63,8.79-14.83,18.13-26.1,23.49l-1.1-1.51c5.63-7.69,9.48-19.37,11.4-28.71-.69,.14-1.24,.14-1.79,.14h-2.2v-35.02l17.17,6.59h26.92l7.14-7.55,15.11,11.12c-.82,.82-2.33,1.92-4.67,2.47v16.34c-.14,.96-8.38,3.71-13.46,3.71h-2.88v-4.81h-5.22Zm-16.89,0h-6.87v2.33c0,.82-2.33,2.2-5.49,3.3l12.36,5.22v-10.85Zm-6.87-17.44v13.6h28.98v-13.6h-28.98Zm.96-58.51v10.44h28.84v-10.44h-28.84Zm0,25h28.84v-10.71h-28.84v10.71Zm24.45,57.68c36.81,5.77,21.15,33.37,6.73,21.97-.41-7.55-4.12-15.79-7.83-21.29l1.1-.69Zm82.54-9.07c-.96,1.65-2.47,2.2-5.91,1.65-18.13,22.52-39.28,35.57-65.79,43.4l-.69-1.65c20.88-12.5,36.67-30.08,48.89-55.9l23.49,12.5Zm-60.16-5.08c13.73-11.54,25-27.33,34.88-45.32l22.52,14.15c-.96,1.37-2.33,1.92-5.63,1.24-14.97,13.6-32.83,24.45-50.96,31.59l-.82-1.65Zm.82-37.08c13.32-10.99,24.31-26.1,33.79-42.85l21.7,13.73c-.96,1.51-2.33,1.92-5.49,1.24-14.42,12.5-31.73,22.8-49.03,29.53l-.96-1.65Z"/><path d="M598.06,124.18s3.36,2.88,5.28,4.8c-.1,.53-.62,.77-1.3,.77h-7.97v4.37c13.83,3.6,7.68,14.26,2.26,9.46-.05-2.83-1.01-5.86-2.26-8.21v25.01c0,.53-2.83,1.87-5.38,1.87h-1.34v-19.06c-2.45,3.22-5.47,6.05-9.07,8.5l-.48-.48c4.56-5.57,7.44-13.68,8.83-21.46h-7.63l-.38-1.34h8.74v-11.67l8.5,.82c-.1,.72-.43,1.2-1.78,1.39v9.46h1.06l2.93-4.22Zm13.49,8.93c17.38,2.06,13.58,14.88,6.86,11.28-1.34-3.36-4.13-7.06-6.86-9.79v25.2c0,.67-2.93,2.3-5.47,2.3h-1.3v-45.03l8.54,.82c-.1,.72-.43,1.2-1.78,1.39v13.83Z"/><path d="M617.55,176.3s3.7,2.88,5.91,4.85c-.14,.53-.67,.77-1.34,.77h-21.89l3.79,2.83c-.29,.38-1.01,.67-2.11,.24-2.06,.67-5.14,1.44-8.45,2.02,2.59,0,5.47-.05,8.45-.1,2.59-1.39,4.8-2.74,6.19-3.84l7.06,4.27c-.29,.48-1.06,.86-2.35,.58-5.09,2.21-14.74,4.8-23.28,6.38,5.9,0,14.35-.14,23.28-.34-1.34-1.54-2.83-2.88-4.18-3.94l.34-.34c16.85,.05,13.83,12.53,7.34,9.5-.62-1.34-1.54-2.78-2.64-4.13-2.69,.43-5.91,.91-9.55,1.44v7.06c0,4.18-.96,6.53-7.92,7.06-.1-1.92-.24-3.31-.86-4.18-.58-.82-1.34-1.54-3.5-1.92-3.65,2.06-8.59,3.79-13.63,4.61l-.34-.53c4.56-2.59,9.02-6.82,11.19-10.18l-3.41,.43c-.38,.58-.82,.96-1.3,1.15l-2.54-6.14s1.44-.1,2.26-.34c3.89-.67,8.59-2.3,12.91-4.22-3.17,.58-6.72,1.2-10.51,1.78-.24,.24-.53,.43-.77,.53l-2.02-4.66s.82-.14,1.39-.29c3.7-.62,8.31-2.93,11.28-4.75h-17.43l-.38-1.34h18.72v-4.27h-13.87l-.38-1.34h14.26v-4.27h-15.89l-.38-1.34h16.27v-4.7l8.59,.67c-.05,.67-.38,1.15-1.73,1.39v2.64h7.73l3.26-3.89s3.7,2.59,6.05,4.46c-.14,.53-.67,.77-1.39,.77h-15.65v4.27h6.82l3.12-3.6s3.5,2.4,5.66,4.18c-.1,.53-.62,.77-1.34,.77h-14.26v4.27h10.22l3.22-4.27Zm-20.26,21.12c-2.5,.29-5.14,.62-7.87,.96l6.53,4.22c-.29,.43-.72,.67-1.82,.48-.43,.34-.91,.62-1.39,.91,1.2,.1,3.12,.19,3.74,.19s.82-.29,.82-.72v-6.05Zm7.73,1.92c18.29-.72,17.09,11.52,10.37,9.7-2.45-3.22-7.15-7.1-10.71-9.31l.34-.38Z"/><path d="M616.45,213.5s4.37,3.17,6.96,5.38c-.1,.53-.67,.77-1.39,.77h-17.47c-2.21,2.64-4.94,5.57-7.39,7.63h15.31l2.98-3.36,6.19,4.75c-.29,.38-.91,.86-1.92,1.01v20.64c0,4.61-.86,7.2-7.39,7.78-.05-2.3-.19-3.98-.62-5.09-.43-1.06-1.06-1.87-2.69-2.21v-.62s2.3,.14,3.17,.14c.62,0,.77-.29,.77-.82v-20.88h-4.32v26.69c0,.29-1.92,1.49-5.18,1.49h-1.2v-28.18h-4.08v27.36c-.05,.34-1.92,1.54-5.18,1.54h-1.15v-28.9h-3.98v27.07c0,.77-2.83,2.3-5.62,2.3h-1.06v-33.51l7.25,2.78h6.82c.19-2.16,.38-5.14,.48-7.63h-17.14l-.38-1.34h34.42l3.84-4.8Z"/><path d="M624.42,271.15c-.38,.48-1.06,.82-2.16,1.01-.19,20.93-.53,28.66-3.26,31.54-1.78,1.87-4.03,2.74-7.54,2.69,.05-2.21-.29-3.84-1.1-4.7-.91-1.06-2.69-1.92-5.09-2.45v-.58c2.26,.19,5.38,.38,6.62,.38,.82,0,1.3-.24,1.73-.67,1.63-1.49,1.87-10.37,2.02-27.41h-11.71c-.96,1.63-1.97,3.17-3.02,4.56l2.59,1.06h3.46l2.64-2.93,5.57,4.22c-.29,.38-.96,.82-1.97,1.01v15.31c-.05,.34-2.88,1.39-4.8,1.39h-.96v-1.78h-4.13v2.3c0,.58-2.45,1.87-4.94,1.87h-.86v-18.43c-1.3,1.34-2.69,2.59-4.13,3.7l-.53-.34c1.25-2.4,2.54-5.38,3.74-8.64-2.88,3.89-8.3,9.02-13.06,12.38,3.46-.14,8.16-.48,12.82-.86l.05,.53c-2.69,1.49-7.63,3.98-13.68,6.43-.38,.43-.77,.77-1.2,.96l-2.88-6.96s1.34-.29,1.92-.67c2.02-1.58,4.66-5.09,6.82-8.74-1.54,.96-3.31,1.97-5.18,3.02-.29,.38-.62,.62-1.01,.82l-2.83-6.77s1.1-.29,1.58-.62c2.16-2.11,5.09-9.17,5.81-13.01l8.11,2.78c-.19,.43-.67,.86-1.63,.86-2.3,3.31-6.19,7.39-9.65,10.03,1.92-.14,4.27-.29,6.72-.53,.86-1.73,1.58-3.36,2.02-4.7l5.9,3.26c1.34-3.84,2.5-7.97,3.31-11.95l8.74,2.78c-.19,.58-.82,1.01-1.92,.96-.82,1.87-1.68,3.65-2.64,5.33h10.37l3.55-3.65,5.81,5.18Zm-45.84,25.63c3.12-.48,10.8-2.02,18.05-3.74l.1,.43c-2.79,2.3-7.25,5.66-13.83,9.75-.24,.67-.77,1.2-1.39,1.39l-2.93-7.82Zm24.72-18.87v6.62h4.13v-6.62h-4.13Zm4.13,14.55v-6.58h-4.13v6.58h4.13Z"/><path d="M581.5,319.34c2.74,5.57,3.41,10.8,.82,13.25-2.98,2.69-6.62-1.01-3.17-4.51,1.1-1.25,2.06-4.75,1.73-8.69l.62-.05Zm14.11,4.27c-1.3,1.15-2.88,2.45-4.37,3.55-.1,2.74-.29,5.23-.58,7.63,12.77,4.22,6.96,14.83,1.68,10.08,.1-2.69-.77-5.62-2.02-8.07-1.34,7.63-4.51,13.25-11.95,17.52l-.48-.67c8.45-9.7,7.06-22.99,7.06-44.98l8.21,.72c-.14,.82-.67,1.25-1.78,1.39-.05,4.37,0,8.35-.05,12.05,.58-2.16,1.1-4.32,1.39-5.62l6.82,3.89c-.19,.43-.86,.82-1.87,.58-.48,.48-1.1,1.06-1.82,1.68h12.72c1.1-3.89,2.4-9.75,3.26-14.79l8.5,2.59c-.19,.62-.82,1.06-1.92,1.06-2.4,4.18-5.33,8.16-8.4,11.14h4.03l3.22-4.32s3.7,2.93,5.91,4.9c-.14,.53-.67,.77-1.34,.77h-25.92l-.29-1.1Zm22.9,22.27s3.7,2.93,5.91,4.9c-.14,.53-.67,.77-1.39,.77h-30.15l-.38-1.34h22.8l3.22-4.32Zm-22.08-36.67c15.26,4.66,9.26,16.51,3.36,11.47-.34-3.89-2.06-8.06-3.79-11.23l.43-.24Zm15.07,26.79l3.26-4.32s3.65,2.93,5.86,4.9c-.14,.53-.67,.77-1.34,.77h-21.65l-.38-1.34h14.26Z"/><path d="M623.98,367.58c-.38,.48-1.01,.82-2.16,1.01-.34,20.16-.91,27.94-3.74,30.87-1.87,1.87-4.08,2.69-7.68,2.69,0-2.26-.29-3.84-1.15-4.8-.91-1.06-2.69-1.92-5.18-2.45l.05-.58c2.3,.19,5.57,.38,6.82,.38,.82,0,1.3-.19,1.78-.62,1.73-1.54,2.16-10.37,2.45-26.69h-7.39c-2.5,4.13-5.42,7.49-8.78,10.13l-.29-.19v19.44c-.05,.43-3.17,1.78-5.42,1.78h-1.06v-3.79h-5.9v3.31c0,.72-2.45,2.21-5.23,2.21h-1.01v-36.67l6.05,2.5c.24-2.69,.43-6.48,.58-9.22l9.26,2.21c-.24,.86-.91,1.2-2.06,1.2-1.44,1.68-3.6,4.08-5.33,5.95h3.17l2.98-3.31,5.9,4.66c-.34,.43-.96,.82-1.92,1.06v8.02c2.26-5.09,4.56-12.82,5.62-19.87l8.93,2.59c-.19,.62-.82,1.01-1.92,1.01-.82,2.02-1.73,3.89-2.74,5.67h6l3.6-3.65,5.81,5.18Zm-37.68,0v11.91h5.9v-11.91h-5.9Zm5.9,25.83v-12.58h-5.9v12.58h5.9Zm9.94-17.62c15.17,3.5,8.69,15.26,2.78,10.13-.1-3.46-1.49-7.2-3.17-9.89l.38-.24Z"/><path d="M623.12,431.09c-.24,.43-.72,.72-1.82,.53-2.74,1.39-6.53,2.88-10.32,3.98,3.6,2.78,8.02,4.18,12.87,4.85l-.1,.72c-3.22,1.78-5.14,4.42-5.42,7.68-8.16-3.74-12.67-10.85-14.98-22.61-1.73,2.21-3.98,4.22-6.62,6.05v9.75c2.83-.67,6.1-1.44,9.26-2.26l.14,.48c-2.59,2.02-7.54,5.67-13.83,9.5-.34,.48-.77,.86-1.15,1.1l-4.27-6.87c2.45-1.34,2.83-1.92,2.83-2.93v-4.94c-3.6,1.58-7.58,2.93-11.81,3.94l-.24-.48c7.01-3.41,12.82-8.98,16.13-14.02h-14.64l-.38-1.34h18.53v-5.71h-13.44l-.38-1.34h13.82v-5.33h-15.84l-.38-1.34h16.23v-6.14l8.88,.72c-.1,.67-.43,1.15-1.78,1.34v4.08h7.78l3.26-4.56s3.75,3.07,5.91,5.14c-.14,.53-.67,.77-1.34,.77h-15.6v5.33h6.34l3.22-4.46s3.7,3.02,5.81,5.04c-.14,.53-.67,.77-1.34,.77h-14.02v5.71h9.5l3.36-4.66s3.79,3.12,6.05,5.23c-.14,.53-.67,.77-1.39,.77h-17.76c1.25,3.7,3.02,6.53,5.23,8.64,2.45-2.64,4.99-5.95,6.24-8.11l7.49,4.99Z"/><path d="M591.25,486.82c3.55,3.31,8.54,4.37,18.53,4.32,4.94,0,9.17-.05,14.11-.38v.58c-2.54,.62-3.98,3.02-4.22,5.81h-12c-9.89,0-13.87-2.74-17.47-8.78-.14-.24-.29-.43-.38-.53l-1.3,.29-.14,.24c-1.01,1.63-3.79,5.52-5.57,8.5,.1,.53-.19,.96-.67,1.2l-4.32-7.01c1.97-.91,4.51-2.3,6.67-3.41v-15.6h-5.66l-.29-1.34h5.18l3.26-4.32,6.82,5.47c-.43,.48-1.15,.86-2.54,1.1v13.87Zm-10.23-33.27c16.66,2.83,10.99,15.51,4.46,10.75-.72-3.7-2.83-7.63-4.85-10.51l.38-.24Zm11.71,11.42h10.61c.14-3.55,.14-7.49,.14-11.86l9.12,.67c-.1,.72-.62,1.25-1.73,1.39-.1,3.55-.14,6.82-.34,9.79h4.08l3.36-4.7s3.79,3.17,6,5.28c-.14,.53-.67,.77-1.39,.77h-12.19c-.14,2.02-.43,3.94-.82,5.71,18.91,5.28,14.31,19.15,7.01,14.5-1.54-4.22-4.56-8.79-7.54-12.53-1.97,6.38-6.24,10.99-15.99,13.92l-.43-.62c7.87-5.18,9.99-11.86,10.61-20.98h-10.13l-.38-1.34Z"/></g><g><path d="M673.6,514.35c8.69-1.83,15.06,3.93,22.31,6.81,5.93,8.72,7.67,17.83,1.3,26.93-5.44,7.77-2.05,15.11-.43,22.86,.93,4.47,2.28,6.7,7.12,6.58,4.8-.13,9.98,1.05,12.78-4.3,1.85-3.55,1.19-6.87-1.02-10.52-9.75-16.11-6.15-28.61,9.8-36.47,2.28-1.12,3.91-3.57,5.84-5.4,.81,.5,1.63,.97,2.46,1.43,1.06,2.15,1.81,3.17,2.25,3.05,.62-.17,.62-2.61,0-7.33,2.21,2.91,4.42,5.99,6.6,9.25,.65,.97,1.28,1.93,1.9,2.9-2.74,7.71-8.32,12.93-14.4,18.18-11.13,9.61-7.61,22.04-2.31,32.31,6.01,11.67,13.2-.66,19.97-1.4,1.06-.12,2.13-.13,3.2-.2,.49,.64,.88,1.34,1.18,2.09-9.73,18.75-9.73,18.86,12.47,20.09,3.81,.21,7.04,1.34,6.48,5.06-.62,4.09-3.31,10.16-7.62,8.84-8.19-2.5-15.84,3.48-24.45-1.26-10.94-6.01-21.8,.78-26.27,12.83-7.02,18.93-5.78,38.76-6.89,58.24-1.17,20.4,1.37,22.3,21.45,22.48,43.61,.39,87.22,.76,130.83,1.14,0,13.47-.64,26.97,.22,40.39,.59,9.2-1.18,11.9-11.36,11.83-82.43-.57-164.86-.32-247.3-.32-27.48,0-54.97-.44-82.43,.26-8.6,.22-9.99-2.51-9.69-10.16,.6-15.06,.18-30.16,.18-45.24,42.02-.05,84.03-.05,126.05-.2,6.44-.02,13.56,.88,19.15-1.51,9.62-4.11,17.94-5.87,27.26,.49,4.48,3.05,10.99,2.15,10.99-4.34,.02-22.92,7.61-46.36-1.74-68.66-5.27-12.56-15.07-30.3-26.05-29.07-17.98,2.01-33.21,.3-48.77-7.15l.23,.18c-1.51-.52-3.01-1.08-4.54-1.54-6.12-1.81-14,9.17-18.26-1.03-4.1-9.81,7.6-9.59,12-13.99,9.39-9.41,8.26-21.14-3.71-29.48-2.43-1.69-2.29-3.17-1.65-5.17,.98-3.06,3.3-3.97,6.33-3.5,6.1,.94,14.38,1.22,14.81-5.57,1.38-21.8,12.1-12.61,21.59-7.43,6.06,3.3,12.45,2.6,18.81,2.97l-.17-.18c-2.41,5.21-4.99,10.36-7.19,15.66-3.31,7.97-2.59,14.44,7.2,16.96,.31,8.51,2.43,15.83,12.08,18.1,3.45,.81,6.34,.36,7.36-3.71,2.77-11.07-8.31-11.77-13.04-17.22-.52-.6-2.03-.36-3.08-.51,1.64-9.71,5.96-14.94,16.43-9.77,2.32,1.15,4.7,3.37,7.2,1.04,2.75-2.56,1.88-5.69,.48-8.81-1.74-3.87-3.17-7.87-4.73-11.81,2.73-.2,5.57-.26,6-3.89,.04-.34-.63-1.09-1.02-1.12-3.83-.34-4.01,2.73-4.77,5.24-9.85-1.35-6.65-10.41-9.42-15.94Zm-56.19,43.76c5.27,12.2,12.77,20.57,19.98,28.98,1.71,2,5.82,2.16,8.91,2.61,.63,.09,2.5-3.2,2.33-3.36-6.94-6.48-6.64-16.09-10.52-23.57-2.67-5.15-11.33-4.87-20.69-4.66Zm69.05,46.03c2.58-6.38,8.51-9.77,4.73-16.3-.36-.62-3.29-.72-3.99-.02-4.38,4.38-5.66,9.23-.74,16.32Zm10.3,7.36c-2.45,1.45-3.27,3.89-2.19,6.64,1.29,3.29,1.8,8.33,7.01,6.92,3.17-.85,2.24-4.43,1.51-7.04-.87-3.11-1.74-6.32-6.33-6.53Z"/><path d="M688,531c1.32-.44,2.93-1.62,3-3,.12-2.26-3.89-4.91-7-4-1.29,.38-2.88,1.5-3,3-.16,1.99,2.33,3.53,4,4,.48,.14,1.64,.45,3,0Z"/><path d="M736,518c-4.5,1.09-4.93,2.55-5,3-.32,2.07,3.7,4.77,10,7"/></g></svg>