<?xml version="1.0" encoding="UTF-8"?>
<svg id="_图层_1" data-name="图层 1" xmlns="http://www.w3.org/2000/svg" viewBox="0 0 1366 768">
  <defs>
    <style>
      .cls-1 {
        stroke: #e4e6d9;
        stroke-width: 4px;
      }

      .cls-1, .cls-2, .cls-3 {
        fill: none;
        stroke-miterlimit: 10;
      }

      .cls-2 {
        stroke-width: .84px;
      }

      .cls-2, .cls-3 {
        stroke: #000;
      }

      .cls-3 {
        stroke-width: 3.35px;
      }

      .cls-4 {
        fill: #18365d;
      }

      .cls-5 {
        fill: #e4e6d9;
      }

      .cls-6 {
        fill: red;
      }
    </style>
  </defs>
  <rect class="cls-4" width="1366" height="768"/>
  <g>
    <polyline class="cls-1" points="966.29 -201.89 795.22 -30.83 .11 764.29"/>
    <line class="cls-1" x1="1367.01" y1="701.99" x2="714.7" y2="49.69"/>
    <line class="cls-1" x1="1361.55" y1="291.45" x2="917.25" y2="-152.86"/>
    <line class="cls-1" x1="1028.96" y1="769.04" x2="512.16" y2="252.23"/>
    <line class="cls-1" x1="626.42" y1="771.58" x2="309.61" y2="454.78"/>
    <line class="cls-1" x1="220.37" y1="770.63" x2="107.07" y2="657.33"/>
  </g>
  <g>
    <rect class="cls-5" x="255.25" y="253.89" width="855.5" height="260.22"/>
    <rect class="cls-3" x="269.21" y="267.85" width="824.23" height="233.42"/>
    <rect class="cls-2" x="285.96" y="279.14" width="794.07" height="210.08"/>
    <g>
      <path d="M355.29,366.91c0,1.39,.22,2.73,.66,4.02,.44,1.28,.66,2.18,.66,2.69,0,1.76-.92,2.64-2.75,2.64-1.17,0-2.7-.28-4.57-.83-1.87-.55-2.99-1.04-3.35-1.49-.37-.44-.55-1.03-.55-1.76,0-1.76,1.41-3.83,4.23-6.21,2.82-2.38,4.51-3.58,5.06-3.58s.83,.35,.83,1.04-.04,1.3-.11,1.82c-.07,.51-.11,1.06-.11,1.65Zm34.98,5.28c0,.29,.29,.62,.88,.99,3.3,2.05,5.9,5.19,7.81,9.4,1.91,4.22,2.86,7.98,2.86,11.28,0,2.13-.84,3.19-2.53,3.19-.66,0-1.5-.28-2.53-.83-1.03-.55-5.1-1.49-12.21-2.81-4.91-.95-8.58-2.2-11-3.74-.37-.29-.77-.44-1.21-.44s-1.23,.62-2.37,1.87c-1.14,1.25-1.92,2.57-2.36,3.96-.44,1.39-1.12,2.57-2.04,3.52-.92,.95-2.88,1.92-5.89,2.92-3.01,.99-5.3,1.48-6.88,1.48s-3.1-.24-4.56-.71c-1.47-.48-2.2-1.01-2.2-1.59s.77-1.17,2.31-1.76c6.89-2.64,12.04-5.37,15.45-8.19,3.41-2.82,5.12-4.71,5.12-5.67,0-.22-.07-.44-.22-.66-.22-.37-.75-1.43-1.59-3.19-.84-1.76-1.41-2.64-1.71-2.64s-.51,.18-.66,.55c-1.69,3.96-3.12,6.42-4.29,7.37-1.17,.95-2.05,2.16-2.64,3.63-.07,.29-.4,.44-.99,.44s-1.71-.48-3.35-1.43-2.48-1.85-2.48-2.7,.22-1.54,.66-2.09c.44-.55,2.04-2.04,4.79-4.46s4.75-4.07,5.99-4.95c.73-.59,.99-1.17,.77-1.76-.66-1.69-.99-2.9-.99-3.63s.26-1.28,.77-1.65c.51-.37,1.03-.55,1.54-.55,1.54,0,2.6,1.43,3.19,4.29,.22,.95,1.1,2.57,2.64,4.84,1.54,2.27,2.64,3.41,3.3,3.41,.15,0,.31-.06,.5-.17,.18-.11,1.39-1.54,3.63-4.29,2.24-2.75,3.98-5.08,5.23-6.99,1.25-1.91,2.9-4.62,4.95-8.14,.44-.73,.95-1.19,1.54-1.38,.59-.18,1.67-.28,3.25-.28s2.93,.37,4.07,1.1c1.14,.73,1.71,1.65,1.71,2.75,0,1.39-.62,2.27-1.87,2.64-.95,.37-2.26,1.5-3.91,3.41-1.65,1.91-2.48,3.12-2.48,3.63Zm21.01,30.03c0,.51-.39,1.21-1.16,2.09s-1.52,2.6-2.25,5.17c-1.03,3.59-2.13,6.69-3.3,9.29-1.17,2.6-2.07,4.24-2.7,4.89-.62,.66-1.14,.99-1.54,.99s-1.01-.15-1.81-.44c-2.71-1.03-5.3-1.54-7.75-1.54s-6.03,.44-10.73,1.32c-4.69,.88-7.42,1.61-8.19,2.2-.77,.59-1.65,.88-2.64,.88s-1.67-.26-2.04-.77c-1.54-2.05-3.21-4.16-5-6.33-1.8-2.16-2.95-3.81-3.46-4.95-.51-1.14-.77-2.69-.77-4.67s.46-3.26,1.38-3.85c.92-.59,2.66-.88,5.23-.88s3.85,.62,3.85,1.87c0,.81-.48,1.67-1.43,2.58-.95,.92-1.43,2.15-1.43,3.69s.37,2.68,1.1,3.41c.73,.73,1.54,1.1,2.42,1.1s1.67-.17,2.37-.5c.7-.33,1.65-.7,2.86-1.1,1.21-.4,1.98-1.1,2.31-2.09,.33-.99,.5-2.33,.5-4.02s-.07-3.45-.22-5.28c-.15-1.83-.22-3.21-.22-4.12s.15-1.93,.44-3.03c.29-1.1,.57-1.82,.82-2.14,.26-.33,.73-.5,1.43-.5s2.15,.31,4.34,.93c2.2,.62,3.43,1.17,3.69,1.65,.26,.48,.39,.97,.39,1.48s-.18,1.21-.55,2.09c-.88,2.13-1.32,4.84-1.32,8.14,0,2.2,.15,3.48,.44,3.85,.29,.37,.77,.51,1.43,.44,.66-.07,1.69-.09,3.08-.06,1.39,.04,2.2,.06,2.42,.06,.95,0,1.81-.33,2.58-.99s1.56-1.91,2.36-3.74c.81-1.83,1.38-3.87,1.71-6.1,.33-2.24,.7-3.67,1.1-4.29,.4-.62,1.04-.94,1.92-.94,.59,0,2.13,.48,4.62,1.43,2.49,.95,3.74,1.87,3.74,2.75Zm-17.05-52.69c2.71,0,5.13,.26,7.26,.77,2.13,.51,4.12,1.47,6,2.86,1.87,1.39,3.57,2.95,5.11,4.67,1.54,1.72,2.86,3.59,3.96,5.61,1.1,2.02,1.65,3.25,1.65,3.69,0,.81-1.03,1.48-3.08,2.03-2.05,.55-3.92,.83-5.61,.83s-3.56-.05-5.61-.17c-2.05-.11-3.15-.24-3.3-.38-.15-.15-.22-.29-.22-.44,0-.37,.48-.88,1.43-1.54,3.01-1.98,4.51-4.01,4.51-6.1s-.97-3.94-2.92-5.55c-1.94-1.61-3.76-2.42-5.44-2.42s-3.85,.64-6.49,1.92c-2.64,1.28-5.59,2.36-8.85,3.25-3.26,.88-5.81,1.32-7.65,1.32s-4.11,.37-6.82,1.1c-2.71,.73-4.36,1.28-4.95,1.65-.59,.37-1.06,.55-1.43,.55s-.73-.42-1.1-1.26c-.37-.84-.55-1.56-.55-2.14,0-1.98,2.02-3.37,6.05-4.18,5.13-1.03,10.03-2.29,14.69-3.79,4.66-1.5,9.11-2.25,13.36-2.25Zm-12.1,14.63c0,.37-.13,.64-.39,.83-.26,.18-1.04,1.16-2.36,2.92-1.32,1.76-2.31,3.19-2.97,4.29s-1.28,1.65-1.87,1.65-1.48-.73-2.69-2.2c-1.21-1.47-1.81-2.53-1.81-3.19,0-1.25,1.45-2.47,4.34-3.68,2.9-1.21,4.91-1.82,6.05-1.82s1.71,.4,1.71,1.21Zm-6.05-32.89c1.32,0,3.45,1.45,6.38,4.34,2.93,2.9,4.4,5.92,4.4,9.08,0,1.1-.17,1.81-.5,2.15s-1.01,.5-2.04,.5-2.75-.28-5.17-.83-3.92-1.06-4.51-1.54c-.59-.48-1.06-1.47-1.43-2.97-.37-1.5-.55-2.9-.55-4.18s.37-2.69,1.1-4.23c.73-1.54,1.5-2.31,2.31-2.31Zm17.6,52.91c0-2.79-.73-4.91-2.2-6.38-1.47-1.47-2.57-2.2-3.3-2.2-.29,0-.7,.26-1.21,.77-1.98,2.2-4.62,4.62-7.92,7.26-.37,.37-.55,.71-.55,1.04s.77,.81,2.31,1.43c1.54,.62,3.67,.93,6.38,.93s4.47-.2,5.28-.6c.81-.4,1.21-1.16,1.21-2.25Zm19.25-3.74c0,2.13-.39,4.12-1.15,6-.77,1.87-1.49,2.8-2.15,2.8s-1.43-.66-2.31-1.98c-1.61-2.49-4.14-5.46-7.59-8.91-.95-.95-1.43-1.91-1.43-2.86s.48-1.43,1.43-1.43c.66,0,2.53,.48,5.61,1.43,3.08,.95,5.11,1.74,6.1,2.37,.99,.62,1.48,1.49,1.48,2.58Z"/>
      <path d="M485.86,352.83c0,1.61-.17,2.99-.5,4.12-.33,1.14-1.23,2.07-2.7,2.81-3.3,1.76-5.32,3.23-6.05,4.4-1.83,2.71-3.96,5.5-6.38,8.36-.29,.37-.44,.73-.44,1.1,0,.95,.77,1.43,2.31,1.43,.44,0,1.19-.15,2.25-.44,1.06-.29,2.33-.44,3.79-.44s3.23,.46,5.28,1.38c2.05,.92,3.08,1.89,3.08,2.92s-.37,1.94-1.1,2.75c-2.13,2.2-3.67,5.79-4.62,10.78-.22,1.61-1.25,2.6-3.08,2.97-3.52,.81-6.53,2.05-9.02,3.74-.66,.37-1.28,.55-1.87,.55s-1.36-.82-2.31-2.47c-.95-1.65-2.35-4.82-4.18-9.51-.22-.59-.55-.88-.99-.88s-1.03,.37-1.76,1.1c-1.39,1.69-2.46,2.84-3.19,3.46-.73,.62-1.69,.94-2.86,.94-2.27,0-3.41-.44-3.41-1.32s.66-1.91,1.98-3.08c5.87-5.06,10.06-9.7,12.59-13.92,2.53-4.22,3.79-6.73,3.79-7.54s-.46-1.25-1.38-1.32c-.92-.07-1.58-.33-1.98-.77-.4-.44-.99-1.65-1.76-3.63-.77-1.98-1.16-3.37-1.16-4.18s.33-1.47,.99-1.98c.66-.51,1.81-.81,3.46-.88,1.65-.07,3.1-.33,4.35-.77,4.03-1.25,8.76-1.87,14.19-1.87,1.76,0,2.64,.73,2.64,2.2Zm-10.89,29.26c0-1.91-.88-2.86-2.64-2.86-2.79,0-4.18,2.16-4.18,6.49,0,2.35,.48,3.52,1.43,3.52s2.09-.9,3.41-2.7c1.32-1.8,1.98-3.28,1.98-4.45Zm46.09,11c0,.95-.15,1.61-.44,1.98-.29,.37-.77,.55-1.43,.55s-1.23-.04-1.7-.11c-.48-.07-1.05-.11-1.71-.11-3.37,0-6.97,.7-10.78,2.09-1.47,.51-2.68,.77-3.63,.77l-2.53-.22c-.95,0-2.71,.29-5.28,.88-2.57,.59-4.14,.88-4.73,.88-1.32,0-2.11-.79-2.36-2.37-.26-1.58-.39-2.7-.39-3.36s.22-1.08,.66-1.26c.44-.18,.84-.26,1.21-.22,.37,.04,.62,.05,.77,.05,2.13,0,4.99-.73,8.58-2.2,1.61-.66,4.62-1.3,9.02-1.92,4.4-.62,7.53-.93,9.4-.93s3.23,.53,4.07,1.59c.84,1.06,1.27,2.37,1.27,3.91Zm19.47-11.55c0,1.03-.51,2.51-1.54,4.46-1.03,1.94-1.72,4.09-2.09,6.44-.95,5.72-4.22,13.02-9.79,21.89-1.98,3.3-3.01,5.52-3.08,6.66-.07,1.14-.59,1.71-1.54,1.71s-4.16-.95-9.62-2.86c-5.46-1.91-9.09-3.92-10.89-6.05-1.8-2.13-2.69-3.43-2.69-3.91s.4-.64,1.21-.5c4.25,.81,7.77,1.21,10.56,1.21s5-.35,6.65-1.04c1.65-.7,3.37-2.47,5.17-5.33,1.8-2.86,3.21-6.21,4.24-10.06,1.03-3.85,1.54-6.62,1.54-8.31,0-2.35-.97-4.22-2.92-5.61-1.94-1.39-5.21-2.09-9.79-2.09s-9.24,.75-13.97,2.25c-4.73,1.5-7.41,2.44-8.03,2.8-.62,.37-1.19,.55-1.71,.55-1.03,0-1.54-1.03-1.54-3.08,0-.88,.5-2.07,1.48-3.58,.99-1.5,2.04-4.2,3.14-8.08,1.1-3.89,1.8-7.44,2.09-10.67,.15-1.83,.75-2.75,1.81-2.75s2.22,.2,3.46,.61c1.25,.4,1.87,.95,1.87,1.65s-.18,1.3-.55,1.82c-.59,1.17-.95,2.79-1.1,4.84-.07,.73-.29,2-.66,3.79-.37,1.8-.64,3.03-.82,3.69-.18,.66-.27,1.14-.27,1.43,0,1.1,.7,1.65,2.09,1.65,.88,0,1.52-.2,1.92-.61,.4-.4,1.14-1.94,2.2-4.62,1.06-2.68,1.96-5.57,2.69-8.69,.73-3.12,1.1-5.78,1.1-7.98,0-3.37-1.39-5.06-4.18-5.06-1.54,0-3.37,.7-5.5,2.09-2.13,1.39-3.37,2.37-3.74,2.92-.37,.55-.86,.83-1.48,.83s-1.39-.79-2.31-2.37c-.92-1.58-1.38-2.77-1.38-3.58,0-1.54,1.58-2.46,4.73-2.75,3.67-.22,6.6-.73,8.8-1.54,2.2-.81,4.73-1.21,7.59-1.21s5.23,.51,7.1,1.54c1.87,1.03,2.81,1.85,2.81,2.48s-.39,1.38-1.16,2.25c-.77,.88-1.52,2.31-2.25,4.29-.73,1.98-1.83,5.7-3.3,11.17-1.47,5.46-2.2,8.38-2.2,8.74,0,.95,.84,1.47,2.53,1.54,3.81,.15,7.41,.51,10.78,1.1,3.37,.59,6.09,1.28,8.14,2.09,2.05,.81,3.3,1.49,3.74,2.04s.66,1.16,.66,1.81Z"/>
      <path d="M585.96,394.41c0,.66-.62,2.9-1.87,6.71-1.25,3.81-2.62,6.51-4.12,8.08-1.5,1.58-2.82,3.15-3.96,4.73-1.14,1.58-2.24,2.37-3.3,2.37s-1.71-.62-1.92-1.87c-.07-.51-.39-1.98-.94-4.4-.55-2.42-.83-4.31-.83-5.67s.17-3.85,.5-7.48,.5-5.78,.5-6.44c0-3.45-.92-5.17-2.75-5.17-.73,0-2.22,.22-4.46,.66-2.24,.44-3.7,1.1-4.4,1.98-.7,.88-1.34,1.32-1.93,1.32s-1.34-1.16-2.25-3.46c-.92-2.31-1.38-3.87-1.38-4.67s.48-1.27,1.43-1.38c.95-.11,1.69-.31,2.2-.61,1.91-.73,3.78-1.1,5.61-1.1s4.51-.73,8.03-2.2c3.52-1.47,5.65-2.6,6.38-3.41,.73-.81,1.39-1.21,1.98-1.21s1.56,.64,2.92,1.92c1.36,1.28,2.04,2.64,2.04,4.07s-.46,2.46-1.38,3.08c-.92,.62-1.61,1.56-2.09,2.8-.48,1.25-1.17,3.78-2.09,7.59-.92,3.81-1.38,6.11-1.38,6.88s.31,1.16,.94,1.16,1.56-.37,2.81-1.1c1.25-.73,2.36-1.56,3.35-2.48,.99-.92,1.63-1.38,1.92-1.38s.44,.22,.44,.66Zm-7.48-52.58c.81,0,1.45,.51,1.93,1.54,.48,1.03,.97,1.8,1.48,2.31,1.47,1.47,2.75,3.26,3.85,5.39,1.1,2.13,1.65,3.58,1.65,4.34s-.38,1.69-1.15,2.75c-.77,1.06-1.61,1.6-2.53,1.6s-2.2-.46-3.85-1.38c-1.65-.92-3.17-1.56-4.56-1.93-1.61-.44-2.42-1.5-2.42-3.19,0-2.64,.64-5.21,1.92-7.7,1.28-2.49,2.51-3.74,3.69-3.74Zm39.6,56.87c0,.44,.15,.77,.44,.99l4.84,3.41c2.79,2.13,5.79,3.85,9.02,5.17,3.23,1.32,6.23,2.31,9.02,2.97,2.79,.66,5.77,1.67,8.96,3.03,3.19,1.36,4.79,2.51,4.79,3.46s-1.89,1.65-5.67,2.09c-3.78,.44-6.62,.66-8.53,.66s-4.07-.15-6.49-.44c-2.42-.29-4.05-.44-4.9-.44s-1.54-.29-2.09-.88c-.55-.59-.99-1.71-1.32-3.36-.33-1.65-1.38-3.32-3.13-5-1.76-1.69-3.59-2.86-5.5-3.52-1.91-.66-3.08-1.12-3.52-1.38-.44-.26-.81-.39-1.1-.39s-.73,.29-1.32,.88c-6.23,5.94-11.66,8.91-16.28,8.91-1.54,0-3.61-.44-6.21-1.32-2.6-.88-3.91-1.58-3.91-2.09s.44-.88,1.32-1.1c6.31-1.54,11.2-3.34,14.69-5.39,3.48-2.05,5.22-3.41,5.22-4.07,0-.29-.48-.81-1.43-1.54-.95-.73-2.09-1.82-3.41-3.25-1.32-1.43-2.49-2.44-3.52-3.02-1.03-.59-1.92-.95-2.69-1.1-.77-.15-1.45-.53-2.04-1.16-.59-.62-.88-1.83-.88-3.63s.33-3.13,.99-4.01c.66-.88,1.25-1.32,1.76-1.32s.94,.13,1.27,.39c.33,.26,.64,.38,.94,.38s.62-.15,.99-.44c1.61-1.39,3.3-2.24,5.06-2.53,1.76-.29,4.58-1.03,8.47-2.2,.81-.22,1.94-.33,3.41-.33s3.69,.64,6.66,1.92c2.97,1.28,4.45,2.33,4.45,3.13,0,.37-.35,.84-1.04,1.43-.7,.59-1.23,1.23-1.59,1.92-.37,.7-.83,2.05-1.38,4.07-.55,2.02-1.81,4.6-3.79,7.76-.37,.59-.55,1.03-.55,1.32Zm14.41-27.61c0,1.61-.7,2.95-2.09,4.01-1.39,1.06-3.15,1.59-5.28,1.59-3.37,0-5.98-1.16-7.81-3.46-1.83-2.31-2.75-5.81-2.75-10.5,0-2.57,.15-5,.44-7.32,.29-2.31,.44-3.72,.44-4.23,0-2.57-.81-3.85-2.42-3.85-.66,0-1.48,.24-2.48,.71-.99,.48-1.92,1.1-2.8,1.87s-1.5,1.5-1.87,2.2c-.37,.7-.55,1.34-.55,1.92v1.65l-.11,5.83c0,1.98,.24,3.5,.72,4.56,.48,1.06,.71,1.94,.71,2.64s-.33,1.39-.99,2.09c-.66,.7-1.85,1.76-3.58,3.19-1.72,1.43-3.67,2.4-5.83,2.91-2.16,.51-3.56,.77-4.18,.77s-.93-.15-.93-.44,.37-.88,1.1-1.76c4.25-5.28,6.38-11.51,6.38-18.7,0-1.83-.09-3.35-.28-4.56-.18-1.21-.27-2.07-.27-2.58,0-2.35,1.61-3.92,4.84-4.73,4.91-1.17,8.36-2.11,10.34-2.8,1.98-.7,3.67-1.04,5.06-1.04s3.12,.42,5.17,1.26c2.05,.84,3.08,1.74,3.08,2.7,0,.59-.4,1.28-1.21,2.09-.81,.81-1.61,2.57-2.42,5.28-.81,2.71-1.21,5.28-1.21,7.7s.51,4.31,1.54,5.67c1.03,1.36,3.12,2.18,6.27,2.47,1.98,.22,2.97,1.17,2.97,2.86Zm-21.01,23.21c.51,0,1.17-1.19,1.98-3.58,.81-2.38,1.21-4.2,1.21-5.45,0-2.13-1.14-3.19-3.41-3.19-1.39,0-3.37,.59-5.94,1.76-2.57,1.17-3.85,2.02-3.85,2.53,0,.22,.7,.84,2.09,1.87l4.73,3.85c1.83,1.47,2.9,2.2,3.19,2.2Z"/>
      <path d="M705.42,388.69c0,2.64-.77,5.5-2.31,8.58s-3.79,6.58-6.77,10.5c-2.97,3.92-4.73,6.18-5.28,6.76-.55,.59-1.23,.88-2.04,.88s-1.49-.57-2.04-1.7c-.55-1.14-1.3-2.88-2.25-5.23-.95-2.35-1.43-4.84-1.43-7.48s.17-5.74,.5-9.29c.33-3.56,.49-5.92,.49-7.1,0-3.15-.62-4.73-1.87-4.73-.51,0-1.63,.4-3.35,1.21-1.72,.81-3.06,1.59-4.02,2.37-.95,.77-1.71,1.15-2.25,1.15s-1.01-.44-1.38-1.32c-.73-1.91-2.02-3.85-3.85-5.83-.66-.73-.99-1.47-.99-2.2,0-1.1,.55-1.65,1.65-1.65,2.2,0,5.92-.93,11.17-2.8,5.24-1.87,8.47-3.15,9.68-3.85,1.21-.7,1.96-1.05,2.25-1.05,.88,0,2.18,1.17,3.91,3.52,1.72,2.35,2.58,4.03,2.58,5.06,0,.73-.59,1.43-1.76,2.09-1.17,.66-2.16,1.61-2.97,2.86-.81,1.25-1.43,3.19-1.87,5.83-.44,2.64-.66,6.12-.66,10.45,0,2.93,.7,4.4,2.09,4.4,1.1,0,2.58-.92,4.46-2.75s3.56-3.96,5.06-6.38c1.5-2.42,2.42-3.63,2.75-3.63s.5,.44,.5,1.32Zm-1.65-33.88c0,1.39-.72,2.09-2.15,2.09s-3.06-.28-4.89-.83c-1.83-.55-3.36-.93-4.57-1.16-1.21-.22-2.04-.59-2.47-1.1-.44-.51-.66-1.32-.66-2.42,0-2.42,.44-4.97,1.32-7.65,.88-2.68,1.8-4.02,2.75-4.02,.66,0,1.3,.72,1.92,2.15,.62,1.43,2.11,3.25,4.46,5.45,2.86,2.79,4.29,5.28,4.29,7.48Zm46.64,8.14c.73,0,1.43,.59,2.09,1.76,1.17,2.2,1.98,3.59,2.42,4.18,1.03,1.47,1.54,3.15,1.54,5.06,0,.73-.31,1.1-.93,1.1s-1.5-.11-2.64-.33c-1.14-.22-2.95-.33-5.44-.33-3.74,0-6.82,.26-9.24,.77-.66,.15-1.12,.37-1.38,.66-.26,.29-.42,.7-.5,1.21l-.66,14.96c-.22,4.84-.44,8.69-.66,11.55-.22,2.86-.33,5.54-.33,8.03,0,6.67,.15,10.52,.44,11.55,.29,1.03,.44,1.82,.44,2.37s-.33,.93-.99,1.16c-.66,.22-1.74,.33-3.25,.33s-2.49-.11-2.97-.33c-.48-.22-.71-.59-.71-1.1s.11-1.28,.33-2.31c.22-1.03,.39-2.31,.5-3.85,.11-1.54,.17-6.07,.17-13.59s-.26-13.66-.77-18.42c-.51-4.77-.77-7.39-.77-7.86s-.37-.72-1.1-.72-1.65-.07-2.75-.22c-1.1-.15-2.2-.22-3.3-.22-4.62,0-8.1,.95-10.45,2.86-.51,.44-1.06,.66-1.65,.66s-1.06-.55-1.43-1.65c-.51-1.54-1.28-3.01-2.31-4.4-1.03-1.39-1.54-2.27-1.54-2.64,0-.66,.51-.99,1.54-.99s3.65-.37,7.86-1.1c4.22-.73,6.93-1.27,8.14-1.6s2.58-.7,4.12-1.1c1.54-.4,2.36-.79,2.47-1.16,.11-.37,.17-2.75,.17-7.15,0-5.21,.11-9.42,.33-12.65,.22-3.23,.28-5.12,.17-5.67s-.17-.97-.17-1.27c0-1.1,.66-1.65,1.98-1.65s3.34,.39,6.05,1.16c2.71,.77,4.07,1.56,4.07,2.36,0,.37-.35,1.03-1.04,1.98-.7,.95-1.04,2.64-1.04,5.06,0,4.11-.04,7.11-.11,9.02l-.11,5.28c0,.95,.29,1.43,.88,1.43l6.27-.77c2.13-.29,3.61-.61,4.45-.94,.84-.33,1.45-.5,1.82-.5Z"/>
      <path d="M831.26,375.05c0,.95,.09,1.59,.28,1.92,.18,.33,.57,.5,1.16,.5s2.6-.22,6.05-.66c6.6-1.1,11.92-1.65,15.95-1.65,2.42,0,4.01,.97,4.79,2.92,.77,1.94,1.15,3.28,1.15,4.02,0,1.69-.95,2.53-2.86,2.53-.73,0-1.91-.22-3.52-.66-1.61-.44-3.04-.73-4.29-.88-1.25-.15-3.7-.22-7.37-.22s-6.29,.07-7.86,.22c-1.58,.15-2.49,.31-2.75,.5-.26,.18-.39,.55-.39,1.1s.07,1.47,.22,2.75c.15,1.28,.22,2.6,.22,3.96s-.13,2.88-.38,4.56c-.26,1.69-.39,3.28-.39,4.79s.09,2.79,.28,3.85c.18,1.06,.28,1.94,.28,2.64s-.17,1.91-.5,3.63c-.33,1.72-.5,3.68-.5,5.88s-.15,3.89-.44,5.06c-.29,1.17-.53,1.98-.71,2.42-.18,.44-1.04,.66-2.58,.66s-3.28-.4-5.22-1.21c-1.94-.81-4.29-1.38-7.04-1.7-2.75-.33-5.54-1.58-8.36-3.74-2.82-2.16-4.24-3.69-4.24-4.57,0-.44,.29-.66,.88-.66s1.14,.04,1.65,.11c5.21,1.03,8.98,1.54,11.33,1.54,3.52,0,5.65-.93,6.38-2.8,.73-1.87,1.1-7.72,1.1-17.54,0-3.96-.06-6.36-.17-7.21-.11-.84-.37-1.27-.77-1.27s-1.28,.2-2.64,.61c-1.36,.4-3.39,.73-6.11,.99-2.71,.26-5.06,.84-7.04,1.76-1.98,.92-4,1.59-6.05,2.04-3.15,.66-5.67,1.61-7.54,2.86-1.87,1.25-3.19,1.87-3.96,1.87s-1.61-.68-2.53-2.04c-.92-1.36-1.76-2.53-2.53-3.52-.77-.99-1.16-1.67-1.16-2.04,0-1.03,1.04-1.69,3.13-1.98s3.54-.55,4.35-.77c4.4-1.25,9-2.13,13.8-2.64,4.8-.51,8.12-1.14,9.96-1.87,1.54-.59,3.19-1.1,4.95-1.54,1.76-.44,2.77-.77,3.02-.99,.26-.22,.38-.62,.38-1.21s-.07-1.5-.22-2.75c-.15-1.25-.29-2.05-.44-2.42-.15-.37-.39-.55-.72-.55s-.75,.04-1.26,.11c-1.83,.37-4.69,.73-8.58,1.1-2.13,.29-3.58,.7-4.34,1.21-.77,.51-1.49,.77-2.15,.77s-1.61-1.19-2.86-3.57c-1.25-2.38-1.87-3.92-1.87-4.62s.79-1.16,2.37-1.38c1.58-.22,4.69-.88,9.35-1.98,4.66-1.1,7.26-1.74,7.81-1.92,.55-.18,.82-.57,.82-1.16,0-.95-.26-2.35-.77-4.18-.15-.44-.22-.86-.22-1.26s.31-.61,.93-.61,1.98,.31,4.07,.93c2.09,.62,3.67,1.3,4.73,2.04,1.06,.73,1.82,1.1,2.25,1.1s.88-.11,1.32-.33c3.01-1.17,5.26-1.76,6.76-1.76s2.62,.84,3.36,2.53c.73,1.69,1.1,2.86,1.1,3.52s-.13,1.14-.38,1.43c-.26,.29-1.25,.75-2.97,1.38-1.72,.62-3.03,1.03-3.91,1.21-.88,.18-1.92,.5-3.13,.94-1.21,.44-1.92,.77-2.15,.99-.22,.22-.33,.81-.33,1.76v5.17Zm6.82-38.83c.59,0,1.04,.18,1.38,.55,.33,.37,.77,1.5,1.32,3.41,.55,1.91,.83,3.19,.83,3.85s-.15,1.14-.44,1.43c-.29,.29-1.03,.48-2.2,.55-3.89,.22-8.42,.72-13.58,1.49s-8.12,1.39-8.85,1.87c-.73,.48-1.36,1.38-1.87,2.7-.51,1.32-1.21,2.24-2.09,2.75-.88,.51-2.81,1.08-5.78,1.71-2.97,.62-5.67,.93-8.08,.93s-3.63-.17-3.63-.5,.17-.64,.5-.93c.33-.29,1.76-1.38,4.29-3.25,2.53-1.87,4.49-3.21,5.88-4.02,1.39-.81,3.28-1.69,5.67-2.64,2.38-.95,4.46-2.02,6.21-3.19,1.76-1.17,3.61-2.15,5.55-2.91,1.94-.77,4.77-1.6,8.47-2.48,3.7-.88,5.85-1.32,6.43-1.32Z"/>
      <path d="M976.9,379.67c0,1.32-.11,2.15-.33,2.48s-.59,.5-1.1,.5-1.36-.33-2.53-.99c-1.17-.66-3.14-1.21-5.89-1.65-2.75-.44-4.66-.66-5.72-.66s-1.69,.02-1.87,.05c-.18,.04-.33,.13-.44,.27-.11,.15-.17,.95-.17,2.42l-.11,6.27-.11,7.92-.22,7.04c0,1.1,.18,3.08,.55,5.94,.37,2.86,.55,5.44,.55,7.75s-.51,3.46-1.54,3.46c-.59,0-1.61-.46-3.08-1.38-1.47-.92-3.34-1.96-5.61-3.13-2.49-1.1-4.56-2.42-6.21-3.96s-3.32-3.56-5-6.05c-.15-.29-.33-.44-.55-.44s-.44,.15-.66,.44c-2.71,3.74-5.1,6.36-7.15,7.87-2.05,1.5-3.74,2.25-5.06,2.25-.37,0-.55-.11-.55-.33,0-.44,.68-1.47,2.03-3.08,1.36-1.61,2.04-2.57,2.04-2.86s-.33-.51-.99-.66c-5.06-.95-8.71-2.29-10.94-4.01-2.24-1.72-3.36-3.17-3.36-4.35,0-.66,.33-.99,.99-.99s1.36,.18,2.09,.55c.73,.37,1.74,.55,3.03,.55s2.16-.26,2.64-.77c.48-.51,.71-1.76,.71-3.74l-.22-12.98c0-.59-.2-.88-.6-.88s-1.94,.24-4.62,.71c-2.68,.48-4.14,.83-4.4,1.04-.26,.22-.5,.84-.71,1.87l-1.32,4.84c-.51,2.13-.77,3.74-.77,4.84s.09,1.91,.27,2.42c.18,.51,.28,.95,.28,1.32,0,1.39-1.39,3.46-4.18,6.21-2.79,2.75-5.32,4.75-7.59,6-2.27,1.25-4.03,1.87-5.28,1.87-.44,0-.66-.17-.66-.5s.48-1.19,1.43-2.58c3.37-4.55,5.85-8.05,7.42-10.5,1.58-2.46,2.86-5.12,3.85-7.97,.99-2.86,1.48-4.91,1.48-6.16,0-.37-.29-.48-.88-.33-3.67,.95-7.04,1.47-10.12,1.54-3.08,.07-5.54,.62-7.37,1.65-1.25,.66-2.35,.99-3.3,.99s-1.81-.97-2.58-2.92c-.77-1.94-1.15-3.24-1.15-3.9s.37-.95,1.1-.88c.73,.07,1.28,.11,1.65,.11,3.23,0,7.59-.53,13.09-1.59,5.5-1.06,8.62-1.74,9.35-2.04,.73-.29,1.17-.55,1.32-.77,.15-.22,.46-2.9,.93-8.03,.48-5.13,.71-10.12,.71-14.96,0-1.32,.17-2.18,.5-2.58,.33-.4,1.56-1.06,3.69-1.98,2.13-.92,4.42-1.58,6.88-1.98,2.46-.4,4.38-.61,5.77-.61s3.06,.26,5,.77c1.94,.51,2.92,1.28,2.92,2.31,0,.51-.22,1.03-.66,1.54-1.25,1.39-2.15,4.4-2.7,9.02-.55,4.62-.83,8.36-.83,11.22,0,.51,.18,.77,.55,.77l3.96-.55c1.47-.29,2.27-.5,2.42-.6,.15-.11,.26-.97,.33-2.58,.07-1.61,.11-3.7,.11-6.27s.11-5.04,.33-7.42c.22-2.38,.33-4.27,.33-5.67,0-.51,.48-1.06,1.43-1.65,.95-.59,2-.88,3.13-.88s2.46-.44,3.96-1.32c1.5-.88,3.26-1.32,5.28-1.32s3.76,.18,5.23,.55c1.47,.37,2.42,.7,2.86,.99,.44,.29,.66,.68,.66,1.15s-.2,1.06-.6,1.76c-.4,.7-.7,2.47-.88,5.33-.18,2.86-.27,7.81-.27,14.85,0,.51,.17,.83,.5,.94,.33,.11,1.61,.17,3.85,.17s3.98-.18,5.22-.55c1.25-.37,2.35-.55,3.3-.55s1.65,.35,2.09,1.04c.44,.7,1.06,1.89,1.87,3.58,.81,1.69,1.21,3.48,1.21,5.39Zm-62.15-3.3c.07,0,.22-.04,.44-.11,.95-.29,2.31-.61,4.07-.94,1.76-.33,2.68-.57,2.75-.71,.07-.15,.18-2.02,.33-5.61l.55-11c0-2.64-.66-3.96-1.98-3.96-.95,0-1.89,.44-2.8,1.32-.92,.88-1.45,2.7-1.6,5.45-.15,2.75-.48,5.52-.99,8.3l-1.21,6.82c0,.29,.15,.44,.44,.44Zm15.51,28.82c.15,0,.29-.09,.44-.28,.15-.18,.53-1.12,1.16-2.8,.62-1.69,1.26-3.78,1.92-6.27,.66-2.49,1.26-5.33,1.81-8.53,.55-3.19,.83-5.1,.83-5.72s-.17-.94-.5-.94-1.32,.09-2.97,.28c-1.65,.18-2.57,.37-2.75,.55s-.28,1.12-.28,2.8-.15,3.41-.44,5.17c-.29,1.76-.44,3.54-.44,5.33s.15,3.87,.44,6.22c.29,2.35,.46,3.63,.5,3.85,.04,.22,.13,.33,.27,.33Zm21.56-1.65c0-2.93-.28-7.57-.83-13.92-.55-6.34-.86-9.62-.93-9.84-.07-.22-.33-.33-.77-.33l-4.07,.22c-1.17,.07-1.85,.18-2.03,.33-.18,.15-.28,.37-.28,.66-.29,3.52-1.17,8.36-2.64,14.52-.44,1.83-.66,4.25-.66,7.26,0,.81,.22,1.41,.66,1.82,.44,.4,1.67,.97,3.68,1.7,2.02,.73,3.67,1.1,4.95,1.1s2.09-.28,2.42-.83,.5-1.45,.5-2.7Zm-7.81-32.12c.15,0,.84-.07,2.09-.22,1.25-.15,2.18-.24,2.8-.27,.62-.04,.97-.15,1.04-.33,.07-.18,.15-1.6,.22-4.24l.33-8.47c0-4.4-1.06-6.6-3.19-6.6-.81,0-1.5,.57-2.09,1.71-.59,1.14-1.03,3.54-1.32,7.21-.29,3.67-.44,7.11-.44,10.34,0,.59,.18,.88,.55,.88Z"/>
    </g>
    <g>
      <path class="cls-6" d="M1039.25,317.53c-.8-.88-.89-1.35-.27-1.4,.62-.04,1.24,.11,1.86,.47,.62,.35,1.06,.84,1.33,1.46,.62-1.33,1.06-2.48,1.33-3.46,.27-.97,.4-1.64,.4-1.99,0-.44-.16-.62-.46-.53-.31,.09-.73,.22-1.26,.4-.53,.18-1.11,.07-1.73-.33-.62-.4-.6-.62,.07-.66,.66-.04,1.33-.18,1.99-.4,.67-.22,1.17-.49,1.53-.8,.35-.31,1.06-.15,2.13,.47,.71,.44,.82,.91,.33,1.4-.49,.49-1.02,1.62-1.59,3.39-.58,1.77-1.31,3.5-2.19,5.18-.89,1.68-2.02,3.15-3.39,4.39-1.38,1.24-2.81,2.13-4.32,2.66-1.51,.53-1.68,.42-.53-.33,1.15-.75,2.35-1.75,3.59-2.99,1.24-1.24,2.44-2.97,3.59-5.18-.8-.27-1.59-.84-2.39-1.73Zm9.57,6.18c-.18,.31-.4,1.04-.66,2.19,1.6-.35,2.86-.58,3.79-.66,.93-.09,1.77-.2,2.53-.33,.75-.13,1.48,.07,2.19,.6,.71,.53,.47,.86-.73,1-1.2,.13-2.44,.25-3.72,.33-1.29,.09-2.68,.22-4.19,.4-.89,2.92-2.08,5.1-3.59,6.51-1.51,1.42-3.24,2.37-5.18,2.86-1.95,.49-2.02,.27-.2-.66,1.82-.93,3.32-2.1,4.52-3.52,1.2-1.42,2.01-3.06,2.46-4.92-1.15,.27-2.15,.47-2.99,.6-.84,.13-1.53,.22-2.06,.27-.53,.05-1.15-.2-1.86-.73-.71-.53-.66-.82,.13-.86,.8-.04,1.77-.11,2.92-.2,1.15-.09,2.53-.27,4.12-.53,.27-1.06,.31-2.21,.13-3.46-1.15,0-1.99-.15-2.53-.47-.53-.31-.13-.6,1.2-.86,1.33-.27,2.39-.53,3.19-.8,.8-.27,1.57-.51,2.33-.73,.75-.22,1.4-.09,1.93,.4,.53,.49,.27,.91-.8,1.26-1.06,.35-2.31,.66-3.72,.93,.71,.62,.97,1.09,.8,1.4Zm4.25-8.17c.71-.8,1.4-1.66,2.06-2.59,.66-.93,1-1.71,1-2.33,0-.71,.31-.88,.93-.53,.62,.35,1.22,.75,1.79,1.2,.58,.44,.51,.78-.2,1-.71,.22-2.44,1.44-5.18,3.66,2.04,2.39,3.9,4.21,5.58,5.45,1.68,1.24,3.28,2.11,4.79,2.59,1.5,.49,1.77,.78,.8,.86-.98,.09-2.24,.16-3.79,.2-1.55,.05-2.81-.55-3.79-1.79-.98-1.24-2.31-3.06-3.99-5.45-1.68-2.39-2.88-3.83-3.59-4.32-.71-.49-.93-.8-.67-.93s.62-.11,1.06,.07c.71-.97,1.28-1.86,1.73-2.66,.44-.8,.62-1.44,.53-1.93-.09-.49,.15-.62,.73-.4,.58,.22,1.15,.53,1.73,.93,.57,.4,.51,.75-.2,1.06-.71,.31-2.04,1.35-3.99,3.12,.97,.98,1.86,1.91,2.66,2.79Zm4.05,17.35c.49,.58,.66,1.46,.53,2.66s-.93,1-2.39-.6c-1.46-1.6-2.81-2.99-4.05-4.19-1.24-1.2-1.35-1.64-.33-1.33,1.02,.31,2.19,.82,3.52,1.53,1.33,.71,2.24,1.35,2.72,1.93Z"/>
      <path class="cls-6" d="M1044.83,350.88c-.09-1.28-.29-2.26-.6-2.92s-.11-.91,.6-.73c.71,.18,1.37,.42,1.99,.73,.62,.31,.77,.73,.47,1.26-.31,.53-.47,1.55-.47,3.06s-.13,3.5-.4,5.98c-.27,2.48-.98,4.54-2.13,6.18-1.15,1.64-2.5,2.86-4.05,3.66-1.55,.8-1.71,.64-.47-.46,1.24-1.11,2.35-2.53,3.32-4.25,.97-1.73,1.55-4.23,1.73-7.51-2.57,1.42-4.32,2.68-5.25,3.79-.93,1.11-1.66,1.29-2.19,.53-.53-.75-.51-1.42,.07-1.99,.58-.58,.97-1.26,1.2-2.06,.22-.8,.27-2.26,.13-4.39-.13-2.13-.51-3.61-1.13-4.45-.62-.84-.58-1.22,.13-1.13,.71,.09,1.37,.31,1.99,.66,1.59-.88,2.81-1.73,3.66-2.53,.84-.8,1.24-1.51,1.2-2.13-.05-.62,.29-.77,1-.46,.71,.31,1.37,.75,1.99,1.33,.62,.58,.6,.95-.07,1.13-.67,.18-1.55,.53-2.66,1.06-1.11,.53-2.73,1.29-4.85,2.26,.27,1.6,.4,4.7,.4,9.3,1.33-.62,2.79-1.24,4.39-1.86,.09-1.42,.09-2.77,0-4.05Zm7.98,7.38c0,4.34-.11,7.75-.33,10.23-.22,2.48-.55,3.77-1,3.85-.44,.09-.67-1.11-.67-3.59s.04-5.52,.13-9.37c.09-3.85,.09-6.67,0-8.44-.09-1.77-.38-2.99-.86-3.66-.49-.66-.36-.93,.4-.8,.75,.13,1.35,.27,1.79,.4,.44,.13,1.35,0,2.72-.4,1.37-.4,2.28-.77,2.72-1.13,.44-.35,1.08-.4,1.93-.13,.84,.27,1.55,.6,2.13,1,.57,.4,.66,.8,.27,1.2-.4,.4-.69,.98-.86,1.73-.18,.75-.27,2.15-.27,4.19s-.47,3.5-1.4,4.65c-.93,1.15-1.57,1.26-1.93,.33-.36-.93-1.04-1.79-2.06-2.59-1.02-.8-.93-1.02,.27-.66,1.2,.36,1.99,.4,2.39,.13,.4-.27,.62-1.04,.67-2.33,.04-1.28,.04-2.48,0-3.59-.05-1.11-.22-1.77-.53-1.99-.31-.22-.89-.22-1.73,0-.84,.22-2.06,.51-3.66,.86-.09,2.31-.13,5.67-.13,10.1Z"/>
      <path class="cls-6" d="M1049.29,397.29c-.05,.36-.07,.67-.07,.93,3.63-.53,5.92-.86,6.84-1,.93-.13,1.73,.05,2.39,.53,.67,.49,.4,.75-.8,.8-1.2,.05-4.05,.38-8.57,1l-.13,1.99c2.48-.27,3.94-.51,4.39-.73,.44-.22,.95-.24,1.53-.07,.58,.18,1.11,.42,1.59,.73,.49,.31,.58,.6,.27,.86-.31,.27-.64,.8-1,1.6,1.77-.18,3.04-.33,3.79-.47,.75-.13,1.53,.07,2.33,.6,.8,.53,.69,.82-.33,.86-1.02,.04-3.08,.11-6.18,.2-.18,.8-.36,1.55-.53,2.26,.62,.8,.71,1.22,.27,1.26-.45,.04-1.31,.13-2.59,.27-1.29,.13-2.5,.25-3.66,.33,2.21,1.6,4.08,2.84,5.58,3.72,1.5,.89,3.14,1.64,4.92,2.26,1.77,.62,3.23,1.02,4.39,1.2,1.15,.18,.8,.4-1.06,.67s-3.3,.42-4.32,.46c-1.02,.05-1.93-.31-2.72-1.06-.8-.75-1.64-1.53-2.53-2.33-.89-.8-2.35-2.13-4.39-3.99-.09,2.39-.13,4.17-.13,5.32,0,1.06-.07,2.28-.2,3.66-.13,1.37-.36,2.24-.66,2.59-.31,.35-.67,.11-1.06-.73-.4-.84-.53-1.64-.4-2.39,.13-.75,.31-1.77,.53-3.06,.22-1.28,.33-2.86,.33-4.72-1.15,1.77-2.68,3.35-4.59,4.72-1.91,1.37-3.85,2.44-5.85,3.19-1.99,.75-1.95,.49,.13-.8,2.08-1.28,3.96-2.73,5.65-4.32,1.68-1.59,2.88-2.97,3.59-4.12-2.22,.45-3.61,.69-4.19,.73-.58,.05-1.17-.13-1.79-.53-.62-.4-.42-.64,.6-.73,1.02-.09,3.17-.4,6.45-.93v-1.99c-5.41,.71-8.53,1.13-9.37,1.26-.84,.13-1.53,.02-2.06-.33-.53-.35-.84-.62-.93-.8-.09-.18,.22-.24,.93-.2,.71,.05,1.99-.04,3.85-.27,1.86-.22,4.43-.55,7.71-1v-1.73c-1.95,.27-3.21,.44-3.79,.53-.58,.09-1.13-.09-1.66-.53-.53-.44-.42-.64,.33-.6,.75,.05,2.46-.15,5.12-.6v-1.99c-3.46,.44-5.58,.78-6.38,1-.8,.22-1.51,.18-2.13-.13-.62-.31-.91-.55-.86-.73,.04-.18,.86-.31,2.46-.4,1.59-.09,3.9-.44,6.91-1.06-.09-.88-.31-1.51-.67-1.86-.71,.09-1.46,.13-2.26,.13-.71,0-.51-.18,.6-.53,1.11-.35,2.37-.86,3.79-1.53,1.42-.67,2.17-1.22,2.26-1.66,.09-.44,.47-.55,1.13-.33,.66,.22,1.37,.58,2.13,1.06,.75,.49,.82,.78,.2,.86-.62,.09-1.58,.31-2.86,.66-1.29,.36-2.46,.67-3.52,.93,.88,.36,1.31,.71,1.26,1.06Zm3.92,10.24c.09-.53,.18-1.28,.27-2.26-2.21,.18-3.77,.36-4.65,.53l-.13,2.13c1.68-.18,3.19-.31,4.52-.4Zm.4-3.32c.09-1.06,.02-1.68-.2-1.86-.22-.18-1.71-.04-4.45,.4l-.13,1.86c1.6-.18,3.19-.31,4.79-.4Z"/>
      <path class="cls-6" d="M1046.16,431.58c.09,1.24,.04,2.06-.13,2.46-.18,.4-.42,.33-.73-.2-.31-.53-.55-1.24-.73-2.13-2.66,.36-4.28,.58-4.85,.67-.58,.09-1.11,.07-1.59-.07-.49-.13-1-.38-1.53-.73-.53-.35-.44-.53,.27-.53,.8,0,1.6-.02,2.39-.07,.8-.04,2.48-.15,5.05-.33-.44-1.33-.91-2.21-1.39-2.66-.49-.44-.47-.66,.07-.66s1.15,.11,1.86,.33c.71,.22,1.06,.55,1.06,1s.04,1.06,.13,1.86c1.95-.18,3.86-.35,5.72-.53,.27-1.15,.4-1.95,.4-2.39s-.07-.91-.2-1.4c-.13-.49,.09-.62,.67-.4,.58,.22,1.17,.49,1.79,.8,.62,.31,.75,.64,.4,1-.36,.36-.75,1.11-1.2,2.26,2.66-.35,4.39-.58,5.18-.67,.8-.09,1.55,.09,2.26,.53,.71,.44,1.06,.8,1.06,1.06s-.42,.35-1.26,.27c-.84-.09-1.88-.13-3.12-.13h-4.52c-.89,1.77-1.44,2.68-1.66,2.72-.22,.05-.36-.04-.4-.27-.04-.22,.07-1,.33-2.33-1.77,.09-3.55,.27-5.32,.53Zm.33,9.7c.04,.09-.35,.22-1.2,.4-.84,.18-2.37,.49-4.59,.93-.09,2.22-.25,4.3-.46,6.25-.22,1.95-.45,3.41-.67,4.39-.22,.97-.44,1.57-.67,1.79-.22,.22-.51-.18-.86-1.2-.36-1.02-.42-1.79-.2-2.33,.22-.53,.46-1.31,.73-2.33,.27-1.02,.46-2.77,.6-5.25,.13-2.48,.18-4.32,.13-5.52-.04-1.2-.24-2.01-.6-2.46-.36-.44-.25-.62,.33-.53,.58,.09,1.08,.11,1.53,.07,.44-.04,1.08-.15,1.93-.33,.84-.18,1.46-.33,1.86-.46,.4-.13,.82-.15,1.26-.07,.44,.09,.84,.29,1.2,.6,.35,.31,.38,.6,.07,.86-.31,.27-.6,1.73-.86,4.39,.27,.44,.42,.71,.46,.8Zm-5.65-2.79c.88-.18,1.51-.31,1.86-.4,.35-.09,.73,0,1.13,.27s.29,.46-.33,.6c-.62,.13-1.51,.2-2.66,.2l-.13,2.39c1.33-.27,2.66-.58,3.99-.93,.09-1.51,.13-3.1,.13-4.79-1.42,.18-2.75,.4-3.99,.66v1.99Zm5.25,12.1c-.04,.09-.07,.22-.07,.4s-.07,.46-.2,.86c-.13,.4-.42,.33-.86-.2-.45-.53-.62-1.08-.53-1.66,.09-.58,.09-1.55,0-2.92-.09-1.37-.31-2.28-.67-2.72-.36-.44-.13-.62,.67-.53,.8,.09,1.93,.02,3.39-.2,1.46-.22,2.41-.42,2.86-.6,.44-.18,.91-.15,1.4,.07,.49,.22,.88,.46,1.2,.73,.31,.27,.33,.51,.07,.73-.27,.22-.42,.8-.46,1.73-.05,.93-.07,1.84-.07,2.72s-.13,1.64-.4,2.26c-.27,.62-.53,.71-.8,.27l-.8-1.33c-3.1,.18-4.67,.31-4.72,.4Zm-.2-4.25c.71-.09,1.4-.2,2.06-.33,.66-.13,1.24,0,1.73,.4,.49,.4,.2,.64-.87,.73-1.06,.09-2.04,.13-2.92,.13l.13,2.39c.27-.09,1.04-.2,2.33-.33,1.28-.13,2.19-.15,2.72-.07,.18-.97,.24-2.08,.2-3.32-.04-1.24-.29-1.81-.73-1.73-.44,.09-.89,.13-1.33,.13-.36,0-1.51,.13-3.46,.4l.13,1.6Zm8.24-5.58c-1.33,.09-2.13,.13-2.39,.13-.18,1.15-.55,1.38-1.13,.67-.58-.71-.78-1.51-.6-2.39,.18-.88,.22-1.82,.13-2.79-.09-.97-.25-1.62-.46-1.93-.22-.31-.11-.44,.33-.4,.44,.05,1.62-.07,3.52-.33,1.91-.27,3.01-.46,3.32-.6,.31-.13,.62-.15,.93-.07,.31,.09,.73,.27,1.26,.53,.53,.27,.91,.51,1.13,.73,.22,.22,.15,.58-.2,1.06-.36,.49-.51,2.13-.46,4.92,.04,2.79,.13,5.52,.27,8.17,.13,2.66,.02,4.52-.33,5.58-.36,1.06-.8,1.86-1.33,2.39-.53,.53-1,.38-1.39-.46-.4-.84-1.13-1.64-2.19-2.39-1.06-.75-.91-1,.46-.73,1.37,.27,2.19,.16,2.46-.33,.27-.49,.4-2.1,.4-4.85s-.02-4.45-.07-5.12c-.04-.67-.07-1.35-.07-2.06-1.06,.09-2.26,.18-3.59,.27Zm-2.39-.8c2.04-.35,3.41-.53,4.12-.53,.8,0,1.31,.07,1.53,.2,.22,.13,.29-.46,.2-1.79-.09-1.33-.18-2.21-.27-2.66-.09-.44-.45-.66-1.06-.66-.53,0-1.11,.02-1.73,.07-.62,.05-1.2,.09-1.73,.13-.53,.05-.84,.07-.93,.07s-.13,.18-.13,.53v1.2c0,.36,.51,.45,1.53,.27,1.02-.18,1.75-.13,2.19,.13,.44,.27,.44,.49,0,.66-.44,.18-1.68,.31-3.72,.4v1.99Z"/>
    </g>
  </g>
</svg>