<?xml version="1.0" encoding="UTF-8"?>
<svg id="_图层_3" data-name="图层 3" xmlns="http://www.w3.org/2000/svg" xmlns:xlink="http://www.w3.org/1999/xlink" viewBox="0 0 1366 768">
  <defs>
    <style>
      .cls-1 {
        fill: #2f2e41;
      }

      .cls-2 {
        fill: #fff;
      }

      .cls-3 {
        fill: url(#_天空_20);
      }

      .cls-4 {
        fill: #3f3d56;
      }

      .cls-5 {
        fill: #f50f00;
      }

      .cls-6 {
        fill: #230007;
      }

      .cls-7 {
        fill: #e6e6e6;
      }

      .cls-8 {
        fill: #5fbb46;
      }

      .cls-9 {
        fill: #ffb8b8;
      }

      .cls-10 {
        fill: #ccc;
      }

      .cls-11 {
        fill: #f2f2f2;
      }
    </style>
    <linearGradient id="_天空_20" data-name="天空 20" x1="1419.65" y1="-39.57" x2="10.29" y2="770.81" gradientUnits="userSpaceOnUse">
      <stop offset=".01" stop-color="#ffe267"/>
      <stop offset=".09" stop-color="#f8cc7e"/>
      <stop offset=".17" stop-color="#f4bd8e"/>
      <stop offset=".24" stop-color="#f3b895"/>
      <stop offset=".45" stop-color="#aab5c6"/>
      <stop offset=".7" stop-color="#a4b0b4"/>
      <stop offset="1" stop-color="#3d7190"/>
    </linearGradient>
  </defs>
  <rect class="cls-3" width="1366" height="768"/>
  <g>
    <ellipse class="cls-11" cx="1136.79" cy="759.39" rx="28.72" ry="4.79"/>
    <rect class="cls-11" x="1167.9" y="302.34" width="2.39" height="50.25"/>
    <rect class="cls-11" x="1129.61" y="270.04" width="14.36" height="495.34"/>
    <path class="cls-11" d="M1202.52,308.92h-131.46c-5.62,0-10.17-4.55-10.17-10.17,0-.42,.03-.84,.08-1.26l16.75-134c.64-5.09,4.97-8.9,10.09-8.91h97.96c5.13,0,9.45,3.82,10.09,8.91l16.75,134c.7,5.57-3.26,10.66-8.83,11.35-.42,.05-.84,.08-1.26,.08Z"/>
    <circle class="cls-11" cx="1169.09" cy="352.6" r="8.38"/>
    <path class="cls-11" d="M288.23,632.41c-6.04,20.97-23.69,35.65-42.11,48.12-2.57,1.74-5.14,3.44-7.71,5.1-.02,0-.04,.02-.05,.03-.12,.08-.25,.16-.36,.24-.53,.34-1.06,.68-1.59,1.02l.29,.13s.28,.15-.03,.02c-.09-.04-.19-.07-.28-.11-10.7-4.31-21.58-8.95-29.78-17.03-8.5-8.39-13.47-21.55-8.87-32.58,.61-1.44,1.37-2.82,2.28-4.09,.37-.53,.78-1.05,1.19-1.55,7.9-9.64,22.11-11.05,31.75-3.15,3.21,2.63,5.63,6.09,7,10.01,1.35-12.59-9.03-23.14-19.03-30.93-10-7.78-21.36-16.25-23.29-28.78-1.08-6.97,1.34-13.72,5.76-19.14,.14-.16,.27-.33,.41-.49,5.37-6.31,12.93-10.37,21.16-11.35,15.33-1.59,30.22,6.52,41.36,17.18,17.93,17.15,28.76,43.49,21.89,67.33Z"/>
    <path class="cls-2" d="M259.41,604.98c2.94,4.58,5.2,9.56,6.71,14.79,1.27,4.67,1.84,9.51,1.68,14.35-.41,9.96-3.21,19.68-8.16,28.34-3.73,6.57-8.27,12.64-13.52,18.07-2.57,1.74-5.14,3.44-7.71,5.1-.02,0-.04,.02-.05,.03-.12,.08-.25,.16-.36,.24-.53,.34-1.06,.68-1.59,1.02,0,0,.57,.28,.26,.15-.09-.04-.19-.07-.28-.11,1.95-15.95-3.96-31.85-15.85-42.66-5.87-5.24-12.9-9.03-20.51-11.04,.37-.53,.78-1.05,1.19-1.55,2.94,.82,5.8,1.91,8.55,3.24,9.83,4.72,17.88,12.48,22.95,22.13,4.55,8.76,6.51,18.64,5.65,28.48,.44-.4,.88-.81,1.31-1.21,8.13-7.58,15.35-16.27,20.23-26.31,4.24-8.5,6.32-17.91,6.07-27.41-.4-10.35-4.52-19.94-10.5-28.29-6.55-8.91-14.28-16.88-22.98-23.69-8.77-7.03-18.37-12.95-28.59-17.65-.48-.22-.7-.78-.5-1.27,.07-.21,.22-.39,.41-.49,.21-.09,.44-.08,.64,.03,1.26,.58,2.51,1.17,3.76,1.78,10.35,5.11,20.02,11.49,28.79,18.99,8.47,7.22,16.45,15.48,22.41,24.93Z"/>
    <path class="cls-11" d="M200.96,685.21h66.24c2.83,0,5.12,2.29,5.12,5.12,0,.21-.01,.43-.04,.64l-8.44,67.52c-.32,2.56-2.5,4.49-5.08,4.49h-49.36c-2.58,0-4.76-1.93-5.08-4.49l-8.44-67.52c-.35-2.81,1.64-5.37,4.45-5.72,.21-.03,.42-.04,.64-.04Z"/>
    <circle class="cls-10" cx="416.94" cy="755.21" r="8.29"/>
    <circle class="cls-10" cx="940.59" cy="755.21" r="8.29"/>
    <path class="cls-7" d="M568.93,639.84h-129.88c-12.58-.01-22.78-10.21-22.8-22.8v-88.43c.01-12.58,10.21-22.78,22.8-22.8h129.88c12.58,.01,22.78,10.21,22.8,22.8v88.43c-.01,12.58-10.21,22.78-22.8,22.8Z"/>
    <path class="cls-7" d="M743.71,640.54h-129.88c-12.58-.01-22.78-10.21-22.8-22.8v-88.43c.01-12.58,10.21-22.78,22.8-22.8h129.88c12.58,.01,22.78,10.21,22.8,22.8v88.43c-.01,12.58-10.21,22.78-22.8,22.8Z"/>
    <path class="cls-7" d="M918.49,641.23h-129.88c-12.58-.01-22.78-10.21-22.8-22.8v-88.43c.01-12.58,10.21-22.78,22.8-22.8h129.88c12.58,.01,22.78,10.21,22.8,22.8v88.43c-.01,12.58-10.21,22.78-22.8,22.8Z"/>
    <rect class="cls-7" x="396.22" y="635.01" width="572.01" height="119.51"/>
    <path class="cls-7" d="M416.94,755.21h-24.87c-12.57,0-22.8-11.61-22.8-25.88v-124.72h47.67v150.6Z"/>
    <path class="cls-7" d="M965.46,755.21h-24.87v-169.94h47.67v140.74c0,16.11-10.23,29.21-22.8,29.21Z"/>
    <path class="cls-10" d="M592.41,659.88h-175.47v-37.3c58.49-33.55,116.98-33.55,175.47,0v37.3Z"/>
    <path class="cls-10" d="M767.19,660.57h-175.47v-37.3c58.49-33.55,116.98-33.55,175.47,0v37.3Z"/>
    <path class="cls-10" d="M941.97,661.26h-175.47v-37.3c58.49-33.55,116.98-33.55,175.47,0v37.3Z"/>
    <circle class="cls-10" cx="383.09" cy="595.63" r="40.76"/>
    <circle class="cls-10" cx="979.97" cy="594.25" r="40.76"/>
    <path class="cls-9" d="M859.91,514.4c.09,.66,.14,1.32,.13,1.98l48.86,33.67,13.03-6.17,11.88,18.45-22,13.16c-3.65,2.18-8.31,1.7-11.42-1.2l-49.48-45.92c-6.68,1.88-13.61-2.01-15.49-8.69-1.88-6.68,2.01-13.61,8.69-15.49,6.68-1.88,13.61,2.01,15.49,8.69,.14,.5,.25,1.01,.33,1.52h0Z"/>
    <path class="cls-5" d="M909.83,547.15c.43-1.5,1.5-2.74,2.93-3.4l24.57-11.26c6.92-4.51,16.18-2.55,20.69,4.37,4.49,6.89,2.57,16.12-4.3,20.65l-20.31,17.96c-2.23,1.97-5.63,1.76-7.6-.47-.17-.2-.33-.41-.48-.63l-14.83-22.79c-.85-1.31-1.1-2.93-.66-4.44Z"/>
    <path class="cls-4" d="M859.29,516.59l-.25,.02-.67-9.27c-.21-2.96-2.13-5.24-4.28-5.08h0l-14.25,1.03c-2.15,.16-6.1,2.86-5.89,5.82l.17,2.39,3.51,48.45c.21,2.96,4.52,5.06,6.67,4.91h0l14.25-1.03c2.15-.16,3.72-2.68,3.5-5.64h0l-2.53-34.98,.25-.02-.48-6.6Z"/>
    <path class="cls-2" d="M857.55,507.44l3.67,50.76c.16,2.21-1.01,4.1-2.62,4.22l-14.31,1.04c-1.61,.12-3.04-1.58-3.2-3.8l-3.67-50.76c-.16-2.21,1.01-4.1,2.62-4.22l1.74-.13c-.25,.93,.13,1.91,.94,2.43,.16,.08,.35,.11,.53,.1l8.16-.59c.76-.06,1.32-.95,1.24-2.01-.02-.24-.07-.48-.15-.71l1.86-.13c1.61-.12,3.04,1.58,3.2,3.8Z"/>
    <polygon class="cls-9" points="656.74 624.66 652.02 610.77 703.34 585.95 710.31 606.45 656.74 624.66"/>
    <path class="cls-1" d="M644.48,632.78l-15.22-44.78,.57-.19c9.63-3.27,20.08,1.88,23.35,11.5h0s0,0,0,0l9.3,27.35-18,6.12Z"/>
    <path class="cls-1" d="M860.43,634.57c-11.01,.62-21.98-1.68-31.82-6.66l-60.35-41.05-70.47,26.09c-3.88,1.32-8.12-.59-9.71-4.37l-3.45-8.31c-1.64-3.89,.14-8.37,4-10.08l67.32-30.23c8.08-3.62,17.15-4.4,25.73-2.23l93.46,23.82,24.7,29.34-.27,.38c-12.13,16.73-26.51,22.39-39.15,23.31Z"/>
    <circle class="cls-9" cx="936.76" cy="482.59" r="29.39"/>
    <path class="cls-5" d="M906.59,623.97l-47.3-35.2,32.25-22.92c-.92-2.97-5.02-19.94,17.37-31.52,7.08-3.66,12.19-6.81,15.17-9.37,4.23-3.65,9.65-5.63,15.24-5.56,12.54,.2,22.54,10.52,22.34,23.06-.03,2.15-.37,4.28-1,6.33-4.67,15.17-12.1,35.27-21.02,44.89-10.08,10.86-21.02,20.9-32.7,30.02l-.36,.27Z"/>
    <polygon class="cls-9" points="664.24 636.97 659.52 623.08 710.84 598.26 717.81 618.76 664.24 636.97"/>
    <path class="cls-1" d="M651.98,645.09l-15.22-44.78,.57-.19c9.63-3.27,20.08,1.88,23.35,11.5h0s0,0,0,0l9.3,27.35-18,6.12Z"/>
    <path class="cls-1" d="M867.93,646.88c-11.01,.62-21.98-1.68-31.82-6.66l-60.35-41.05-70.47,26.09c-3.88,1.32-8.12-.59-9.71-4.37l-3.45-8.31c-1.64-3.89,.14-8.37,4-10.08l67.32-30.23c8.08-3.62,17.15-4.4,25.73-2.23l93.46,23.82,24.7,29.34-.27,.38c-12.13,16.73-26.51,22.39-39.15,23.31Z"/>
    <path class="cls-9" d="M854.37,549.65c.37,.55,.69,1.13,.96,1.73l58.57,9.51,9.13-11.15,18.63,11.58-14.25,21.31c-2.36,3.54-6.78,5.09-10.84,3.81l-64.38-20.32c-5.23,4.56-13.16,4.01-17.72-1.22-4.56-5.23-4.01-13.16,1.22-17.72,5.23-4.56,13.16-4.01,17.72,1.22,.34,.39,.66,.8,.95,1.24h0Z"/>
    <path class="cls-5" d="M913.51,557.88c-.25-1.55,.18-3.12,1.19-4.32l17.38-20.69c4.32-7.04,13.53-9.23,20.57-4.91,7.01,4.31,9.22,13.47,4.95,20.5l-10.66,24.92c-1.17,2.73-4.33,4-7.07,2.83-.24-.1-.48-.23-.7-.36l-23.16-14.25c-1.33-.82-2.24-2.18-2.49-3.73Z"/>
    <path class="cls-1" d="M928.9,514.96c8.54-10.99,13.27-24.45,13.49-38.36-4.02,2.99-8.57,5.18-13.41,6.48-5.13,1.37-10.78,1.64-15.62-.56-6.81-3.1-10.83-11.01-10.06-18.45s5.91-14.08,12.61-17.42c6.85-3.2,14.67-3.68,21.86-1.32,7.77-6.62,18.69-8.07,27.92-3.73,10.4,5.11,16.15,16.93,17.15,28.47s-1.97,23.02-4.91,34.23l-.33,1.27c-.92,3.49-3.58,10.18-3.58,10.18,0,0-15.45-3.05-21.59-5-8.9,3.22-23.53,4.22-23.53,4.22Z"/>
    <path class="cls-4" d="M855.24,517.77l-12.59,.91c-.66,.05-1.23-.45-1.28-1.11-.05-.66,.45-1.23,1.11-1.28l12.59-.91c.66-.05,1.23,.45,1.28,1.1,.05,.66-.45,1.23-1.1,1.28,0,0,0,0,0,0Z"/>
    <path class="cls-4" d="M855.67,523.74l-12.59,.91c-.66,.05-1.23-.45-1.28-1.1-.05-.66,.45-1.23,1.1-1.28,0,0,0,0,0,0l12.59-.91c.66-.05,1.23,.45,1.28,1.11,.05,.66-.45,1.23-1.11,1.28Z"/>
    <path class="cls-4" d="M856.1,529.71l-12.59,.91c-.66,.05-1.23-.45-1.28-1.11-.05-.66,.45-1.23,1.11-1.28l12.59-.91c.66-.05,1.23,.45,1.28,1.11,.05,.66-.45,1.23-1.11,1.28Z"/>
    <path class="cls-4" d="M1220.8,765.38H139.2c-.66,0-1.2-.54-1.2-1.2s.54-1.2,1.2-1.2H1220.8c.66,0,1.2,.54,1.2,1.2s-.54,1.2-1.2,1.2Z"/>
    <path class="cls-11" d="M713.24,306.95h-120.84c-5.94,0-10.76-4.82-10.77-10.77v-104.09c0-5.94,4.82-10.76,10.77-10.77h120.84c5.94,0,10.76,4.82,10.77,10.77v104.09c0,5.94-4.82,10.76-10.77,10.77Zm-120.84-123.24c-4.62,0-8.37,3.75-8.38,8.38v104.09c0,4.62,3.75,8.37,8.38,8.38h120.84c4.62,0,8.37-3.75,8.38-8.38v-104.09c0-4.62-3.75-8.37-8.38-8.38h-120.84Z"/>
    <path class="cls-7" d="M695.57,290.8h-85.51c-5.61,0-10.16-4.56-10.17-10.17v-72.98c0-5.61,4.56-10.16,10.17-10.17h85.51c5.61,0,10.16,4.56,10.17,10.17v72.98c0,5.61-4.56,10.16-10.17,10.17Z"/>
    <circle class="cls-11" cx="653.41" cy="159.79" r="5.98"/>
    <polygon class="cls-11" points="665.99 183.14 653.42 162.12 640.91 183.13 638.86 181.91 653.41 157.45 668.04 181.91 665.99 183.14"/>
    <g>
      <path class="cls-6" d="M677,246.99l-.07-.74s0-.07-.01-.11l-.05-.35c0-.07-.02-.13-.03-.19l-.15-.73c-.02-.1-.05-.2-.08-.29l-.23-.7s-.03-.08-.05-.13l-.13-.33c-.02-.05-.04-.1-.07-.15l-.31-.66c-.04-.09-.09-.18-.14-.26l-.38-.63c-.03-.05-.07-.1-.1-.15l-.2-.28s-.04-.06-.06-.09l-.44-.58c-.06-.08-.12-.15-.18-.22l-.5-.53c-.06-.07-.13-.13-.2-.19l-.56-.49-.23-.19c-.07-.06-.13-.11-.2-.16l-.43-.3c-.12-.24-.25-.48-.38-.71v-.02c0-.06,0-.11,0-.17v-.46s-.01-.1-.02-.14l-.05-.74c0-.1-.02-.21-.04-.31l-.14-.72s-.1-.51-.1-.51c-.02-.09-.04-.18-.07-.27l-.22-.7c-.02-.07-.05-.14-.07-.2l-.18-.44s-.03-.06-.04-.09l-.3-.66c-.05-.1-.09-.19-.15-.28l-.38-.62s-.03-.05-.05-.08l-.26-.39c-.04-.06-.08-.12-.13-.18l-.44-.56c-.06-.08-.13-.16-.2-.23l-.81-.82c-.07-.07-.14-.14-.22-.2l-.55-.45c-.07-.06-.14-.11-.22-.16l-.35-.23s-.04-.02-.09-.06c.32-.09,.61-.2,.89-.32,.58-.25,1.02-.74,1.23-1.33,.65-.26,1.14-.54,1.48-.83,.44-.37,.71-.88,.78-1.44,.43-.29,.81-.59,1.13-.89,.48-.45,.73-1.09,.7-1.73,.2-.19,.38-.37,.55-.56,.49-.54,.68-1.27,.53-1.97,.19-.23,.37-.45,.51-.66,.4-.58,.5-1.3,.29-1.95,.17-.26,.3-.52,.4-.77,.28-.72,.16-1.51-.28-2.12,.34-.64,.36-1.42,.01-2.08-.39-.75-1.15-1.22-1.99-1.22-.08,0-.16,0-.24,.01-.1,.01-.2,.02-.3,.03-.3-.41-.73-.71-1.22-.85-.48-.13-1-.2-1.55-.2-.13,0-.25,0-.38,.01-.38-.37-.87-.59-1.4-.63-.1,0-.21-.01-.32-.01-.17,0-.35,.01-.54,.03-.41-.38-.95-.6-1.52-.6-.11,0-.23,0-.34,.02-.38,.06-.76,.14-1.14,.24-.37-.25-.8-.38-1.25-.38-.2,0-.39,.03-.58,.08-.39,.1-.79,.26-1.19,.46-.27-.12-.57-.18-.87-.18-.27,0-.54,.05-.8,.15-.29,.11-.59,.26-.89,.45-.22-.07-.46-.11-.7-.11-.43,0-.85,.12-1.22,.36-.34,.22-.73,.54-1.14,.95-.07,0-.15-.01-.22-.01-.54,0-1.06,.2-1.47,.55-1.64,1.42-2.59,3.18-3.11,4.48-.52-1.29-1.47-3.06-3.11-4.48-.41-.35-.93-.55-1.47-.55-.07,0-.15,0-.22,.01-.41-.41-.8-.73-1.14-.95-.36-.23-.78-.36-1.22-.36-.23,0-.47,.04-.69,.11-.3-.19-.6-.35-.89-.45-.26-.1-.52-.15-.79-.15-.3,0-.6,.06-.87,.18-.4-.2-.8-.35-1.19-.46-.19-.05-.39-.08-.58-.08-.45,0-.88,.13-1.25,.38-.37-.1-.75-.18-1.14-.24-.11-.02-.23-.02-.34-.02-.57,0-1.11,.22-1.52,.6-.19-.02-.37-.03-.54-.03-.11,0-.22,0-.33,.01-.53,.04-1.02,.27-1.4,.63-.13,0-.26-.01-.38-.01-.55,0-1.07,.07-1.55,.2-.5,.14-.92,.44-1.22,.85-.1,0-.2-.02-.3-.03-.08-.01-.16-.01-.24-.01-.85,0-1.61,.47-1.99,1.22-.34,.67-.33,1.44,.01,2.08-.44,.61-.55,1.4-.27,2.12,.1,.26,.23,.52,.4,.77-.21,.66-.1,1.38,.29,1.95,.15,.21,.32,.43,.51,.66-.15,.7,.04,1.43,.53,1.97,.17,.19,.35,.37,.55,.56-.03,.65,.22,1.28,.7,1.73,.32,.3,.7,.6,1.13,.89,.07,.56,.34,1.07,.78,1.44,.35,.29,.84,.57,1.48,.83,.2,.59,.65,1.08,1.23,1.33,.09,.04,.18,.08,.28,.11l-.1,.06c-.06,.03-.11,.07-.17,.1l-.51,.36c-.05,.04-.11,.08-.16,.12l-.48,.39s-.1,.09-.15,.13l-.45,.42s-.09,.09-.14,.14l-.41,.45s-.09,.1-.13,.15l-.12,.16-.4,.52c-.04,.06-.08,.11-.12,.17l-.35,.54c-.04,.06-.08,.12-.11,.19l-.3,.56c-.04,.07-.07,.14-.1,.21l-.25,.57s-.03,.07-.05,.11l-.14,.35s-.03,.07-.04,.11l-.21,.62c-.03,.08-.05,.16-.07,.24l-.15,.62c-.02,.07-.03,.13-.04,.2l-.07,.44s0,.05,0,.07l-.09,.65c-.01,.09-.02,.19-.02,.28l-.02,.65s0,.1,0,.15v.42c-.13,.28-.27,.55-.41,.83l-.21,.14c-.06,.04-.11,.08-.16,.12l-.5,.41c-.05,.04-.1,.09-.15,.13l-.46,.44s-.1,.1-.14,.15l-.43,.48c-.05,.05-.09,.1-.13,.16l-.39,.51c-.04,.06-.08,.11-.12,.17l-.35,.53c-.04,.06-.08,.12-.11,.18l-.3,.55c-.04,.06-.07,.13-.1,.2l-.25,.57c-.03,.07-.06,.14-.08,.2l-.08,.25-.21,.61c-.03,.07-.05,.15-.07,.23l-.15,.62c-.02,.08-.04,.16-.05,.24l-.09,.62c0,.07-.02,.14-.02,.2l-.03,.36s0,.04,0,.06l-.03,.65c0,.09,0,.18,0,.27l.03,.64c0,.08,.01,.16,.02,.24l.06,.42s.11,.69,.11,.69c.01,.1,.04,.19,.06,.29l.17,.63c.02,.05,.03,.1,.05,.16l.15,.43s.03,.09,.05,.13l.24,.61c.04,.1,.08,.19,.13,.28l.31,.57s.24,.45,.24,.45c.05,.09,.1,.17,.16,.26l.38,.54s.06,.08,.09,.12l.31,.38s.07,.08,.11,.12l.04,.05c.35,1.59,.85,3.13,1.49,4.61,0,.03,0,.07,.02,.1l.13,.77c.01,.09,.04,.18,.06,.27l.21,.75s.02,.07,.03,.11l.13,.39c.02,.05,.04,.11,.06,.16l.29,.73c.04,.09,.08,.18,.12,.27l.37,.7s.04,.07,.06,.11l.22,.38s.06,.1,.09,.14l.45,.66c.06,.08,.12,.16,.18,.24l.52,.61s.04,.04,.06,.06l.3,.33c.05,.05,.1,.1,.16,.15l.59,.55c.08,.07,.16,.13,.24,.2l.66,.48s.39,.28,.39,.28c.07,.05,.15,.1,.23,.14l.71,.4c.09,.05,.18,.09,.27,.13l.4,.17,.36,.15c2.06,1.62,4.33,2.89,6.76,3.78l.36,.4c.06,.07,.13,.13,.2,.2l.63,.56c.06,.05,.12,.11,.19,.15,0,0,.28,.21,.29,.22l.69,.49c.08,.05,.16,.11,.24,.16l.74,.42c.08,.05,.17,.09,.26,.13l.78,.34c.06,.03,.11,.05,.17,.07l.27,.09s.06,.02,.1,.03l.81,.26c.09,.03,.18,.05,.28,.07l.84,.17c.09,.02,.19,.03,.28,.04l.86,.08c.08,0,.16,.01,.25,.01,0,0,.27,0,.27,0h.85c.09-.01,.19-.02,.28-.03l.86-.1c.09,0,.18-.02,.27-.05l.85-.19c.09-.02,.17-.04,.26-.07l.83-.27c.08-.03,.17-.06,.25-.1l.8-.36c.08-.03,.16-.08,.24-.12l.77-.44c.06-.03,.12-.07,.17-.11,0,0,.1-.07,.11-.08l.7-.5c.07-.05,.14-.1,.2-.16l.65-.56c.07-.06,.14-.13,.21-.2,0,0,.61-.65,.62-.66,.03-.03,.06-.07,.09-.1,2.07-.81,4.02-1.91,5.81-3.27l.74-.25c.08-.03,.16-.06,.24-.1l.84-.38c.08-.04,.16-.07,.23-.12l.8-.45c.08-.04,.15-.09,.22-.14l.75-.53c.07-.05,.14-.11,.21-.17l.68-.6c.07-.06,.13-.12,.19-.19l.62-.66c.06-.07,.12-.13,.17-.2l.55-.71c.06-.07,.11-.15,.16-.22l.47-.76c.05-.08,.09-.16,.13-.24l.39-.8s.05-.1,.07-.15l.09-.21s.02-.07,.04-.1l.3-.84c.03-.09,.06-.18,.08-.27l.22-.87c.02-.09,.04-.18,.05-.28l.12-.88c.01-.09,.02-.19,.02-.28l.03-.88s0-.19,0-.28c.36-1.04,.66-2.11,.88-3.2,0,0,0,0,0-.01l.14-.18,.49-.62c.05-.07,.11-.15,.16-.22l.41-.65c.05-.08,.09-.16,.14-.24l.33-.68c.04-.07,.07-.15,.1-.22l.11-.28s.28-.76,.28-.76c.03-.09,.06-.18,.08-.28l.18-.74c.02-.1,.04-.19,.06-.29l.1-.74s0-.04,0-.07l.04-.34c0-.08,.01-.16,.01-.23v-.75c.01-.1,.01-.2,0-.3"/>
      <line class="cls-5" x1="629.24" y1="253.68" x2="629.24" y2="253.68"/>
      <polygon class="cls-5" points="630.38 252.46 630.71 251.78 630.75 251.66 630.9 251.12 630.97 250.99 631.1 250.62 631.18 250.38 631.27 250.13 631.41 249.59 631.5 249.22 631.59 248.58 631.62 248.48 631.67 248.26 631.77 247.69 631.78 247.62 631.85 247.27 631.89 246.92 631.95 246.34 631.96 246.26 631.96 246.03 631.97 245.85 631.99 245.5 632.01 245.23 632.01 245.22 632 244.98 631.99 244.79 631.99 244.74 631.99 244.63 631.99 244.5 631.99 244.38 631.99 244.26 631.99 244.16 631.99 244.07 631.98 243.98 631.97 243.89 631.97 243.8 631.96 243.71 631.95 243.63 631.95 243.62 631.94 243.53 631.94 243.44 631.93 243.33 631.92 243.22 631.91 243.09 631.89 242.94 631.87 242.77 631.86 242.68 631.85 242.62 631.84 242.58 631.8 242.36 631.75 242.07 631.73 241.97 631.66 241.78 631.63 241.71 631.55 241.42 631.54 241.41 631.34 241.1 631.3 241.03 631.19 240.95 631.15 240.91 631.1 240.8 631.07 240.75 630.82 240.6 630.8 240.6 630.49 240.62 630.42 240.65 630.21 240.74 629.97 240.88 629.45 241.25 628.95 241.65 628.49 242.1 628.06 242.57 627.67 243.08 627.32 243.61 627.02 244.16 626.77 244.73 626.69 244.97 626.48 245.58 626.32 246.2 626.23 246.82 626.2 247.19 626.17 247.84 626.2 248.48 626.26 248.89 626.36 249.54 626.53 250.16 626.67 250.6 626.91 251.21 627.23 251.79 627.46 252.21 627.85 252.76 628.15 253.14 628.47 253.5 628.55 253.57 628.64 253.62 628.84 253.75 628.9 253.76 629.16 253.72 629.24 253.68 629.54 253.54 629.66 253.44 629.81 253.26 629.93 253.12 630 253.01 630.1 252.8 630.35 252.51 630.38 252.46 630.38 252.46"/>
      <polygon class="cls-5" points="643.37 231.98 643.43 232.31 643.48 232.45 643.56 232.6 643.68 232.76 643.72 232.88 643.81 233.02 643.88 233.15 644.05 233.4 644.1 233.45 644.25 233.6 644.27 233.62 644.51 233.82 644.69 233.95 644.75 234 645 234.16 645.1 234.22 645.26 234.32 645.52 234.45 645.53 234.46 645.81 234.6 645.94 234.65 646.1 234.73 646.39 234.84 646.4 234.85 646.72 234.97 646.88 235.02 647.06 235.09 647.41 235.19 647.44 235.2 647.79 235.3 648.12 235.37 648.2 235.39 648.64 235.47 648.8 235.5 649.03 235.51 649.11 235.52 649.61 235.55 650.11 235.54 650.14 235.55 650.58 235.58 650.75 235.6 650.81 235.61 651.38 235.59 652.04 235.53 652.46 235.47 652.71 235.41 652.88 235.35 653.42 235.28 653.89 235.19 654.15 235.11 654.8 234.84 655.19 234.63 655.19 234.62 655.43 234.52 655.67 234.39 656.04 234.19 656.19 234.08 656.52 233.79 656.86 233.35 656.88 233.33 656.97 233.22 657.03 233.11 657.18 232.89 657.36 232.43 657.37 232.33 657.37 231.98 657.37 231.93 657.29 231.45 657.26 231.38 657.15 231.06 657.11 230.99 657.09 230.95 656.83 230.56 656.71 230.42 656.25 229.91 655.74 229.47 655.37 229.16 654.81 228.78 654.41 228.55 653.83 228.24 653.22 227.99 652.82 227.87 652.21 227.69 651.56 227.56 650.9 227.49 650.6 227.48 649.96 227.47 649.32 227.51 648.68 227.61 648.04 227.76 647.41 227.96 646.79 228.2 646.19 228.5 645.62 228.84 645.07 229.22 644.57 229.64 644.13 230.06 644.1 230.08 643.78 230.48 643.66 230.68 643.56 230.84 643.55 230.87 643.44 231.24 643.43 231.34 643.36 231.59 643.36 231.62 643.37 231.81 643.37 231.98 643.37 231.98"/>
      <line class="cls-5" x1="631.45" y1="238.32" x2="631.44" y2="238.32"/>
      <polygon class="cls-5" points="631.26 238.26 631.27 238.28 631.45 238.32 631.47 238.33 631.74 238.35 631.84 238.34 632.16 238.21 632.3 238.13 632.65 238.02 632.94 237.9 633.17 237.76 633.62 237.48 633.73 237.39 633.78 237.35 634.03 237.22 634.24 237.11 634.46 236.99 634.71 236.82 635.14 236.52 635.33 236.38 635.39 236.34 635.53 236.23 635.88 235.96 636.18 235.71 636.25 235.66 636.45 235.51 636.47 235.49 636.5 235.47 636.69 235.32 636.92 235.14 637.07 235.02 637.12 234.98 637.32 234.83 637.5 234.69 637.68 234.54 637.82 234.42 637.84 234.39 638.01 234.26 638.18 234.11 638.34 233.97 638.51 233.81 638.52 233.8 638.68 233.66 638.87 233.49 639.05 233.31 639.23 233.14 639.25 233.12 639.33 233.04 639.36 233.02 639.48 232.91 639.73 232.68 639.98 232.44 640 232.42 640.3 232.15 640.33 232.12 640.62 231.81 640.81 231.59 640.96 231.44 640.99 231.41 641.24 231.07 641.36 230.89 641.49 230.76 641.57 230.66 641.85 230.28 641.88 230.25 641.88 230.25 642.04 229.89 642.06 229.79 642.18 229.57 642.2 229.5 642.15 229.34 642.08 229.26 642.06 229.25 642.05 229.25 642 229.21 641.91 229.19 641.58 229.12 641.15 229.03 640.51 228.95 639.86 228.94 639.49 228.94 638.87 228.98 638.23 229.08 637.6 229.23 637.38 229.29 636.81 229.48 636.24 229.71 635.69 229.98 635.15 230.3 634.64 230.66 634.16 231.05 633.71 231.47 633.3 231.92 633.18 232.07 632.78 232.59 632.43 233.13 632.12 233.69 631.87 234.26 631.74 234.61 631.53 235.22 631.38 235.85 631.31 236.28 631.23 236.94 631.21 237.59 631.22 238.02 631.26 238.26 631.26 238.26"/>
      <polygon class="cls-5" points="643.17 251.3 643.93 250.98 644.29 250.76 644.7 250.55 645.33 250.08 645.42 250.02 646.1 249.43 646.27 249.23 646.63 248.86 646.71 248.77 646.74 248.72 647.08 248.29 647.26 248.08 647.74 247.35 647.77 247.3 648.16 246.59 648.29 246.25 648.48 245.8 648.66 245.19 648.73 245 648.74 244.91 648.84 244.23 648.85 244.18 648.86 244.12 648.97 243.42 648.98 243.16 649.01 242.67 648.98 242.27 648.96 241.93 648.88 241.45 648.85 241.23 648.71 240.72 648.66 240.55 648.66 240.55 648.51 240.21 648.46 240.07 648.42 239.93 648.24 239.53 648.16 239.35 647.99 239.07 647.85 238.82 647.73 238.67 647.48 238.32 647.48 238.32 647.21 238.03 647.08 237.88 646.95 237.77 646.7 237.55 646.63 237.49 646.45 237.36 646.22 237.19 646.16 237.14 645.99 237.04 645.76 236.91 645.66 236.85 645.54 236.79 645.32 236.69 645.15 236.6 645.1 236.59 644.87 236.5 644.65 236.42 644.61 236.41 644.41 236.35 644.16 236.28 644.06 236.26 643.9 236.23 643.63 236.18 643.5 236.16 643.33 236.14 643.01 236.11 642.92 236.11 642.66 236.11 642.32 236.11 642.27 236.12 641.84 236.16 641.71 236.17 641.38 236.23 641.09 236.28 640.87 236.34 640.47 236.45 640.32 236.51 640.01 236.62 639.85 236.68 639.71 236.74 639.66 236.76 639.24 236.96 639.06 237.06 638.64 237.3 638.4 237.47 638.05 237.71 637.71 237.98 637.49 238.16 637.03 238.59 636.95 238.67 636.77 238.87 636.43 239.23 636.36 239.33 636.33 239.36 635.98 239.83 635.59 240.44 635.53 240.53 635.23 241.11 635.16 241.23 634.85 241.97 634.8 242.13 634.59 242.74 634.55 242.93 634.5 243.11 634.48 243.2 634.41 243.54 634.31 244.35 634.31 244.35 634.28 245.17 634.3 245.49 634.33 245.98 634.44 246.62 634.46 246.77 634.67 247.53 634.74 247.7 634.87 248.02 634.97 248.26 635.22 248.7 635.35 248.93 635.81 249.55 635.85 249.59 636.34 250.11 636.64 250.35 636.93 250.6 637.54 250.97 637.59 251 638.29 251.33 638.56 251.41 639.05 251.57 639.66 251.68 639.83 251.72 640.65 251.77 640.82 251.75 641.48 251.73 641.92 251.64 642 251.63 642.31 251.58 643.13 251.32 643.17 251.3 643.17 251.3"/>
      <polygon class="cls-5" points="656.57 236.04 656.18 236.18 655.94 236.29 655.63 236.41 655.57 236.45 655.48 236.49 654.91 236.81 654.62 236.99 654.44 237.16 654.27 237.32 654.06 237.51 653.77 237.8 653.74 237.84 653.5 238.2 653.48 238.23 653.3 238.5 653.22 238.64 653.12 238.77 652.97 239.02 652.97 239.02 652.94 239.1 652.85 239.28 652.74 239.52 652.66 239.75 652.59 239.96 652.58 239.98 652.51 240.21 652.44 240.43 652.39 240.66 652.35 240.85 652.35 240.89 652.3 241.13 652.26 241.38 652.24 241.64 652.23 241.81 652.22 241.93 652.21 242.15 652.21 242.24 652.23 242.57 652.24 242.66 652.26 242.91 652.26 242.94 652.28 243.39 652.32 243.84 652.33 243.91 652.41 244.24 652.46 244.46 652.62 245.12 652.66 245.23 652.9 245.78 653.12 246.19 653.23 246.43 653.26 246.52 653.27 246.54 653.76 247.45 653.89 247.66 654.4 248.3 654.79 248.71 654.93 248.83 655.19 249.12 655.72 249.63 656.12 249.94 656.86 250.4 657.12 250.52 657.15 250.53 658.04 251 658.27 251.08 659.32 251.33 659.38 251.35 659.43 251.35 659.8 251.37 660.5 251.48 660.78 251.49 661.54 251.41 662.19 251.24 662.35 251.21 662.51 251.16 662.9 250.98 663.39 250.8 663.91 250.48 664.16 250.3 664.18 250.28 664.82 249.72 665.38 249.04 665.51 248.81 665.72 248.5 665.84 248.3 666.18 247.5 666.31 247.03 666.42 246.65 666.56 245.78 666.59 245.06 666.6 244.86 666.55 243.94 666.55 243.93 666.53 243.84 666.37 242.98 666.27 242.64 666.04 241.83 665.71 241.05 665.49 240.64 665.08 239.91 664.6 239.26 664.58 239.23 664.29 238.89 663.74 238.28 663.44 238.02 662.98 237.62 662.78 237.47 662.3 237.13 662.04 236.97 661.34 236.6 661.1 236.47 661.03 236.44 660.21 236.16 659.97 236.07 659.95 236.06 658.94 235.87 658.75 235.85 657.91 235.85 657.84 235.86 657.69 235.86 657 235.95 656.57 236.04 656.57 236.04"/>
      <polygon class="cls-5" points="658.22 229.73 658.31 229.88 658.32 229.91 658.35 230.03 658.59 230.41 658.74 230.58 658.92 230.77 658.98 230.87 659 230.9 659.2 231.13 659.36 231.31 659.49 231.46 659.53 231.5 659.56 231.53 659.6 231.58 659.71 231.68 659.79 231.76 659.81 231.78 659.9 231.89 659.98 231.98 660.06 232.08 660.15 232.17 660.24 232.26 660.34 232.36 660.44 232.46 660.56 232.58 660.7 232.71 660.72 232.73 660.88 232.87 661.05 233.06 661.29 233.3 661.54 233.55 661.63 233.63 662.23 234.16 662.28 234.21 662.28 234.22 663 234.87 663.74 235.45 664.22 235.76 664.36 235.86 664.48 235.98 665.16 236.56 665.85 237.03 666.4 237.34 666.51 237.43 667.1 237.83 667.29 237.93 667.65 238.11 667.87 238.17 668.12 238.33 668.44 238.48 668.52 238.5 668.84 238.5 668.94 238.52 669.03 238.49 669.12 238.34 669.13 238.29 669.13 238.28 669.16 237.69 669.15 237.23 669.09 236.49 668.95 235.76 668.86 235.3 668.63 234.6 668.45 234.16 668.15 233.5 667.77 232.88 667.52 232.49 667.08 231.93 666.76 231.61 666.27 231.11 665.72 230.66 665.37 230.43 664.8 230.06 664.18 229.74 663.52 229.48 663.21 229.37 662.55 229.18 661.87 229.04 661.17 228.97 660.46 228.95 660.3 228.95 659.62 229 658.95 229.09 658.31 229.24 658.29 229.25 658.18 229.33 658.18 229.49 658.21 229.53 658.22 229.73 658.22 229.73"/>
      <polygon class="cls-5" points="674.27 246.5 674.22 246.15 674.07 245.43 673.84 244.72 673.71 244.39 673.4 243.72 673.02 243.09 672.82 242.81 672.38 242.23 671.88 241.7 671.33 241.23 671.1 241.03 670.51 240.62 669.95 240.31 669.71 240.2 669.51 240.22 669.5 240.23 669.28 240.31 669.08 240.52 669.04 240.64 669.02 240.71 668.92 240.88 668.83 241.18 668.79 241.31 668.77 241.37 668.7 241.65 668.64 242.05 668.63 242.09 668.63 242.14 668.58 242.42 668.53 242.76 668.51 243.07 668.5 243.37 668.5 243.66 668.52 243.95 668.52 243.96 668.51 244.26 668.51 244.58 668.52 244.92 668.56 245.3 668.61 245.74 668.67 246.12 668.67 246.21 668.68 246.26 668.76 246.89 668.83 247.37 668.86 247.49 668.9 247.74 669.01 248.38 669.11 248.79 669.14 248.98 669.19 249.3 669.41 250.12 669.65 250.75 669.67 250.84 669.89 251.53 670.15 252.1 670.44 252.54 670.45 252.56 670.68 252.98 670.94 253.27 671.18 253.42 671.22 253.46 671.32 253.53 671.43 253.57 671.67 253.53 671.81 253.43 671.88 253.37 671.92 253.33 672.28 252.96 672.42 252.78 672.9 252.16 673.31 251.5 673.65 250.82 673.75 250.54 674.02 249.82 674.19 249.08 674.29 248.34 674.33 248 674.34 247.25 674.27 246.5 674.27 246.5"/>
      <line class="cls-5" x1="641.65" y1="264.66" x2="641.65" y2="264.65"/>
      <polygon class="cls-5" points="641.7 263.39 641.69 263.32 641.5 262.58 641.49 262.54 641.29 261.6 641.26 261.52 640.91 260.7 640.59 260.17 640.45 259.82 640.08 259.17 639.94 258.94 639.91 258.9 639.36 258.1 638.68 257.35 638.59 257.27 638.37 257.05 638.01 256.61 637.3 255.95 637.07 255.8 636.86 255.62 636.56 255.37 636.48 255.32 636.33 255.24 636.24 255.18 636.16 255.14 636.11 255.1 636.06 255.08 636.02 255.06 635.98 255.04 635.95 255.02 635.92 255 635.9 254.99 635.87 254.98 635.84 254.96 635.82 254.95 635.79 254.93 635.77 254.91 635.74 254.9 635.71 254.88 635.68 254.86 635.64 254.84 635.59 254.81 635.54 254.78 635.47 254.74 635.37 254.69 635.23 254.62 635.16 254.58 634.85 254.48 634.62 254.41 634.42 254.31 633.73 254.16 633.33 254.17 633.14 254.15 633.07 254.14 632.49 254.15 631.95 254.32 631.83 254.38 631.47 254.59 631.32 254.76 631.08 254.95 630.8 255.34 630.77 255.39 630.53 256.01 630.52 256.05 630.41 256.55 630.4 256.61 630.31 257.35 630.28 258.12 630.34 258.88 630.36 259.24 630.49 260.02 630.7 260.76 630.82 261.15 631.12 261.89 631.49 262.59 631.71 262.97 632.16 263.63 632.68 264.23 632.99 264.56 633.58 265.11 634.24 265.59 634.6 265.85 635.31 266.25 635.71 266.42 636.47 266.74 637.26 266.97 638.1 267.12 638.09 267.12 638.46 267.19 639.09 267.21 639.13 267.2 639.24 267.19 639.6 267.16 639.77 267.13 640.4 266.89 640.48 266.84 640.88 266.45 640.93 266.41 640.96 266.38 640.99 266.31 641.43 265.75 641.44 265.73 641.63 265.02 641.65 264.65 641.71 264.24 641.7 263.39 641.7 263.39"/>
      <line class="cls-5" x1="667.03" y1="253.24" x2="667.04" y2="253.24"/>
      <polygon class="cls-5" points="670.61 255.97 670.52 255.67 670.27 254.83 670.2 254.64 669.95 254.19 669.88 254.12 669.61 253.77 669.21 253.46 668.79 253.3 668.77 253.29 668.24 253.14 667.97 253.15 667.66 253.13 667.03 253.24 666.35 253.39 666 253.54 665.62 253.73 665.55 253.78 665.03 254.05 664.83 254.16 664.44 254.46 664.01 254.8 663.93 254.87 663.76 255.05 663.69 255.11 663.51 255.26 663.36 255.37 663.09 255.61 662.85 255.84 662.63 256.06 662.44 256.28 662.26 256.5 662.19 256.59 662.07 256.73 661.87 256.95 661.67 257.2 661.47 257.48 661.26 257.81 661.17 257.95 661.01 258.18 660.85 258.45 660.84 258.47 660.73 258.62 660.4 259.15 660.16 259.56 660 259.91 659.73 260.54 659.67 260.74 659.47 261.23 659.38 261.46 659.19 262.33 659.02 263.14 658.99 263.9 659.01 264.04 659.06 264.61 659.07 264.64 659.13 265.22 659.33 265.78 659.6 266.15 659.64 266.25 659.96 266.64 660.11 266.74 660.44 266.92 660.71 267.01 660.97 267.11 661 267.12 661.38 267.18 661.51 267.2 662.31 267.17 663.22 267.05 664.11 266.84 664.98 266.55 665.82 266.18 666.61 265.72 667.36 265.2 668.04 264.6 668.66 263.94 669.21 263.23 669.68 262.47 670.06 261.67 670.15 261.47 670.45 260.62 670.67 259.75 670.79 258.88 670.82 258 670.83 257.71 670.76 256.83 670.61 255.97 670.61 255.97"/>
      <line class="cls-5" x1="652.91" y1="250.77" x2="652.89" y2="250.76"/>
      <polygon class="cls-5" points="657.98 256.12 657.86 255.65 657.57 254.92 657.42 254.64 657.2 254.33 656.91 253.78 656.84 253.68 656.12 252.85 656.02 252.77 655.43 252.32 655.3 252.18 654.97 251.94 654.37 251.56 653.89 251.34 653.39 251.14 652.7 250.97 652.61 250.95 652.35 250.85 651.84 250.75 651.24 250.65 651.08 250.64 650.54 250.65 650.42 250.64 650.09 250.63 649.91 250.65 649.48 250.71 649.14 250.76 648.96 250.8 648.86 250.81 648.84 250.81 648.63 250.87 648.42 250.92 648.24 250.98 648.08 251.03 647.93 251.08 647.8 251.13 647.67 251.18 647.62 251.2 647.54 251.22 647.42 251.27 647.3 251.32 647.18 251.37 647.05 251.42 646.92 251.49 646.78 251.56 646.63 251.63 646.47 251.73 646.37 251.78 646.27 251.83 646.14 251.9 646.05 251.96 645.81 252.12 645.54 252.33 645.19 252.6 645.17 252.62 645.14 252.64 644.81 252.96 644.38 253.41 644.35 253.45 643.99 253.98 643.93 254.06 643.77 254.29 643.63 254.6 643.46 254.89 643.29 255.18 643.01 255.95 642.96 256.13 642.85 256.81 642.81 257.09 642.8 257.17 642.81 257.35 642.76 258.15 642.78 258.4 642.9 259.19 643.03 259.62 643.13 259.89 643.23 260.24 643.49 260.82 643.5 260.83 643.71 261.23 644.16 261.87 644.46 262.22 644.98 262.77 645.33 263.08 645.88 263.48 646.27 263.7 646.61 263.91 646.84 264.02 647.25 264.19 647.83 264.42 648.24 264.54 648.82 264.67 648.9 264.68 649.81 264.8 650.76 264.82 650.77 264.82 651.37 264.75 651.7 264.71 652.6 264.52 653.46 264.22 653.64 264.14 654.29 263.84 655.07 263.37 655.49 263.04 655.63 262.92 655.8 262.79 656.45 262.12 657.04 261.35 657.17 261.12 657.21 261.04 657.52 260.47 657.62 260.18 657.9 259.52 657.9 259.51 658.11 258.45 658.12 258.35 658.14 258.12 658.14 257.3 658.1 256.89 657.98 256.12 657.98 256.12"/>
      <polygon class="cls-5" points="657.89 268.99 657.89 268.97 657.62 268.68 657.59 268.65 657.29 268.33 656.83 268.03 656.64 267.95 656.29 267.84 656.23 267.8 655.56 267.54 655.42 267.51 654.78 267.3 654.36 267.22 653.84 267.14 653.75 267.14 653.08 267.03 652.8 266.99 652.41 266.99 652.13 266.94 651.55 266.88 651.34 266.88 650.71 266.88 650.16 266.92 649.85 266.95 649.65 266.95 649.51 266.95 649.18 266.97 648.73 267.01 648.3 267.07 647.88 267.14 647.56 267.21 647.55 267.22 647.44 267.23 647 267.3 646.53 267.4 646.03 267.54 645.8 267.62 645.47 267.77 645.45 267.78 644.87 267.98 644.83 268 644.3 268.32 644.24 268.35 644.08 268.45 643.76 268.69 643.7 268.76 643.39 269.02 643.23 269.3 643.2 269.39 643.19 269.43 643.09 269.7 643.12 270.04 643.27 270.38 643.28 270.4 643.38 270.54 643.57 270.8 644.13 271.42 644.76 271.98 645.01 272.17 645.7 272.67 646.44 273.09 647.22 273.43 647.49 273.52 648.31 273.78 649.15 273.94 650.01 274.03 650.25 274.02 651.1 274.01 651.96 273.91 652.8 273.72 653.63 273.45 654.44 273.09 655.2 272.65 655.27 272.61 655.97 272.11 656.62 271.54 657.22 270.91 657.22 270.9 657.6 270.43 657.76 270.22 657.88 270.03 657.98 269.69 657.96 269.58 657.99 269.33 657.89 268.99 657.89 268.99"/>
      <path class="cls-8" d="M646.05,212.34c0,.6-.31,.98-.36,1.03,0,0-.01,0-.02,0-.12-.17-1.34-1.76-2.2-2.32,.35,1.11-.37,1.26-.37,1.26,0,0-.98-1.36-2.01-1.75,.53,.42,.16,1.02,.01,1.22-.05-.01-.1-.02-.15-.03-.32-.31-1.36-1.25-2.5-1.55,.85,.71,.49,1.14,.35,1.26-.03,0-.07,0-.1,0-.25-.18-1.33-.89-2.96-1.14,.96,.55,.9,1.02,.82,1.21-.07,0-.14,.02-.21,.03-.48-.19-1.95-.73-2.82-.66,.81,.33,.77,.82,.69,1.05-.08,.02-.17,.04-.25,.06-.54-.2-2.1-.7-3.35-.36,.21,.12,.53,.44,.88,.83-.98,.13-2.02,.18-3.23,.06,.64,.72,1,1.56,1.27,2.49-.63,.02-1.17,0-1.43-.12,.3,.77,1.38,1.62,1.92,2.01,.02,.11,.05,.21,.08,.32-.29,.11-.85,.23-1.55-.07,.73,1.07,2.21,2.25,2.21,2.25,0,0-.22,.4-1.35,.15,.84,.94,2.02,1.66,2.43,1.9,.03,.04,.06,.09,.09,.13-.17,.11-.67,.36-1.39,.13,1,.94,2.58,1.64,3.04,1.83,.03,.03,.06,.06,.09,.09-.1,.12-.45,.43-1.31,.33,.61,.52,2.57,1.03,3.11,1.17,.04,.03,.08,.06,.13,.08-.05,.13-.26,.47-1.08,.58,1.07,.47,2.53,.53,3.2,.54,.13,.05,.26,.1,.39,.14,0,.18-.12,.51-.95,.8,2.36,.39,5.25-.7,5.25-.7h0c1.7-.57,2.73-1.66,3.14-3.28-2.93-3.42-9.45-7.33-12.37-8.67,3.21,.96,9.55,3.62,13.65,7.2,2.19-.99,2.65-2.81,2.14-4.56-.07-.31-.78-3.04-2.92-4.9"/>
      <path class="cls-8" d="M672.71,217.13c-.7,.3-1.26,.18-1.55,.07,.03-.11,.05-.21,.08-.32,.54-.39,1.62-1.23,1.91-2.01-.26,.11-.8,.13-1.43,.12,.27-.92,.63-1.76,1.27-2.49-1.21,.13-2.25,.08-3.23-.06,.35-.39,.67-.72,.88-.83-1.25-.35-2.81,.16-3.35,.36-.08-.02-.17-.04-.25-.05-.08-.23-.12-.72,.7-1.05-.87-.07-2.34,.47-2.82,.66-.07-.01-.14-.02-.21-.03-.08-.19-.14-.66,.82-1.21-1.64,.25-2.71,.96-2.96,1.14-.04,0-.07,0-.11,0-.14-.12-.51-.54,.35-1.25-1.14,.31-2.18,1.24-2.5,1.55-.05,.01-.1,.02-.15,.03-.15-.2-.51-.8,.01-1.23-1.03,.39-2.01,1.75-2.01,1.75,0,0-.72-.15-.37-1.26-.87,.56-2.08,2.15-2.2,2.32,0,0-.01,0-.02,0-.04-.05-.36-.43-.36-1.03-2.13,1.85-2.84,4.59-2.92,4.9-.51,1.74-.06,3.57,2.13,4.56,4.1-3.58,10.44-6.24,13.65-7.2-2.92,1.34-9.44,5.25-12.37,8.67,.41,1.62,1.43,2.71,3.14,3.27h0s2.9,1.11,5.25,.71c-.82-.29-.95-.61-.94-.8,.13-.04,.26-.09,.39-.14,.66,0,2.12-.07,3.19-.54-.82-.11-1.03-.44-1.08-.58,.04-.03,.08-.06,.13-.09,.54-.13,2.5-.65,3.11-1.16-.86,.1-1.21-.21-1.31-.33,.03-.03,.06-.06,.1-.09,.45-.19,2.03-.89,3.03-1.83-.72,.23-1.22-.02-1.39-.13,.03-.04,.06-.09,.09-.13,.41-.24,1.58-.97,2.43-1.9-1.14,.25-1.35-.15-1.35-.15,0,0,1.48-1.18,2.21-2.25"/>
    </g>
  </g>
  <g>
    <path d="M425.89,401.34c-.73,0-1.41-.31-2.05-.92-6.36-6.28-13.42-10.5-21.2-12.68l.23,5.65,.14,5.68c0,.85-.27,1.55-.82,2.12-.55,.57-1.23,.85-2.06,.85s-1.51-.28-2.06-.85c-.55-.57-.82-1.27-.82-2.12,0-1.52-.07-3.78-.22-6.78-.14-3.01-.22-5.27-.22-6.78,0-1.77,.19-4.4,.58-7.89,.38-3.5,.58-6.12,.58-7.86,0-.98-.09-2.43-.27-4.35-.18-1.92-.27-3.37-.27-4.35,0-1.09,.31-2.05,.92-2.88,.73-1.02,1.74-1.48,3.02-1.38l6.94,.55c2.63,.33,4.85,.97,6.65,1.93,7.78,4.13,11.67,9.17,11.67,15.12,0,2.92-1.33,5.5-3.98,7.75-2.13,1.81-4.79,3.18-7.98,4.12,5.97,3.21,10.44,6.59,13.4,10.14,.5,.62,.75,1.27,.75,1.96,0,.81-.29,1.51-.88,2.1s-1.27,.89-2.06,.89Zm-18.35-38.08l-4.26-.35,.29,3.49c.13,1.42,.2,2.58,.2,3.49,0,1.54-.12,3.45-.37,5.73l-.61,5.73c.27,0,.69,0,1.25,.03,.57,.02,.99,.03,1.28,.03,4.9,0,8.57-.65,11-1.96,1.08-.59,2.07-1.37,3-2.33,1.02-1.08,1.53-1.99,1.53-2.74,0-2.67-1.52-5.16-4.55-7.46-2.79-2.11-5.71-3.33-8.76-3.66Z"/>
    <path d="M457.03,402.92c-.37,0-1.03-.42-1.99-1.27-.86-.79-1.51-1.49-1.93-2.1-1.84,1-3.47,1.75-4.87,2.26-1.4,.51-2.57,.76-3.51,.76-4.49,0-7.77-1.27-9.82-3.8-1.94-2.38-2.91-6.03-2.91-10.95,0-4.65,1.6-8.62,4.8-11.93,3.2-3.3,7.02-4.96,11.45-4.96,1.67,0,3.54,.43,5.62,1.3,2.61,1.08,3.92,2.37,3.92,3.89,0,.52-.19,.98-.58,1.38-.19,.73-.34,1.93-.45,3.6-.11,1.67-.17,3.81-.19,6.42-.02,2.38,.14,4.26,.49,5.65,.19,.85,.8,2.54,1.81,5.07,.13,.35,.36,.85,.66,1.53l.17,.49c0,.77-.27,1.4-.81,1.9-.54,.5-1.16,.75-1.87,.75Zm-5.99-20.02c0-.83,.05-1.72,.16-2.69,.11-.97,.26-2,.48-3.1-.71-.36-1.32-.63-1.83-.81-.51-.17-.92-.26-1.22-.26-2.98,0-5.55,1.21-7.71,3.64-2.16,2.43-3.24,5.23-3.24,8.4s.56,5.51,1.67,7.09c1.11,1.57,2.78,2.36,5.01,2.36,1.84,0,3.41-.33,4.7-1.01,.69-.36,1.66-1.09,2.91-2.19-.62-5.09-.92-8.9-.92-11.44Z"/>
    <path d="M484.17,378.84c-1.06,0-1.8-.36-2.22-1.07-.29-.5-.54-1.54-.75-3.11-1.44,.36-3.66,1.04-6.65,2.02-3.09,1.23-4.65,2.75-4.67,4.55,.58,.21,1.14,.36,1.7,.46,4.42,.79,7.7,1.87,9.85,3.25,3.13,2.02,4.7,4.94,4.7,8.76,0,3.13-1.35,5.49-4.06,7.09-2.25,1.31-5.09,1.96-8.53,1.96-2.52,0-4.92-.42-7.2-1.27-2.96-1.08-4.44-2.57-4.44-4.49,0-.77,.3-1.44,.91-2.02,.6-.58,1.29-.86,2.06-.86,.59,0,1.36,.46,2.3,1.38,.46,.44,1.5,.81,3.11,1.09,1.29,.23,2.37,.35,3.26,.35,1.61,0,3.03-.19,4.26-.58,1.79-.56,2.68-1.44,2.68-2.65,0-2.61-1.83-4.38-5.47-5.3l-3-.66c-2.55-.56-4.37-1.21-5.45-1.96-1.55-1.08-2.33-2.7-2.33-4.87,0-4.01,1.89-6.88,5.67-8.58,1.15-.52,3-1.14,5.53-1.86,2.54-.72,4.35-1.33,5.45-1.83,.79-.35,1.64-.52,2.56-.52,.83,0,1.5,.27,2.03,.81,.53,.54,.79,1.24,.79,2.1,0,.56,.12,1.37,.36,2.45,.24,1.08,.36,1.89,.36,2.45,0,.86-.26,1.57-.79,2.1-.53,.54-1.21,.81-2.03,.81Z"/>
    <path d="M505.69,402.03c-1.92,0-4.03-.31-6.34-.92l-.06,13.77c0,.84-.26,1.54-.79,2.07-.53,.54-1.21,.81-2.03,.81s-1.5-.27-2.03-.81c-.53-.54-.79-1.23-.79-2.07l.09-11.52v-11.5c-.06-4.21-.2-8.04-.43-11.5l-.43-5.85c0-1.36,.25-2.52,.75-3.46,.58-1.13,1.41-1.7,2.51-1.7,.75,0,1.38,.26,1.89,.79s.76,1.18,.76,1.94c0,.17-.03,.49-.09,.95-.1,.59-.16,1.14-.2,1.64,1.65-1.13,3.25-1.98,4.78-2.55,1.54-.57,3.01-.85,4.41-.85,3.94,0,6.82,1.75,8.64,5.24,1.44,2.77,2.16,6.42,2.16,10.98,0,4.15-1.11,7.57-3.34,10.26-2.36,2.84-5.51,4.26-9.45,4.26Zm1.99-24.98c-1.77,0-3.36,.39-4.78,1.18-1.02,.56-2.3,1.57-3.86,3.05,.25,4.36,.37,8.94,.37,13.74,2.09,.81,4.19,1.21,6.28,1.21,2.4,0,4.23-.89,5.5-2.68,1.1-1.56,1.64-3.57,1.64-6.05,0-3.5-.43-6.11-1.28-7.85s-2.15-2.61-3.87-2.61Z"/>
    <path d="M538.44,402.23c-2.94,0-5.61-.58-8.01-1.73-.62,.92-1.36,1.38-2.25,1.38-.73,0-1.35-.25-1.86-.76s-.76-1.15-.76-1.92c0-.5,.02-1.24,.07-2.22s.07-1.72,.07-2.22c0-2.04-.05-5.08-.16-9.15-.11-4.06-.16-7.11-.16-9.15,0-1.4,0-4.06,.03-7.97,.02-3.91,.03-6.57,.03-7.99,0-1.15,.24-2.19,.72-3.11,.63-1.17,1.51-1.76,2.62-1.76,1.44,0,2.16,.83,2.16,2.51,0,.27-.05,.66-.14,1.18-.1,.52-.14,.91-.14,1.18l-.09,6.31-.06,7.35c1.67-1.13,3.26-1.98,4.77-2.55,1.51-.57,2.92-.85,4.25-.85,4.13,0,7.48,1.58,10.05,4.75,2.42,2.98,3.63,6.64,3.63,10.98s-1.41,8.1-4.23,11.15c-2.82,3.05-6.34,4.58-10.54,4.58Zm1.09-26.01c-1.58,0-3.19,.44-4.84,1.33-.81,.44-2.19,1.39-4.15,2.85l-.06,4.98,.03,4.49,.03,4.72c.92,.42,2.22,.96,3.89,1.61,1.19,.36,2.53,.55,4,.55,2.78,0,5.07-.98,6.86-2.94s2.68-4.4,2.68-7.32-.72-5.25-2.16-7.17c-1.56-2.07-3.65-3.11-6.28-3.11Z"/>
    <path d="M573.44,402.35c-4.34,0-7.86-1.08-10.54-3.25-2.94-2.4-4.41-5.76-4.41-10.08,0-4.99,1.21-9.18,3.63-12.56,2.63-3.69,6.15-5.53,10.54-5.53,3.19,0,5.79,.54,7.81,1.61,2.48,1.33,3.72,3.36,3.72,6.11,0,1.92-1.08,3.67-3.25,5.24-.96,.69-3,1.77-6.11,3.23l-11,5.21c1.08,1.59,2.42,2.79,4.02,3.6s3.47,1.21,5.6,1.21c1.33,0,2.88-.25,4.67-.75,2.27-.63,3.73-1.46,4.38-2.49,.65-1.03,1.35-1.54,2.1-1.54,.67,0,1.27,.25,1.8,.76,.53,.51,.79,1.1,.79,1.77,0,2.13-1.72,3.97-5.16,5.5-2.94,1.31-5.8,1.96-8.58,1.96Zm-.78-26.25c-2.34,0-4.29,.91-5.85,2.72-1.56,1.82-2.72,4.55-3.49,8.2l8.84-4.21c3.48-1.69,5.95-3.16,7.43-4.41-1.65-1.54-3.97-2.3-6.94-2.3Z"/>
    <path d="M614.73,379.73c-.13,2.4-1.1,3.6-2.88,3.6-1.65,0-2.48-.95-2.48-2.85,0-.36-.03-1.04-.09-2.02l-.09-2.42c-3.04,.36-5.46,1.22-7.29,2.56-1.71,1.25-3.13,3.13-4.26,5.65l.06,15.79c0,1.94-.95,2.91-2.85,2.91-1.69,0-2.54-.97-2.54-2.91v-20.22c0-.63,.02-1.58,.07-2.85s.07-2.22,.07-2.85c0-1.94,.84-2.91,2.54-2.91,1.88,0,2.83,1.59,2.85,4.78,3.69-3.55,7.78-5.33,12.27-5.33,1.55,0,2.72,.59,3.49,1.76,.77,1.17,1.15,2.94,1.15,5.3,0,1,0,1.67-.03,2.02Z"/>
    <path d="M643.07,379.73c-.13,2.4-1.1,3.6-2.88,3.6-1.65,0-2.48-.95-2.48-2.85,0-.36-.03-1.04-.09-2.02l-.09-2.42c-3.04,.36-5.46,1.22-7.29,2.56-1.71,1.25-3.13,3.13-4.26,5.65l.06,15.79c0,1.94-.95,2.91-2.85,2.91-1.69,0-2.54-.97-2.54-2.91v-20.22c0-.63,.02-1.58,.07-2.85s.07-2.22,.07-2.85c0-1.94,.84-2.91,2.54-2.91,1.88,0,2.83,1.59,2.85,4.78,3.69-3.55,7.78-5.33,12.27-5.33,1.55,0,2.72,.59,3.49,1.76,.77,1.17,1.15,2.94,1.15,5.3,0,1,0,1.67-.03,2.02Z"/>
    <path d="M674.13,375.32l-9.97,21.55c-2.46,5.24-4.34,9.63-5.65,13.17l-1.9,5.59c-.5,1.38-1.36,2.07-2.59,2.07-.81,0-1.5-.26-2.09-.79-.59-.53-.88-1.19-.88-1.97,0-1.92,2.07-7.48,6.22-16.68l-10.31-19.85-1.3-2.1c-.52-.88-.78-1.62-.78-2.22,0-.79,.3-1.48,.91-2.07,.61-.6,1.28-.89,2.03-.89,.88,0,1.57,.34,2.05,1.01,3.26,4.53,6.77,10.99,10.51,19.36l4.26-9.94c1.54-3.44,3.01-6.4,4.44-8.87,.61-1.08,1.42-1.61,2.42-1.61,.79,0,1.48,.28,2.09,.84,.6,.56,.91,1.22,.91,1.99,0,.42-.12,.9-.38,1.44Z"/>
    <path d="M705.24,384.11c-.54,0-1.71-.12-3.52-.38-.15,2.9-.23,7.98-.23,15.24,0,.77-.25,1.42-.75,1.94-.5,.53-1.12,.79-1.87,.79s-1.4-.26-1.9-.79c-.5-.53-.75-1.18-.75-1.94v-8.47c0-2.82,.17-6.8,.52-11.93,.38-5.55,.59-9.53,.63-11.93v-3.97c0-1.9,.12-3.29,.35-4.15,.44-1.69,1.38-2.42,2.82-2.19,.61-.19,1.49-.34,2.62-.43,1.13-.1,2.52-.14,4.18-.14,3.51,0,6.81,1.2,9.88,3.6,3.38,2.65,5.07,5.84,5.07,9.56,0,4.76-1.81,8.56-5.42,11.38-3.23,2.54-7.11,3.8-11.64,3.8Zm1.44-22.88c-.84,0-1.6,.02-2.26,.06-.66,.04-1.22,.1-1.69,.17l-.06,5.3-.61,11.47,3.17,.37c3.23,0,5.94-.82,8.15-2.45,2.42-1.79,3.63-4.2,3.63-7.23,0-2.15-1.15-4-3.46-5.56-2.13-1.42-4.43-2.13-6.89-2.13Z"/>
    <path d="M734.86,387.94c0,1.15,.03,2.88,.1,5.17,.07,2.3,.1,4.02,.1,5.17,0,.84-.26,1.54-.78,2.07-.52,.54-1.2,.81-2.04,.81s-1.5-.27-2.03-.81c-.53-.54-.79-1.23-.79-2.07,0-1.15-.03-2.88-.1-5.17-.07-2.29-.1-4.02-.1-5.17,0-1.8,.1-4.06,.29-6.76,.19-2.7,.29-4.95,.29-6.75,0-.87,.26-1.57,.79-2.1,.53-.54,1.21-.81,2.03-.81s1.5,.27,2.03,.81c.53,.54,.79,1.24,.79,2.1,0,1.8-.1,4.06-.29,6.75-.19,2.7-.29,4.95-.29,6.76Zm-1.3-23.39c-.92,0-1.72-.33-2.39-.98-.67-.65-1.01-1.44-1.01-2.36s.34-1.71,1.01-2.36c.67-.65,1.47-.98,2.39-.98s1.71,.33,2.38,.98c.66,.65,.99,1.44,.99,2.36s-.33,1.71-.99,2.36c-.66,.65-1.46,.98-2.38,.98Z"/>
    <path class="cls-5" d="M797.95,362.16c-2.57,3.11-4.55,5.68-5.93,7.69l-3.6,5.3c-1.4,2-2.72,3.68-3.95,5.04l6.34,9.28c2.52,3.67,4.75,6.67,6.71,8.99,.52,.63,.78,1.3,.78,1.99,0,.81-.29,1.51-.88,2.1-.59,.59-1.28,.89-2.09,.89-.73,0-1.41-.3-2.04-.89-1.42-1.34-2.9-3.17-4.44-5.47l-3.86-5.93-4.52-6.48-9.91,11.47-5.3,5.93c-.63,.63-1.33,.95-2.1,.95s-1.48-.3-2.07-.89c-.59-.6-.89-1.3-.89-2.1,0-.69,.25-1.34,.75-1.96l5.19-5.79,10.8-12.53c-2.11-2.82-4.36-5.66-6.74-8.5l-3.34-4.52c-1.34-1.81-2.59-3.19-3.74-4.15-.81-.67-1.21-1.45-1.21-2.33,0-.79,.28-1.49,.84-2.1,.56-.61,1.25-.92,2.07-.92,1.63,0,3.72,1.74,6.25,5.21,.79,1.17,1.99,2.83,3.6,4.98,2.19,2.61,4.27,5.23,6.25,7.86l6.57-9.16c4.26-5.93,7.03-8.9,8.3-8.9,.79,0,1.48,.3,2.07,.89s.89,1.3,.89,2.1c0,.67-.26,1.33-.78,1.96Z"/>
    <path d="M862.94,394.63c0,.92-.15,2.46-.46,4.61-.31,1.94-1.34,2.91-3.08,2.91-1.06,0-2.31-.69-3.77-2.07-7.82-7.39-16.79-18.06-26.91-32.01l-.14,6.54-.09,6.57c0,1.59,.03,3.99,.1,7.17,.07,3.19,.1,5.59,.1,7.2,0,5.17-1,7.75-3,7.75-1.06,0-1.89-.34-2.51-1.01-.56-.6-.84-1.31-.84-2.13s.06-2.03,.19-3.66c.12-1.63,.19-2.85,.19-3.66,0-1.19,.04-2.97,.12-5.34,.08-2.37,.12-4.15,.12-5.34,0-1.27-.03-3.18-.09-5.75-.06-2.56-.09-4.48-.09-5.75s-.12-3.01-.35-5.4c-.23-2.39-.35-4.19-.35-5.4,0-.88,.38-1.69,1.14-2.42,.76-.73,1.62-1.09,2.58-1.09,1.02,0,2.28,1.11,3.77,3.34,4.78,7.16,9.08,13.12,12.91,17.86,4.55,5.63,9.55,11,14.98,16.13,.06-.83,.06-2.05,0-3.66l-.09-3.63c0-8.43-.33-15.14-.98-20.14-.08-.5-.34-1.51-.78-3.03-.38-1.31-.58-2.32-.58-3.05,0-2.23,1.02-3.34,3.05-3.34,3.34,0,5.01,6.23,5.01,18.7,0,2.13-.03,5.32-.09,9.55-.06,4.23-.09,7.42-.09,9.55Z"/>
    <path d="M901.57,401.89c-1.77,0-3.3-2.27-4.61-6.8-.5-1.73-1.12-4.75-1.87-9.08-1.96,.27-4.52,.75-7.69,1.44l-7.66,1.58c-.96,2.52-2.6,6.19-4.93,11.03-.62,1.08-1.45,1.61-2.51,1.61-.77,0-1.46-.28-2.06-.83-.61-.56-.91-1.25-.91-2.07,0-.92,1.45-4.43,4.35-10.51-.33-.5-.49-1.08-.49-1.73,0-1.56,.94-2.55,2.82-3,2.19-4.11,4.96-8.83,8.3-14.17,4.55-7.28,7.38-10.92,8.5-10.92,1.52,0,2.55,1.06,3.11,3.17l1.82,9.68,4.29,20.02,1.64,4.55c.56,1.55,.84,2.59,.84,3.11,0,.83-.3,1.52-.89,2.07-.6,.56-1.28,.83-2.05,.83Zm-10.17-32.93l-8.24,13.28c2.32-.59,5.85-1.32,10.57-2.16l-2.33-11.12Z"/>
    <path d="M912.58,393.85c-.02-.81,.25-1.46,.82-1.97,.57-.51,1.26-.76,2.09-.76,.94,0,1.77,.54,2.48,1.61,.98,1.46,1.85,2.45,2.62,2.97,1.63,1.08,4,1.61,7.12,1.61s5.74-.64,8.3-1.93c3.27-1.65,4.9-3.95,4.9-6.88,0-2.42-1.37-4.33-4.12-5.73-2.32-1.21-5.2-1.86-8.61-1.96-3.03-.12-5.62-.78-7.75-1.99-2.73-1.56-4.09-3.78-4.09-6.68,0-3.42,1.94-6.54,5.82-9.36,3.71-2.67,7.54-4,11.5-4,1.86,0,3.96,.32,6.31,.95,3.11,.83,4.67,1.88,4.67,3.17,0,1.69-.86,2.54-2.59,2.54-.77,0-2.11-.21-4.03-.62-1.92-.41-3.41-.61-4.46-.59-3,.04-5.54,.78-7.63,2.22-2.15,1.48-3.23,3.28-3.23,5.39,0,1.59,1.42,2.72,4.26,3.37,1.06,.25,3.1,.48,6.14,.69,4.4,.33,7.84,1.71,10.31,4.15,2.27,2.23,3.4,4.95,3.4,8.15,0,4.57-2.11,8.22-6.34,10.95-3.67,2.36-7.92,3.54-12.76,3.54-3.51,0-6.73-.67-9.65-2.02-3.57-1.65-5.39-3.92-5.44-6.8Z"/>
  </g>
</svg>