<?xml version="1.0" encoding="UTF-8"?><svg id="uuid-34be9ae1-ae12-43cc-8a49-ea9cb4fdd455" xmlns="http://www.w3.org/2000/svg" viewBox="0 0 1366 768"><defs><style>.uuid-17db870d-17fb-44be-8372-1e89652a43a5{fill:#ff7bac;}.uuid-41399cfa-f93d-4514-ba4c-7c1eb3b15f5e{fill:#ff1d25;}</style></defs><rect class="uuid-17db870d-17fb-44be-8372-1e89652a43a5" width="1366" height="767"/><g><path class="uuid-41399cfa-f93d-4514-ba4c-7c1eb3b15f5e" d="M714.79,184.82c0,.24-.1,.44-.29,.61-.19,.17-.86,.32-2.02,.47-1.15,.14-2.28,.22-3.38,.22s-2.62-.18-4.54-.54c-1.92-.36-3.77-.56-5.54-.61-1.34,0-2.16-.79-2.45-2.38s-.83-2.79-1.62-3.64c-.79-.84-2.08-1.57-3.85-2.2-1.78-.62-2.83-.94-3.17-.94s-.7,.17-1.08,.5c-.38,.34-.82,.6-1.3,.79-2.11,1.01-3.35,1.78-3.71,2.3-.36,.53-.64,.84-.83,.94-.19,.1-.5,.14-.94,.14-3.79,0-6.53-.42-8.21-1.26-1.68-.84-2.52-1.43-2.52-1.76s.47-.46,1.4-.36c.94,.1,1.88,.14,2.84,.14,2.5,0,4.78-.47,6.84-1.4,2.06-.94,3.1-1.72,3.1-2.34,0-1.25-1.75-2.3-5.26-3.17-.62-.14-1.03-.43-1.22-.86-.19-.43-.29-1.28-.29-2.56s.08-2.06,.25-2.38c.17-.31,.43-.47,.79-.47s.78,.23,1.26,.68c.48,.46,.89,.78,1.22,.97,.33,.19,1.05,.5,2.16,.94,1.1,.43,2.12,.89,3.06,1.37,.94,.48,1.55,.72,1.84,.72s.71-.62,1.26-1.87,.83-2.21,.83-2.88-.11-1.12-.32-1.33c-.22-.22-.55-.32-1.01-.32s-.9,.14-1.33,.43c-1.3,.77-2.62,1.15-3.96,1.15-.72,0-1.34-.3-1.87-.9-.53-.6-.79-1.09-.79-1.48s.24-.71,.72-.97c.48-.26,.77-.55,.86-.86,.1-.31,.14-1.07,.14-2.27l.22-6.7c0-.62-.22-.94-.65-.94s-1.12,.34-2.05,1.01c-.94,.67-1.43,1.68-1.48,3.02-.05,1.78-.18,3.12-.4,4.03s-.91,2.46-2.09,4.64c-1.18,2.18-1.98,3.76-2.41,4.72-.43,.96-.65,1.73-.65,2.3l.07,1.22c0,.67-.29,1.2-.86,1.58-.86,.62-1.79,1.43-2.77,2.41s-1.86,1.66-2.63,2.02c-.77,.36-1.21,.65-1.33,.86-.12,.22-.22,.86-.29,1.94s-.11,1.96-.11,2.63v2.16c0,.86-.2,1.43-.61,1.69-.41,.26-1,.4-1.76,.4s-1.2-.13-1.3-.4c-.1-.26-.07-1.28,.07-3.06,.14-1.78,.22-3.66,.22-5.65s.06-3.56,.18-4.72c.12-1.15,.18-2.48,.18-4s-.06-2.9-.18-4.18c-.12-1.27-.22-2.02-.29-2.23-.07-.22-.18-.32-.32-.32-.24,0-.72,.49-1.44,1.48-.72,.98-1.08,2.12-1.08,3.42,0,.77-.26,1.3-.79,1.58-1.68,1.01-3.13,1.97-4.36,2.88-1.22,.91-2.54,1.37-3.96,1.37s-2.12-.22-2.12-.65c0-.24,.53-.97,1.58-2.2,1.05-1.22,2.51-2.69,4.36-4.39,1.85-1.7,2.99-2.93,3.42-3.67,.43-.74,1.26-1.79,2.48-3.13,1.22-1.34,2.29-2.75,3.2-4.21,.91-1.46,1.75-2.58,2.52-3.35,1.15-1.15,1.87-1.99,2.16-2.52,.29-.53,.58-.79,.86-.79,.62,0,1.38,.4,2.27,1.19,.89,.79,1.33,1.52,1.33,2.2,0,.34-.06,.59-.18,.76-.12,.17-.7,.71-1.73,1.62-1.03,.91-1.69,1.51-1.98,1.8s-.54,1.14-.76,2.56c-.22,1.42-.32,2.51-.32,3.28,0,2.98-.16,5.41-.47,7.31-.31,1.9-.47,3.11-.47,3.64s.05,.79,.14,.79,.3-.14,.61-.43c.31-.29,.94-1.14,1.87-2.56,.94-1.42,1.76-3.1,2.48-5.04,.72-1.94,1.43-4.32,2.12-7.13,.7-2.81,1.1-4.63,1.22-5.47,.12-.84,.18-2.05,.18-3.64,0-.77,.3-1.15,.9-1.15s1.14-.07,1.62-.22c1.34-.43,2.64-.7,3.89-.79,.48-.05,.91-.13,1.3-.25,.38-.12,.65-.3,.79-.54s.29-1.01,.43-2.3c.34-4.32,.53-6.79,.58-7.42s.07-2.62,.07-5.98c0-1.1,.26-1.66,.79-1.66,.19,0,.58,.08,1.15,.25,.58,.17,1.27,.35,2.09,.54,1.2,.29,1.8,.65,1.8,1.08s-.18,.89-.54,1.37c-.36,.48-.59,1.21-.68,2.2-.1,.98-.14,2.6-.14,4.86l-.07,3.82c0,.77,.26,1.15,.79,1.15s1.24-.06,2.12-.18c.89-.12,1.79-.18,2.7-.18s1.81,.19,2.7,.58c.89,.38,1.9,1.06,3.02,2.02,1.13,.96,1.86,1.61,2.2,1.94,.34,.34,.5,.66,.5,.97s-.25,.54-.76,.68c-.5,.14-1.28,.74-2.34,1.8s-2.56,1.99-4.5,2.81c-1.94,.82-4.02,1.32-6.23,1.51-.67,.05-1.01,.38-1.01,1.01l-.14,1.44c0,.38,.36,.55,1.08,.5,1.3-.14,2.63-.22,4-.22s2.5,.08,3.38,.25c.89,.17,1.33,.43,1.33,.79s-.19,.82-.58,1.37c-.38,.55-.75,1.61-1.08,3.17-.34,1.56-1.3,3.66-2.88,6.3-.34,.58-.5,.96-.5,1.15s.04,.34,.11,.43c.07,.1,.5,.42,1.3,.97s2.02,1.48,3.67,2.77,2.75,2.11,3.28,2.45c.53,.34,1.26,.66,2.2,.97,.94,.31,3.13,1.19,6.59,2.63,3.46,1.44,5.33,2.28,5.62,2.52,.29,.24,.43,.5,.43,.79Zm-48.02-47.81c.53,0,1.13,.32,1.8,.97,.67,.65,1.31,1.24,1.91,1.76,.6,.53,.9,1,.9,1.4s-.41,.85-1.22,1.33c-1.68,1.06-2.92,1.98-3.71,2.77s-2.32,2.11-4.57,3.96c-2.26,1.85-3.59,2.77-4,2.77s-.8-.1-1.19-.29c-.38-.19-.58-.41-.58-.65s.53-1.03,1.58-2.38l4.03-5.26c1.49-1.78,2.76-3.62,3.82-5.54,.34-.58,.74-.86,1.22-.86Zm20.95,17.5c.43,0,1.28-.53,2.56-1.58,1.27-1.05,2.1-2.05,2.48-2.99,.38-.94,.58-1.72,.58-2.34s-.34-.94-1.01-.94-1.56,.14-2.66,.43c-1.1,.29-1.78,.59-2.02,.9-.24,.31-.38,.86-.43,1.66-.05,.79-.07,1.8-.07,3.02s.19,1.84,.58,1.84Z"/><path class="uuid-41399cfa-f93d-4514-ba4c-7c1eb3b15f5e" d="M691.82,221.32c2.11,0,3.41,.1,3.89,.29,.48,.19,.72,.84,.72,1.94s-.19,1.67-.58,1.69c-.38,.02-1.32,.04-2.81,.04s-4.49,.31-9,.94c-5.76,.77-9.31,1.37-10.66,1.8-.77,.24-1.4,.66-1.91,1.26-.5,.6-.92,1.43-1.26,2.48-1.2,4.03-2.78,7.55-4.75,10.55-1.97,3-2.99,5.26-3.06,6.77-.07,1.51-.41,2.58-1.01,3.2-.6,.62-1.6,1.31-2.99,2.05-1.39,.74-2.66,1.25-3.82,1.51-1.15,.26-2.24,.4-3.28,.4s-1.55-.17-1.55-.5c0-.53,1.36-1.9,4.07-4.1,2.71-2.21,4.99-4.67,6.84-7.38,1.85-2.71,3.28-5.54,4.28-8.5,1.01-2.95,1.51-5.27,1.51-6.95,0-.72-.19-1.32-.58-1.8-.38-.48-.58-.86-.58-1.15s.36-.48,1.08-.58c1.78-.24,3.7-.72,5.76-1.44,2.06-.72,4.93-1.32,8.6-1.8,3.67-.48,7.36-.72,11.05-.72Zm3.31-16.63c.58,0,1.59,.43,3.06,1.3,1.46,.86,2.2,1.51,2.2,1.94s-.46,1.19-1.37,2.27c-.91,1.08-1.56,2-1.94,2.77-.38,.77-1.03,2.3-1.94,4.61-.53,1.3-1.02,1.94-1.48,1.94s-1.21-.3-2.27-.9c-1.06-.6-2.28-.9-3.67-.9-2.16,0-4.98,.31-8.46,.94-3.48,.62-5.65,1.18-6.52,1.66s-1.42,.72-1.66,.72-.59-.3-1.04-.9c-.46-.6-1.1-1.21-1.94-1.84-.84-.62-1.52-1.46-2.05-2.52-.53-1.06-.79-2.11-.79-3.17s.19-1.97,.58-2.74c.38-.77,.78-1.25,1.19-1.44,.41-.19,1.3-.29,2.66-.29s2.33,.16,2.88,.47c.55,.31,.83,.66,.83,1.04s-.72,1.25-2.16,2.59c-.43,.38-.65,.91-.65,1.58,0,1.25,.67,1.87,2.02,1.87,.38,0,.94-.07,1.66-.22l2.38-.58c.82-.19,1.31-.33,1.48-.43,.17-.1,.29-.31,.36-.65,.07-.33,.11-1.42,.11-3.24s.08-3.86,.25-6.12c.17-2.25,.42-3.58,.76-3.96,.34-.38,.77-.58,1.3-.58s1.33,.2,2.41,.61c1.08,.41,1.8,.76,2.16,1.04,.36,.29,.54,.65,.54,1.08s-.23,.96-.68,1.58c-.46,.62-.76,1.24-.9,1.84-.14,.6-.22,1.8-.22,3.6s.06,2.9,.18,3.31c.12,.41,.53,.58,1.22,.5,.7-.07,1.38-.11,2.05-.11l2.02,.07c.58,0,1.01-.17,1.3-.5,.29-.33,.72-1.21,1.3-2.63,.58-1.42,1.06-2.84,1.44-4.28,.24-.91,.72-1.37,1.44-1.37Zm5.33,32.76c.77,0,1.24,.2,1.4,.61,.17,.41,.5,1.08,1.01,2.02,.5,.94,.76,1.88,.76,2.84s-.28,1.44-.83,1.44-1.54-.16-2.95-.47c-1.42-.31-2.93-.47-4.54-.47s-3.24,.04-4.9,.11c-1.66,.07-2.63,.13-2.92,.18-.29,.05-.5,.22-.65,.5-.14,.29-.23,.83-.25,1.62-.02,.79-.16,2.09-.4,3.89-.24,1.8-.36,4.19-.36,7.16s.05,4.79,.14,5.44c.1,.65,.14,1.32,.14,2.02s-.22,1.25-.65,1.66c-.43,.41-1.08,.61-1.94,.61s-1.43-.13-1.69-.4c-.26-.26-.4-.85-.4-1.76l.07-5.98c0-3.26-.1-6.31-.29-9.14-.19-2.83-.38-4.38-.58-4.64-.19-.26-.5-.4-.94-.4s-1.5,.1-3.2,.29c-1.7,.19-3.05,.4-4.03,.61-.98,.22-1.68,.48-2.09,.79-.41,.31-.86,.47-1.37,.47s-.98-.44-1.44-1.33c-.46-.89-.68-1.55-.68-1.98s.34-.67,1.01-.72c.67-.05,1.93-.24,3.78-.58,1.85-.33,3.32-.65,4.43-.94s2.28-.55,3.53-.79c.48-.1,.72-.37,.72-.83s-.1-1.01-.29-1.66c-.19-.65-.4-1.04-.61-1.19-.22-.14-.62-.22-1.22-.22s-1.1,.06-1.51,.18c-.41,.12-.76,.18-1.04,.18-.82,0-1.4-.6-1.76-1.8-.36-1.2-.54-1.94-.54-2.23,0-.77,.41-1.22,1.22-1.37l7.7-1.44c4.37-.77,7.26-1.15,8.68-1.15s2.36,.04,2.84,.11c.48,.07,.79,.18,.94,.32,.14,.14,.31,.47,.5,.97,.19,.5,.29,.91,.29,1.22s-.12,.72-.36,1.22-.73,.82-1.48,.94c-.75,.12-1.38,.3-1.91,.54-.53,.24-1.25,.53-2.16,.86-.91,.34-1.55,.64-1.91,.9-.36,.26-.54,.95-.54,2.05,0,.53,.18,.79,.54,.79s1.16-.08,2.41-.25,2.64-.28,4.18-.32c1.54-.05,2.83-.14,3.89-.29,1.05-.14,1.8-.22,2.23-.22Z"/><path class="uuid-41399cfa-f93d-4514-ba4c-7c1eb3b15f5e" d="M705.93,321.69c0,1.68-.5,2.52-1.51,2.52-.34,0-.7-.07-1.08-.22-2.11-.77-4.15-1.15-6.12-1.15l-1.73,.14c-1.2,0-2.24-.07-3.13-.22-.89-.14-1.62-.22-2.2-.22-1.82,0-3.4,.12-4.72,.36-1.32,.24-2.17,.62-2.56,1.15-.38,.53-.84,1.06-1.37,1.58-1.01,1.15-1.79,2.44-2.34,3.85-.55,1.42-.77,2.28-.65,2.59,.12,.31,.18,.54,.18,.68,0,.58-1.17,1.51-3.49,2.81-2.33,1.3-4.79,1.94-7.38,1.94-1.34,0-2.02-.13-2.02-.4s.32-.75,.97-1.44c.65-.7,3.11-2.46,7.38-5.29,1.15-.77,2.18-1.81,3.1-3.13,.91-1.32,1.37-2.21,1.37-2.66s-.29-.68-.86-.68c-.29,0-1.85,.28-4.68,.83-2.83,.55-4.61,1.09-5.33,1.62-.38,.29-.73,.43-1.04,.43s-.61-.3-.9-.9c-.29-.6-.58-.9-.86-.9s-.52,.08-.68,.25-1.26,2.05-3.28,5.65c-.53,.86-.89,1.38-1.08,1.55-.19,.17-.5,.25-.94,.25s-.89-.32-1.37-.97c-.48-.65-1.2-2.05-2.16-4.21-.96-2.16-1.44-4.83-1.44-8.03s.31-6.58,.94-10.15c.62-3.58,1.2-6.26,1.73-8.06,.53-1.8,1.13-2.7,1.8-2.7,.38,0,1.21,.38,2.48,1.15,1.27,.77,1.91,1.45,1.91,2.05s-.48,1.45-1.44,2.56c-1.49,1.68-2.71,4.42-3.67,8.21-.96,3.79-1.44,7.27-1.44,10.44,0,1.92,.5,2.88,1.51,2.88,.48,0,1.02-.26,1.62-.79,.6-.53,1.5-1.82,2.7-3.89,1.2-2.06,2.16-3.85,2.88-5.36,.72-1.51,1.68-4.24,2.88-8.17,.34-1.1,.66-1.66,.97-1.66s.47,.29,.47,.86-.21,2.1-.61,4.57c-.41,2.47-.88,4.69-1.4,6.66-.53,1.97-.79,3.14-.79,3.53s.2,.58,.61,.58,1.44-.11,3.1-.32c1.66-.22,3.13-.54,4.43-.97,1.3-.43,2.54-.78,3.74-1.04,1.2-.26,1.91-.48,2.12-.65,.22-.17,.42-.56,.61-1.19,.19-.62,.29-1.09,.29-1.4s-.1-.47-.29-.47-.7,.19-1.51,.58c-.82,.38-1.39,.68-1.73,.9-.34,.22-.6,.32-.79,.32-.58,0-1.13-.52-1.66-1.55-.53-1.03-.79-1.59-.79-1.69,0-.38,.41-.72,1.22-1.01,.82-.29,2.05-1.16,3.71-2.63,1.66-1.46,2.48-2.34,2.48-2.63s-.24-.43-.72-.43c-.19,0-1.85,.53-4.97,1.58-.43,.14-.77,.22-1.01,.22-.58,0-1.03-.58-1.37-1.73-.34-1.15-.5-1.8-.5-1.94,0-.58,.26-.91,.79-1.01,2.06-.33,3.62-.73,4.68-1.19,1.05-.46,2.57-1.64,4.54-3.56,1.97-1.92,3.46-3.5,4.46-4.75,.58-.72,1.1-1.08,1.58-1.08s1.03-.62,1.66-1.87c.62-1.25,.94-2.06,.94-2.45,0-.48-.11-.88-.32-1.19-.22-.31-.47-.47-.76-.47-.62,0-1.32,.28-2.09,.83-.77,.55-1.38,1.2-1.84,1.94-.46,.75-.88,1.93-1.26,3.56-.1,.43-.34,.65-.72,.65s-.79-.4-1.22-1.19c-.43-.79-.65-1.39-.65-1.8s.13-.78,.4-1.12c.26-.34,.55-.55,.86-.65,.31-.1,.76-.38,1.33-.86,.58-.48,1.62-1.14,3.13-1.98,1.51-.84,2.79-1.26,3.85-1.26,.62,0,1.2,.2,1.73,.61,.53,.41,1.32,.88,2.38,1.4,.53,.24,.79,.59,.79,1.04s-.53,1.21-1.58,2.27-2.38,1.97-3.96,2.74c-.67,.34-1.22,.98-1.66,1.94-.53,1.25-1.75,2.62-3.67,4.1-.67,.53-1.01,.97-1.01,1.33s.44,.54,1.33,.54,1.72-.31,2.48-.94c2.5-2.06,3.89-3.1,4.18-3.1s.52,.19,.68,.58c.17,.38,.25,.77,.25,1.15s-.19,.7-.58,.94c-.38,.24-.97,.89-1.76,1.94-.79,1.06-2.53,2.83-5.22,5.33-.19,.19-.29,.38-.29,.58,0,.43,.3,.65,.9,.65s1.08-.13,1.44-.4c.36-.26,.91-.83,1.66-1.69s1.58-1.3,2.52-1.3,2.09,.42,3.46,1.26c1.37,.84,2.36,1.73,2.99,2.66,.62,.94,.94,1.72,.94,2.34,0,1.44-1.2,2.16-3.6,2.16-.62,0-1.33-.06-2.12-.18-.79-.12-1.19-.24-1.19-.36s.3-.35,.9-.68c.6-.33,1.08-.88,1.44-1.62,.36-.74,.54-1.4,.54-1.98s-.21-1.07-.61-1.48c-.41-.41-.97-.61-1.69-.61s-1.39,.42-2.02,1.26-1.02,1.75-1.19,2.74c-.17,.98-.35,1.6-.54,1.84-.19,.24-.61,.36-1.26,.36s-1.15,.1-1.51,.29c-.36,.19-.71,.67-1.04,1.44-.34,.77-.5,1.25-.5,1.44,0,.77,.36,1.1,1.08,1.01,1.82-.29,3.98-.43,6.48-.43s4.39,.07,5.69,.22,2.59,.22,3.89,.22c.72,0,1.28,.41,1.69,1.22,.41,.82,.61,1.54,.61,2.16Zm-40.97-40.03c.43,0,.88,.14,1.33,.43,.46,.29,.84,.78,1.15,1.48,.31,.7,.9,1.62,1.76,2.77,.86,1.15,1.3,2.42,1.3,3.82s-.67,2.09-2.02,2.09c-.91,0-1.91-.22-2.99-.65-1.08-.43-1.84-.85-2.27-1.26-.43-.41-.65-.89-.65-1.44s.16-1.31,.47-2.27c.31-.96,.49-2.03,.54-3.2,.05-1.18,.5-1.76,1.37-1.76Zm14.76,12.53c0,.14-.05,.31-.14,.5-.67,1.3-1.39,3.14-2.16,5.54-.14,.38-.42,.58-.83,.58s-1.08-.49-2.02-1.48c-.94-.98-1.4-1.62-1.4-1.91s.08-.58,.25-.86c.17-.29,.31-.48,.43-.58,.12-.09,.36-.14,.72-.14s.85-.2,1.48-.61c.62-.41,1.25-.74,1.87-1.01,.62-.26,1.08-.4,1.37-.4s.43,.12,.43,.36Zm13.32-14.9c.43,0,.91,.16,1.44,.47,.53,.31,.79,.66,.79,1.04,0,.67-.78,1.25-2.34,1.73-1.56,.48-3.25,1.07-5.08,1.76-1.82,.7-3.08,1.34-3.78,1.94-.7,.6-1.04,1.19-1.04,1.76s-.16,1.02-.47,1.33-1.26,.74-2.84,1.3-2.77,.83-3.56,.83-1.19-.23-1.19-.68,.42-1.18,1.26-2.16c.84-.98,2.42-2.27,4.75-3.85,2.33-1.58,4.76-2.89,7.31-3.92s4.13-1.55,4.75-1.55Zm7.7,55.94c0,2.26-.38,3.38-1.15,3.38-.48,0-1.07-.31-1.76-.94-.7-.62-1.38-1.13-2.05-1.51-.67-.38-1.99-1.51-3.96-3.38-1.97-1.87-3.05-2.95-3.24-3.24-.19-.29-.29-.55-.29-.79,0-.62,.5-.94,1.51-.94,.62,0,2.1,.21,4.43,.61,2.33,.41,3.8,.71,4.43,.9,.62,.19,1.02,.37,1.19,.54s.36,.79,.58,1.87c.22,1.08,.32,2.24,.32,3.49Z"/><path class="uuid-41399cfa-f93d-4514-ba4c-7c1eb3b15f5e" d="M671.8,379.22c0,.43-.3,.89-.9,1.37-.6,.48-1.13,1.74-1.58,3.78-.46,2.04-1.55,4.17-3.28,6.37-1.25,1.54-1.97,3.26-2.16,5.18-.1,.77-.3,1.33-.61,1.69-.31,.36-1.09,.86-2.34,1.51-1.25,.65-2.6,1.14-4.07,1.48-1.46,.34-2.71,.5-3.74,.5s-1.55-.25-1.55-.76,.36-.97,1.08-1.4c4.61-2.83,7.85-5.81,9.72-8.93,1.87-3.12,2.81-5.45,2.81-6.98,0-.91-.38-1.37-1.15-1.37-.34,0-1.22,.4-2.66,1.19-1.44,.79-3.14,1.93-5.11,3.42-.34,.24-.7,.36-1.08,.36s-.95-.46-1.69-1.37c-.75-.91-1.12-1.58-1.12-2.02s.33-.74,1.01-.94c2.69-.77,6.41-2.26,11.16-4.46,1.2-.58,2.24-.86,3.13-.86s1.8,.24,2.74,.72c.94,.48,1.4,.98,1.4,1.51Zm11.09-1.01c0,1.2,2.33,3.64,6.98,7.31,4.66,3.67,10.18,6.59,16.56,8.75,3.98,1.34,6.44,2.3,7.38,2.88s1.4,1.12,1.4,1.62-.17,.88-.5,1.12c-.34,.24-1.43,.42-3.28,.54-1.85,.12-4.25,.18-7.2,.18s-4.87-.07-5.76-.22c-.89-.14-1.57-.91-2.05-2.3-.72-2.11-1.52-3.65-2.41-4.61-.89-.96-2.1-2-3.64-3.13-1.54-1.13-3.19-2.23-4.97-3.31-1.78-1.08-2.89-1.62-3.35-1.62s-.75,.18-.86,.54c-.12,.36-.18,2.2-.18,5.51l.22,14.62c0,1.63-.08,2.65-.25,3.06-.17,.41-.54,.61-1.12,.61-.38,0-1.25-.28-2.59-.83-1.34-.55-2.5-.95-3.46-1.19-2.02-.62-3.96-1.5-5.83-2.63s-2.81-1.94-2.81-2.45,.31-.68,.94-.54c2.54,.58,4.57,.86,6.08,.86s2.45-.11,2.81-.32c.36-.22,.54-.8,.54-1.76l-.14-22.1,.07-12.24-.14-7.2c0-1.44,.37-2.16,1.12-2.16s2.03,.48,3.85,1.44c1.82,.96,2.74,1.8,2.74,2.52,0,.38-.19,.8-.58,1.26-.38,.46-.66,1.22-.83,2.3-.17,1.08-.25,2.8-.25,5.15s.04,3.61,.11,3.78c.07,.17,.25,.25,.54,.25s1.28-.67,2.99-2.02c1.7-1.34,4.62-4.2,8.75-8.57,.43-.48,.86-.72,1.3-.72s1.14,.42,2.12,1.26c.98,.84,1.48,1.54,1.48,2.09s-.31,.94-.94,1.15c-.62,.22-2.04,1.14-4.25,2.77-4.22,3.26-7.49,5.57-9.79,6.91-.53,.34-.79,.82-.79,1.44Z"/><path class="uuid-41399cfa-f93d-4514-ba4c-7c1eb3b15f5e" d="M692.68,447.76c.33,0,.68,.26,1.04,.79s.97,1.16,1.84,1.91c.86,.75,1.3,1.65,1.3,2.7,0,.62-.16,1.11-.47,1.44-.31,.34-.75,.43-1.3,.29-.55-.14-1.91-.22-4.07-.22s-4.62,.26-7.38,.79c-2.76,.53-4.54,.97-5.33,1.33-.79,.36-1.38,.88-1.76,1.55-2.06,3.89-5.18,7.75-9.36,11.59-1.15,1.06-1.98,1.93-2.48,2.63-.5,.7-.79,1.24-.86,1.62-.07,.38-.11,1.04-.11,1.98s-1.28,1.85-3.85,2.74c-2.57,.89-4.8,1.33-6.7,1.33s-2.84-.16-2.84-.47,.2-.67,.61-1.08,1.8-1.22,4.18-2.45,4.75-2.99,7.13-5.29,4.45-4.79,6.23-7.45c1.78-2.66,2.66-4.32,2.66-4.97s-.26-.97-.79-.97c-1.1,0-2.75,.24-4.93,.72-2.18,.48-4.28,1.1-6.3,1.87-.24,.1-.5,.14-.79,.14s-.61-.47-.97-1.4c-.36-.94-.54-1.64-.54-2.12s.34-.74,1.01-.79c1.34-.1,3.91-.59,7.7-1.48,3.79-.89,6.06-1.54,6.8-1.94,.74-.41,1.26-1.3,1.55-2.66,.29-1.37,.43-2.47,.43-3.31s-.11-1.48-.32-1.91c-.22-.43-.47-.71-.76-.83s-.94-.18-1.94-.18-2.47,.36-4.39,1.08c-.19,.1-.41,.14-.65,.14s-.4-.37-.47-1.12c-.07-.74-.28-1.54-.61-2.38-.34-.84-.5-1.5-.5-1.98,0-1.1,.48-1.73,1.44-1.87,3.55-.43,6.58-.94,9.07-1.51,2.5-.58,5.12-1.28,7.88-2.12,2.76-.84,4.21-1.26,4.36-1.26,1.01,0,1.94,.66,2.81,1.98,.86,1.32,1.3,2.6,1.3,3.85,0,.43-.07,.68-.22,.76s-.62,.11-1.44,.11c-1.06,0-2.28,.17-3.67,.5-1.39,.34-2.26,.64-2.59,.9-.34,.26-.83,.91-1.48,1.94-.65,1.03-1.19,2.18-1.62,3.46-.43,1.27-.65,2.32-.65,3.13s.36,1.15,1.08,1.01c1.73-.38,3.67-.76,5.83-1.12,2.16-.36,3.64-.68,4.43-.97s1.28-.43,1.48-.43Zm12.38,18.86c.19,0,.52,.52,.97,1.55s.92,2.65,1.4,4.86c.48,2.21,.76,3.99,.83,5.33,.07,1.34,.25,2.52,.54,3.53s.43,1.68,.43,2.02-.34,.55-1.01,.65l-5.33,.65c-2.93,.34-6.74,.5-11.45,.5h-5.33c-3.5-2.54-5.58-4.56-6.23-6.05-.65-1.49-.97-3.19-.97-5.11,0-.77,.14-2.4,.43-4.9,.29-2.5,.43-4.34,.43-5.54s-.1-2.08-.29-2.63c-.19-.55-.29-.9-.29-1.04,0-.48,.64-.72,1.91-.72s2.13,.05,2.59,.14c.46,.1,.68,.3,.68,.61s-.14,.86-.43,1.66-.7,2.52-1.22,5.18-.79,4.79-.79,6.37,.32,2.89,.97,3.92c.65,1.03,1.91,1.84,3.78,2.41,1.87,.58,3.67,.86,5.4,.86s3.56-.17,5.51-.5c1.94-.34,3.23-.72,3.85-1.15,.62-.43,1.12-1.06,1.48-1.87,.36-.82,.67-1.92,.94-3.31,.26-1.39,.49-2.98,.68-4.75,.19-1.77,.36-2.66,.5-2.66Z"/><path class="uuid-41399cfa-f93d-4514-ba4c-7c1eb3b15f5e" d="M671.73,541.72c-.53,.48-.98,.72-1.37,.72s-.78-.24-1.19-.72c-.41-.48-.72-.72-.94-.72s-.32,.14-.32,.43c-.1,1.97-.22,3.37-.36,4.21-.14,.84-.19,2.27-.14,4.28l.07,2.88c0,2.06-.1,3.68-.29,4.86-.19,1.18-.48,1.76-.86,1.76-.29,0-1.02-.42-2.2-1.26-1.18-.84-1.76-1.42-1.76-1.73s.18-.58,.54-.79c.36-.22,.6-.78,.72-1.69,.12-.91,.25-3.77,.4-8.57,.14-4.8,.22-7.66,.22-8.57s-.13-1.37-.4-1.37-.47,.14-.61,.43c-2.16,3.65-4.69,7.06-7.6,10.22-2.91,3.17-4.84,4.75-5.8,4.75-.48,0-.91-.31-1.3-.94-.38-.62-.58-1.16-.58-1.62s.22-.74,.65-.86c.43-.12,.92-.47,1.48-1.04,.55-.58,1.79-2.08,3.71-4.5,1.92-2.42,3.46-4.48,4.61-6.16,1.15-1.68,1.99-3.12,2.52-4.32,.53-1.2,.79-1.94,.79-2.23s-.23-.43-.68-.43-1.33,.26-2.63,.79c-1.3,.53-2.52,1.32-3.67,2.38-.29,.29-.55,.43-.79,.43s-.61-.28-1.12-.83c-.5-.55-.89-1.5-1.15-2.84-.26-1.34-.47-2.26-.61-2.74-.14-.48-.22-.89-.22-1.22s.17-.7,.5-1.08c.33-.38,.79-.6,1.37-.65,2.21-.14,3.91-.31,5.11-.5,1.2-.19,2.4-.51,3.6-.97,1.2-.46,1.97-.79,2.3-1.01,.34-.22,.6-.53,.79-.94,.19-.41,.29-.76,.29-1.04,.1-2.45,.26-4.19,.5-5.22s.35-1.9,.32-2.59c-.02-.7-.04-1.26-.04-1.69s.05-1.21,.14-2.34c.1-1.13,.53-1.69,1.3-1.69,.33,0,1.04,.25,2.12,.76s1.62,.98,1.62,1.44-.14,.97-.43,1.55c-1.15,2.69-1.73,5.71-1.73,9.07,0,.53,.17,.84,.5,.94,.33,.1,.77,.14,1.3,.14h.58c.53,0,.85,.18,.97,.54,.12,.36,.18,1.02,.18,1.98,0,.72-.28,1.44-.83,2.16-.55,.72-1.31,1.49-2.27,2.3-.24,.24-.36,.49-.36,.76s.12,.47,.36,.61c1.63,1.01,2.45,2.16,2.45,3.46,0,.67-.26,1.25-.79,1.73-.53,.48-1.07,.73-1.62,.76-.55,.02-.83,.23-.83,.61s-.11,.89-.32,1.51c-.22,.62-.32,1.12-.32,1.48s.09,.61,.29,.76c.19,.14,.35,.29,.47,.43,.12,.14,.25,.22,.4,.22s.62-.24,1.44-.72c.82-.48,2.17-1.48,4.07-2.99,1.9-1.51,2.95-2.45,3.17-2.81,.22-.36,.32-.82,.32-1.37s-.05-.9-.14-1.04c-.1-.14-.31-.22-.65-.22-1.78,0-2.93-.28-3.46-.83s-.79-1.62-.79-3.2c0-.48,.16-.88,.47-1.19,.31-.31,.62-.47,.94-.47s.56,.07,.76,.22c.91,.72,1.73,1.08,2.45,1.08,.33,0,.5-.19,.5-.58l.22-4.25-.14-1.8c0-.67,.31-1.01,.94-1.01,.29,0,1.28,.19,2.99,.58,1.7,.38,2.56,.82,2.56,1.3,0,.19-.16,.44-.47,.76s-.52,.7-.61,1.15c-.1,.46-.14,1.31-.14,2.56s-.12,2.35-.36,3.31c-.05,.24-.07,.52-.07,.83s.18,.49,.54,.54c.36,.05,.54,.28,.54,.68s-.3,1.09-.9,2.05c-.6,.96-.92,1.7-.97,2.23-.19,1.54-.53,2.86-1.01,3.96-.77,1.54-1.15,3.58-1.15,6.12,0,.91-.79,2.39-2.38,4.43s-3.04,3.29-4.36,3.74c-1.32,.46-2.32,.68-2.99,.68s-1.01-.22-1.01-.65c0-.19,.26-.65,.79-1.37l2.45-3.6c1.2-1.68,2.06-2.88,2.59-3.6,.53-.72,.96-1.49,1.3-2.3,.33-.82,.5-1.42,.5-1.8s-.08-.58-.25-.58-.37,.1-.61,.29l-4.1,3.38Zm33.84-4.39c.38,0,.91,1.1,1.58,3.31,.67,2.21,1.13,5.06,1.37,8.57,.14,1.68,.33,2.89,.58,3.64,.24,.74,.36,1.33,.36,1.76s-.16,.76-.47,.97c-.31,.22-1.44,.44-3.38,.68-1.94,.24-3.71,.36-5.29,.36l-4.9-.14-3.53,.14c-1.01,0-2.51-1.24-4.5-3.71-1.99-2.47-2.99-5.27-2.99-8.39,0-1.54,.28-3.41,.83-5.62,.55-2.21,.83-3.7,.83-4.46s-.04-1.36-.11-1.76c-.07-.41-.11-.77-.11-1.08s.07-.68,.22-1.12c.72-2.02,1.08-4.92,1.08-8.71,0-1.06-.04-1.91-.11-2.56-.07-.65-.11-1.3-.11-1.94s.1-1.45,.29-2.41c.19-.96,.29-1.9,.29-2.81l-.07-1.22c0-.43,.22-.65,.65-.65s1.34,.11,2.74,.32c1.39,.22,2.09,.57,2.09,1.04,0,.19-.12,.43-.36,.72-.72,.91-1.32,2.62-1.8,5.11-.48,2.5-.72,4.78-.72,6.84,0,.34,.11,.5,.32,.5s.41-.1,.58-.29c.17-.19,.6-.64,1.3-1.33s1.34-1.28,1.94-1.76c.6-.48,1.1-.72,1.51-.72s.95,.47,1.62,1.4c.67,.94,1.01,1.57,1.01,1.91s-.29,.54-.86,.61c-.58,.07-1.19,.31-1.84,.72-.65,.41-1.49,1.02-2.52,1.84-1.03,.82-1.62,1.32-1.76,1.51-.14,.19-.22,.44-.22,.76s.53,.8,1.58,1.48c1.05,.67,2.03,1.13,2.92,1.37,.89,.24,1.46,.53,1.73,.86,.26,.34,.3,.8,.11,1.4-.19,.6-.32,1.34-.4,2.23-.07,.89-.28,1.6-.61,2.12-.34,.53-.67,.79-1.01,.79s-.7-.19-1.08-.58c-2.69-2.83-4.34-4.25-4.97-4.25-.19,0-.34,.13-.43,.4-.1,.26-.22,1.08-.36,2.45-.14,1.37-.22,2.6-.22,3.71,0,3.46,.8,5.71,2.41,6.77,1.61,1.06,3.17,1.58,4.68,1.58s3.13-.23,4.86-.68c1.73-.46,2.89-1.32,3.49-2.59,.6-1.27,1-3.9,1.19-7.88,.05-.82,.24-1.22,.58-1.22Z"/><path class="uuid-41399cfa-f93d-4514-ba4c-7c1eb3b15f5e" d="M683.75,596.87c0,.29,.12,.48,.36,.58,3.84,2.06,6.26,3.5,7.27,4.32,2.21,1.87,5.69,3.84,10.44,5.9,6.67,2.88,10.01,4.94,10.01,6.19,0,.48-1.21,.72-3.64,.72s-4.45-.33-6.08-1.01c-2.4-1.01-4.31-1.56-5.72-1.66-1.42-.1-2.2-1.01-2.34-2.74-.24-2.93-2.23-4.97-5.98-6.12-1.34-.48-2.81-1.18-4.39-2.09-.24-.14-.48-.22-.72-.22s-.38,.26-.43,.79l-.65,6.55c0,.43,.25,.62,.76,.58,.5-.05,1.28-.07,2.34-.07s2.51,.19,4.36,.58c1.85,.38,2.77,.96,2.77,1.73,0,.29-.11,.64-.32,1.04-.22,.41-.42,1.78-.61,4.1-.19,2.33-.29,4.12-.29,5.36s.02,2.1,.07,2.56,.07,1.69,.07,3.71-.06,3.67-.18,4.97c-.12,1.3-.18,2.24-.18,2.84s.02,1.07,.07,1.4c.05,.33,.07,.66,.07,.97s-.23,.47-.68,.47-1.73-.59-3.82-1.76c-2.09-1.18-4.21-2.75-6.37-4.72-.34-.29-.65-.43-.94-.43s-1.37,.28-3.24,.83-2.98,.98-3.31,1.3c-.34,.31-.6,.47-.79,.47-.58,0-1.13-.97-1.66-2.92-.53-1.94-.79-5.5-.79-10.66s.44-8,1.33-8.53c.89-.53,2.84-1.2,5.87-2.02,.38-.1,.59-.25,.61-.47,.02-.22,.04-1.19,.04-2.92l.22-4.1c0-.33-.12-.5-.36-.5-.53,0-2.45,1.6-5.76,4.79-3.31,3.19-5.21,5.51-5.69,6.95-.48,1.44-1.54,2.36-3.17,2.77-1.63,.41-3.12,.61-4.46,.61s-2.44-.13-3.28-.4c-.84-.26-1.26-.5-1.26-.72s.65-.54,1.94-.97c1.3-.43,2.74-1.13,4.32-2.09s2.81-1.93,3.67-2.92c.86-.98,2.11-2.09,3.74-3.31,1.63-1.22,3.47-2.86,5.51-4.9,2.04-2.04,3.06-3.25,3.06-3.64,0-.14-.14-.22-.43-.22-.58,0-1.98,.22-4.21,.65-2.23,.43-4.04,.88-5.44,1.33-1.39,.46-2.3,.68-2.74,.68s-.72-.26-.86-.79c-.38-1.39-.72-2.32-1.01-2.77s-.43-.83-.43-1.12,.11-.48,.32-.58c.22-.1,.66-.14,1.33-.14s1.82-.22,3.46-.65c2.3-.62,4.55-1.02,6.73-1.19,2.18-.17,3.65-.36,4.39-.58,.74-.22,1.12-.61,1.12-1.19,0-1.54-.5-2.3-1.51-2.3l-4.18,.07c-1.87,0-3.58-.04-5.11-.11-1.54-.07-2.45-.16-2.74-.25-.29-.1-.43-.26-.43-.5,0-.62,1.33-1.5,4-2.63s4.58-1.81,5.76-2.05c1.18-.24,2.46-.69,3.85-1.37,.43-.19,1.79-.56,4.07-1.12,2.28-.55,4.02-.88,5.22-.97,1.2-.1,2.04-.23,2.52-.4,.48-.17,.82-.25,1.01-.25,.62,0,1.21,.49,1.76,1.48,.55,.98,.83,1.76,.83,2.34s-.43,.9-1.3,.97-1.79,.22-2.77,.43c-.98,.22-2.46,.42-4.43,.61-1.97,.19-3.37,.62-4.21,1.3-.84,.67-1.26,1.25-1.26,1.73,0,.34,.26,.55,.79,.65,1.49,.29,2.6,.61,3.35,.97,.74,.36,1.38,.52,1.91,.47,4.56-.67,7.63-1.01,9.22-1.01,.67,0,1.12,.1,1.33,.29,.22,.19,.48,.75,.79,1.66,.31,.91,.47,1.7,.47,2.38s-.16,1.13-.47,1.37c-.31,.24-.68,.36-1.12,.36s-.82-.06-1.15-.18c-.34-.12-1.14-.18-2.41-.18s-2.8,.12-4.57,.36c-1.78,.24-2.76,.44-2.95,.61-.19,.17-.29,.37-.29,.61Zm0,35.5c.53,0,.97-.19,1.33-.58,.36-.38,.58-.94,.65-1.66,.07-.72,.11-2.54,.11-5.47s-.07-5.15-.22-6.66c-.14-1.51-.4-2.57-.76-3.17-.36-.6-.97-1.12-1.84-1.55-.86-.43-1.73-.65-2.59-.65-1.63,0-3.04,.64-4.21,1.91-1.18,1.27-1.76,2.22-1.76,2.84s.22,.89,.65,.79c2.11-.58,3.7-.86,4.75-.86s1.58,.46,1.58,1.37c0,1.58-.43,2.52-1.3,2.81-1.44,.48-2.84,1.02-4.21,1.62-1.37,.6-2.18,1.01-2.45,1.22s-.47,.56-.61,1.04c-.14,.48-.22,.97-.22,1.48s.1,.76,.29,.76,.59-.07,1.19-.22c.6-.14,1.56-.32,2.88-.54,1.32-.22,2.2-.32,2.63-.32s.77,.07,1.01,.22c.24,.14,.38,.64,.43,1.48,.05,.84,.05,1.4,0,1.69-.05,.29-.07,.53-.07,.72,0,.48,.36,.89,1.08,1.22,.72,.33,1.27,.5,1.66,.5Z"/></g></svg>