<?xml version="1.0" encoding="UTF-8"?><svg id="uuid-efe36c5d-8b04-4f0b-890b-50c6cfdbf423" xmlns="http://www.w3.org/2000/svg" viewBox="0 0 1366 768"><defs><style>.uuid-b9ba576e-2f21-4984-a45f-2ec4220acc6c{fill:#fff;}.uuid-9f731245-726b-4582-9d30-c6fdb45e0413{fill:#1a1a1a;}</style></defs><rect x="0" y="1" width="1366" height="767"/><g id="uuid-638b5158-b0db-4e11-afb3-3765c1f5f385"><path class="uuid-9f731245-726b-4582-9d30-c6fdb45e0413" d="M1002.5,54.42l.3-40.37s37.49-9.37,62.97-13.06c2.98,4.75,.32,10.93-5.87,17.11L313.52,764.49l-14.52-6.57L1002.5,54.42Z"/><path class="uuid-9f731245-726b-4582-9d30-c6fdb45e0413" d="M755.26,496.8l.65-40.02s37.05-8.93,61.74-12.53c2.98,4.75,.76,10.49-5.43,16.68l-305.38,305.38-14.08-7.01,262.5-262.5Z"/></g><g><path class="uuid-b9ba576e-2f21-4984-a45f-2ec4220acc6c" d="M664.59,266.55c.53,0,.94,.17,1.24,.49,.3,.33,.92,1.21,1.88,2.62,.96,1.42,1.44,2.29,1.44,2.62,0,.53-.46,1.09-1.39,1.68-4.16,2.57-6.8,4.46-7.92,5.64-1.12,1.19-1.68,2.77-1.68,4.75,0,.86,.33,1.49,.99,1.88,2.71,1.65,4.06,2.87,4.06,3.66,0,.26-.07,.59-.2,.99-1.12,3.23-2.01,10.92-2.67,23.07-.07,1.71-.23,2.74-.5,3.07-.26,.33-.81,.64-1.63,.94-.83,.3-1.4,.45-1.73,.45-.92,0-1.35-.91-1.29-2.72,.07-1.82,.1-4.67,.1-8.56,0-9.57-.46-14.36-1.39-14.36-.26,0-.56,.17-.89,.5-3.1,2.77-5.97,4.8-8.61,6.09-2.64,1.29-4.32,1.93-5.05,1.93s-1.09-.2-1.09-.59c0-.99,2.14-3.91,6.43-8.76,4.29-4.85,7.06-8.15,8.32-9.9,1.25-1.75,2.66-4.07,4.21-6.98,1.55-2.9,2.99-5.05,4.31-6.44,1.32-1.39,2.34-2.08,3.07-2.08Zm4.75-11.48c0,.73-.33,1.25-.99,1.58-1.25,.59-2.39,1.45-3.42,2.57-1.02,1.12-2.03,1.98-3.02,2.57-.99,.59-3.14,2.31-6.44,5.15-1.12,.99-2.15,1.49-3.07,1.49s-1.39-.26-1.39-.79,.33-1.32,.99-2.38l3.96-6.44c1.98-3.23,3.5-5.48,4.55-6.73,1.06-1.25,1.77-2.26,2.13-3.02,.36-.76,1.1-1.14,2.23-1.14s2.14,.97,3.07,2.92c.92,1.95,1.39,3.35,1.39,4.21Zm42.97,46.33c.73,0,1.22,.17,1.49,.5,.26,.33,.49,.94,.69,1.83,.2,.89,.53,1.78,.99,2.67,.46,.89,.69,2.49,.69,4.8,0,.79-.23,1.19-.69,1.19s-1.47-.48-3.02-1.44c-1.55-.96-4.17-1.86-7.87-2.72-3.7-.86-6.55-1.29-8.56-1.29s-5.99,.38-11.93,1.14c-5.94,.76-9.77,1.35-11.48,1.78-1.72,.43-3.07,.96-4.06,1.58-.99,.63-1.68,.94-2.08,.94s-.88-.71-1.44-2.13c-.56-1.42-.84-2.41-.84-2.97s.86-.97,2.57-1.24c6.07-.92,10.25-1.68,12.52-2.28s3.86-1.12,4.75-1.58c.89-.46,1.44-1.24,1.63-2.33,.2-1.09,.3-2.09,.3-3.02s-.31-1.39-.94-1.39-1.87,.1-3.71,.3c-1.85,.2-3.09,.48-3.71,.84-.63,.36-1.07,.54-1.34,.54-.66,0-1.24-1.07-1.73-3.22-.5-2.14-.74-3.61-.74-4.41s.5-1.19,1.48-1.19c2.57-.06,4.9-.31,6.98-.74,2.08-.43,3.25-.79,3.51-1.09,.26-.3,.4-.81,.4-1.54,0-2.18-.13-3.53-.4-4.06-.26-.53-.99-.79-2.18-.79s-2.33,.13-3.42,.4c-1.09,.26-1.83,.4-2.23,.4-1.25,0-2.29-1.3-3.12-3.91-.83-2.61-1.24-4.14-1.24-4.6s.28-.78,.84-.94c.56-.16,2-.28,4.31-.35,2.31-.07,4.01-.16,5.1-.3,1.09-.13,3.6-.66,7.52-1.58,3.93-.92,7.71-1.39,11.33-1.39,2.05,0,3.07,.46,3.07,1.39l-.2,1.58v1.78c-1.32,1.45-4.39,3.2-9.21,5.25-.66,.26-1.09,.69-1.29,1.29-.2,.59-.3,1.52-.3,2.77s.08,2,.25,2.23c.16,.23,.51,.31,1.04,.25,1.78-.2,4.12-.3,7.03-.3,.86,0,1.42,.12,1.68,.35,.26,.23,.4,.89,.4,1.98s-.12,1.96-.35,2.62c-.23,.66-.69,1.17-1.39,1.53-.69,.36-1.77,.97-3.22,1.83-1.45,.86-2.97,1.48-4.55,1.88-.59,.2-1.01,.5-1.24,.89-.23,.4-.35,1.14-.35,2.23s.25,1.87,.74,2.33,1.85,.92,4.06,1.39c2.21,.46,4.31,.69,6.29,.69s3.55-.06,4.7-.2c1.15-.13,1.96-.2,2.43-.2Zm-22.08-55.74c.66,0,1.1,.45,1.34,1.34,.23,.89,.48,1.58,.74,2.08,.26,.5,1.07,1.3,2.43,2.42,1.35,1.12,2.49,2.39,3.42,3.81,.92,1.42,1.39,2.59,1.39,3.51,0,1.32-.81,1.98-2.42,1.98s-3.61-.23-5.99-.69c-2.38-.46-3.78-.81-4.21-1.04-.43-.23-.64-.86-.64-1.88s.16-2.59,.5-4.7c.33-2.11,.82-3.78,1.49-5,.66-1.22,1.32-1.83,1.98-1.83Z"/><path class="uuid-b9ba576e-2f21-4984-a45f-2ec4220acc6c" d="M660.63,396.73c0,.53-.1,1.16-.3,1.88-1.32,4.55-2.61,9.57-3.86,15.05-.46,2.18-1.06,3.27-1.78,3.27s-2.11-.59-4.16-1.78c-2.05-1.19-3.07-2.29-3.07-3.32s.76-2.39,2.28-4.11c3.04-3.37,5.26-6.25,6.68-8.66,1.42-2.41,2.56-3.61,3.42-3.61,.53,0,.79,.43,.79,1.29Zm42.57-40.39c1.25,0,2.41,1.04,3.47,3.12,1.05,2.08,1.58,3.65,1.58,4.7,0,1.32-.63,1.98-1.88,1.98-.59,0-1.35-.21-2.28-.64-.92-.43-2.21-.64-3.86-.64-1.78,0-4.32,.33-7.62,.99-3.3,.66-5.08,1.09-5.35,1.29-.26,.2-.46,.59-.59,1.19-.59,4.42-.89,6.77-.89,7.03,0,.53,.4,.73,1.19,.59,2.44-.4,5.54-.59,9.31-.59,1.65,0,3,.69,4.06,2.08s1.58,2.54,1.58,3.46-.23,1.67-.69,2.23c-.46,.56-1.12,.84-1.98,.84h-2.57c-5.81,0-10.26,.46-13.37,1.39-4.16,1.32-8,2.05-11.53,2.18-3.53,.13-6.06,.69-7.57,1.68-.66,.4-1.34,.59-2.03,.59s-1.29-.45-1.78-1.34c-.5-.89-.74-1.78-.74-2.67s1.19-1.48,3.56-1.78,5.16-1.1,8.37-2.43c3.2-1.32,4.9-2.11,5.1-2.38,.2-.26,.4-1.5,.59-3.71,.2-2.21,.3-3.65,.3-4.31s-.33-.99-.99-.99c-.13,0-.64,.12-1.53,.35s-2.2,.45-3.91,.64c-6.27,.73-9.75,1.39-10.45,1.98-.69,.59-1.25,.89-1.68,.89s-1.02-.25-1.78-.74c-.76-.5-1.09-1.07-.99-1.73,.1-.66,.15-1.2,.15-1.63s-.08-.81-.25-1.14c-.17-.33-.25-.59-.25-.79,0-1.05,1.7-1.71,5.1-1.98,3.4-.26,6.83-.81,10.3-1.63,3.46-.82,5.4-1.34,5.79-1.53,.4-.2,.61-.5,.64-.89,.03-.4,.05-2.95,.05-7.67s-.03-8.37-.1-10.94c-.07-2.57-.1-3.96-.1-4.16,0-2.44,.73-3.66,2.18-3.66,.53,0,1.29,.35,2.28,1.04,.99,.69,2.34,1.37,4.06,2.03,1.72,.66,2.57,1.45,2.57,2.38,0,.4-.13,.83-.4,1.29-1.06,2.11-1.58,4.26-1.58,6.43s.08,4.16,.25,5.94c.16,1.78,.25,3.05,.25,3.81s.16,1.14,.5,1.14,.66-.03,.99-.1c2.57-.59,4.98-1.01,7.23-1.24,2.24-.23,4.12-.71,5.64-1.44,.66-.33,1.22-.5,1.68-.5Zm-4.75,43.96c.33,0,.76,.31,1.29,.94,.53,.63,2.03,2.99,4.5,7.08,2.47,4.09,4.22,7.21,5.25,9.36,1.02,2.14,1.53,3.6,1.53,4.36s-.45,1.22-1.34,1.39c-.89,.16-2.86,.33-5.89,.5-3.04,.16-6.19,.25-9.46,.25s-7.51-.36-12.72-1.09c-1.98-.33-3.73-.88-5.25-1.63-1.52-.76-2.71-1.65-3.56-2.67-.86-1.02-2.11-4.21-3.76-9.55-1.19-3.76-1.78-6.42-1.78-7.97s.11-2.89,.35-4.01c.23-1.12,.68-1.68,1.34-1.68,.99,0,1.54,1.07,1.63,3.22,.1,2.15,1.1,5.18,3.02,9.11,1.91,3.93,4.14,6.25,6.68,6.98,2.54,.73,5.48,1.09,8.81,1.09s5.74-.05,7.23-.15c1.48-.1,2.51-.46,3.07-1.09,.56-.63,.84-1.6,.84-2.92,0-1.85-.38-3.89-1.14-6.14-.76-2.24-1.14-3.7-1.14-4.36s.16-.99,.5-.99Zm-3.66-7.52c0,.53-.51,1.4-1.53,2.62-1.02,1.22-2.62,3.22-4.8,5.99-1.32,1.72-2.57,2.57-3.76,2.57s-2.51-.87-3.96-2.62c-1.45-1.75-2.18-2.89-2.18-3.42s.63-.86,1.88-.99c1.25-.13,2.41-.36,3.46-.69,1.05-.33,2.54-1.06,4.46-2.18,2.38-1.39,4.04-2.08,5-2.08s1.44,.26,1.44,.79Zm28.71,6.44c0,.46-.18,.89-.54,1.29-.36,.4-1.53,.59-3.51,.59s-4.09-.38-6.34-1.14c-2.24-.76-3.5-1.57-3.76-2.43-.26-.86-.4-2.14-.4-3.86s.2-3.28,.59-4.7c.4-1.42,1.01-2.13,1.83-2.13s1.4,.51,1.73,1.53c.33,1.02,1.27,2.26,2.82,3.71,1.55,1.45,3.2,2.72,4.95,3.81,1.75,1.09,2.62,2.19,2.62,3.32Z"/><path class="uuid-b9ba576e-2f21-4984-a45f-2ec4220acc6c" d="M671.62,492.67c0,1.19-.23,2-.69,2.43-.46,.43-3.17,1.37-8.12,2.82-1.12,.33-1.88,1.09-2.28,2.28-1.06,3.43-2.08,6.19-3.07,8.27-.99,2.08-1.55,3.61-1.68,4.6-.13,.99-1.22,2.57-3.27,4.75-2.05,2.18-4.16,3.27-6.34,3.27-.66,0-.99-.31-.99-.94s.96-2.1,2.87-4.41c1.91-2.31,3.25-4.09,4.01-5.35,.76-1.25,1.39-2.79,1.88-4.6,.5-1.81,.74-3.17,.74-4.06s-.17-1.34-.5-1.34-.96,.12-1.88,.35c-.92,.23-1.92,.43-2.97,.59-1.06,.17-2.43,.56-4.11,1.19-1.68,.63-2.77,1.16-3.27,1.58-.5,.43-.92,.64-1.29,.64s-.66-.3-.89-.89c-.23-.59-.58-1.24-1.04-1.93-.46-.69-.69-1.27-.69-1.73s.69-.82,2.08-1.09c1.39-.26,3.28-.71,5.69-1.34,2.41-.63,4.04-1.15,4.9-1.58,.86-.43,1.7-.79,2.52-1.09,.82-.3,1.35-.61,1.58-.94,.23-.33,.35-.82,.35-1.49s-.13-1.05-.4-1.19c-.26-.13-.93-.2-1.98-.2s-2.01,.18-2.87,.54c-.86,.36-1.47,.54-1.83,.54s-.76-.36-1.19-1.09c-.43-.73-.84-1.32-1.24-1.78-.4-.46-.59-.86-.59-1.19,0-.79,.59-1.29,1.78-1.49,2.84-.4,5.53-1.27,8.07-2.62,2.54-1.35,4.24-2.95,5.1-4.8,.86-1.85,1.29-3.51,1.29-5s-.36-2.23-1.09-2.23c-.92,0-1.78,.79-2.57,2.38s-1.19,3.5-1.19,5.74c0,1.85-.76,2.77-2.28,2.77-.66,0-1.22-.31-1.68-.94-.46-.63-.73-1.3-.79-2.03-.07-.73-.1-1.72-.1-2.97s-.05-1.98-.15-2.18c-.1-.2-.49-.3-1.19-.3s-1.3,.26-1.83,.79c-.53,.53-1.02,.79-1.48,.79s-.88-.48-1.24-1.44c-.36-.96-.79-1.78-1.29-2.47-.5-.69-.74-1.2-.74-1.54,0-.73,.59-1.22,1.78-1.48,4.75-1.06,8.37-2.13,10.84-3.22,2.47-1.09,5.33-2.04,8.56-2.87,3.23-.82,5.15-1.24,5.74-1.24s.89,.5,.89,1.48c0,1.45-.15,2.44-.45,2.97s-1.17,1.11-2.62,1.73c-1.45,.63-2.18,1.17-2.18,1.63,0,.66,.63,1.42,1.88,2.28,.73,.46,1.09,.89,1.09,1.29s-.18,.84-.54,1.34c-.36,.49-.81,1.32-1.34,2.47-.53,1.16-.79,1.87-.79,2.13s.33,.46,.99,.59c1.72,.4,2.57,1.12,2.57,2.18,0,1.65-1.78,3.5-5.35,5.54-.66,.26-1.14,.79-1.43,1.58-.3,.79-.45,1.4-.45,1.83s.33,.54,.99,.35c2.57-1.05,4.39-1.58,5.45-1.58,1.52,0,2.28,.96,2.28,2.87Zm-4.06-36.33c0,.66-.33,1.12-.99,1.39-.66,.26-1.4,.4-2.23,.4s-2.44-.53-4.85-1.58c-2.41-1.05-3.61-2.57-3.61-4.55,0-1.06,.28-2.36,.84-3.91,.56-1.55,1.04-2.49,1.44-2.82,.4-.33,.86-.5,1.39-.5,1.05,0,1.7,.45,1.93,1.34,.23,.89,.58,1.7,1.04,2.43,.46,.73,1.68,2.34,3.66,4.85,.92,1.19,1.39,2.18,1.39,2.97Zm53.36,30.89c0,2.11-.63,3.17-1.88,3.17-.33,0-.63-.07-.89-.2-2.44-.79-5.38-1.19-8.81-1.19s-5.28,.2-5.54,.59c-.26,.4-.4,1.16-.4,2.28,0,1.65,.66,2.48,1.98,2.48,.46,0,1.09-.15,1.88-.45,.79-.3,1.7-.45,2.72-.45s1.9,.66,2.62,1.98c.73,1.32,1.09,2.28,1.09,2.87,0,1.19-.2,2.05-.59,2.57-.4,.53-1.35,.69-2.87,.5-1.52-.2-2.71-.3-3.56-.3s-1.65,.15-2.38,.45c-.73,.3-1.19,.79-1.39,1.49s-.45,2.33-.74,4.9-.45,4.88-.45,6.93v5.54c0,1.32-.05,2.54-.15,3.66-.1,1.12-.15,2.09-.15,2.92s.11,1.88,.35,3.17c.23,1.29,.35,2.23,.35,2.82,0,1.19-.41,1.78-1.24,1.78s-1.95-.26-3.37-.79c-1.42-.53-2.13-1.22-2.13-2.08,0-.33,.1-.73,.3-1.19,.99-2.05,1.48-4.92,1.48-8.61,0-1.19-.07-2.38-.2-3.56-.13-1.19-.2-3.79-.2-7.82l.1-6.24c0-1.05-.3-1.72-.89-1.98-.59-.26-1.7-.4-3.32-.4s-3.38,.5-5.3,1.49c-.46,.26-.89,.4-1.29,.4s-1.01-.61-1.83-1.83c-.83-1.22-1.24-2.09-1.24-2.62s.51-.91,1.53-1.14c1.02-.23,2.77-.73,5.25-1.48,2.47-.76,4.09-1.22,4.85-1.39,.76-.16,1.24-.35,1.44-.54,.2-.2,.3-.59,.3-1.19,0-1.98-.46-2.97-1.39-2.97-.2,0-1.35,.13-3.46,.4-2.11,.26-3.98,.46-5.59,.59-1.62,.13-2.87,.33-3.76,.59-.89,.26-1.52,.56-1.88,.89-.36,.33-.84,.92-1.44,1.78-.59,.86-1.24,1.78-1.93,2.77s-1.14,1.83-1.34,2.52c-.2,.69-.33,1.96-.4,3.81-.07,1.85-.58,3.25-1.53,4.21s-2.87,2.11-5.74,3.47c-2.87,1.35-4.93,2.03-6.19,2.03-.59,0-.89-.23-.89-.69,0-.79,2.51-3.7,7.52-8.71,3.3-3.3,5.71-7.54,7.23-12.72,1.52-5.18,2.28-8.66,2.28-10.44,0-.66-.43-1.05-1.29-1.19-1.39-.2-2.61-.61-3.66-1.24-1.06-.63-1.58-1.75-1.58-3.37s.21-3.05,.64-4.31c.43-1.25,.79-2.08,1.09-2.48,.3-.4,.73-.59,1.29-.59s1.04,.4,1.44,1.19c1.12,2.44,1.95,3.66,2.48,3.66,.13,0,.26-.13,.4-.4,.13-.26,.26-2.18,.4-5.74l.5-11.48c.06-1.72,.79-2.57,2.18-2.57,.4,0,.84,.13,1.34,.4,.5,.26,1.3,.56,2.43,.89,1.12,.33,1.68,.78,1.68,1.34s-.25,1.09-.74,1.58-.91,1.16-1.24,1.98c-.33,.83-.51,1.83-.54,3.02-.03,1.19-.05,2.34-.05,3.46,0,3.89-.3,7.16-.89,9.8-1.19,5.02-1.78,8.55-1.78,10.59,0,1.19,.36,1.78,1.09,1.78,1.25,0,2.97-.31,5.15-.94,2.18-.63,3.71-1.22,4.6-1.78,.89-.56,2.29-1.75,4.21-3.56,1.91-1.81,3.13-3.12,3.66-3.91,.53-.79,.79-1.47,.79-2.03s-.13-1-.4-1.34c-.26-.33-.59-.5-.99-.5s-.89,.23-1.48,.69l-3.17,2.48c-1.45,1.19-2.51,2.11-3.17,2.77-.66,.66-1.42,.99-2.28,.99-.99,0-1.49-.53-1.49-1.58,0-.53,.25-1.53,.74-3.02s1.04-2.74,1.63-3.76c.59-1.02,.89-1.62,.89-1.78s-.15-.28-.45-.35c-.3-.06-.76-.35-1.39-.84-.63-.49-1.19-1.39-1.68-2.67s-.74-2.21-.74-2.77,.64-.92,1.93-1.09c1.29-.16,3.17-.64,5.64-1.44,2.47-.79,4.95-1.4,7.42-1.83,2.47-.43,4.14-.64,5-.64s1.29,.33,1.29,.99c0,.2-.05,.46-.15,.79-.1,.33-.21,1.09-.35,2.28-.13,1.19-1.25,2.24-3.37,3.17-.59,.26-1.12,.73-1.58,1.39-.46,.66-.69,1.16-.69,1.49s.46,.56,1.39,.69c.92,.13,2.31,.51,4.16,1.14,1.85,.63,2.77,1.5,2.77,2.62,0,1.06-.94,2.71-2.82,4.95-1.88,2.25-3.07,3.61-3.56,4.11-.5,.5-.74,.89-.74,1.19s.4,.38,1.19,.25c4.03-.53,6.75-.79,8.17-.79s2.41-.08,2.97-.25c.56-.16,1.12-.25,1.68-.25s1.22,.53,1.98,1.58c.76,1.06,1.14,2.11,1.14,3.17Zm-26.14-46.43c.46,0,.94,.17,1.44,.5,.5,.33,.74,.63,.74,.89s.69,1.01,2.08,2.23c1.39,1.22,2.61,2.56,3.66,4.01,1.06,1.45,1.58,2.57,1.58,3.37,0,1.12-1.22,1.68-3.66,1.68-1.92,0-3.75-.56-5.5-1.68-1.75-1.12-2.62-3.23-2.62-6.34s.76-4.65,2.28-4.65Z"/></g></svg>