<?xml version="1.0" encoding="UTF-8"?><svg id="uuid-120330ae-333c-4eea-b48d-e8c146755271" xmlns="http://www.w3.org/2000/svg" viewBox="0 0 1366 768"><defs><style>.uuid-64be7b75-18b3-463e-a471-0a0ff3d2c51e{stroke-width:.84px;}.uuid-64be7b75-18b3-463e-a471-0a0ff3d2c51e,.uuid-15f6cedb-33dd-4975-b495-ac67a97b170d{fill:none;stroke:#000;stroke-miterlimit:10;}.uuid-15f6cedb-33dd-4975-b495-ac67a97b170d{stroke-width:3.35px;}.uuid-002e8673-9311-455b-8880-415da6592511{fill:#18365d;}.uuid-21ce1c97-c604-41b7-b602-7d003f65c436{fill:#e4e6d9;}.uuid-05dec71c-48c0-4ada-b2fa-e4228272fa38{fill:red;}</style></defs><rect class="uuid-002e8673-9311-455b-8880-415da6592511" width="1366" height="768"/><g><rect class="uuid-21ce1c97-c604-41b7-b602-7d003f65c436" x="409.18" y="283.43" width="611.71" height="186.07" transform="translate(1091.5 -338.57) rotate(90)"/><rect class="uuid-15f6cedb-33dd-4975-b495-ac67a97b170d" x="419.96" y="291.82" width="589.35" height="166.9" transform="translate(1089.9 -339.37) rotate(90)"/><rect class="uuid-64be7b75-18b3-463e-a471-0a0ff3d2c51e" x="431.01" y="301.36" width="567.79" height="150.21" transform="translate(1091.37 -338.44) rotate(90)"/></g><g><path d="M710.55,131.54c1.04,0,1.69,.11,1.94,.34,.25,.23,.37,.83,.37,1.8s-.14,1.66-.41,2.04c-.27,.39-.75,.69-1.43,.92-2.09,.68-3.39,1.22-3.91,1.63-.52,.41-1.22,1.1-2.11,2.07-.88,.98-1.53,2.06-1.94,3.26s-.61,1.96-.61,2.28,.25,.43,.75,.34c1.63-.32,2.99-.48,4.08-.48s2.29,.28,3.6,.85c1.31,.57,1.97,1.13,1.97,1.7s-.22,1.39-.65,2.48c-.43,1.09-.85,1.84-1.26,2.24s-.73,.87-.95,1.39c-.23,.52-.44,1.21-.65,2.07-.2,.86-.4,1.39-.58,1.6-.18,.2-.58,.33-1.19,.37-.61,.05-1.45,.32-2.52,.82-1.07,.5-1.85,1.03-2.35,1.6-.5,.57-.99,.85-1.46,.85s-1.12-.8-1.94-2.41c-.82-1.61-1.5-3.23-2.04-4.86-.14-.41-.31-.61-.51-.61s-.49,.14-.85,.41c-3.31,2.31-5.55,3.47-6.73,3.47s-1.77-.2-1.77-.61,.45-1,1.36-1.77c4.58-3.99,7.47-7.22,8.67-9.69,1.2-2.47,1.8-3.98,1.8-4.52s-.13-.82-.37-.82-.57,.03-.95,.1c-.39,.07-.78,.1-1.19,.1s-.66-.32-.75-.95c-.27-1.59-.51-2.75-.71-3.5-.2-.75-.31-1.3-.31-1.67,0-1,.43-1.5,1.29-1.5,.14,0,.54,.08,1.22,.24,.68,.16,1.5,.24,2.45,.24s2.81-.31,5.58-.92c2.76-.61,4.44-.92,5.03-.92Zm-7.55,23.6c.72,0,1.37-.29,1.94-.88,.57-.59,.85-1.59,.85-2.99,0-1.18-.38-1.77-1.16-1.77-.36,0-.88,.1-1.56,.31s-1.12,.53-1.33,.99-.31,1.18-.31,2.18,.17,1.61,.51,1.84c.34,.23,.69,.34,1.05,.34Zm22.1,2.45c0,.27,.07,.51,.2,.71s1.43,1.07,3.88,2.58c2.45,1.52,4.84,2.87,7.17,4.05,2.33,1.18,4.32,2.04,5.95,2.58,5.39,1.77,8.09,3.1,8.09,4.01,0,.41-.7,.87-2.11,1.39-1.41,.52-2.75,.78-4.05,.78s-3.17-.24-5.64-.71c-2.47-.48-3.88-.81-4.22-.99-.34-.18-.6-.61-.78-1.29-1.36-4.49-3.99-6.89-7.89-7.21-1.41-.09-2.24-.18-2.52-.27-.27-.09-.54-.14-.82-.14s-.53,.13-.78,.37-.9,.74-1.94,1.46c-1.04,.73-1.72,1.27-2.04,1.63-.32,.36-.56,.73-.71,1.09-.16,.36-.41,.66-.75,.88-.34,.23-1.21,.44-2.62,.65-1.41,.2-2.7,.31-3.88,.31s-2.24-.39-3.2-1.16-1.43-1.26-1.43-1.46,.25-.31,.75-.31l1.84,.07c3.04,0,5.82-.79,8.36-2.38,2.54-1.59,3.81-2.74,3.81-3.47,0-.36-.22-.76-.65-1.19-.43-.43-1.58-.99-3.43-1.67-1.32-.5-1.97-1.2-1.97-2.11,0-.27,.07-.63,.2-1.09,.14-.45,.2-1.09,.2-1.9s.34-1.22,1.02-1.22c.63,0,1.14,.41,1.53,1.22,.38,.82,1.25,1.52,2.58,2.11,1.34,.59,2.11,.88,2.31,.88s.4-.34,.58-1.02c.18-.68,.27-1.22,.27-1.63s-.06-.61-.17-.61-.28,.08-.51,.24c-.23,.16-.56,.24-.99,.24s-.86-.18-1.29-.54c-.43-.36-1.27-1.43-2.52-3.2-1.25-1.77-2.06-3.34-2.45-4.73-.39-1.38-.58-2.69-.58-3.91s.09-1.96,.27-2.21c.18-.25,.52-.41,1.02-.48,.5-.07,1.09-.31,1.77-.71,.68-.41,2.22-.88,4.62-1.43,.59-.14,.96-.33,1.12-.58,.16-.25,.24-.72,.24-1.43s-.06-1.17-.17-1.39c-.11-.23-.32-.34-.61-.34s-.83,.08-1.6,.24c-.77,.16-1.32,.29-1.63,.41-.32,.11-.57,.17-.75,.17-.5,0-.99-.67-1.46-2.01-.48-1.34-.71-2.28-.71-2.82s.09-.87,.27-.99c.18-.11,.5-.15,.95-.1s.91,.07,1.36,.07c1.18,0,2.92-.27,5.24-.82,5.08-1.31,8.45-1.97,10.13-1.97,.5,0,.84,.22,1.02,.65,.18,.43,.27,.96,.27,1.6s-.07,1.04-.2,1.22c-.14,.18-.64,.41-1.5,.68-.86,.27-1.52,.57-1.97,.88-.45,.32-1.08,.64-1.87,.95-.79,.32-1.26,.57-1.39,.75-.14,.18-.2,.52-.2,1.02l-.07,1.56c0,.64,.49,.87,1.46,.71,.97-.16,2.08-.24,3.33-.24s2.66,.32,4.25,.95c1.59,.64,2.38,1.38,2.38,2.24,0,.59-.42,2.37-1.26,5.34-.84,2.97-1.59,5.09-2.24,6.36-.66,1.27-1.21,2.45-1.67,3.54-.27,.63-.64,.95-1.09,.95s-1.19-.32-2.21-.95c-1.02-.63-1.67-1.02-1.94-1.16-.27-.14-.67-.2-1.19-.2s-.88,.11-1.09,.34c-.2,.23-.37,.67-.51,1.33-.14,.66-.37,1.56-.71,2.72-.34,1.16-.51,1.85-.51,2.07Zm-4.83-14.62c0-.77,.23-1.22,.68-1.36,1.09-.32,1.72-.6,1.9-.85,.18-.25,.27-.65,.27-1.19s-.11-.82-.34-.82-.82,.24-1.77,.71c-.95,.48-1.56,.95-1.84,1.43-.27,.48-.41,1.17-.41,2.07s.12,1.93,.37,3.06c.25,1.13,.55,1.7,.92,1.7s.95-.12,1.77-.37c.82-.25,1.22-.61,1.22-1.09s-.34-.71-1.02-.71c-.36,0-.75-.28-1.16-.85-.41-.57-.61-1.14-.61-1.73Zm12.99-1.7c0-1.99-.34-3.3-1.02-3.91-.68-.61-1.45-.92-2.31-.92s-1.39,.09-1.6,.27c-.2,.18-.31,.62-.31,1.33s.09,1.13,.27,1.29c.18,.16,.44,.23,.78,.2,.34-.02,.58-.03,.71-.03,.59,0,.88,.26,.88,.78s-.13,1.09-.37,1.7c-.25,.61-.66,1.09-1.22,1.43-.57,.34-.94,.62-1.12,.85-.18,.23-.27,.5-.27,.82s.08,.52,.24,.61c.16,.09,.52,.14,1.09,.14s.97,.41,1.22,1.22c.25,.82,.66,1.22,1.22,1.22s1.01-.82,1.33-2.45,.48-3.15,.48-4.56Z"/><path d="M715.72,200.7c0,.5-.5,1.42-1.5,2.75-1,1.34-2.43,2.55-4.28,3.64-.27,.23-.41,.43-.41,.61,0,.59,.66,1.16,1.97,1.7,.95,.41,1.43,.88,1.43,1.43s-.48,1.02-1.43,1.43c-.95,.41-1.81,.61-2.58,.61s-1.38-.11-1.84-.34c-.45-.23-.77-.59-.95-1.09l-.75-1.84c-.14-.23-.5-.46-1.09-.71-.59-.25-1.01-.37-1.26-.37s-.53,.11-.85,.34c-1.86,1.41-3.63,2.54-5.3,3.4-1.68,.86-2.71,1.29-3.09,1.29s-.58-.12-.58-.37,.25-.62,.75-1.12c1.09-1.18,2.67-3.29,4.76-6.32,2.08-3.04,3.49-5.21,4.22-6.53,2.18-3.94,3.78-5.92,4.83-5.92,.36,0,1.09,.31,2.18,.92s1.63,1.18,1.63,1.7-.43,1.1-1.29,1.73c-2.45,1.81-4.23,3.42-5.34,4.83-1.11,1.41-1.67,2.26-1.67,2.55s.16,.44,.48,.44c.73,0,1.93-.5,3.6-1.5,2.18-1.36,3.93-2.35,5.27-2.96,1.34-.61,2.19-.92,2.55-.92s.54,.2,.54,.61Zm27.27,25.84c.45,0,1.1,1.42,1.94,4.25,.84,2.83,1.28,5.38,1.33,7.65,.04,2.27,.12,3.58,.24,3.94,.11,.36,.17,.63,.17,.82s-.31,.4-.92,.65c-.61,.25-2.32,.58-5.13,.99-2.81,.41-6.03,.61-9.66,.61-5.53,0-9.4-.26-11.59-.78-2.2-.52-3.97-1.42-5.3-2.69-1.34-1.27-2.41-3.47-3.23-6.6-.14-.54-.41-.75-.82-.61-.73,.18-1.29,.29-1.7,.34-1,.18-2.32,.63-3.98,1.36-1.66,.73-3.25,1.59-4.79,2.58-.32,.18-.61,.27-.88,.27-.68,0-1.33-.57-1.94-1.7-.61-1.13-.92-1.96-.92-2.48s.43-.8,1.29-.85c2.27-.23,4.8-.94,7.62-2.14,2.81-1.2,4.46-1.87,4.96-2.01,.5-.14,.75-.84,.75-2.11,0-.5-.25-.75-.75-.75-1.27,0-2.67,.45-4.22,1.36-.41,.23-.86,.34-1.36,.34s-1.03-.42-1.6-1.26c-.57-.84-.85-1.45-.85-1.84s.38-.69,1.16-.92c1.22-.36,2.83-.99,4.83-1.87,1.99-.88,3.09-1.44,3.3-1.67,.2-.23,.31-.52,.31-.88,0-1.45-.22-2.18-.65-2.18s-.87,.32-1.33,.95c-.45,.64-1.58,1.22-3.37,1.77-1.79,.54-3.34,.82-4.66,.82s-1.97-.21-1.97-.65,.97-1.24,2.92-2.41c1.95-1.18,3.54-1.95,4.76-2.31,1.18-.36,2.33-.95,3.47-1.77,1.31-.95,3.42-1.97,6.32-3.06,.82-.32,1.79-.84,2.92-1.56,.45-.32,.89-.48,1.33-.48s.92,.28,1.46,.85c.54,.57,.82,1.02,.82,1.36s-.45,.71-1.36,1.12c-3.49,1.5-5.86,2.54-7.11,3.13-1.25,.59-1.87,.95-1.87,1.09s.48,.48,1.43,1.02,1.56,.82,1.84,.82,.52-.04,.75-.14c3.13-1.31,4.97-1.97,5.54-1.97s.99,.23,1.26,.68c.27,.45,.41,.86,.41,1.22s-.15,.7-.44,1.02c-.29,.32-1.45,1.15-3.47,2.48-2.02,1.34-3.68,2.35-5,3.03-.5,.23-.75,.84-.75,1.84,0,.32,.07,.56,.2,.71,.14,.16,.29,.19,.48,.1,2.9-1.09,4.69-1.72,5.37-1.9,.68-.18,1.74-.61,3.2-1.29,.77-.36,1.51-.54,2.21-.54s1.37,.54,2.01,1.63c.63,1.09,.95,1.84,.95,2.24s-.15,.68-.44,.82c-.3,.14-.85,.2-1.67,.2-1.81,0-4.04,.59-6.66,1.77-2.63,1.18-4.25,1.87-4.86,2.07s-.92,.5-.92,.88,.14,1.07,.41,2.04c.27,.98,.66,1.76,1.16,2.35,.5,.59,2.2,1.13,5.1,1.63,2.9,.5,5.45,.75,7.65,.75s4.49-.31,6.87-.92c2.38-.61,3.99-1.78,4.83-3.5s1.53-4.62,2.07-8.7c.09-.68,.27-1.02,.54-1.02Zm-8.77-27.61c.63,0,.95,.38,.95,1.16s-.7,1.71-2.11,2.82c-1.41,1.11-2.92,1.89-4.56,2.35-.68,.18-1.02,.64-1.02,1.36,0,.54,.34,.88,1.02,1.02,.77,.09,1.42,.5,1.94,1.22,.52,.73,.78,1.29,.78,1.7s-.26,.69-.78,.85c-.52,.16-1.39,.24-2.62,.24s-2.18-.38-2.86-1.16c-.68-.77-1.08-1.8-1.19-3.09-.11-1.29-.32-2.11-.61-2.45s-.65-.51-1.05-.51-.81,.51-1.19,1.53c-.39,1.02-1.24,1.79-2.55,2.31-1.32,.52-2.24,.78-2.79,.78s-.82-.17-.82-.51,.16-.76,.48-1.26l3.54-4.83c2.04-2.72,4.01-5.27,5.92-7.65s3.1-3.84,3.6-4.39c.5-.54,.93-.82,1.29-.82s.99,.27,1.87,.82c.88,.54,1.33,.97,1.33,1.29s-.16,.63-.48,.95c-1.9,1.86-3.71,3.7-5.41,5.51s-2.6,2.79-2.69,2.92c-.09,.14-.14,.27-.14,.41,0,.41,.32,.61,.95,.61,.23,0,.94-.26,2.14-.78,1.2-.52,2.61-1.05,4.22-1.6,1.61-.54,2.55-.82,2.82-.82Z"/><path d="M747.88,312.83c0,.41-.3,.74-.88,.99-.59,.25-1.83,.67-3.71,1.26-1.88,.59-3.75,.88-5.61,.88s-3.14,.06-3.84,.17c-.7,.11-1.3,.17-1.8,.17-1.5,0-2.64-.51-3.43-1.53-.79-1.02-1.51-1.7-2.14-2.04-.64-.34-2.04-.74-4.22-1.19-2.18-.45-4.06-.71-5.64-.78-1.59-.07-2.79-.18-3.6-.34-.82-.16-1.93-.51-3.33-1.05-2.13-.86-4.87-1.29-8.23-1.29-2.9,0-4.87,.39-5.92,1.16-.18,.14-.39,.2-.61,.2-.63,0-1.18-.48-1.63-1.43-.18-.41-.45-.87-.82-1.39-.36-.52-.54-.94-.54-1.26,0-.59,.45-.82,1.36-.68,.45,.09,.94,.14,1.46,.14s1.12-.1,1.8-.31c.68-.2,1.65-.4,2.92-.58,.72-.04,1.09-.38,1.09-1.02,0-.82-.32-1.74-.95-2.79-.64-1.04-1.16-2.16-1.56-3.37-.41-1.2-.66-2.1-.75-2.69-.09-.59-.14-1.45-.14-2.58s-.08-1.99-.24-2.58c-.16-.59-.44-1.13-.85-1.63s-.61-.86-.61-1.09c0-.68,.41-1.02,1.22-1.02,.27,0,1.04,.14,2.31,.41,1.27,.27,2.22,.57,2.86,.88,.63,.32,1.03,.58,1.19,.78,.16,.2,.24,.49,.24,.85s-.32,.77-.95,1.22c-1.22,.86-1.84,2-1.84,3.4s.32,2.89,.95,4.45c.63,1.56,1.43,3.05,2.38,4.45,.95,1.41,1.58,2.21,1.87,2.41,.29,.2,.76,.35,1.39,.44,3.17,.54,6.17,1.3,8.98,2.28,2.81,.98,5.63,1.71,8.47,2.21,2.83,.5,5.34,.79,7.51,.88,10.56,.36,15.84,1.36,15.84,2.99Zm-49.84-42.36c.32,0,.59,.2,.82,.61,.23,.41,.88,.98,1.97,1.7,1.09,.73,1.95,1.53,2.58,2.41s.95,1.62,.95,2.21c0,.86-.57,1.18-1.7,.95-.5-.09-1.42-.18-2.75-.27-1.34-.09-2.21-.24-2.62-.44-.41-.2-.69-.67-.85-1.39-.16-.72-.24-1.57-.24-2.55s.23-1.76,.68-2.35c.45-.59,.84-.88,1.16-.88Zm37.81,9.79c0,.41-.27,.88-.82,1.43s-.98,1.15-1.29,1.8c-.32,.66-.84,1.19-1.56,1.6-.73,.41-1.11,1.18-1.16,2.31-.05,.36-.11,.61-.2,.75-.09,.14-.27,.18-.54,.14h-.75c-1,0-2.11,.19-3.33,.58-1.22,.39-2,.62-2.31,.71-.32,.09-.53,.45-.65,1.09-.11,.64-.17,1.52-.17,2.65s.06,3,.17,5.61c.11,2.61,.23,4.23,.34,4.86,.11,.64,.17,1.2,.17,1.7,0,.95-.25,1.43-.75,1.43s-1.67-.35-3.5-1.05c-1.84-.7-3.03-1.36-3.57-1.97-.54-.61-.82-1.04-.82-1.29s.25-.37,.75-.37l1.43,.07c1.13,0,1.89-.28,2.28-.85,.38-.57,.58-1.7,.58-3.4s-.17-2.55-.51-2.55-1.15,.41-2.41,1.22c-1.27,.82-2.43,1.68-3.47,2.58-1.04,.91-1.92,1.59-2.62,2.04-.7,.45-1.3,.68-1.8,.68s-1.05-.12-1.67-.37c-.61-.25-.92-.5-.92-.75s.25-.48,.75-.68,.88-.42,1.16-.65l3.81-3.2c2.27-1.9,3.64-3.16,4.11-3.77,.48-.61,.78-1.05,.92-1.33,.14-.27,.2-.49,.2-.65s-.16-.24-.48-.24c-1,0-1.75,.22-2.24,.65-.5,.43-.88,.65-1.16,.65s-.7-.36-1.29-1.09c-.59-.72-1.28-2.2-2.07-4.42-.79-2.22-1.19-3.69-1.19-4.42s.68-1.2,2.04-1.43c2.58-.36,4.48-.72,5.68-1.09,1.2-.36,1.91-.68,2.14-.95,.23-.27,.34-.8,.34-1.6s-.04-1.3-.14-1.53c-.09-.23-.27-.34-.54-.34s-.81,.11-1.6,.34c-.79,.23-1.49,.5-2.07,.82-.59,.32-1.09,.48-1.5,.48s-.88-.59-1.43-1.77c-.54-1.18-.82-2.05-.82-2.62s.37-.88,1.12-.95c.75-.07,1.9-.24,3.47-.51,1.56-.27,2.54-.45,2.92-.54,.38-.09,.62-.53,.71-1.33,.09-.79,.14-1.85,.14-3.16l-.14-3.4c0-.59,.15-1,.44-1.22,.29-.23,.96-.34,2.01-.34,1.86,0,2.79,.36,2.79,1.09,0,.27-.14,.66-.41,1.16-.27,.5-.41,1.44-.41,2.82s.02,2.27,.07,2.65c.04,.39,.25,.56,.61,.51,2.54-.68,4.09-1.02,4.66-1.02s.96,.09,1.19,.27c.23,.18,.36,.38,.41,.61,.04,.23,.16,.64,.34,1.22,.18,.59,.27,1.07,.27,1.43s-.41,.67-1.22,.92c-.82,.25-1.98,.51-3.5,.78-1.52,.27-2.37,.51-2.55,.71-.18,.2-.27,.73-.27,1.56s.04,1.37,.14,1.6c.09,.23,.25,.34,.48,.34s.62-.04,1.19-.14c.57-.09,1.39-.14,2.48-.14s2.35,.27,3.77,.82,2.41,.96,2.96,1.26c.54,.3,.82,.69,.82,1.19Zm-16.25,4.35c0-.91-.03-1.53-.1-1.87-.07-.34-.23-.51-.48-.51s-1.01,.24-2.28,.71c-1.27,.48-2.04,.84-2.31,1.09-.27,.25-.41,.62-.41,1.12,0,1.45,.36,2.18,1.09,2.18,.36,0,.84-.1,1.43-.31,.59-.2,1.18-.38,1.77-.54,.59-.16,.95-.35,1.09-.58,.14-.23,.2-.66,.2-1.29Zm5.03,.07c1.31,0,2.22-.26,2.72-.78,.5-.52,.75-1.27,.75-2.24s-.57-1.46-1.7-1.46-1.86,.2-2.18,.61c-.32,.41-.48,1.08-.48,2.01s.07,1.47,.2,1.63c.14,.16,.36,.24,.68,.24Zm11.56,13.87c0,.23-.09,.54-.27,.95-.18,.41-.32,.94-.41,1.6-.09,.66-.44,.99-1.05,.99s-1.6-.63-2.96-1.9c-2.81-2.49-4.48-3.9-5-4.22s-1-.74-1.43-1.26c-.43-.52-.65-.91-.65-1.16s.12-.48,.37-.68c.25-.2,.53-.26,.85-.17,2.54,.54,4.66,.87,6.36,.99,1.7,.11,2.82,.71,3.37,1.8s.82,2.11,.82,3.06Z"/><path d="M724.15,366.07c.68,0,1.12,.14,1.33,.41,.2,.27,.31,.84,.31,1.7s-.12,1.39-.37,1.6c-.25,.2-1.26,.42-3.03,.65-1.77,.23-4.7,.84-8.81,1.84-4.1,1-7.24,1.59-9.42,1.77-2.86,.18-4.51,.41-4.96,.68-.45,.27-.75,.41-.88,.41-.32,0-.78-.52-1.39-1.56-.61-1.04-.92-1.73-.92-2.07s.34-.55,1.02-.65c4.4-.77,7.71-1.51,9.93-2.21,2.22-.7,5.05-1.3,8.5-1.8,3.44-.5,6.35-.75,8.7-.75Zm-17.34-25.02c0,.32-.19,.85-.58,1.6-.39,.75-.66,1.38-.82,1.9-.16,.52-.24,1.19-.24,2.01l.2,4.22c0,1-.26,1.5-.78,1.5s-1.54-.18-3.06-.54c-1.52-.36-2.56-.68-3.13-.95-.57-.27-.85-.59-.85-.95,0-.63,1.23-2.33,3.71-5.1,2.47-2.76,4.16-4.15,5.07-4.15,.32,0,.48,.16,.48,.48Zm22.03-5.51c3.08,0,5.93,1.52,8.53,4.56,2.61,3.04,3.91,4.87,3.91,5.51,0,.23-.14,.42-.41,.58-.27,.16-1.03,.34-2.28,.54-1.25,.2-2.85,.31-4.79,.31s-2.92-.18-2.92-.54c0-.23,.27-.54,.82-.95,1.81-1.31,2.72-2.48,2.72-3.5s-.39-1.87-1.16-2.55c-.77-.68-1.88-1.02-3.33-1.02s-2.95,.39-4.49,1.16c-2.45,1.27-4.31,2.04-5.58,2.31-1.04,.23-1.56,1.32-1.56,3.26,0,1,.07,1.63,.2,1.9,.14,.27,.5,.41,1.09,.41s1.54-.12,2.86-.37c1.31-.25,2.12-.45,2.41-.61,.29-.16,.6-.42,.92-.78,.32-.36,.57-.54,.75-.54,.27,0,.7,.56,1.29,1.67,.59,1.11,.88,2.07,.88,2.89s-.86,1.34-2.58,1.56c-.91,.14-1.66,.34-2.24,.61-1.32,.64-3.29,1.22-5.92,1.77-.45,.09-.77,.22-.95,.37-.18,.16-.39,.59-.61,1.29-.23,.7-.34,1.33-.34,1.87s.43,.82,1.29,.82c.32,0,1.1-.07,2.35-.2,1.25-.14,2.55-.36,3.91-.68s3.1-.48,5.24-.48c2.99,0,5.27,.35,6.83,1.05,1.56,.7,2.8,1.19,3.71,1.46,.36,.14,.54,.39,.54,.75s-.09,.79-.27,1.29c-.63,1.86-1.04,3.38-1.22,4.56-.54,4.67-2.24,9.95-5.1,15.84-.36,.77-.7,1.81-1.02,3.13-.18,.77-.45,1.16-.82,1.16s-.95-.28-1.77-.85c-.82-.57-2.27-1.19-4.35-1.87-3.72-1.22-6.2-2.43-7.45-3.6-1.25-1.18-1.87-1.99-1.87-2.45,0-.18,.12-.27,.37-.27s.55,.07,.92,.2c3.13,1,6.28,1.5,9.45,1.5,.77,0,1.29-.08,1.56-.24,.27-.16,.78-.88,1.53-2.18s1.36-2.82,1.84-4.59c.48-1.77,.71-3.5,.71-5.2s-.22-2.9-.65-3.6c-.43-.7-1.11-1.26-2.04-1.67-.93-.41-2.03-.61-3.3-.61s-3.31,.27-6.12,.82c-2.81,.54-5.53,1.25-8.16,2.11-.32,.09-.62,.14-.92,.14s-.75-.11-1.36-.34c-.61-.23-.92-.53-.92-.92s.16-.83,.48-1.33c.86-1.4,1.7-3.72,2.52-6.94s1.22-5.43,1.22-6.63-.27-2.29-.82-3.26c-.54-.97-1.18-1.46-1.9-1.46-.27,0-.58,.07-.92,.2s-.65,.2-.92,.2-.48-.5-.61-1.5l-.27-1.43c0-.36,.27-.57,.82-.61,3.17-.14,5.58-.36,7.21-.68,1.63-.32,4.78-1.22,9.45-2.72,1.22-.41,2.42-.61,3.6-.61Z"/><path d="M741.56,433.66c1,0,1.63,.34,1.9,1.02,.5,1.18,1,2.14,1.5,2.89s.75,1.45,.75,2.11-.43,.99-1.29,.99c-.5,0-1.11-.14-1.84-.41-2.27-.91-3.99-1.36-5.17-1.36l-.95,.07c-.45,0-1.3-.19-2.55-.58-1.25-.38-2.69-.58-4.32-.58s-2.58,.03-2.86,.1c-.27,.07-.58,.24-.92,.51-.34,.27-.62,.61-.85,1.02-1.18,2-2.52,3.9-4.01,5.71-.27,.32-.41,.65-.41,.99s.27,.62,.82,.85c1.72,.68,3.58,1.46,5.58,2.35,1.99,.88,3.21,1.47,3.64,1.77,.43,.29,.65,.74,.65,1.33s-.16,1.55-.48,2.89c-.32,1.34-.58,2.14-.78,2.41-.2,.27-.51,.41-.92,.41-.68,0-1.28-.27-1.8-.82-.52-.54-2.07-1.71-4.66-3.5-2.58-1.79-4.15-2.85-4.69-3.16-.54-.32-1-.48-1.36-.48s-1.15,.36-2.35,1.09c-1.2,.72-2.05,1.74-2.55,3.06-.18,.45-.44,.82-.78,1.09-.34,.27-1.2,.51-2.58,.71-1.38,.2-2.73,.31-4.05,.31s-2.66-.26-4.05-.78c-1.38-.52-2.07-.96-2.07-1.33s.48-.64,1.43-.82c4.67-.73,8.01-1.6,10.03-2.62,2.02-1.02,3.03-1.94,3.03-2.75,0-.32-.15-.62-.44-.92-.29-.29-1.08-.7-2.35-1.22-1.27-.52-2.4-.83-3.4-.92-1-.09-1.5-.37-1.5-.85s.41-1.11,1.22-1.9c.82-.79,1.22-1.39,1.22-1.8s-.24-.61-.71-.61-2.2,.22-5.17,.65c-2.97,.43-5.19,.82-6.66,1.16-1.47,.34-2.57,.66-3.3,.95-.73,.3-1.25,.44-1.56,.44s-.66-.53-1.02-1.6c-.36-1.06-.54-1.64-.54-1.73,0-.5,.41-.77,1.22-.82,.82-.04,2.74-.36,5.78-.95l7.48-1.43c4.53-.82,6.87-1.25,7-1.29,.45-.18,.86-.5,1.22-.95,.36-.45,.84-1.31,1.43-2.58,.09-.18,.14-.34,.14-.48,0-.5-.28-.75-.85-.75s-1.38,.19-2.45,.58c-1.07,.39-1.76,.58-2.07,.58s-.73-.29-1.22-.88c-.5-.59-1.04-1.03-1.63-1.33-.59-.29-1.25-1.56-1.97-3.81s-1.09-3.75-1.09-4.52,.25-1.33,.75-1.67,2.31-1.03,5.44-2.07c.86-.23,1.36-.66,1.5-1.29,.18-1,.75-1.5,1.7-1.5,.72,0,1.45,.2,2.18,.61,.36,.23,.74,.34,1.12,.34s1.12-.1,2.21-.31c1.09-.2,1.74-.55,1.97-1.05,.59-1.13,1.18-1.7,1.77-1.7s1.52,.39,2.79,1.16c.54,.36,1.64,.59,3.3,.68,1.65,.09,3.5,.61,5.54,1.56s3.06,1.79,3.06,2.52c0,.36-.25,.79-.75,1.29-.86,.77-2.88,3.58-6.05,8.43-.82,1.27-1.7,1.9-2.65,1.9-.41,0-.85-.12-1.33-.37-.48-.25-1.32-.37-2.52-.37s-1.97,.09-2.31,.27c-.34,.18-.75,.71-1.22,1.6-.48,.88-.71,1.58-.71,2.07s.45,.75,1.36,.75,1.71-.1,2.41-.31c.7-.2,1.21-.51,1.53-.92s.72-.61,1.22-.61,1.05,.19,1.67,.58c.61,.39,1.42,.67,2.41,.85,1,.18,2.7,.27,5.1,.27s4.43-.03,6.09-.1c1.65-.07,2.53-.1,2.62-.1Zm-33.12-5.71c.36,0,.76-.15,1.19-.44,.43-.29,.65-.94,.65-1.94,0-.45-.12-1.16-.37-2.11s-.41-1.68-.48-2.18c-.07-.5-.25-.75-.54-.75s-.9,.22-1.8,.65c-.91,.43-1.36,1.17-1.36,2.21,0,1.54,.26,2.69,.78,3.43,.52,.75,1.17,1.12,1.94,1.12Zm14.89-23.46c1.18,0,1.77,.68,1.77,2.04,0,.41-.1,.76-.31,1.05-.2,.3-.49,.56-.85,.78-1.27,.68-2.67,1.35-4.22,2.01-1.54,.66-2.74,1.08-3.6,1.26-.86,.18-1.66,.25-2.38,.2h-1.36c-1.32,0-2.14,.05-2.48,.14-.34,.09-.62,.14-.85,.14-.86,0-1.51-.45-1.94-1.36-.43-.91-.65-1.65-.65-2.24s.09-.99,.27-1.19c.18-.2,.59-.35,1.22-.44,3.76-.32,6.74-.79,8.94-1.43,2.2-.63,4.34-.95,6.43-.95Zm-7.48,40.19c.68,0,1.53-.85,2.55-2.55,1.02-1.7,1.53-2.73,1.53-3.09s-.27-.54-.82-.54-1.62,.08-3.23,.24c-1.61,.16-2.58,.37-2.92,.65-.34,.27-.75,.7-1.22,1.29-.48,.59-.71,1.12-.71,1.6s.34,.83,1.02,1.05c.68,.23,1.44,.51,2.28,.85s1.35,.51,1.53,.51Zm-1.09-18.77c.77,0,1.42-.96,1.94-2.89s.78-3.37,.78-4.32c0-.54-.26-.82-.78-.82s-1.24,.15-2.14,.44c-.91,.29-1.36,.95-1.36,1.97s.11,2.11,.34,3.26c.23,1.16,.43,1.84,.61,2.04,.18,.2,.38,.31,.61,.31Zm6.87-.07c.82,0,1.82-.66,3.03-1.97,1.2-1.31,1.8-2.76,1.8-4.35,0-.68-.26-1.21-.78-1.6-.52-.38-.99-.58-1.39-.58-.77,0-1.5,.91-2.18,2.72-.5,1.22-1.2,2.49-2.11,3.81-.23,.32-.34,.61-.34,.88s.26,.52,.78,.75c.52,.23,.92,.34,1.19,.34Z"/><path d="M719.05,506.22c0,.36,.14,.66,.41,.88l4.9,4.08c2.99,2.54,5.33,4.23,7,5.07,1.68,.84,3.33,1.49,4.96,1.94,5.94,1.72,9.64,3.01,11.12,3.88,1.47,.86,2.21,1.61,2.21,2.24,0,.95-1.59,1.43-4.76,1.43-4.13,0-7.82-.3-11.08-.88-.91-.18-1.85-.27-2.82-.27s-1.6-.48-1.87-1.43c-.63-2.27-1.38-3.89-2.24-4.86-.86-.97-2.21-1.8-4.05-2.48-1.84-.68-4.3-2-7.38-3.94-.23-.14-.5-.2-.82-.2s-.64,.11-.95,.34c-2.45,1.9-4.92,3.13-7.41,3.67-.82,.18-1.63,.6-2.45,1.26-.82,.66-1.37,1.29-1.67,1.9-.29,.61-.61,1-.95,1.16-.34,.16-1.49,.24-3.43,.24s-3.45-.09-4.49-.27c-1.04-.18-1.92-.5-2.62-.95-.7-.45-1.05-.83-1.05-1.12s.38-.49,1.16-.58c6.12-.63,10.9-2.21,14.35-4.73,3.44-2.52,5.17-4.11,5.17-4.79,0-.32-.25-.78-.75-1.39-.5-.61-1.64-1.75-3.43-3.4-1.79-1.65-3.07-2.78-3.84-3.37-.77-.59-1.45-.91-2.04-.95-1.27-.14-1.9-.61-1.9-1.43,0-.63,.31-1.71,.92-3.23s1.19-2.28,1.73-2.28,1,.34,1.36,1.02c.77,1.45,2.52,3.16,5.24,5.13,2.72,1.97,4.46,3.29,5.24,3.94,.77,.66,1.27,.99,1.5,.99s.46-.1,.71-.31c.25-.2,.86-1.3,1.84-3.3,.97-1.99,1.89-4.52,2.75-7.58,.86-3.06,1.61-6.54,2.24-10.44,.14-.86,.31-1.4,.51-1.63,.2-.23,.54-.34,1.02-.34s1.61,.28,3.4,.85c1.79,.57,2.69,1.17,2.69,1.8,0,.23-.19,.61-.58,1.16-.39,.54-.74,1.32-1.05,2.31-1.9,6.17-3.45,10.55-4.62,13.16-1.18,2.61-2.49,4.95-3.94,7.04-.14,.18-.2,.41-.2,.68Zm-3.74-14.89c0,.5-.14,.98-.41,1.43-.27,.45-.7,.68-1.29,.68s-1.5-.44-2.72-1.33c-1.22-.88-2.06-1.42-2.52-1.6-1.45-.59-2.18-1.54-2.18-2.86,0-.82,.38-2.15,1.16-4.01,.77-1.86,1.47-2.79,2.11-2.79s1.06,.37,1.29,1.12c.23,.75,.72,1.59,1.5,2.52,.77,.93,1.47,2.1,2.11,3.5,.63,1.41,.95,2.52,.95,3.33Z"/></g><g><path class="uuid-05dec71c-48c0-4ada-b2fa-e4228272fa38" d="M729.33,567.88c1.37,.55,2.19,1.06,2.44,1.51v.25c-.09,.3-.71,1.45-1.86,3.45-2.79,6-5.05,9.75-6.79,11.24-.59,.55-1.09,.83-1.51,.83h-.25c-.67,0-1.01-.25-1.01-.75v-.08h.08c.19,.17,.33,.25,.42,.25,1.04,0,3.06-2.66,6.06-7.97v-.17h-.1l-3,.5c-.7,0-1.51-.61-2.44-1.84v-.08h.08c.08,0,.47,.14,1.18,.43,.25,0,1.59-.06,4.02-.18l.85,.08c1.06-2.45,1.59-4.23,1.59-5.36-2.22,.94-3.48,1.41-3.77,1.41-.76,0-1.41-.44-1.94-1.33,.06,0,.08-.03,.08-.08,.48,.22,1.1,.33,1.86,.33,2.68-.75,4.02-1.42,4.02-2.01l-.1-.33c.07,0,.1-.03,.1-.1Zm6.19,8.07c.31,0,1.04,.28,2.19,.83,.27,0,.52,.17,.76,.5v.33c0,.2-.64,.37-1.93,.5-.2,0-.71,.85-1.53,2.54v.08c.8,0,1.31-.25,1.53-.76,2.22,.82,3.34,1.41,3.34,1.76s-.22,.54-.65,.6c-.66-.29-1.2-.43-1.59-.43h-.18c-.14,0-.9,.06-2.26,.17h-.68c-.21,0-.46,.62-.75,1.86,3.33,1.13,6.02,2.61,8.05,4.43,.18,0,.32,.56,.42,1.68v.68c-.11,.2-.28,.34-.5,.42-.18,0-.99-.64-2.44-1.93-.1,0-.97-.7-2.61-2.09-.23,0-1.12-.72-2.67-2.17-.41-.23-.66-.35-.75-.35l-2.11,3.77c-1.76,1.12-3.18,1.68-4.27,1.68-.48,0-.93-.28-1.36-.83h.08c.39,.17,.7,.25,.93,.25,.96-.28,2.17-1.11,3.62-2.51,.83-1.08,1.61-2.54,2.34-4.37v-.1h-.08c-1.33,.28-2.14,.42-2.44,.42-.87,0-1.54-.44-2.01-1.33h.1s.44,.09,1.25,.27c2.73-.24,4.1-.61,4.1-1.1l.43-1.26v-.33c-.13-.24-.33-.41-.58-.5l-1.18,.07c-2.3-.18-3.45-.48-3.45-.91v-.18l.08-.15,1.51,.23c1.2,0,2.77-.47,4.71-1.41,.09-.22,.28-.33,.56-.33Zm4.47-8.73c.48,.33,1.15,.64,2.01,.91,.23,.27,.35,.49,.35,.68,0,.4-1.04,1.23-3.1,2.51-.63,.41-.95,.64-.95,.68,0,.28,.56,1.06,1.69,2.36,.1,.04,.24,.07,.42,.07,1.31,0,2.65-.58,4.03-1.74,0-.63,.03-1.02,.08-1.18-.06-.09-.08-.23-.08-.42h.08c2.35,.83,3.52,1.64,3.52,2.42v.17c0,.17-1.12,.44-3.37,.83-1.67,.63-2.78,.95-3.34,.95v.23c2.09,2.32,3.63,3.72,4.62,4.2,.55,.41,1.92,1.2,4.1,2.36,2.99,1.95,4.7,3.15,5.13,3.6v.23c-.19,0-.33,.03-.43,.1-3.82-1.28-6.03-1.93-6.62-1.93-.83,0-2.4-1.59-4.7-4.78-1.82-2.3-2.99-3.64-3.54-4.02-.55,0-1-.25-1.33-.76,0-.12,.17-.18,.5-.18v-.15l-1.51-1.94c-1.16,.61-1.92,.91-2.26,.91-.55-.07-.83-.18-.83-.33v-.17c0-.09,.67-.64,2.01-1.66v-.18c-.91-.21-1.36-.57-1.36-1.08,.07,0,.1-.03,.1-.1,.33,0,.97,.31,1.91,.93,.42,0,1.13-.67,2.12-2.01-.63-.43-.95-.8-.95-1.1,.03,0,.12-.06,.27-.18h.83c.19,0,.39-.08,.6-.23Z"/><path class="uuid-05dec71c-48c0-4ada-b2fa-e4228272fa38" d="M731.86,597.72c.12,0,.74,.28,1.86,.83,.65,0,1.1,.48,1.33,1.44,0,1.05-1.29,2.76-3.87,5.11-.04,.11-.07,.19-.07,.25,.38,.67,.56,1.94,.56,3.79h.27c.95-1.33,1.9-2.53,2.86-3.62v-.17c-.17-.65-.25-1.1-.25-1.34,.64,.33,1.06,.5,1.26,.5,.1,0,.15-.14,.15-.42h.18c1.52-.33,3.83-1.65,6.96-3.95l.93-1.66c.43,.37,1.18,.7,2.26,1,.22,.27,.39,.55,.51,.85,0,.2-.73,.95-2.19,2.26-.06,5.27-.08,8.1-.08,8.48-.17,.39-.42,.58-.75,.58h-.17c-.25,0-.87-.45-1.84-1.34-.49-.24-1.05-.61-1.68-1.1h-.18c.28,5.84,.44,9.98,.5,12.42-.32,4.65-.96,6.97-1.91,6.97-.11-.35-.2-.8-.27-1.33,.23-5.35,.35-9.21,.35-11.6,0-4.58-.2-8.05-.6-10.39-.5,.06-.78,.08-.85,.08-.35-.11-.57-.17-.65-.17v.08s.02,.2,.07,.5c-1,6.17-1.78,9.25-2.34,9.25-.53,.89-1.32,1.33-2.36,1.33l-.42-.08v-.08c1.21-.6,2.01-1.58,2.42-2.94,.73-2.5,1.1-4.76,1.1-6.79h-.1c-.41,.4-1.41,1.99-3,4.78-.4,1.34-.67,2.01-.83,2.01l-.18,.08c-.4,0-.76-.48-1.08-1.43,.28-.67,.42-1.32,.42-1.93v-3.79c0-.11-.06-.17-.17-.17-.1,0-.35,.09-.76,.27-.33-.13-.5-.42-.5-.86,.08-.66,.27-1,.58-1,.34,.23,.59,.35,.75,.35,2.03-2.26,3.04-3.97,3.04-5.13-.71,0-1.24-.55-1.59-1.66v-.18l.33-.08Zm7.47,6.64c.17,.53,.36,1.9,.58,4.1,.11,0,.87,.28,2.27,.83h.08l.17-.08c-.1-1.26-.1-3.59,0-6.99-.07,0-.1-.03-.1-.08-2,1.28-3,2.03-3,2.22Z"/><path class="uuid-05dec71c-48c0-4ada-b2fa-e4228272fa38" d="M695.16,580.74v-.1h-.1c-1.68,0-5.4,.97-11.16,2.92h-.17c-.35,0-.72-.42-1.1-1.25,.06,0,.08-.03,.08-.08,.21,.1,.44,.15,.68,.15,.92,0,3.38-.7,7.39-2.09v-.17c-.17-.29-.25-.48-.25-.58,0-.34,.02-.76,.07-1.26-.22-5.43-.47-8.15-.75-8.15-.11-.17-.17-.33-.17-.5h.08c.19,.18,.77,.46,1.76,.85,.44,.32,.66,.99,.66,2.01v1.01c0,.65-.02,1.69-.07,3.1h.07c.66-.17,2.35-.45,5.05-.85l.76,.25v.17c-1.03,.61-2.71,1.08-5.05,1.43-.25-.08-.48-.19-.68-.33h-.08l-.15,.08,.08,.85v1.76l4.35-1.01c.2-.65,.34-1.01,.43-1.08,1.06,.41,1.59,.74,1.59,1,.07,.28,.15,.42,.25,.42h.08c.55-4.77,.83-7.48,.83-8.12v-1.44c-3.52,1.18-5.69,1.78-6.52,1.78l-.86-.27v-.5c.43-.51,1.1-1.77,2.01-3.79,.3-.3,.45-.55,.45-.75-.07,0-.1-.03-.1-.08-2.62,.79-4.08,1.18-4.37,1.18-1.01-.21-1.51-.63-1.51-1.26v-.08h.1c.17,.11,.33,.17,.5,.17,1.07-.39,3.14-1.03,6.21-1.93,0-.66,.39-1,1.18-1l.5-.1c.74,.53,1.64,.95,2.69,1.26,.39,.29,.58,.57,.58,.85v.23c0,.17-.3,.37-.91,.6-.25-.12-.62-.18-1.1-.18-.02,.13-1.45,1.54-4.28,4.22v.15c3.46-.62,5.2-1.48,5.2-2.59h.18c.34,.32,1.12,.69,2.34,1.1,.39,.39,.58,.75,.58,1.08-.61,1.32-1.31,4.26-2.09,8.83-.33,.96-.86,1.8-1.59,2.51h-.08v-1.26c-.76,0-1.39,.21-1.89,.61l-1.71,.25Zm1.71-.25h-.02c-.31,.27-.57,.62-.78,1.06-.5,.49-.75,.82-.75,1.01h.07c.7,0,2.08-.23,4.13-.68,.94,.3,1.41,.69,1.41,1.18,0,1.13-.86,2.86-2.59,5.2v.17c2.05,1.66,3.64,2.65,4.78,2.96,1.14,.81,3.88,1.84,8.23,3.1-.22,.43-.61,.65-1.18,.65-.79-.16-1.29-.23-1.51-.23-1.37,0-2.66,.11-3.87,.33-1.29-.28-3.59-2.15-6.87-5.63-.12-.21-.29-.32-.51-.32-2.24,1.67-3.81,2.51-4.71,2.51-.64,0-1.03-.25-1.16-.76,2.19-.62,3.79-1.57,4.8-2.84-1.14-1.26-2.2-2.14-3.19-2.62l-2.87,3.45c-2.65,2.57-4.66,4.11-6.04,4.62-.38-.08-.56-.16-.56-.25,1.28-.58,3.26-2.26,5.94-5.05,1.9-2.88,3.75-5.4,5.54-7.55v-.05l1.71-.25Zm-.22-8.08c.73,.23,1.1,.43,1.1,.58v.18c-2.18,.73-3.58,1.1-4.18,1.1-.73-.07-1.1-.35-1.1-.86,.38-.27,1.77-.6,4.18-1Zm-1,11.24c-.11,0-.39-.17-.83-.5-.91,1.06-1.36,1.73-1.36,2.01,1,.51,2.2,1.24,3.6,2.19,.51-.61,1.16-2.04,1.94-4.28v-.08h-.17c-.18,0-1.24,.22-3.19,.66Z"/><path class="uuid-05dec71c-48c0-4ada-b2fa-e4228272fa38" d="M701.58,603c.93,.41,1.47,.74,1.63,.98-.06,.25-.18,.45-.37,.58l-.13-.08c-.06,0-.65-.02-1.78-.07-.84,0-1.76,.25-2.76,.75v.07c.2,.33,.3,.58,.3,.75v.05c-1.56,1.84-2.93,3.17-4.12,3.98-.6,.35-.9,.61-.9,.76,.06,0,.08,.02,.08,.07,1.97-.55,4.41-1.12,7.3-1.69l1.48,.65v-.05c0-.16-.35-.92-1.05-2.29v-.08h.23c2.56,1.2,3.88,1.89,3.98,2.08l.07,.73c0,1.18-.39,1.78-1.16,1.78-.56,0-1.16-.56-1.78-1.69h-.17c0,.28-.37,.45-1.1,.51-.12,0-.32-.03-.6-.08-1.25,0-2.71,.25-4.37,.75v.22c1.58,.52,2.37,1.18,2.37,1.99-.06,.16-.08,.75-.08,1.78,.06,0,.08,.02,.08,.07,.1-.04,.17-.07,.22-.07,.71,0,1.6-.08,2.67-.23,1.63,.59,2.44,1.04,2.44,1.34,0,.09,.02,.13,.07,.13,0,.17-.17,.34-.51,.51-1-.34-1.57-.51-1.71-.51h-1.39c-.42,0-1.08,.03-1.99,.08l-.43,3.55h.05c.45,0,2.11-.13,4.96-.38,2,.06,3.82,.16,5.46,.3v-.08c-.06-.08-.08-.18-.08-.3h.17c1.73,.89,2.66,1.41,2.81,1.56,.25,.27,.43,.58,.51,.95,0,.5-.34,.77-1.03,.81-2.58-1.13-4.5-1.69-5.76-1.69h-.81c-6.35,.49-11.89,1.08-16.62,1.78-.6,.06-1.49,.08-2.67,.08h-.13c-2.03,0-3.04-.54-3.04-1.63h.08c.33,.04,.6,.07,.8,.07h2.76c2.17,0,5.69-.32,10.56-.95,0-.06,.07-.08,.22-.08,.2-1.99,.3-3.18,.3-3.55-.28,0-1.86,.25-4.75,.75-.39,0-.7-.32-.95-.96,1.01-.34,2.95-.74,5.83-1.18v-.15c0-2.03-.34-3.04-1.03-3.04-.31-.38-.53-.56-.66-.56-1.76,.77-3.36,1.36-4.8,1.76-.48,0-.97-.5-1.48-1.49,0-.02-.03-.17-.08-.43,0-.45,.18-.85,.53-1.18h.07c.31,0,.66,.25,1.05,.75h.35c1.28,0,2.74-1.28,4.37-3.85,.56-.86,.89-1.53,.96-1.99h-.22c-.25,0-1.32,.2-3.19,.6h-.07c-2.21,0-3.32-.52-3.32-1.56,.09,0,.13-.02,.13-.07,.49,.04,.86,.07,1.11,.07h1.11c2.29,0,3.8-.2,4.52-.6l.51,.08c2.49-.74,4.13-1.11,4.93-1.11Z"/></g></svg>