<?xml version="1.0" encoding="UTF-8"?><svg id="uuid-20ce2435-679a-474a-94e0-fb6a412d2262" xmlns="http://www.w3.org/2000/svg" viewBox="0 0 1366 768"><defs><style>.uuid-25d081a3-97a4-4c6a-8b15-e852f927dde5{fill:#1b1464;}.uuid-a638468f-49bd-4e07-bd8c-6fcea611d0c8{fill:#fbb03b;}</style></defs><rect class="uuid-25d081a3-97a4-4c6a-8b15-e852f927dde5" x=".34" y=".74" width="1366" height="767"/><g><path class="uuid-a638468f-49bd-4e07-bd8c-6fcea611d0c8" d="M661.67,239.16c.79,0,1.19,.73,1.19,2.18,0,.79-.35,1.55-1.04,2.28-.69,.73-2.57,1.98-5.64,3.76-3.07,1.78-5.71,3.2-7.92,4.26-2.21,1.06-3.6,1.8-4.16,2.23-.56,.43-1.06,.64-1.49,.64s-1.16-.63-2.18-1.88c-1.02-1.25-1.53-2.24-1.53-2.97s.38-1.19,1.14-1.39c.76-.2,2.06-.71,3.91-1.53,1.85-.83,4.47-1.9,7.87-3.22,3.4-1.32,5.76-2.38,7.08-3.17,1.32-.79,2.24-1.19,2.77-1.19Zm53.76-15.15c1.25,0,2.06,.05,2.43,.15,.36,.1,.97,.83,1.83,2.18,.86,1.35,1.29,2.49,1.29,3.42,0,1.19-.66,1.78-1.98,1.78-.53,0-1.29-.13-2.28-.4-.99-.26-2.69-.4-5.1-.4s-3.99,.13-4.75,.4c-.76,.26-1.14,2.08-1.14,5.45,0,1.39,.08,2.76,.25,4.11,.16,1.35,.25,2.49,.25,3.42l-.1,3.86c0,.73,.11,1.98,.35,3.76,.23,1.78,.35,3.2,.35,4.26l-.2,3.76c0,2.04,.08,3.99,.25,5.84,.16,1.85,.25,3.23,.25,4.16s-.15,1.62-.45,2.08c-.3,.46-1.3,.69-3.02,.69s-4.44-.5-8.17-1.49c-3.73-.99-6.83-2.21-9.31-3.66-2.48-1.45-3.71-2.47-3.71-3.07,0-.26,.23-.4,.69-.4s2.08,.25,4.85,.74c2.77,.5,5.08,.74,6.93,.74s3.03-.12,3.56-.35c.53-.23,.92-.76,1.19-1.58,.26-.83,.4-2.16,.4-4.01l-.2-7.62c-.07-2.31-.1-4.64-.1-6.98s-.26-4.95-.79-7.82c-.53-2.87-.96-4.49-1.29-4.85-.33-.36-1.02-.54-2.08-.54s-3.05,.28-5.99,.84c-2.94,.56-5.99,1.25-9.16,2.08-3.17,.83-4.97,1.37-5.4,1.63-.43,.26-.71,.86-.84,1.78-.4,2.64-1.12,5.86-2.18,9.65-1.06,3.8-2.05,7.94-2.97,12.42-.33,1.58-.74,2.64-1.24,3.17-.5,.53-1.29,.79-2.38,.79s-2.87-.45-5.35-1.34-4.69-2.01-6.63-3.37c-1.95-1.35-2.92-2.33-2.92-2.92,0-.26,.2-.4,.59-.4s.92,.13,1.58,.4c1.58,.59,3.45,.89,5.59,.89s3.46-.06,3.96-.2c.5-.13,.94-.51,1.34-1.14,.4-.63,1.04-2,1.93-4.11,.89-2.11,1.5-4.22,1.83-6.34,.33-2.11,.5-3.93,.5-5.44,0-3.83-1.45-5.74-4.36-5.74s-6.2,1.35-9.9,4.06c-.66,.53-1.22,.79-1.68,.79-.73,0-1.09-.76-1.09-2.28,0-.46,.18-1.1,.54-1.93,.36-.82,.74-2.66,1.14-5.5,.4-2.84,.59-5.71,.59-8.61l-.1-2.28c0-3.17,1.12-4.75,3.37-4.75,.53,0,1.17,.18,1.93,.54,.76,.36,1.14,.84,1.14,1.44s-.18,1.39-.54,2.38c-.36,.99-.69,2.89-.99,5.69-.3,2.81-.45,4.93-.45,6.38s.28,2.18,.84,2.18,1.25-.25,2.08-.74c.82-.49,1.55-3.2,2.18-8.12,.63-4.92,.94-8.5,.94-10.74s-.4-3.7-1.19-4.36c-.79-.66-1.5-.99-2.13-.99s-3.22,1.32-7.77,3.96c-.79,.46-1.45,.69-1.98,.69s-.97-.41-1.34-1.24c-.36-.82-.54-1.95-.54-3.37s1.02-2.19,3.07-2.33c2.44-.2,4.9-.69,7.38-1.48,2.47-.79,4.67-1.19,6.58-1.19s3.78,.26,5.59,.79c1.81,.53,2.72,1.16,2.72,1.88,0,.46-.38,1.07-1.14,1.83s-1.34,2.39-1.73,4.9c-.92,5.94-1.77,10.05-2.52,12.33-.76,2.28-1.14,3.8-1.14,4.55s.08,1.22,.25,1.39c.16,.17,.68,.25,1.53,.25s1.73,.13,2.62,.4c.89,.26,1.5,.4,1.83,.4,1.58,0,5.08-.77,10.49-2.33,5.41-1.55,9.34-2.43,11.78-2.62,1.39-.13,2.08-.63,2.08-1.48,0-1.32-.99-2.75-2.97-4.31-1.98-1.55-3.37-2.33-4.16-2.33-.59,0-1.22,1.39-1.88,4.16-.26,1.12-.78,2.01-1.53,2.67-.76,.66-1.92,1.25-3.46,1.78-1.55,.53-2.62,.79-3.22,.79s-.89-.26-.89-.79,.38-1.3,1.14-2.33c.76-1.02,1.45-2.13,2.08-3.32,.63-1.19,.94-2.01,.94-2.48s-.56-.86-1.68-1.19c-2.18-.73-3.78-1.39-4.8-1.98-1.02-.59-1.53-1.32-1.53-2.18,0-.92,.15-1.53,.45-1.83s.87-.45,1.73-.45,2.33-.23,4.41-.69c2.08-.46,3.25-.79,3.51-.99,.26-.2,.51-.64,.74-1.34,.23-.69,.51-2.21,.84-4.55,.33-2.34,.53-4.16,.59-5.44,.07-1.29,.1-3.35,.1-6.19,0-1.85,.59-2.77,1.78-2.77,.53,0,1.76,.26,3.71,.79,1.95,.53,2.92,1.07,2.92,1.63s-.28,1.21-.84,1.93c-.56,.73-.96,1.48-1.19,2.28-.23,.79-.41,2.11-.54,3.96l-.5,6.04c0,.66,.15,.99,.45,.99s.78-.11,1.44-.35c.66-.23,1.85-.58,3.56-1.04,1.71-.46,3-.69,3.86-.69s1.55,.43,2.08,1.29c.53,.86,.79,1.62,.79,2.28,0,1.58-1.29,2.57-3.86,2.97-1.65,.26-3.33,.74-5.05,1.44-1.72,.69-2.57,1.3-2.57,1.83s.76,1.01,2.28,1.44c1.52,.43,2.95,.96,4.31,1.58,1.35,.63,2.16,1.12,2.43,1.49,.26,.36,.4,1.01,.4,1.93l-.1,2.67c0,1.12,.4,1.68,1.19,1.68s2.21-.2,4.26-.59c2.04-.4,4.12-.59,6.24-.59Zm-25.84,13.37c1.58,0,3.05,.2,4.41,.59,1.35,.4,2.24,.79,2.67,1.19,.43,.4,.64,.79,.64,1.19,0,.79-.48,1.44-1.44,1.93-.96,.5-1.54,1.02-1.73,1.58-.2,.56-.38,1.45-.54,2.67-.17,1.22-.45,2.1-.84,2.62-.4,.53-1.09,.83-2.08,.89-.99,.07-2.23,.36-3.71,.89-1.49,.53-2.43,.97-2.82,1.34-.4,.36-.76,.54-1.09,.54-1.06,0-2.53-1.29-4.41-3.86-1.88-2.57-2.82-4.82-2.82-6.73,0-.66,.18-1.17,.54-1.53,.36-.36,2.04-1.01,5.05-1.93,3-.92,5.72-1.39,8.17-1.39Zm-5.35,8.91c.79,0,1.58-.31,2.38-.94,.79-.63,1.19-1.44,1.19-2.42,0-1.45-.79-2.18-2.38-2.18-.59,0-1.19,.28-1.78,.84-.59,.56-.89,1.49-.89,2.77s.5,1.93,1.49,1.93Z"/><path class="uuid-a638468f-49bd-4e07-bd8c-6fcea611d0c8" d="M714.24,326.58c.92,0,1.58,.18,1.98,.54,.4,.36,1.04,1.47,1.93,3.32,.89,1.85,1.34,3.12,1.34,3.81s-.38,1.04-1.14,1.04-2.34-.21-4.75-.64c-2.41-.43-5.28-.64-8.61-.64s-7.79,.68-13.36,2.03c-5.58,1.35-10.54,2.38-14.9,3.07-4.36,.69-6.93,1.22-7.72,1.58-.79,.36-1.34,.54-1.63,.54s-.64-.18-1.04-.54c-.4-.36-.74-.54-1.04-.54s-.78,.53-1.44,1.58c-2.05,2.97-3.48,4.9-4.31,5.79-.83,.89-1.87,1.72-3.12,2.47-1.25,.76-2.92,2-5,3.71-2.08,1.72-3.42,2.91-4.01,3.56-.59,.66-1.17,.99-1.73,.99s-1.67-.92-3.32-2.77c-1.65-1.85-2.47-3.1-2.47-3.76,0-.46,.59-.91,1.78-1.34,1.19-.43,2.87-1.27,5.05-2.52,2.18-1.25,3.61-2.14,4.31-2.67,.69-.53,1.17-1.15,1.44-1.88,.26-.73,.5-2.03,.69-3.91s.3-3.4,.3-4.55-.21-1.73-.64-1.73-1.3,.33-2.62,.99c-1.32,.66-2.26,1.17-2.82,1.54-.56,.36-1.14,.54-1.73,.54s-1.35-.87-2.28-2.62c-.92-1.75-1.39-3.27-1.39-4.55s.2-2.06,.59-2.33c.4-.26,1.24-.4,2.52-.4s2.89-.31,4.8-.94c1.91-.63,3.07-1.22,3.46-1.78,.4-.56,.63-2.01,.69-4.36,.07-2.34,.1-4.73,.1-7.18s-.05-4.57-.15-6.39c-.1-1.81-.15-2.75-.15-2.82,0-1.39,.43-2.08,1.29-2.08,.33,0,.81,.1,1.43,.3,.63,.2,1.6,.33,2.92,.4,1.32,.07,1.98,.31,1.98,.74s-.13,.97-.4,1.63c-.79,2.31-1.19,5.43-1.19,9.36s.06,6.27,.2,7.03c.13,.76,.46,1.14,.99,1.14s1.29-.21,2.28-.64c.99-.43,1.65-.64,1.98-.64,.86,0,1.29,1.39,1.29,4.16,0,1.19-.33,1.98-.99,2.38-2.51,1.58-4.03,2.82-4.55,3.71-.53,.89-.79,2.82-.79,5.79,0,1.98,.26,2.97,.79,2.97,.26,0,.99-.35,2.18-1.04,1.19-.69,2.04-1.07,2.57-1.14,.92,0,3.93-.92,9.01-2.77,5.08-1.85,7.9-3.03,8.46-3.56,.56-.53,.84-1.8,.84-3.81s-.22-3.02-.64-3.02-1.27,.51-2.52,1.53c-1.25,1.02-2.74,2.49-4.46,4.41-.73,.79-1.32,1.19-1.78,1.19s-1.21-.68-2.23-2.03c-1.02-1.35-1.53-2.33-1.53-2.92,0-.66,.36-1.07,1.09-1.24,.73-.16,2.14-.71,4.26-1.63l5.35-2.28c1.45-.59,2.28-1.07,2.48-1.44,.2-.36,.3-.96,.3-1.78s-.13-1.32-.4-1.49c-.26-.16-.79-.25-1.58-.25s-1.95,.1-3.46,.3c-1.52,.2-2.56,.51-3.12,.94-.56,.43-1.07,.64-1.54,.64s-.97-.68-1.53-2.03c-.56-1.35-.84-2.29-.84-2.82s.5-.86,1.49-.99c1.32-.26,3.1-.83,5.35-1.68l4.75-1.58c.33-.13,.58-.31,.74-.54,.16-.23,.3-.61,.4-1.14,.1-.53,.2-1.6,.3-3.22,.1-1.62,.33-4.06,.69-7.33,.36-3.27,.54-5.69,.54-7.28,0-.86,.15-1.42,.45-1.68,.3-.26,.79-.4,1.48-.4s1.65,.13,2.87,.4c1.22,.26,1.91,.46,2.08,.59,.16,.13,.25,.4,.25,.79s-.13,1.02-.4,1.88c-.79,2.71-1.19,5.45-1.19,8.22s.1,4.55,.3,5.35,.69,1.19,1.48,1.19,2.01-.2,3.66-.59c1.65-.4,2.9-.59,3.76-.59s1.5,.51,1.93,1.53c.43,1.02,.64,1.96,.64,2.82s-.46,1.42-1.39,1.68c-4.49,1.39-7.36,2.38-8.61,2.97-1.25,.59-1.88,2.87-1.88,6.83,0,1.72,.23,2.57,.69,2.57s1.96-1.06,4.5-3.17c2.54-2.11,4.41-3.76,5.59-4.95,.53-.53,1.02-.79,1.49-.79s1.1,.53,1.93,1.58c.82,1.06,1.24,1.83,1.24,2.33s-.73,1.11-2.18,1.83c-4.29,1.98-7.28,3.48-8.96,4.5-1.68,1.02-2.77,1.77-3.27,2.23-.5,.46-.74,.96-.74,1.49s.28,.79,.84,.79,2.06-.16,4.5-.5c2.44-.33,5.66-.64,9.65-.94,3.99-.3,6.42-.45,7.28-.45Zm-.99,17.33c0,.33-.2,.69-.59,1.09-.99,1.06-1.49,2.61-1.49,4.65,0,1.58-.43,4.36-1.29,8.32-.86,3.96-1.8,7.64-2.82,11.04-1.02,3.4-1.67,5.33-1.93,5.79-.26,.46-.54,.69-.84,.69s-.78-.3-1.44-.89c-3.43-3.04-5.81-4.55-7.13-4.55-.07,0-1.68,.21-4.85,.64-3.17,.43-6.02,.86-8.56,1.29-2.54,.43-4.16,.64-4.85,.64s-1.25-.25-1.68-.74c-.43-.5-1.14-1.53-2.13-3.12s-1.82-3.7-2.48-6.34c-.66-2.64-1.09-4.97-1.29-6.98-.2-2.01-.56-3.83-1.09-5.45-.53-1.62-.79-2.59-.79-2.92,0-1.06,.92-1.68,2.77-1.88,2.31-.26,4.42-.69,6.34-1.29,9.83-2.97,17.13-4.46,21.88-4.46,2.84,0,5.92,.54,9.26,1.63,3.33,1.09,5,2.03,5,2.82Zm-9.31,7.23c0-3.3-.38-5.31-1.14-6.04-.76-.73-2.84-1.09-6.24-1.09s-7.47,.61-12.23,1.83c-4.75,1.22-7.54,2.21-8.37,2.97-.83,.76-1.24,1.9-1.24,3.42,0,2.51,.33,5.21,.99,8.12,.66,2.9,1.3,4.75,1.93,5.54,.63,.79,1.78,1.19,3.46,1.19s4.21-.26,7.57-.79c3.37-.53,5.36-.79,5.99-.79s1.2,.41,1.73,1.24c.53,.82,1.24,1.24,2.13,1.24s1.62-.36,2.18-1.09c.56-.73,1.24-2.87,2.03-6.44,.79-3.56,1.19-6.67,1.19-9.31Zm-4.85-.59c0,.26-.28,.96-.84,2.08-.56,1.12-1.09,2.33-1.58,3.61s-.78,2.16-.84,2.62l.1,1.19c0,.66-.63,1.06-1.88,1.19-4.75,.53-7.42,.99-8.02,1.39-.66,.46-1.22,.69-1.68,.69-1.06,0-2.24-1.55-3.56-4.65-1.32-3.1-1.98-5.06-1.98-5.89s.43-1.3,1.29-1.44c.86-.13,2.54-.68,5.05-1.63,2.51-.96,4.82-1.44,6.93-1.44s3.81,.2,5.1,.59c1.29,.4,1.93,.96,1.93,1.68Zm-11.98,7.52c.4,0,1.12-.16,2.18-.5,1.06-.33,1.65-.84,1.78-1.53,.13-.69,.2-1.24,.2-1.63,0-1.39-.63-2.08-1.88-2.08-.53,0-1.25,.13-2.18,.4-.92,.26-1.39,1.06-1.39,2.38,0,1.98,.43,2.97,1.29,2.97Z"/><path class="uuid-a638468f-49bd-4e07-bd8c-6fcea611d0c8" d="M659.29,422.91c0,.2-.07,.4-.2,.59-1.39,1.78-2.08,3.5-2.08,5.15s.33,3.1,.99,4.36c.13,.33,.2,.76,.2,1.29s-.2,1.02-.59,1.49c-.4,.46-.84,.69-1.34,.69s-1.9-.38-4.21-1.14c-2.31-.76-3.73-1.39-4.26-1.88-.53-.5-.79-1.09-.79-1.78s.33-1.32,.99-1.88c.66-.56,1.42-1.42,2.28-2.57,.86-1.15,1.96-2.26,3.32-3.32,1.35-1.05,2.19-1.7,2.52-1.93,.33-.23,.71-.35,1.14-.35s.87,.12,1.34,.35c.46,.23,.69,.54,.69,.94Zm33.26-12.28c4.69,0,8.78,1.42,12.28,4.26,3.5,2.84,5.69,5.12,6.58,6.83,.89,1.72,1.83,3.22,2.82,4.5s1.49,2.26,1.49,2.92-.22,1.12-.64,1.39c-.43,.26-1.92,.59-4.46,.99-2.54,.4-4.77,.59-6.68,.59s-3.5-.13-4.75-.4c-1.25-.26-2.03-.4-2.33-.4s-.79,.17-1.48,.5c-.69,.33-1.85,.81-3.46,1.44-1.62,.63-3.02,1.11-4.21,1.44-1.19,.33-1.92,.63-2.18,.89s-.54,1.4-.84,3.42c-.3,2.01-.45,3.3-.45,3.86s.15,.84,.45,.84,.58-.03,.84-.1c3.56-.86,6.17-1.29,7.82-1.29,2.31,0,3.46,1.58,3.46,4.75,0,.79-.15,1.42-.45,1.88-.3,.46-1.11,.79-2.43,.99-1.32,.2-3.25,.68-5.79,1.44-2.54,.76-3.91,1.21-4.11,1.34-.2,.13-.3,.92-.3,2.38s.03,2.61,.1,3.46c.06,.86,.13,1.44,.2,1.73,.07,.3,.46,.41,1.19,.35,2.44-.26,4.78-.4,7.03-.4s4.32-.1,6.24-.3l4.65-.5c.59,0,1.1,.21,1.53,.64,.43,.43,1.05,1.35,1.88,2.77,.83,1.42,1.37,2.46,1.63,3.12,.26,.66,.4,1.62,.4,2.87s-.23,1.88-.69,1.88-.92-.07-1.39-.2c-4.95-1.58-9.87-2.38-14.75-2.38-2.25,0-4.39,.15-6.44,.45-2.05,.3-4.92,.5-8.61,.59-3.7,.1-7.64,.58-11.83,1.44-4.19,.86-7.01,1.72-8.46,2.57-.46,.26-.86,.4-1.19,.4-.86,0-1.63-.84-2.33-2.52-.69-1.68-1.04-2.76-1.04-3.22s.56-.69,1.68-.69c1.45,0,4.49-.66,9.11-1.98,4.62-1.32,8.15-2.21,10.59-2.67,.46-.06,.79-.26,.99-.59,.2-.33,.38-1.27,.54-2.82,.16-1.55,.25-2.79,.25-3.71,0-.59-.46-.89-1.39-.89s-1.98,.08-3.17,.25c-1.19,.17-1.96,.4-2.33,.69-.36,.3-.76,.45-1.19,.45s-.94-.84-1.53-2.52c-.59-1.68-.89-2.87-.89-3.56s.13-1.24,.4-1.63c.26-.4,.54-.63,.84-.69,.3-.06,1.09-.1,2.38-.1s2.71-.13,4.26-.4c1.55-.26,2.42-.51,2.62-.74,.2-.23,.3-.61,.3-1.14,0-4.55-.18-6.98-.54-7.28-.36-.3-1.07-.45-2.13-.45-1.85,0-3.3,.59-4.36,1.78-.4,.46-.97,.69-1.73,.69s-1.27-.46-1.53-1.39c-.59-2.18-1.06-3.6-1.39-4.26-.33-.66-.5-1.12-.5-1.39,0-1.19,.82-1.85,2.47-1.98,4.42-.4,7.92-.99,10.49-1.78s5.69-1.52,9.36-2.18c3.66-.66,5.76-.99,6.29-.99s.94,.31,1.24,.94c.3,.63,.74,1.25,1.34,1.88,.59,.63,1.07,.94,1.44,.94s1.4-.4,3.12-1.19c1.71-.79,3.02-1.65,3.91-2.57,.89-.92,1.34-1.98,1.34-3.17,0-1.98-.93-3.68-2.77-5.1-1.85-1.42-3.93-2.13-6.24-2.13-.66,0-1.73,.17-3.22,.5-1.49,.33-2.84,.81-4.06,1.44-1.22,.63-2.26,1.04-3.12,1.24-.86,.2-2.1,.3-3.71,.3s-3.43,.28-5.44,.84c-2.01,.56-4.01,.94-5.99,1.14-.46,.07-1.19,.3-2.18,.69-.99,.4-1.73,.76-2.23,1.09-.5,.33-.96,.5-1.39,.5s-.78-.45-1.04-1.34c-.26-.89-.4-1.68-.4-2.38s.43-1.07,1.29-1.14c1.39-.13,3.13-.66,5.25-1.58,3.3-1.52,6.76-2.48,10.39-2.87,1.25-.13,2.74-.59,4.46-1.39,2.64-1.25,5.58-1.88,8.81-1.88Zm-5.64-5.44c0,1.65-.66,2.47-1.98,2.47-.26,0-.78-.08-1.54-.25-.76-.16-2.26-.25-4.5-.25-1.32,0-2.28-.43-2.87-1.29-.59-.86-.89-2-.89-3.42s.3-3.17,.89-5.25,1.62-3.12,3.07-3.12c.59,0,1.12,.17,1.58,.5,.46,.33,.72,.76,.79,1.29,.33,1.85,1.62,3.9,3.86,6.14,1.05,1.06,1.58,2.11,1.58,3.17Zm27.13,50.19c0,1.45-.46,2.18-1.39,2.18s-2.51-.28-4.75-.84c-2.24-.56-3.53-1.02-3.86-1.39-.33-.36-.53-.99-.59-1.88-.07-.89-.25-1.75-.54-2.57-.3-.82-.45-1.39-.45-1.68s.38-.87,1.14-1.73c.76-.86,1.45-1.29,2.08-1.29s1.34,.46,2.13,1.39c.79,.92,2.03,2.13,3.71,3.61,1.68,1.49,2.52,2.89,2.52,4.21Z"/><path class="uuid-a638468f-49bd-4e07-bd8c-6fcea611d0c8" d="M728.1,553.68c0,.66-.68,1.17-2.03,1.54-1.35,.36-2.92,.54-4.7,.54s-3.43-.18-4.95-.54c-1.52-.36-4.36-.71-8.51-1.04-.86-.06-1.57-.31-2.13-.74-.56-.43-.91-.94-1.04-1.54-.46-3.1-.96-5.2-1.49-6.29-.53-1.09-1.93-2.64-4.21-4.65-2.28-2.01-4.22-3.12-5.84-3.32-1.62-.2-2.74-.41-3.37-.64-.63-.23-1.21-.61-1.73-1.14-1.25-1.45-2.79-2.48-4.6-3.07-1.82-.59-3.02-.89-3.61-.89-2.38,0-4.39,1.09-6.04,3.27-.53,.79-1.58,2.05-3.17,3.76-.26,.26-.4,.51-.4,.74s.31,.35,.94,.35,1.5-.16,2.62-.5c7.19-2.04,11.85-3.07,13.96-3.07,.59,0,1.09,.15,1.48,.45,.4,.3,.59,.68,.59,1.14,0,1.32-.96,2.47-2.87,3.46-1.06,.46-1.75,.89-2.08,1.29-.33,.4-.5,.92-.5,1.58,0,1.85,.66,2.77,1.98,2.77,.26,0,.96-.06,2.08-.2,1.12-.13,1.93-.3,2.43-.5s.94-.3,1.34-.3,.92,.5,1.58,1.48c.66,.99,.99,1.85,.99,2.57s-.3,1.32-.89,1.78c-.59,.46-1.72,.76-3.37,.89-3.04,.26-5.07,.53-6.09,.79-1.02,.26-1.53,1.85-1.53,4.75,0,1.39,.2,2.08,.59,2.08,.2,0,.97-.43,2.33-1.29,1.35-.86,2.56-1.75,3.61-2.67,1.05-.92,1.98-1.39,2.77-1.39s1.67,.51,2.62,1.53c.96,1.02,1.44,1.8,1.44,2.33s-.36,.92-1.09,1.19c-.73,.26-2.23,.76-4.5,1.49-2.28,.73-4.44,1.12-6.48,1.19-.86,0-1.29,.54-1.29,1.63s.15,1.75,.45,1.98c.3,.23,2.21,.35,5.74,.35s6.05-.07,7.57-.2l3.66-.4c1.12,0,2.19,.86,3.22,2.57,1.02,1.71,1.53,3.28,1.53,4.7s-.46,2.13-1.39,2.13c-.46,0-1.02-.18-1.68-.54-.66-.36-1.4-.56-2.23-.59-.83-.03-1.78-.05-2.87-.05s-2.29-.13-3.61-.4c-1.32-.26-3.05-.4-5.2-.4s-4.12,.2-5.94,.59c-1.82,.4-3.76,.59-5.84,.59s-4.47,.35-7.18,1.04c-2.71,.69-5.54,1.6-8.51,2.72-.53,.2-1.12,.3-1.78,.3s-1.44-.68-2.33-2.03c-.89-1.35-1.34-2.36-1.34-3.02s.63-1.06,1.88-1.19c1.78-.13,3.79-.56,6.04-1.29,2.24-.73,4.32-1.19,6.24-1.39,4.02-.4,6.04-2.08,6.04-5.05,0-.92-.25-1.39-.74-1.39s-1.53,.46-3.12,1.39c-2.31,1.39-3.94,2.08-4.9,2.08s-1.72-.64-2.28-1.93c-.56-1.29-.84-2.24-.84-2.87s.35-1.02,1.04-1.19c.69-.16,1.91-.25,3.66-.25s3.17,.17,4.26,.5c1.09,.33,1.73,.5,1.93,.5,.59,0,.89-.86,.89-2.57s-.12-2.75-.35-3.12c-.23-.36-.61-.54-1.14-.54s-1.77,.22-3.71,.64c-1.95,.43-3.27,.76-3.96,.99-.69,.23-1.27,.35-1.73,.35s-1.04-.54-1.73-1.63c-.69-1.09-1.04-1.9-1.04-2.43,0-.72,.4-1.09,1.19-1.09s2.18-.3,4.16-.89c1.25-.46,3.53-1.15,6.83-2.08,1.12-.26,1.68-.99,1.68-2.18s-.56-1.78-1.68-1.78l-3.27,.3c-.73,0-1.32-.16-1.78-.5-.46-.33-.96-.82-1.48-1.48-.53-.66-.96-.99-1.29-.99-.79,0-2.61,1.5-5.45,4.5-2.84,3-4.59,5.76-5.25,8.27-.33,1.06-.89,1.9-1.68,2.52-.79,.63-2.51,1.35-5.15,2.18-2.64,.83-4.69,1.24-6.14,1.24s-2.56-.1-3.32-.3c-.76-.2-1.14-.4-1.14-.59s1.2-1.1,3.61-2.72c2.41-1.62,5.92-4.27,10.54-7.97,4.62-3.7,8.38-7.23,11.29-10.59,2.9-3.37,4.93-6.05,6.09-8.07,1.15-2.01,1.9-3.18,2.23-3.51s.5-.64,.5-.94-.02-.56-.05-.79c-.03-.23-.1-.69-.2-1.39-.1-.69-.28-1.44-.54-2.23-.53-1.52-.83-5.08-.89-10.69l-.2-8.42c.13-1.05,.2-3.04,.2-5.94,0-.86,.35-1.29,1.04-1.29s2,.33,3.91,.99c1.91,.66,2.87,1.29,2.87,1.88,0,.2-.07,.43-.2,.69-.73,1.06-1.09,2.18-1.09,3.37s.06,3.02,.2,5.49c.13,2.48,.2,5.03,.2,7.67,0,.53,.2,.79,.59,.79,.92,0,2.01-1.04,3.27-3.12,1.25-2.08,2.39-4.59,3.42-7.52,1.02-2.94,1.95-4.95,2.77-6.04,.82-1.09,2.26-2,4.31-2.72,.2-.06,.54-.26,1.04-.59,.5-.33,.89-.5,1.19-.5s.69,.23,1.19,.69c.5,.46,1.37,1.06,2.62,1.78,.86,.4,1.29,.83,1.29,1.29s-.2,.86-.59,1.19c-2.05,1.58-3.6,3.04-4.65,4.36-1.06,1.32-1.58,2.29-1.58,2.92s.26,.94,.79,.94,2-.5,4.41-1.49c2.41-.99,4.57-1.8,6.48-2.42,1.91-.63,3.02-.94,3.32-.94s.45,.46,.45,1.39-.17,1.77-.5,2.52c-.33,.76-1.44,1.78-3.32,3.07-1.88,1.29-3.85,2.49-5.89,3.61-.53,.26-.79,.66-.79,1.19s.28,1.11,.84,1.73c.56,.63,.84,1.27,.84,1.93s-.54,1.57-1.63,2.72c-1.09,1.16-2.54,1.93-4.36,2.33-1.82,.4-2.92,.59-3.32,.59-.79,0-1.19-.28-1.19-.84s.3-1.27,.89-2.13c1.52-2.11,2.28-3.83,2.28-5.15,0-.53-.35-.91-1.04-1.14-.69-.23-1.57-.35-2.62-.35s-1.98,.3-2.77,.89c-1.98,1.52-4.26,2.44-6.83,2.77-.13,0-.31,.08-.54,.25-.23,.17-.35,.38-.35,.64s.2,.5,.59,.69c2.24,1.12,3.98,2.31,5.2,3.56,1.22,1.25,2.92,2.38,5.1,3.37,1.06,.53,2.67,1.54,4.85,3.02,2.18,1.49,4.44,3.23,6.78,5.25,2.34,2.01,4.57,3.71,6.68,5.1,2.11,1.39,5.56,3.07,10.35,5.05,4.78,1.98,7.84,3.46,9.16,4.46,1.32,.99,1.98,1.78,1.98,2.38Zm-60.29-27.13c0,.4-.1,.73-.3,.99-.2,.26-.68,.51-1.44,.74-.76,.23-1.39,.35-1.88,.35s-1.4-.59-2.72-1.78c-1.32-1.19-2.34-3.99-3.07-8.42-.13-.79-.58-1.86-1.34-3.22-.76-1.35-1.14-2.34-1.14-2.97s.21-1.42,.64-2.38c.43-.96,.78-1.52,1.04-1.68,.26-.16,.86-.25,1.78-.25s2.19,.13,3.81,.4c1.62,.26,2.52,.5,2.72,.69,.2,.2,.3,.48,.3,.84s-.1,.97-.3,1.83c-.2,.86-.3,2.26-.3,4.21s.16,3.38,.5,4.31c1.12,3.1,1.68,5.21,1.68,6.34Z"/></g></svg>