<?xml version="1.0" encoding="utf-8"?>
<!-- Generator: Adobe Illustrator 27.0.0, SVG Export Plug-In . SVG Version: 6.00 Build 0)  -->
<svg version="1.1" xmlns="http://www.w3.org/2000/svg" xmlns:xlink="http://www.w3.org/1999/xlink" x="0px" y="0px"
	 viewBox="0 0 1366 768" style="enable-background:new 0 0 1366 768;" xml:space="preserve">
<style type="text/css">
	.st0{fill:#FFFFFF;}
	.st1{fill:#F0CEB2;}
	.st2{fill:url(#SVGID_1_);}
	.st3{fill:#E6BEA1;}
	.st4{fill:#F1D4BB;}
	.st5{fill:#CCD9E7;}
</style>
<g id="图层_2">
	<rect class="st0" width="1366" height="768"/>
</g>
<g id="图层_1">
	<path class="st1" d="M337.1,753c0,0.7,0.1,1.5,0.3,2.1c0.4-0.5,0.8-1,1.1-1.5C338,753.3,337.5,753.1,337.1,753z"/>
	<path class="st1" d="M1365.1,738.3c0-2.2,0-4.5,0-6.7c0-1.9,0-3.8,0-5.8c0-2.2,0-4.4,0-6.6c0-2.9,0-5.7,0-8.6c0-2.2,0-4.7,0-7.4
		c0-2.7,0-5.5,0-8.3c0-2.6,0-5.2,0-7.8c0-2.3,0-4.7,0-7.1c0-3.2,0-6.3,0-9.5c-5.9,2.5-10.9-0.5-14.9-3.7c-5.3-4.3-10.9-5.3-17.3-5
		c-3.2,0.1-7.7,1.5-9-2.6c-1.4-4.5,4.8-3.9,6.3-7.7c-4.7-2.2-9.4-4.6-15-5.1c-8.7-0.8-12.8-5.5-12.2-13.5c0.3-3.8-2.3-2.9-4.3-3.5
		c-8-2.5-16.2,0.2-24.2-1c-12.1-1.8-23.4,2-35,4.8c-9.6,2.3-18.5-2.5-26.8-7.4c-8-4.7-16.1-9.4-24.2-14c-1.8-1-3.7-1.3-6.3-0.2
		c1.9,3.6,5.9,6.7,1.3,11.4c-3.9,4-7.8,5.1-13,6.2c-15.3,3.4-24.5-7.3-35.5-13.8c-3.3-1.9-6.3-4.2-10.2-2.5
		c-2.9,1.2-5.7,3.3-5.9,6.7c-0.2,3.8,3.6,2.9,5.8,3.6c5.1,1.7,10.3,2.8,15.4,4.5c1.1,0.4,2.5,1.8,2.7,2.9c0.2,1.7-1.5,2-3,2.2
		c-8.1,1.2-16.2,3.4-24.2-0.5c-2.4-1.2-4.8-0.9-7.4-0.4c-11.9,2.4-21.3-1.4-27.5-11.8c-2.9-4.9-7.2-5.9-11.8-7.4
		c-1.4-0.4-2.9-0.4-3.9,0.8c-4.2,4.5-3.3,3-8.6,0.1c-10.5-5.6-17.5-15-26.8-21.7c-1.5-1.1-3.8-1.7-5.6-1.6c-9.8,0.5-19.2-1.6-28.5-4
		c-3.8-1-6.2,0-7.6,3.3c-1.4,3.5-0.2,6,3.5,7.4c1.8,0.7,3.8,1.8,4.7,3.3c1.6,2.5,3.9,5.7,1.5,8.5c-2.9,3.5-5.6,0.2-8.1-1.4
		c-2.1-1.4-4-3.2-6.1-4.5c-2.1-1.3-4.5-3.5-6.8-0.7c-2,2.5,0,5.2,1.7,6.8c4.2,4,8.8,7.6,12.7,12.6c-9.1-2-19.7-1.9-26.9-6.8
		c-6.6-4.4-14.6-8.8-19-15.8c-4.7-7.4-22.4-10-30.3-6.6c-4.5,1.9-1.5,4.5,0.8,6.2c5.7,4.1,11.5,8.1,17.3,12.2
		c1.1,0.8,2.7,1.6,2.1,3.2c-0.9,2.3-2.8,1.3-4.3,0.8c-8.4-3.1-16.8-5.4-24.2-11.7c-6.9-5.8-16.8-7.3-25.9-8.2
		c-2.9-0.3-6.7,0.4-6.9-2.9c-0.7-10.4-9.7-12-16.2-15.3c-20-10.2-41.5-16.8-62.4-24.8C768.7,542,742,533.8,714.5,528
		c-2.2-0.5-7.2,0.3-6-3.9c1.1-3.7,4.7-1,7.3-0.4c11.2,2.8,22.6,5.1,33.7,8.3c18.9,5.4,37.7,11.4,56.6,16.9c5.1,1.5,10.4,1.5,7.7-6.8
		c-0.6-1.8-0.3-4.3,1.6-4c6.3,1.2,5.3-0.9,4-5.5c-0.7-2.3,3.8-2.9,6.1-3.2c5.2-0.8,10.5-1.1,16.3-1.6c-2.2-5-5.7-7.8-10.3-8.7
		c-19.9-4-40-7.2-60-10.9c-25-4.6-50.2-8.1-75.4-10.8c-26.1-2.8-52.4-4.8-78.8-4.4c-37.6,0.6-75.3,0.5-112.9,0
		c-16.4-0.2-32.8-2.1-49.2-1.6c-4,0.1-7.9,0-11,3.3c-1.4,1.5-3.5,2-5.5,1.8c-27-2.6-54.1-0.2-81-3.4c-1.6-0.2-4.1-0.6-4.6-1.6
		c-5.5-11.2-15.1-7.8-23.9-7.1c-2.9,0.2-5.6-0.2-8.3-1.1c-13.6-4.2-27.8-4.9-41.7-7c-4.1-0.6-8.5,0.2-12.7,0.7
		c-2,0.2-4.2,1.4-4.8-1.5c-0.5-2.4,1.4-4.2,3.4-4c12.5,1.3,23.7-5.8,35.9-5.4c15.3,0.5,30.1-3.3,45.3-3.2
		c34.1,0.1,68.1-2.8,102.2,0.8c12.1,1.3,24.9-0.3,37.2-1.7c13.9-1.5,27.6-2,41.4,0.6c26.9,5.1,53.9,9.5,80.6,15.8
		c10.3,2.4,19.9,3.2,30,1.1c-0.6-0.9-1-2.6-1.7-2.7c-12.7-1.5-19.9-12-29.7-18.2c-5.3-3.3-3.6-5.8,0.7-8.1
		c-8.5-3.7-17.7-1.2-26.5-3.1c-13.7-3-28.1-2.4-41.9-4.2c-15.9-2.2-32.1-2.7-48.6-7.9c5-3,9.9-2.5,14.1-1.4c8.3,2.2,17,0,25.1,2.8
		c1.6,0.5,3.4-0.2,4.6-1.5c9.2-3.2,18.9-2.8,28.3-3.2c23.7-0.8,47.5-1,71.3,1.4c3.5,0.3,6.3,0.7,6,5.1c15.6,1.1,30.8-2.1,46.4-3
		c-4.2-3-9-1.4-13.4-2.1c-3.3-0.5-4.5-1.7-0.5-3.4c-0.4-0.8-0.7-2.1-1.1-2.2c-11.2-0.3-20.7-5.9-30.9-9.4c-4.3-1.5-9.4-1-13.4,3
		c-3.2,3.2-7.1,3.6-11.7,2.6c-5.2-1.1-10.7-0.6-16-0.8c-2.7-0.1-5.9,0.8-6.9-3.1c-8,0-16,0-23.9,0c-0.7,2.8-2.8,3.3-5.3,3.2
		c-28.9-1-57.5,5.3-86.4,3.7c-8-0.4-14.8-4.8-23-3.9c-18.5,2.1-37,5.2-55.7,3.6c-0.6,0.9-1.1,2.5-1.8,2.6
		c-15.5,2.4-30.4,8.4-46.4,7.6c-4.7-0.2-9.6-0.5-13.6,3c0.3,0.6,0.5,1.2,0.8,1.5c3.2,2.1,9.6-2,10,3c0.3,4.2-6.1,3-9.3,3.7
		c-26.7,5.5-52.3,16.5-80.2,16.1c-1.1,0-2.4-0.2-3.4,0.2c-20.7,8.9-41.9,3.6-62.4,0.8c-16.8-2.3-33.4,0-50-2.4
		c-13.7-1.9-27.5-0.7-41.3-5.5c-7.9-2.8-18.2,0.1-27.5-1.5c-23.2-4-46.7-3.9-70.2-3.5v15.4c17.9,2.8,35.6,6.8,53.6,8
		c24.3,1.7,48.3,6.5,72.8,5.7c24.3-0.7,48.5,2.5,72.6,4.4c13.4,1.1,28.2,2.6,41.4,9.2c16.7,8.4,35.8,8.7,53.8,9.6
		c31.3,1.6,62.6,5.1,94.1,3.7c1.4-0.1,2.8,0.3,4.4-1.5c-7.3-3.6-16.4-1.5-21.5-6.5c11,0,23-1.2,34.7,0.4c10.7,1.4,21.4,1.4,32.1,2.5
		c18.3,1.9,36.8,0.7,55.1,2.3c25.5,2.3,51.1,0.1,76.5,1.8c17.4,1.2,35.1,0.7,52.3,4.7c1.8,0.4,4.4-0.1,4.4,2.8
		c0,2.2-2.3,1.9-3.8,2.6c-0.2,0.1-0.4,0.2-0.5,0.3c-4,2.1-9.1,7.8-12,11.2c-0.1,0.2-0.3,0.3-0.4,0.5c-0.2,0.3-0.4,0.5-0.6,0.8
		c-0.2,0.2-0.3,0.4-0.5,0.6c-0.3,0.4-0.5,0.6-0.6,0.8c0,0-0.1,0.1-0.1,0.1c-2.7,6.1-5.5,11.8-8.4,17.2c-4.5,8.3-9.1,15.9-13.8,22.8
		C572.6,593.3,557,608,544,618c-8.7,6.7-17.9,12.4-27.6,17.4c-7.8,4.1-15.8,7.7-23.9,11c-2.3,0.9-4.6,1.8-7,2.7
		c-10.2,3.9-20.5,7.3-30.8,10.5c-19.3,6.1-39.9,8.7-58.2,17.8c-12.3,6.2-23.5,15.6-29.2,28.2c-2.8,6.2-4.3,13.3-6.7,19.7
		c-0.4,1.2-0.9,2.3-1.4,3.4c-1.9,4-4.3,7.6-8,10.3c-1.6,1.2-3.3,2.1-5.1,3.1c-1.2,0.7-2.5,1.4-3.7,2.2c-2.8,2-5.3,4.8-5.4,8.2
		c0,0.1,0,0.2,0,0.3c0.5,0.2,1,0.4,1.5,0.6c-0.4,0.5-0.8,1-1.1,1.5c0.6,2.2,2.1,4.2,3.8,5.7c4.6,4.3,10.7,6.2,17,7
		c4.5,0.6,9.1,0.6,13.5,0.6c33.8,0,67.6-0.4,101.3-0.4h101c40,0,80,0,120.1,0c43.6,0,87.1,0,130.7,0c44.3,0,88.7,0,133,0
		c42.3,0,84.6,0,127,0c37.5,0,75,0,112.6,0c29.9,0,59.9,0,89.8,0c19.6,0,39.1,0,58.7,0c0.9,0,19.3,0,19.3,0
		C1365.2,758,1365.2,748.2,1365.1,738.3z M339.3,493.8c8.7,1.2,17.4,2.4,26.2,3.6C356.5,498.6,347.6,498,339.3,493.8z M561,497
		c-1.1,0-2.1,0-3.2,0.1c-1.3,0-2.5,0.1-3.8,0.1c-1.9,0.1-3.8,0.2-5.8,0.3c-9.4,0.5-18.7,1.4-28.1,1.7c-1,0-2,0.1-3,0.1
		c-5.1,0.2-10.3,0.2-15.4,0c-0.4,0-0.9,0-1.3-0.1c-0.5,0-0.9,0-1.4-0.1c-0.8,0-1.5-0.1-2.3-0.1c-1-0.1-2-0.2-3-0.3
		c-0.9-0.1-1.7-0.2-2.6-0.3c-0.2,0-0.5,0-0.7-0.1c-0.7-0.1-1.3-0.2-2-0.3c-2.2-0.3-4.5-0.7-6.7-1.1H561c0.5,0,1.1,0,1.6,0
		c2.7,0,5.3,0,8,0H561z"/>
	
		<linearGradient id="SVGID_1_" gradientUnits="userSpaceOnUse" x1="680.9183" y1="779.7141" x2="694.7297" y2="-11.5431" gradientTransform="matrix(1 0 0 -1 0 768)">
		<stop  offset="0" style="stop-color:#9FB5D0"/>
		<stop  offset="0.4452" style="stop-color:#D8E4F0"/>
	</linearGradient>
	<path class="st2" d="M1365.2,767.8c0-9.8-0.1-19.7-0.1-29.5c0-2.2,0-4.5,0-6.7c0-1.9,0-3.8,0-5.8c0-2.2,0-4.4,0-6.6
		c0-2.9,0-5.7,0-8.6c0-2.5,0-4.9,0-7.4c0-2.8,0-5.5,0-8.3c0-2.6,0-5.2,0-7.8c0-2.3,0-4.7,0-7.1c0-3.2,0-6.3,0-9.5
		c0-54.1,0-108.1,0-162.2c0-6.3,0-12.5,0-18.8c0-7.9,0-15.8,0-23.6c0-2.9,0-5.7,0.1-8.6c0-4.6,0-9.2,0-13.8c0-5.1,0-10.1,0-15.2
		c0.1-4.8-0.1-9.7,0.2-14.5c0.4-5.2-1.4-6.8-6.8-8.1c-39.2-9.1-79.3-7.1-119-9.4c-26.5-1.5-53.1-2.2-79.5-5.8
		c-10.6-1.4-20.9-2.9-31.9-2.3c-17.7,1-35.2,6.7-53,4c-13.8-2.1-27.7-1.2-41.6-1.5c-6.2-0.1-12.4-0.6-18.6-1.2
		c-6.6-0.6-12.7-4.6-19.1-3.4c-19.8,3.7-39.8,3.1-59.8,3.1c-25.2,0-50.4-3.1-75.6-2c-2.2,0.1-4.5-0.1-6.8-0.5
		c-11.3-2.2-22.9-2.5-33.9-0.6c-29.2,5-58.5,10.1-85.6,23.3c-5.5,2.7-11.3,3-17.2,3.6c-14.5,1.6-28.9,4.4-43.4,6.7
		c-2.2-0.5-4.5-1.1-6.7-1.6c-6-3-12-5.6-18.9-4.9c-8.5-0.8-17-1.1-25.1,1.7c-10,3.4-20.4,3.8-30.8,4.9c-8,0-16,0-23.9,0
		c-12.4-3.2-25.1-3.3-37.8-3.8c-11.1-0.4-22.3-0.9-33.3-2c-21-2-42.2-2.1-63.1-6.4c-5-1-9.6-3.1-14.8-3.5c-26-1.9-50,6.3-74.1,13.9
		c-6.3,0-12.6,0-18.9-0.1c-6-3.7-12.5-1.2-18.8-1.6c-8.5-0.2-17-0.4-25.4-0.7c-1.4-4.6-4.4-1-6.6-1.3c-1.6-0.5-3.1-1.2-4.7-1.6
		c-17.3-3.9-34.2,0.1-51.2,2.2c-13.4,1.7-26.7,6.9-40.7,1.2c-13.2-5.3-26.8-3.6-40.7-0.8c-13.6,2.8-27.4,0.2-40.2-6.1
		c-13.2-1.2-26.4-1.8-39.4,0.6c-18.5,3.4-36.8,8.4-55.8,4.4V259.5C2.2,175.7,2.3,91.9,2,8.1C2,0.8,4,0,10.5,0
		c206.8,0.2,413.6,0.2,620.4,0.2h734.3c3.5,1.5,1.6,4.6,1.6,6.8c0.1,70.8,0.1,141.6,0.1,212.4c0,180.3,0,360.5-0.1,540.8
		C1366.8,762.7,1368.8,765.9,1365.2,767.8z"/>
	<path class="st3" d="M628.5,514.7c0,2.2-2.3,1.9-3.8,2.6c-0.2,0.1-0.4,0.2-0.5,0.3c-5.1,2.5-8.6,7-12,11.2
		c-0.1,0.2-0.3,0.3-0.4,0.5c-0.2,0.3-0.4,0.5-0.6,0.8s-0.4,0.4-0.5,0.6c-0.3,0.4-0.5,0.6-0.6,0.8c0,0-0.1,0.1-0.1,0.1
		c-2.7,6.1-5.5,11.8-8.4,17.2c-4.5,8.3-9.1,15.9-13.8,22.8C572.6,593.3,557,608,544,618c-8.7,6.7-17.9,12.4-27.6,17.4
		c-7.8,4.1-15.8,7.7-23.9,11c-2.3,0.9-4.6,1.8-7,2.7c-10.2,3.9-20.5,7.3-30.8,10.5c-19.3,6.1-39.9,8.7-58.2,17.8
		c-12.3,6.2-23.5,15.6-29.2,28.2c-2.8,6.2-4.3,13.3-6.7,19.7c-0.4,0.4-0.9,0.8-1.4,1.1c-1.1,0.8-0.9,1.5,0,2.3
		c-1.9,4-4.3,7.6-8,10.3c-1.6,1.2-3.3,2.1-5.1,3.1c-1.2,0.7-2.5,1.4-3.7,2.2c-2.8,2-5.3,4.8-5.4,8.2c0,0.1,0,0.2,0,0.3
		c0,0.7,0.1,1.5,0.3,2.1c0.6,2.2,2.1,4.2,3.8,5.7c4.6,4.3,10.7,6.2,17,7c-116.4,0-232.8-0.1-349.2,0.2c-5.8,0-7-1.2-7-7
		c0.2-97.8,0.2-195.6,0.2-293.4c17.9,2.8,35.6,6.8,53.6,8c24.3,1.7,48.3,6.5,72.8,5.7c24.3-0.7,48.5,2.5,72.6,4.4
		c13.4,1.1,28.2,2.6,41.4,9.2c16.7,8.4,35.8,8.7,53.8,9.6c31.3,1.6,62.6,5.1,94.1,3.7c1.4-0.1,2.8,0.3,4.4-1.5
		c-7.3-3.6-16.4-1.5-21.5-6.5c11,0,23-1.2,34.7,0.4c10.7,1.4,21.4,1.4,32.1,2.5c18.3,1.9,36.8,0.7,55.1,2.3
		c25.5,2.3,51.1,0.1,76.5,1.8c17.4,1.2,35.1,0.7,52.3,4.7C626,512.3,628.5,511.8,628.5,514.7z"/>
	<path class="st3" d="M352,419.9c-2.5-0.2-5.1,0.4-7.2-1.5c-6.3,0-12.6,0-18.9-0.1c-6.5,1.6-13,4.1-18.8-1.6
		c-8.5-0.2-17-0.4-25.4-0.7c-2.3,0.2-4.8,0.9-6.6-1.3c-1.6-0.5-3.1-1.2-4.7-1.6c-17.3-3.9-34.2,0.1-51.2,2.2
		c-13.4,1.7-26.7,6.9-40.7,1.2c-13.2-5.3-26.8-3.6-40.7-0.8c-13.6,2.8-27.4,0.2-40.2-6.1c-13.2-1.2-26.4-1.8-39.4,0.6
		c-18.5,3.4-36.8,8.4-55.8,4.4v37.5c23.5-0.4,47-0.4,70.2,3.5c9.3,1.6,19.6-1.3,27.5,1.5c13.8,4.9,27.6,3.6,41.3,5.5
		c16.6,2.4,33.2,0,50,2.4c20.5,2.9,41.8,8.1,62.4-0.8c1-0.4,2.2-0.2,3.4-0.2c27.9,0.4,53.5-10.6,80.2-16.1c3.2-0.6,9.6,0.5,9.3-3.7
		c-0.4-5-6.9-0.9-10-3c-0.4-0.3-0.5-0.9-0.8-1.5c4-3.5,8.9-3.2,13.6-3c16,0.8,30.9-5.2,46.4-7.6c0.7-0.1,1.2-1.7,1.8-2.6
		C382.6,422.1,367.3,420.9,352,419.9z M194.6,436.4c33.6-0.9,67.4-3.2,100.8,3.3C288.4,444,217.9,442.5,194.6,436.4z M302.2,441.5
		l-0.6-0.4l0.7-0.2L302.2,441.5z M347.3,426.1c-0.6,4-3.4,8-8,8.7c-4.4,0.7-9.1,0.8-13.5,0.1c-10.1-1.5-20.1-3.6-30.2-5.5
		c15.6-0.9,30.8-2.9,46-5.9C344,423.1,347.9,422.5,347.3,426.1z"/>
	<path class="st4" d="M793.5,444c24.7,1.8,49.4,2.4,74.1,3.2c26.6,0.9,53.2,2.9,79.7,3.1c22.3,0.1,44.7-2.2,67-2.6
		c31.7-0.6,63.4-0.3,95.1-0.6c20.6-0.3,41.1-1.9,61.6-2.7c14.3-0.6,28.3-3.3,42.6-4c2.3,0,4.6,0,6.8,0c4,0,7.9,0,11.9,0
		c13.6-5.3,28.2-6,42.3-6.4c30.2-0.9,60.2-4.1,90.3-5.4c0.1-4.8-0.1-9.7,0.2-14.5c0.4-5.2-1.4-6.8-6.8-8.1
		c-39.2-9.1-79.3-7.1-119-9.4c-26.5-1.5-53.1-2.2-79.5-5.8c-10.6-1.4-20.9-2.9-31.9-2.3c-17.7,1-35.2,6.7-53,4
		c-13.8-2.1-27.7-1.2-41.6-1.5c-6.2-0.1-12.4-0.6-18.6-1.2c-6.6-0.6-12.7-4.6-19.1-3.4c-19.8,3.7-39.8,3.1-59.8,3.1
		c-25.2,0-50.4-3.1-75.6-2c-2.2,0.1-4.5-0.1-6.8-0.5c-11.3-2.2-22.9-2.5-33.9-0.6c-29.2,5-58.5,10.1-85.6,23.3
		c-5.5,2.7-11.3,3-17.2,3.6c-14.5,1.6-28.9,4.4-43.4,6.7c1.1,3.7,4.2,3.4,6.9,3.2c6.1-0.5,11.6,0.8,17.4,5
		c-8.8,3.5-17.5,1.2-25.9,1.8c-4,1.7-2.9,2.8,0.5,3.4c4.4,0.7,9.2-0.9,13.4,2.1c-15.5,0.9-30.8,4.1-46.4,3
		c-35.2-1.9-70.3-4-105.5-3.3c-1.2,1.4-3,2.1-4.6,1.5c-8.2-2.8-16.8-0.7-25.1-2.8c-4.1-1.1-9.1-1.6-14.1,1.4
		c16.5,5.1,32.8,5.7,48.7,7.9c13.8,1.9,28.2,1.2,41.9,4.2c8.8,2,18-0.6,26.5,3.1c3.4,0,6.8,0,10.2,0c7.6,0,15.3,0.1,22.9,0
		c3.6,0,6.2,0.8,6.1,5c5.1-0.5,10.2-1,15.2-1.6c4.5,0,9.1-0.1,13.6,0c2.8,0,5.9-0.6,6.9,3.3c2.8,0,5.6,0,8.5,0
		c0.2-1,0.4-2.3,1.7-2.3c1.3,0,1.5,1.3,1.7,2.3c3.4,0,6.8,0,10.2,0c2.3-2.1,4.5-2.1,6.8,0c10.2,1.8,20.4,2,30.7,1.7
		c6.2-3.2,12.9-2.1,19.1-1.2c14.3,2,28.6,2.5,43,3.3c17.5,0.9,34.9,3.6,52.3,6.6c-16,1.3-31.9,4.2-48,3.4
		c-34.5,0.5-69,2.7-103.4,5.4c-22.3,1.8-44.7,1-66.9,3.1c-10.1,2.1-19.7,1.3-30-1.1c-26.6-6.3-53.7-10.7-80.6-15.8
		c-13.8-2.6-27.5-2.1-41.4-0.6c-12.3,1.3-25.1,2.9-37.2,1.7c-34.1-3.6-68.2-0.7-102.2-0.8c-15.2,0-30.1,3.7-45.3,3.2
		c-12.2-0.4-23.4,6.7-35.9,5.4c-2-0.2-3.9,1.6-3.4,4c0.6,2.9,2.8,1.7,4.8,1.5c4.2-0.4,8.6-1.3,12.7-0.7c14,2.1,28.1,2.8,41.7,7
		c2.8,0.9,5.4,1.3,8.3,1.1c8.8-0.7,18.5-4,23.9,7.1c0.5,1,3,1.4,4.6,1.6c26.9,3.2,54.1,0.9,81,3.4c2,0.2,4.1-0.3,5.5-1.8
		c3.1-3.3,7-3.2,11-3.3c16.5-0.5,32.8,1.4,49.2,1.6c37.6,0.5,75.3,0.6,112.9,0c26.4-0.4,52.7,1.6,78.8,4.4
		c25.2,2.7,50.4,6.1,75.4,10.8c20,3.7,40.1,7,60,10.9c4.6,0.9,8,3.7,10.3,8.7c-5.9,0.5-11.1,0.8-16.3,1.6c-2.3,0.4-6.8,1-6.1,3.2
		c1.4,4.6,2.3,6.8-4,5.5c-1.9-0.4-2.2,2.2-1.6,4c2.6,8.2-2.6,8.2-7.7,6.8c-18.9-5.4-37.7-11.5-56.6-16.9
		c-11.1-3.2-22.5-5.5-33.7-8.3c-2.6-0.7-6.2-3.3-7.3,0.4c-1.2,4.2,3.8,3.5,6,3.9c27.5,5.8,54.2,14,80.4,24.1
		c20.9,8,42.4,14.6,62.4,24.8c6.5,3.3,15.5,4.9,16.2,15.3c0.2,3.3,4,2.6,6.9,2.9c9.2,0.9,19.1,2.4,25.9,8.2
		c7.4,6.3,15.8,8.6,24.2,11.7c1.5,0.5,3.4,1.6,4.3-0.8c0.6-1.6-1-2.4-2.1-3.2c-5.8-4.1-11.6-8.1-17.3-12.2c-2.4-1.7-5.3-4.3-0.8-6.2
		c7.9-3.4,25.6-0.8,30.3,6.6c4.5,7,12.5,11.4,19,15.8c7.2,4.9,17.8,4.7,26.9,6.8c-3.9-5-8.5-8.5-12.7-12.6c-1.7-1.6-3.7-4.2-1.7-6.8
		c2.2-2.8,4.7-0.5,6.8,0.7c2.2,1.3,4,3.2,6.1,4.5c2.5,1.6,5.2,4.9,8.1,1.4c2.3-2.9,0-6-1.5-8.5c-0.9-1.5-2.9-2.6-4.7-3.3
		c-3.6-1.5-4.8-4-3.5-7.4c1.3-3.3,3.8-4.3,7.6-3.3c9.3,2.4,18.7,4.5,28.5,4c1.9-0.1,4.1,0.5,5.6,1.6c9.3,6.8,16.3,16.1,26.8,21.7
		c5.3,2.8,4.4,4.4,8.6-0.1c1.1-1.2,2.6-1.2,3.9-0.8c4.5,1.5,8.9,2.5,11.8,7.4c6.2,10.4,15.6,14.1,27.5,11.8c2.6-0.5,5.1-0.8,7.4,0.4
		c8,3.9,16.1,1.7,24.2,0.5c1.5-0.2,3.2-0.5,3-2.2c-0.2-1.1-1.5-2.6-2.7-2.9c-5.1-1.7-10.3-2.8-15.4-4.5c-2.2-0.7-5.9,0.2-5.8-3.6
		c0.2-3.4,3-5.4,5.9-6.7c3.9-1.7,6.9,0.7,10.2,2.5c11.1,6.4,20.2,17.2,35.5,13.8c5.2-1.2,9.1-2.3,13-6.2c4.6-4.7,0.6-7.8-1.3-11.4
		c2.6-1.2,4.5-0.8,6.3,0.2c8.1,4.6,16.1,9.3,24.2,14c8.3,4.9,17.3,9.6,26.8,7.4c11.6-2.8,22.9-6.6,35-4.8c8.1,1.2,16.2-1.5,24.2,1
		c2,0.6,4.6-0.3,4.3,3.5c-0.6,8,3.4,12.6,12.2,13.5c5.6,0.5,10.3,2.9,15,5.1c-1.5,3.8-7.8,3.2-6.3,7.7c1.3,4.1,5.8,2.7,9,2.6
		c6.4-0.3,12,0.8,17.3,5c4,3.2,9,6.2,14.9,3.7c0-54.1,0-108.1-0.1-162.2c-32.8,4.5-64.5-4.2-96.7-8.1c-8.6-1-17.4-0.9-25.7-3.8
		c-20.4-2.5-40.8-5.1-61.2-7.5c-17.6-2.1-35.2-4.2-52.9-6c-21.6-2.3-43.2-4.3-64.7-6.5c-7.6-0.8-15.2-1.1-22.8-1.7
		c-9.8-0.8-19.7-1.4-29.5-2c-7-0.4-14.1-0.7-21.1-1c-2.8-0.1-5.6-0.3-8.5-0.4s-5.6-0.3-8.4-0.4h-22.4c0-0.9-0.1-1.7-0.1-2.6
		c5.9-0.8,11.7-2.1,17.6-2.4c43.1-2.5,86.2-1.5,129.3-1.9c10.1-0.1,20.3-1.7,30.4-2.3c10-0.6,20.2-0.9,29.9,0
		c10.1,0.9,19.7-1.2,29.5-1c20.7,0.3,41.3-0.1,62,0.1c38.5,0.3,76.9-4.6,115.5-3.4c0-4.6,0-9.2,0-13.8c-19.5-0.9-38.6,1.6-57.2,7.2
		c-5.8,1.8-11.7,1.2-17.5,1.4c-36.8,2.9-73.6,2.2-110.4,3.9c-53,2.5-106,4.2-159,2.5c-33.8-1.1-67.5,0.6-101.2-1.6
		c-25-1.6-49.9-0.2-74.8-1.5c-31.1-1.7-62.2-2.6-93.4-3.5c-27.1-0.8-54.2-3.3-81.3-5.1c-0.7,0-1.4-0.6-3.3-1.4
		c5.8-3.5,11.2-5,17.1-5.2C720.6,439,757.1,441.3,793.5,444z M1302,421.8c9.8-0.2,19.6-1.1,29.2,2.4H1302
		C1302,423.4,1302,422.6,1302,421.8z M1088.2,433.3c-3.1,2.8-5.2,1.4-8.3,2.1C1083,432.6,1085.1,434,1088.2,433.3z M1097.6,438.7
		c10,0.1,20.2-0.6,30,3.1c-47.2,2.9-94.4,1.6-141.6,1.8c-1.9,0-4.6,0.5-5-2c-0.6-3.5,2.7-2.8,4.7-3.4c4.8-1.6,9.5,0.5,14.2,0.5
		C1032.5,438.5,1065.1,438.4,1097.6,438.7z M808.9,432.1c7.8-2.6,16.4-0.9,24-6.5c4.9-3.6,11.7,0.9,18.2-0.1
		c37.5-5.9,75-11.7,113.1-9c15.7,1.1,31.5,1.9,46.7,6.7c1.7,0,3.3,0,5,0c1.9-0.1,3.8-0.1,5.2,1.6c1.7,0,3.4,0,5,0
		c2.1,0.1,3.3,1.2,3.5,3.3c8.2-0.6,15.8,2.7,23.9,3.4c7.1-2.2,13.7,1.4,20.7,1.2c-6.8,3.5-13.9,1.8-20.8,2.2
		c-17.6,0.4-35.2-0.2-52.7-1.7c-5.7,0.3-11,0-16.2-3.4c-3.4-2.2-8.1-3.1-12.2-3.2c-33.4-0.7-66.8,0.9-100.2,2.8
		c-21.8,1.2-43.2,5.1-65,5.6c-7.9,0.2-15.6,2.9-24.2,1.1C791.3,431.2,800.6,434.9,808.9,432.1z M1158.3,611.2
		c1.9-0.2,3.9-0.3,5.8-0.5c3.8-0.3,7.2,0.9,10.4,2.8c1.9,1.1,4.7,1.8,4,4.7c-0.8,3.1-3.8,3.3-6.2,2.7c-5.1-1.4-9.2-5.4-14.7-5.5
		c-0.4,0-1.2-1.2-1.2-1.9C1156.3,612.2,1157.1,611.4,1158.3,611.2z M1096.2,613.1c6.5-1.5,11.7,2.7,17.2,5.3
		c1.3,0.6,1.3,2.5,0.5,3.8c-1.7,2.6-3.5,5.2-7,5.4c-1.6,0.1-3.3-0.5-3.9-0.7c-2.3,0.3-3.8,0.8-5.1,0.6c-4.4-0.8-7.1-4.1-7.9-7.9
		C1088.9,615.4,1093.3,613.8,1096.2,613.1z M967.3,598.9L967.3,598.9c-0.3,0.3-0.7,0.6-1,0.9c-0.2-0.4-0.5-0.8-0.6-1.2
		c0-0.1,0.5-0.5,0.6-0.4c0.1,0,0.2,0.1,0.3,0.2s0.2,0.1,0.3,0.2c0.1,0.1,0.2,0.2,0.3,0.2C967.2,598.7,967.3,598.8,967.3,598.9
		L967.3,598.9L967.3,598.9z M939.5,468.1l-0.1,0.6l-0.6-0.4L939.5,468.1z"/>
	<path class="st3" d="M808,471c-34.5,0.5-69,2.7-103.4,5.4c-22.3,1.8-44.7,1-66.9,3.1c-0.6-0.9-1-2.6-1.7-2.7
		c-12.7-1.5-19.9-12-29.7-18.2c-5.3-3.3-3.6-5.8,0.7-8.1c3.4,0,6.8,0,10.2,0c0.6,2.8,2.5,3.5,5,3.4c8.1-0.5,16.1,0.7,24,1.6
		c5.1-0.5,10.2-1,15.2-1.6c0.9,3.7,3.8,3.3,6.5,3.4c4.7,0,9.3-0.1,14-0.1c2.8,0,5.6,0,8.5,0c1.2,0,2.3,0,3.5,0c3.4,0,6.8,0,10.2,0
		c2.2,2.3,4.5,2.3,6.8,0c10.2,1.8,20.4,2,30.7,1.7c14.4,1.7,28.8,3.1,43.2,5.3C792.8,465.5,801.3,465.2,808,471z"/>
	<path class="st4" d="M567.9,420c-0.7,2.8-2.8,3.3-5.3,3.2c-28.9-1-57.5,5.3-86.4,3.7c-8-0.4-14.8-4.8-23-3.9
		c-18.5,2.1-37,5.2-55.7,3.6c-14.8-4.6-30.1-5.8-45.5-6.8c-2.5-0.2-5.1,0.4-7.2-1.5c24.1-7.6,48.1-15.8,74.1-13.9
		c5.2,0.4,9.8,2.5,14.8,3.5c20.8,4.2,42,4.4,63.1,6.4c11,1,22.2,1.5,33.3,2C542.8,416.7,555.5,416.8,567.9,420z"/>
	<path class="st3" d="M697.7,428.2c-8.8,3.5-17.5,1.2-25.9,1.8c-0.4-0.8-0.7-2.1-1.1-2.2c-11.2-0.3-20.7-5.9-30.9-9.4
		c-4.3-1.5-9.4-1-13.4,3c-3.2,3.2-7.1,3.6-11.7,2.6c-5.2-1.1-10.7-0.6-16-0.8c-2.7-0.1-5.9,0.8-6.9-3.1c10.3-1,20.8-1.4,30.8-4.9
		c8.2-2.8,16.7-2.5,25.1-1.7c5.9,3.3,11.6,7.3,18.9,4.9c2.2,0.5,4.5,1.1,6.7,1.6c1.1,3.7,4.2,3.4,6.9,3.2
		C686.4,422.7,691.9,423.9,697.7,428.2z"/>
	<path class="st3" d="M639.3,438.5c-35.2-1.9-70.3-4-105.5-3.3c9.2-3.2,18.9-2.8,28.3-3.2c23.7-0.8,47.5-1,71.3,1.4
		C636.8,433.8,639.6,434.1,639.3,438.5z"/>
	<path class="st3" d="M561,497c-1.1,0-2.1,0-3.2,0.1c-1.3,0-2.5,0.1-3.8,0.1c-1.9,0.1-3.8,0.2-5.8,0.3c-9.4,0.5-18.7,1.4-28.1,1.7
		c-1,0-2,0.1-3,0.1c-5.1,0.2-10.3,0.2-15.4,0c-0.4,0-0.9,0-1.3-0.1c-0.5,0-0.9,0-1.4-0.1c-0.8,0-1.5-0.1-2.3-0.1c-1-0.1-2-0.2-3-0.3
		c-0.9-0.1-1.7-0.2-2.6-0.3c-0.2,0-0.5,0-0.7-0.1c-0.7-0.1-1.3-0.2-2-0.3c-2.2-0.3-4.5-0.7-6.7-1.1H561z"/>
	<path class="st3" d="M570.6,497H561c0.5,0,1.1,0,1.6,0C565.3,496.9,567.9,496.9,570.6,497z"/>
	<path class="st3" d="M365.5,497.4c-9,1.2-17.8,0.6-26.2-3.6C348,495,356.8,496.2,365.5,497.4z"/>
	<path class="st3" d="M1364.9,466c0,7.9,0,15.8,0,23.6c-31.3,3.5-62.9,2.1-94.2,4.8c-9.4,0.8-19-1.1-28.2,2.1
		c-20.4-2.5-40.8-5.1-61.2-7.5c-17.6-2.1-35.2-4.2-52.9-6c-21.6-2.3-43.2-4.3-64.7-6.5c-7.6-0.8-15.2-1.1-22.8-1.7
		c-9.8-0.8-19.7-1.4-29.5-2c-7-0.4-14.1-0.7-21.1-1c-5.6-0.3-11.3-0.5-16.9-0.8c0,0,0,0,0,0c10.1-2.9,20.5-3.2,30.8-3.3
		c54.6-0.4,109.3-0.2,163.9-0.2c37,0,74.1,0.3,111.1-0.1C1307.8,467.1,1336.3,464.9,1364.9,466z"/>
	<path class="st1" d="M1365,457.4c0,2.9,0,5.7-0.1,8.6c-28.6-1.1-57.2,1.1-85.8,1.5c-37,0.4-74.1,0.1-111.1,0.1
		c-54.6,0-109.3-0.2-163.9,0.2c-10.3,0.1-20.7,0.4-30.8,3.3c0,0,0,0,0,0c-7.5,0-14.9,0-22.4,0c0-0.9-0.1-1.7-0.1-2.6
		c5.9-0.8,11.7-2.1,17.6-2.4c43.1-2.5,86.2-1.5,129.3-1.9c10.1-0.1,20.3-1.7,30.4-2.3c10-0.6,20.2-0.9,29.9,0
		c10.1,0.9,19.7-1.2,29.5-1c20.7,0.3,41.3-0.1,62,0.1C1288.1,461.1,1326.4,456.2,1365,457.4z"/>
	<path class="st1" d="M1364.9,489.6c0,6.3,0,12.5,0,18.8h0c-32.8,4.5-64.5-4.2-96.7-8.1c-8.6-1-17.4-0.9-25.7-3.8
		c9.2-3.2,18.8-1.3,28.2-2.1C1302.1,491.8,1333.6,493.1,1364.9,489.6z"/>
	<path class="st1" d="M1365,443.6c-19.5-0.9-38.6,1.6-57.2,7.2c-5.8,1.8-11.7,1.2-17.5,1.4c0.4-3.9,3.1-4.7,6.5-5.2
		c5-0.7,9.4-2.9,13.9-7.2c-14.4-3.7-27.7-1.2-40.9-0.2c-12.5,1-24.9,1-37.4,0.8c13.6-5.3,28.2-6,42.3-6.4
		c30.2-0.9,60.2-4.1,90.3-5.4C1364.9,433.5,1364.9,438.6,1365,443.6z"/>
	<path class="st4" d="M325.9,418.2c-6.5,1.6-13,4.1-18.8-1.6C313.4,417,319.9,414.6,325.9,418.2z"/>
	<path class="st4" d="M666.7,418.4c-7.3,2.4-13.1-1.6-18.9-4.9C654.6,412.7,660.7,415.4,666.7,418.4z"/>
	<path class="st5" d="M281.6,416c-2.3,0.2-4.8,0.9-6.6-1.3C277.2,415.1,280.3,411.4,281.6,416z"/>
	<path class="st1" d="M194.6,436.4c33.6-0.9,67.4-3.2,100.8,3.3C288.4,444,217.9,442.5,194.6,436.4z"/>
	<path class="st1" d="M295.7,429.5c15.6-0.9,30.8-2.8,46-5.9c2.3-0.5,6.2-1.1,5.7,2.6c-0.6,4-3.4,8-8,8.7c-4.4,0.7-9.1,0.8-13.5,0.1
		C315.8,433.5,305.7,431.3,295.7,429.5z"/>
	<polygon class="st1" points="301.6,441.1 302.3,440.9 302.2,441.5 	"/>
	<path class="st3" d="M1232.3,440.2c12.5,0.3,25,0.2,37.4-0.7c13.2-1,26.5-3.5,40.9,0.2c-4.5,4.4-8.9,6.5-13.9,7.2
		c-3.4,0.5-6.1,1.3-6.5,5.2c-36.7,2.9-73.6,2.2-110.4,3.9c-53,2.5-106,4.2-159,2.5c-33.8-1.1-67.5,0.6-101.2-1.6
		c-25-1.6-49.9-0.2-74.8-1.5c-31.1-1.7-62.2-2.6-93.4-3.5c-27.1-0.8-54.2-3.3-81.3-5.1c-0.7,0-1.4-0.6-3.3-1.4
		c5.8-3.5,11.2-5,17.1-5.2c36.6-1.4,73.1,1,109.5,3.7c24.7,1.8,49.4,2.4,74.1,3.2c26.6,0.9,53.2,2.9,79.7,3.1
		c22.3,0.1,44.6-2.2,67-2.6c31.7-0.6,63.4-0.3,95.1-0.6c20.6-0.3,41.1-1.9,61.6-2.7c14.3-0.6,28.3-3.3,42.6-4c2.3,4.6,4.6,4.7,6.8,0
		C1224.3,440.3,1228.3,440.3,1232.3,440.2z"/>
	<path class="st1" d="M1000.7,433.4c-5.7,0.3-11,0-16.2-3.4c-3.4-2.2-8.1-3.1-12.2-3.2c-33.4-0.7-66.8,0.9-100.2,2.8
		c-21.8,1.2-43.2,5.1-65,5.6c-7.9,0.2-15.6,2.9-24.2,1.1c8.4-5.1,17.7-1.5,26-4.2c7.8-2.6,16.4-0.9,24-6.5
		c4.9-3.6,11.7,0.9,18.2-0.1c37.5-5.9,75-11.7,113.1-9c15.7,1.1,31.5,1.9,46.7,6.7c-5.1,4.2-10.2-1.1-15.3,0
		c-1.8,0.4-4.2-0.1-4.5,2.6c-0.2,2,1.6,2.7,3.1,3.5C996.5,430.4,1000,429.6,1000.7,433.4z"/>
	<path class="st3" d="M1127.6,441.8c-47.2,2.9-94.4,1.6-141.6,1.8c-1.9,0-4.6,0.5-5-2c-0.6-3.5,2.7-2.8,4.7-3.4
		c4.8-1.6,9.5,0.5,14.2,0.5c32.6-0.2,65.1-0.3,97.7,0C1107.6,438.8,1117.8,438.1,1127.6,441.8z"/>
	<path class="st1" d="M808,471c-6.7-5.8-15.3-5.5-23.2-6.7c-14.3-2.2-28.8-3.6-43.2-5.3c6.2-3.2,12.9-2.1,19.1-1.2
		c14.3,2,28.6,2.5,43,3.3c17.5,0.9,34.8,3.6,52.3,6.6C840,468.9,824.2,471.8,808,471z"/>
	<path class="st3" d="M1000.7,433.4c-0.6-3.8-4.2-3-6.5-4.1c-1.5-0.8-3.3-1.5-3.1-3.5c0.3-2.7,2.7-2.2,4.5-2.6
		c5.1-1,10.2,4.2,15.3,0c1.7,0,3.4,0,5,0c0.9,3.2,2.5,4.1,5.2,1.6c1.7,0,3.4,0,5,0c0.3,2,1.4,3.2,3.5,3.3c8.2-0.6,15.8,2.7,23.8,3.4
		c0,1.1-0.1,2.3-0.1,3.4C1035.8,435.5,1018.2,435,1000.7,433.4z"/>
	<path class="st1" d="M1102.9,626.9c-2.4,0.3-3.8,0.8-5.1,0.6c-4.4-0.8-7.1-4.1-7.9-7.9c-1-4.2,3.4-5.8,6.3-6.5
		c6.5-1.5,11.7,2.7,17.2,5.3c1.3,0.7,1.3,2.5,0.5,3.8c-1.7,2.6-3.5,5.2-7,5.4C1105.2,627.7,1103.6,627,1102.9,626.9z"/>
	<path class="st1" d="M1164.2,610.8c3.8-0.3,7.2,0.9,10.4,2.8c1.9,1.1,4.7,1.8,4,4.7c-0.8,3.1-3.8,3.3-6.2,2.7
		c-5.1-1.4-9.2-5.4-14.7-5.5c-0.4,0-1.2-1.2-1.2-1.9c-0.1-1.2,0.8-2.1,2-2.2C1160.3,611,1162.2,610.9,1164.2,610.8z"/>
	<path class="st1" d="M1331.3,424.2c-9.8,0-19.5,0-29.3,0c0-0.8,0-1.6,0.1-2.4C1311.8,421.6,1321.6,420.7,1331.3,424.2z"/>
	<path class="st1" d="M646.3,455.5c-8-0.9-16-2.2-24-1.6c-2.4,0.1-4.4-0.6-5-3.4c7.6,0,15.3,0.1,22.9,0
		C643.7,450.5,646.4,451.3,646.3,455.5z"/>
	<path class="st1" d="M1053.4,435.1c0-1.1,0.1-2.3,0.1-3.4c7.1-2.2,13.7,1.4,20.7,1.2C1067.4,436.4,1060.3,434.6,1053.4,435.1z"/>
	<path class="st1" d="M682,457.2c-4.7,0-9.3,0.1-14,0.1c-2.7,0-5.7,0.4-6.5-3.3c4.5,0,9.1-0.1,13.6,0C677.9,454,681,453.4,682,457.2
		z"/>
	<path class="st1" d="M711,457.3c-2.3,2.2-4.5,2.2-6.8,0C706.4,455.1,708.7,455.1,711,457.3z"/>
	<path class="st1" d="M1220.4,440.3c-2.3,4.7-4.5,4.7-6.8,0C1215.8,440.3,1218.1,440.3,1220.4,440.3z"/>
	<path class="st1" d="M1079.9,435.4c3.1-2.8,5.1-1.4,8.3-2.1C1085.2,436.1,1083.1,434.7,1079.9,435.4z"/>
	<path class="st1" d="M1021,425c-2.7,2.5-4.3,1.6-5.2-1.6C1017.8,423.2,1019.7,423.2,1021,425z"/>
	<path class="st1" d="M694,457.3c-1.2,0-2.3,0-3.5,0c0.2-1,0.4-2.3,1.7-2.3C693.6,454.9,693.7,456.2,694,457.3z"/>
	<path class="st1" d="M1029.6,428.3c-2.1-0.1-3.2-1.2-3.5-3.3C1028.2,425.1,1029.3,426.2,1029.6,428.3z"/>
	<path class="st1" d="M967.3,598.9c-0.3,0.3-0.7,0.6-1,0.9c-0.2-0.4-0.5-0.8-0.6-1.2c0-0.1,0.5-0.5,0.5-0.4
		C966.7,598.3,967,598.6,967.3,598.9z"/>
	<polygon class="st1" points="939.4,468.8 938.8,468.4 939.5,468.1 	"/>
</g>
</svg>
