<?xml version="1.0" encoding="utf-8"?>
<!-- Generator: Adobe Illustrator 26.0.0, SVG Export Plug-In . SVG Version: 6.00 Build 0)  -->
<svg version="1.1" id="图层_1" xmlns="http://www.w3.org/2000/svg" xmlns:xlink="http://www.w3.org/1999/xlink" x="0px" y="0px"
	 viewBox="0 0 1366 768" style="enable-background:new 0 0 1366 768;" xml:space="preserve">
<style type="text/css">
	.st0{fill:#F0CEB2;}
	.st1{fill:url(#SVGID_1_);}
	.st2{fill:#E6BEA1;}
	.st3{fill:#F1D4BB;}
	.st4{fill:#CCD9E7;}
</style>
<path class="st0" d="M337.06,752.98c0,0.73,0.11,1.45,0.31,2.14c0.39-0.47,0.77-0.98,1.14-1.51
	C338.01,753.35,337.53,753.14,337.06,752.98z"/>
<path class="st0" d="M1365.12,738.34c-0.01-2.23-0.01-4.45-0.02-6.68c0-1.92-0.01-3.85-0.01-5.77c-0.01-2.21-0.01-4.42-0.02-6.63
	c-0.01-2.87-0.01-5.73-0.02-8.6c-0.01-2.22-0.01-4.73-0.02-7.39c-0.01-2.66-0.01-5.47-0.02-8.28c-0.01-2.59-0.01-5.19-0.02-7.78
	c0-2.35-0.01-4.71-0.02-7.06c0-3.16-0.01-6.32-0.02-9.48c-5.86,2.55-10.86-0.47-14.86-3.67c-5.35-4.27-10.93-5.3-17.35-5.02
	c-3.19,0.14-7.72,1.48-9.02-2.59c-1.44-4.52,4.84-3.89,6.35-7.69c-4.72-2.18-9.39-4.56-15.03-5.11
	c-8.72-0.85-12.77-5.45-12.16-13.46c0.29-3.82-2.27-2.89-4.29-3.52c-8.01-2.51-16.18,0.19-24.23-1
	c-12.11-1.79-23.38,2.02-34.98,4.77c-9.56,2.28-18.52-2.46-26.84-7.36c-8.03-4.72-16.09-9.38-24.17-14.01
	c-1.78-1.02-3.69-1.32-6.32-0.17c1.92,3.64,5.94,6.65,1.33,11.39c-3.87,3.98-7.82,5.09-13,6.24c-15.3,3.4-24.47-7.34-35.54-13.75
	c-3.27-1.89-6.31-4.22-10.2-2.55c-2.9,1.24-5.73,3.28-5.9,6.68c-0.19,3.77,3.61,2.89,5.76,3.6c5.09,1.66,10.34,2.84,15.43,4.49
	c1.14,0.37,2.53,1.82,2.68,2.93c0.23,1.68-1.54,1.95-3,2.16c-8.09,1.17-16.19,3.41-24.19-0.53c-2.38-1.17-4.83-0.89-7.45-0.38
	c-11.91,2.36-21.32-1.38-27.47-11.77c-2.89-4.87-7.25-5.94-11.79-7.39c-1.38-0.44-2.87-0.38-3.95,0.78
	c-4.21,4.55-3.34,2.96-8.62,0.14c-10.51-5.61-17.53-14.98-26.83-21.73c-1.5-1.08-3.76-1.69-5.62-1.59
	c-9.78,0.52-19.17-1.64-28.49-4.03c-3.78-0.97-6.22-0.03-7.56,3.31c-1.38,3.45-0.15,5.95,3.46,7.42c1.76,0.72,3.76,1.83,4.7,3.35
	c1.56,2.52,3.9,5.68,1.55,8.54c-2.9,3.52-5.6,0.24-8.07-1.37c-2.13-1.38-3.97-3.22-6.13-4.54c-2.06-1.27-4.5-3.54-6.75-0.74
	c-2.04,2.55-0.01,5.15,1.69,6.78c4.21,4.02,8.85,7.61,12.72,12.56c-9.12-2.05-19.72-1.91-26.93-6.79
	c-6.56-4.43-14.57-8.8-19.04-15.8c-4.71-7.38-22.44-10.05-30.35-6.63c-4.48,1.93-1.55,4.5,0.85,6.22
	c5.74,4.13,11.55,8.14,17.33,12.2c1.14,0.8,2.74,1.61,2.14,3.24c-0.86,2.32-2.78,1.3-4.29,0.75c-8.43-3.07-16.83-5.4-24.2-11.67
	c-6.86-5.83-16.75-7.27-25.92-8.19c-2.93-0.29-6.73,0.4-6.94-2.92c-0.66-10.44-9.65-12.01-16.16-15.32
	c-20-10.16-41.49-16.76-62.38-24.8c-26.21-10.09-52.92-18.3-80.4-24.08c-2.2-0.46-7.18,0.29-5.96-3.91c1.08-3.71,4.67-1.05,7.27-0.4
	c11.23,2.79,22.59,5.11,33.71,8.28c18.93,5.39,37.68,11.43,56.6,16.86c5.13,1.48,10.37,1.49,7.74-6.76
	c-0.56-1.77-0.28-4.34,1.59-3.97c6.29,1.22,5.33-0.93,3.97-5.53c-0.68-2.3,3.79-2.87,6.1-3.25c5.18-0.84,10.46-1.07,16.32-1.61
	c-2.23-4.95-5.68-7.75-10.27-8.67c-19.94-3.97-40.04-7.22-60.02-10.93c-25.01-4.65-50.17-8.07-75.37-10.77
	c-26.12-2.79-52.36-4.81-78.77-4.37c-37.63,0.62-75.27,0.49-112.9,0c-16.4-0.22-32.77-2.1-49.22-1.59
	c-4.03,0.12-7.94-0.01-11.01,3.3c-1.42,1.53-3.48,1.99-5.5,1.8c-26.95-2.56-54.11-0.23-81.02-3.43c-1.61-0.19-4.06-0.56-4.57-1.61
	c-5.45-11.16-15.11-7.79-23.9-7.12c-2.93,0.23-5.57-0.24-8.32-1.09c-13.59-4.2-27.79-4.89-41.74-7.01
	c-4.09-0.62-8.45,0.25-12.66,0.67c-1.95,0.19-4.19,1.35-4.79-1.54c-0.5-2.4,1.41-4.22,3.37-4.01c12.47,1.3,23.69-5.77,35.85-5.38
	c15.26,0.5,30.14-3.26,45.33-3.22c34.07,0.11,68.09-2.77,102.24,0.81c12.07,1.26,24.86-0.34,37.2-1.66
	c13.91-1.49,27.63-1.96,41.39,0.65c26.89,5.11,53.94,9.53,80.56,15.81c10.3,2.43,19.89,3.21,29.99,1.12
	c-0.57-0.94-1.05-2.62-1.72-2.7c-12.69-1.54-19.9-11.97-29.7-18.16c-5.3-3.34-3.62-5.8,0.73-8.13c-8.5-3.74-17.69-1.16-26.54-3.13
	c-13.72-3.05-28.09-2.36-41.89-4.25c-15.86-2.17-32.14-2.73-48.65-7.85c4.99-3,9.92-2.46,14.06-1.38
	c8.31,2.16,16.98-0.01,25.14,2.82c1.59,0.55,3.36-0.16,4.61-1.53c9.17-3.24,18.92-2.84,28.28-3.16c23.74-0.8,47.55-0.95,71.28,1.36
	c3.5,0.34,6.28,0.68,5.99,5.1c15.56,1.07,30.84-2.14,46.36-2.99c-4.21-3.04-8.97-1.42-13.38-2.14c-3.35-0.55-4.45-1.71-0.45-3.39
	c-0.37-0.75-0.73-2.15-1.12-2.16c-11.19-0.32-20.73-5.86-30.94-9.36c-4.31-1.48-9.39-1.01-13.37,2.98
	c-3.15,3.17-7.08,3.56-11.73,2.58c-5.16-1.09-10.65-0.57-15.99-0.83c-2.68-0.13-5.92,0.8-6.88-3.15c-7.98,0-15.96,0-23.94-0.01
	c-0.69,2.82-2.85,3.26-5.26,3.18c-28.89-0.96-57.46,5.29-86.44,3.71c-7.96-0.43-14.76-4.82-23.05-3.88
	c-18.48,2.08-36.95,5.21-55.68,3.64c-0.59,0.92-1.07,2.54-1.78,2.65c-15.48,2.41-30.38,8.38-46.39,7.6
	c-4.71-0.22-9.58-0.51-13.57,2.95c0.33,0.62,0.45,1.25,0.83,1.51c3.17,2.13,9.63-1.96,10.03,3c0.34,4.17-6.07,3.03-9.28,3.68
	c-26.71,5.47-52.33,16.5-80.21,16.11c-1.13-0.01-2.4-0.2-3.38,0.22c-20.66,8.87-41.95,3.63-62.43,0.77
	c-16.77-2.34-33.37-0.04-50.01-2.39c-13.72-1.93-27.51-0.69-41.33-5.54c-7.91-2.78-18.21,0.11-27.51-1.47
	c-23.23-3.96-46.72-3.89-70.2-3.54v15.35c17.85,2.77,35.62,6.77,53.57,7.99c24.3,1.66,48.33,6.48,72.83,5.74
	c24.3-0.74,48.54,2.46,72.63,4.38c13.43,1.07,28.2,2.59,41.42,9.25c16.74,8.44,35.8,8.74,53.84,9.64
	c31.32,1.57,62.62,5.12,94.07,3.67c1.4-0.06,2.81,0.28,4.39-1.53c-7.31-3.6-16.36-1.48-21.49-6.55c10.95,0,23-1.2,34.69,0.35
	c10.69,1.42,21.42,1.41,32.09,2.5c18.26,1.86,36.83,0.66,55.12,2.3c25.51,2.28,51.07,0.07,76.47,1.83
	c17.42,1.2,35.08,0.71,52.27,4.71c1.83,0.43,4.42-0.08,4.37,2.81c-0.04,2.23-2.34,1.92-3.81,2.6c-0.19,0.09-0.37,0.18-0.55,0.28
	c-3.95,2.11-9.11,7.78-12.04,11.22c-0.13,0.16-0.26,0.32-0.4,0.48c-0.23,0.27-0.43,0.52-0.62,0.75c-0.15,0.21-0.32,0.41-0.51,0.62
	c-0.3,0.37-0.52,0.64-0.64,0.79c-0.03,0.04-0.06,0.09-0.1,0.13c-2.72,6.06-5.54,11.78-8.42,17.16c-4.47,8.35-9.09,15.91-13.79,22.76
	C572.64,593.34,557.04,607.98,544,618c-8.68,6.66-17.94,12.4-27.59,17.43c-7.76,4.07-15.77,7.68-23.92,10.97
	c-2.32,0.94-4.65,1.85-6.99,2.74c-10.18,3.86-20.52,7.3-30.83,10.54c-19.33,6.08-39.94,8.73-58.23,17.85
	c-12.34,6.17-23.55,15.61-29.16,28.22c-2.77,6.22-4.3,13.31-6.74,19.7c-0.43,1.15-0.9,2.27-1.41,3.36
	c-1.88,4.04-4.32,7.64-7.95,10.34c-1.58,1.18-3.33,2.12-5.06,3.08c-1.25,0.7-2.49,1.4-3.66,2.22c-2.78,1.95-5.26,4.84-5.39,8.24
	c0,0.1-0.01,0.19-0.01,0.29c0.47,0.16,0.95,0.37,1.45,0.63c-0.37,0.53-0.75,1.04-1.14,1.51c0.62,2.18,2.1,4.16,3.8,5.73
	c4.65,4.29,10.67,6.17,17.04,6.99c4.45,0.57,9.08,0.61,13.51,0.59c33.78,0,67.56-0.43,101.34-0.43h101.05
	c40.02-0.01,80.04-0.01,120.06-0.01c43.56,0,87.13,0,130.7-0.01c44.33,0,88.67,0,133-0.01c42.32,0,84.63-0.01,126.95-0.01
	c37.51-0.01,75.03-0.02,112.55-0.03c29.93,0,59.86-0.01,89.79-0.02c19.56-0.01,39.13-0.02,58.69-0.03c0.95,0,19.35-0.02,19.35-0.04
	C1365.17,758.01,1365.15,748.17,1365.12,738.34z M339.31,493.78c8.72,1.2,17.44,2.41,26.16,3.62
	C356.46,498.56,347.65,498.02,339.31,493.78z M561,496.95c-1.07,0.02-2.14,0.05-3.21,0.09c-1.26,0.04-2.51,0.09-3.77,0.15
	c-1.92,0.09-3.84,0.19-5.76,0.3c-9.36,0.55-18.73,1.35-28.09,1.74c-1,0.05-2,0.09-3.01,0.11c-5.13,0.17-10.27,0.19-15.4-0.04
	c-0.42-0.02-0.85-0.04-1.27-0.06c-0.45-0.02-0.91-0.05-1.37-0.08c-0.77-0.05-1.53-0.1-2.3-0.15c-0.99-0.08-1.99-0.17-2.98-0.27
	c-0.87-0.08-1.74-0.18-2.61-0.29c-0.22-0.02-0.45-0.05-0.69-0.08c-0.66-0.09-1.32-0.18-1.98-0.27c-2.23-0.31-4.46-0.69-6.69-1.15
	H561c0.53-0.02,1.07-0.03,1.61-0.03c2.66-0.04,5.33-0.04,7.99,0.03H561z"/>
<linearGradient id="SVGID_1_" gradientUnits="userSpaceOnUse" x1="680.9185" y1="-11.714" x2="694.7299" y2="779.5431">
	<stop  offset="0" style="stop-color:#9FB5D0"/>
	<stop  offset="0.4452" style="stop-color:#D8E4F0"/>
</linearGradient>
<path class="st1" d="M1365.2,767.84c-0.03-9.83-0.05-19.67-0.08-29.5c-0.01-2.23-0.01-4.45-0.02-6.68c0-1.92-0.01-3.85-0.01-5.77
	c-0.01-2.21-0.01-4.42-0.02-6.63c-0.01-2.87-0.01-5.73-0.02-8.6c-0.01-2.46-0.01-4.93-0.02-7.39c-0.01-2.76-0.01-5.52-0.02-8.28
	c-0.01-2.59-0.01-5.19-0.02-7.78c0-2.35-0.01-4.71-0.02-7.06c0-3.16-0.01-6.32-0.02-9.48c-0.01-54.07-0.03-108.14-0.04-162.21
	c0.01-6.27,0.02-12.54,0.03-18.81c0-7.89,0.01-15.77,0.01-23.65c0.02-2.86,0.03-5.73,0.05-8.59c-0.01-4.59-0.03-9.17-0.04-13.76
	c-0.01-5.08-0.03-10.15-0.04-15.23c0.06-4.83-0.07-9.67,0.25-14.48c0.36-5.16-1.4-6.81-6.85-8.08
	c-39.23-9.13-79.34-7.13-119.04-9.36c-26.54-1.49-53.08-2.22-79.47-5.78c-10.56-1.42-20.91-2.92-31.89-2.28
	c-17.72,1.03-35.17,6.67-53.03,4.01c-13.85-2.06-27.71-1.2-41.57-1.53c-6.22-0.15-12.39-0.63-18.59-1.21
	c-6.56-0.6-12.66-4.58-19.07-3.38c-19.85,3.72-39.8,3.06-59.82,3.07c-25.23,0.02-50.37-3.07-75.62-1.98
	c-2.24,0.1-4.55-0.1-6.76-0.52c-11.26-2.18-22.9-2.53-33.87-0.63c-29.2,5.04-58.55,10.13-85.6,23.34
	c-5.45,2.67-11.28,2.98-17.24,3.65c-14.53,1.65-28.93,4.42-43.39,6.74c-2.24-0.54-4.47-1.08-6.71-1.61
	c-5.97-2.96-12.01-5.65-18.93-4.92c-8.48-0.77-16.97-1.07-25.14,1.73c-10,3.41-20.41,3.83-30.76,4.85c-7.98,0-15.96,0-23.94-0.01
	c-12.43-3.23-25.1-3.33-37.84-3.81c-11.11-0.42-22.31-0.91-33.32-1.96c-21.02-2.01-42.25-2.12-63.07-6.37
	c-4.97-1.01-9.59-3.12-14.81-3.5c-25.97-1.9-49.96,6.29-74.09,13.91c-6.29-0.02-12.57-0.04-18.86-0.06
	c-6.01-3.66-12.53-1.22-18.82-1.56c-8.48-0.22-16.95-0.44-25.43-0.67c-1.36-4.61-4.39-0.96-6.61-1.34c-1.56-0.54-3.09-1.24-4.7-1.6
	c-17.27-3.85-34.16,0.13-51.21,2.24c-13.44,1.66-26.67,6.86-40.68,1.24c-13.22-5.31-26.79-3.58-40.73-0.75
	c-13.59,2.77-27.45,0.22-40.22-6.08c-13.17-1.24-26.44-1.77-39.42,0.61c-18.52,3.39-36.79,8.44-55.85,4.37V259.47
	C2.22,175.67,2.35,91.88,2,8.08C1.97,0.79,3.95-0.01,10.48,0c206.81,0.2,413.61,0.17,620.41,0.17h734.31
	c3.52,1.53,1.59,4.61,1.6,6.82c0.12,70.8,0.1,141.59,0.1,212.39c0,180.26,0.01,360.52-0.11,540.78
	C1366.79,762.66,1368.76,765.94,1365.2,767.84z"/>
<path class="st2" d="M628.49,514.68c-0.04,2.23-2.34,1.92-3.81,2.6c-0.19,0.09-0.37,0.18-0.55,0.28c-5.08,2.55-8.6,6.95-12.04,11.22
	c-0.13,0.16-0.26,0.32-0.4,0.48c-0.23,0.27-0.43,0.52-0.62,0.75c-0.19,0.23-0.36,0.43-0.51,0.62c-0.3,0.37-0.52,0.64-0.64,0.79
	c-0.03,0.04-0.06,0.09-0.1,0.13c-2.72,6.06-5.54,11.78-8.42,17.16c-4.47,8.35-9.09,15.91-13.79,22.76
	C572.64,593.34,557.04,607.98,544,618c-8.68,6.66-17.94,12.4-27.59,17.43c-7.76,4.07-15.77,7.68-23.92,10.97
	c-2.32,0.94-4.65,1.85-6.99,2.74c-10.18,3.86-20.52,7.3-30.83,10.54c-19.33,6.08-39.94,8.73-58.23,17.85
	c-12.34,6.17-23.55,15.61-29.16,28.22c-2.77,6.22-4.3,13.31-6.74,19.7c-0.43,0.4-0.88,0.76-1.36,1.09
	c-1.14,0.78-0.88,1.55-0.05,2.27c-1.88,4.04-4.32,7.64-7.95,10.34c-1.58,1.18-3.33,2.12-5.06,3.08c-1.25,0.7-2.49,1.4-3.66,2.22
	c-2.78,1.95-5.26,4.84-5.39,8.24c0,0.1-0.01,0.19-0.01,0.29c0,0.73,0.11,1.45,0.31,2.14c0.62,2.18,2.1,4.16,3.8,5.73
	c4.65,4.29,10.67,6.17,17.04,6.99c-116.39,0-232.78-0.06-349.17,0.16c-5.84,0.01-7-1.15-6.98-6.99
	C2.29,663.2,2.22,565.4,2.22,467.59c17.85,2.77,35.62,6.77,53.57,7.99c24.3,1.66,48.33,6.48,72.83,5.74
	c24.3-0.74,48.54,2.46,72.63,4.38c13.43,1.07,28.2,2.59,41.42,9.25c16.74,8.44,35.8,8.74,53.84,9.64
	c31.32,1.57,62.62,5.12,94.07,3.67c1.4-0.06,2.81,0.28,4.39-1.53c-7.31-3.6-16.36-1.48-21.49-6.55c10.95,0,23-1.2,34.69,0.35
	c10.69,1.42,21.42,1.41,32.09,2.5c18.26,1.86,36.83,0.66,55.12,2.3c25.51,2.28,51.07,0.07,76.47,1.83
	c17.42,1.2,35.08,0.71,52.27,4.71C625.95,512.3,628.54,511.79,628.49,514.68z"/>
<path class="st2" d="M351.96,419.85c-2.49-0.17-5.11,0.39-7.21-1.54c-6.29-0.02-12.57-0.04-18.86-0.06
	c-6.45,1.58-12.97,4.08-18.82-1.56c-8.48-0.22-16.95-0.44-25.43-0.67c-2.34,0.23-4.76,0.86-6.61-1.34c-1.56-0.54-3.09-1.24-4.7-1.6
	c-17.27-3.85-34.16,0.13-51.21,2.24c-13.44,1.66-26.67,6.86-40.68,1.24c-13.22-5.31-26.79-3.58-40.73-0.75
	c-13.59,2.77-27.45,0.22-40.22-6.08c-13.17-1.24-26.44-1.77-39.42,0.61c-18.52,3.39-36.79,8.44-55.85,4.37v37.53
	c23.48-0.35,46.97-0.42,70.2,3.54c9.3,1.58,19.6-1.31,27.51,1.47c13.82,4.85,27.61,3.61,41.33,5.54
	c16.64,2.35,33.24,0.05,50.01,2.39c20.48,2.86,41.77,8.1,62.43-0.77c0.98-0.42,2.25-0.23,3.38-0.22
	c27.88,0.39,53.5-10.64,80.21-16.11c3.21-0.65,9.62,0.49,9.28-3.68c-0.4-4.96-6.86-0.87-10.03-3c-0.38-0.26-0.5-0.89-0.83-1.51
	c3.99-3.46,8.86-3.17,13.57-2.95c16.01,0.78,30.91-5.19,46.39-7.6c0.71-0.11,1.19-1.73,1.78-2.65
	C382.63,422.12,367.31,420.86,351.96,419.85z M194.6,436.4c33.64-0.9,67.35-3.2,100.8,3.28C288.39,443.99,217.85,442.46,194.6,436.4
	z M302.24,441.47l-0.59-0.39l0.68-0.23L302.24,441.47z M347.34,426.15c-0.6,4.05-3.43,8.03-7.97,8.74c-4.4,0.69-9.08,0.76-13.48,0.1
	c-10.12-1.52-20.15-3.65-30.22-5.52c15.57-0.86,30.83-2.85,45.98-5.89C343.95,423.12,347.89,422.5,347.34,426.15z"/>
<path class="st3" d="M793.48,444.03c24.71,1.84,49.4,2.38,74.12,3.18c26.59,0.86,53.15,2.92,79.73,3.08
	c22.33,0.13,44.65-2.19,66.99-2.6c31.69-0.59,63.4-0.26,95.1-0.65c20.55-0.26,41.06-1.89,61.57-2.74
	c14.34-0.59,28.33-3.27,42.56-3.99c2.27,0,4.55-0.01,6.82-0.01c3.98-0.02,7.95-0.03,11.93-0.05c13.61-5.29,28.16-6,42.3-6.44
	c30.18-0.93,60.19-4.12,90.32-5.39c0.06-4.83-0.07-9.67,0.25-14.48c0.36-5.16-1.4-6.81-6.85-8.08
	c-39.23-9.13-79.34-7.13-119.04-9.36c-26.54-1.49-53.08-2.22-79.47-5.78c-10.56-1.42-20.91-2.92-31.89-2.28
	c-17.72,1.03-35.17,6.67-53.03,4.01c-13.85-2.06-27.71-1.2-41.57-1.53c-6.22-0.15-12.39-0.63-18.59-1.21
	c-6.56-0.6-12.66-4.58-19.07-3.38c-19.85,3.72-39.8,3.06-59.82,3.07c-25.23,0.02-50.37-3.07-75.62-1.98
	c-2.24,0.1-4.55-0.1-6.76-0.52c-11.26-2.18-22.9-2.53-33.87-0.63c-29.2,5.04-58.55,10.13-85.6,23.34
	c-5.45,2.67-11.28,2.98-17.24,3.65c-14.53,1.65-28.93,4.42-43.39,6.74c1.08,3.74,4.21,3.41,6.94,3.18
	c6.1-0.52,11.64,0.76,17.44,4.98c-8.82,3.5-17.5,1.18-25.89,1.83c-4,1.68-2.9,2.84,0.45,3.39c4.41,0.72,9.17-0.9,13.38,2.14
	c-15.52,0.85-30.8,4.06-46.36,2.99c-35.16-1.93-70.31-4-105.55-3.3c-1.25,1.37-3.02,2.08-4.61,1.53
	c-8.16-2.83-16.83-0.66-25.14-2.82c-4.14-1.08-9.07-1.62-14.06,1.38c16.51,5.12,32.79,5.68,48.65,7.85
	c13.8,1.89,28.17,1.2,41.89,4.25c8.85,1.97,18.04-0.61,26.54,3.13c3.4,0,6.81,0.01,10.21,0.01c7.64,0,15.28,0.07,22.91-0.03
	c3.58-0.05,6.2,0.76,6.11,5.03c5.08-0.52,10.17-1.04,15.25-1.57c4.54-0.01,9.08-0.07,13.62-0.01c2.76,0.04,5.91-0.6,6.9,3.27
	c2.81,0.01,5.63,0.02,8.45,0.02c0.23-1.05,0.4-2.32,1.74-2.32c1.34,0.01,1.5,1.29,1.73,2.34c3.4,0,6.81,0,10.21,0.01
	c2.27-2.14,4.54-2.15,6.79,0.03c10.16,1.77,20.42,1.97,30.7,1.67c6.17-3.24,12.91-2.11,19.11-1.25c14.31,1.98,28.64,2.54,43.03,3.28
	c17.48,0.91,34.86,3.57,52.28,6.59c-16.05,1.29-31.91,4.17-48.05,3.36c-34.53,0.47-68.99,2.74-103.38,5.42
	c-22.3,1.75-44.67,1.01-66.92,3.14c-10.1,2.09-19.69,1.31-29.99-1.12c-26.62-6.28-53.67-10.7-80.56-15.81
	c-13.76-2.61-27.48-2.14-41.39-0.65c-12.34,1.32-25.13,2.92-37.2,1.66c-34.15-3.58-68.17-0.7-102.24-0.81
	c-15.19-0.04-30.07,3.72-45.33,3.22c-12.16-0.39-23.38,6.68-35.85,5.38c-1.96-0.21-3.87,1.61-3.37,4.01
	c0.6,2.89,2.84,1.73,4.79,1.54c4.21-0.42,8.57-1.29,12.66-0.67c13.95,2.12,28.15,2.81,41.74,7.01c2.75,0.85,5.39,1.32,8.32,1.09
	c8.79-0.67,18.45-4.04,23.9,7.12c0.51,1.05,2.96,1.42,4.57,1.61c26.91,3.2,54.07,0.87,81.02,3.43c2.02,0.19,4.08-0.27,5.5-1.8
	c3.07-3.31,6.98-3.18,11.01-3.3c16.45-0.51,32.82,1.37,49.22,1.59c37.63,0.49,75.27,0.62,112.9,0c26.41-0.44,52.65,1.58,78.77,4.37
	c25.2,2.7,50.36,6.12,75.37,10.77c19.98,3.71,40.08,6.96,60.02,10.93c4.59,0.92,8.04,3.72,10.27,8.67
	c-5.86,0.54-11.14,0.77-16.32,1.61c-2.31,0.38-6.78,0.95-6.1,3.25c1.36,4.6,2.32,6.75-3.97,5.53c-1.87-0.37-2.15,2.2-1.59,3.97
	c2.63,8.25-2.61,8.24-7.74,6.76c-18.92-5.43-37.67-11.47-56.6-16.86c-11.12-3.17-22.48-5.49-33.71-8.28
	c-2.6-0.65-6.19-3.31-7.27,0.4c-1.22,4.2,3.76,3.45,5.96,3.91c27.48,5.78,54.19,13.99,80.4,24.08c20.89,8.04,42.38,14.64,62.38,24.8
	c6.51,3.31,15.5,4.88,16.16,15.32c0.21,3.32,4.01,2.63,6.94,2.92c9.17,0.92,19.06,2.36,25.92,8.19c7.37,6.27,15.77,8.6,24.2,11.67
	c1.51,0.55,3.43,1.57,4.29-0.75c0.6-1.63-1-2.44-2.14-3.24c-5.78-4.06-11.59-8.07-17.33-12.2c-2.4-1.72-5.33-4.29-0.85-6.22
	c7.91-3.42,25.64-0.75,30.35,6.63c4.47,7,12.48,11.37,19.04,15.8c7.21,4.88,17.81,4.74,26.93,6.79c-3.87-4.95-8.51-8.54-12.72-12.56
	c-1.7-1.63-3.73-4.23-1.69-6.78c2.25-2.8,4.69-0.53,6.75,0.74c2.16,1.32,4,3.16,6.13,4.54c2.47,1.61,5.17,4.89,8.07,1.37
	c2.35-2.86,0.01-6.02-1.55-8.54c-0.94-1.52-2.94-2.63-4.7-3.35c-3.61-1.47-4.84-3.97-3.46-7.42c1.34-3.34,3.78-4.28,7.56-3.31
	c9.32,2.39,18.71,4.55,28.49,4.03c1.86-0.1,4.12,0.51,5.62,1.59c9.3,6.75,16.32,16.12,26.83,21.73c5.28,2.82,4.41,4.41,8.62-0.14
	c1.08-1.16,2.57-1.22,3.95-0.78c4.54,1.45,8.9,2.52,11.79,7.39c6.15,10.39,15.56,14.13,27.47,11.77c2.62-0.51,5.07-0.79,7.45,0.38
	c8,3.94,16.1,1.7,24.19,0.53c1.46-0.21,3.23-0.48,3-2.16c-0.15-1.11-1.54-2.56-2.68-2.93c-5.09-1.65-10.34-2.83-15.43-4.49
	c-2.15-0.71-5.95,0.17-5.76-3.6c0.17-3.4,3-5.44,5.9-6.68c3.89-1.67,6.93,0.66,10.2,2.55c11.07,6.41,20.24,17.15,35.54,13.75
	c5.18-1.15,9.13-2.26,13-6.24c4.61-4.74,0.59-7.75-1.33-11.39c2.63-1.15,4.54-0.85,6.32,0.17c8.08,4.63,16.14,9.29,24.17,14.01
	c8.32,4.9,17.28,9.64,26.84,7.36c11.6-2.75,22.87-6.56,34.98-4.77c8.05,1.19,16.22-1.51,24.23,1c2.02,0.63,4.58-0.3,4.29,3.52
	c-0.61,8.01,3.44,12.61,12.16,13.46c5.64,0.55,10.31,2.93,15.03,5.11c-1.51,3.8-7.79,3.17-6.35,7.69c1.3,4.07,5.83,2.73,9.02,2.59
	c6.42-0.28,12,0.75,17.35,5.02c4,3.2,9,6.22,14.86,3.67c-0.01-54.07-0.03-108.14-0.05-162.21c-32.83,4.52-64.54-4.16-96.66-8.07
	c-8.6-1.05-17.39-0.91-25.72-3.84c-20.4-2.51-40.79-5.09-61.2-7.53c-17.61-2.11-35.24-4.18-52.88-6.05
	c-21.57-2.27-43.16-4.28-64.74-6.47c-7.57-0.76-15.19-1.06-22.77-1.7c-9.83-0.84-19.68-1.44-29.54-1.96
	c-7.05-0.37-14.09-0.69-21.14-1.02c-2.82-0.13-5.64-0.26-8.45-0.4s-5.62-0.28-8.43-0.43h-22.44c-0.05-0.87-0.09-1.74-0.14-2.61
	c5.87-0.83,11.72-2.08,17.61-2.42c43.07-2.5,86.19-1.54,129.29-1.9c10.14-0.09,20.26-1.68,30.41-2.31
	c9.98-0.61,20.2-0.91,29.92-0.03c10.11,0.92,19.68-1.18,29.52-1.04c20.66,0.29,41.32-0.07,61.98,0.12
	c38.54,0.34,76.92-4.61,115.48-3.39c-0.01-4.59-0.03-9.17-0.04-13.76c-19.48-0.85-38.58,1.57-57.22,7.19
	c-5.83,1.75-11.67,1.23-17.53,1.37c-36.75,2.88-73.63,2.2-110.38,3.9c-53,2.46-106.01,4.16-158.97,2.45
	c-33.76-1.09-67.55,0.57-101.2-1.58c-24.97-1.6-49.91-0.18-74.81-1.52c-31.11-1.68-62.23-2.56-93.37-3.46
	c-27.11-0.78-54.18-3.29-81.26-5.07c-0.74-0.05-1.44-0.59-3.34-1.41c5.84-3.53,11.16-4.99,17.08-5.21
	C720.56,438.95,757.06,441.31,793.48,444.03z M1302.04,421.8c9.77-0.19,19.56-1.08,29.25,2.37h-29.3
	C1302,423.38,1302.02,422.59,1302.04,421.8z M1088.25,433.31c-3.08,2.77-5.15,1.36-8.3,2.08
	C1083.03,432.56,1085.09,433.98,1088.25,433.31z M1097.61,438.73c10.01,0.09,20.16-0.61,30.01,3.09
	c-47.17,2.87-94.4,1.59-141.6,1.83c-1.89,0.01-4.58,0.47-5.01-2c-0.62-3.46,2.74-2.79,4.66-3.42c4.77-1.57,9.46,0.51,14.24,0.48
	C1032.48,438.49,1065.05,438.43,1097.61,438.73z M808.91,432.12c7.8-2.57,16.43-0.87,23.97-6.47c4.86-3.61,11.74,0.91,18.18-0.1
	c37.45-5.85,75-11.72,113.11-9.01c15.67,1.12,31.48,1.87,46.65,6.74c1.67,0.02,3.35,0.03,5.03,0.04c1.93-0.08,3.85-0.13,5.19,1.64
	c1.69,0.01,3.37,0.02,5.05,0.04c2.1,0.1,3.26,1.2,3.49,3.28c8.2-0.57,15.84,2.74,23.86,3.44c7.07-2.22,13.71,1.39,20.69,1.18
	c-6.75,3.48-13.86,1.75-20.77,2.23c-17.59,0.41-35.15-0.18-52.67-1.74c-5.71,0.31-11.02-0.02-16.25-3.4
	c-3.37-2.18-8.06-3.08-12.19-3.17c-33.42-0.7-66.78,0.85-100.16,2.76c-21.76,1.24-43.23,5.14-65.02,5.63
	c-7.87,0.18-15.62,2.92-24.2,1.15C791.26,431.22,800.57,434.87,808.91,432.12z M1158.34,611.23c1.93-0.25,3.89-0.31,5.84-0.45
	c3.81-0.29,7.19,0.93,10.41,2.79c1.87,1.09,4.67,1.83,3.97,4.65c-0.77,3.13-3.84,3.33-6.22,2.68c-5.05-1.37-9.15-5.38-14.74-5.52
	c-0.45-0.01-1.18-1.21-1.24-1.9C1156.26,612.25,1157.13,611.38,1158.34,611.23z M1096.2,613.1c6.47-1.47,11.73,2.66,17.19,5.32
	c1.33,0.64,1.34,2.49,0.5,3.77c-1.71,2.58-3.54,5.25-7.03,5.39c-1.62,0.07-3.27-0.53-3.95-0.65c-2.35,0.3-3.79,0.81-5.1,0.57
	c-4.37-0.78-7.05-4.13-7.92-7.88C1088.92,615.42,1093.26,613.77,1096.2,613.1z M967.34,598.86h-0.01c-0.33,0.3-0.66,0.58-0.99,0.87
	c-0.22-0.41-0.48-0.79-0.64-1.22c-0.02-0.08,0.46-0.48,0.56-0.44c0.1,0.05,0.19,0.11,0.28,0.17c0.09,0.06,0.18,0.12,0.26,0.18
	c0.09,0.07,0.19,0.15,0.28,0.23c0.09,0.06,0.17,0.13,0.26,0.2V598.86z M939.49,468.14l-0.06,0.64l-0.62-0.37L939.49,468.14z"/>
<path class="st2" d="M808.03,470.96c-34.53,0.47-68.99,2.74-103.38,5.42c-22.3,1.75-44.67,1.01-66.92,3.14
	c-0.57-0.94-1.05-2.62-1.72-2.7c-12.69-1.54-19.9-11.97-29.7-18.16c-5.3-3.34-3.62-5.8,0.73-8.13c3.4,0,6.81,0.01,10.21,0.01
	c0.56,2.75,2.54,3.5,4.97,3.35c8.09-0.51,16.06,0.73,24.05,1.65c5.08-0.52,10.17-1.04,15.25-1.57c0.86,3.71,3.83,3.34,6.55,3.35
	c4.65,0.01,9.31-0.06,13.97-0.09c2.81,0.01,5.63,0.02,8.45,0.03c1.16,0,2.31,0,3.47,0.01c3.4,0,6.81,0,10.21,0.01
	c2.25,2.27,4.51,2.26,6.79,0.03c10.16,1.77,20.42,1.97,30.7,1.67c14.39,1.73,28.84,3.12,43.16,5.31
	C792.75,465.51,801.33,465.17,808.03,470.96z"/>
<path class="st3" d="M567.88,420.04c-0.69,2.82-2.85,3.26-5.26,3.18c-28.89-0.96-57.46,5.29-86.44,3.71
	c-7.96-0.43-14.76-4.82-23.05-3.88c-18.48,2.08-36.95,5.21-55.68,3.64c-14.82-4.57-30.14-5.83-45.49-6.84
	c-2.49-0.17-5.11,0.39-7.21-1.54c24.13-7.62,48.12-15.81,74.09-13.91c5.22,0.38,9.84,2.49,14.81,3.5
	c20.82,4.25,42.05,4.36,63.07,6.37c11.01,1.05,22.21,1.54,33.32,1.96C542.78,416.71,555.45,416.81,567.88,420.04z"/>
<path class="st2" d="M697.74,428.16c-8.82,3.5-17.5,1.18-25.89,1.83c-0.37-0.75-0.73-2.15-1.12-2.16
	c-11.19-0.32-20.73-5.86-30.94-9.36c-4.31-1.48-9.39-1.01-13.37,2.98c-3.15,3.17-7.08,3.56-11.73,2.58
	c-5.16-1.09-10.65-0.57-15.99-0.83c-2.68-0.13-5.92,0.8-6.88-3.15c10.35-1.02,20.76-1.44,30.76-4.85c8.17-2.8,16.66-2.5,25.14-1.73
	c5.87,3.31,11.58,7.27,18.93,4.92c2.24,0.53,4.47,1.07,6.71,1.61c1.08,3.74,4.21,3.41,6.94,3.18
	C686.4,422.66,691.94,423.94,697.74,428.16z"/>
<path class="st2" d="M639.32,438.51c-35.16-1.93-70.31-4-105.55-3.3c9.17-3.24,18.92-2.84,28.28-3.16
	c23.74-0.8,47.55-0.95,71.28,1.36C636.83,433.75,639.61,434.09,639.32,438.51z"/>
<path class="st2" d="M561,496.95c-1.07,0.02-2.14,0.05-3.21,0.09c-1.26,0.04-2.51,0.09-3.77,0.15c-1.92,0.08-3.84,0.18-5.76,0.3
	c-9.36,0.55-18.73,1.35-28.09,1.74c-1,0.04-2.01,0.08-3.01,0.11c-5.13,0.17-10.27,0.19-15.4-0.04c-0.42-0.02-0.85-0.04-1.27-0.06
	c-0.45-0.02-0.91-0.05-1.37-0.08c-0.77-0.05-1.53-0.1-2.3-0.15c-0.99-0.08-1.99-0.17-2.98-0.27c-0.87-0.09-1.74-0.18-2.61-0.29
	c-0.22-0.02-0.45-0.05-0.69-0.08c-0.66-0.09-1.32-0.18-1.98-0.27c-2.23-0.31-4.46-0.69-6.69-1.15H561z"/>
<path class="st2" d="M570.6,496.95H561c0.53-0.02,1.07-0.03,1.61-0.03C565.27,496.88,567.94,496.88,570.6,496.95z"/>
<path class="st2" d="M365.47,497.4c-9.01,1.16-17.82,0.62-26.16-3.62C348.03,494.98,356.75,496.19,365.47,497.4z"/>
<path class="st2" d="M1364.95,466c0,7.88-0.01,15.76-0.01,23.65c-31.31,3.47-62.86,2.11-94.21,4.8c-9.4,0.8-19-1.14-28.21,2.1
	c-20.4-2.51-40.79-5.09-61.2-7.53c-17.61-2.11-35.24-4.18-52.88-6.05c-21.57-2.27-43.16-4.28-64.74-6.47
	c-7.57-0.76-15.19-1.06-22.77-1.7c-9.83-0.84-19.68-1.44-29.54-1.96c-7.05-0.37-14.09-0.69-21.14-1.02
	c-5.64-0.26-11.27-0.52-16.91-0.82c0.01,0,0.02-0.01,0.03-0.01c10.08-2.87,20.54-3.2,30.8-3.27c54.64-0.35,109.27-0.17,163.91-0.17
	c37.03,0,74.07,0.33,111.11-0.1C1307.78,467.12,1336.34,464.9,1364.95,466z"/>
<path class="st0" d="M1365,457.41c-0.02,2.86-0.03,5.73-0.05,8.59c-28.61-1.1-57.17,1.12-85.76,1.45
	c-37.04,0.43-74.08,0.1-111.11,0.1c-54.64,0-109.27-0.18-163.91,0.17c-10.26,0.07-20.72,0.4-30.8,3.27c-0.01,0-0.02,0.01-0.03,0.01
	c-7.47-0.01-14.94-0.01-22.41-0.01c-0.05-0.87-0.09-1.74-0.14-2.61c5.87-0.83,11.72-2.08,17.61-2.42
	c43.07-2.5,86.19-1.54,129.29-1.9c10.14-0.09,20.26-1.68,30.41-2.31c9.98-0.61,20.2-0.91,29.92-0.03
	c10.11,0.92,19.68-1.18,29.52-1.04c20.66,0.29,41.32-0.07,61.98,0.12C1288.06,461.14,1326.44,456.19,1365,457.41z"/>
<path class="st0" d="M1364.94,489.65c-0.01,6.27-0.02,12.54-0.03,18.81h-0.01c-32.83,4.52-64.54-4.16-96.66-8.07
	c-8.6-1.05-17.39-0.91-25.72-3.84c9.21-3.24,18.81-1.3,28.21-2.1C1302.08,491.76,1333.63,493.12,1364.94,489.65z"/>
<path class="st0" d="M1364.96,443.65c-19.48-0.85-38.58,1.57-57.22,7.19c-5.83,1.75-11.67,1.23-17.53,1.37
	c0.44-3.94,3.11-4.72,6.54-5.21c4.97-0.71,9.38-2.89,13.87-7.25c-14.39-3.71-27.67-1.25-40.88-0.25
	c-12.48,0.96-24.95,1.02-37.44,0.75c13.61-5.29,28.16-6,42.3-6.44c30.18-0.93,60.19-4.12,90.32-5.39
	C1364.93,433.5,1364.95,438.57,1364.96,443.65z"/>
<path class="st3" d="M325.89,418.25c-6.45,1.58-12.97,4.08-18.82-1.56C313.36,417.03,319.88,414.59,325.89,418.25z"/>
<path class="st3" d="M666.65,418.39c-7.35,2.35-13.06-1.61-18.93-4.92C654.64,412.74,660.68,415.43,666.65,418.39z"/>
<path class="st4" d="M281.64,416.02c-2.34,0.23-4.76,0.86-6.61-1.34C277.25,415.06,280.28,411.41,281.64,416.02z"/>
<path class="st0" d="M194.6,436.4c33.64-0.9,67.35-3.19,100.8,3.29C288.39,443.99,217.85,442.46,194.6,436.4z"/>
<path class="st0" d="M295.67,429.47c15.57-0.85,30.83-2.84,45.98-5.88c2.31-0.46,6.24-1.08,5.7,2.57c-0.61,4.05-3.43,8.03-7.97,8.74
	c-4.4,0.69-9.08,0.76-13.48,0.1C315.77,433.47,305.74,431.34,295.67,429.47z"/>
<polygon class="st0" points="301.65,441.08 302.33,440.85 302.24,441.47 "/>
<path class="st2" d="M1232.3,440.25c12.49,0.27,24.96,0.21,37.44-0.74c13.21-1.01,26.49-3.46,40.87,0.25
	c-4.49,4.36-8.9,6.54-13.87,7.25c-3.42,0.49-6.09,1.27-6.54,5.21c-36.74,2.89-73.62,2.2-110.38,3.9
	c-53,2.46-106.01,4.16-158.97,2.45c-33.76-1.09-67.55,0.57-101.2-1.58c-24.97-1.6-49.92-0.18-74.81-1.52
	c-31.11-1.68-62.23-2.56-93.37-3.46c-27.12-0.78-54.18-3.29-81.27-5.07c-0.74-0.05-1.44-0.59-3.34-1.4c5.84-3.54,11.17-5,17.09-5.22
	c36.6-1.35,73.1,1.01,109.52,3.72c24.71,1.84,49.4,2.38,74.12,3.18c26.58,0.86,53.15,2.93,79.73,3.08
	c22.32,0.13,44.64-2.18,66.98-2.6c31.69-0.59,63.4-0.26,95.1-0.65c20.55-0.26,41.07-1.89,61.57-2.73
	c14.34-0.59,28.33-3.27,42.56-3.99c2.28,4.65,4.56,4.67,6.82-0.02C1224.35,440.28,1228.32,440.27,1232.3,440.25z"/>
<path class="st0" d="M1000.69,433.39c-5.71,0.31-11.02-0.02-16.25-3.4c-3.37-2.18-8.06-3.08-12.19-3.17
	c-33.43-0.7-66.79,0.85-100.17,2.75c-21.75,1.24-43.22,5.15-65.01,5.64c-7.88,0.18-15.62,2.91-24.21,1.15
	c8.39-5.14,17.71-1.48,26.04-4.23c7.8-2.57,16.43-0.87,23.97-6.48c4.86-3.61,11.73,0.91,18.18-0.1c37.45-5.85,75-11.72,113.11-9.01
	c15.67,1.11,31.48,1.87,46.65,6.74c-5.1,4.16-10.17-1.09-15.28-0.05c-1.85,0.38-4.23-0.14-4.51,2.56c-0.21,2.01,1.64,2.71,3.12,3.46
	C996.46,430.42,1000.05,429.56,1000.69,433.39z"/>
<path class="st2" d="M1127.62,441.82c-47.17,2.87-94.4,1.59-141.6,1.83c-1.89,0.01-4.58,0.47-5.02-2c-0.61-3.46,2.74-2.79,4.66-3.42
	c4.77-1.57,9.46,0.51,14.25,0.48c32.56-0.22,65.13-0.28,97.7,0.02C1107.62,438.82,1117.77,438.12,1127.62,441.82z"/>
<path class="st0" d="M808.03,470.96c-6.7-5.79-15.27-5.45-23.2-6.67c-14.32-2.19-28.77-3.58-43.16-5.31
	c6.17-3.25,12.91-2.11,19.11-1.25c14.32,1.98,28.64,2.53,43.04,3.28c17.47,0.9,34.85,3.57,52.28,6.59
	C840.03,468.89,824.17,471.77,808.03,470.96z"/>
<path class="st2" d="M1000.69,433.39c-0.64-3.83-4.23-2.97-6.54-4.13c-1.49-0.75-3.33-1.45-3.12-3.46c0.28-2.7,2.66-2.18,4.51-2.56
	c5.11-1.04,10.19,4.21,15.28,0.05c1.68,0.01,3.36,0.03,5.03,0.04c0.89,3.23,2.5,4.15,5.19,1.63c1.68,0.01,3.37,0.03,5.05,0.04
	c0.27,2.04,1.38,3.2,3.49,3.29c8.2-0.57,15.84,2.74,23.85,3.43c-0.03,1.14-0.05,2.28-0.08,3.41
	C1035.77,435.54,1018.21,434.95,1000.69,433.39z"/>
<path class="st0" d="M1102.91,626.93c-2.36,0.29-3.8,0.8-5.1,0.57c-4.38-0.78-7.05-4.14-7.92-7.89c-0.97-4.2,3.37-5.84,6.3-6.51
	c6.47-1.48,11.74,2.65,17.2,5.31c1.33,0.65,1.34,2.49,0.5,3.77c-1.71,2.58-3.54,5.25-7.02,5.39
	C1105.24,627.65,1103.59,627.05,1102.91,626.93z"/>
<path class="st0" d="M1164.18,610.78c3.81-0.29,7.19,0.94,10.4,2.8c1.88,1.09,4.67,1.83,3.97,4.65c-0.77,3.12-3.83,3.32-6.22,2.67
	c-5.05-1.37-9.15-5.38-14.74-5.52c-0.45-0.01-1.18-1.21-1.24-1.9c-0.1-1.22,0.78-2.1,1.98-2.25
	C1160.27,610.98,1162.23,610.92,1164.18,610.78z"/>
<path class="st0" d="M1331.29,424.17c-9.77,0-19.54,0-29.31,0c0.02-0.79,0.03-1.58,0.05-2.38
	C1311.81,421.61,1321.6,420.72,1331.29,424.17z"/>
<path class="st0" d="M646.27,455.54c-7.99-0.92-15.95-2.16-24.04-1.65c-2.44,0.15-4.41-0.6-4.97-3.35c7.64,0,15.28,0.07,22.91-0.03
	C643.74,450.46,646.36,451.27,646.27,455.54z"/>
<path class="st0" d="M1053.36,435.13c0.03-1.14,0.05-2.28,0.08-3.41c7.07-2.21,13.71,1.4,20.7,1.18
	C1067.38,436.38,1060.27,434.65,1053.36,435.13z"/>
<path class="st0" d="M682.04,457.23c-4.66,0.03-9.31,0.09-13.97,0.08c-2.72-0.01-5.69,0.36-6.55-3.34
	c4.54-0.01,9.08-0.07,13.62-0.01C677.9,454,681.05,453.36,682.04,457.23z"/>
<path class="st0" d="M710.96,457.31c-2.27,2.22-4.54,2.24-6.79-0.03C706.44,455.14,708.71,455.13,710.96,457.31z"/>
<path class="st0" d="M1220.37,440.3c-2.26,4.68-4.54,4.66-6.82,0.02C1215.82,440.31,1218.1,440.3,1220.37,440.3z"/>
<path class="st0" d="M1079.95,435.39c3.08-2.84,5.14-1.41,8.3-2.08C1085.17,436.08,1083.1,434.67,1079.95,435.39z"/>
<path class="st0" d="M1021.04,424.96c-2.69,2.51-4.31,1.6-5.19-1.63C1017.78,423.24,1019.7,423.19,1021.04,424.96z"/>
<path class="st0" d="M693.96,457.27c-1.16,0-2.31-0.01-3.47-0.01c0.23-1.05,0.4-2.33,1.74-2.32
	C693.57,454.94,693.73,456.22,693.96,457.27z"/>
<path class="st0" d="M1029.58,428.28c-2.11-0.09-3.22-1.25-3.49-3.29C1028.19,425.1,1029.35,426.2,1029.58,428.28z"/>
<path class="st0" d="M967.34,598.86c-0.34,0.29-0.67,0.58-1.01,0.87c-0.22-0.4-0.48-0.79-0.63-1.21c-0.03-0.08,0.46-0.49,0.55-0.44
	C966.65,598.27,966.99,598.58,967.34,598.86z"/>
<polygon class="st0" points="939.43,468.78 938.81,468.41 939.49,468.14 "/>
</svg>
