<svg id="e6149e89-d294-408f-b5ed-c799c7eb3413" data-name="图层 1" xmlns="http://www.w3.org/2000/svg" viewBox="0 0 1827 1831"><defs><style>.a67bca26-0161-4724-a5ae-b079d8ddfb01,.ac21ccb1-fd78-4789-8767-440f70e491c4,.e165f4db-79c1-467b-9cae-eef0d33f1723,.e68a25cd-e4c3-4438-85e4-07cc100aca33{stroke:#000;}.ac21ccb1-fd78-4789-8767-440f70e491c4,.e68a25cd-e4c3-4438-85e4-07cc100aca33{stroke-miterlimit:10;}.ac21ccb1-fd78-4789-8767-440f70e491c4{stroke-width:26px;}.a67bca26-0161-4724-a5ae-b079d8ddfb01,.e165f4db-79c1-467b-9cae-eef0d33f1723,.e68a25cd-e4c3-4438-85e4-07cc100aca33{fill:none;}.a67bca26-0161-4724-a5ae-b079d8ddfb01,.e165f4db-79c1-467b-9cae-eef0d33f1723{stroke-linecap:round;stroke-linejoin:round;}.a67bca26-0161-4724-a5ae-b079d8ddfb01{stroke-width:14px;}.e165f4db-79c1-467b-9cae-eef0d33f1723{stroke-width:14px;}.e68a25cd-e4c3-4438-85e4-07cc100aca33{stroke-width:27px;}</style></defs><g id="b659b120-564b-4790-b304-dcc5524f1f7b" data-name="定位点"><rect class="ac21ccb1-fd78-4789-8767-440f70e491c4" x="1613.5" y="113.5" width="100" height="100"/><rect class="ac21ccb1-fd78-4789-8767-440f70e491c4" x="113.5" y="1613.5" width="100" height="100"/><rect class="ac21ccb1-fd78-4789-8767-440f70e491c4" x="115.5" y="110.1" width="100" height="100"/></g><line class="a67bca26-0161-4724-a5ae-b079d8ddfb01" x1="413.5" y1="13.5" x2="513.5" y2="13.5"/><polygon class="a67bca26-0161-4724-a5ae-b079d8ddfb01" points="513.5 113.5 513.5 163.5 463.5 163.5 513.5 113.5"/><polyline class="a67bca26-0161-4724-a5ae-b079d8ddfb01" points="613.5 13.5 563.5 63.5 613.5 113.5"/><polyline class="a67bca26-0161-4724-a5ae-b079d8ddfb01" points="713.5 163.5 713.5 213.5 763.5 213.5 713.5 160.1"/><line class="a67bca26-0161-4724-a5ae-b079d8ddfb01" x1="863.5" y1="13.5" x2="963.5" y2="13.5"/><rect class="e165f4db-79c1-467b-9cae-eef0d33f1723" x="1039.57" y="39.66" width="70.7" height="70.7" transform="translate(250.3 770.55) rotate(-45)"/><polygon class="a67bca26-0161-4724-a5ae-b079d8ddfb01" points="1313.5 163.5 1263.5 213.5 1213.5 213.5 1313.5 163.5"/><polygon class="a67bca26-0161-4724-a5ae-b079d8ddfb01" points="1363.5 263.5 1263.5 263.5 1313.5 313.5 1363.5 263.5"/><rect class="e165f4db-79c1-467b-9cae-eef0d33f1723" x="1189.57" y="339.66" width="70.7" height="70.7" transform="translate(82.1 964.48) rotate(-45)"/><polygon class="a67bca26-0161-4724-a5ae-b079d8ddfb01" points="1113.5 313.5 1113.5 263.5 1013.5 263.5 1013.5 313.5 1063.5 363.5 1113.5 313.5"/><rect class="e165f4db-79c1-467b-9cae-eef0d33f1723" x="914.61" y="329.34" width="70.7" height="141.4" transform="translate(-16.13 777.39) rotate(-45)"/><polygon class="a67bca26-0161-4724-a5ae-b079d8ddfb01" points="913.5 513.5 913.5 463.5 813.5 463.5 863.5 413.5 913.5 513.5"/><polygon class="a67bca26-0161-4724-a5ae-b079d8ddfb01" points="713.5 313.5 663.5 363.5 713.5 413.5 713.5 313.5"/><polygon class="a67bca26-0161-4724-a5ae-b079d8ddfb01" points="563.5 413.5 513.5 463.5 463.5 463.5 513.5 413.5 563.5 413.5"/><line class="a67bca26-0161-4724-a5ae-b079d8ddfb01" x1="13.5" y1="463.5" x2="13.5" y2="563.5"/><line class="a67bca26-0161-4724-a5ae-b079d8ddfb01" x1="13.5" y1="663.5" x2="13.5" y2="963.5"/><polyline class="a67bca26-0161-4724-a5ae-b079d8ddfb01" points="13.5 1113.5 63.5 1113.5 63.5 1013.5 63.5 863.5 113.5 863.5 113.5 913.5 163.5 963.5 163.5 1013.5 113.5 1013.5 64.6 1013.5"/><polyline class="a67bca26-0161-4724-a5ae-b079d8ddfb01" points="313.5 513.5 363.5 563.5 313.5 613.5 363.5 663.5 313.5 713.5"/><circle class="a67bca26-0161-4724-a5ae-b079d8ddfb01" cx="363.5" cy="513.5" r="6.3"/><circle class="a67bca26-0161-4724-a5ae-b079d8ddfb01" cx="363.5" cy="613.5" r="6.3"/><polyline class="a67bca26-0161-4724-a5ae-b079d8ddfb01" points="313.5 912.3 363.5 963.5 313.5 1013.5"/><line class="a67bca26-0161-4724-a5ae-b079d8ddfb01" x1="13.5" y1="1413.5" x2="13.5" y2="1263.5"/><line class="a67bca26-0161-4724-a5ae-b079d8ddfb01" x1="463.5" y1="1813.5" x2="513.5" y2="1813.5"/><line class="a67bca26-0161-4724-a5ae-b079d8ddfb01" x1="563.5" y1="1763.5" x2="613.5" y2="1813.5"/><path class="a67bca26-0161-4724-a5ae-b079d8ddfb01" d="M675,1725" transform="translate(-11.5 -11.5)"/><path class="a67bca26-0161-4724-a5ae-b079d8ddfb01" d="M775,1825" transform="translate(-11.5 -11.5)"/><polygon class="a67bca26-0161-4724-a5ae-b079d8ddfb01" points="813.5 1713.5 913.5 1713.5 913.5 1663.5 863.5 1663.5 813.5 1713.5"/><line class="a67bca26-0161-4724-a5ae-b079d8ddfb01" x1="1063.5" y1="1813.5" x2="1263.5" y2="1813.5"/><line class="a67bca26-0161-4724-a5ae-b079d8ddfb01" x1="1413.5" y1="1813.5" x2="1513.5" y2="1813.5"/><path class="a67bca26-0161-4724-a5ae-b079d8ddfb01" d="M1625,1825" transform="translate(-11.5 -11.5)"/><circle class="a67bca26-0161-4724-a5ae-b079d8ddfb01" cx="1613.7" cy="1813.5" r="10.5"/><circle class="a67bca26-0161-4724-a5ae-b079d8ddfb01" cx="1613.5" cy="1713.5" r="10.5"/><polyline class="a67bca26-0161-4724-a5ae-b079d8ddfb01" points="1763.5 1813.5 1813.5 1813.5 1813.5 1413.5 1763.5 1413.5 1763.5 1463.5"/><polyline class="a67bca26-0161-4724-a5ae-b079d8ddfb01" points="1813.5 1163.5 1813.5 1113.5 1763.5 1113.5"/><line class="a67bca26-0161-4724-a5ae-b079d8ddfb01" x1="1813.5" y1="561.4" x2="1813.5" y2="410.1"/><polygon class="a67bca26-0161-4724-a5ae-b079d8ddfb01" points="663.5 613.5 713.5 613.5 713.5 563.5 663.5 613.5"/><polygon class="a67bca26-0161-4724-a5ae-b079d8ddfb01" points="763.5 513.5 813.5 563.5 763.5 611.5 813.5 611.5 813.5 513.5 763.5 513.5"/><polyline class="a67bca26-0161-4724-a5ae-b079d8ddfb01" points="763.5 663.5 863.5 613.5 913.5 663.5 963.5 713.5"/><polygon class="a67bca26-0161-4724-a5ae-b079d8ddfb01" points="913.5 613.5 963.5 663.5 963.5 613.5 913.5 613.5"/><rect class="e165f4db-79c1-467b-9cae-eef0d33f1723" x="889.57" y="789.65" width="70.7" height="70.7" transform="translate(-323.96 884.15) rotate(-45)"/><line class="a67bca26-0161-4724-a5ae-b079d8ddfb01" x1="813.5" y1="763.5" x2="813.5" y2="863.5"/><line class="a67bca26-0161-4724-a5ae-b079d8ddfb01" x1="863.5" y1="913.5" x2="963.5" y2="913.5"/><polygon class="a67bca26-0161-4724-a5ae-b079d8ddfb01" points="1163.5 563.5 1113.5 513.5 1063.5 563.5 1113.5 611.5 1163.5 563.5"/><line class="a67bca26-0161-4724-a5ae-b079d8ddfb01" x1="1413.5" y1="513.5" x2="1513.5" y2="513.5"/><polygon class="a67bca26-0161-4724-a5ae-b079d8ddfb01" points="1513.5 463.5 1563.5 413.5 1613.5 413.5 1563.5 463.5 1513.5 463.5"/><polygon class="a67bca26-0161-4724-a5ae-b079d8ddfb01" points="1613.5 513.5 1767.1 513.5 1716.6 562.5 1613.5 513.5"/><polyline class="a67bca26-0161-4724-a5ae-b079d8ddfb01" points="1463.5 562.5 1463.5 663.5 1566.4 563.5 1466.9 563.5"/><polygon class="a67bca26-0161-4724-a5ae-b079d8ddfb01" points="1513.5 813.5 1513.5 913.5 1613.5 863.5 1513.5 813.5"/><polygon class="a67bca26-0161-4724-a5ae-b079d8ddfb01" points="1363.5 863.5 1413.5 863.5 1460.5 913.5 1363.5 863.5"/><polygon class="a67bca26-0161-4724-a5ae-b079d8ddfb01" points="314.9 1413.5 363.5 1413.5 363.5 1363.5 314.9 1413.5"/><line class="a67bca26-0161-4724-a5ae-b079d8ddfb01" x1="663.5" y1="1113.5" x2="768.1" y2="1113.5"/><line class="a67bca26-0161-4724-a5ae-b079d8ddfb01" x1="813.5" y1="1058.8" x2="813.5" y2="1005.7"/><polygon class="a67bca26-0161-4724-a5ae-b079d8ddfb01" points="663.5 963.5 763.5 963.5 713.5 1013.5 663.5 963.5"/><polyline class="a67bca26-0161-4724-a5ae-b079d8ddfb01" points="863.5 962.9 963.5 1013.5 1013.5 962.9"/><polyline class="a67bca26-0161-4724-a5ae-b079d8ddfb01" points="1063.5 962.9 1113.5 963.5 1213.5 1013.5 1263.5 1013.5 1213.5 962.9 1213.5 1011.8"/><polyline class="a67bca26-0161-4724-a5ae-b079d8ddfb01" points="1063.5 1013.5 1063.5 1063.5 1163.5 1063.5"/><polyline class="a67bca26-0161-4724-a5ae-b079d8ddfb01" points="1113.5 1113.5 1163.5 1163.5 1213.5 1113.5 1117.6 1113.5"/><line class="a67bca26-0161-4724-a5ae-b079d8ddfb01" x1="1663.5" y1="963.5" x2="1513.5" y2="1113.5"/><line class="a67bca26-0161-4724-a5ae-b079d8ddfb01" x1="1515" y1="1013.5" x2="1562.7" y2="1063"/><polyline class="a67bca26-0161-4724-a5ae-b079d8ddfb01" points="1763.5 1013.5 1613.5 1163.5 1763.5 1313.5"/><polyline class="a67bca26-0161-4724-a5ae-b079d8ddfb01" points="1713.5 1213.5 1713.5 1163.5 1663.5 1163.5 1713.5 1214.5"/><polygon class="a67bca26-0161-4724-a5ae-b079d8ddfb01" points="1713.5 1363.5 1663.5 1313.5 1613.5 1313.5 1563.5 1413.5 1713.5 1363.5"/><polygon class="a67bca26-0161-4724-a5ae-b079d8ddfb01" points="1663.5 1413.5 1613.5 1413.5 1613.5 1513.5 1663.5 1413.5"/><polyline class="a67bca26-0161-4724-a5ae-b079d8ddfb01" points="1663.5 1513.5 1613.5 1563.5 1663.5 1613.5 1713.5 1613.5 1666.8 1513.5"/><line class="a67bca26-0161-4724-a5ae-b079d8ddfb01" x1="1513.5" y1="1161.2" x2="1513.5" y2="1311.2"/><polygon class="a67bca26-0161-4724-a5ae-b079d8ddfb01" points="1313.5 962.9 1363.5 963.5 1413.5 1013.5 1363.5 1013.5 1313.5 962.9"/><polygon class="a67bca26-0161-4724-a5ae-b079d8ddfb01" points="1413.5 1063 1413.5 1163.5 1313.5 1163.5 1413.5 1063"/><polygon class="a67bca26-0161-4724-a5ae-b079d8ddfb01" points="1413.5 1263.5 1363.5 1213.5 1363.5 1263.5 1413.5 1263.5"/><rect class="e165f4db-79c1-467b-9cae-eef0d33f1723" x="739.57" y="1289.65" width="70.7" height="70.7" transform="translate(-721.45 924.53) rotate(-45)"/><polygon class="a67bca26-0161-4724-a5ae-b079d8ddfb01" points="813.5 1214.5 913.5 1163.5 863.5 1213.5 813.5 1214.5"/><polygon class="a67bca26-0161-4724-a5ae-b079d8ddfb01" points="863.5 1263.5 863.5 1313.5 913.5 1263.5 863.5 1263.5"/><polygon class="a67bca26-0161-4724-a5ae-b079d8ddfb01" points="913.5 1463.5 913.5 1563.5 963.5 1563.5 913.5 1463.5"/><polygon class="a67bca26-0161-4724-a5ae-b079d8ddfb01" points="963.5 1463.5 963.5 1513.5 1013.5 1513.5 963.5 1463.5"/><line class="a67bca26-0161-4724-a5ae-b079d8ddfb01" x1="413.5" y1="1463.5" x2="413.5" y2="1663.5"/><rect class="a67bca26-0161-4724-a5ae-b079d8ddfb01" x="413.5" y="1713.5" width="50" height="50"/><polygon class="a67bca26-0161-4724-a5ae-b079d8ddfb01" points="513.5 1613.5 563.5 1663.5 563.5 1567.4 513.5 1613.5"/><line class="a67bca26-0161-4724-a5ae-b079d8ddfb01" x1="563.5" y1="1463.5" x2="563.5" y2="1513.5"/><polyline class="a67bca26-0161-4724-a5ae-b079d8ddfb01" points="663.5 1563.5 713.5 1613.5 813.5 1613.5"/><polygon class="a67bca26-0161-4724-a5ae-b079d8ddfb01" points="1063.5 1763.5 1013.5 1713.5 1063.5 1662 1113.5 1713.5 1063.5 1763.5"/><line class="a67bca26-0161-4724-a5ae-b079d8ddfb01" x1="963.5" y1="1613.5" x2="1113.5" y2="1613.5"/><line class="a67bca26-0161-4724-a5ae-b079d8ddfb01" x1="1363.5" y1="1763.5" x2="1410.2" y2="1763.5"/><line class="a67bca26-0161-4724-a5ae-b079d8ddfb01" x1="1363.5" y1="1663.5" x2="1513.5" y2="1663.5"/><line class="a67bca26-0161-4724-a5ae-b079d8ddfb01" x1="1413.5" y1="1613.5" x2="1613.7" y2="1613.5"/><polygon class="a67bca26-0161-4724-a5ae-b079d8ddfb01" points="1363.5 1563.5 1413.5 1513.5 1413.5 1563.5 1363.5 1563.5"/><polygon class="a67bca26-0161-4724-a5ae-b079d8ddfb01" points="1363.5 1463.5 1413.5 1463.5 1413.5 1363.5 1363.5 1463.5"/><polygon class="a67bca26-0161-4724-a5ae-b079d8ddfb01" points="1463.5 1413.5 1513.5 1413.5 1563.5 1363.5 1463.5 1413.5"/><circle class="a67bca26-0161-4724-a5ae-b079d8ddfb01" cx="1512.6" cy="1514.4" r="12.6"/><polygon class="a67bca26-0161-4724-a5ae-b079d8ddfb01" points="1357.3 763.5 1566.4 763.5 1515 713.5 1357.3 763.5"/><polyline class="a67bca26-0161-4724-a5ae-b079d8ddfb01" points="1613.5 613 1561.1 661 1613.5 713.5 1615.7 613.5"/><polygon class="a67bca26-0161-4724-a5ae-b079d8ddfb01" points="1763.5 663.2 1813.5 663.5 1813.5 713.5 1763.5 663.2"/><polygon class="a67bca26-0161-4724-a5ae-b079d8ddfb01" points="1763.5 962.9 1763.5 913.5 1813.5 913.5 1813.5 963.5 1763.5 962.9"/><line class="a67bca26-0161-4724-a5ae-b079d8ddfb01" x1="1524.3" y1="1509.7" x2="1512.6" y2="1514.4"/><line class="a67bca26-0161-4724-a5ae-b079d8ddfb01" x1="1613.5" y1="1713.5" x2="1620.1" y2="1705.4"/><line class="a67bca26-0161-4724-a5ae-b079d8ddfb01" x1="1613.7" y1="1813.5" x2="1620.1" y2="1805.2"/><polygon class="a67bca26-0161-4724-a5ae-b079d8ddfb01" points="163.5 713.5 213.5 663.5 213.5 713.5 163.5 713.5"/><polyline class="a67bca26-0161-4724-a5ae-b079d8ddfb01" points="213.5 763.5 213.5 863.5 263.5 863.5 263.5 813.5 313.5 813.5"/><line class="a67bca26-0161-4724-a5ae-b079d8ddfb01" x1="1213.5" y1="413.5" x2="1313.5" y2="513.5"/><polyline class="a67bca26-0161-4724-a5ae-b079d8ddfb01" points="713.42 1413.5 763.5 1463.5 863.5 1563.5"/><polygon class="a67bca26-0161-4724-a5ae-b079d8ddfb01" points="663.5 1162.5 663.5 1214.5 663.5 1263.5 713.5 1214.5 663.5 1162.5"/><line class="a67bca26-0161-4724-a5ae-b079d8ddfb01" x1="763.5" y1="1162.5" x2="863.5" y2="1063.5"/><polygon class="a67bca26-0161-4724-a5ae-b079d8ddfb01" points="963.5 1463.5 863.5 1413.5 913.5 1363.5 963.5 1413.5 963.5 1463.5"/><line class="a67bca26-0161-4724-a5ae-b079d8ddfb01" x1="1213.5" y1="1363.5" x2="1213.5" y2="1214.5"/><polygon class="a67bca26-0161-4724-a5ae-b079d8ddfb01" points="1263.5 1311.2 1263.5 1263.5 1313.5 1263.5 1263.5 1311.2"/><g id="e498fa3c-9cb1-4c6e-a8d3-21cb816b4e90" data-name="定位边界"><rect class="e68a25cd-e4c3-4438-85e4-07cc100aca33" x="13.5" y="1513.5" width="300" height="300"/><rect class="e68a25cd-e4c3-4438-85e4-07cc100aca33" x="1513.5" y="13.5" width="300" height="300"/><rect class="e68a25cd-e4c3-4438-85e4-07cc100aca33" x="13.5" y="13.5" width="300" height="300"/></g><polygon class="a67bca26-0161-4724-a5ae-b079d8ddfb01" points="663.5 1662 713.5 1713.5 663.5 1713.5 663.5 1662"/><polyline class="a67bca26-0161-4724-a5ae-b079d8ddfb01" points="713.5 1763.5 713.5 1813.5 767.5 1813.5 717.5 1763.5"/><polygon class="a67bca26-0161-4724-a5ae-b079d8ddfb01" points="163.5 1363.5 113.5 1413.5 217.5 1413.5 163.5 1363.5"/><polygon class="a67bca26-0161-4724-a5ae-b079d8ddfb01" points="263.5 1263.5 209.5 1313.5 263.5 1363.5 313.5 1313.5 263.5 1263.5"/><polygon class="a67bca26-0161-4724-a5ae-b079d8ddfb01" points="163.5 1213.5 213.5 1263.5 163.5 1263.5 113.5 1213.5 163.5 1213.5"/><line class="a67bca26-0161-4724-a5ae-b079d8ddfb01" x1="113.5" y1="1163.5" x2="213.5" y2="1163.5"/><line class="a67bca26-0161-4724-a5ae-b079d8ddfb01" x1="263.5" y1="1363.5" x2="263.5" y2="1413.5"/><polygon class="a67bca26-0161-4724-a5ae-b079d8ddfb01" points="313.5 1113.5 263.5 1113.5 213.5 1063.5 313.5 1113.5"/><polygon class="a67bca26-0161-4724-a5ae-b079d8ddfb01" points="313.5 1214.5 363.5 1163.5 363.5 1113.5 313.5 1214.5"/><polygon class="a67bca26-0161-4724-a5ae-b079d8ddfb01" points="413.5 1063.5 563.5 1063.5 463.5 1113.5 413.5 1063.5"/><path class="a67bca26-0161-4724-a5ae-b079d8ddfb01" d="M625,1275" transform="translate(-11.5 -11.5)"/><path class="a67bca26-0161-4724-a5ae-b079d8ddfb01" d="M475,1174" transform="translate(-11.5 -11.5)"/><polygon class="a67bca26-0161-4724-a5ae-b079d8ddfb01" points="463.5 1162.5 463.5 1263.5 563.5 1213 463.5 1162.5"/><polygon class="a67bca26-0161-4724-a5ae-b079d8ddfb01" points="613.5 1263.5 513.5 1213.5 563.5 1263.5 613.5 1263.5"/><polyline class="a67bca26-0161-4724-a5ae-b079d8ddfb01" points="413.5 1313.5 413.5 1363.5 463.5 1413.5 463.5 1363.5 417.5 1311.35"/><path class="a67bca26-0161-4724-a5ae-b079d8ddfb01" d="M525,1375" transform="translate(-11.5 -11.5)"/><polygon class="a67bca26-0161-4724-a5ae-b079d8ddfb01" points="513.5 1363.5 563.5 1313.5 613.5 1363.5 513.5 1363.5"/><polygon class="a67bca26-0161-4724-a5ae-b079d8ddfb01" points="613.5 1313.5 663.5 1463.5 663.5 1363.49 613.5 1313.5"/><polygon class="a67bca26-0161-4724-a5ae-b079d8ddfb01" points="413.5 213.5 413.5 313.5 463.5 363.5 413.5 213.5"/><polygon class="a67bca26-0161-4724-a5ae-b079d8ddfb01" points="513.5 313.55 563.5 213.5 613.5 263.53 513.5 313.55"/><polygon class="a67bca26-0161-4724-a5ae-b079d8ddfb01" points="563.5 263.5 613.5 213.5 613.5 313.5 563.5 263.5"/><polygon class="a67bca26-0161-4724-a5ae-b079d8ddfb01" points="63.5 463.5 63.5 413.5 113.5 413.5 63.5 463.5"/><polygon class="a67bca26-0161-4724-a5ae-b079d8ddfb01" points="163.5 413.5 113.5 463.5 213.5 463.5 163.5 413.5"/><polygon class="a67bca26-0161-4724-a5ae-b079d8ddfb01" points="213.5 413.5 263.5 463.5 363.5 413.5 213.5 413.5"/><polygon class="a67bca26-0161-4724-a5ae-b079d8ddfb01" points="213.5 563.5 113.5 613.5 163.5 563.5 163.5 613.5 213.5 563.5"/><polyline class="a67bca26-0161-4724-a5ae-b079d8ddfb01" points="63.5 663.5 113.5 713.5 63.5 763.5"/><line class="a67bca26-0161-4724-a5ae-b079d8ddfb01" x1="1063.5" y1="1162.5" x2="863.5" y2="1363.5"/><polygon class="a67bca26-0161-4724-a5ae-b079d8ddfb01" points="713.5 63.5 863.47 163.5 763.5 61.3 713.5 63.5"/><polygon class="a67bca26-0161-4724-a5ae-b079d8ddfb01" points="763.5 113.5 863.47 113.5 813.5 163.5 763.5 113.5"/><rect class="a67bca26-0161-4724-a5ae-b079d8ddfb01" x="913.5" y="163.5" width="50" height="50"/><polygon class="a67bca26-0161-4724-a5ae-b079d8ddfb01" points="1413.5 113.5 1363.5 13.5 1413.5 63.5 1413.5 113.5"/><polygon class="a67bca26-0161-4724-a5ae-b079d8ddfb01" points="1313.5 63.5 1163.5 113.5 1163.5 63.5 1313.5 63.5"/><polyline class="a67bca26-0161-4724-a5ae-b079d8ddfb01" points="1213.5 163.5 1163.5 163.5 1113.41 163.5"/><polygon class="a67bca26-0161-4724-a5ae-b079d8ddfb01" points="1413.5 213.5 1363.5 363.5 1413.5 363.51 1413.5 213.5"/><polygon class="a67bca26-0161-4724-a5ae-b079d8ddfb01" points="1415.03 413.5 1313.5 413.5 1364.27 463.5 1415.03 413.5"/><polygon class="a67bca26-0161-4724-a5ae-b079d8ddfb01" points="1363.5 513.5 1313.5 562.5 1363.5 663.5 1363.5 513.5"/><rect class="a67bca26-0161-4724-a5ae-b079d8ddfb01" x="1263.5" y="663.5" width="50" height="50"/><polygon class="a67bca26-0161-4724-a5ae-b079d8ddfb01" points="1263.5 611.5 1163.5 663.5 1213.5 663.5 1263.5 611.5"/><polygon class="a67bca26-0161-4724-a5ae-b079d8ddfb01" points="1213.5 713.5 1213.5 763.5 1263.5 763.5 1213.5 713.5"/><polygon class="a67bca26-0161-4724-a5ae-b079d8ddfb01" points="1313.5 913.5 1263.5 913.5 1213.5 863.49 1313.5 913.5"/><rect class="a67bca26-0161-4724-a5ae-b079d8ddfb01" x="1089.64" y="789.64" width="70.71" height="70.71" transform="translate(-265.36 1025.63) rotate(-45)"/><line class="a67bca26-0161-4724-a5ae-b079d8ddfb01" x1="1063.5" y1="513.5" x2="1088.5" y2="538.5"/><line class="a67bca26-0161-4724-a5ae-b079d8ddfb01" x1="1063.5" y1="613.5" x2="1089.02" y2="587.98"/><line class="a67bca26-0161-4724-a5ae-b079d8ddfb01" x1="1163.5" y1="513.5" x2="1138.5" y2="538.5"/><polyline class="a67bca26-0161-4724-a5ae-b079d8ddfb01" points="1163.5 463.5 1213.5 513.5 1213.5 563.5"/><polyline class="a67bca26-0161-4724-a5ae-b079d8ddfb01" points="1063.5 863.5 1013.5 863.5 1013.5 763.5 1063.5 763.51 1063.5 663.5"/><polygon class="a67bca26-0161-4724-a5ae-b079d8ddfb01" points="511.71 513.5 511.71 562.5 613.5 513.5 511.71 513.5"/><polygon class="a67bca26-0161-4724-a5ae-b079d8ddfb01" points="613.5 563.5 613.5 663.5 562.61 663.5 613.5 563.5"/><polygon class="a67bca26-0161-4724-a5ae-b079d8ddfb01" points="562.61 763.5 563.5 713.5 663.5 713.5 562.61 763.5"/><polyline class="a67bca26-0161-4724-a5ae-b079d8ddfb01" points="563.5 863.5 613.5 813.5 663.5 863.49 613.5 913.5 563.5 867.5"/><line class="a67bca26-0161-4724-a5ae-b079d8ddfb01" x1="663.5" y1="813.5" x2="563.5" y2="813.5"/><polygon class="a67bca26-0161-4724-a5ae-b079d8ddfb01" points="1763.5 713.5 1713.5 813.5 1713.5 865.39 1763.5 813.5 1763.5 713.5"/><polygon class="a67bca26-0161-4724-a5ae-b079d8ddfb01" points="1163.5 1763.5 1313.5 1613.5 1163.5 1712.75 1163.5 1763.5"/><polygon class="a67bca26-0161-4724-a5ae-b079d8ddfb01" points="1263.5 1763.5 1313.5 1713.5 1313.5 1663.5 1263.5 1763.5"/><polygon class="a67bca26-0161-4724-a5ae-b079d8ddfb01" points="1263.5 1613.5 1213.5 1513.5 1213.5 1613.5 1263.5 1613.5"/><polygon class="a67bca26-0161-4724-a5ae-b079d8ddfb01" points="1263.5 1514.4 1161.24 1463.5 1263.5 1413.5 1313.5 1463.5 1263.5 1514.4"/><polygon class="a67bca26-0161-4724-a5ae-b079d8ddfb01" points="1067.5 1413.5 1113.5 1513.5 1161.24 1413.5 1113.5 1313.5 1067.5 1413.5"/><polygon class="a67bca26-0161-4724-a5ae-b079d8ddfb01" points="1013.5 1263.5 1013.5 1313.5 1063.5 1313.5 1013.5 1263.5"/><line class="a67bca26-0161-4724-a5ae-b079d8ddfb01" x1="1163.5" y1="1313.5" x2="1213.5" y2="1313.5"/><polygon class="a67bca26-0161-4724-a5ae-b079d8ddfb01" points="613.05 1013.5 562.61 1013.5 563.5 962.9 613.05 1013.5"/><polygon class="a67bca26-0161-4724-a5ae-b079d8ddfb01" points="513.5 913.5 463.5 963.5 463.5 913.5 513.5 913.5"/><polyline class="a67bca26-0161-4724-a5ae-b079d8ddfb01" points="413.5 863.5 463.5 813.5 463.5 763.5 413.5 713.5 463.5 663.5 363.5 713.5 412.48 713.5"/></svg>