<?xml version="1.0" encoding="UTF-8"?>
<svg id="uuid-357ba6c3-2bdb-41a5-9a93-b0ce0d04ed4d" data-name="图层 1" xmlns="http://www.w3.org/2000/svg" viewBox="0 0 1366 768">
  <defs>
    <style>
      .uuid-2c4d5057-e3b1-41d5-ab93-4a34e0c6db13 {
        fill: #ce2328;
      }

      .uuid-13cc93ab-3dd5-4826-8efa-e2a114e325c7 {
        fill: #222;
        fill-rule: evenodd;
      }

      .uuid-7c5971c3-f6cc-4f94-8734-21ac8f6414d9 {
        fill: none;
      }
    </style>
  </defs>
  <rect class="uuid-7c5971c3-f6cc-4f94-8734-21ac8f6414d9" width="1366" height="768"/>
  <g id="uuid-60ba2652-8d79-40b1-a32d-639fa06cf078" data-name="首页">
    <g id="uuid-1e971dcd-bd7b-4a30-863f-65f683041007" data-name="nav/main-tab-1366">
      <g id="uuid-f6ae2cca-6bce-4bcb-b3e6-f592618ec732" data-name="Group-16">
        <g id="uuid-1f0eb2d1-23ee-4035-8a61-b315c191848f" data-name="编组">
          <g id="uuid-528d69c0-6502-4eb9-90f8-ea1afaf3c814" data-name="logo/500px-nav">
            <path id="uuid-be0a9ef4-0a6a-49c0-a210-1b543cd7e7a2" data-name="Fill-1" class="uuid-13cc93ab-3dd5-4826-8efa-e2a114e325c7" d="M882.78,331.91l26.11-26.11c.95-.95,3.17-3.17-1.33-7.8-1.93-1.98-3.68-3-5.22-3.01h-.03c-1.32,0-2.21,.71-2.91,1.41l-26.17,26.17-26.12-26.29c-2.11-2.11-4.59-1.62-7.77,1.56-3.24,3.26-3.77,5.76-1.67,7.88l26.13,26.28-25.59,25.59-.18,.18c-.62,.6-1.56,1.51-1.57,3-.01,1.53,1.01,3.34,3.03,5.36,1.71,1.71,3.33,2.58,4.82,2.58h0c1.68,0,2.75-1.08,3.35-1.68l25.69-25.69,26.27,26.27c.33,.33,1.26,1.09,2.74,1.09h.05c1.66-.02,3.41-.98,5.2-2.86,2.95-3.1,3.44-5.67,1.46-7.67l-26.28-26.28Zm-99.35-36.15c-20.49,1.56-36.53,19.58-39.1,41.02v67.81c2.57,3.93,5.55,4.73,10.03,4.73s7.47-.8,8.39-4.73v-67.97c-.92-13.36,8.8-24.83,21.2-26.12,7.12-.73,13.97,1.5,19.3,6.31,5.23,4.71,8.23,11.49,8.23,18.59,0,2.03-.99,8.65-5.54,14.8-3.44,4.64-9.94,10.17-21.49,9.31h-.22c-2.96,.87-5.49,1-5.98,8.02-.33,4.72-.3,6.83,3.78,7.4,7.27,1.01,14.69-.41,22.04-4.23,12.55-6.53,20.96-18.9,21.95-32.29,.86-11.63-3.34-22.97-11.51-31.13-8.2-8.18-19.53-12.37-31.1-11.51h0Zm-424.16,44.94c-14.68-2.11-28.99,1.8-38.8,10.77v-38.04h66.58c2.38-2.34,4.08-2.77,4.08-9.79s-2.76-7.12-4.58-8.64h-75.78c-4.4,1.51-6.73,5.07-8.73,9.02v66.28c2,3.48,4.2,4.65,8.3,5.46,3.59,.71,5.67,.29,7.24-1.44l.17-.25c7.22-10.41,22.93-20.49,37.86-18.66,17.82,2.18,32.17,16.4,34.14,33.81,1.25,11.11-2.14,21.78-9.54,30.06-7.31,8.18-17.76,12.87-28.69,12.87-16.19,0-30.33-10.4-36.22-25.5-.87-2.24-2.34-3.89-8.72-1.57-5.86,2.13-6.2,4.6-5.39,6.83,7.67,21.12,27.9,35.31,50.33,35.31,15.19,0,29.74-6.51,39.9-17.87,10.29-11.51,14.97-26.34,13.25-41.77-2.7-24.15-21.39-43.42-45.4-46.85h0Zm295.89,90.45c-33.06,0-59.95-26.89-59.95-59.95s26.89-59.95,59.95-59.95,59.95,26.89,59.95,59.95-26.89,59.95-59.95,59.95h0Zm0-136.15c-42.02,0-76.2,34.18-76.2,76.2s34.18,76.2,76.2,76.2,76.2-34.18,76.2-76.2-34.18-76.2-76.2-76.2h0Zm-164.91,136.15c-33.06,0-59.95-26.89-59.95-59.95s26.89-59.95,59.95-59.95,59.95,26.89,59.95,59.95-26.89,59.95-59.95,59.95h0Zm0-136.15c-42.02,0-76.2,34.18-76.2,76.2s34.18,76.2,76.2,76.2,76.2-34.18,76.2-76.2-34.18-76.2-76.2-76.2h0Z"/>
          </g>
        </g>
      </g>
    </g>
  </g>
  <g>
    <path class="uuid-2c4d5057-e3b1-41d5-ab93-4a34e0c6db13" d="M1260.52,241.77c0,25.73-.35,51.47,.19,77.2,.18,8.6-2.84,11.75-11.08,13.35-41.12,7.98-82.11,16.62-123.18,24.85-5.72,1.14-11.64,1.75-17.47,1.78-33.41,.15-66.82-.05-100.23,.14-7.73,.04-12.71-.7-12.51-10.77,.62-31.14,.4-62.3,.27-93.45-.03-6.21,1.36-11.61,5.55-16.16,24.73-26.85,49.49-53.66,74.22-80.51,4.6-4.99,10.2-6.68,16.97-6.65,51.92,.22,103.84,.33,155.76,.1,8.66-.04,11.82,2.37,11.6,11.57-.62,26.17-.22,52.37-.22,78.55,.04,0,.07,0,.11,0Z"/>
    <path class="uuid-2c4d5057-e3b1-41d5-ab93-4a34e0c6db13" d="M669.49,629.83c-15.36,0-30.73-.24-46.09,.1-7.44,.17-10.42-2.26-10.36-10.12,.26-30.72,.18-61.45-.3-92.17-.12-7.55,3.2-10.09,9.78-11.74,38.05-9.59,75.94-19.77,114.03-29.21,29.22-7.24,57.85-17.53,88.93-15.3,10.69,.77,15.93,2.74,14.85,14.54-.9,9.86-1.2,20,.06,29.78,2.02,15.71-4.06,26.14-16.39,35.45-30.17,22.78-59.83,46.26-89.17,70.1-8.01,6.51-16.09,8.93-26.04,8.54-13.08-.52-26.2-.13-39.31-.13v.17Z"/>
    <path class="uuid-2c4d5057-e3b1-41d5-ab93-4a34e0c6db13" d="M1184.25,614.34c-19.49,.32-36.63-6.12-49.68-20.45-34.58-37.97-68.6-76.46-102.76-114.81-7.82-8.78-8.68-18.72-2.99-28.83,6.73-11.96,17.65-14.75,30.25-12.03,27.78,5.99,55.52,12.2,83.25,18.42,20.21,4.53,40.52,8.73,60.55,13.96,36.85,9.62,60.34,43.41,55.62,78.96-5.14,38.68-34.85,64.58-74.24,64.78Z"/>
    <path class="uuid-2c4d5057-e3b1-41d5-ab93-4a34e0c6db13" d="M757.34,116.27c0-20.3,.2-40.59-.1-60.88-.12-7.94,2.4-11.18,10.89-11.03,24.8,.42,49.61,.26,74.41-.17,7.24-.13,10.29,2.61,12.14,9.44,9.89,36.5,21.59,72.58,29.9,109.43,5.34,23.68,.99,48.53,1.75,72.84,.17,5.46-4.03,6.57-8.36,6.57-13.98-.01-27.95-.17-41.93-.37-3.77-.05-6.81-1.99-9.77-4.18-19.91-14.73-39.77-29.53-59.88-43.99-6.43-4.63-9.4-9.98-9.21-18.12,.48-19.83,.16-39.69,.15-59.53Z"/>
    <path class="uuid-2c4d5057-e3b1-41d5-ab93-4a34e0c6db13" d="M891.95,656.89c-2.6-26.67,2.47-58.77,7.36-90.93,1.4-9.19,4.8-13.31,14.72-13.01,20.31,.62,40.66,.37,60.98,0,7.95-.15,11.87,2.31,14.32,10.54,8.65,29.12,15.61,58.18,13.52,89.06-1.34,19.78-.25,39.73,.01,59.61,.1,7.61-2.26,11.89-10.76,11.83-30.27-.23-60.53-.34-90.8-.05-8.3,.08-9.57-3.96-9.45-10.88,.3-16.71,.1-33.43,.1-56.18Z"/>
  </g>
</svg>