<?xml version="1.0" encoding="utf-8"?>
<!-- Generator: Adobe Illustrator 27.0.0, SVG Export Plug-In . SVG Version: 6.00 Build 0)  -->
<svg version="1.1" id="uuid-357ba6c3-2bdb-41a5-9a93-b0ce0d04ed4d"
	 xmlns="http://www.w3.org/2000/svg" xmlns:xlink="http://www.w3.org/1999/xlink" x="0px" y="0px" viewBox="0 0 1366 768"
	 style="enable-background:new 0 0 1366 768;" xml:space="preserve">
<style type="text/css">
	.st0{fill:url(#SVGID_1_);stroke:#000000;stroke-miterlimit:10;}
	.st1{fill-rule:evenodd;clip-rule:evenodd;fill:#222222;}
	.st2{fill:#CE2328;}
</style>
<linearGradient id="SVGID_1_" gradientUnits="userSpaceOnUse" x1="0" y1="384" x2="1366" y2="384">
	<stop  offset="0" style="stop-color:#C2B1D5"/>
	<stop  offset="0.1586" style="stop-color:#CCBDDC"/>
	<stop  offset="0.4478" style="stop-color:#E5DEEE"/>
	<stop  offset="0.5" style="stop-color:#EAE5F2"/>
	<stop  offset="0.5378" style="stop-color:#D6D1E8"/>
	<stop  offset="0.5976" style="stop-color:#BCB9DB"/>
	<stop  offset="0.6641" style="stop-color:#A9A6D1"/>
	<stop  offset="0.7403" style="stop-color:#9B99CA"/>
	<stop  offset="0.8344" style="stop-color:#9291C6"/>
	<stop  offset="1" style="stop-color:#908FC5"/>
</linearGradient>
<rect class="st0" width="1366" height="768"/>
<g id="uuid-60ba2652-8d79-40b1-a32d-639fa06cf078">
	<g id="uuid-1e971dcd-bd7b-4a30-863f-65f683041007">
		<g id="uuid-f6ae2cca-6bce-4bcb-b3e6-f592618ec732">
			<g id="uuid-1f0eb2d1-23ee-4035-8a61-b315c191848f">
				<g id="uuid-528d69c0-6502-4eb9-90f8-ea1afaf3c814">
					<path id="uuid-be0a9ef4-0a6a-49c0-a210-1b543cd7e7a2" class="st1" d="M813.1,351.9l16.1-16.1c0.6-0.6,2-2-0.8-4.8
						c-1.2-1.2-2.3-1.8-3.2-1.9h0c-0.8,0-1.4,0.4-1.8,0.9l-16.1,16.1L791.2,330c-1.3-1.3-2.8-1-4.8,1c-2,2-2.3,3.5-1,4.8l16.1,16.2
						l-15.7,15.7l-0.1,0.1c-0.4,0.4-1,0.9-1,1.8c0,0.9,0.6,2.1,1.9,3.3c1.1,1.1,2,1.6,3,1.6l0,0c1,0,1.7-0.7,2.1-1l15.8-15.8
						l16.2,16.2c0.2,0.2,0.8,0.7,1.7,0.7h0c1,0,2.1-0.6,3.2-1.8c1.8-1.9,2.1-3.5,0.9-4.7L813.1,351.9L813.1,351.9z M752,329.7
						c-12.6,1-22.5,12-24.1,25.2v41.7c1.6,2.4,3.4,2.9,6.2,2.9s4.6-0.5,5.2-2.9v-41.8c-0.6-8.2,5.4-15.3,13-16.1
						c4.4-0.4,8.6,0.9,11.9,3.9c3.2,2.9,5.1,7.1,5.1,11.4c0,1.2-0.6,5.3-3.4,9.1c-2.1,2.9-6.1,6.3-13.2,5.7h-0.1
						c-1.8,0.5-3.4,0.6-3.7,4.9c-0.2,2.9-0.2,4.2,2.3,4.6c4.5,0.6,9-0.3,13.6-2.6c7.7-4,12.9-11.6,13.5-19.9
						c0.5-7.2-2.1-14.1-7.1-19.1C766.1,331.7,759.1,329.1,752,329.7L752,329.7L752,329.7z M491.1,357.3c-9-1.3-17.8,1.1-23.9,6.6
						v-23.4h41c1.5-1.4,2.5-1.7,2.5-6s-1.7-4.4-2.8-5.3h-46.6c-2.7,0.9-4.1,3.1-5.4,5.5v40.8c1.2,2.1,2.6,2.9,5.1,3.4
						c2.2,0.4,3.5,0.2,4.5-0.9l0.1-0.2c4.4-6.4,14.1-12.6,23.3-11.5c11,1.3,19.8,10.1,21,20.8c0.8,6.8-1.3,13.4-5.9,18.5
						c-4.5,5-10.9,7.9-17.6,7.9c-10,0-18.7-6.4-22.3-15.7c-0.5-1.4-1.4-2.4-5.4-1c-3.6,1.3-3.8,2.8-3.3,4.2
						c4.7,13,17.2,21.7,31,21.7c9.3,0,18.3-4,24.5-11c6.3-7.1,9.2-16.2,8.2-25.7C517.4,371.3,505.9,359.4,491.1,357.3L491.1,357.3
						L491.1,357.3z M673.1,412.9c-20.3,0-36.9-16.5-36.9-36.9s16.5-36.9,36.9-36.9c20.3,0,36.9,16.5,36.9,36.9
						S693.4,412.9,673.1,412.9L673.1,412.9z M673.1,329.2c-25.8,0-46.9,21-46.9,46.9s21,46.9,46.9,46.9c25.8,0,46.9-21,46.9-46.9
						C720,350.2,699,329.2,673.1,329.2L673.1,329.2L673.1,329.2z M571.7,412.9c-20.3,0-36.9-16.5-36.9-36.9s16.5-36.9,36.9-36.9
						s36.9,16.5,36.9,36.9S592,412.9,571.7,412.9L571.7,412.9L571.7,412.9z M571.7,329.2c-25.8,0-46.9,21-46.9,46.9
						s21,46.9,46.9,46.9s46.9-21,46.9-46.9C618.5,350.2,597.5,329.2,571.7,329.2L571.7,329.2L571.7,329.2z"/>
				</g>
			</g>
		</g>
	</g>
</g>
<g>
	<path class="st2" d="M1045.5,296.5c0,15.8-0.2,31.7,0.1,47.5c0.1,5.3-1.7,7.2-6.8,8.2c-25.3,4.9-50.5,10.2-75.8,15.3
		c-3.5,0.7-7.2,1.1-10.7,1.1c-20.6,0.1-41.1,0-61.7,0.1c-4.8,0-7.8-0.4-7.7-6.6c0.4-19.2,0.2-38.3,0.2-57.5c0-3.8,0.8-7.1,3.4-9.9
		c15.2-16.5,30.4-33,45.7-49.5c2.8-3.1,6.3-4.1,10.4-4.1c31.9,0.1,63.9,0.2,95.8,0.1c5.3,0,7.3,1.5,7.1,7.1
		C1045.2,264.2,1045.4,280.3,1045.5,296.5C1045.4,296.5,1045.4,296.5,1045.5,296.5L1045.5,296.5z"/>
	<path class="st2" d="M681.9,535.2c-9.4,0-18.9-0.1-28.4,0.1c-4.6,0.1-6.4-1.4-6.4-6.2c0.2-18.9,0.1-37.8-0.2-56.7
		c-0.1-4.6,2-6.2,6-7.2c23.4-5.9,46.7-12.2,70.1-18c18-4.5,35.6-10.8,54.7-9.4c6.6,0.5,9.8,1.7,9.1,8.9c-0.6,6.1-0.7,12.3,0,18.3
		c1.2,9.7-2.5,16.1-10.1,21.8c-18.6,14-36.8,28.5-54.9,43.1c-4.9,4-9.9,5.5-16,5.3C698,534.8,690,535.1,681.9,535.2L681.9,535.2
		L681.9,535.2z"/>
	<path class="st2" d="M998.6,525.6c-12,0.2-22.5-3.8-30.6-12.6c-21.3-23.4-42.2-47-63.2-70.6c-4.8-5.4-5.3-11.5-1.8-17.7
		c4.1-7.4,10.9-9.1,18.6-7.4c17.1,3.7,34.2,7.5,51.2,11.3c12.4,2.8,24.9,5.4,37.2,8.6c22.7,5.9,37.1,26.7,34.2,48.6
		C1041.1,509.6,1022.8,525.5,998.6,525.6L998.6,525.6z"/>
	<path class="st2" d="M736,219.3c0-12.5,0.1-25-0.1-37.4c-0.1-4.9,1.5-6.9,6.7-6.8c15.3,0.3,30.5,0.2,45.8-0.1
		c4.5-0.1,6.3,1.6,7.5,5.8c6.1,22.5,13.3,44.6,18.4,67.3c3.3,14.6,0.6,29.9,1.1,44.8c0.1,3.4-2.5,4-5.1,4c-8.6,0-17.2-0.1-25.8-0.2
		c-2.3,0-4.2-1.2-6-2.6c-12.2-9.1-24.5-18.2-36.8-27.1c-4-2.8-5.8-6.1-5.7-11.1C736.2,243.7,736,231.5,736,219.3L736,219.3z"/>
	<path class="st2" d="M818.8,551.8c-1.6-16.4,1.5-36.2,4.5-55.9c0.9-5.7,3-8.2,9.1-8c12.5,0.4,25,0.2,37.5,0
		c4.9-0.1,7.3,1.4,8.8,6.5c5.3,17.9,9.6,35.8,8.3,54.8c-0.8,12.2-0.2,24.4,0,36.7c0.1,4.7-1.4,7.3-6.6,7.3
		c-18.6-0.1-37.2-0.2-55.9,0c-5.1,0-5.9-2.4-5.8-6.7C818.9,576.1,818.8,565.8,818.8,551.8L818.8,551.8z"/>
</g>
</svg>
