<?xml version="1.0" encoding="UTF-8"?>
<svg id="_图层_2" data-name="图层 2" xmlns="http://www.w3.org/2000/svg" xmlns:xlink="http://www.w3.org/1999/xlink" viewBox="0 0 1366 768">
  <defs>
    <style>
      .cls-1 {
        fill: #009245;
      }

      .cls-2 {
        filter: url(#drop-shadow-4);
      }

      .cls-3 {
        filter: url(#drop-shadow-2);
      }
    </style>
    <filter id="drop-shadow-2" filterUnits="userSpaceOnUse">
      <feOffset dx="21" dy="21"/>
      <feGaussianBlur result="blur" stdDeviation="17"/>
      <feFlood flood-color="#000" flood-opacity=".9"/>
      <feComposite in2="blur" operator="in"/>
      <feComposite in="SourceGraphic"/>
    </filter>
    <filter id="drop-shadow-4" filterUnits="userSpaceOnUse">
      <feOffset dx="7" dy="7"/>
      <feGaussianBlur result="blur-2" stdDeviation="4"/>
      <feFlood flood-color="#000" flood-opacity=".88"/>
      <feComposite in2="blur-2" operator="in"/>
      <feComposite in="SourceGraphic"/>
    </filter>
  </defs>
  <rect class="cls-1" width="1366" height="768"/>
  <g class="cls-3">
    <path d="M483.79,359.23c8.52,17.13,17.37,34.1,24.21,52.02,11.44,29.96,19.44,60.7,23.61,92.57,2.2,16.82,3.62,33.6,4.05,50.53,.13,5.02-1.27,6.58-6.42,6.52-22.14-.26-44.29-.22-66.43,.02-4.76,.05-5.81-1.47-6.12-6.11-1.72-26.05-3.31-52.17-10.54-77.46-4.36-15.27-8.58-30.62-15.33-45.09-4.89-13.62-11.73-26.31-19.03-38.72-16.29-27.72-35.89-52.87-59.56-74.73-28.12-25.96-59.17-47.63-94.53-62.58-31.21-13.19-63.52-22.6-97.43-25.76-1.56-.15-3.14-.04-4.72-.05-2.2-.06-4.4-.12-6.6-.19-.85-.1-1.7-.2-2.56-.31-.62,0-1.24,0-1.86,0-5.72-1.94-11.64-.71-17.46-1.11-.05-24.57-.01-49.15-.24-73.72-.04-4.52,2.04-5.05,5.75-5.04,22.61,.02,44.96,2.57,67.22,6.26,44.89,8.45,87.59,23.44,127.2,45.99,37.17,21.17,70.64,47.41,99.68,79.19,21.86,23.92,40.1,50.36,57.1,77.77Z"/>
    <path d="M383.67,475.64c7.07,23.41,11.81,47.24,12.91,71.73,.11,2.48,.04,4.98,.33,7.43,.57,4.76-1.41,6.17-6.12,6.13-22.58-.19-45.16-.17-67.74,.07-4.73,.05-6.46-1.36-6.09-6.13,.33-4.24-.08-8.54-.16-12.82-1.41-16.7-5.39-32.64-11.23-48.47-7.45-20.18-17.56-38.57-31.23-54.93-36.4-43.6-83.07-67.15-139.86-70.03-5.86-.3-7.7-1.66-7.6-7.65,.36-21.24,.43-42.49,0-63.72-.13-6.68,2.46-7.87,8.25-7.65,20.86,.76,41.47,3.29,61.5,9.11,89.9,26.12,151.19,83.29,184.39,170.73,.8,2.1,1.75,4.14,2.64,6.2Z"/>
    <path d="M126.89,501.57c2.19-33.13,32.08-53.18,60.33-50.41,28.44,2.79,50.56,28.9,48.49,58.5-2.15,30.68-28.35,52.68-59.81,50.22-29.37-2.3-51.29-28.38-49.02-58.31Z"/>
    <path d="M148.97,230.2c2.2,.06,4.4,.12,6.6,.19-2.23,1.2-4.44,1.16-6.6-.19Z"/>
    <path d="M144.55,229.88c.62,0,1.24,0,1.86,0-.62,0-1.24,0-1.86,0Z"/>
  </g>
  <g class="cls-2">
    <path d="M910.46,350.29v6.05c-7.29,1.78-12.28,2.67-21.17,2.67-16.37,0-25.44-4.8-27.22-19.21l-5.16-24.55c-2.49-14.59-6.76-21.71-20.46-21.71h-8.72c0,18.68,0,37.01,.53,55.15l16.37,1.6v6.05h-62.81v-6.05l16.01-1.6c.53-17.97,.53-36.29,.53-54.8v-7.83c0-18.5,0-36.83-.53-55.15l-16.01-1.42v-6.05h64.05c31.31,0,48.39,12.28,48.39,33.45,0,14.59-9.96,28.29-37.9,32.56,23.31,3.2,29.36,12.99,32.38,30.6l5.87,29.36,15.83,.89Zm-72.23-63.34c19.93,0,27.58-13.34,27.58-29.53,0-17.61-9.43-27.22-27.4-27.22h-10.14c-.53,17.97-.53,36.29-.53,56.76h10.5Z"/>
    <path d="M976.65,277.35c26.51,11.92,36.3,22.6,36.3,42.7,0,23.66-17.97,39.85-51.42,39.85-14.59,0-30.78-3.74-41.46-10.68l1.25-30.6h10.32l9.43,30.96c5.34,1.96,10.68,2.67,17.44,2.67,17.61,0,27.4-8.36,27.4-22.24,0-12.1-5.16-18.5-19.39-24.73l-8.54-3.74c-23.84-10.67-36.47-22.6-36.47-43.95,0-24.02,19.39-37.72,48.39-37.72,13.88,0,26.33,3.74,36.12,10.14l-1.6,29h-10.32l-9.07-29.53c-3.56-1.6-7.12-2.13-11.56-2.13-15.48,0-25.44,7.83-25.44,21.17,0,12.28,6.76,18.86,19.22,24.55l9.43,4.27Z"/>
    <path d="M1084.65,277.35c26.51,11.92,36.3,22.6,36.3,42.7,0,23.66-17.97,39.85-51.42,39.85-14.59,0-30.78-3.74-41.46-10.68l1.25-30.6h10.32l9.43,30.96c5.34,1.96,10.68,2.67,17.44,2.67,17.61,0,27.4-8.36,27.4-22.24,0-12.1-5.16-18.5-19.39-24.73l-8.54-3.74c-23.84-10.67-36.47-22.6-36.47-43.95,0-24.02,19.39-37.72,48.39-37.72,13.88,0,26.33,3.74,36.12,10.14l-1.6,29h-10.32l-9.07-29.53c-3.56-1.6-7.12-2.13-11.56-2.13-15.48,0-25.44,7.83-25.44,21.17,0,12.28,6.76,18.86,19.22,24.55l9.43,4.27Z"/>
    <path d="M708.45,532.04c-.14,1.4-8.12,5.6-15.82,5.6h-3.64v-71.96c-4.9,4.9-10.08,9.24-15.54,13.16l-1.54-.98c11.06-17.92,22.12-46.06,27.02-73.36l26.88,7.98c-.7,1.82-2.52,3.08-5.74,2.94-4.2,11.06-9.1,20.72-14.56,29.4l7.42,2.8c-.56,1.4-1.68,2.24-4.48,2.8v81.62Zm60.9-52.5c-.28,11.62-2.66,21.42-7.7,29.54,14.14,4.62,31.08,6.58,48.3,6.3l-.14,1.68c-7.7,2.52-14,9.94-15.4,20.16-18.48-2.94-32.62-7.98-43.26-16.38-9.66,7.84-23.66,13.3-42.7,16.8l-.7-1.4c16.1-6.58,27.02-14.7,33.6-25.2-4.62-6.16-8.4-13.44-11.2-22.26l1.4-.7c3.36,5.46,8.26,10.08,14.28,13.86,2.38-6.58,3.5-14,3.64-22.4h-12.18v3.22c0,1.68-8.54,5.74-16.52,5.74h-2.66v-51.38l20.02,7.7h11.34v-14.14h-31.78l-1.12-3.92h32.9v-21.7l24.92,2.38c-.28,1.96-1.4,3.36-5.04,3.92v15.4h8.4l10.78-14.14s12.18,9.38,19.46,15.82c-.42,1.54-2.1,2.24-4.06,2.24h-34.58v14.14h10.64l8.68-9.52,17.92,13.58c-.84,1.12-2.66,2.38-5.6,3.08v29.82c0,1.12-9.66,4.9-16.24,4.9h-3.36v-7.14h-12.04Zm-32.06-3.92h12.18v-26.88h-12.18v26.88Zm32.06-26.88v26.88h12.04v-26.88h-12.04Z"/>
    <path d="M941.27,420.32c-1.12,1.26-2.94,2.66-6.16,3.36v90.02c0,13.02-2.94,20.02-24.22,21.84-.42-6.3-1.12-10.92-3.08-13.72-2.1-2.94-4.62-5.04-11.62-6.3v-1.82s13.02,.84,15.82,.84c2.24,0,2.8-1.12,2.8-2.8v-25.06h-23.94v43.54c0,1.26-5.88,5.32-16.24,5.32h-3.64v-48.86h-22.54c-2.94,18.2-10.78,36.12-32.48,49.28l-1.26-.98c14.56-21.42,15.54-48.86,15.54-75.18v-51.38l22.82,7.7h60.2l9.24-10.64,18.76,14.84Zm-70.28,62.44v-30.1h-20.86v7c0,7.42-.14,15.26-1.12,23.1h21.98Zm-20.86-62.72v28.7h20.86v-28.7h-20.86Zm40.74,0v28.7h23.94v-28.7h-23.94Zm23.94,62.72v-30.1h-23.94v30.1h23.94Z"/>
    <path d="M1068.53,468.62s12.46,9.1,20.16,15.4c-.42,1.54-2.1,2.24-4.2,2.24h-51.52v26.18c0,14-4.2,23.66-29.68,25.2-.56-7.14-1.82-12.32-5.46-15.54-3.5-3.08-7.42-5.46-18.2-7.14v-1.68s23.1,1.26,27.86,1.26c2.24,0,3.22-1.12,3.22-2.8v-25.48h-55.16l-1.12-3.92h56.28v-25.76h-48.3l-1.12-3.92h49.42v-22.12c-16.1,.98-32.76,1.4-48.16,.98l-.28-1.82c31.92-4.9,71.26-15.54,91.14-24.92l20.44,19.88c-1.68,1.4-5.32,1.82-10.78-.28-8.68,1.68-18.9,3.22-30.1,4.34v23.94h20.3l10.78-13.44s12.32,8.96,19.74,15.12c-.42,1.54-2.1,2.24-4.2,2.24h-46.62v25.76h24.5l11.06-13.72Z"/>
    <path d="M1217.63,450.84s8.68,8.26,13.44,13.72c-.28,1.54-1.82,2.24-3.64,2.24h-16.38v49.28c0,12.88-2.52,19.88-22.4,21.56-.28-6.16-.98-10.92-2.66-13.58-1.82-2.8-4.06-4.9-10.08-6.16v-1.82s10.78,.7,13.3,.7c2.24,0,2.66-.98,2.66-2.66v-47.32h-8.54c-.28,24.22-2.8,51.66-28.84,70.7l-1.4-.84c10.36-20.02,11.2-45.5,11.34-69.86h-8.54v47.46c0,12.74-2.52,19.6-21.84,21.28-.28-6.16-.98-10.78-2.52-13.44-1.68-2.8-3.92-4.76-9.66-6.02v-1.82s10.22,.7,12.6,.7c2.1,0,2.52-.98,2.52-2.66v-45.5h-7.98c-.84,23.94-5.32,51.8-30.38,70.84l-1.26-.98c10.78-20.58,12.74-46.06,13.16-69.86h-14.98l-1.12-3.92h16.1v-53.62l21.42,7.28h3.64l8.4-9.38,16.94,13.3c-.84,.98-2.52,2.1-5.04,2.66v39.76h8.54v-53.76l21.7,7.42h4.2l8.82-9.94,17.64,14c-.98,1.12-2.8,2.38-5.74,2.94v37.52l6.58-10.22Zm-80.64,12.04v-42.42h-7.84v42.42h7.84Zm54.88,0v-42.42h-8.54v42.42h8.54Z"/>
  </g>
</svg>