<?xml version="1.0" encoding="UTF-8"?>
<svg id="_图层_1" data-name="图层 1" xmlns="http://www.w3.org/2000/svg" xmlns:xlink="http://www.w3.org/1999/xlink" viewBox="0 0 1920 1080">
  <defs>
    <style>
      .cls-1 {
        fill: #fff;
      }

      .cls-2 {
        fill: url(#_天空);
      }

      .cls-3 {
        fill: red;
      }
    </style>
    <linearGradient id="_天空" data-name="天空" x1="114.75" y1="37.83" x2="1881.04" y2="1087.19" gradientUnits="userSpaceOnUse">
      <stop offset="0" stop-color="#cce0f4"/>
      <stop offset=".06" stop-color="#c2dcf2"/>
      <stop offset=".17" stop-color="#a9d2ee"/>
      <stop offset=".31" stop-color="#7fc2e7"/>
      <stop offset=".46" stop-color="#46abdd"/>
      <stop offset=".57" stop-color="#1e9cd7"/>
      <stop offset=".87" stop-color="#0075be"/>
      <stop offset=".99" stop-color="#005b97"/>
    </linearGradient>
  </defs>
  <rect class="cls-2" width="1920" height="1080"/>
  <g>
    <path class="cls-1" d="M1454.47,823.8h0s-.08,.11-.11,.15c.02-.01,.05-.03,.07-.04,.02-.05,.05-.09,.07-.14l-.03,.03Z"/>
    <path class="cls-1" d="M1680.71,900.72c0-.72-.26-1.26-.99-1.5-4.24-5.16-4.68-11.19-4.2-17.54,.24-3.31,2.57-6.09,2.11-9.51,.02-.48,.05-.95,.08-1.42,1.65-2.53,.36-5.05-.03-7.57,.52-.66,.53-1.32-.01-1.97-.66-2.12-1.32-4.24-1.98-6.37-.2-.54-.4-1.09-.6-1.63-.71-2.43-1.85-4.62-3.62-6.46v-.36l-.33-.12c-2.03-3.69-5.23-6.19-8.59-8.54-.51-.23-1.01-.45-1.52-.67-2.08-1.61-3.84-3.53-5.68-5.39-3.44-3.49-6.2-7.84-10.6-10.23-6.53-3.55-13.06-7.06-20.38-8.96-11.32-2.92-22.54-6.22-33.8-9.36-.72-.13-1.44-.26-2.16-.39-8.67-3.3-17.91-4.25-26.83-6.53-.96-.73-2.04-.69-3.15-.48-10.1-3.53-20.07-7.54-30.85-8.64-.96-.78-2.08-.93-3.27-.82-3.81-1.19-7.74-1.74-11.7-2.06-.74-.18-1.47-.36-2.2-.54-3.57-.78-7.09-1.87-10.82-1.47-.45-.05-.9-.09-1.35-.14-3.1-1.44-6.28-1.17-9.48-.41-.71,.19-1.42,.39-2.14,.58-5.13,1.03-8.48,4.09-10.19,9-.81,.62-1.07,1.45-.96,2.43-1.43,3.19-2.85,6.38-4.27,9.57-.25,.52-.49,1.04-.73,1.56-2.55,6.3-5.77,12.08-11.91,15.67-1.21,.71-2.9,.96-3.19,2.77-.32,.23-.62,.46-.94,.69-.33,.61-.64,1.23-.96,1.84-2.23,2.49-2.47,5.55-2.88,8.71-1.09,8.42,4.53,14.58,7.08,21.75,1.09,3.07,2.95,5.78,.46,8.68-2.42,2.83-5.72,3.83-9.42,3.18-5.4-.93-7.84,1.42-8.9,7.09-1.63,8.76,1.57,16.11,5.68,23.34,.2,.56,.4,1.11,.6,1.67,.36,2.96,.58,5.94,1.11,8.87,1.04,5.67,.96,10.59-4.56,14.49-2.63,1.86-6.01,4.17-6.59,7.61-.64,3.84,0,7.89,.07,11.85-.33,.77-.28,1.5,.24,2.18-.03,1.67-.05,3.34-.08,5.02-.71,1.66-.61,3.32,.05,4.98-.56,2.67-.52,5.34-.02,8.01-.55,1.03-.52,2.06,.04,3.08-1.25,2.69,.63,4.43,2.1,6.08,3.29,3.68,6.78,7.19,10.18,10.76l.05,.05c.86,1.53,2.34,1.79,3.89,1.92,.57,.32,1.15,.65,1.73,.98,2.43,1.68,4.86,3.35,7.3,5.03,.39,.35,.78,.71,1.17,1.06,2.3,1.84,4.7,3.46,7.87,3.1,.42,.05,.85,.1,1.27,.15,2.1,1.13,4.38,1.66,6.71,2.02,.93,.86,2.03,.96,3.21,.72,4.21,2.12,8.95,2.4,13.42,3.33,10.43,2.17,19.91,7,30.09,9.83,9.77,2.73,19.82,4.49,29.31,8.2,.31,.19,.63,.37,.95,.55,.91,.11,1.73,.33,2.01,1.37,.35,.25,.7,.5,1.06,.75,1.3,1.43,2.75,2.75,3.87,4.31,1.08,1.5,2.23,2.01,3.66,.82,2.61-2.19,6-3.35,8.1-6.19,.85-.33,1.28-.94,1.33-1.84,3.32-4.14,5.54-8.88,7.79-13.65,2.27-4.81,3.86-10.51,11.04-10.21,1.51,.06,2.48-1.5,3.65-2.4,6.4-4.87,9.15-12.88,15.44-17.82,1.11-.28,1.81-.95,2.02-2.09,.07-.98,.49-1.68,1.5-1.91,.87-.44,1.46-1.08,1.57-2.09,6.12-8.5,8.02-18.12,6.82-28.29-.75-6.26,1.4-10.84,6.07-14.62,.35-.25,.69-.49,1.03-.74,3.6-2.97,7.84-5.35,9.29-10.27,.24-.36,.47-.72,.71-1.08,3.09-3.65,2.23-8.48,3.73-12.62,.9-2.48,1.8-4.75,4.64-5.16,2.86-.4,4.33,1.56,5.88,3.7,5.03,6.91,10.27,13.66,15.46,20.45,1.5,1.97,2.92,1.87,4.15-.3,.84-.6,1.68-1.19,2.53-1.8-.02,0-.03,.01-.05,.01l-.18,.07c.63-.77,1.25-1.53,1.87-2.29,4.63-5.41,4.65-8.17,.12-15.43Zm-168.99-19.62c.37-3.16,2.85-2.65,5.53-2.85,4.33,1.41,9.62,.57,14.36,3.23,6.83,3.82,14.38,5.75,22.04,7.07,5.6,.96,9.76,4.65,14.61,6.93,7.62,3.58,14.23,9.08,22.49,11.43,2.87,.81,8.18,.96,6.83,5.23-1.08,3.39-6.07,1.54-8.87,.7-4.78-1.44-9.64-2.35-14.43-3.62-11.26-3-22.89-4.02-34.19-6.76-6.77-1.64-13.17-4.34-19.67-6.73-2.19-.8-8.94-12.5-8.7-14.63Zm87.74,102.89c-2.05,1.04-2.39,3.38-3.78,4.94-4.69,5.26-4.66,5.29-8.97,.04-5.27-11.11-15.49-14.96-26.35-17.38-21.22-4.73-42.53-9.09-63.81-13.57-3.67-.78-6.85-2.56-9.85-4.65-2.4-1.66-3.48-4.11-2.56-6.96,.89-2.75,3.04-3,5.67-2.46,2.66,.54,4.68-1.47,6.85-2.56,4.43-2.23,8.82-3.61,13.91-2.52,2.17,.46,4.61-.13,6.9-.43,7.06-.94,12.87,.95,18.01,6.21,3.72,3.81,9.17,5.23,14.12,7.07,3.91,1.45,7.67,2.92,11.1,5.44,7.35,5.39,15.53,9.48,23.47,13.92,1.22,1.36,2.77,1.44,4.42,1.13,1.12,.31,2.22,.61,3.34,.91h.01c1.22,.56,2.43,1.13,3.65,1.69,.06,.41,.3,.57,.7,.48,2.06,2.24,3.64,4.69,3.6,7.88-.14,.27-.29,.55-.43,.82Zm8.97-127.09c-.84,0-1.67,0-2.5,0-3.18-.44-6.97,.89-8.52-3.84-.32-.97-3.25-1.32-5.03-1.53-14.41-1.67-28.16-6.53-42.46-8.76-3.43-.53-6.85-1.21-10.26-1.87-4.01-.78-4.19-3.63-3.72-6.88,.5-3.43,2.83-3.85,5.53-3.29,15.35,3.18,30.89,5.06,45.68,11.22,6.92,2.87,13.89,7.3,22.02,6.83,4.02-.23,3.89,2.16,3.97,5.07,.1,3.98-2.48,3.08-4.71,3.05Z"/>
    <path class="cls-1" d="M1644.73,266.56l-.09,.09,.25-.19s-.11,.06-.16,.1Zm-54.35-48.51c.03-.06,.06-.11,.09-.17l-.16,.21s.05-.03,.07-.04Z"/>
    <path class="cls-1" d="M1903.5,768.98c-.9-5.59-1.28-11.51-4.07-16.73,.02-1.28-.56-2.25-1.53-3.03-.81-.35-1.14-.96-.98-1.83,.07-.98-.21-1.79-1.13-2.28-11.29-19.17-28.48-30.52-49.24-37.13-.09-.4-.34-.55-.74-.43-.96-1.43-2.61-1.16-3.95-1.68-3.71-1.43-7.73-.86-11.53-2.18-7.42-2.57-14.8-5.47-22.79-5.97-1.2-.88-2.51-1.44-4.04-1.35-9.36-3.61-19.21-5.34-28.93-7.58l-2.25-.9c-10.24-5.6-21.49-8.62-32.65-11.25-6.12-1.44-9.95-4.12-12.44-9.2-4.38-8.96-11.16-16.04-17.56-23.45-.34-1.23-1.06-2.16-2.23-2.71-2.63-3.53-5.27-7.05-7.9-10.57,.04-.4-.14-.61-.54-.62-5.83-7.87-11.65-15.75-17.48-23.62-.39-.4-.78-.79-1.17-1.19-3.67-6.63-8.97-11.79-14.52-16.84-5.48-4.98-11.44-8.58-19.03-8.32-5.24,.18-9.47-1.58-13.72-4.59-8.48-6.01-17.65-8.83-28.16-4.88-9.75,3.66-17.85,10.14-26.81,15.12-8.61,4.78-17.03,10.15-25.25,15.78-6.87,4.72-13.45,9.65-19.8,14.99-1.25,1.05-1.71,2.24-2.25,3.68-2.2,5.92,.42,10.65,3.4,15.38,1.85,2.95,3.9,3.43,7.09,1.67,5.4-2.97,10.22-6.64,14.94-10.55,10.2-8.43,22.17-14.35,31.51-24.22,11.08-11.7,25.63-18.07,41.38-21.43,1.74-.37,3.81-.84,4.96,1.14,1.05,1.8,.51,3.77-1.02,4.97-8.81,6.92-15.05,17.36-27.12,19.85-1.08,.23-2.04,1.09-3.04,1.69-3.84,2.3-7.46,4.95-11.19,7.41-5.21,3.43-11.27,7.03-14.2,12.14-4.9,8.56-11.61,15.72-16.57,24.14-1.09,1.84-2.32,3.44-.55,5.33,1.99,2.12,3.14,.04,4.48-1.08,.49-.41,1.18-.6,1.81-.8,14.21-4.36,26.26-13.27,39.85-19.13,8.16-3.52,16.68-8.03,23.81-14.11,2.06-1.76,4.61-2.86,7.38-2.53,2.91,.33,5.1-.9,7.38-2.39,4.02-2.64,7.93-5.55,12.63-6.97,1.32-.4,2.81-.52,3.66,.73,.94,1.36-.05,2.59-1.02,3.5-2.06,1.93-4.29,3.68-6.35,5.61-5.75,5.38-13.53,6.02-20.39,8.81-.68,.1-1.37,.2-2.05,.3-5.26,2.66-10.83,4.83-14.54,9.83-.77,1.03-1.82,2.3-2.93,2.54-7.57,1.57-12.05,7.37-17.24,12.21h-.27v.27c-2.25,1.38-4.5,2.75-6.75,4.14-1.13,.7-2.48,1.38-2.19,2.99,1.13,6.46,1.8,13.07,6.65,18.24,1.65,1.76,2.87,2.19,5.05,.79,6.28-4.01,13.4-6.17,20.34-8.68,1.66-.6,3.69-1.56,5.11,.13,1.63,1.94-.41,3.16-1.38,4.64-1.67,2.54-5.18,5.1-3.26,8.28,3.48,5.75,5.01,12.69,10.31,17.33,.21,.64,.68,.87,1.32,.82,6.83,4.01,7.63,6.79,3.63,12.33-.68,.94-2.55,1.77-1.13,3.2,1.19,1.19,2.49,.04,3.51-.71,5.73-4.22,11.02-8.91,15.32-14.63l.33,.02,.09-.32c2.24-1.54,4.48-3.08,6.72-4.63l.3-.1c1.85-.65,3.69-1.33,5.56-1.93,4.55-1.46,9.16-3.27,13.95-1.39,2.83,1.12,5.1,.63,7.36-1.08,.7-.11,1.4-.23,2.1-.34,1.68,.42,3.36,.85,5.03,1.28,.11,.38,.35,.52,.73,.42,.64,.48,1.22,1.21,1.94,1.4,4.54,1.21,6.91,3.58,6.29,8.76-.3,2.46,.69,5.2,2.91,7.02-.1,.35,.03,.59,.38,.7,2.64,4.9,4.09,10.42,7.75,14.79l.14,.23c4.72,8.19,7.64,17.05,9.83,26.2,.66,2.73,2.61,3.84,5.25,2.88,2.61-.94,5.09-2.26,7.63-3.42,2.41,0,4.83,0,7.24,0,2.08,2.03,4.11,4.16,1.5,7.09-.78,.88-2.78,.92-2,2.78,.69,1.65,2.21,2.51,3.95,2.61,3.84,.21,6.82,1.9,9.63,4.49,1.62,1.5,3.49,3.07,5.86,3.57,.06,.4,.29,.55,.68,.44,1.88,2.27,4.53,3.4,7.02,4.76,.25,.7,.74,.98,1.46,.91,1.18-.29,2.19-.17,2.78,1.06,.54,.25,1.08,.49,1.62,.73,7.38,6.38,16.9,9.41,24.39,15.62l.17,.37h.41c5.79,4.92,12.21,9.04,18.37,13.38,6.14,4.33,12.98,9.02,21.33,8.21,4.24-.42,7.14,1.19,10.16,3.93,5.46,4.94,10.14,11.08,17.88,12.9l.23,.09c4.74,2.69,6.94,7.33,9.19,11.95,2.38,4.88,3.61,5.17,7.34,1.03,3.63-4.03,6.86-8.42,10.26-12.66,.89-.28,1.48-.85,1.71-1.78,2.16-1.87,2.5-4.47,3.05-7.08,1.5-7.16,1.73-14.43,2.4-21.67,1.16-12.61,1.45-25.2-.56-37.65Zm-222.89-132.02c-1.04,1.04-1.01,2.4-1.1,3.72,1.65,1.47,1.35,3.44,1.39,5.33-9.07,6.4-18.72,11.58-29.42,14.7-2.17,.64-3.88,.26-5.35-1.4-.4-3.54,4.46-3.34,4.62-6.49-.28-3.78-1.8-7.79,2.76-10.43,3.37-1.95,6.2-4.39,10.78-3.67,3.39,.53,3.83-2.87,3.67-5.64-.07-1.3-.77-2.72,.88-3.46,1.54-.69,2.38,.52,3.34,1.46,1.63,1.61,3.5,2.41,5.87,1.54,1.47-.54,3.03-.53,3.94,1.06,.92,1.6-.47,2.37-1.38,3.28Z"/>
    <path class="cls-1" d="M1680.95,183.9c.13,1.54-.31,2.97-1.13,4.27-5.71,9.06-7.95,19.6-12.52,29.16-.27,.57-.55,1.15-.82,1.73-2.06,4.26-4.19,8.5-4.88,13.26-.17,.73-.34,1.46-.51,2.19-1.85,3.25-2.2,6.96-3.27,10.45-1.03,3.32-3.33,5.99-6.9,4.94-3.4-1-2.15-4.33-1.59-6.9,3.92-18.03,3.59-36.19,1.65-54.4-.01-.85-.01-1.69-.01-2.53-.07-1.14-.14-2.27-.21-3.41-.09-.45-.18-.91-.26-1.37-1.78-14.15-3.97-28.25-4.84-42.5,.65-2.51,.79-5.01-.17-7.49-.09-4.78-.06-9.51-1.12-14.27-.93-4.21,.31-10-7.23-6.13-.65,.33-1.65,.06-2.47-.06-3.24-.49-6.12,.29-9.09,1.69-3.09,1.46-6.05,3.63-9.79,3.31-2.96-.26-4.06-1.39-2.11-4.13,.89-1.25,3.03-2.54,1.12-4.1-1.59-1.29-3.47,.3-4.21,1.58-3.09,5.4-8.47,6.96-13.75,8.78-1.15-.4-2.24-.32-3.25,.38-10.85,4.83-21.95,8.83-33.78,10.51-2.29-.34-3.96,.8-5.48,2.29l-.36,.18-1.38,.81c-3.89,2.41-8.15,2.25-12.41,1.6-1.71-.26-2.71-2.85-4.76-2.11-4.98,1.82-9.88,3.87-14.82,5.83-.3,.26-.6,.51-.9,.77-6.13,4.7-12.58,7.39-20.11,3.13-.96-.82-1.95-.91-2.97-.12-3.97,1.3-8.52,.87-11.83,4.08-.39,.41-.79,.81-1.18,1.21-6.52,5.54-2.82,12.63-1.51,18.31,2.17,9.35,9.5,15.9,16.54,22.29,4.6,4.17,10.67,6.06,15.05,10.44,.98,.99,1.5,3.02,3.43,2.09,1.61-.77,1.3-2.54,1.28-4.01-.07-5.31-.3-10.59,1.89-15.66,.8-1.86,1.47-3.27,3.75-3.21,2.13,.05,4.37-.5,5.54,2.16,2.43,5.49,7.13,6.08,12.44,6.06,11.16-.06,21.3-4.72,32.03-6.63,7.57-1.34,15.19-1.49,22.77-.23,3.71,.62,6.02,2.73,5.71,6.85-.18,2.34,.82,3.45,3.22,3.18,2.36-.25,4.05,.49,3.86,3.19-.2,2.89-2.02,3.15-4.59,2.94-5.05-.4-10.4-2.1-14.62,2.75-.67,.77-2.51,.61-3.82,.72-2.86,.25-5.53,1.13-8.16,2.18-.95,.38-2.01,.8-1.97,1.96,.04,1.42,1.25,1.9,2.42,2.12,3.88,.74,7.78,1.36,11.66,2.1,7.76,1.47,15.91,1.33,23.04,5.47,.38,.24,.76,.48,1.13,.72l1.68,5.01c-.11,.71-.23,1.43-.34,2.14-1.94,2.97-4.76,3.75-8.14,3.52-4.66-.33-8.34-2.73-12.08-5.17-1.24-.81-2.71-3.37-4.42-.38-.35,.21-.68,.4-1.02,.61-.26,.47-.51,.95-.77,1.43-2.13,1.31-2.7,3.99-5.13,5.25-3.57,1.84-9.15,2.64-6.45,9.21,.33,.82-.91,2.4-1.61,3.5-1.72,2.69-4.59,3.67-7.37,4.76-2.19-.46-4.36-.57-6.5,.25-9.05,.99-13.6-4.73-11.42-9.5,2.45-5.35-.49-6.54-4.5-7.55-.71-.36-1.42-.71-2.13-1.07-4.44-4.26-4.59-6.28-.72-10.22,.69-.7,1.55-1.27,2.17-2.02,1.01-1.23,2.62-2.5,1.43-4.28-1.01-1.5-2.72-.84-4.12-.47-5.15,1.33-10.29,2.37-15.61,.89-.81-.22-1.61,.19-1.97,1.09-.35,.25-.7,.5-1.05,.75-3.37,.95-7.28,2.08-8.44,5.35-2.05,5.81-5.25,11.41-4.92,17.9-.76,2.01-.77,4,.1,5.97,1.83,11.02,1.93,22.03-.09,33.03-.59,.99-.59,1.97,0,2.96v17.03c-.5,2.35-1.13,4.71,.28,6.98,1.34,5.83,4.6,10.58,8.72,14.71,2.87,2.89,3.54,5.65,.39,8.49-1.71,1.54-1.7,2.69-.77,4.68,1.8,3.87,3.54,7.87,3.14,12.33-.2,2.25-.95,4.31-3.38,5.02-2.17,.63-4.84,1.99-6.53-.13-2.56-3.24-6.65-5.81-5.76-10.98,.41-2.4-.89-3.25-2.85-1.83-3.82,2.79-5.94,6.86-6.07,11.43-.13,4.46,4.18,4.37,7.16,5.45,.67,1.12,1.67,1.72,2.96,1.86,1.4,1.78,3.37,2.08,5.4,1.86,8.81-.95,17.41-.8,25.72,3.01,2.48,1.14,4.86,2.24,4.56,5.08-.32,3.02-3.25,2.19-5.27,2.28-6.41,.31-13-1.25-19.11,2.07-5.24,2.86-10.79,2.93-16.46,1.54-.64-.16-1.32-.18-1.98-.21-1.17-.03-2.52-.13-3.06,1.15-.65,1.53,.49,2.5,1.61,3.26,.8,.54,1.74,.87,2.62,1.29,.53,.26,1.05,.51,1.58,.77,1.67,.7,3.28,1.57,5.01,2.09,5.39,1.63,11,2.4,16.25,4.64,3.49,1.48,6.15,3.14,5.64,7.58-.49,4.18-1.96,7.37-6.49,8.29-3.04-.96-6.11-.54-9.18-.18-1.53-.64-3.08-.63-4.63-.06-2.13,.03-4.26,.06-6.39,.09-1.5-1.16-3.29-1.58-5.11-1.7-2.68-.18-5.86-.31-7.12,2.36-1.3,2.74,.37,5.45,2.37,7.59,.53,.57,1.38,.84,2.08,1.24,.77,1.24,1.74,2.27,3.08,2.91,.99,3.71,2.99,6.8,5.78,9.41,.25,.52,.51,1.04,.77,1.56,1.31,3.83,3.9,6.27,7.81,7.4,1.22,.36,2.7,.56,3.2,2.06,1.39,4.08,4.99,4.17,8.36,4.69,.98,.56,1.97,.67,2.97,.07,.96-.15,1.94-.21,2.88-.45,5.65-1.47,7.58-.57,9.75,4.64,2.68,6.45,2.12,8.5-3.16,11.5-.49,.03-.97,.07-1.45,.11-1.67-.41-3.33-.36-4.99,.06-1.72-.81-3.48-.82-5.28-.33-3.02-1.29-6.11-2.39-8.95-4.14-2.11-1.31-4.62-1.78-7.14-1.72-1.11,.03-1.11,.15-.64,2.14,.41,.85,1.15,1.06,2,1.06,1.33,1.29,2.66,2.58,4,3.87,.01,.95,.48,1.63,1.27,2.12,.26,.34,.51,.68,.77,1.01,.28,.3,.56,.6,.84,.91,1.37,.45,2.05,1.43,2.21,2.82,.23,.38,.45,.75,.68,1.12,2.08,3.31,4.16,6.61,6.24,9.91,.51,1.78,1.48,3.27,2.85,4.51l.1,.19c.24,.46,.47,.92,.71,1.38,1.16,4.29,4.6,4.39,7.96,3.98,6.42-.77,12.79-2.19,19.23-2.68,4.66-.36,7.85-2.18,9.91-6.23,1.11-.26,1.85-.92,2.22-2,.23-.31,.47-.61,.7-.92,.4-.12,.53-.37,.41-.77,4.76-5.94,5.02-13.69,8.12-20.3,.23-.4,.47-.8,.71-1.2,4-8.95,6.68-18.38,8.55-27.92,2.65-13.47,4.09-27.19,9.73-39.92,.21-.33,.43-.67,.64-1.01,.1-1.55,.28-3.06,1.9-3.86l.26-.04-.04-.26c.48-2.08,1.15-4.03,3.42-4.86l.4-.12,.05-.42c3.18-1.88,2.43-5.83,4.38-8.36,.24-.42,.48-.84,.72-1.26,.04-3.15,2.42-4.8,4.35-6.73,.3-.29,.61-.59,.92-.88l-.14,.12c.36-.34,.72-.7,1.08-1.05l-.11,.07c.28-.49,.57-.97,.86-1.46,1.43-.42,1.94-1.7,2.58-2.83,3.85-6.87,6.17-14.34,8.86-21.7,3.37-9.21,4.95-18.71,6.56-28.26,.63-1,.81-2.07,.53-3.22,2.53-7.29,5.06-14.57,7.59-21.86,.37-.22,.74-.44,1.11-.66,.61-.66,1.22-1.32,1.84-1.98,.51-1.28,1.6-1.32,2.73-1.31,.43-.25,.85-.5,1.28-.76,.3-.87,.95-1.2,1.83-1.2,.5-.3,1-.6,1.5-.9,.14-.03,.27-.06,.41-.1-.08,.01-.17,.02-.26,.03,1.24-.33,2.02-1.16,2.49-2.31,.03-.9,.41-1.53,1.33-1.74,.24-.35,.47-.71,.7-1.06,.15-1.94,1.33-3.1,2.96-3.93,.33-.38,.66-.77,.99-1.16,2.49-3.5,4.52-7.11,5.92-11.3,3.1-9.22,5.19-18.71,7.89-28.02,3.14-10.82,5.81-21.78,8.78-33.02-3.09,1.37-4.43,3.23-4.17,6.1Zm-138.52,132.49c-.27,3.35-3.92,2.96-6.21,3.43-1.76,.36-4.66-1.67-4.43-2.72,.5-2.29,1.67-5.32,5.27-4.15,2.85-.32,5.63,.19,5.37,3.44Zm25.16,47.4c-.48,1.84-2.08,1.88-3.62,1.87-4.01-.07-7.26-2.27-10.51-4.13-2.1-1.2-.94-4.61,1.87-5.03,3.65-.54,7.3,.45,10.58,2,1.94,.92,2.21,3.22,1.68,5.29Z"/>
    <path class="cls-1" d="M1614.89,348.29c-.82,2.65-2.83,4.54-4.35,6.73,.04-3.15,2.42-4.8,4.35-6.73Z"/>
    <path class="cls-1" d="M1604.99,365.18c-.83,1.84-1.84,3.55-3.42,4.86,.48-2.08,1.15-4.03,3.42-4.86Z"/>
    <path class="cls-1" d="M1661.54,251.3c-.51,1.67-1.6,2.9-2.96,3.93,.15-1.94,1.33-3.1,2.96-3.93Z"/>
    <path class="cls-1" d="M1601.35,370.34c-.64,1.28-.47,2.96-1.9,3.86,.1-1.55,.28-3.06,1.9-3.86Z"/>
    <path class="cls-1" d="M1520.69,456.06c-1.05-.69-1.9-1.55-2.21-2.82,1.37,.45,2.05,1.43,2.21,2.82Z"/>
    <path class="cls-1" d="M1650.97,186.07c-.07-1.14-.14-2.27-.21-3.41,.81,1.09,.79,2.23,.21,3.41Z"/>
    <path class="cls-1" d="M1649.3,263.27c-.62,1.05-1.64,1.25-2.73,1.31,.51-1.28,1.6-1.32,2.73-1.31Z"/>
    <path class="cls-1" d="M1557.61,1021.41c-.97-.02-1.63-.49-2.01-1.37,.91,.11,1.73,.33,2.01,1.37Z"/>
    <path class="cls-1" d="M1657.88,256.29c-.02,.9-.43,1.51-1.33,1.74,.03-.9,.41-1.53,1.33-1.74Z"/>
    <path class="cls-1" d="M1617.07,971.18c-.5,.63-1,1.27-1.5,1.91,.07-.98,.49-1.68,1.5-1.91Z"/>
    <path class="cls-1" d="M1652.41,261.31c-.32,.85-.92,1.25-1.83,1.2,.3-.87,.95-1.2,1.83-1.2Z"/>
    <path class="cls-1" d="M1775.55,781.61c-1.05-.01-2.06-.16-2.78-1.06,1.18-.29,2.19-.17,2.78,1.06Z"/>
    <path class="cls-1" d="M1897.9,749.22c-.81-.35-1.14-.96-.98-1.83,.33,.61,.65,1.22,.98,1.83Z"/>
    <path class="cls-1" d="M1517.64,452.33c-.68-.02-.89-.39-.77-1.01,.26,.34,.51,.68,.77,1.01Z"/>
    <path class="cls-1" d="M1570.59,466.24c.23-.31,.47-.61,.7-.92,.14,.59-.11,.89-.7,.92Z"/>
    <path class="cls-1" d="M1644.89,266.46s-.25,.19-.25,.19c0,0,.25-.19,.25-.19Z"/>
    <polygon class="cls-1" points="1554.33 131.15 1553.97 131.33 1554.05 131.02 1554.33 131.15"/>
    <path class="cls-1" d="M1454.33,823.98s.16-.2,.16-.21c0,0-.16,.21-.16,.21Z"/>
    <path class="cls-1" d="M1590.31,218.09s.17-.21,.17-.21c0,0-.17,.21-.17,.21Z"/>
  </g>
  <g id="_文字" data-name="文字">
    <g>
      <path class="cls-1" d="M534.76,496.95s9.25,8.03,14.83,13.79c-.35,1.92-2.09,2.79-4.54,2.79h-22.69v38.75c7.5-4.54,16.06-10.12,24.61-15.71l1.22,1.75c-5.58,7.16-16.75,21.29-30.37,36.13-.7,2.27-1.57,4.01-2.62,4.89l-16.06-14.66c6.63-5.24,7.68-6.63,7.68-9.95v-41.19h-24.26l-1.4-5.06h25.66v-23.91h-13.09l-1.4-4.89c-2.97,3.67-6.11,7.16-9.42,10.12l-2.09-1.4c10.3-17.45,19.72-49.04,22.69-67.72l22.86,7.16c-.52,2.09-2.27,3.49-6.63,3.67-1.92,5.24-4.54,11.17-7.33,17.28h13.09l8.2-11s9.42,7.68,15.01,13.26c-.52,1.92-2.09,2.79-4.54,2.79h-34.56c-4.89,9.08-10.82,17.8-17.1,25.66h29.67l8.2-11.34s9.25,8.03,14.83,13.61c-.35,1.92-2.09,2.79-4.54,2.79h-18.33v23.91h4.19l8.2-11.52Zm109.08-31.24c-1.05,1.4-3.84,2.79-7.33,3.49v107.69c-.17,1.22-7.33,4.71-12.39,4.71h-2.44v-15.36h-52.88v11c0,1.57-5.76,5.24-12.22,5.24h-2.44v-127.93l15.71,6.98h18.15v-39.09l20.07,2.27c-.35,2.27-1.57,3.84-5.58,4.54v32.29h17.45l7.85-8.73,16.06,12.92Zm-75.05,.87v42.76h19.2v-42.76h-19.2Zm0,94.6h19.2v-46.77h-19.2v46.77Zm33.68-94.6v42.76h19.2v-42.76h-19.2Zm19.2,94.6v-46.77h-19.2v46.77h19.2Z"/>
      <path class="cls-1" d="M798.47,424.35s12.74,9.42,20.42,16.23c-.52,1.92-2.44,2.79-4.89,2.79h-79.76c-5.93,17.45-15.01,34.56-26.7,50.26l6.98,2.79h68.24l8.55-9.77,18.5,14.31c-1.4,1.57-4.36,3.14-8.2,4.01v71.56c-.35,1.4-8.73,4.71-14.31,4.71h-2.62v-15.53h-72.26v11.87c0,1.22-5.24,5.06-13.79,5.06h-2.79v-74.7c-11.52,12.74-24.78,23.91-39.44,33.16l-1.57-1.75c27.75-25.31,49.74-62.66,57.94-95.99h-52.71l-1.57-5.06h128.8l11.17-13.96Zm-86.04,77.14v59.17h72.26v-59.17h-72.26Z"/>
      <path class="cls-1" d="M985.38,439.36c-1.4,1.57-4.36,3.32-8.38,4.01v117.98c0,12.04-2.62,19.02-22.69,20.94-.52-5.24-1.57-9.25-3.84-11.87-2.62-2.62-6.46-4.54-14.31-5.76v-2.62s16.58,1.22,20.25,1.22c3.14,0,4.01-1.22,4.01-3.84v-119.55h-92.5v46.6c0,31.42-2.27,69.99-34.38,95.99l-2.27-1.75c18.5-26.7,20.25-61.09,20.25-94.25v-58.82l19.02,7.16h87.79l8.2-9.77,18.85,14.31Zm-45.55,40.49s9.6,6.98,15.53,12.39c-.52,1.92-2.27,2.79-4.54,2.79h-76.79l-1.4-5.06h30.89v-21.12h-26.35l-1.4-5.06h27.75v-19.72l20.07,1.92c-.17,2.09-1.4,3.49-4.89,4.01v13.79h11.17l7.68-9.08s8.9,6.28,14.49,11.34c-.52,1.92-2.09,2.79-4.54,2.79h-28.8v21.12h12.92l8.2-10.12Zm3.67,73.3c-.17,1.22-7.5,4.36-12.74,4.36h-2.44v-10.3h-31.94v9.95c0,1.4-6.63,4.71-12.74,4.71h-2.27v-57.77l15.88,6.46h29.5l7.33-7.68,15.53,11.69c-1.05,1.05-3.14,2.44-6.11,2.97v35.6Zm-15.18-11v-26.53h-31.94v26.53h31.94Z"/>
      <path class="cls-1" d="M1074.21,465.54c-.87,1.4-3.32,2.62-6.63,2.09-10.47,14.14-30.54,33.86-48.69,46.95,12.74-1.4,30.89-3.84,49.04-6.46l.35,2.44c-10.47,4.71-29.67,13.09-52.18,20.94-1.05,1.22-2.27,2.27-3.49,2.79l-8.03-19.72s4.19-.87,5.93-2.09c8.9-6.81,19.9-20.25,28.8-33.51-6.98,2.79-15.36,6.11-23.91,8.9-1.05,1.22-2.09,1.92-3.14,2.44l-8.03-19.72s3.84-.87,5.24-1.92c9.77-8.9,22.86-33.86,27.05-47.3l21.99,9.6c-.7,1.75-2.79,3.14-6.28,2.79-8.38,11.69-22.69,27.58-35.6,37.7,7.68-.17,17.8-.52,28.1-1.22,3.67-5.93,6.81-11.87,8.9-16.58l20.59,11.87Zm-68.77,88.14c11.87-2.09,39.97-8.9,66.67-16.23l.52,2.09c-11.69,7.68-29.5,17.98-54.1,30.19-.7,2.27-2.09,4.01-4.01,4.71l-9.08-20.77Zm148-110.83s10.65,8.2,16.93,14.14c-.52,1.92-2.27,2.79-4.54,2.79h-41.54v31.59h15.36l8.9-11.69s10.47,8.03,16.93,13.96c-.52,1.92-2.27,2.79-4.71,2.79h-85.34l-1.4-5.06h34.03v-31.59h-39.79l-1.4-5.06h41.19v-34.03l22.51,2.09c-.17,2.44-1.75,4.19-6.28,4.89v27.05h19.9l9.25-11.87Zm-7.5,64.23l15.71,12.04c-1.22,1.57-2.97,2.62-6.81,3.14v55.5c0,.52-5.58,3.67-13.44,3.67h-2.62v-12.92h-45.03v9.95c0,1.22-4.89,4.19-12.74,4.19h-2.62v-73.48l17.45,6.98h42.24l7.85-9.08Zm-7.16,56.37v-42.24h-45.03v42.24h45.03Z"/>
    </g>
    <g>
      <path class="cls-1" d="M1199.05,458.03v14.95c0,2.98,.08,6.08,.25,9.29s.25,4.94,.25,5.15c0,1.03-.15,1.74-.46,2.12s-.84,.57-1.59,.57c-.82,0-1.41-.17-1.75-.5-.35-.33-.52-.91-.52-1.73,0-1.76,.13-5.06,.39-9.89,.26-4.83,.39-8.81,.39-11.94v-44.52c10.27,6.08,20.49,11.91,30.67,17.5,10.18,5.59,20.32,10.92,30.44,15.99v-14.9c0-2.98-.09-6.06-.27-9.25-.18-3.19-.27-4.91-.27-5.15,0-1.06,.15-1.79,.46-2.19,.3-.39,.83-.59,1.59-.59,.85,0,1.45,.17,1.8,.52,.35,.35,.52,.92,.52,1.71,0,1.76-.12,5.08-.36,9.96s-.36,8.86-.36,11.96v44.52c-10.63-6.29-21.04-12.23-31.21-17.84-10.18-5.6-20.16-10.85-29.94-15.74Z"/>
      <path class="cls-1" d="M1267.94,463.13c0-3.8,.71-7.39,2.12-10.78,1.41-3.39,3.47-6.45,6.17-9.18,2.67-2.64,5.71-4.67,9.11-6.08,3.4-1.41,7-2.12,10.8-2.12s7.35,.71,10.75,2.12c3.4,1.41,6.44,3.44,9.11,6.08,2.64,2.64,4.67,5.69,6.08,9.14,1.41,3.45,2.12,7.06,2.12,10.82s-.71,7.4-2.12,10.8-3.44,6.44-6.08,9.11c-2.67,2.67-5.7,4.71-9.09,6.11-3.39,1.4-6.98,2.1-10.78,2.1s-7.44-.69-10.84-2.07c-3.4-1.38-6.42-3.39-9.07-6.04-2.7-2.73-4.76-5.79-6.17-9.18-1.41-3.39-2.12-6.99-2.12-10.82Zm26.61,25.01h.55c7.53,0,13.79-2.39,18.77-7.18,4.98-4.78,7.47-10.73,7.47-17.84s-2.48-12.97-7.45-17.77c-4.97-4.8-11.17-7.2-18.61-7.2h-.73v49.98Z"/>
      <path class="cls-1" d="M1328.59,480.13c0-3.31,1.29-5.99,3.87-8.04,2.58-2.05,5.98-3.08,10.21-3.08s7.71,1.03,10.28,3.08c2.57,2.05,3.85,4.73,3.85,8.04s-1.28,6.07-3.85,8.09c-2.57,2.02-5.99,3.03-10.28,3.03s-7.7-1.01-10.25-3.03-3.83-4.72-3.83-8.09Z"/>
      <path class="cls-1" d="M1379.67,489.47c.03-2.7,.07-5.98,.11-9.82,.04-3.84,.07-6.17,.07-6.99v-40.6c-2.86,.76-5.64,1.6-8.36,2.53-2.72,.93-4.14,1.39-4.26,1.39-.55,0-1-.2-1.34-.59-.35-.39-.52-.91-.52-1.55,0-.49,.16-.89,.48-1.21s.86-.6,1.62-.84c.24-.06,1.32-.3,3.23-.73,11.91-2.64,24.13-5.76,36.68-9.34-.06,2.67-.11,5.25-.14,7.72s-.04,5-.04,7.59v34.99c0,3.37,.03,6.48,.09,9.32,.06,2.84,.15,5.55,.27,8.13h-27.89Z"/>
      <path class="cls-1" d="M1427.06,456.52c0-5.22,.77-10.03,2.32-14.42,1.55-4.39,3.83-8.22,6.83-11.51,2.7-2.95,5.76-5.15,9.18-6.61,3.42-1.46,7.21-2.19,11.37-2.19s7.93,.72,11.3,2.17c3.37,1.44,6.41,3.65,9.11,6.63,3.04,3.34,5.32,7.19,6.86,11.55,1.53,4.36,2.3,9.15,2.3,14.38s-.77,10.02-2.3,14.38c-1.53,4.36-3.82,8.21-6.86,11.55-2.7,2.98-5.74,5.19-9.11,6.63-3.37,1.44-7.14,2.17-11.3,2.17s-7.95-.73-11.37-2.19c-3.42-1.46-6.48-3.66-9.18-6.61-3.01-3.28-5.29-7.12-6.83-11.51-1.55-4.39-2.32-9.2-2.32-14.42Zm28.48-32.21v64.43h.55c8.23,0,14.85-2.95,19.84-8.84,5-5.89,7.5-13.68,7.5-23.38s-2.5-17.48-7.5-23.38c-5-5.89-11.61-8.84-19.84-8.84h-.55Z"/>
    </g>
    <g>
      <path class="cls-1" d="M1231.95,574.19v7.84h-38.62v-6c5-5.17,9.84-10.34,13.93-14.51,9.34-9.84,13.09-16.43,13.09-24.1s-4.25-12.51-11.09-12.51c-1.25,0-2.84,.17-4.5,.5l-1.92,7.09c-1,4.5-2.83,5.92-5.25,5.92-2,0-3.59-1.08-4.59-2.92,1.08-9.26,9.51-14.01,19.1-14.01,12.01,0,17.6,6.51,17.6,15.85,0,8.01-5.09,14.68-19.52,27.11-2.58,2.34-6.42,5.92-10.68,9.76h32.44Z"/>
      <path class="cls-1" d="M1279.07,552.5c0,22.27-9.59,30.78-19.68,30.78s-19.77-8.51-19.77-30.78,9.51-31.03,19.77-31.03,19.68,8.76,19.68,31.03Zm-19.68,27.44c5.42,0,10.51-5.84,10.51-27.44s-5.09-27.61-10.51-27.61-10.59,5.84-10.59,27.61,4.92,27.44,10.59,27.44Z"/>
      <path class="cls-1" d="M1326.02,574.19v7.84h-38.62v-6c5-5.17,9.84-10.34,13.93-14.51,9.34-9.84,13.09-16.43,13.09-24.1s-4.25-12.51-11.09-12.51c-1.25,0-2.84,.17-4.5,.5l-1.92,7.09c-1,4.5-2.84,5.92-5.25,5.92-2,0-3.59-1.08-4.59-2.92,1.08-9.26,9.51-14.01,19.1-14.01,12.01,0,17.6,6.51,17.6,15.85,0,8.01-5.09,14.68-19.52,27.11-2.59,2.34-6.42,5.92-10.68,9.76h32.44Z"/>
      <path class="cls-1" d="M1373.05,574.19v7.84h-38.62v-6c5-5.17,9.84-10.34,13.93-14.51,9.34-9.84,13.09-16.43,13.09-24.1s-4.25-12.51-11.09-12.51c-1.25,0-2.84,.17-4.5,.5l-1.92,7.09c-1,4.5-2.84,5.92-5.25,5.92-2,0-3.59-1.08-4.59-2.92,1.08-9.26,9.51-14.01,19.1-14.01,12.01,0,17.6,6.51,17.6,15.85,0,8.01-5.09,14.68-19.52,27.11-2.59,2.34-6.42,5.92-10.68,9.76h32.44Z"/>
      <path class="cls-1" d="M1447.95,558.76s5.84,4.42,9.42,7.42c-.25,.92-1.17,1.33-2.34,1.33h-27.52v19.18c0,.58-2.67,2.33-7.09,2.33h-1.5v-21.52h-38.28l-.75-2.42h14.43v-25.86l9.42,3.59h15.18v-15.93h-17.01c-6.26,8.51-13.6,15.18-21.35,19.85l-1-.83c7.67-8.01,15.93-21.52,20.77-35.53l11.59,4.5c-.42,1-1.5,1.67-3.42,1.5-1.5,2.84-3.17,5.5-4.92,8.09h36.86l5.09-6.42s5.67,4.17,9.26,7.51c-.17,.92-1,1.33-2.17,1.33h-25.11v15.93h11.09l4.67-5.92s5.5,4.09,8.84,7.01c-.17,.92-1.08,1.33-2.25,1.33h-22.35v19.85h15.26l5.17-6.34Zm-29.03,6.34v-19.85h-16.26v19.85h16.26Z"/>
    </g>
    <g>
      <path class="cls-1" d="M490.3,640.3c-.17,8.59-.17,17.26-.17,26.11v3.59c0,8.51,0,17.18,.17,25.69l8.51,.83v2.84h-31.36v-2.84l8.42-.83c.17-8.34,.17-16.93,.17-25.61v-3.67c0-8.76,0-17.52-.17-26.11h-11.51l-4.17,14.6h-4.92l.33-17.85h55.05l.33,17.85h-4.84l-4.25-14.6h-11.59Z"/>
      <path class="cls-1" d="M569.11,696.76v2.59h-24.19v-2.59l5.34-.5c.08-4.84,.17-11.93,.17-16.76v-12.01c0-6.51-2.42-8.84-6.09-8.84-2.67,0-5.92,1.42-9.34,4.5v16.35c0,4.67,.08,11.93,.17,16.85l4.84,.42v2.59h-24.1v-2.59l5.5-.5c.08-4.92,.17-12.09,.17-16.76v-42.7l-6.09-.58v-2.17l18.43-3.59,1.17,.75-.25,13.43v16.18c5-5.92,9.26-8.42,15.51-8.42,8.09,0,13.59,4.92,13.59,16.26v10.84c0,4.92,.08,12.01,.17,16.85l5,.42Z"/>
      <path class="cls-1" d="M616.73,689.51c-3.42,7.17-10.09,11.26-18.6,11.26-13.76,0-23.94-8.76-23.94-24.35s11.93-24.02,23.85-24.02c12.51,0,19.27,8.42,19.27,19.02,0,2.08-.08,3.5-.5,5.09h-28.36c.42,13.01,6.67,18.35,14.51,18.35,5.84,0,9.42-2.5,12.18-6.34l1.58,1Zm-16.93-16.01c3.92,0,4.92-1.92,4.92-7.09,0-7.26-3.17-11.09-7.59-11.09s-8.34,5.17-8.67,18.1l11.34,.08Z"/>
      <path class="cls-1" d="M677.52,672.58c0,11.43,0,16.68,.17,23.1l8.51,.83v2.84h-31.36v-2.84l8.42-.83c.17-5.92,.17-10.84,.17-20.77l-16.93-34.61-4.59-.42v-2.83h28.94v2.83l-8.26,.83,13.09,28.44,12.84-28.19-8.17-1.08v-2.83h19.52v2.83l-6.84,1-15.51,31.69Z"/>
      <path class="cls-1" d="M694.7,676.33c0-14.76,10.51-23.94,23.6-23.94s23.69,9.01,23.69,23.94-9.51,24.44-23.69,24.44-23.6-9.76-23.6-24.44Zm32.86,.17c0-14.6-3.25-21.18-9.26-21.18s-9.34,6.59-9.34,21.18,3.34,21.35,9.34,21.35,9.26-6.84,9.26-21.35Z"/>
      <path class="cls-1" d="M800.2,696.93v2.5l-18.35,1.08-.42-8.34c-3.84,4.84-9.34,8.59-15.43,8.59-8.34,0-13.6-4.5-13.43-17.18l.33-24.77-5.84-1.17v-2.25l18.52-2.5,1.08,.83-.5,13.59v17.51c0,6.67,2.59,8.76,6.59,8.76,3.17,0,6.17-1.58,8.59-4l.33-30.86-5.59-1.08v-1.83l18.1-2.92,1.08,.83-.33,13.59v29.19l5.25,.42Z"/>
      <path class="cls-1" d="M824.47,665.24c2.5-8.51,8.17-12.84,13.18-12.84,3.92,0,7.26,1.58,8.09,6.59-.33,3.67-2,6.76-6.17,6.76-3.17,0-5.17-2-7.42-5l-.75-1c-3.34,3.09-5.34,6.67-6.92,12.84v6.92c0,4.59,.08,11.59,.17,16.51l7.67,.75v2.59h-27.11v-2.59l5.67-.58c.08-4.84,.17-12.01,.17-16.68v-6.92c0-5.42-.08-8.17-.25-12.18l-6.26-.67v-2l18.1-5.25,1.17,.83,.67,11.93Z"/>
      <path class="cls-1" d="M872.76,671.32c8.76,2.58,12.59,7.26,12.59,14.09,0,9.67-7.76,15.35-20.35,15.35-6.51,0-11.59-1.42-16.51-4.17l.67-11.34h5.34l2.59,11.01c2.08,.83,4.17,1.25,6.84,1.25,6.34,0,9.84-2.25,9.84-6.84,0-3.5-1.58-6.01-8.26-8.09l-4.84-1.42c-7.51-2.33-11.93-6.59-11.93-13.68,0-8.76,6.84-15.1,19.1-15.1,5.59,0,9.84,1.33,14.76,3.75l-.67,10.51h-4.67l-3.17-9.84c-1.75-.83-3.5-1.25-6.01-1.25-5.09,0-8.42,2.58-8.42,6.76,0,3.09,1.67,5.59,8.17,7.59l4.92,1.42Z"/>
      <path class="cls-1" d="M921.05,640.3c-.17,8.59-.17,17.26-.17,26.11v3.59c0,8.51,0,17.18,.17,25.69l8.51,.83v2.84h-31.36v-2.84l8.42-.83c.17-8.34,.17-16.93,.17-25.61v-3.67c0-8.76,0-17.52-.17-26.11h-11.51l-4.17,14.6h-4.92l.33-17.85h55.05l.33,17.85h-4.84l-4.25-14.6h-11.59Z"/>
      <path class="cls-1" d="M993.94,696.93v2.5l-18.35,1.08-.42-8.34c-3.84,4.84-9.34,8.59-15.43,8.59-8.34,0-13.6-4.5-13.43-17.18l.33-24.77-5.84-1.17v-2.25l18.52-2.5,1.08,.83-.5,13.59v17.51c0,6.67,2.59,8.76,6.59,8.76,3.17,0,6.17-1.58,8.59-4l.33-30.86-5.59-1.08v-1.83l18.1-2.92,1.08,.83-.33,13.59v29.19l5.25,.42Z"/>
      <path class="cls-1" d="M1052.23,696.76v2.59h-24.19v-2.59l5.25-.5c.08-4.84,.17-11.93,.17-16.76v-12.01c0-6.51-1.83-8.84-5.75-8.84-2.5,0-5.92,1.58-9.51,4.75v16.1c0,4.67,.08,11.93,.17,16.85l4.75,.42v2.59h-24.1v-2.59l5.59-.5c.08-4.92,.17-12.09,.17-16.76v-6.92c0-5.42-.08-8.17-.25-12.18l-6.26-.67v-2l18.1-5.25,1.17,.83,.5,7.34c5.5-6.34,10.09-8.26,15.6-8.26,7.92,0,13.34,5.17,13.34,16.1v11.01c0,4.92,.08,12.01,.25,16.85l5,.42Z"/>
      <path class="cls-1" d="M1099.85,689.51c-3.42,7.17-10.09,11.26-18.6,11.26-13.76,0-23.94-8.76-23.94-24.35s11.93-24.02,23.85-24.02c12.51,0,19.27,8.42,19.27,19.02,0,2.08-.08,3.5-.5,5.09h-28.36c.42,13.01,6.67,18.35,14.51,18.35,5.84,0,9.42-2.5,12.18-6.34l1.58,1Zm-16.93-16.01c3.92,0,4.92-1.92,4.92-7.09,0-7.26-3.17-11.09-7.59-11.09s-8.34,5.17-8.67,18.1l11.34,.08Z"/>
      <path class="cls-3" d="M1215.53,639.88l-7.59,1.08-16.85,58.55h-7.76l-14.01-46.71-14.01,46.71h-7.59l-17.43-59.05-5.67-.58v-2.83h28.19v2.83l-7.84,.75,11.43,44.2,12.51-44.04-7.84-.92v-2.83h27.27v2.83l-8.84,1,12.34,44.12,11.43-44.04-7.84-1.08v-2.83h20.1v2.83Z"/>
      <path class="cls-3" d="M1269.4,699.35h-49.46v-2.84l7.51-.75c.25-8.42,.25-17.01,.25-25.69v-3.67c0-8.67,0-17.27-.25-25.86l-7.51-.67v-2.83h47.71l-.08,16.6h-4.84l-3.84-13.34h-16.93c-.17,8.34-.17,16.93-.17,25.77h11.34l1.25-9.26h4.17v21.1h-4.17l-1.17-8.84h-11.43v.25c0,9.26,0,18.1,.17,26.77h18.77l3.84-14.01h4.67l.17,17.26Z"/>
      <path class="cls-3" d="M1325.61,699.35h-49.46v-2.84l7.51-.75c.25-8.42,.25-17.01,.25-25.69v-3.67c0-8.67,0-17.27-.25-25.86l-7.51-.67v-2.83h47.71l-.08,16.6h-4.84l-3.84-13.34h-16.93c-.17,8.34-.17,16.93-.17,25.77h11.34l1.25-9.26h4.17v21.1h-4.17l-1.17-8.84h-11.43v.25c0,9.26,0,18.1,.17,26.77h18.77l3.84-14.01h4.67l.17,17.26Z"/>
      <path class="cls-3" d="M1395.17,696.51v2.84h-27.11v-2.84l5.84-.58-14.26-27.27-6,7.26c0,6.25,0,12.93,.08,19.85l6.59,.75v2.84h-27.94v-2.84l7.51-.75c.25-8.42,.25-17.01,.25-25.69v-3.67c0-8.67,0-17.27-.25-25.86l-7.51-.67v-2.83h28.86v2.83l-7.51,.75c-.08,8.42-.08,17.1-.08,25.77v5.25l24.02-30.61-8.34-1.17v-2.83h21.68v2.83l-8.59,1.17-13.76,16.68,20.68,38.2,5.84,.58Z"/>
      <path class="cls-3" d="M1446.04,699.35h-48.21l.08-2.84,7.42-.75c.25-8.34,.25-16.76,.25-23.44v-5.92c0-8.67,0-17.27-.25-25.86l-7.51-.67v-2.83h30.19v2.83l-8.17,.75c-.17,8.42-.17,16.93-.17,24.44v5.42c0,8.26,0,16.93,.17,25.61h17.35l4.17-15.43h4.5l.17,18.68Z"/>
      <path class="cls-3" d="M1478.48,672.58c0,11.43,0,16.68,.17,23.1l8.51,.83v2.84h-31.36v-2.84l8.42-.83c.17-5.92,.17-10.84,.17-20.77l-16.93-34.61-4.59-.42v-2.83h28.94v2.83l-8.26,.83,13.09,28.44,12.84-28.19-8.17-1.08v-2.83h19.52v2.83l-6.84,1-15.51,31.69Z"/>
    </g>
  </g>
</svg>