<?xml version="1.0" encoding="UTF-8"?>
<svg id="a" data-name="图层 1" xmlns="http://www.w3.org/2000/svg" viewBox="0 0 1366 768">
  <defs>
    <style>
      .b {
        stroke: #e4e6d9;
        stroke-width: 4px;
      }

      .b, .c, .d {
        fill: none;
        stroke-miterlimit: 10;
      }

      .c {
        stroke-width: .84px;
      }

      .c, .d {
        stroke: #000;
      }

      .d {
        stroke-width: 3.35px;
      }

      .e {
        fill: #18365d;
      }

      .f {
        fill: #e4e6d9;
      }
    </style>
  </defs>
  <rect class="e" width="1366" height="768"/>
  <g>
    <polyline class="b" points="966.29 -201.89 795.22 -30.83 .11 764.29"/>
    <line class="b" x1="1367.01" y1="701.99" x2="714.7" y2="49.69"/>
    <line class="b" x1="1361.55" y1="291.45" x2="917.25" y2="-152.86"/>
    <line class="b" x1="1028.96" y1="769.04" x2="512.16" y2="252.23"/>
    <line class="b" x1="626.42" y1="771.58" x2="309.61" y2="454.78"/>
    <line class="b" x1="220.37" y1="770.63" x2="107.07" y2="657.33"/>
  </g>
  <g>
    <rect class="f" x="255.25" y="253.89" width="855.5" height="260.22"/>
    <rect class="d" x="269.21" y="267.85" width="824.23" height="233.42"/>
    <rect class="c" x="285.96" y="279.14" width="794.07" height="210.08"/>
    <g>
      <path d="M323.76,360.88c2.74,.37,4.54,1.21,5.39,2.5,.85,1.3,1.28,2.24,1.28,2.84s-.58,1.46-1.72,2.61c-1.15,1.15-3.76,3.47-7.84,6.95-1.26,6.75-1.89,12.8-1.89,18.18s.28,10.79,.83,16.23c.56,5.45,.83,9.43,.83,11.95s-.26,4.54-.78,6.06c-.52,1.52-1.19,2.28-2,2.28s-2.13-1.89-3.95-5.67c-1.82-3.78-2.72-7.82-2.72-12.12,0-1.85,.18-3.43,.56-4.73,.37-1.3,.56-4.41,.56-9.34s-.04-10.36-.11-16.29c-2.67,3.04-4.52,4.56-5.56,4.56s-2.63-.54-4.78-1.61c-2.15-1.07-4.3-2.95-6.45-5.61-2.15-2.67-3.22-4.26-3.22-4.78,0-.22,.13-.33,.39-.33s.7,.13,1.33,.39c.63,.26,1.2,.39,1.72,.39,1.41,0,3.54-.85,6.39-2.56,2.85-1.7,6.32-3.96,10.4-6.78,.59-4.89,.89-8.54,.89-10.95s-.09-4-.28-4.78c-.19-.78-.28-1.43-.28-1.95,0-1.11,.43-1.67,1.28-1.67s1.91,.09,3.17,.28c1.26,.19,2.3,.52,3.11,1,.81,.48,1.74,1.32,2.78,2.5,1.04,1.19,1.65,1.93,1.83,2.22,.18,.3,.28,.71,.28,1.22,0,.96-.48,3.3-1.45,7Zm45.81,33.69c3.56-.15,5.95-.07,7.17,.22,1.22,.3,2.37,1.04,3.45,2.22,1.07,1.19,1.61,2.37,1.61,3.56,0,1.71-.78,2.56-2.33,2.56-.44,0-.93-.07-1.45-.22-2.97-.89-6.86-1.26-11.67-1.11,.07,19.94-.89,31.41-2.89,34.41-2,3-3.52,4.5-4.56,4.5-.44,0-.85-.26-1.22-.78-1.56-2.08-3.6-3.85-6.11-5.34-4.82-2.89-9.34-7.08-13.56-12.56,3.34,1.93,6.19,3.37,8.56,4.34,2.37,.96,4.65,1.45,6.84,1.45s3.52-.44,4-1.33c.48-.89,.72-3.6,.72-8.12s-.3-9.97-.89-16.34c-2.6-.07-5.63,.32-9.12,1.17-3.49,.85-6.08,1.91-7.78,3.17,3.48-.29,6.39,.35,8.73,1.95,2.33,1.59,3.5,3.49,3.5,5.67s-.89,3.95-2.67,5.28c-1.78,1.33-3.85,2-6.23,2-.67,0-1.21-.26-1.61-.78-.41-.52-.61-1.11-.61-1.78s.18-1.11,.56-1.33c1.78-1.18,2.67-2.07,2.67-2.67s-1.39-1.02-4.17-1.28c-2.78-.26-4.61-.56-5.5-.89-.89-.33-1.33-.78-1.33-1.33s.22-1.32,.67-2.28c-.96,.45-2.08,.67-3.34,.67-1.48,0-3.3-.39-5.45-1.17-2.15-.78-3.22-1.52-3.22-2.22s.48-1.17,1.45-1.39c4.23-.96,11.34-3.63,21.35-8.01l.22-1.67c-2.6,.08-3.89-1.18-3.89-3.78,0-.89,.24-1.63,.72-2.22,.48-.59,1.83-1.56,4.06-2.89,.15-1.04-.15-1.78-.89-2.22-.74-.44-2.56-.96-5.45-1.56-.22,9.41-.82,14.12-1.78,14.12-.44,0-1.24-1.2-2.39-3.61-1.15-2.41-1.72-4.32-1.72-5.73,0-.67,.18-1.76,.56-3.28,.37-1.52,.56-3.28,.56-5.28s-.54-3.63-1.61-4.89c-1.08-1.26-1.82-2.26-2.22-3-.41-.74-.61-1.56-.61-2.45,2.52,.82,4.93,2.3,7.23,4.45,2.07-3.34,5.6-6.23,10.56-8.67,.3-.96,.37-2,.22-3.11-2.89,.74-4.65,1.11-5.28,1.11s-.95-.07-.95-.22c0-.22,.67-.63,2-1.22-4.67-3.26-7-5.19-7-5.78,0-.15,.22-.22,.67-.22h.78c1.78,0,5.26-1.48,10.45-4.45,.15-.81,.22-1.61,.22-2.39s-.33-1.59-1-2.45c-.67-.85-1-2.26-1-4.23s.11-3.15,.33-3.56c.22-.41,.96-.61,2.22-.61s2.96,.44,5.11,1.33c2.15,.89,3.22,2.56,3.22,5,0,1.04-.19,2.3-.56,3.78,2.67,0,4.69,.43,6.06,1.28,1.37,.85,2.06,1.89,2.06,3.11s-.37,1.91-1.11,2.06c-3.04,.52-5.49,1.56-7.34,3.11-.37,1.48-.48,3.37-.33,5.67,5.19-.22,8.97,.22,11.34,1.33,2.37,1.11,3.56,3.56,3.56,7.34,0,1.11-.13,3.87-.39,8.28-.26,4.41-.56,7.64-.89,9.67-.33,2.04-.76,3.91-1.28,5.62Zm-21.46-23.24c-5.04,.44-7.56,1.74-7.56,3.89,0,.67,.18,1.48,.56,2.45,2.45-1.41,4.67-2.59,6.67-3.56,.22-.96,.33-1.89,.33-2.78Zm14.68,22.13c.81-8.67,1.22-16.16,1.22-22.46,0-1.11-.32-2-.95-2.67-.63-.67-1.5-1-2.61-1s-2.3,.41-3.56,1.22c-.15,1.93-.15,3.63,0,5.11,1.63,.67,2.45,1.56,2.45,2.67s-.48,2.26-1.45,3.45c-.44,.52-.67,1.45-.67,2.78s.37,2.56,1.11,3.67c.74,1.11,1.11,1.96,1.11,2.56,0,1.04-1.15,1.67-3.45,1.89-.07,.44-.44,1.63-1.11,3.56,2.96-.52,5.6-.78,7.89-.78Zm23.13-41.92c0,3.11-2.52,4.67-7.56,4.67-.89,0-1.59-.11-2.11-.33-.52-.22-.87-.56-1.06-1-.19-.44-.28-.93-.28-1.45l.11-1.56c0-2.15-1.3-4.52-3.89-7.12-.44-.44-.67-.87-.67-1.28s.68-.61,2.06-.61,3.95,.96,7.73,2.89c3.78,1.93,5.67,3.85,5.67,5.78Z"/>
      <path d="M462.74,389.23c4.96-.07,9.88-.06,14.73,.06,4.85,.11,7.97,.32,9.34,.61,1.37,.3,2.61,.89,3.73,1.78s2.07,1.95,2.89,3.17c.81,1.22,1.22,2.24,1.22,3.06,0,1.56-1.04,2.33-3.11,2.33-.37,0-.78-.04-1.22-.11-7.04-1.11-14.16-1.93-21.35-2.45-.82-.07-1.22-.28-1.22-.61s.52-.98,1.56-1.95c-.96-.15-2.15-.22-3.56-.22s-3.97,.19-7.67,.56c-4.15,5.19-8.52,9.67-13.12,13.45,.44,.67,.96,1.82,1.56,3.45,11.49-4.74,17.96-7.58,19.4-8.51,1.45-.93,2.87-1.39,4.28-1.39,2.59,0,5.23,1.45,7.89,4.34s4,5.26,4,7.12c0,.96-.33,1.82-1,2.56-3.48,3.85-5.86,6.65-7.12,8.39-1.26,1.74-1.89,2.95-1.89,3.61s.13,1.43,.39,2.28c.26,.85,.39,1.8,.39,2.84s-.48,1.56-1.45,1.56c-.44,0-1-.15-1.67-.45-2.22-.89-5.19-1.33-8.9-1.33s-7.12,.29-10.23,.89c.07,2,.04,3.43-.11,4.28-.15,.85-.48,1.28-1,1.28s-1.69-.85-3.5-2.56c-1.82-1.71-3.22-4.38-4.22-8.01-1-3.63-1.76-9.04-2.28-16.23-2.3,1.78-4.86,3.58-7.67,5.39-2.82,1.82-4.73,2.89-5.73,3.22-1,.33-1.98,.5-2.95,.5-3.19,0-5.82-1.48-7.89-4.45-2.08-2.96-3.11-5.49-3.11-7.56s.96-4.5,2.89-7.28c1.93-2.78,4.3-4.98,7.12-6.62,1.26-.82,2.19-1.93,2.78-3.34,.22-.44,1.07-.87,2.56-1.28,1.48-.41,4.13-.68,7.95-.83,3.82-.15,9.25-.56,16.29-1.22,2.82-3.48,5.34-6.87,7.56-10.17,2.22-3.3,3.34-5.24,3.34-5.84s-.22-.89-.67-.89c-.3,0-.91,.46-1.83,1.39-.93,.93-2.46,2.28-4.61,4.06-2.15,1.78-4.65,3.48-7.51,5.11-2.85,1.63-5.99,3.6-9.4,5.89-.52,.37-1.11,.56-1.78,.56s-1.26-.33-1.78-1c-.52-.67-.78-1.5-.78-2.5s.17-2.39,.5-4.17c.33-1.78,.81-3.17,1.45-4.17,.63-1,1.82-1.59,3.56-1.78,1.74-.18,3.45-1.2,5.11-3.06,1.67-1.85,2.54-3.56,2.61-5.11,.07-1.56,.26-2.63,.56-3.22,.3-.59,.96-1.26,2-2-1.63-.81-3.3-1.22-5-1.22-4.45,0-9.01,2.8-13.68,8.39-4.67,5.6-7.45,9.73-8.34,12.4-.22,.67-.63,1-1.22,1s-1.15-.72-1.67-2.17c-.52-1.45-.78-4.21-.78-8.28,0-2.74,.41-4.52,1.22-5.34s1.57-1.85,2.28-3.11c.7-1.26,1.24-2.52,1.61-3.78,.37-1.26,.56-2.26,.56-3l-.11-2c0-2.22,.7-3.34,2.11-3.34s3.15,3,5.23,9.01c6.45-4.82,13.68-8.04,21.68-9.67-1.33-3.04-2.58-6.24-3.73-9.62-1.15-3.37-1.72-5.3-1.72-5.78s.15-.72,.44-.72c.52,0,2.39,.74,5.61,2.22,3.22,1.48,5.78,3.15,7.67,5,1.89,1.85,3.35,4.37,4.39,7.56,2-.15,3.82-.22,5.45-.22,5.48,0,10.04,.83,13.68,2.5,3.63,1.67,5.45,4.36,5.45,8.06,0,2.37-.33,3.63-1,3.78-.67,.15-3.06,.22-7.17,.22s-8.47-.17-13.06-.5c-4.6-.33-7.32-.57-8.17-.72-.85-.15-1.28-.33-1.28-.56s.59-.41,1.78-.56c3.78-.44,7.56-1.57,11.34-3.39,3.78-1.82,5.67-3.07,5.67-3.78s-.96-1.06-2.89-1.06c-3.19,0-6.47,.96-9.84,2.89-3.37,1.93-8.28,3.85-14.73,5.78,1.41,2.45,2.37,5.15,2.89,8.12,4.82-1.48,8.1-2.22,9.84-2.22s3.32,.87,4.73,2.61c1.41,1.74,2.11,3.58,2.11,5.5s-.56,3.49-1.67,4.67c-2.22,2.3-4.56,4.93-7,7.89Zm-16.9,7.78c-2.97,.37-5.45,.96-7.45,1.78-2,.82-3.37,1.22-4.11,1.22s-1.56-.09-2.45-.28c-.89-.18-2.21-.28-3.95-.28s-4.08,.46-7,1.39c-2.93,.93-4.87,2.26-5.84,4-.96,1.74-1.45,3.56-1.45,5.45s.67,3.34,2,4.34c1.33,1,2.74,1.5,4.23,1.5,2.67,0,6.56-1.82,11.67-5.45,5.11-3.63,9.9-8.19,14.34-13.68Zm4,29.13c1.11,.29,2.3,.44,3.56,.44,2.89,0,5.61-.76,8.17-2.28,2.56-1.52,4.48-3.39,5.78-5.62,1.3-2.22,1.95-3.71,1.95-4.45,0-.52-.46-.78-1.39-.78s-3,.61-6.23,1.83c-3.22,1.22-5.82,1.83-7.78,1.83s-4.02-.26-6.17-.78c1.11,3.11,1.82,6.37,2.11,9.79Z"/>
      <path d="M557.69,389.23c4.23-2,9.47-3,15.73-3s11.1,1.04,14.51,3.11c1.56,.96,2.91,1.56,4.06,1.78,1.15,.22,2.15,1.3,3,3.22,.85,1.93,1.28,3.74,1.28,5.45,0,.67-.15,1.35-.44,2.06-.3,.71-.48,1.3-.56,1.78-.07,.48-.11,1.61-.11,3.39,0,3.48-1.04,7.32-3.11,11.51-2.08,4.19-4.78,7.65-8.12,10.4-3.34,2.74-5.93,4.11-7.78,4.11-1.26,0-2.45-.5-3.56-1.5-1.11-1-2.95-1.83-5.5-2.5-2.56-.67-5.11-1.71-7.67-3.11-2.56-1.41-4.65-3.08-6.28-5-1.63-1.93-3.48-3.15-5.56-3.67-7.56,4.23-12.38,6.34-14.45,6.34-1.41,0-2.33-.63-2.78-1.89-.44-1.26-.67-3.24-.67-5.95s.33-4.74,1-6.12c.67-1.37,1.54-2.06,2.61-2.06s2,.44,2.78,1.33,1.57,1.33,2.39,1.33,1.93-.26,3.34-.78c1.41-.52,3.78-1.22,7.12-2.11s5.76-1.48,7.28-1.78c1.52-.3,3.09-.72,4.73-1.28,1.63-.56,2.7-.98,3.22-1.28,1.26-.81,2.78-1.22,4.56-1.22s3.34,.63,4.67,1.89c1.33,1.26,2,3.11,2,5.56,0,1.19-.28,2-.83,2.45-.56,.45-1.58,.67-3.06,.67l-5.23-.33c-5.19,0-10.75,1.56-16.68,4.67,1.85,1.26,4.95,2.43,9.28,3.5,4.34,1.07,8.34,1.61,12.01,1.61s6.41-.87,8.23-2.61c1.82-1.74,3.13-4.6,3.95-8.56,.81-3.96,1.22-7.17,1.22-9.62,0-4.89-2-7.34-6-7.34-2.89,0-6.21,.43-9.95,1.28-3.74,.85-7.84,3.1-12.29,6.73-1.56,1.26-2.91,1.89-4.06,1.89s-2.19-1.26-3.11-3.78c-.93-2.52-1.39-4.39-1.39-5.62s.78-2.35,2.33-3.39c-.07-6,.37-11.82,1.33-17.46-.15-.44-.22-.98-.22-1.61s.3-1.17,.89-1.61c.07-2.07,.24-3.41,.5-4,.26-.59,.81-.89,1.67-.89s1.56,.39,2.11,1.17c.56,.78,1.06,1.98,1.5,3.61,2.45,.15,5.04,.04,7.78-.33-.59-1.41-2.11-2.67-4.56-3.78-.44-.22-.67-.41-.67-.56s.22-.22,.67-.22,1.18,.19,2.22,.56l6.56,2.11c1.04,0,4.04-1.45,9.01-4.34,4.97-2.89,7.45-4.91,7.45-6.06s-1.76-1.72-5.28-1.72-6.73,.44-9.62,1.33c-2.89,.89-9.08,1.33-18.57,1.33-4.3,0-7.49,2-9.56,6-.3,2.08-1.13,4.28-2.5,6.62-1.37,2.33-2.22,4.32-2.56,5.95-.33,1.63-1.45,3.21-3.34,4.73-1.89,1.52-3.21,2.28-3.95,2.28-1.41,0-2.65-1.45-3.72-4.34-1.08-2.89-1.61-5.08-1.61-6.56,0-1.18,.63-2.37,1.89-3.56,2.52-2.3,4.48-4.69,5.89-7.17,1.41-2.48,2.11-4.65,2.11-6.5s-.26-3.19-.78-4c-.52-.81-.78-1.39-.78-1.72s.15-.5,.44-.5c.81,0,2.02,1,3.61,3,1.59,2,2.69,3.63,3.28,4.89,1.18-.96,3.04-1.89,5.56-2.78,2.52-.89,5.54-1.67,9.06-2.33,3.52-.67,8.84-1.43,15.96-2.28,7.12-.85,11.43-1.28,12.95-1.28s2.95,.28,4.28,.83c1.33,.56,3.11,1.76,5.34,3.61,2.22,1.85,3.67,3.41,4.34,4.67,.67,1.26,1,2.46,1,3.61s-.43,2.21-1.28,3.17c-.85,.96-2.98,1.67-6.39,2.11-3.41,.44-6.23,.74-8.45,.89-3.19,.22-5.04,1.26-5.56,3.11,.81,.74,1.22,1.48,1.22,2.22,0,1.78-2,3.47-6,5.06-4,1.59-6.86,2.39-8.56,2.39s-3.85-.29-6.45-.89c.22,2.6,.11,5.82-.33,9.67Z"/>
      <path d="M654.76,389.01c1.11-3.56,2.2-6.89,3.28-10.01,1.07-3.11,1.69-4.76,1.83-4.95,.15-.18,.33-.28,.56-.28s.33,.3,.33,.89-.17,2.58-.5,5.95c-.33,3.37-.82,5.93-1.45,7.67-.63,1.74-1.11,4-1.45,6.78-.33,2.78-.72,8.62-1.17,17.51-.3,5.63-1.22,8.45-2.78,8.45-.82,0-2.32-1.43-4.5-4.28-2.19-2.85-3.28-5.87-3.28-9.06,0-.96,.17-2.43,.5-4.39,.33-1.96,.5-4.24,.5-6.84s-.13-4.45-.39-5.56c-.26-1.11-.69-1.67-1.28-1.67-1.04,0-2.33,1.08-3.89,3.22-.74,.96-1.37,1.45-1.89,1.45s-1.46-1.48-2.83-4.45c-1.37-2.96-2.06-5.34-2.06-7.12s.48-2.78,1.45-3c.96-.22,1.89-.81,2.78-1.78,.89-.96,2.78-3.87,5.67-8.73,2.89-4.85,4.78-8.28,5.67-10.28s1.33-3.37,1.33-4.11-.06-1.32-.17-1.72c-.11-.41-.17-.83-.17-1.28s.15-.67,.44-.67,.61,.17,.95,.5,.89,.67,1.67,1c.78,.33,1.54,.54,2.28,.61,2.45,.15,4.39,1.13,5.84,2.95,1.45,1.82,2.17,4.1,2.17,6.84,0,.89-.2,1.61-.61,2.17-.41,.56-1.13,1.28-2.17,2.17-1.04,.89-2.35,2.54-3.95,4.95-1.59,2.41-3.06,4.69-4.39,6.84-1.33,2.15-2,3.41-2,3.78,0,.59,1.22,2.74,3.67,6.45Zm36.02-6.56c2.3-1.78,4.62-2.67,6.95-2.67s4.24,.74,5.73,2.22c1.48,1.48,2.22,3.13,2.22,4.95s-.59,3.32-1.78,4.5-2.15,2.45-2.89,3.78c-.74,1.33-1.11,2.32-1.11,2.95s.09,1,.28,1.11c.18,.11,.57,.17,1.17,.17,2.52,0,4.71,.91,6.56,2.72,1.85,1.82,2.78,4.02,2.78,6.62,0,3.11-.96,4.67-2.89,4.67s-4.8-.48-8.62-1.45c-3.82-.96-6.08-2.41-6.78-4.34-.71-1.93-1.06-3.76-1.06-5.5s.33-3.24,1-4.5c1.93-3.71,2.89-6.21,2.89-7.5s-.54-2.26-1.61-2.89c-1.08-.63-1.87-.95-2.39-.95-1.19,0-1.93,1.98-2.22,5.95-.3,3.97-.44,7.77-.44,11.4,0,6.89,.44,12.16,1.33,15.79,.37,1.33,.56,3.61,.56,6.84s-.08,5.24-.22,6.06c-.15,.82-.48,1.48-1,2-.52,.52-1.08,.78-1.67,.78-.96,0-2.26-1.61-3.89-4.84-1.63-3.22-2.45-6.65-2.45-10.28s.35-11.03,1.06-22.18c.7-11.16,1.06-19.48,1.06-24.96l-8.34,6.45c-1.33,1.04-2.35,1.56-3.06,1.56s-1.52-1.28-2.45-3.84c-.93-2.56-1.39-4.34-1.39-5.34s.22-1.83,.67-2.5c1.33-1.93,2.8-4.48,4.39-7.67,1.59-3.19,2.39-5.52,2.39-7,0-2.96-1.08-4.59-3.22-4.89-.37-.07-.56-.28-.56-.61s.39-.76,1.17-1.28c.78-.52,1.72-.78,2.84-.78s3.06,.61,5.84,1.83c2.78,1.22,4.39,2.72,4.84,4.5,.45,1.78,.67,3.1,.67,3.95s.17,1.28,.5,1.28,.91-.24,1.72-.72c.81-.48,1.98-.96,3.5-1.45,1.52-.48,2.59-1,3.22-1.56,.63-.56,2.02-.83,4.17-.83s3.58,.22,4.28,.67c.7,.44,1.22,1.3,1.56,2.56,.33,1.26,.5,2.28,.5,3.06s-.3,1.52-.89,2.22c-.59,.71-1.56,1.17-2.89,1.39-1.33,.22-2.89,.85-4.67,1.89-1.78,1.04-3.33,2.21-4.67,3.5-1.33,1.3-2.24,2.41-2.72,3.34-.48,.93-.72,2.13-.72,3.61,0,2.6,.26,4.67,.78,6.23Z"/>
      <path d="M785.62,376.56c-4.08,.89-8.12,2.15-12.12,3.78-4,1.63-9.9,4.6-17.68,8.89-2,1.11-3.67,1.67-5,1.67-1.85,0-3.6-1.43-5.23-4.28-1.63-2.85-2.45-5.21-2.45-7.06s.41-2.78,1.22-2.78c.59,0,1.02,.28,1.28,.83,.26,.56,.59,.89,1,1,.41,.11,.79,.13,1.17,.06,5.41-1.56,14.25-3.74,26.52-6.56,12.27-2.82,23.74-4.56,34.41-5.23,3.34-.22,5.43-.57,6.28-1.06,.85-.48,2.09-.72,3.72-.72,2.74,0,5.02,.71,6.84,2.11,1.82,1.41,2.72,2.71,2.72,3.89s-.43,2.06-1.28,2.61c-.85,.56-1.98,.83-3.39,.83l-2.78-.22c-3.26,0-7.06,.65-11.4,1.95-4.34,1.3-8.54,3.21-12.62,5.73,1.63,2.08,5.45,4.15,11.45,6.23,2,.67,3.71,1.96,5.11,3.89,1.41,1.93,2.11,3.71,2.11,5.34,0,.82-.22,1.45-.67,1.89-1.56,1.56-3.22,4.3-5,8.23-.89,1.85-3.52,5.56-7.89,11.12-4.37,5.56-8.04,9.25-11.01,11.06-2.97,1.82-4.76,2.72-5.39,2.72s-1.09-.21-1.39-.61c-.3-.41-.96-1.96-2-4.67-1.04-2.71-1.96-5.95-2.78-9.73-.82-3.78-1.22-6.73-1.22-8.84s.37-3.17,1.11-3.17c.52,0,.85,.52,1,1.56,.52,4.22,1.59,7.23,3.22,9.01,1.63,1.78,3.37,2.67,5.23,2.67,.67,0,1.3-.17,1.89-.5,.59-.33,1.87-1.7,3.84-4.11,1.96-2.41,3.59-4.82,4.89-7.23,1.3-2.41,2.3-4.82,3-7.23,.7-2.41,1.06-3.98,1.06-4.72s-.2-1.28-.61-1.61c-.41-.33-1.54-.5-3.39-.5-2.67,0-5.08-.67-7.23-2-7.26,7.12-13.21,12.82-17.84,17.12-4.63,4.3-8.71,7.86-12.23,10.67-3.52,2.82-5.54,4.35-6.06,4.61-.52,.26-.93,.39-1.22,.39-.82,0-1.22-.52-1.22-1.56s.2-2.54,.61-4.5c.41-1.96,1.02-2.95,1.83-2.95,.22,0,.56,.07,1,.22,4.67-3.33,10.19-8.52,16.57-15.57,6.37-7.04,11.04-12.93,14.01-17.68-1.48-.67-2.22-1.78-2.22-3.34,0-.52,.07-1.07,.22-1.67Zm-15.9-5.23c-.96,.22-1.45,.07-1.45-.44,0-.3,.26-.52,.78-.67,3.93-1.11,7.62-2.69,11.06-4.73,3.45-2.04,5.17-3.54,5.17-4.5,0-.37-.46-1.33-1.39-2.89-.93-1.56-2.09-3.71-3.5-6.45-1.41-2.74-2.11-4.26-2.11-4.56s.26-.44,.78-.44c1.63,0,4.11,.48,7.45,1.45,3.33,.96,5.76,1.98,7.28,3.06,1.52,1.08,2.87,2.5,4.06,4.28,1.18,1.78,1.78,3.37,1.78,4.78s-.43,2.58-1.28,3.5c-.85,.93-1.95,1.54-3.28,1.83l-25.35,5.78Zm26.24,6.67c1.18-.37,2.98-1.15,5.39-2.33,2.41-1.19,3.76-1.89,4.06-2.11,.29-.22,.44-.44,.44-.67s-.37-.33-1.11-.33c-3.41,0-7.78,.78-13.12,2.33,1.04,1.04,2.48,2.08,4.34,3.11Z"/>
      <path d="M915.37,410.58c-1.04-3.04-1.56-4.96-1.56-5.78,0-.52,.28-.78,.83-.78s1.85,.52,3.89,1.56c2.04,1.04,4.17,2.82,6.39,5.34,2.22,2.52,3.33,4.89,3.33,7.12,0,1.04-.24,2.74-.72,5.11-.48,2.37-1.35,3.56-2.61,3.56s-2.54-1.21-3.84-3.61c-1.3-2.41-2.21-4.61-2.72-6.62-7.41,1.93-14.19,4.89-20.35,8.9-.89,.59-1.8,.89-2.72,.89s-2.17-1.21-3.72-3.61-2.33-4.46-2.33-6.17c0-2.67,1.06-4.95,3.17-6.84,2.11-1.89,5.15-5,9.12-9.34,3.96-4.34,5.95-6.76,5.95-7.28,0-.22-.17-.33-.5-.33s-1.22,.24-2.67,.72c-1.45,.48-2.72,1.26-3.84,2.33-1.11,1.08-2.11,1.61-3,1.61s-1.8-1.18-2.72-3.56c-.93-2.37-1.39-4.13-1.39-5.28s.43-2.15,1.28-3c.85-.85,1.28-1.5,1.28-1.95s-1.04-.67-3.11-.67-4.04,.83-5.89,2.5c-1.85,1.67-3.52,4.5-5,8.51-1.48,4-2.58,8.45-3.28,13.34-.71,4.89-1.39,11.82-2.06,20.79-.15,1.63-.63,2.45-1.45,2.45-1.33,0-2.96-.96-4.89-2.89-1.93-1.93-3.71-4.8-5.34-8.62-1.63-3.82-2.45-7.76-2.45-11.84,0-6.23,.37-12.8,1.11-19.74,.74-6.93,1.63-11.69,2.67-14.29,1.04-2.59,2.93-5.45,5.67-8.56,.82-.81,1.22-1.7,1.22-2.67,0-.59-.48-1.63-1.45-3.11l-3.56-6.12c-.3-.44-.44-.85-.44-1.22,0-.74,.41-1.11,1.22-1.11,.37,0,.7,.11,1,.33,2.82,1.93,5.63,3.34,8.45,4.23,2.82,.89,4.85,2.22,6.12,4,1.26,1.78,1.89,3.11,1.89,4s-.19,1.59-.56,2.11c-.37,.52-.76,.83-1.17,.95-.41,.11-1.19,.17-2.33,.17s-2.47,.67-3.95,2c-2.82,2.45-4.67,3.67-5.56,3.67-.37,0-.56-.18-.56-.56s-.11-.56-.33-.56c-1.04,0-2.06,.72-3.06,2.17-1,1.45-1.5,3.32-1.5,5.62s.59,4.97,1.78,8.01c1.18,3.04,1.78,5.1,1.78,6.17s-.32,1.91-.95,2.5c-.63,.59-1.26,2.84-1.89,6.73-.63,3.89-.94,7.89-.94,12.01s.56,6.17,1.67,6.17c.52,0,1.11-.5,1.78-1.5,.67-1,1.07-1.83,1.22-2.5,2.22-10.52,4.3-18.35,6.23-23.46,1.93-5.12,4.26-9.19,7-12.23,2.74-3.04,5-4.89,6.78-5.56,3.19-1.26,6.15-2.78,8.9-4.56,1.63-4.59,2.91-8.95,3.84-13.06,.93-4.11,1.39-6.6,1.39-7.45s-.22-1.43-.67-1.72c-.45-.3-1.22-.59-2.33-.89-1.11-.3-1.67-.65-1.67-1.06s.63-1.04,1.89-1.89c1.26-.85,2.82-1.28,4.67-1.28s3.67,.85,5.45,2.56c1.78,1.71,2.67,3.6,2.67,5.67,0,.59-.11,1.19-.33,1.78-.89,2.52-1.52,5.15-1.89,7.89,1.04,.74,2.5,1.17,4.39,1.28,1.89,.11,3.8,.67,5.73,1.67,1.93,1,2.89,1.74,2.89,2.22s-.59,1.24-1.78,2.28c-1.19,1.04-2.74,1.59-4.67,1.67-1.93,.07-4.02,.59-6.28,1.56-2.26,.96-4.24,2.3-5.95,4-1.71,3.48-2.85,6.82-3.45,10.01,2.74-.52,5.04-.78,6.89-.78s3.85,.82,6,2.45c2.15,1.63,3.22,2.93,3.22,3.89,0,1.41-2.28,4.58-6.84,9.51-4.56,4.93-9.47,9.32-14.73,13.18-.67,.52-1,.91-1,1.17s.22,.39,.67,.39,2.5-.43,6.17-1.28c3.67-.85,7.13-1.98,10.4-3.39Z"/>
      <path d="M983.09,410.8c1.85-2.22,3.85-5.08,6-8.56,.81-1.41,1.65-2.11,2.5-2.11s1.28,.69,1.28,2.06-.33,2.85-1,4.45c-.67,1.59-1.95,3.97-3.84,7.12-1.89,3.15-2.83,5.84-2.83,8.06,0,.52,.15,.96,.44,1.33,.3,.37,.45,.72,.45,1.06s-.39,1.09-1.17,2.28c-.78,1.18-1.39,1.78-1.83,1.78-.96,0-2.35-1.48-4.17-4.45-1.82-2.97-2.72-5.52-2.72-7.67,0-.74,.13-1.3,.39-1.67,.26-.37,.39-1.37,.39-3,0-9.86,.45-16.12,1.33-18.79,.07-.29,.11-.63,.11-1s-.19-.56-.56-.56-.78,.3-1.22,.89c-1.11,1.56-2.33,2.87-3.67,3.95-1.33,1.08-2.48,1.61-3.45,1.61-1.11,0-2.28-.41-3.5-1.22-1.22-.82-2.15-1.91-2.78-3.28-.63-1.37-1.35-3.35-2.17-5.95-.82-2.59-1.24-4.43-1.28-5.5-.04-1.07,.18-2.22,.67-3.45,.48-1.22,.96-1.83,1.45-1.83s.85,1.21,1.11,3.61c.26,2.41,.72,3.61,1.39,3.61,.22,0,2-.8,5.34-2.39,3.34-1.59,5.71-2.8,7.12-3.61,1.41-.81,2.22-1.41,2.45-1.78,.52-1.19,1.83-1.78,3.95-1.78s3.63,.78,4.56,2.33c.93,1.56,1.39,2.85,1.39,3.89s-.07,1.78-.22,2.22c-4.23,14.6-6.19,24.05-5.89,28.35Zm.67-62.71c1.26,0,4.21,.76,8.84,2.28,4.63,1.52,6.95,3.69,6.95,6.5,0,1.63-.41,3.06-1.22,4.28-.82,1.22-1.71,1.83-2.67,1.83s-1.87-.3-2.72-.89c-.85-.59-1.48-.89-1.89-.89s-1.28,.37-2.61,1.11c-5.41,2.97-9.25,4.45-11.51,4.45s-3.39-.29-3.39-.89c0-.44,.68-1.28,2.06-2.5,1.37-1.22,3.15-2.96,5.34-5.23,2.19-2.26,3.39-3.65,3.61-4.17,.22-.52,.33-1,.33-1.45s-.33-1.11-1-2c-.67-.89-1-1.52-1-1.89s.29-.56,.89-.56Zm32.69,12.34c2.52,.96,4.76,2.11,6.73,3.45,1.96,1.33,5.08,4.19,9.34,8.56,4.26,4.37,13.17,10.27,26.74,17.68,.81,.52,1.39,.96,1.72,1.33,.33,.37,.5,1.06,.5,2.06s-.43,1.67-1.28,2c-.85,.33-2.85,.5-6,.5s-5.58-.11-7.28-.33c-1.71-.22-3.19-.72-4.45-1.5-1.26-.78-3.34-2.59-6.23-5.45-2.89-2.85-5.69-6.21-8.39-10.06-2.71-3.85-5.34-6.85-7.89-9.01-2.56-2.15-5.06-3.04-7.5-2.67-4.74,9.93-9.23,17.29-13.45,22.07-4.23,4.78-7.34,7.17-9.34,7.17-.45,0-.95-.13-1.5-.39-.56-.26-.83-.56-.83-.89s.33-.87,1-1.61c3.56-3.85,6.74-7.88,9.56-12.06,2.82-4.19,5.74-9.26,8.78-15.23,3.04-5.97,4.72-9.45,5.06-10.45,.33-1,.5-1.83,.5-2.5s-.35-1.26-1.06-1.78c-.71-.52-1.06-.91-1.06-1.17s.72-.54,2.17-.83c1.45-.3,2.5-.44,3.17-.44,1.63,0,3.19,.48,4.67,1.45,1.48,.96,2.22,2.11,2.22,3.45,0,.59-.17,1.28-.5,2.06-.33,.78-.72,1.21-1.17,1.28-2,.44-3.41,1.56-4.22,3.34Zm-1.78,36.47c.37,1.11-.35,3.3-2.17,6.56-1.82,3.26-3.32,5.41-4.5,6.45-.52,.44-.78,1.06-.78,1.83s.87,1.54,2.61,2.28c1.74,.74,4.28,1.11,7.62,1.11s6.1-.15,8.28-.44c2.18-.3,3.54-.63,4.06-1,.52-.37,.96-1.11,1.33-2.22,.37-1.11,.56-2.17,.56-3.17s-.17-3.04-.5-6.12c-.33-3.08-.5-4.95-.5-5.62s.11-1,.33-1,.44,.41,.67,1.22c1.11,4.6,2.37,7.99,3.78,10.17,1.41,2.19,2.39,4.58,2.95,7.17,.56,2.6,.83,4.39,.83,5.39s-.56,1.74-1.67,2.22c-1.11,.48-2.91,1.09-5.39,1.83-2.48,.74-5.41,1.11-8.78,1.11s-6.39-.13-9.06-.39c-2.67-.26-4.35-.54-5.06-.83-.71-.3-1.87-1.24-3.5-2.83-1.63-1.59-2.63-2.78-3-3.56-.37-.78-.69-1.91-.95-3.39-.26-1.48-.39-3.04-.39-4.67,0-3.34,.37-5.58,1.11-6.73,.74-1.15,1.11-2.06,1.11-2.72s-.26-1.22-.78-1.67c-.52-.45-1.13-1.33-1.83-2.67-.71-1.33-1.06-2.19-1.06-2.56s.67-.72,2-1.06c1.33-.33,2.45-.5,3.33-.5s2.04,.33,3.45,1c1.33-.52,2.52-1.74,3.56-3.67,1.04-1.93,1.56-3.37,1.56-4.34,0-.67-.33-1.26-1-1.78-.67-.52-1-.93-1-1.22,0-.52,1.31-.78,3.95-.78s5.24,.56,7.84,1.67c2.59,1.11,4.23,2.37,4.89,3.78,.67,1.41,1,2.45,1,3.11s-.2,1.21-.61,1.61c-.41,.41-1.48,1.13-3.22,2.17-1.74,1.04-3.6,1.95-5.56,2.72-1.96,.78-3.8,1.28-5.5,1.5Z"/>
    </g>
  </g>
</svg>