<?xml version="1.0" encoding="UTF-8"?><svg id="uuid-7c06c9d2-08d2-4441-a98c-2bef1885965c" xmlns="http://www.w3.org/2000/svg" viewBox="0 0 1366 768"><defs><style>.uuid-3c15ad41-a267-4880-b939-16a0c9ccc713{fill:#fff;}</style></defs><rect y=".5" width="1366" height="768"/><g id="uuid-1b21b002-e9bf-43f8-995e-03bb08a6062b"><path class="uuid-3c15ad41-a267-4880-b939-16a0c9ccc713" d="M860.64,216.08c-14.17,13.3-484.15,488.15-498.46,502.46l-7.95,7.95c-13.88,13.88-57.04,57.04-70.48,71.35l13.44,16.62-5.2,5.2-42.93-42.93,5.2-5.2,16.62,13.44c14.17-13.3,57.18-56.32,71.35-70.48l7.95-7.95c14.02-14.02,484.15-489.02,497.6-503.33l-13.44-16.62,5.06-5.06,42.93,42.93-5.06,5.06-16.62-13.44Z"/><path class="uuid-3c15ad41-a267-4880-b939-16a0c9ccc713" d="M670.21,563.19c-14.17,13.3-145.41,144.54-159.72,158.85l-7.95,7.95c-13.88,13.88-53.1,53.1-66.55,67.42l13.44,16.62-5.2,5.2-42.93-42.93,5.2-5.2,16.62,13.44c14.17-13.3,53.25-52.38,67.42-66.55l7.95-7.95c14.02-14.02,145.41-145.41,158.85-159.72l-13.44-16.62,5.06-5.06,42.93,42.93-5.06,5.06-16.62-13.44Z"/></g></svg>