<?xml version="1.0" encoding="UTF-8"?><svg id="uuid-715b5025-14b6-4067-86d6-68811e158ff0" xmlns="http://www.w3.org/2000/svg" viewBox="0 0 1366 768"><defs><style>.uuid-827e7b4a-f251-4689-bcc2-21f87d45bcab{fill:#fff;}</style></defs><rect y=".5" width="1366" height="768"/><g id="uuid-05395124-c52f-443e-b188-e03a20d5b0c8"><path class="uuid-827e7b4a-f251-4689-bcc2-21f87d45bcab" d="M860.64,216.08c-14.17,13.3-484.15,488.15-498.46,502.46l-7.95,7.95c-13.88,13.88-57.04,57.04-70.48,71.35l13.44,16.62-5.2,5.2-42.93-42.93,5.2-5.2,16.62,13.44c14.17-13.3,57.18-56.32,71.35-70.48l7.95-7.95c14.02-14.02,484.15-489.02,497.6-503.33l-13.44-16.62,5.06-5.06,42.93,42.93-5.06,5.06-16.62-13.44Z"/><path class="uuid-827e7b4a-f251-4689-bcc2-21f87d45bcab" d="M670.21,563.19c-14.17,13.3-145.41,144.54-159.72,158.85l-7.95,7.95c-13.88,13.88-53.1,53.1-66.55,67.42l13.44,16.62-5.2,5.2-42.93-42.93,5.2-5.2,16.62,13.44c14.17-13.3,53.25-52.38,67.42-66.55l7.95-7.95c14.02-14.02,145.41-145.41,158.85-159.72l-13.44-16.62,5.06-5.06,42.93,42.93-5.06,5.06-16.62-13.44Z"/></g><g><path class="uuid-827e7b4a-f251-4689-bcc2-21f87d45bcab" d="M747.39,566.92c-.12,5.7-.12,11.46-.12,17.4h10.38l.84-6.48h2.76v15.96h-2.76l-.84-6.84h-10.38c0,6.42,0,12.3,.12,18.06l6.24,.72v2.28h-18.6v-2.28l6.12-.66c.12-5.76,.12-11.52,.12-17.4v-3.24c0-5.88,0-11.7-.12-17.46l-6.12-.66v-2.28h32.64l.36,11.58h-3.24l-1.74-8.7h-15.66Z"/><path class="uuid-827e7b4a-f251-4689-bcc2-21f87d45bcab" d="M778.44,593.05c1.38-3.45,3.79-5.47,6.13-5.47,1.3,0,2.53,.57,3.02,1.57,0,1.76-.69,2.87-2.37,2.87-1,0-1.8-.46-2.6-1.19l-.5-.46c-1.72,1.26-2.83,2.99-3.64,5.55v3.29c0,1.95,.04,4.86,.08,7.01l3.48,.5v1.3h-10.18v-1.3l3.06-.46c.04-2.11,.08-5.09,.08-7.04v-2.18c0-2.37-.04-3.83-.12-5.51l-3.33-.34v-1.26l5.9-2.3,.57,.38,.42,5.05Z"/><path class="uuid-827e7b4a-f251-4689-bcc2-21f87d45bcab" d="M789.24,598.14c0-6.93,4.71-10.57,9.61-10.57s9.65,3.6,9.65,10.57-4.75,10.41-9.65,10.41-9.61-3.52-9.61-10.41Zm15.39,0c0-5.82-2.14-8.96-5.78-8.96s-5.78,3.14-5.78,8.96,2.11,8.8,5.78,8.8,5.78-3.02,5.78-8.8Z"/><path class="uuid-827e7b4a-f251-4689-bcc2-21f87d45bcab" d="M846.86,606.72v1.3h-9.61v-1.3l3.1-.46c.04-2.11,.08-5.02,.08-7.04v-3.94c0-3.9-1.11-5.01-3.52-5.01-1.76,0-3.52,.77-5.74,2.79,.08,.65,.12,1.34,.12,2.14v4.02c0,2.03,.04,4.94,.12,7.04l2.87,.46v1.3h-9.65v-1.3l3.18-.46c.04-2.11,.08-5.02,.08-7.04v-3.87c0-3.83-1.07-5.09-3.45-5.09-1.92,0-3.56,.8-5.71,2.76v6.2c0,1.95,.04,4.9,.08,7.04l2.91,.46v1.3h-9.65v-1.3l3.1-.46c.04-2.14,.08-5.09,.08-7.04v-2.18c0-2.37,0-3.83-.12-5.51l-3.33-.34v-1.26l5.9-2.3,.57,.38,.34,3.41c2.07-2.34,4.75-3.83,7.31-3.83s4.25,1.19,4.98,3.94c2.22-2.68,4.9-3.94,7.58-3.94,3.41,0,5.36,2.11,5.36,7.27v4.36c0,2.03,.04,4.94,.08,7.04l2.95,.46Z"/><path class="uuid-827e7b4a-f251-4689-bcc2-21f87d45bcab" d="M871.48,606.41c-1.07,1.34-2.72,2.14-4.86,2.14-2.99,0-4.75-1.53-4.75-4.9,0-1,.04-1.91,.04-3.48v-10.18h-3.56v-1.49l3.75-.46,1.11-5.67h2.41l-.23,5.78h5.63v1.84h-5.67v13.51c0,2.22,.92,3.14,2.41,3.14,1,0,1.76-.38,2.87-1.19l.84,.96Z"/><path class="uuid-827e7b4a-f251-4689-bcc2-21f87d45bcab" d="M895.63,606.72v1.3h-9.65v-1.3l3.14-.46c.04-2.11,.08-5.02,.08-7.04v-3.9c0-3.87-1.15-5.09-3.52-5.09-1.91,0-3.71,.69-6.01,2.79v6.2c0,1.95,.04,4.9,.08,7.04l2.91,.46v1.3h-9.65v-1.3l3.14-.46c.04-2.14,.08-5.09,.08-7.04v-18.87l-3.41-.31v-1.26l6.36-1.76,.54,.31-.12,5.97v8.23c2.11-2.37,4.94-3.94,7.66-3.94,3.56,0,5.4,2.18,5.4,7.66v3.98c0,2.03,.04,4.94,.08,7.04l2.91,.46Z"/><path class="uuid-827e7b4a-f251-4689-bcc2-21f87d45bcab" d="M902.49,597.87c.08,5.55,2.87,8.35,6.97,8.35,2.76,0,4.4-1.22,5.9-3.02l.84,.57c-1.53,2.95-4.21,4.79-7.92,4.79-5.63,0-9.46-3.79-9.46-10.34s4.44-10.64,9.61-10.64c4.52,0,7.85,3.06,7.85,8,0,.96-.12,1.76-.31,2.33l-13.48-.04Zm8.12-1.49c1.84,0,2.26-.96,2.26-2.33,0-2.6-1.92-4.86-4.63-4.86-2.57,0-5.28,2.14-5.7,7.12l8.08,.08Z"/><path class="uuid-827e7b4a-f251-4689-bcc2-21f87d45bcab" d="M947.02,603.43c-1.23,3.25-3.87,5.13-7.77,5.13-5.67,0-9.46-4.02-9.46-10.41s4.71-10.57,9.8-10.57c3.71,0,6.78,2.26,7.35,5.36-.23,1.03-.84,1.53-1.84,1.53-1.34,0-1.99-.77-2.22-1.95l-.8-2.95c-.8-.27-1.61-.38-2.26-.38-3.83,0-6.43,3.14-6.43,8.58s2.91,8.46,6.93,8.46c2.41,0,4.52-1.19,5.86-3.18l.84,.38Z"/><path class="uuid-827e7b4a-f251-4689-bcc2-21f87d45bcab" d="M954.06,597.87c.08,5.55,2.87,8.35,6.97,8.35,2.76,0,4.4-1.22,5.9-3.02l.84,.57c-1.53,2.95-4.21,4.79-7.92,4.79-5.63,0-9.46-3.79-9.46-10.34s4.44-10.64,9.61-10.64c4.52,0,7.85,3.06,7.85,8,0,.96-.12,1.76-.31,2.33l-13.48-.04Zm8.12-1.49c1.84,0,2.26-.96,2.26-2.33,0-2.6-1.92-4.86-4.63-4.86-2.57,0-5.28,2.14-5.7,7.12l8.08,.08Z"/><path class="uuid-827e7b4a-f251-4689-bcc2-21f87d45bcab" d="M993.95,606.72v1.3h-9.65v-1.3l3.1-.46c.04-2.11,.08-5.02,.08-7.04v-3.9c0-3.79-1.03-5.09-3.48-5.09-1.88,0-3.67,.8-5.86,2.79v6.2c0,1.95,.04,4.9,.08,7.04l2.91,.46v1.3h-9.65v-1.3l3.1-.46c.04-2.14,.08-5.09,.08-7.04v-2.18c0-2.37-.04-3.83-.12-5.51l-3.33-.34v-1.26l5.9-2.3,.57,.38,.34,3.45c2.14-2.37,4.94-3.87,7.54-3.87,3.56,0,5.36,2.22,5.36,7.62v4.02c0,2.03,.04,4.94,.08,7.04l2.95,.46Z"/><path class="uuid-827e7b4a-f251-4689-bcc2-21f87d45bcab" d="M1008.62,606.41c-1.07,1.34-2.72,2.14-4.86,2.14-2.99,0-4.75-1.53-4.75-4.9,0-1,.04-1.91,.04-3.48v-10.18h-3.56v-1.49l3.75-.46,1.11-5.67h2.41l-.23,5.78h5.63v1.84h-5.67v13.51c0,2.22,.92,3.14,2.41,3.14,1,0,1.76-.38,2.87-1.19l.84,.96Z"/><path class="uuid-827e7b4a-f251-4689-bcc2-21f87d45bcab" d="M1014.36,597.87c.08,5.55,2.87,8.35,6.97,8.35,2.76,0,4.4-1.22,5.9-3.02l.84,.57c-1.53,2.95-4.21,4.79-7.92,4.79-5.63,0-9.46-3.79-9.46-10.34s4.44-10.64,9.61-10.64c4.52,0,7.85,3.06,7.85,8,0,.96-.12,1.76-.31,2.33l-13.48-.04Zm8.12-1.49c1.84,0,2.26-.96,2.26-2.33,0-2.6-1.92-4.86-4.63-4.86-2.57,0-5.28,2.14-5.7,7.12l8.08,.08Z"/><path class="uuid-827e7b4a-f251-4689-bcc2-21f87d45bcab" d="M1038.41,593.05c1.38-3.45,3.79-5.47,6.13-5.47,1.3,0,2.53,.57,3.02,1.57,0,1.76-.69,2.87-2.37,2.87-1,0-1.8-.46-2.6-1.19l-.5-.46c-1.72,1.26-2.83,2.99-3.64,5.55v3.29c0,1.95,.04,4.86,.08,7.01l3.48,.5v1.3h-10.18v-1.3l3.06-.46c.04-2.11,.08-5.09,.08-7.04v-2.18c0-2.37-.04-3.83-.12-5.51l-3.33-.34v-1.26l5.9-2.3,.57,.38,.42,5.05Z"/><path class="uuid-827e7b4a-f251-4689-bcc2-21f87d45bcab" d="M1059.5,598.14c0-6.93,4.71-10.57,9.61-10.57s9.65,3.6,9.65,10.57-4.75,10.41-9.65,10.41-9.61-3.52-9.61-10.41Zm15.39,0c0-5.82-2.14-8.96-5.78-8.96s-5.78,3.14-5.78,8.96,2.11,8.8,5.78,8.8,5.78-3.02,5.78-8.8Z"/><path class="uuid-827e7b4a-f251-4689-bcc2-21f87d45bcab" d="M1085.58,588.04c.38-4.48,1.23-7.01,3.02-8.88,1.8-1.95,3.91-2.57,5.82-2.57s3.56,.65,3.98,2.22c-.08,1.03-.96,1.84-2.37,1.84-1.11,0-2.03-.46-2.99-1.38l-1.15-1c-.61,.38-1.15,.92-1.53,1.57-.92,1.57-1.57,4.02-1.42,8.31h5.82v1.84h-5.74v9.23c0,2.34,.04,4.67,.08,7.01l3.83,.5v1.3h-10.83v-1.3l3.37-.46c.08-2.37,.11-4.67,.11-7.04v-9.23h-3.52v-1.49l3.52-.46Z"/><path class="uuid-827e7b4a-f251-4689-bcc2-21f87d45bcab" d="M1141.82,606.72v1.3h-9.61v-1.3l3.1-.46c.04-2.11,.08-5.02,.08-7.04v-3.94c0-3.9-1.11-5.01-3.52-5.01-1.76,0-3.52,.77-5.74,2.79,.08,.65,.12,1.34,.12,2.14v4.02c0,2.03,.04,4.94,.12,7.04l2.87,.46v1.3h-9.65v-1.3l3.18-.46c.04-2.11,.08-5.02,.08-7.04v-3.87c0-3.83-1.07-5.09-3.45-5.09-1.92,0-3.56,.8-5.71,2.76v6.2c0,1.95,.04,4.9,.08,7.04l2.91,.46v1.3h-9.65v-1.3l3.1-.46c.04-2.14,.08-5.09,.08-7.04v-2.18c0-2.37,0-3.83-.12-5.51l-3.33-.34v-1.26l5.9-2.3,.57,.38,.34,3.41c2.07-2.34,4.75-3.83,7.31-3.83s4.25,1.19,4.98,3.94c2.22-2.68,4.9-3.94,7.58-3.94,3.41,0,5.36,2.11,5.36,7.27v4.36c0,2.03,.04,4.94,.08,7.04l2.95,.46Z"/><path class="uuid-827e7b4a-f251-4689-bcc2-21f87d45bcab" d="M1163.41,589.45l-2.33,.38-7.04,18.61c-2.72,7.2-5.36,10.03-8.42,10.03-1.99,0-3.75-1.07-3.75-2.64,.27-1.19,1.45-1.72,2.68-1.72s1.95,.5,3.06,1.53l.31,.31c1.88-1.46,3.1-3.71,4.06-6.24l.19-.46-7.81-19.49-2.37-.31v-1.3h9.95v1.3l-3.64,.38,5.51,14.93,5.28-14.89-3.79-.42v-1.3h8.12v1.3Z"/><path class="uuid-827e7b4a-f251-4689-bcc2-21f87d45bcab" d="M1184.62,606.72v1.3h-10.3v-1.3l3.33-.46c.04-2.3,.08-4.75,.08-7.04v-18.87l-3.41-.31v-1.26l6.47-1.76,.57,.31-.19,5.97v15.93c0,2.3,.04,4.75,.08,7.04l3.37,.46Z"/><path class="uuid-827e7b4a-f251-4689-bcc2-21f87d45bcab" d="M1196.91,606.72v1.3h-9.65v-1.3l3.22-.46c.04-2.14,.08-5.09,.08-7.04v-2.22c0-2.34-.04-3.71-.11-5.55l-3.41-.31v-1.26l6.43-2.26,.57,.38-.08,5.59v5.63c0,1.95,.04,4.9,.08,7.04l2.87,.46Zm-7.43-26.53c0-1.53,1.19-2.56,2.72-2.56s2.68,1.03,2.68,2.56-1.22,2.6-2.68,2.6c-1.53,0-2.72-1.11-2.72-2.6Z"/><path class="uuid-827e7b4a-f251-4689-bcc2-21f87d45bcab" d="M1203.31,588.04c.38-4.48,1.23-7.01,3.02-8.88,1.8-1.95,3.91-2.57,5.82-2.57s3.56,.65,3.98,2.22c-.08,1.03-.96,1.84-2.37,1.84-1.11,0-2.03-.46-2.99-1.38l-1.15-1c-.61,.38-1.15,.92-1.53,1.57-.92,1.57-1.57,4.02-1.42,8.31h5.82v1.84h-5.74v9.23c0,2.34,.04,4.67,.08,7.01l3.83,.5v1.3h-10.83v-1.3l3.37-.46c.08-2.37,.11-4.67,.11-7.04v-9.23h-3.52v-1.49l3.52-.46Z"/><path class="uuid-827e7b4a-f251-4689-bcc2-21f87d45bcab" d="M1218.2,597.87c.08,5.55,2.87,8.35,6.97,8.35,2.76,0,4.4-1.22,5.9-3.02l.84,.57c-1.53,2.95-4.21,4.79-7.92,4.79-5.63,0-9.46-3.79-9.46-10.34s4.44-10.64,9.61-10.64c4.52,0,7.85,3.06,7.85,8,0,.96-.12,1.76-.31,2.33l-13.48-.04Zm8.12-1.49c1.84,0,2.26-.96,2.26-2.33,0-2.6-1.91-4.86-4.63-4.86-2.57,0-5.28,2.14-5.7,7.12l8.08,.08Z"/><path class="uuid-827e7b4a-f251-4689-bcc2-21f87d45bcab" d="M1262.73,603.43c-1.23,3.25-3.87,5.13-7.77,5.13-5.67,0-9.46-4.02-9.46-10.41s4.71-10.57,9.8-10.57c3.71,0,6.78,2.26,7.35,5.36-.23,1.03-.84,1.53-1.84,1.53-1.34,0-1.99-.77-2.22-1.95l-.8-2.95c-.8-.27-1.61-.38-2.26-.38-3.83,0-6.43,3.14-6.43,8.58s2.91,8.46,6.93,8.46c2.41,0,4.52-1.19,5.86-3.18l.84,.38Z"/><path class="uuid-827e7b4a-f251-4689-bcc2-21f87d45bcab" d="M1285.32,606.33c-.96,1.57-2.14,2.14-3.6,2.14-2.07,0-3.41-1.26-3.75-3.29-2.3,2.26-3.75,3.37-6.28,3.37-3.06,0-5.55-1.76-5.55-5.13,0-2.57,1.46-4.4,6.93-6.36,1.34-.5,3.14-1,4.82-1.38v-1.3c0-4.13-1.19-5.21-4.02-5.21-.73,0-1.49,.12-2.37,.34l-.8,2.87c-.34,1.3-1.03,1.95-2.11,1.95-1.15,0-1.76-.57-1.88-1.61,.73-3.22,3.79-5.17,8.12-5.17s6.51,1.99,6.51,7.2v9.11c0,1.99,.57,2.68,1.53,2.68,.69,0,1.15-.38,1.68-1.03l.77,.8Zm-7.43-9.34c-1.49,.42-2.95,.92-3.87,1.26-3.67,1.42-4.33,3.06-4.33,4.59,0,2.26,1.46,3.25,3.41,3.25,1.49,0,2.45-.61,4.79-2.45v-6.66Z"/><path class="uuid-827e7b4a-f251-4689-bcc2-21f87d45bcab" d="M1321.92,606.72v1.3h-9.61v-1.3l3.1-.46c.04-2.11,.08-5.02,.08-7.04v-3.94c0-3.9-1.11-5.01-3.52-5.01-1.76,0-3.52,.77-5.74,2.79,.08,.65,.12,1.34,.12,2.14v4.02c0,2.03,.04,4.94,.12,7.04l2.87,.46v1.3h-9.65v-1.3l3.18-.46c.04-2.11,.08-5.02,.08-7.04v-3.87c0-3.83-1.07-5.09-3.45-5.09-1.92,0-3.56,.8-5.71,2.76v6.2c0,1.95,.04,4.9,.08,7.04l2.91,.46v1.3h-9.65v-1.3l3.1-.46c.04-2.14,.08-5.09,.08-7.04v-2.18c0-2.37,0-3.83-.12-5.51l-3.33-.34v-1.26l5.9-2.3,.57,.38,.34,3.41c2.07-2.34,4.75-3.83,7.31-3.83s4.25,1.19,4.98,3.94c2.22-2.68,4.9-3.94,7.58-3.94,3.41,0,5.36,2.11,5.36,7.27v4.36c0,2.03,.04,4.94,.08,7.04l2.95,.46Z"/><path class="uuid-827e7b4a-f251-4689-bcc2-21f87d45bcab" d="M1328.73,597.87c.08,5.55,2.87,8.35,6.97,8.35,2.76,0,4.4-1.22,5.9-3.02l.84,.57c-1.53,2.95-4.21,4.79-7.92,4.79-5.63,0-9.46-3.79-9.46-10.34s4.44-10.64,9.61-10.64c4.52,0,7.85,3.06,7.85,8,0,.96-.12,1.76-.31,2.33l-13.48-.04Zm8.12-1.49c1.84,0,2.26-.96,2.26-2.33,0-2.6-1.91-4.86-4.63-4.86-2.57,0-5.28,2.14-5.7,7.12l8.08,.08Z"/><path class="uuid-827e7b4a-f251-4689-bcc2-21f87d45bcab" d="M753.19,652.28c-.96,1.57-2.14,2.14-3.6,2.14-2.07,0-3.41-1.26-3.75-3.29-2.3,2.26-3.75,3.37-6.28,3.37-3.06,0-5.55-1.76-5.55-5.13,0-2.57,1.46-4.4,6.93-6.36,1.34-.5,3.14-1,4.82-1.38v-1.3c0-4.13-1.19-5.21-4.02-5.21-.73,0-1.49,.12-2.37,.34l-.8,2.87c-.34,1.3-1.03,1.95-2.11,1.95-1.15,0-1.76-.57-1.88-1.61,.73-3.22,3.79-5.17,8.12-5.17s6.51,1.99,6.51,7.2v9.11c0,1.99,.57,2.68,1.53,2.68,.69,0,1.15-.38,1.68-1.03l.77,.8Zm-7.43-9.34c-1.49,.42-2.95,.92-3.87,1.26-3.68,1.42-4.33,3.06-4.33,4.59,0,2.26,1.46,3.25,3.41,3.25,1.49,0,2.45-.61,4.79-2.45v-6.66Z"/><path class="uuid-827e7b4a-f251-4689-bcc2-21f87d45bcab" d="M784.01,636.47l-4.25-.11c.69,1.07,1.11,2.41,1.11,4.02,0,4.4-3.18,6.93-7.54,6.93-1.22,0-2.33-.19-3.33-.54-.77,.96-1.15,1.76-1.15,2.76,0,1.23,.57,1.95,2.68,1.95h5.55c4.59,0,6.74,1.99,6.74,5.32,0,3.64-3.48,7.2-10.34,7.2-6.09,0-8.73-2.14-8.73-5.17,0-1.8,1.11-3.22,4.06-4.63-1.72-.54-2.72-1.61-2.72-3.25,0-1.34,.77-2.68,2.87-4.63-1.99-1.11-3.22-3.1-3.22-5.93,0-4.36,3.18-6.85,7.58-6.85,2.14,0,3.98,.54,5.28,1.65l4.79-1.61,.61,.42v2.49Zm-12.21,18.07c-.84,0-1.49-.04-2.07-.08-1.22,1.22-1.72,2.33-1.72,3.79,0,2.79,2.18,4.06,5.47,4.06,4.79,0,7.27-1.91,7.27-4.4,0-1.88-1.11-3.37-4.13-3.37h-4.82Zm5.74-14.24c0-3.14-1.53-5.32-4.17-5.32s-4.33,2.22-4.33,5.44,1.57,5.47,4.17,5.47,4.33-2.33,4.33-5.59Z"/><path class="uuid-827e7b4a-f251-4689-bcc2-21f87d45bcab" d="M793.27,639c1.38-3.45,3.79-5.47,6.13-5.47,1.3,0,2.53,.57,3.02,1.57,0,1.76-.69,2.87-2.37,2.87-1,0-1.8-.46-2.6-1.19l-.5-.46c-1.72,1.26-2.83,2.99-3.64,5.55v3.29c0,1.95,.04,4.86,.08,7.01l3.48,.5v1.3h-10.18v-1.3l3.06-.46c.04-2.11,.08-5.09,.08-7.04v-2.18c0-2.37-.04-3.83-.12-5.51l-3.33-.34v-1.26l5.9-2.3,.57,.38,.42,5.05Z"/><path class="uuid-827e7b4a-f251-4689-bcc2-21f87d45bcab" d="M807.75,643.82c.08,5.55,2.87,8.35,6.97,8.35,2.76,0,4.4-1.22,5.9-3.02l.84,.57c-1.53,2.95-4.21,4.79-7.92,4.79-5.63,0-9.46-3.79-9.46-10.34s4.44-10.64,9.61-10.64c4.52,0,7.85,3.06,7.85,8,0,.96-.12,1.76-.31,2.33l-13.48-.04Zm8.12-1.49c1.84,0,2.26-.96,2.26-2.33,0-2.6-1.91-4.86-4.63-4.86-2.57,0-5.28,2.14-5.7,7.12l8.08,.08Z"/><path class="uuid-827e7b4a-f251-4689-bcc2-21f87d45bcab" d="M844.27,652.28c-.96,1.57-2.14,2.14-3.6,2.14-2.07,0-3.41-1.26-3.75-3.29-2.3,2.26-3.75,3.37-6.28,3.37-3.06,0-5.55-1.76-5.55-5.13,0-2.57,1.46-4.4,6.93-6.36,1.34-.5,3.14-1,4.82-1.38v-1.3c0-4.13-1.19-5.21-4.02-5.21-.73,0-1.49,.12-2.37,.34l-.8,2.87c-.34,1.3-1.03,1.95-2.11,1.95-1.15,0-1.76-.57-1.88-1.61,.73-3.22,3.79-5.17,8.12-5.17s6.51,1.99,6.51,7.2v9.11c0,1.99,.57,2.68,1.53,2.68,.69,0,1.15-.38,1.68-1.03l.77,.8Zm-7.43-9.34c-1.49,.42-2.95,.92-3.87,1.26-3.67,1.42-4.33,3.06-4.33,4.59,0,2.26,1.46,3.25,3.41,3.25,1.49,0,2.45-.61,4.79-2.45v-6.66Z"/><path class="uuid-827e7b4a-f251-4689-bcc2-21f87d45bcab" d="M858.09,652.36c-1.07,1.34-2.72,2.14-4.86,2.14-2.99,0-4.75-1.53-4.75-4.9,0-1,.04-1.91,.04-3.48v-10.18h-3.56v-1.49l3.75-.46,1.11-5.67h2.41l-.23,5.78h5.63v1.84h-5.67v13.51c0,2.22,.92,3.14,2.41,3.14,1,0,1.76-.38,2.87-1.19l.84,.96Z"/><path class="uuid-827e7b4a-f251-4689-bcc2-21f87d45bcab" d="M873.03,633.98c.38-4.48,1.23-7.01,3.02-8.88,1.8-1.95,3.91-2.57,5.82-2.57s3.56,.65,3.98,2.22c-.08,1.03-.96,1.84-2.37,1.84-1.11,0-2.03-.46-2.99-1.38l-1.15-1c-.61,.38-1.15,.92-1.53,1.57-.92,1.57-1.57,4.02-1.42,8.31h5.82v1.84h-5.74v9.23c0,2.34,.04,4.67,.08,7.01l3.83,.5v1.3h-10.83v-1.3l3.37-.46c.08-2.37,.11-4.67,.11-7.04v-9.23h-3.52v-1.49l3.52-.46Z"/><path class="uuid-827e7b4a-f251-4689-bcc2-21f87d45bcab" d="M884.24,644.09c0-6.93,4.71-10.57,9.61-10.57s9.65,3.6,9.65,10.57-4.75,10.41-9.65,10.41-9.61-3.52-9.61-10.41Zm15.39,0c0-5.82-2.14-8.96-5.78-8.96s-5.78,3.14-5.78,8.96,2.11,8.8,5.78,8.8,5.78-3.02,5.78-8.8Z"/><path class="uuid-827e7b4a-f251-4689-bcc2-21f87d45bcab" d="M928.2,652.7v1.26l-5.82,.34-.38-3.79c-2.14,2.64-4.82,3.98-7.47,3.98-3.41,0-5.51-1.99-5.47-7.58l.12-10.68-3.02-.61v-1.23l6.16-.61,.42,.42-.19,5.93v6.58c0,3.75,1.19,5.05,3.48,5.05,2.03,0,4.02-.92,5.86-2.76l.12-12.75-2.99-.57v-1.26l6.05-.65,.38,.42-.12,5.93v12.1l2.87,.46Z"/><path class="uuid-827e7b4a-f251-4689-bcc2-21f87d45bcab" d="M953.85,652.66v1.3h-9.65v-1.3l3.1-.46c.04-2.11,.08-5.02,.08-7.04v-3.9c0-3.79-1.03-5.09-3.48-5.09-1.88,0-3.67,.8-5.86,2.79v6.2c0,1.95,.04,4.9,.08,7.04l2.91,.46v1.3h-9.65v-1.3l3.1-.46c.04-2.14,.08-5.09,.08-7.04v-2.18c0-2.37-.04-3.83-.12-5.51l-3.33-.34v-1.26l5.9-2.3,.57,.38,.34,3.45c2.14-2.37,4.94-3.87,7.54-3.87,3.56,0,5.36,2.22,5.36,7.62v4.02c0,2.03,.04,4.94,.08,7.04l2.95,.46Z"/><path class="uuid-827e7b4a-f251-4689-bcc2-21f87d45bcab" d="M968.51,652.36c-1.07,1.34-2.72,2.14-4.86,2.14-2.99,0-4.75-1.53-4.75-4.9,0-1,.04-1.91,.04-3.48v-10.18h-3.56v-1.49l3.75-.46,1.11-5.67h2.41l-.23,5.78h5.63v1.84h-5.67v13.51c0,2.22,.92,3.14,2.41,3.14,1,0,1.76-.38,2.87-1.19l.84,.96Z"/><path class="uuid-827e7b4a-f251-4689-bcc2-21f87d45bcab" d="M989.8,652.28c-.96,1.57-2.14,2.14-3.6,2.14-2.07,0-3.41-1.26-3.75-3.29-2.3,2.26-3.75,3.37-6.28,3.37-3.06,0-5.55-1.76-5.55-5.13,0-2.57,1.46-4.4,6.93-6.36,1.34-.5,3.14-1,4.82-1.38v-1.3c0-4.13-1.19-5.21-4.02-5.21-.73,0-1.49,.12-2.37,.34l-.8,2.87c-.34,1.3-1.03,1.95-2.11,1.95-1.15,0-1.76-.57-1.88-1.61,.73-3.22,3.79-5.17,8.12-5.17s6.51,1.99,6.51,7.2v9.11c0,1.99,.57,2.68,1.53,2.68,.69,0,1.15-.38,1.68-1.03l.77,.8Zm-7.43-9.34c-1.49,.42-2.95,.92-3.87,1.26-3.67,1.42-4.33,3.06-4.33,4.59,0,2.26,1.46,3.25,3.41,3.25,1.49,0,2.45-.61,4.79-2.45v-6.66Z"/><path class="uuid-827e7b4a-f251-4689-bcc2-21f87d45bcab" d="M1001.21,652.66v1.3h-9.65v-1.3l3.22-.46c.04-2.14,.08-5.09,.08-7.04v-2.22c0-2.33-.04-3.71-.11-5.55l-3.41-.31v-1.26l6.43-2.26,.57,.38-.08,5.59v5.63c0,1.95,.04,4.9,.08,7.04l2.87,.46Zm-7.43-26.53c0-1.53,1.19-2.56,2.72-2.56s2.68,1.03,2.68,2.56-1.22,2.6-2.68,2.6c-1.53,0-2.72-1.11-2.72-2.6Z"/><path class="uuid-827e7b4a-f251-4689-bcc2-21f87d45bcab" d="M1026.82,652.66v1.3h-9.65v-1.3l3.1-.46c.04-2.11,.08-5.02,.08-7.04v-3.9c0-3.79-1.03-5.09-3.48-5.09-1.88,0-3.67,.8-5.86,2.79v6.2c0,1.95,.04,4.9,.08,7.04l2.91,.46v1.3h-9.65v-1.3l3.1-.46c.04-2.14,.08-5.09,.08-7.04v-2.18c0-2.37-.04-3.83-.12-5.51l-3.33-.34v-1.26l5.9-2.3,.57,.38,.34,3.45c2.14-2.37,4.94-3.87,7.54-3.87,3.56,0,5.36,2.22,5.36,7.62v4.02c0,2.03,.04,4.94,.08,7.04l2.95,.46Z"/><path class="uuid-827e7b4a-f251-4689-bcc2-21f87d45bcab" d="M1033.06,654.16c-1.07-.77-1.53-1.84-1.53-2.79,0-1.42,.88-2.56,2.45-2.56,.77,0,1.57,.27,2.49,1.15,.34,1,.46,1.88,.46,2.95,0,4.86-3.87,8.77-7.7,10.3l-.57-1.23c2.95-1.49,5.09-3.41,6.01-6.58l-1.61-1.23Z"/><path class="uuid-827e7b4a-f251-4689-bcc2-21f87d45bcab" d="M1073.61,652.66v1.3l-6.51,.42-.23-2.87c-1.49,1.88-3.33,2.99-5.9,2.99-5.13,0-8.61-4.17-8.61-10.3,0-6.51,3.79-10.68,8.96-10.68,1.95,0,3.75,.65,5.51,2.72v-9.95l-3.52-.31v-1.26l6.47-1.76,.54,.31-.11,5.97v23.05l3.41,.38Zm-6.85-14.82c-1.88-1.68-3.33-2.22-4.75-2.22-3.22,0-5.97,2.45-5.97,8.46s2.53,8.27,5.93,8.27c1.84,0,3.18-.57,4.79-2.37v-12.14Z"/><path class="uuid-827e7b4a-f251-4689-bcc2-21f87d45bcab" d="M1079.89,643.82c.08,5.55,2.87,8.35,6.97,8.35,2.76,0,4.4-1.22,5.9-3.02l.84,.57c-1.53,2.95-4.21,4.79-7.92,4.79-5.63,0-9.46-3.79-9.46-10.34s4.44-10.64,9.61-10.64c4.52,0,7.85,3.06,7.85,8,0,.96-.12,1.76-.31,2.33l-13.48-.04Zm8.12-1.49c1.84,0,2.26-.96,2.26-2.33,0-2.6-1.91-4.86-4.63-4.86-2.57,0-5.28,2.14-5.7,7.12l8.08,.08Z"/><path class="uuid-827e7b4a-f251-4689-bcc2-21f87d45bcab" d="M1101.17,643.82c.08,5.55,2.87,8.35,6.97,8.35,2.76,0,4.4-1.22,5.9-3.02l.84,.57c-1.53,2.95-4.21,4.79-7.92,4.79-5.63,0-9.46-3.79-9.46-10.34s4.44-10.64,9.61-10.64c4.52,0,7.85,3.06,7.85,8,0,.96-.12,1.76-.31,2.33l-13.48-.04Zm8.12-1.49c1.84,0,2.26-.96,2.26-2.33,0-2.6-1.91-4.86-4.63-4.86-2.57,0-5.28,2.14-5.7,7.12l8.08,.08Z"/><path class="uuid-827e7b4a-f251-4689-bcc2-21f87d45bcab" d="M1124.76,636.62c1.99-2.18,4.17-3.1,6.39-3.1,4.48,0,7.96,3.94,7.96,10.38s-3.68,10.6-8.58,10.6c-1.91,0-3.91-.61-5.7-2.79v3.33c0,2.3,.04,4.75,.08,7.12l3.83,.58v1.26h-10.72v-1.26l3.41-.54c.04-2.37,.08-4.79,.08-7.04v-12.17c0-2.34-.04-3.83-.11-5.51l-3.37-.34v-1.26l5.9-2.3,.57,.38,.27,2.68Zm.19,13.67c1.61,1.49,3.1,2.07,4.71,2.07,3.22,0,5.82-2.37,5.82-8.15s-2.22-8.58-5.4-8.58c-1.3,0-2.87,.38-5.13,2.3v12.37Z"/><path class="uuid-827e7b4a-f251-4689-bcc2-21f87d45bcab" d="M1158.72,636.66c1.99-2.18,4.25-3.14,6.47-3.14,4.52,0,8,3.83,8,10.3s-3.52,10.68-8.58,10.68c-1.91,0-4.02-.65-5.9-2.99l-.34,2.87-6.24-.42v-1.3l3.14-.46c.04-2.14,.08-5.09,.08-7.04v-18.84l-3.41-.34v-1.26l6.36-1.76,.54,.31-.12,5.97v7.43Zm.08,13.4c1.72,1.65,3.45,2.3,5.05,2.3,2.99,0,5.67-2.37,5.67-8.23s-2.3-8.5-5.51-8.5c-1.3,0-2.91,.31-5.21,2.41v12.02Z"/><path class="uuid-827e7b4a-f251-4689-bcc2-21f87d45bcab" d="M1186.21,652.66v1.3h-10.3v-1.3l3.33-.46c.04-2.3,.08-4.75,.08-7.04v-18.87l-3.41-.31v-1.26l6.47-1.76,.57,.31-.19,5.97v15.93c0,2.3,.04,4.75,.08,7.04l3.37,.46Z"/><path class="uuid-827e7b4a-f251-4689-bcc2-21f87d45bcab" d="M1210.14,652.7v1.26l-5.82,.34-.38-3.79c-2.14,2.64-4.82,3.98-7.47,3.98-3.41,0-5.51-1.99-5.47-7.58l.12-10.68-3.02-.61v-1.23l6.16-.61,.42,.42-.19,5.93v6.58c0,3.75,1.19,5.05,3.48,5.05,2.03,0,4.02-.92,5.86-2.76l.12-12.75-2.99-.57v-1.26l6.05-.65,.38,.42-.12,5.93v12.1l2.87,.46Z"/><path class="uuid-827e7b4a-f251-4689-bcc2-21f87d45bcab" d="M1216.88,643.82c.08,5.55,2.87,8.35,6.97,8.35,2.76,0,4.4-1.22,5.9-3.02l.84,.57c-1.53,2.95-4.21,4.79-7.92,4.79-5.63,0-9.46-3.79-9.46-10.34s4.44-10.64,9.61-10.64c4.52,0,7.85,3.06,7.85,8,0,.96-.12,1.76-.31,2.33l-13.48-.04Zm8.12-1.49c1.84,0,2.26-.96,2.26-2.33,0-2.6-1.91-4.86-4.63-4.86-2.57,0-5.28,2.14-5.7,7.12l8.08,.08Z"/><path class="uuid-827e7b4a-f251-4689-bcc2-21f87d45bcab" d="M742.93,688.42c4.13,1.46,5.74,3.41,5.74,6.05,0,3.22-2.79,5.97-8.12,5.97-2.41,0-4.25-.54-6.32-1.57l-.08-4.59h1.99l.92,3.87c1,.46,2.11,.69,3.45,.69,3.29,0,4.82-1.38,4.82-3.37,0-1.84-1.15-2.79-3.9-3.83l-1.95-.65c-3.1-1.15-5.13-2.79-5.13-5.67,0-3.1,2.6-5.86,7.31-5.86,2.26,0,4.02,.61,5.86,1.72l-.15,4.25h-1.88l-.8-3.56c-1-.5-1.99-.77-3.02-.77-2.68,0-4.1,1.23-4.1,3.06s1.07,2.68,3.91,3.71l1.45,.54Z"/><path class="uuid-827e7b4a-f251-4689-bcc2-21f87d45bcab" d="M773.79,698.61v1.3h-9.65v-1.3l3.14-.46c.04-2.11,.08-5.02,.08-7.04v-3.9c0-3.87-1.15-5.09-3.52-5.09-1.91,0-3.71,.69-6.01,2.79v6.2c0,1.95,.04,4.9,.08,7.04l2.91,.46v1.3h-9.65v-1.3l3.14-.46c.04-2.14,.08-5.09,.08-7.04v-18.87l-3.41-.31v-1.26l6.36-1.76,.54,.31-.12,5.97v8.23c2.11-2.37,4.94-3.94,7.66-3.94,3.56,0,5.4,2.18,5.4,7.66v3.98c0,2.03,.04,4.94,.08,7.04l2.91,.46Z"/><path class="uuid-827e7b4a-f251-4689-bcc2-21f87d45bcab" d="M796.18,698.22c-.96,1.57-2.14,2.14-3.6,2.14-2.07,0-3.41-1.26-3.75-3.29-2.3,2.26-3.75,3.37-6.28,3.37-3.06,0-5.55-1.76-5.55-5.13,0-2.57,1.46-4.4,6.93-6.36,1.34-.5,3.14-1,4.82-1.38v-1.3c0-4.13-1.19-5.21-4.02-5.21-.73,0-1.49,.12-2.37,.34l-.8,2.87c-.34,1.3-1.03,1.95-2.11,1.95-1.15,0-1.76-.57-1.88-1.61,.73-3.22,3.79-5.17,8.12-5.17s6.51,1.99,6.51,7.2v9.11c0,1.99,.57,2.68,1.53,2.68,.69,0,1.15-.38,1.68-1.03l.77,.8Zm-7.43-9.34c-1.49,.42-2.95,.92-3.87,1.26-3.68,1.42-4.33,3.06-4.33,4.59,0,2.26,1.46,3.25,3.41,3.25,1.49,0,2.45-.61,4.79-2.45v-6.66Z"/><path class="uuid-827e7b4a-f251-4689-bcc2-21f87d45bcab" d="M819.58,698.61v1.3l-6.51,.42-.23-2.87c-1.49,1.88-3.33,2.99-5.9,2.99-5.13,0-8.61-4.17-8.61-10.3,0-6.51,3.79-10.68,8.96-10.68,1.95,0,3.75,.65,5.51,2.72v-9.95l-3.52-.31v-1.26l6.47-1.76,.54,.31-.11,5.97v23.05l3.41,.38Zm-6.85-14.82c-1.88-1.68-3.33-2.22-4.75-2.22-3.22,0-5.97,2.45-5.97,8.46s2.53,8.27,5.93,8.27c1.84,0,3.18-.57,4.79-2.37v-12.14Z"/><path class="uuid-827e7b4a-f251-4689-bcc2-21f87d45bcab" d="M822.18,690.03c0-6.93,4.71-10.57,9.61-10.57s9.65,3.6,9.65,10.57-4.75,10.41-9.65,10.41-9.61-3.52-9.61-10.41Zm15.39,0c0-5.82-2.14-8.96-5.78-8.96s-5.78,3.14-5.78,8.96,2.11,8.8,5.78,8.8,5.78-3.02,5.78-8.8Z"/><path class="uuid-827e7b4a-f251-4689-bcc2-21f87d45bcab" d="M875.05,681.42l-2.37,.5-6.13,18.26h-1.49c-3.29-8.58-4.59-12.29-5.55-15.31l-5.59,15.31h-1.49l-6.74-18.38-2.41-.38v-1.38h9.49v1.38l-3.29,.46,4.56,13.67,4.86-13.63-3.22-.5v-1.38h9.11v1.38l-3.22,.54,5.05,13.44,4.06-13.44-3.29-.54v-1.38h7.66v1.38Z"/><path class="uuid-827e7b4a-f251-4689-bcc2-21f87d45bcab" d="M885.85,688.42c4.13,1.46,5.74,3.41,5.74,6.05,0,3.22-2.79,5.97-8.12,5.97-2.41,0-4.25-.54-6.32-1.57l-.08-4.59h1.99l.92,3.87c1,.46,2.11,.69,3.45,.69,3.29,0,4.82-1.38,4.82-3.37,0-1.84-1.15-2.79-3.9-3.83l-1.95-.65c-3.1-1.15-5.13-2.79-5.13-5.67,0-3.1,2.6-5.86,7.31-5.86,2.26,0,4.02,.61,5.86,1.72l-.15,4.25h-1.88l-.8-3.56c-1-.5-1.99-.77-3.02-.77-2.68,0-4.1,1.23-4.1,3.06s1.07,2.68,3.91,3.71l1.45,.54Z"/><path class="uuid-827e7b4a-f251-4689-bcc2-21f87d45bcab" d="M904.88,690.03c0-6.93,4.71-10.57,9.61-10.57s9.65,3.6,9.65,10.57-4.75,10.41-9.65,10.41-9.61-3.52-9.61-10.41Zm15.39,0c0-5.82-2.14-8.96-5.78-8.96s-5.78,3.14-5.78,8.96,2.11,8.8,5.78,8.8,5.78-3.02,5.78-8.8Z"/><path class="uuid-827e7b4a-f251-4689-bcc2-21f87d45bcab" d="M950.17,698.61v1.3h-9.65v-1.3l3.1-.46c.04-2.11,.08-5.02,.08-7.04v-3.9c0-3.79-1.03-5.09-3.48-5.09-1.88,0-3.67,.8-5.86,2.79v6.2c0,1.95,.04,4.9,.08,7.04l2.91,.46v1.3h-9.65v-1.3l3.1-.46c.04-2.14,.08-5.09,.08-7.04v-2.18c0-2.37-.04-3.83-.12-5.51l-3.33-.34v-1.26l5.9-2.3,.57,.38,.34,3.45c2.14-2.37,4.94-3.87,7.54-3.87,3.56,0,5.36,2.22,5.36,7.62v4.02c0,2.03,.04,4.94,.08,7.04l2.95,.46Z"/><path class="uuid-827e7b4a-f251-4689-bcc2-21f87d45bcab" d="M982.33,698.22c-.96,1.57-2.14,2.14-3.6,2.14-2.07,0-3.41-1.26-3.75-3.29-2.3,2.26-3.75,3.37-6.28,3.37-3.06,0-5.55-1.76-5.55-5.13,0-2.57,1.46-4.4,6.93-6.36,1.34-.5,3.14-1,4.82-1.38v-1.3c0-4.13-1.19-5.21-4.02-5.21-.73,0-1.49,.12-2.37,.34l-.8,2.87c-.34,1.3-1.03,1.95-2.11,1.95-1.15,0-1.76-.57-1.88-1.61,.73-3.22,3.79-5.17,8.12-5.17s6.51,1.99,6.51,7.2v9.11c0,1.99,.57,2.68,1.53,2.68,.69,0,1.15-.38,1.68-1.03l.77,.8Zm-7.43-9.34c-1.49,.42-2.95,.92-3.87,1.26-3.67,1.42-4.33,3.06-4.33,4.59,0,2.26,1.46,3.25,3.41,3.25,1.49,0,2.45-.61,4.79-2.45v-6.66Z"/><path class="uuid-827e7b4a-f251-4689-bcc2-21f87d45bcab" d="M1000.67,693.17l-.42,6.74h-16.31v-1.34l12.14-17h-8.84l-1.23,4.75-1.84-.15,.31-6.12h15.58v1.3l-12.06,17h9.46l1.34-5.17h1.88Z"/><path class="uuid-827e7b4a-f251-4689-bcc2-21f87d45bcab" d="M1024.83,698.64v1.26l-5.82,.34-.38-3.79c-2.14,2.64-4.82,3.98-7.47,3.98-3.41,0-5.51-1.99-5.47-7.58l.12-10.68-3.02-.61v-1.23l6.16-.61,.42,.42-.19,5.93v6.58c0,3.75,1.19,5.05,3.48,5.05,2.03,0,4.02-.92,5.86-2.76l.12-12.75-2.99-.57v-1.26l6.05-.65,.38,.42-.12,5.93v12.1l2.87,.46Z"/><path class="uuid-827e7b4a-f251-4689-bcc2-21f87d45bcab" d="M1034.63,684.94c1.38-3.45,3.79-5.47,6.13-5.47,1.3,0,2.53,.57,3.02,1.57,0,1.76-.69,2.87-2.37,2.87-1,0-1.8-.46-2.6-1.19l-.5-.46c-1.72,1.26-2.83,2.99-3.64,5.55v3.29c0,1.95,.04,4.86,.08,7.01l3.48,.5v1.3h-10.18v-1.3l3.06-.46c.04-2.11,.08-5.09,.08-7.04v-2.18c0-2.37-.04-3.83-.12-5.51l-3.33-.34v-1.26l5.9-2.3,.57,.38,.42,5.05Z"/><path class="uuid-827e7b4a-f251-4689-bcc2-21f87d45bcab" d="M1049.11,689.76c.08,5.55,2.87,8.35,6.97,8.35,2.76,0,4.4-1.22,5.9-3.02l.84,.57c-1.53,2.95-4.21,4.79-7.92,4.79-5.63,0-9.46-3.79-9.46-10.34s4.44-10.64,9.61-10.64c4.52,0,7.85,3.06,7.85,8,0,.96-.12,1.76-.31,2.33l-13.48-.04Zm8.12-1.49c1.84,0,2.26-.96,2.26-2.33,0-2.6-1.92-4.86-4.63-4.86-2.57,0-5.28,2.14-5.7,7.12l8.08,.08Z"/><path class="uuid-827e7b4a-f251-4689-bcc2-21f87d45bcab" d="M1085.48,688.42c4.13,1.46,5.74,3.41,5.74,6.05,0,3.22-2.79,5.97-8.12,5.97-2.41,0-4.25-.54-6.32-1.57l-.08-4.59h1.99l.92,3.87c1,.46,2.11,.69,3.45,.69,3.29,0,4.82-1.38,4.82-3.37,0-1.84-1.15-2.79-3.9-3.83l-1.95-.65c-3.1-1.15-5.13-2.79-5.13-5.67,0-3.1,2.6-5.86,7.31-5.86,2.26,0,4.02,.61,5.86,1.72l-.15,4.25h-1.88l-.8-3.56c-1-.5-1.99-.77-3.02-.77-2.68,0-4.1,1.23-4.1,3.06s1.07,2.68,3.91,3.71l1.45,.54Z"/><path class="uuid-827e7b4a-f251-4689-bcc2-21f87d45bcab" d="M1098.38,689.76c.08,5.55,2.87,8.35,6.97,8.35,2.76,0,4.4-1.22,5.9-3.02l.84,.57c-1.53,2.95-4.21,4.79-7.92,4.79-5.63,0-9.46-3.79-9.46-10.34s4.44-10.64,9.61-10.64c4.52,0,7.85,3.06,7.85,8,0,.96-.12,1.76-.31,2.33l-13.48-.04Zm8.12-1.49c1.84,0,2.26-.96,2.26-2.33,0-2.6-1.91-4.86-4.63-4.86-2.57,0-5.28,2.14-5.7,7.12l8.08,.08Z"/><path class="uuid-827e7b4a-f251-4689-bcc2-21f87d45bcab" d="M1134.91,698.22c-.96,1.57-2.14,2.14-3.6,2.14-2.07,0-3.41-1.26-3.75-3.29-2.3,2.26-3.75,3.37-6.28,3.37-3.06,0-5.55-1.76-5.55-5.13,0-2.57,1.46-4.4,6.93-6.36,1.34-.5,3.14-1,4.82-1.38v-1.3c0-4.13-1.19-5.21-4.02-5.21-.73,0-1.49,.12-2.37,.34l-.8,2.87c-.34,1.3-1.03,1.95-2.11,1.95-1.15,0-1.76-.57-1.88-1.61,.73-3.22,3.79-5.17,8.12-5.17s6.51,1.99,6.51,7.2v9.11c0,1.99,.57,2.68,1.53,2.68,.69,0,1.15-.38,1.68-1.03l.77,.8Zm-7.43-9.34c-1.49,.42-2.95,.92-3.87,1.26-3.67,1.42-4.33,3.06-4.33,4.59,0,2.26,1.46,3.25,3.41,3.25,1.49,0,2.45-.61,4.79-2.45v-6.66Z"/><path class="uuid-827e7b4a-f251-4689-bcc2-21f87d45bcab" d="M1166.15,681.42l-2.37,.5-6.13,18.26h-1.49c-3.29-8.58-4.59-12.29-5.55-15.31l-5.59,15.31h-1.49l-6.74-18.38-2.41-.38v-1.38h9.49v1.38l-3.29,.46,4.56,13.67,4.86-13.63-3.22-.5v-1.38h9.11v1.38l-3.22,.54,5.05,13.44,4.06-13.44-3.29-.54v-1.38h7.66v1.38Z"/><path class="uuid-827e7b4a-f251-4689-bcc2-21f87d45bcab" d="M1186.94,698.22c-.96,1.57-2.14,2.14-3.6,2.14-2.07,0-3.41-1.26-3.75-3.29-2.3,2.26-3.75,3.37-6.28,3.37-3.06,0-5.55-1.76-5.55-5.13,0-2.57,1.46-4.4,6.93-6.36,1.34-.5,3.14-1,4.82-1.38v-1.3c0-4.13-1.19-5.21-4.02-5.21-.73,0-1.49,.12-2.37,.34l-.8,2.87c-.34,1.3-1.03,1.95-2.11,1.95-1.15,0-1.76-.57-1.88-1.61,.73-3.22,3.79-5.17,8.12-5.17s6.51,1.99,6.51,7.2v9.11c0,1.99,.57,2.68,1.53,2.68,.69,0,1.15-.38,1.68-1.03l.77,.8Zm-7.43-9.34c-1.49,.42-2.95,.92-3.87,1.26-3.67,1.42-4.33,3.06-4.33,4.59,0,2.26,1.46,3.25,3.41,3.25,1.49,0,2.45-.61,4.79-2.45v-6.66Z"/><path class="uuid-827e7b4a-f251-4689-bcc2-21f87d45bcab" d="M1200.76,698.3c-1.07,1.34-2.72,2.14-4.86,2.14-2.99,0-4.75-1.53-4.75-4.9,0-1,.04-1.91,.04-3.48v-10.18h-3.56v-1.49l3.75-.46,1.11-5.67h2.41l-.23,5.78h5.63v1.84h-5.67v13.51c0,2.22,.92,3.14,2.41,3.14,1,0,1.76-.38,2.87-1.19l.84,.96Z"/><path class="uuid-827e7b4a-f251-4689-bcc2-21f87d45bcab" d="M1206.5,689.76c.08,5.55,2.87,8.35,6.97,8.35,2.76,0,4.4-1.22,5.9-3.02l.84,.57c-1.53,2.95-4.21,4.79-7.92,4.79-5.63,0-9.46-3.79-9.46-10.34s4.44-10.64,9.61-10.64c4.52,0,7.85,3.06,7.85,8,0,.96-.12,1.76-.31,2.33l-13.48-.04Zm8.12-1.49c1.84,0,2.26-.96,2.26-2.33,0-2.6-1.91-4.86-4.63-4.86-2.57,0-5.28,2.14-5.7,7.12l8.08,.08Z"/><path class="uuid-827e7b4a-f251-4689-bcc2-21f87d45bcab" d="M1230.55,684.94c1.38-3.45,3.79-5.47,6.13-5.47,1.3,0,2.53,.57,3.02,1.57,0,1.76-.69,2.87-2.37,2.87-1,0-1.8-.46-2.6-1.19l-.5-.46c-1.72,1.26-2.83,2.99-3.64,5.55v3.29c0,1.95,.04,4.86,.08,7.01l3.48,.5v1.3h-10.18v-1.3l3.06-.46c.04-2.11,.08-5.09,.08-7.04v-2.18c0-2.37-.04-3.83-.12-5.51l-3.33-.34v-1.26l5.9-2.3,.57,.38,.42,5.05Z"/><path class="uuid-827e7b4a-f251-4689-bcc2-21f87d45bcab" d="M1239.7,697.65c0-1.61,1.26-2.91,2.83-2.91s2.87,1.3,2.87,2.91c0,1.49-1.26,2.79-2.87,2.79s-2.83-1.3-2.83-2.79Z"/><path class="uuid-827e7b4a-f251-4689-bcc2-21f87d45bcab" d="M998.41,734.1h61.45v2.45h-61.45v-2.45Z"/><path class="uuid-827e7b4a-f251-4689-bcc2-21f87d45bcab" d="M1074.37,719.63c-.08,3.67-.08,7.43-.08,11.18v2.07c0,3.68,0,7.39,.08,11.06l4.33,.46v1.46h-12.63v-1.46l4.33-.46c.08-3.64,.08-7.31,.08-11.06v-2.07c0-3.75,0-7.5-.08-11.18h-6.58l-1.15,5.63h-2.11l.34-7.47h23.01l.27,7.47h-2.03l-1.19-5.63h-6.58Z"/><path class="uuid-827e7b4a-f251-4689-bcc2-21f87d45bcab" d="M1108.98,744.55v1.3h-9.65v-1.3l3.14-.46c.04-2.11,.08-5.02,.08-7.04v-3.9c0-3.87-1.15-5.09-3.52-5.09-1.91,0-3.71,.69-6.01,2.79v6.2c0,1.95,.04,4.9,.08,7.04l2.91,.46v1.3h-9.65v-1.3l3.14-.46c.04-2.14,.08-5.09,.08-7.04v-18.87l-3.41-.31v-1.26l6.36-1.76,.54,.31-.12,5.97v8.23c2.11-2.37,4.94-3.94,7.66-3.94,3.56,0,5.4,2.18,5.4,7.66v3.98c0,2.03,.04,4.94,.08,7.04l2.91,.46Z"/><path class="uuid-827e7b4a-f251-4689-bcc2-21f87d45bcab" d="M1115.84,735.71c.08,5.55,2.87,8.35,6.97,8.35,2.76,0,4.4-1.22,5.9-3.02l.84,.57c-1.53,2.95-4.21,4.79-7.92,4.79-5.63,0-9.46-3.79-9.46-10.34s4.44-10.64,9.61-10.64c4.52,0,7.85,3.06,7.85,8,0,.96-.12,1.76-.31,2.33l-13.48-.04Zm8.12-1.49c1.84,0,2.26-.96,2.26-2.33,0-2.6-1.92-4.86-4.63-4.86-2.57,0-5.28,2.14-5.7,7.12l8.08,.08Z"/><path class="uuid-827e7b4a-f251-4689-bcc2-21f87d45bcab" d="M1181.34,719.25l-3.6,.46-7.12,26.42h-1.76l-7.24-22.2-6.93,22.2h-1.72l-7.58-26.49-3.45-.38v-1.46h11.29v1.46l-3.94,.46,5.44,20.14,6.47-20.14-4.21-.46v-1.46h11.26v1.46l-4.29,.5,6.39,20.21,5.4-20.18-3.94-.54v-1.46h9.53v1.46Z"/><path class="uuid-827e7b4a-f251-4689-bcc2-21f87d45bcab" d="M1192.11,744.55v1.3h-9.65v-1.3l3.22-.46c.04-2.14,.08-5.09,.08-7.04v-2.22c0-2.33-.04-3.71-.11-5.55l-3.41-.31v-1.26l6.43-2.26,.57,.38-.08,5.59v5.63c0,1.95,.04,4.9,.08,7.04l2.87,.46Zm-7.43-26.53c0-1.53,1.19-2.56,2.72-2.56s2.68,1.03,2.68,2.56-1.22,2.6-2.68,2.6c-1.53,0-2.72-1.11-2.72-2.6Z"/><path class="uuid-827e7b4a-f251-4689-bcc2-21f87d45bcab" d="M1205.01,744.55v1.3h-10.3v-1.3l3.33-.46c.04-2.3,.08-4.75,.08-7.04v-18.87l-3.41-.31v-1.26l6.47-1.76,.57,.31-.19,5.97v15.93c0,2.3,.04,4.75,.08,7.04l3.37,.46Z"/><path class="uuid-827e7b4a-f251-4689-bcc2-21f87d45bcab" d="M1229.28,744.55v1.3l-6.51,.42-.23-2.87c-1.49,1.88-3.33,2.99-5.9,2.99-5.13,0-8.61-4.17-8.61-10.3,0-6.51,3.79-10.68,8.96-10.68,1.95,0,3.75,.65,5.51,2.72v-9.95l-3.52-.31v-1.26l6.47-1.76,.54,.31-.11,5.97v23.05l3.41,.38Zm-6.85-14.82c-1.88-1.68-3.33-2.22-4.75-2.22-3.22,0-5.97,2.45-5.97,8.46s2.53,8.27,5.93,8.27c1.84,0,3.18-.57,4.79-2.37v-12.14Z"/><path class="uuid-827e7b4a-f251-4689-bcc2-21f87d45bcab" d="M1249.57,719.67c-.08,3.64-.08,7.39-.08,11.14v2.07c0,3.68,0,7.39,.08,11.06l3.91,.46v1.46h-11.79v-1.46l3.91-.42c.08-3.67,.08-7.35,.08-11.1v-2.07c0-3.75,0-7.46-.08-11.14l-3.91-.42v-1.46h11.79v1.46l-3.91,.42Z"/><path class="uuid-827e7b4a-f251-4689-bcc2-21f87d45bcab" d="M1263.66,730.88c1.38-3.45,3.79-5.47,6.13-5.47,1.3,0,2.53,.57,3.02,1.57,0,1.76-.69,2.87-2.37,2.87-1,0-1.8-.46-2.6-1.19l-.5-.46c-1.72,1.26-2.83,2.99-3.64,5.55v3.29c0,1.95,.04,4.86,.08,7.01l3.48,.5v1.3h-10.18v-1.3l3.06-.46c.04-2.11,.08-5.09,.08-7.04v-2.18c0-2.37-.04-3.83-.12-5.51l-3.33-.34v-1.26l5.9-2.3,.57,.38,.42,5.05Z"/><path class="uuid-827e7b4a-f251-4689-bcc2-21f87d45bcab" d="M1284.22,744.55v1.3h-9.65v-1.3l3.22-.46c.04-2.14,.08-5.09,.08-7.04v-2.22c0-2.33-.04-3.71-.11-5.55l-3.41-.31v-1.26l6.43-2.26,.57,.38-.08,5.59v5.63c0,1.95,.04,4.9,.08,7.04l2.87,.46Zm-7.43-26.53c0-1.53,1.19-2.56,2.72-2.56s2.68,1.03,2.68,2.56-1.22,2.6-2.68,2.6c-1.53,0-2.72-1.11-2.72-2.6Z"/><path class="uuid-827e7b4a-f251-4689-bcc2-21f87d45bcab" d="M1296.51,734.37c4.13,1.46,5.74,3.41,5.74,6.05,0,3.22-2.79,5.97-8.12,5.97-2.41,0-4.25-.54-6.32-1.57l-.08-4.59h1.99l.92,3.87c1,.46,2.11,.69,3.45,.69,3.29,0,4.82-1.38,4.82-3.37,0-1.84-1.15-2.79-3.9-3.83l-1.95-.65c-3.1-1.15-5.13-2.79-5.13-5.67,0-3.1,2.6-5.86,7.31-5.86,2.26,0,4.02,.61,5.86,1.72l-.15,4.25h-1.88l-.8-3.56c-1-.5-1.99-.77-3.02-.77-2.68,0-4.1,1.23-4.1,3.06s1.07,2.68,3.91,3.71l1.45,.54Z"/></g></svg>