<?xml version="1.0" encoding="utf-8"?>
<!-- Generator: Adobe Illustrator 27.0.0, SVG Export Plug-In . SVG Version: 6.00 Build 0)  -->
<svg version="1.1" id="uuid-ca1b4793-6c05-49bc-b1f1-06b47aa981ab"
	 xmlns="http://www.w3.org/2000/svg" xmlns:xlink="http://www.w3.org/1999/xlink" x="0px" y="0px" viewBox="0 0 1366 768"
	 style="enable-background:new 0 0 1366 768;" xml:space="preserve">
<style type="text/css">
	.st0{fill:#FFFFFF;}
</style>
<rect y="0.5" width="1366" height="768"/>
<g id="uuid-6bc04f66-87ed-4b14-940c-d8ecb2b12cf0">
	<path class="st0" d="M840.1,220.3l0.2-31.5c0,0,29.2-7.3,49.1-10.2c2.3,3.7,0.2,8.5-4.6,13.3L303.1,773.7l-11.3-5.1L840.1,220.3z"
		/>
	<path class="st0" d="M647.4,565l0.5-31.2c0,0,28.9-7,48.1-9.8c2.3,3.7,0.6,8.2-4.2,13l-238,238l-11-5.5L647.4,565L647.4,565z"/>
</g>
<g>
	<path class="st0" d="M1284.1,408.3c-0.1,0.6-0.5,1-1.5,1.1v25.9c0,0.4-1.5,1.2-2.8,1.2h-0.7v-4.8c-2.7,1-6.2,2.2-10.1,3.4
		c-0.3,0.6-0.8,1.1-1.2,1.2l-1.9-3.9c1.1-0.7,1.3-1,1.3-1.9v-22.7l4.8,0.5c-0.1,0.6-0.5,1-1.4,1.1v22l2.4-0.3v-31.6l5,0.5
		c-0.1,0.6-0.4,1.1-1.5,1.2v29.5l2.5-0.3v-22.8L1284.1,408.3z M1309.8,438.7c1.2,2.1,1.4,3.1,0.9,3.8c-1.5,1.8-4.2,0.3-5.9-1.3
		c-1.5-1.5-2.7-3.4-3.6-5.6c-2,2.5-4.3,4.8-7.2,6.7l-0.5-0.6c2.6-2.5,4.8-5.7,6.6-9c-1.3-4.7-1.9-10.3-2.2-16.9h-5.4v7.4l3.9-1
		l0.2,0.6c-1.1,0.7-2.4,1.6-4.1,2.5v12.4c0,3-0.6,5.1-5.3,5.6c-0.1-1.2-0.2-2.3-0.7-2.9c-0.6-0.7-1.4-1.1-3.2-1.4v-0.7
		c0,0,3.4,0.2,4.2,0.2c0.8,0,1-0.3,1-0.9v-9.8c-0.8,0.4-1.6,0.9-2.5,1.4c-0.2,0.6-0.6,1.1-1.1,1.2l-2.1-5c1.2-0.2,3.3-0.6,5.7-1.2
		v-8.5h-5l-0.4-1.4h5.4v-8.8c-2,0.4-4.1,0.8-6.1,1l-0.2-0.6c3.9-1.6,8.8-4.5,11.3-6.4l4.3,3.5v-4l6.1,0.7c-0.1,0.7-0.5,1.2-1.7,1.4
		c-0.1,4.7-0.2,9.2-0.1,13.3h1.8l2.4-3.1c0,0,2.7,2.2,4.4,3.7c-0.1,0.5-0.6,0.8-1.2,0.8h-7.3c0.1,3.9,0.3,7.6,0.8,10.8
		c1.1-3.1,2-6.1,2.5-8.9l5.6,1.9c-0.2,0.6-0.7,0.9-1.9,0.8c-1.1,3.5-2.8,7.4-5.1,11.2c0.7,2.2,1.6,4,2.8,5.3
		c0.5,0.7,0.7,0.6,1.1-0.3c0.5-1.2,1.4-3.6,2-5.5l0.6,0L1309.8,438.7L1309.8,438.7z M1298,414.4c-0.1-3.3-0.1-6.9-0.1-10.5
		c-0.5,0.1-1.2,0-2-0.2c-0.9,0.3-2,0.7-3.2,1v9.8H1298L1298,414.4z M1303.6,402.1c9.8,3.2,6.1,9.8,2.7,7.1c-0.4-2.3-1.9-5-3.2-6.8
		L1303.6,402.1z"/>
	<path class="st0" d="M1307.5,451.3c-0.2,0.3-0.9,0.7-1.8,0.9v9.2c-0.1,0.3-2.3,1.2-3.8,1.2h-0.7v-1.8h-24.7v2.8
		c0,8.8-0.7,19.8-9.9,27.2l-0.6-0.4c5.4-7.8,6-17.5,6-26.8v-15.4l5.2,2h23.5l2.1-2.3L1307.5,451.3L1307.5,451.3z M1276.5,459.4h10.1
		v-7.8h-10.1V459.4z M1301.9,463l4.4,3.4c-0.3,0.4-0.9,0.8-2,0.9v22.4c0,0.3-1.5,1.2-3.7,1.2h-0.7v-3.1H1284v2.4
		c0,0.4-1.3,1.2-3.5,1.2h-0.8v-27.8l4.8,1.9h15.1L1301.9,463L1301.9,463z M1283.9,466.9v5.5h15.9v-5.5H1283.9z M1283.9,473.8v5.5
		h15.9v-5.5H1283.9z M1299.8,486.3v-5.7h-15.9v5.7H1299.8z M1301.2,459.4v-7.8H1291v7.8H1301.2z"/>
	<path class="st0" d="M1309,506.3c-0.1,0.7-0.5,1.1-1.8,1.3v30.2c0,0.4-2.1,1.5-3.9,1.5h-0.9v-4.7h-28.2l-1.7,2.3l-5.2-2.8
		c0.4-0.5,1.2-1,1.8-1.4v-27.1l6.5,0.7c-0.1,0.7-0.6,1.1-1.8,1.3v25.5h11.8v-37.6l6.6,0.6c-0.1,0.7-0.5,1.2-1.7,1.4v35.6h11.9v-27.6
		L1309,506.3L1309,506.3z"/>
	<path class="st0" d="M1304,548c-0.3,0.4-1.1,0.8-2,1v32.4c0,3.4-0.7,5.4-6.9,6c-0.1-1.5-0.5-2.6-1.3-3.4c-0.9-0.8-2.2-1.3-4.9-1.7
		v-0.7c0,0,6,0.4,7.2,0.4c1,0,1.2-0.4,1.2-1.2V570h-17.4c-1.1,6.7-4.3,13-12.9,17.4l-0.5-0.5c8.1-6.7,9.4-15.4,9.4-25v-17l5.4,2
		h15.6l2.3-2.6L1304,548L1304,548z M1297.3,568.6v-9.7h-16.9v2.9c0,2.3-0.1,4.5-0.3,6.8H1297.3L1297.3,568.6z M1280.4,548.2v9.4
		h16.9v-9.4H1280.4z"/>
	<path class="st0" d="M1305.1,614.5c0,0,3.5,2.5,5.5,4.4c-0.1,0.5-0.6,0.8-1.3,0.8h-18.8v14c0,0.6-2.1,1.7-3.8,1.7h-1v-15.7h-19.3
		l-0.4-1.4h19.7v-9.6h-16.3l-0.4-1.3h16.7v-16.6l6.5,0.7c-0.1,0.7-0.5,1.2-1.7,1.3v14.5h9.5l2.9-3.6c0,0,3.3,2.5,5.3,4.2
		c-0.1,0.5-0.7,0.8-1.3,0.8h-16.3v9.6h11.5L1305.1,614.5L1305.1,614.5z M1271.8,592.9c13.3,5.5,9.2,15.4,4.6,11.6
		c-0.4-3.8-2.8-8.3-5.1-11.3L1271.8,592.9z M1306.3,595c-0.2,0.5-0.9,0.9-2,0.8c-2.7,3.9-6.2,7.5-9.5,9.9l-0.6-0.5
		c1.8-3.1,4.1-8.3,5.7-12.9L1306.3,595L1306.3,595z"/>
	<path class="st0" d="M1286.9,668.1c-1.9,0.9-4.1,2-6.9,3.2v10.8c0,0.2-1.4,1.2-3.6,1.2h-0.8v-10.2c-1.8,0.7-3.7,1.5-5.9,2.3
		c-0.2,0.6-0.7,1.1-1.2,1.2l-2.7-5.4c2-0.3,5.5-0.9,9.8-1.7v-7.9h-4.1l-1.9,2l-4.3-3.1c0.5-0.4,1.2-0.8,2-1.1
		c1.1-2.7,2.4-6.6,3.6-10.4h-4.8l-0.3-1.4h5.6c1.1-3.5,1.9-6.8,2.4-9l5.8,1.7c-0.2,0.6-0.7,1.1-1.9,1c-0.5,1.7-1.2,3.9-2,6.4h4.6
		l2.4-2.9c0,0,2.7,2,4.4,3.5c-0.1,0.5-0.6,0.8-1.2,0.8h-10.6c-1.2,3.9-2.6,8-3.7,11.1h4.6v-8.7l5.5,0.6c-0.1,0.7-0.5,1.2-1.7,1.3
		v6.8h0.2l2.2-2.7c0,0,2.3,1.9,3.9,3.4c-0.1,0.5-0.6,0.8-1.2,0.8h-5v7c2.2-0.4,4.5-0.9,6.8-1.3L1286.9,668.1L1286.9,668.1z
		 M1310.9,655.5c-1.9,0.8-3.1,2-3.5,3.7c-4.1-3.9-7.4-10.2-9.4-16.3c-1.9,4-4.8,8.5-8.3,12.2l5.2,0.5c-0.1,0.6-0.5,1.1-1.5,1.2v9.7
		c2.8-2.3,6-5.7,8.5-8.9l4.9,4.2c-0.4,0.4-1,0.6-2.1,0.1c-3.7,2.7-7.7,4.9-11.3,6.3v8.4c0,0.9,0.3,1.2,2.2,1.2h4.8
		c2.1,0,3.7,0,4.3,0c0.6,0,0.9-0.2,1.2-0.7c0.4-0.8,1.2-3.5,1.9-6.5h0.6l0.1,6.8c1.3,0.5,1.6,1,1.6,1.8c0,1.9-1.9,2.6-10,2.6h-5.3
		c-4.4,0-5.5-0.9-5.5-4.1v-22.1c-1.3,1.3-2.7,2.5-4.2,3.5l-0.5-0.4c4.6-5.2,8.5-14.2,9.9-20.3l6.1,2.1c-0.1,0.6-0.7,0.9-1.9,1
		c2.3,5.6,7.5,10.6,12.3,13.4L1310.9,655.5L1310.9,655.5z"/>
	<path class="st0" d="M1278.3,706.3c10.3,4.3,6.5,11.5,2.9,8.4c-0.2-2.2-1.5-4.9-2.9-7v22.1c0,0.3-1.5,1.4-3.7,1.4h-0.8v-18.7
		c-2.1,3.5-4.8,6.7-7.9,9.4l-0.6-0.6c3.8-5.1,6.5-12.2,8-18.9h-6.8l-0.4-1.4h7.7v-7.3c-2.5,0.4-5.2,0.9-7.7,1.1l-0.2-0.7
		c5.3-1.7,11.8-5,14.9-7.4l5.4,4.4c-0.5,0.5-1.5,0.6-2.8,0.1c-1.4,0.5-3.2,1.1-5.1,1.5v8.3h1.6l2.3-3.1c0,0,2.6,2.2,4.1,3.7
		c-0.1,0.5-0.6,0.8-1.2,0.8h-6.8L1278.3,706.3L1278.3,706.3z M1311.1,699.9c-0.2,0.5-0.9,0.9-1.9,0.7c-2.7,3.3-6.1,6.4-9.2,8.6
		c1.9,7.7,5.2,13,11.3,16.7l-0.1,0.5c-2.2,0.5-3.7,2.3-4.2,4.9c-6.1-5-8.5-14.2-9.5-26.9c-0.9,11.9-4.1,20.8-17.3,27l-0.5-0.8
		c15-9.5,13.8-23.2,13.8-43.5l6.1,0.6c-0.1,0.8-0.6,1.2-1.7,1.4v1c0.2,7.1,0.8,13,1.8,17.9c1.9-2.8,4.1-7.1,5.8-11L1311.1,699.9
		L1311.1,699.9z M1289,697.1c1.6,5.6,0.5,9.8-1.2,11.6c-1.2,1.3-3.4,1.4-4.2,0c-0.7-1.3,0-2.6,1.2-3.5c1.6-1.4,3.4-4.8,3.4-8.2
		L1289,697.1z"/>
	<path class="st0" d="M1299.5,751.5c3.8-2,5.1-4.9,5.4-7c-2.1-0.7-4.9-1.7-4.9-4.6c0-1.9,1.4-3.5,3.7-3.5c2.4,0,4.1,1.9,4.1,5
		c0,4-1.9,9.1-7.4,11.6L1299.5,751.5L1299.5,751.5z"/>
	<path class="st0" d="M1224,429v9c0,2.9-0.6,4.8-5,5.2c-0.1-1.1-0.2-2.2-0.7-2.8c-0.5-0.5-1.2-1-2.9-1.2v-0.7c0,0,3,0.2,3.7,0.2
		c0.6,0,0.8-0.2,0.8-0.8V429h-4.1v1.2c0,0.2-0.7,0.6-1.6,0.9l4.8,2.1c-0.2,0.5-0.6,0.7-1.7,0.6c-1.8,2.7-4.9,5.9-8.6,7.7l-0.4-0.6
		c2.4-2.6,4.4-6.7,5.4-9.7c-0.4,0.1-0.9,0.1-1.2,0.1h-0.6v-11.5l4.2,1.7h11.3l1.9-2.1l4.2,3.2c-0.3,0.3-1,0.7-1.8,0.9v6.3
		c-0.1,0.3-2,1.1-3.3,1.1h-0.6v-2L1224,429L1224,429z M1208.8,418.8l-0.3-1.4h13.2c-0.4-0.1-0.9-0.4-1.2-0.8c0.2-1.3-0.3-3-1.1-3.8
		l0.4-0.2c6.4,1,5.8,4.1,3.7,4.9h6.5l2.3-3c0,0,2.7,2.1,4.3,3.6c-0.1,0.5-0.6,0.8-1.2,0.8L1208.8,418.8L1208.8,418.8z M1215.9,413.9
		c0,0.4-1.7,1.2-3.4,1.2h-0.6v-15.9l4.2,1.8h11.5l2-2.3l4.5,3.4c-0.3,0.4-1.1,0.8-2.1,1v10.1c-0.1,0.3-2,1.1-3.3,1.1h-0.7v-2h-12.2
		L1215.9,413.9L1215.9,413.9z M1215.9,402.5v3.5h12.2v-3.5H1215.9z M1228.1,411.1v-3.6h-12.2v3.6H1228.1z M1215.9,427.6h11.9v-4.6
		h-11.9V427.6z M1225.3,431.4c10.8,2.4,7.3,10.1,3.6,7.2c-0.4-2.4-2.3-5.2-4-6.9L1225.3,431.4z M1253.5,428.1
		c-0.3,0.5-0.8,0.7-2,0.5c-5.8,7-13,11.7-21.5,14.7l-0.4-0.8c7.2-4,13.4-9.8,18-17.6L1253.5,428.1L1253.5,428.1z M1233.6,426.3
		c4.9-3.8,9.6-9.1,13.2-14.7l5.7,3.5c-0.3,0.5-0.8,0.6-1.9,0.4c-4.6,4.5-10.6,8.7-16.5,11.6L1233.6,426.3L1233.6,426.3z M1233.7,413
		c4.7-3.5,9.1-8.4,12.5-13.6l5.5,3.4c-0.3,0.5-0.8,0.6-1.8,0.4c-4.3,4-10,7.9-15.7,10.5L1233.7,413L1233.7,413z"/>
	<path class="st0" d="M1229.5,454.3c-0.3-1.4-5.1-2.6-8.7-3.5c0.5-1,1.9-3.5,2.5-4.3c3.8,2.1,7.8,4.7,8.4,7.3
		c2.8,14.2,10.1,26.5,22.1,32.2l-0.2,0.7c-3,0.3-5,2.3-5.7,4.7c-7.9-5.4-13-14.9-16.1-25.9c-3.8,10.1-12.1,19.9-23.2,25.9l-0.6-0.6
		c10.4-7.7,18.6-21.1,21.5-36.3L1229.5,454.3L1229.5,454.3z"/>
	<path class="st0" d="M1247.6,516.2c0,0,3.4,2.5,5.4,4.3c-0.1,0.5-0.6,0.8-1.3,0.8h-18.8V538c0,0.3-1.4,1.3-3.8,1.3h-0.8v-18h-19.4
		l-0.4-1.4h19.8V500h-17.1l-0.4-1.4h31.9l3-3.5c0,0,3.4,2.5,5.5,4.2c-0.1,0.5-0.6,0.8-1.3,0.8h-16.8v19.9h11.7L1247.6,516.2
		L1247.6,516.2z M1215.4,502.8c12.5,7.2,8,17.2,3.5,12.9c-0.2-4.2-2.2-9.1-4.1-12.6L1215.4,502.8L1215.4,502.8z M1236.5,516.9
		c1.8-3.5,4-9.2,5.5-14.2l6.3,2.4c-0.2,0.5-0.8,1-1.9,0.9c-2.7,4.4-6.1,8.5-9.4,11.4L1236.5,516.9L1236.5,516.9z"/>
	<path class="st0" d="M1230.4,566.8c-2.6,9.4-8.5,16.1-21.6,20.1l-0.3-0.6c10.1-4.9,15-11.3,17.2-19.5h-15.9l-0.4-1.4h16.7
		c0.4-1.9,0.8-3.9,1-6h-13l-0.4-1.4h13.5c0.1-1.8,0.2-3.7,0.3-5.6h-15.9l-0.4-1.4h23.2c1.2-2.5,2.4-5.8,3.2-8.3l6.6,1.7
		c-0.2,0.5-0.8,1-1.9,0.9c-1.6,1.7-4.3,3.9-6.7,5.6h8.1l2.7-3.5c0,0,3,2.4,4.8,4.1c-0.1,0.5-0.6,0.8-1.3,0.8h-17.5
		c-0.1,2-0.2,3.8-0.4,5.6h9l2.6-3.3c0,0,2.9,2.3,4.7,3.9c-0.1,0.5-0.6,0.8-1.2,0.8h-15.3c-0.3,2.1-0.6,4.1-1.1,6h13.8l2.7-3.5
		c0,0,3,2.4,4.8,4.1c-0.1,0.5-0.6,0.8-1.3,0.8L1230.4,566.8L1230.4,566.8z M1218.8,542.8c10.9,2.3,6.9,10.4,2.8,7.3
		c-0.3-2.4-1.9-5.2-3.3-7L1218.8,542.8L1218.8,542.8z M1251.6,581.2c1.4,0.5,1.7,1.1,1.7,1.9c0,2-2,2.8-9.8,2.8h-5.1
		c-4.5,0-5.5-0.9-5.5-4.1v-14.3l6.1,0.5c-0.1,0.6-0.5,1.1-1.5,1.2v11.5c0,0.7,0.2,0.9,1.9,0.9h4.6c1.9,0,3.4,0,4-0.1
		c0.6,0,0.9-0.2,1.1-0.7c0.5-0.8,1.2-3.2,1.9-6.1h0.6L1251.6,581.2L1251.6,581.2z"/>
	<path class="st0" d="M1208.3,602.1c11.9,0.8,9,9.4,4.6,6.9c-0.8-2.3-3.1-5-5-6.5L1208.3,602.1L1208.3,602.1z M1224.6,599.6
		c-2.3,5.9-6.5,16.7-7.2,19.1c-0.5,1.5-0.9,3.1-0.8,4.3c0.1,2.4,1.7,4.3,1.6,8.3c-0.1,2.3-1.4,3.7-3.5,3.7c-1.1,0-1.9-0.7-2.2-2.5
		c0.8-5,0.5-9.2-0.6-9.9c-0.7-0.5-1.4-0.7-2.4-0.8v-1h2.2c0.7,0,0.9,0,1.4-0.9c0.7-1.2,4.3-8.1,10.8-20.8L1224.6,599.6L1224.6,599.6
		z M1212.2,591.6c12.5,1.3,9.5,10.1,4.8,7.4c-0.8-2.5-3.2-5.3-5.2-7L1212.2,591.6z M1248.8,626.6c0,0,3.2,2.5,5.2,4.4
		c-0.1,0.5-0.7,0.8-1.3,0.8h-32.2l-0.4-1.4h13.9v-32.8h-11.1l-0.4-1.4h22.1l2.8-3.7c0,0,3.2,2.5,5,4.3c-0.1,0.5-0.6,0.8-1.2,0.8
		h-12.3v32.8h7.2L1248.8,626.6L1248.8,626.6z"/>
	<path class="st0" d="M1227.4,654c-0.3,0.4-0.8,0.6-1.9,0.7c-2.3,9.3-7,18.6-17.2,24.2l-0.5-0.6c7.2-5.9,11.2-15.2,12.9-24.2h-11.4
		l-0.4-1.4h11.6l2.5-2.5L1227.4,654z M1251.9,650.8c-0.3,0.5-0.8,0.7-1.8,0.5c-2.9,2.6-7.4,6.1-11.9,8.8c4.1,6.9,9.6,11.1,15.2,14.1
		l-0.2,0.5c-2,0.3-3.4,1.9-4.1,4c-7.9-6.2-13.5-14.3-16.2-30.1v28.8c0,3.5-0.8,5.5-6.7,6c-0.2-1.5-0.5-2.6-1.3-3.4
		c-0.9-0.7-2.1-1.3-4.8-1.7v-0.7c0,0,5.8,0.4,7,0.4c0.9,0,1.2-0.3,1.2-1v-38.2l6.4,0.7c-0.1,0.7-0.5,1.1-1.7,1.3v4.3
		c1,5.5,2.6,10.1,4.8,13.9c3.3-3.7,6.8-8.6,8.6-11.8L1251.9,650.8L1251.9,650.8z"/>
	<path class="st0" d="M1208.8,698.2c11.8,0.9,8.7,9.4,4.3,6.8c-0.7-2.3-2.9-4.9-4.7-6.5L1208.8,698.2z M1222.9,697.4
		c-1.9,5.3-5.3,15.4-5.9,17.6c-0.4,1.5-0.8,3.1-0.8,4.2c0.1,2.3,1.8,4.3,1.6,8.5c-0.1,2.3-1.4,3.7-3.4,3.7c-1,0-1.9-0.8-2.2-2.5
		c0.8-5,0.6-9.2-0.5-9.9c-0.7-0.5-1.4-0.7-2.4-0.8v-1h2.2c0.7,0,0.9,0,1.4-1c0.7-1.1,3.8-7.5,9.3-19.1L1222.9,697.4L1222.9,697.4z
		 M1212.6,687.3c12.2,1.6,8.7,10.3,4.4,7.4c-0.7-2.5-2.9-5.3-4.8-7L1212.6,687.3z M1225.3,708.6l5.8,0.6c-0.1,0.6-0.5,1.1-1.6,1.2
		v3.9c-0.1,5.8-1.6,13.2-10.8,17.1l-0.5-0.6c6.2-4.5,7.2-11.1,7.2-16.6V708.6L1225.3,708.6z M1222,695.5l-0.4-1.4h23.9l2.6-3.5
		c0,0,3,2.3,4.8,4.1c-0.1,0.5-0.6,0.8-1.3,0.8H1235l4.3,1.8c-0.2,0.4-0.7,0.9-1.8,0.7c-2.4,1.9-6.4,4.3-10.2,5.9
		c4.3-0.2,10.4-0.6,16.9-1.1c-1.1-1.5-2.4-3-3.6-4l0.5-0.4c13.2,3.5,10.2,12.6,5.8,9.7c-0.4-1.3-1.2-2.9-2.1-4.3
		c-4.5,1.1-11.4,2.7-19.5,4.2c-0.3,0.4-0.7,0.6-1,0.7l-1.8-4.8c0,0,0.8-0.2,1.3-0.4c3-1.4,6.8-5.4,8.6-8L1222,695.5L1222,695.5z
		 M1232.2,686.3c10.9,2,6.7,10,2.6,6.8c-0.1-2.3-1.6-4.9-3.1-6.5L1232.2,686.3L1232.2,686.3z M1233.6,708.6l5.7,0.6
		c-0.1,0.6-0.4,1.1-1.5,1.2v18.5c0,0.4-1.9,1.2-3.4,1.2h-0.8L1233.6,708.6L1233.6,708.6z M1252.3,726.1c1,0.5,1.2,1,1.2,1.7
		c0,1.5-1.5,2.5-5.7,2.5h-2.2c-3.1,0-3.5-1-3.5-3.5v-18.2l5.6,0.5c-0.1,0.6-0.6,1.1-1.5,1.2v15.4c0,0.6,0.1,0.7,0.7,0.7h2.4
		c0.3,0,0.5-0.1,0.7-0.5c0.3-0.7,1-3.5,1.5-6h0.6L1252.3,726.1L1252.3,726.1z"/>
	<path class="st0" d="M1239.5,742.5c0-3.7,3.1-6.7,6.8-6.7s6.7,3,6.7,6.7s-3,6.7-6.7,6.7S1239.5,746.2,1239.5,742.5z M1241.2,742.5
		c0,2.7,2.2,5,5,5s5-2.3,5-5s-2.3-5-5-5S1241.2,739.7,1241.2,742.5z"/>
	<path class="st0" d="M1163.9,419c-0.1,0.4-0.6,0.7-1.5,0.9V442c-0.1,0.4-2,1.3-3.7,1.3h-0.8V422c-2.1,2.2-4.3,3.9-6.5,5.4l-0.6-0.5
		c4.1-4.4,8.5-11.8,11.1-19.4l6.1,2.5c-0.2,0.5-0.9,0.9-1.9,0.7c-1.4,2.6-2.9,5-4.6,7.2L1163.9,419L1163.9,419z M1151.4,407.2
		l-0.4-1.4h36.1l2.9-3.8c0,0,3.2,2.6,5.2,4.4c-0.1,0.5-0.6,0.8-1.3,0.8L1151.4,407.2L1151.4,407.2z M1193,415.7
		c-0.4,0.4-0.9,0.6-2,0.7c-1.9,6.1-4.7,11.6-9,16.2c3.8,2.5,8.5,4.4,14.3,5.6l-0.1,0.5c-2.2,0.6-3.4,2-3.8,4.4
		c-5.7-1.9-9.9-4.5-13.2-7.8c-4.1,3.5-9.3,6.2-15.9,8.2l-0.4-0.7c5.9-2.5,10.5-5.9,14.2-9.9c-2.4-3.1-4.3-6.7-5.7-10.9
		c-1.9,2.7-3.9,4.9-6.1,6.8l-0.6-0.4c3.3-5,6.5-13,8.1-20.8l6.4,1.9c-0.2,0.6-0.8,1-1.9,1c-0.5,1.2-1,2.5-1.4,3.7h10l2.7-2.6
		L1193,415.7L1193,415.7z M1168.2,398.3c11.8,1.1,8.2,9.9,3.8,6.9c-0.5-2.4-2.3-5-4.2-6.6L1168.2,398.3L1168.2,398.3z M1175.3,415.6
		c-1,2-2,3.8-3.2,5.6c1.7,3.7,4,6.8,7.1,9.4c3.4-4.4,5.7-9.5,7-15H1175.3L1175.3,415.6z M1175,417.8c10.3,3.1,6.4,10,2.9,7.1
		c-0.3-2.3-2-5-3.5-6.7L1175,417.8L1175,417.8z"/>
	<path class="st0" d="M1189.9,468.5c-0.4,0.5-0.9,0.6-2.1,0.7c-2,4.6-4.8,8.6-8.3,11.9c4.1,2.1,9.3,4,16.1,5.4l-0.1,0.6
		c-2.5,0.4-4.1,1.4-4.5,4c-6.5-2.1-11.4-4.6-14.9-7.3c-5.1,3.5-11.7,6.1-20.1,7.6l-0.3-0.7c7.3-2.1,13.3-5.1,17.9-9.1
		c-3.4-3.3-5.2-7-6.4-10.5c-3.5,7.1-8.5,13.4-16.2,17.7l-0.6-0.4c8.3-6.9,13.1-16.7,15.7-27.1h-6.6l-1.9,2.1l-4.7-3.2
		c0.5-0.3,1.2-0.8,1.9-1.1c1.2-3,2.8-7.9,3.3-10.1l6.3,1.9c-0.3,0.6-0.8,1.1-2,0.9c-0.7,2.2-1.9,5.7-2.8,8.2h6.8
		c1-4.4,1.7-9,2.1-13.4l6.8,1.1c-0.2,0.8-0.8,1.2-1.9,1.2c-0.5,3.6-1.2,7.4-2.2,11h16l2.8-3.5c0,0,3.2,2.4,5.1,4.2
		c-0.1,0.5-0.7,0.8-1.3,0.8h-23c-0.5,1.9-1.2,3.8-1.9,5.7h13.6l2.8-2.6L1189.9,468.5L1189.9,468.5z M1168.4,468.3
		c-0.2,0.5-0.4,1-0.6,1.4c1.3,3.3,3.9,6.6,8.3,9.4c3-3.1,5.1-6.8,6.7-10.9H1168.4z M1178.8,448.1c12.7,3.1,8.9,11.9,4.5,8.6
		c-0.7-2.8-3-6.2-4.9-8.3L1178.8,448.1L1178.8,448.1z"/>
	<path class="st0" d="M1150.8,506.2c11.6,1.1,8.5,9.4,4.2,6.7c-0.6-2.3-2.7-4.9-4.6-6.3L1150.8,506.2z M1165.1,504.1
		c-1.9,5.8-5.3,16.4-5.9,18.8c-0.4,1.5-0.7,3.1-0.7,4.3c0.1,2.4,1.7,4.3,1.6,8.3c-0.1,2.3-1.4,3.7-3.5,3.7c-1,0-1.9-0.7-2.2-2.4
		c0.8-4.9,0.5-9-0.6-9.8c-0.6-0.4-1.3-0.6-2.3-0.7v-1h2.1c0.6,0,0.8,0,1.3-1c0.6-1.2,3.7-8,9.2-20.5L1165.1,504.1L1165.1,504.1z
		 M1154.2,495.5c12,0.9,9.3,9.5,4.8,7.1c-0.8-2.4-3.2-5.1-5.1-6.7L1154.2,495.5L1154.2,495.5z M1190.5,507.9c0,0,3,2.2,4.8,3.7
		c-0.1,0.5-0.6,0.8-1.3,0.8h-29.4l-0.4-1.3h12.4v-4.4h-9.5l-0.4-1.4h9.9v-3.9h-10.7l-0.4-1.4h11v-4.9l6.2,0.6
		c-0.1,0.7-0.5,1.1-1.7,1.4v3h6.1l2.5-3c0,0,2.9,2.1,4.6,3.6c-0.1,0.5-0.6,0.8-1.2,0.8h-11.9v3.9h5.4l2.4-3.1c0,0,2.8,2.2,4.5,3.7
		c-0.1,0.5-0.6,0.8-1.2,0.8h-11.1v4.4h7L1190.5,507.9L1190.5,507.9z M1187.5,513.6l4.8,3.7c-0.3,0.4-1,0.8-2,1v15.8
		c0,3-0.7,4.8-6.4,5.3c-0.1-1.3-0.4-2.3-1.2-2.9c-0.8-0.7-2-1.2-4.5-1.5v-0.7c0,0,5.4,0.4,6.5,0.4c0.9,0,1.1-0.3,1.1-1v-4.4h-13.5
		v8.6c0,0.4-1.8,1.5-3.7,1.5h-0.7v-25.1l4.7,1.9h12.7L1187.5,513.6L1187.5,513.6z M1172.4,517.5v4.3h13.5v-4.3H1172.4z
		 M1185.9,527.8v-4.6h-13.5v4.6H1185.9z"/>
	<path class="st0" d="M1151.1,554.2c11.5,0.9,8.3,9.2,4,6.5c-0.6-2.3-2.7-4.7-4.5-6.2L1151.1,554.2L1151.1,554.2z M1165.4,551.7
		c-2,5.9-5.6,16.7-6.2,19.1c-0.4,1.5-0.8,3.2-0.8,4.4c0.1,2.4,1.8,4.3,1.6,8.5c-0.1,2.3-1.4,3.7-3.4,3.7c-1.1,0-1.9-0.8-2.2-2.5
		c0.8-5,0.6-9.2-0.5-9.9c-0.7-0.5-1.5-0.7-2.4-0.8v-1h2.1c0.7,0,0.9,0,1.4-1c0.6-1.2,3.8-8.1,9.6-20.8L1165.4,551.7L1165.4,551.7z
		 M1154.7,543.3c12.2,1.3,8.9,9.9,4.5,7.2c-0.7-2.5-3-5.2-4.8-6.8L1154.7,543.3L1154.7,543.3z M1181.1,575.7
		c1.9,2.8,6.3,5.4,14.6,7.1l-0.1,0.6c-2.3,0.5-3.5,1.4-3.7,4c-7.5-2.5-10.6-7.7-12-11.6h-0.4c-2.1,5.2-6.8,9.5-18.1,11.7l-0.3-0.6
		c8.2-2.6,11.9-6.6,13.6-11.1h-12.1l-0.4-1.4h12.8c0.3-1.2,0.5-2.5,0.6-3.7c-2.4,0.4-4.9,0.8-7.5,1.2c-0.3,0.5-0.6,0.9-1,1l-2.3-4.8
		c0,0,1.1-0.1,1.6-0.3c3.7-1.2,8.2-3.3,12.1-5.5c-2.8,0.6-6.1,1.4-9.8,2.1c-0.3,0.5-0.6,0.8-0.9,1l-2.2-4.4c0,0,0.8-0.1,1.2-0.3
		c3.5-1,7.8-4.5,9.5-6.2l4.9,2.7c-0.2,0.4-0.9,0.8-2,0.5c-2,1-4.9,2.3-7.8,3.2c2.8,0,6.3-0.1,9.8-0.3c2.2-1.4,4-2.7,5.3-3.8l4.7,3.2
		c-0.3,0.4-1.1,0.7-2.2,0.3c-4,2.4-11.3,5.5-17.9,7.7c4.4-0.2,10.5-0.6,16.8-1c-1.1-1.3-2.2-2.5-3.4-3.4l0.4-0.3
		c11.9,1.6,9.2,10.1,5,7.6c-0.2-1-0.8-1.9-1.4-2.9c-2.7,0.6-6.1,1.2-10.1,2l3.8,0.5c-0.1,0.8-0.7,1.2-1.8,1.2
		c-0.1,0.9-0.3,1.8-0.6,2.6h8.3l2.5-3.1c0,0,2.8,2.2,4.6,3.7c-0.1,0.5-0.6,0.8-1.3,0.8L1181.1,575.7L1181.1,575.7z M1192.6,547.4
		c-0.5,0.4-1.5,0.4-2.9-0.2c-6.3,0.9-16.1,1.5-24.5,1.4l-0.1-0.8c7.8-1,17.8-3.3,22.9-5.1L1192.6,547.4L1192.6,547.4z M1167.2,549.6
		c9.2,2.7,4.7,9,1.4,6c-0.1-2-1.1-4.4-2-5.8L1167.2,549.6z M1176.1,548.4c9.4,2.5,5.1,9,1.7,6.1c-0.2-2-1.3-4.4-2.3-5.9
		L1176.1,548.4L1176.1,548.4z M1184.1,556.2c1.1-2,2.4-5.3,3.6-8.3l5.3,2.7c-0.3,0.4-0.9,0.8-1.9,0.6c-1.9,2-4.2,4.1-6.3,5.4
		L1184.1,556.2L1184.1,556.2z"/>
	<path class="st0" d="M1194.7,601c-0.3,0.4-1.1,0.8-2,1v27.5c0,3.3-0.8,5.3-6.7,5.8c-0.2-1.4-0.5-2.5-1.3-3.2
		c-0.9-0.7-2.2-1.3-4.8-1.7v-0.7c0,0,5.8,0.4,7.1,0.4c1,0,1.2-0.3,1.2-1.1v-27.8h-29.9v32.5c0,0.5-1.8,1.6-3.7,1.6h-0.8v-37.5
		l4.9,2.1h8.5c1.1-2.8,2.2-6.4,2.8-9l7.1,1.7c-0.2,0.6-0.8,1-1.8,1c-1.5,1.8-3.6,4.3-5.8,6.3h18.3l2.2-2.5L1194.7,601L1194.7,601z
		 M1182,624c-0.1,0.3-2.2,1.3-3.6,1.3h-0.7v-4h-9.4v3.9c0,0.5-1.8,1.4-3.5,1.4h-0.7v-20.1l4.4,1.8h8.7l2.2-2.3l4.6,3.5
		c-0.3,0.4-1.1,0.8-2,1L1182,624L1182,624z M1177.7,619.9v-10.2h-9.4v10.2H1177.7z"/>
	<path class="st0" d="M1186.8,677.5l3.2-4c0,0,3.6,2.7,5.8,4.6c-0.1,0.5-0.6,0.8-1.3,0.8h-43.2l-0.4-1.4L1186.8,677.5L1186.8,677.5z
		 M1184.6,644.5l3-3.8c0,0,3.5,2.6,5.6,4.5c-0.1,0.5-0.6,0.8-1.3,0.8h-38.1l-0.4-1.4H1184.6z M1180.6,660.2l3-3.7
		c0,0,3.4,2.5,5.4,4.3c-0.1,0.5-0.6,0.8-1.3,0.8h-30.5l-0.4-1.4H1180.6L1180.6,660.2z"/>
	<path class="st0" d="M1164.3,720.1c-2.9,1-6.6,2.1-10.6,3.3c-0.3,0.5-0.8,0.8-1.1,1l-1.8-3.9c1.2-0.7,1.3-1,1.3-1.9v-22.8l5.1,0.6
		c-0.1,0.6-0.5,1-1.5,1.2v21.9l2.4-0.2v-31.3l5.2,0.5c-0.1,0.7-0.4,1.1-1.5,1.2v29.2l2.4-0.2v-23l5.2,0.5c-0.1,0.6-0.5,1.1-1.5,1.2
		v26.1c0,0.4-1.6,1.2-2.9,1.2h-0.8L1164.3,720.1L1164.3,720.1z M1182.6,712.8c1.4,5.1,5.2,10.4,13.4,13.7l-0.1,0.6
		c-2.3,0.4-3.5,1.5-3.8,4.2c-7-4.3-9.5-12.4-10.4-18.5c-1.9,7.9-6.9,14.6-18.4,18.4l-0.4-0.7c9-4.4,13-10.7,14.5-17.8h-8.6l-0.4-1.4
		h9.3c0.5-2.8,0.7-5.7,0.7-8.7V697h-8.5l-0.4-1.4h8.9v-8.9l6.2,0.6c-0.1,0.7-0.5,1.2-1.7,1.3v6.9h4.6l2.5-3.2c0,0,2.8,2.2,4.6,3.8
		c-0.1,0.5-0.6,0.8-1.3,0.8h-10.4v5.8c0,3-0.2,5.9-0.8,8.7h6.8l2.5-3.2c0,0,2.8,2.2,4.6,3.8c-0.1,0.5-0.6,0.8-1.3,0.8L1182.6,712.8
		L1182.6,712.8z M1170.8,699.4c9.3,5.7,5.2,12.7,2,9.4c0-3-1.4-6.7-2.6-9.1L1170.8,699.4L1170.8,699.4z M1184.9,710
		c1.2-3.3,2.5-8.5,3.1-11l5.6,2.6c-0.1,0.4-0.7,0.9-1.7,0.7c-1.4,2-4.1,5.5-6.6,8L1184.9,710L1184.9,710z"/>
	<path class="st0" d="M1184.3,751.5c3.8-2,5.1-4.9,5.4-7c-2.1-0.7-4.9-1.7-4.9-4.6c0-1.9,1.4-3.5,3.7-3.5c2.4,0,4.1,1.9,4.1,5
		c0,4-1.9,9.1-7.4,11.6L1184.3,751.5L1184.3,751.5z"/>
	<path class="st0" d="M1099.7,426.9c2.3,6.2,0.3,10.5-2,12c-1.5,1.1-3.7,0.8-4.3-0.8c-0.6-1.5,0.4-2.8,1.8-3.5
		c1.9-1.2,3.9-4.3,3.8-7.7H1099.7z M1104.3,421.7v1.8c0,0.5-2,1.5-3.9,1.5h-0.7v-25l4.9,2.1h21.6l2.3-2.5l4.8,3.7
		c-0.3,0.4-1,0.8-2,1v18.7c-0.1,0.3-2.3,1.3-3.8,1.3h-0.8v-2.5L1104.3,421.7L1104.3,421.7z M1104.3,403.5v7.5h9v-7.5H1104.3z
		 M1113.3,420.3v-7.9h-9v7.9H1113.3z M1127.5,437.2c1.5,0.5,1.9,1,1.9,1.9c0,2-2.1,2.7-11.7,2.7h-6.6c-5,0-6.2-0.8-6.2-4v-12
		l6.1,0.6c-0.1,0.6-0.5,1-1.5,1.2v9.3c0,0.7,0.2,0.9,2.3,0.9h6.3c2.5,0,4.6,0,5.4,0c0.8,0,1-0.2,1.3-0.7c0.5-0.8,1.2-2.9,2-5.7h0.6
		L1127.5,437.2L1127.5,437.2z M1112.8,423.6c12.2,3.5,8.1,12.7,3.8,9.2c-0.2-3.1-2.3-6.7-4.2-8.9L1112.8,423.6L1112.8,423.6z
		 M1117.7,403.5v7.5h9v-7.5H1117.7z M1126.7,420.3v-7.9h-9v7.9H1126.7z M1127.9,426.5c14.1,4.6,9.9,15.1,5.2,11.2
		c-0.4-3.8-3-8.1-5.6-10.9L1127.9,426.5L1127.9,426.5z"/>
	<path class="st0" d="M1133.3,454.7c0,0,2.8,2.4,4.5,4c-0.1,0.5-0.6,0.8-1.3,0.8h-6.6v9.6c-0.1,0.3-2.3,1.1-3.8,1.1h-0.7v-2.6H1111
		c-1.2,2.2-2.5,4.2-4.2,6.1l3.1,1.2h17l2.2-2.5l4.9,3.7c-0.3,0.4-1,0.8-2,1v12.7c-0.1,0.3-2.3,1.2-3.8,1.2h-0.8v-3.1h-18.1v2.2
		c0,0.3-1.4,1.3-3.7,1.3h-0.8v-15.6c-3,2.9-6.7,5.3-11.2,7.4l-0.5-0.5c6.2-3.9,10.5-9,13.2-15.1h-7.4l-0.4-1.4h8.4
		c0.9-2.1,1.6-4.3,2.1-6.7h-14.6l-0.4-1.4h15.4c0.4-2.1,0.8-4.3,1-6.6h-10.9l-0.4-1.4h25.9l2.2-2.5l4.9,3.7
		c-0.4,0.4-1.1,0.9-2.1,1.1v5.8h0.9L1133.3,454.7L1133.3,454.7z M1109.2,476.2v10.2h18.1v-10.2H1109.2z M1125.3,459.5h-11.2
		c-0.7,2.4-1.4,4.6-2.4,6.7h13.6V459.5z M1115.6,451.4c-0.3,2.3-0.7,4.5-1.2,6.6h10.8v-6.6H1115.6z"/>
	<path class="st0" d="M1120.6,500.6c-1.1,2.6-2.5,5.2-4.1,7.7l2.7,1c-0.1,0.4-0.6,0.8-1.5,0.9v28c-0.1,0.3-2.1,1.1-3.7,1.1h-0.9
		v-26.1c-5.2,6.8-12.1,13-19.8,17.4l-0.5-0.5c9.8-7.6,18.2-19.3,21.6-29.5h-20.5l-0.4-1.4h35.2l3.1-3.8c0,0,3.4,2.6,5.6,4.5
		c-0.1,0.5-0.6,0.8-1.3,0.8L1120.6,500.6L1120.6,500.6z M1120.1,512.6c21,5.9,19.2,17.3,13.7,14.6c-2.6-4.8-9.2-10.7-14.2-14.1
		L1120.1,512.6L1120.1,512.6z"/>
	<path class="st0" d="M1136.3,581.2c1.4,0.5,1.7,1.1,1.7,1.9c0,1.9-2,2.8-10.1,2.8h-5.4c-4.6,0-5.6-0.9-5.6-4.1v-17.1
		c-1.6,9.2-6.4,17-22.9,22.6l-0.5-0.8c20-9.1,19.4-21.3,19.5-36l6.4,0.6c-0.1,0.7-0.6,1.2-1.7,1.3c-0.1,3.9-0.2,7.8-0.8,11.4
		l5.9,0.6c-0.1,0.6-0.5,1.1-1.5,1.2v15c0,0.8,0.3,1.1,2,1.1h4.9c2,0,3.6,0,4.3,0c0.7,0,0.9-0.2,1.1-0.9c0.5-1.1,1.2-4.2,2-8h0.6
		L1136.3,581.2L1136.3,581.2z M1104.9,570.8c0,0.3-1.5,1.3-3.8,1.3h-0.8v-28.5l5.2,2.1h21l2.4-2.8l4.6,3.7c-0.3,0.4-0.8,0.8-1.9,0.9
		v22.7c0,0.3-1.6,1.3-4,1.3h-0.9v-24.5h-21.8L1104.9,570.8L1104.9,570.8z"/>
	<path class="st0" d="M1132.4,591.3c0,0,3.5,2.7,5.7,4.6c-0.1,0.5-0.6,0.8-1.4,0.8h-19.8v9.1c21,4.5,19.4,16.1,13.5,13.5
		c-2.7-4.3-8.6-9.3-13.5-12.4v27c0,0.3-1.6,1.4-3.9,1.4h-0.9v-38.6h-18.4l-0.4-1.4h36.1L1132.4,591.3L1132.4,591.3z"/>
	<path class="st0" d="M1093.3,650.2c11.3,1.1,8,9.2,3.7,6.5c-0.5-2.2-2.5-4.7-4.2-6.1L1093.3,650.2L1093.3,650.2z M1106.5,646.8
		c-1.7,6-4.8,17.2-5.4,19.8c-0.4,1.6-0.7,3.2-0.6,4.4c0.1,2.5,1.7,4.4,1.6,8.5c-0.1,2.3-1.3,3.7-3.4,3.7c-1,0-1.9-0.8-2.2-2.4
		c0.8-4.9,0.6-9.2-0.5-9.9c-0.7-0.5-1.4-0.7-2.4-0.8v-1h2.1c0.7,0,0.9,0,1.3-1c0.6-1.2,3.5-8.4,8.6-21.6L1106.5,646.8L1106.5,646.8z
		 M1096.5,639.2c12.1,1.4,8.7,9.9,4.3,7.1c-0.7-2.3-2.8-5.1-4.7-6.7L1096.5,639.2L1096.5,639.2z M1122.6,642.1
		c3.6,4.4,10.4,7.9,15.9,9.5l-0.1,0.6c-1.7,0.8-2.7,2.1-3,3.8c-5.4-2.7-10.4-7.6-13.6-12.9c-4.6,6.6-10.6,10.8-16.9,13.3l-0.5-0.6
		c5.3-3.5,11-10,14.4-17.7l5.9,3.1c-0.3,0.5-1,0.9-2.1,0.6L1122.6,642.1L1122.6,642.1z M1117.8,655.5l4.1,3.1
		c-0.2,0.3-0.9,0.7-1.7,0.9v18.8c0,2.8-0.5,4.3-4.3,4.7c-0.1-1-0.2-2-0.6-2.5c-0.4-0.5-1-0.9-2.2-1.2v-0.7c0,0,2.2,0.2,2.7,0.2
		c0.6,0,0.7-0.3,0.7-0.8v-5.6h-6.2v9.9c0,0.4-1.5,1.2-3.1,1.2h-0.6v-27.5l3.9,1.7h5.6L1117.8,655.5L1117.8,655.5z M1110.3,658.9v5
		h6.2v-5H1110.3z M1116.5,670.8v-5.5h-6.2v5.5H1116.5z M1124.6,649.2c0,0,2.7,2,4.3,3.5c-0.1,0.5-0.6,0.8-1.3,0.8h-14.1l-0.4-1.4
		h9.2L1124.6,649.2L1124.6,649.2z M1126.7,674.5c0,0.4-1.4,1.1-2.7,1.1h-0.7v-18.1l4.9,0.5c-0.1,0.6-0.5,1-1.5,1.2V674.5
		L1126.7,674.5z M1130.2,656l5.3,0.6c-0.1,0.7-0.6,1.1-1.7,1.2v20.3c0,2.9-0.5,4.6-5,5c-0.1-1.1-0.3-2.1-0.9-2.7
		c-0.6-0.6-1.6-1-3.4-1.3v-0.7c0,0,4,0.3,4.8,0.3c0.7,0,1-0.2,1-0.9L1130.2,656L1130.2,656z"/>
	<path class="st0" d="M1099,698.6c2.7,7.2,1.1,11.8-1,13.9c-1.4,1.5-3.7,1.6-4.7,0.1c-0.8-1.3-0.1-2.6,1.1-3.5
		c2.1-1.6,4.2-5.8,3.8-10.5L1099,698.6L1099,698.6z M1108.6,688.9c-0.1,0.7-0.5,1.1-1.7,1.3v16.5c-0.1,10.1-2.5,19.3-12.8,24.7
		l-0.5-0.6c7.2-6.1,8.9-14.6,8.9-24.2v-18.4L1108.6,688.9L1108.6,688.9z M1110.6,711.4c0.2-3.5-1.3-7.8-2.9-10.6l0.6-0.3
		C1119.2,706.5,1114.6,715.4,1110.6,711.4L1110.6,711.4z M1121.7,689.6c-0.1,0.6-0.5,1.1-1.7,1.3V729c0,0.5-1.9,1.6-3.6,1.6h-0.9
		V689L1121.7,689.6z M1124.5,711.7c0-3.7-2.1-8.1-4.2-11l0.5-0.3C1133.1,706.2,1128.6,715.6,1124.5,711.7L1124.5,711.7z
		 M1135.7,688.9c-0.1,0.7-0.5,1.2-1.8,1.3v39.5c0,0.6-2,1.6-3.7,1.6h-0.9v-43.1L1135.7,688.9L1135.7,688.9z"/>
	<path class="st0" d="M1124.3,742.5c0-3.7,3.1-6.7,6.8-6.7s6.7,3,6.7,6.7s-3,6.7-6.7,6.7S1124.3,746.2,1124.3,742.5z M1126,742.5
		c0,2.7,2.2,5,5,5s5-2.3,5-5s-2.3-5-5-5S1126,739.7,1126,742.5z"/>
</g>
</svg>
